*
G04 Job   : C:\ADI_Projects\Minnowboard\Turbot_F200_X200\PCB\Turbot_F200_X200.pcb*
G04 User  : LEN-ADI-PC:Len*
G04 Layer : 80101_0125_F200_L05.gdo*
G04 Date  : Tue Aug 04 10:36:48 2015*
G04 Mentor Graphics Example Gerber Output Definition*
%ICAS*%
%MOIN*%
%FSLAX24Y24*%
%OFA0.0000B0.0000*%
G90*
G74*
%AMVB_RECTANGLE*
21,1,$1,$2,0,0,$3*
%
%ADD12C,0.00400*%
%ADD10C,0.00500*%
%ADD13C,0.00620*%
%ADD14C,0.00800*%
%ADD15C,0.01200*%
%ADD11C,0.01600*%
%ADD16VB_RECTANGLE,0.05800X0.05800X0.00000*%
G01*
G36*
X6820Y26230D02*
G03X6814Y26244I20D01*
G01X6564Y26495*
G03X6550Y26500I14J15*
X6536Y26495J20*
G01X6260Y26235*
G03X6258Y26233I13J16*
G01Y26232*
X6257*
G03X6255Y26230I14J15*
G01X5995Y25954*
G03X5990Y25940I15J14*
X5995Y25926I20*
G01X6246Y25676*
G03X6260Y25670I14J14*
X6274Y25676J20*
G01X6525Y25926*
G03X6530Y25940I15J14*
X6525Y25954I20*
G01X6343Y26147*
X6536Y25965*
G03X6550Y25960I14J15*
X6564Y25965J20*
G01X6814Y26216*
G03X6820Y26230I14J14*
G01X10100Y22492D02*
G02X10106Y22506I20D01*
G01X10194Y22594*
G02X10208Y22600I14J14*
G01X10890*
G02X10910Y22580J20*
G01Y22460*
G03X10960Y22410I50*
G01X11540*
G03X11590Y22460J50*
G01Y22580*
G02X11610Y22600I20*
G01X12140*
G02X12160Y22580J20*
G01Y22460*
G03X12210Y22410I50*
G01X12790*
G03X12840Y22460J50*
G01Y22580*
G02X12860Y22600I20*
G01X13042*
G02X13056Y22594J20*
G01X13766Y21884*
G02X13772Y21870I14J14*
X13768Y21858I20*
G03X13750Y21800I82J58*
X13850Y21700I100*
X13908Y21718J100*
G02X13920Y21722I12J16*
X13934Y21716J20*
G01X14200Y21450*
X15102*
G02X15110Y21448J20*
G03X15160Y21438I50J115*
X15210Y21448J125*
G02X15218Y21450I8J18*
G01X17075*
Y21200*
G03X17200Y21075I125*
X17325Y21200J125*
X17200Y21325I125*
X17075Y21200J125*
G01Y21450*
X17375*
Y21200*
G03X17500Y21075I125*
X17625Y21200J125*
X17500Y21325I125*
X17375Y21200J125*
G01Y21450*
X18575*
Y21100*
G03X18700Y20975I125*
X18825Y21100J125*
X18700Y21225I125*
X18575Y21100J125*
G01Y21450*
X19180*
Y21000*
G03X19300Y20880I120*
X19420Y21000J120*
X19300Y21120I120*
X19180Y21000J120*
G01Y21450*
X20530*
Y20900*
G03X20650Y20780I120*
X20770Y20900J120*
X20650Y21020I120*
X20530Y20900J120*
G01Y21450*
X21430*
Y20900*
G03X21550Y20780I120*
X21670Y20900J120*
X21550Y21020I120*
X21430Y20900J120*
G01Y21450*
X21675*
Y21100*
G03X21800Y20975I125*
X21925Y21100J125*
X21800Y21225I125*
X21675Y21100J125*
G01Y21450*
X22120*
Y20900*
G03X22240Y20780I120*
X22360Y20900J120*
X22240Y21020I120*
X22120Y20900J120*
G01Y21450*
X23142*
G02X23156Y21444J20*
G01X23641Y20959*
G02X23647Y20944I14J15*
X23646Y20938I20*
G03X23640Y20900I114J38*
X23760Y20780I120*
X23880Y20900J120*
X23878Y20922I120*
G02Y20926I20J4*
X23885Y20942I20*
X23910Y20950I25J32*
G01X24380*
G02X24405Y20942J40*
X24412Y20926I13J16*
Y20922I20*
G03X24410Y20900I118J22*
X24530Y20780I120*
X24650Y20900J120*
X24648Y20922I120*
G02Y20926I20J4*
X24655Y20942I20*
X24680Y20950I25J32*
G01X25140*
G02X25165Y20942J40*
X25172Y20926I13J16*
Y20922I20*
G03X25170Y20900I118J22*
X25290Y20780I120*
X25410Y20900J120*
X25408Y20922I120*
G02Y20926I20J4*
X25415Y20942I20*
X25440Y20950I25J32*
G01X25750*
G02X25775Y20942J40*
X25782Y20926I13J16*
Y20922I20*
G03X25780Y20900I118J22*
X25783Y20875I120*
G02Y20870I20J5*
X25763Y20850I20*
X25759Y20851J20*
G03X25733Y20854I26J117*
X25613Y20734J120*
X25733Y20614I120*
X25853Y20734J120*
X25850Y20759I120*
G02X25849Y20763I19J4*
X25869Y20783I20*
X25874J20*
G03X25900Y20780I26J117*
X26020Y20900J120*
X26018Y20922I120*
G02Y20926I20J4*
X26025Y20942I20*
X26050Y20950I25J32*
G01X26270*
G02X26295Y20942J40*
X26302Y20926I13J16*
Y20922I20*
G03X26300Y20900I118J22*
X26420Y20780I120*
X26540Y20900J120*
X26538Y20922I120*
G02Y20926I20J4*
X26545Y20942I20*
X26570Y20950I25J32*
X26595Y20942J40*
X26602Y20926I13J16*
Y20922I20*
G03X26600Y20900I118J22*
X26668Y20792I120*
G01Y19879*
G03X26788Y19759I120*
X26908Y19879J120*
X26889Y19944I120*
G02X26886Y19955I17J11*
X26890Y19968I20*
G01X26897Y19976*
G02X26912Y19983I15J13*
X26921Y19981J20*
G03X26976Y19968I55J117*
X27106Y20098J130*
X26976Y20228I130*
X26846Y20098J130*
X26868Y20026I130*
G02X26871Y20015I17J11*
X26867Y20002I20*
G01X26860Y19994*
G02X26845Y19987I15J13*
X26837Y19989J20*
G03X26788Y19999I49J110*
X26668Y19879J120*
G01Y20792*
G03X26720Y20780I52J108*
X26840Y20900J120*
X26838Y20922I120*
G02Y20926I20J4*
X26845Y20942I20*
X26870Y20950I25J32*
G01X26873*
G02X26893Y20930J20*
Y20926I20*
G03X26890Y20900I117J26*
X27010Y20780I120*
X27130Y20900J120*
X27128Y20922I120*
G02Y20926I20J4*
X27135Y20942I20*
X27160Y20950I25J32*
G01X27292*
G02X27306Y20944J20*
G01X27394Y20856*
G02X27400Y20842I14J14*
G01Y19658*
G02X27394Y19644I20*
G01X27312Y19562*
G02X27298Y19557I14J15*
X27288Y19559J20*
G03X27222Y19578I66J111*
X27146Y19554J130*
G02X27135Y19550I11J16*
G01X26558*
G02X26544Y19556J20*
G01X25900Y20200*
X23208*
G02X23194Y20206J20*
G01X22700Y20700*
X18371*
G02X18358Y20705J20*
G03X18280Y20733I78J92*
X18203Y20705J120*
G02X18190Y20700I13J15*
G01X17458*
G02X17444Y20706J20*
G01X17250Y20900*
X13823*
G02X13808Y20906J20*
G01X13691Y21023*
G02X13687Y21030I14J14*
G03X13670Y21058I93J37*
G02X13666Y21068I16J12*
G03X13537Y21180I129J18*
X13530J130*
G01X13529*
G02X13514Y21186J20*
G01X12812Y21888*
G02X12808Y21893I14J14*
G03X12500Y22090I308J143*
X12200Y21911J340*
G02X12183Y21900I17J9*
G01X11567*
G02X11550Y21911J20*
G03X11250Y22090I300J161*
X10950Y21911J340*
G02X10933Y21900I17J9*
G01X10208*
G02X10194Y21906J20*
G01X10106Y21994*
G02X10100Y22008I14J14*
G01Y22492*
X21700Y14442D02*
G03X21694Y14456I20D01*
G01X21646Y14504*
G03X21632Y14510I14J14*
G01X21268*
G03X21254Y14504J20*
G01X21206Y14456*
G03X21200Y14442I14J14*
G01Y14406*
G03X21202Y14398I20*
G02X21214Y14345I108J53*
X21094Y14225I120*
X21026Y14246J120*
G03X21014Y14250I12J16*
G01X20894*
G03X20883Y14246J20*
G02X20814Y14225I69J99*
X20746Y14246J120*
G03X20734Y14250I12J16*
G01X20614*
G03X20603Y14246J20*
G02X20534Y14225I69J99*
X20466Y14246J120*
G03X20454Y14250I12J16*
G01X20351*
G03X20338Y14245J20*
G02X20254Y14215I84J100*
X20171Y14245J130*
G03X20158Y14250I13J15*
G01X20054*
G03X20043Y14246J20*
G02X19974Y14225I69J99*
X19906Y14246J120*
G03X19894Y14250I12J16*
G01X19791*
G03X19778Y14245J20*
G02X19694Y14215I84J100*
X19611Y14245J130*
G03X19598Y14250I13J15*
G01X19494*
G03X19483Y14246J20*
G02X19414Y14225I69J99*
X19345Y14246J120*
G03X19334Y14250I11J16*
G01X19214*
G03X19203Y14246J20*
G02X19134Y14225I69J99*
X19065Y14246J120*
G03X19054Y14250I11J16*
G01X18934*
G03X18923Y14246J20*
G02X18854Y14225I69J99*
X18741Y14306J120*
G03X18736Y14314I19J6*
G01X18656Y14394*
G03X18642Y14400I14J14*
G01X17908*
G03X17894Y14394J20*
G01X17856Y14356*
G03X17850Y14342I14J14*
G01Y14158*
G03X17856Y14144I20*
G01X17907Y14093*
G03X17921Y14087I14J14*
X17925J20*
G02X17950Y14090I25J117*
X18070Y13970J120*
X18068Y13949I120*
G03Y13945I20J4*
X18088Y13925I20*
G01X21617*
G03X21631Y13931J20*
G01X21694Y13994*
G03X21700Y14008I14J14*
G01Y14442*
X31650Y12142D02*
G02X31656Y12156I20D01*
G01X31794Y12294*
G02X31808Y12300I14J14*
G01X32575*
Y10850*
G03X32700Y10725I125*
X32825Y10850J125*
X32700Y10975I125*
X32575Y10850J125*
G01Y11250*
G03X32700Y11125I125*
X32825Y11250J125*
X32700Y11375I125*
X32575Y11250J125*
G01Y11650*
G03X32700Y11525I125*
X32825Y11650J125*
X32700Y11775I125*
X32575Y11650J125*
G01Y12050*
G03X32700Y11925I125*
X32825Y12050J125*
X32700Y12175I125*
X32575Y12050J125*
G01Y12300*
X33145*
Y11364*
G03X33270Y11239I125*
X33395Y11364J125*
X33270Y11489I125*
X33145Y11364J125*
G01Y12300*
X33673*
Y11650*
G03X33682Y11605I125*
G01Y11349*
G03X33723Y11256I125*
G02X33730Y11241I13J15*
X33723Y11227I20*
G03X33684Y11136I86J91*
X33809Y11011I125*
X33855Y11020J125*
G01Y10897*
G03X33980Y10772I125*
X34105Y10897J125*
X33980Y11022I125*
X33855Y10897J125*
G01Y11020*
G03X33934Y11136I46J116*
X33893Y11229I125*
G02X33886Y11244I13J15*
X33893Y11258I20*
G03X33932Y11349I86J91*
X33807Y11474I125*
X33682Y11349J125*
G01Y11605*
G03X33798Y11525I116J45*
X33923Y11650J125*
X33798Y11775I125*
X33673Y11650J125*
G01Y12300*
X33719*
G02X33730Y12297J20*
G03X33800Y12275I70J103*
X33870Y12297J125*
G02X33881Y12300I11J17*
G01X34575*
Y11650*
G03X34615Y11558I125*
G01Y11304*
G03X34740Y11179I125*
X34865Y11304J125*
X34740Y11429I125*
X34615Y11304J125*
G01Y11558*
G03X34700Y11525I85J92*
X34825Y11650J125*
X34700Y11775I125*
X34575Y11650J125*
G01Y12300*
X35036*
G02X35056Y12280J20*
X35045Y12262I20*
G03X34975Y12150I55J112*
G01Y11250*
G03X35100Y11125I125*
X35225Y11250J125*
X35100Y11375I125*
X34975Y11250J125*
G01Y12150*
G03X35100Y12025I125*
X35225Y12150J125*
X35155Y12262I125*
G02X35144Y12280I9J18*
X35164Y12300I20*
G01X36212*
Y11003*
G03X36337Y10878I125*
X36462Y11003J125*
X36337Y11128I125*
X36212Y11003J125*
G01Y12300*
X36503*
Y11002*
G03X36628Y10877I125*
X36677Y10887J125*
G02X36685Y10889I8J18*
X36701Y10881J20*
G01X36704Y10877*
G02X36708Y10865I16J12*
X36705Y10853I20*
G03X36682Y10782I102J71*
X36807Y10657I125*
X36932Y10782J125*
X36807Y10907I125*
X36758Y10897J125*
G02X36750Y10895I8J18*
X36735Y10903J20*
G01X36732Y10906*
G02X36727Y10919I15J13*
X36731Y10930I20*
G03X36753Y11002I103J72*
X36628Y11127I125*
X36503Y11002J125*
G01Y12300*
X36586*
G02X36606Y12280J20*
X36595Y12262I20*
G03X36525Y12150I55J112*
X36650Y12025I125*
X36681Y12029J125*
G01Y11244*
G03X36806Y11119I125*
X36931Y11244J125*
X36806Y11369I125*
X36681Y11244J125*
G01Y12029*
G03X36775Y12150I31J121*
X36705Y12262I125*
G02X36694Y12280I9J18*
X36714Y12300I20*
G01X37117*
Y11648*
G03X37242Y11523I125*
X37367Y11648J125*
X37242Y11773I125*
X37117Y11648J125*
G01Y12300*
X38242*
G02X38256Y12294J20*
G01X38344Y12206*
G02X38350Y12192I14J14*
G01Y10758*
G02X38344Y10744I20*
G01X38206Y10606*
G02X38192Y10600I14J14*
G01X35164*
G02X35144Y10620J20*
X35155Y10638I20*
G03X35225Y10750I55J112*
X35100Y10875I125*
X34975Y10750J125*
X35045Y10638I125*
G02X35056Y10620I9J18*
X35036Y10600I20*
G01X31808*
G02X31794Y10606J20*
G01X31656Y10744*
G02X31650Y10758I14J14*
G01Y10786*
G02X31670Y10806I20*
X31688Y10795J20*
G03X31800Y10725I112J55*
X31925Y10850J125*
X31800Y10975I125*
X31688Y10905J125*
G02X31670Y10894I18J9*
X31650Y10914J20*
G01Y11586*
G02X31670Y11606I20*
X31688Y11595J20*
G03X31800Y11525I112J55*
X31925Y11650J125*
X31800Y11775I125*
X31688Y11705J125*
G02X31670Y11694I18J9*
X31650Y11714J20*
G01Y12142*
G37*
G54D10*
X0Y0D02*
X39000D01*
Y29000*
X0*
Y0*
G54D11*
X1458Y24908D03*
X2941Y22598D03*
X4000Y6050D03*
X4620Y25867D03*
X4658Y22546D03*
X4682Y22936D03*
X4796Y19803D03*
X4804Y24966D03*
X5558Y22725D03*
X6050Y13550D03*
X6588Y22597D03*
X7150Y24000D03*
X7300Y26400D03*
X8350Y6050D03*
X8550Y12900D03*
Y20300D03*
X9300Y16800D03*
X10300Y22250D03*
Y22500D03*
X10550Y22250D03*
Y22500D03*
X13150Y17950D03*
X13537Y21050D03*
X14747Y26893D03*
X14950Y17100D03*
X15160Y21563D03*
Y22089D03*
Y22349D03*
Y22612D03*
X15600Y15875D03*
Y16125D03*
Y16550D03*
Y16800D03*
X16900Y22400D03*
X17200Y19150D03*
Y19550D03*
Y19950D03*
Y20500D03*
Y20750D03*
Y22400D03*
X17500Y19950D03*
X17950Y14300D03*
Y15750D03*
X18100Y22400D03*
X18350D03*
X18100D01*
X18350D02*
X19300D01*
X19450Y22550*
X20050*
X20200Y22400*
X21800*
X18835Y14735D03*
X19000Y19700D03*
X19134Y14735D03*
Y15875D03*
X19147Y19550D03*
X19414Y18186D03*
X19535Y19468D03*
X19694Y18576D03*
X19924Y18966D03*
Y19479D03*
Y19759D03*
X19974Y15875D03*
Y16265D03*
Y18576D03*
X20254Y15875D03*
X20534Y15125D03*
X20814D03*
X20843Y1035D03*
Y1350D03*
Y1665D03*
Y1980D03*
Y2295D03*
Y2610D03*
Y2925D03*
Y3240D03*
Y3555D03*
Y3870D03*
Y4185D03*
Y4815D03*
Y5130D03*
X21094Y15125D03*
Y12361D03*
X21456Y14455D03*
X21765Y13560D03*
X21800Y22400D03*
X22000Y22600D03*
X23000Y13560D02*
X22790Y13350D01*
X22100*
X21111Y12361*
X21094*
X23000Y13560D03*
X23003Y13861D02*
X23214Y13650D01*
X23003Y13861D02*
X22702Y13560D01*
X21765*
X23003Y13861D03*
X23214Y13650D02*
X23718D01*
X23926Y13858*
X23299Y22998D03*
X23926Y13858D03*
X24235D01*
X24025Y21793D03*
X24042Y23005D03*
X24235Y13858D02*
D03*
X25050Y1200D03*
Y1600D03*
Y2000D03*
Y2400D03*
Y2800D03*
Y3200D03*
Y3600D03*
Y4000D03*
Y4400D03*
Y5200D03*
X25101Y26699D03*
X25700Y800D03*
Y4800D03*
X26050Y25050D03*
X30050D01*
X30300Y25300*
X26306Y15875D03*
X26986Y19681D03*
X27146Y15875D03*
X27203Y19861D03*
X27450Y26500D03*
X27781Y22625D03*
X27795Y22881D03*
X28300Y17030D03*
X28450Y28200D03*
X28600Y15850D03*
Y18625D03*
X28900Y23350D03*
X29150Y23000D03*
X29593Y1035D03*
Y1350D03*
Y1665D03*
Y1980D03*
Y2295D03*
Y2610D03*
Y2925D03*
Y3240D03*
Y3555D03*
Y3870D03*
Y4185D03*
Y4815D03*
Y5130D03*
X29800Y15250D03*
X30100D03*
Y18450D03*
X30199Y21149D03*
X30200Y22200D03*
X30226Y21777D03*
X30300Y25300D03*
X30540Y21882D03*
X30550Y16050D03*
Y22200D03*
X30592Y21664D03*
X30900Y21800D03*
Y22200D03*
X31200D03*
X31250Y25300D02*
X30550Y26000D01*
X27950*
X27450Y26500*
X31250Y25300D03*
X31800Y11250D03*
X32979Y10804D03*
X33026Y20979D03*
X33154Y12063D03*
X33550Y20750D03*
X35550D03*
Y21250D03*
Y21750D03*
Y23750D03*
Y24250D03*
Y24750D03*
X35825Y6235D03*
X35866Y8249D03*
X35966Y2282D03*
X36436Y2752D03*
X38121Y10951D03*
Y11351D03*
Y11751D03*
Y12151D03*
G54D12*
X4000Y6050D02*
X3850Y6200D01*
Y8350*
X4050Y8550*
Y12700*
X4800Y13450*
Y19659*
X4796Y19663*
Y19803*
X4620Y25867D02*
X5313Y25174D01*
Y24811*
X3828Y23326*
Y22842*
X3584Y22598*
X2941*
X4804Y24966D02*
X4068Y25701D01*
X3366*
X2573Y24908*
X1458*
X5302Y23557D02*
X6506D01*
X6643Y23420*
X6759*
X6896Y23557*
X8440*
X5302D02*
X4682Y22936D01*
X5558Y22725D02*
X5953Y23120D01*
X6759*
X6843Y23203*
X8395*
X5686Y22242D02*
X4963D01*
X4658Y22546*
X6050Y13550D02*
X6449Y13949D01*
X8335*
X9575Y15189*
Y19087*
X11018Y20530*
X13114*
X13897Y19747*
X14801*
X16611Y17937*
X17750*
X6260Y25716D02*
Y25405D01*
X4112Y23257*
Y21237*
X4796Y20553*
Y19803*
X6260Y26230D02*
X7130D01*
X7300Y26400*
X7150Y24000D02*
X6893D01*
X6828Y24066*
X5462*
X4406Y23010*
Y21570*
X5127Y20849*
X6301*
X7175Y19975*
X8075*
X8542Y19508*
Y18242*
X8141Y17841*
Y15384*
X7882Y15125*
X6955*
X5763Y13932*
Y12656*
X5934Y12485*
X6433*
X7225Y11693*
Y8775*
X8621Y7379*
Y6321*
X8350Y6050*
X7300Y26400D02*
X7900Y27000D01*
X8489*
X8939Y27450*
X8395Y23203D02*
X8517Y23082D01*
X9539*
X9757Y23300*
X14636*
X14786Y23450*
X22000*
X22100Y23350*
X23890*
X23958Y23418*
X28632*
X28700Y23350*
X28900*
X8939Y27450D02*
X15582D01*
X15709Y27323*
X27573*
X28450Y28200*
X9300Y16800D02*
X9025Y17075D01*
Y17950*
X8723Y18252*
Y20127*
X8550Y20300*
X9645Y22907D02*
X6351D01*
X5686Y22242*
X13150Y17950D02*
X13350Y17750D01*
X15350*
X17425Y15675*
X17675*
X17750Y15600*
X13537Y21050D02*
X14381Y20206D01*
X14720*
X16526Y18400*
X17750*
X15160Y21563D02*
X23273D01*
X23705Y21131*
X28119*
X28295Y20955*
X30005*
X30199Y21149*
X15160Y22089D02*
X15531Y21719D01*
X23433*
X23786Y21365*
X30294*
X30592Y21664*
X15160Y22349D02*
X15259Y22250D01*
X15619Y21891*
X23508*
X23900Y21498*
X30156*
X30540Y21882*
X15160Y22612D02*
X15739Y22033D01*
X23587*
X23967Y21653*
X30101*
X30226Y21777*
X15600Y15875D02*
X15925Y15550D01*
X16050*
X16250Y15350*
Y15250*
X17300Y14200*
X17550*
X17750Y14400*
X15600Y16800D02*
X15900Y16500D01*
X16250*
X17207Y15543*
X17559*
X17750Y15353*
X16900Y22400D02*
X17088Y22212D01*
X19412*
X19550Y22350*
X19950*
X20092Y22208*
X23692*
X23926Y21974*
Y21892*
X24025Y21793*
X17200Y19550D02*
X17475Y19275D01*
X17678*
X17750Y19203*
X17200Y22400D02*
X17600Y22800D01*
X21550*
X21750Y22600*
X22000*
X17500Y19950D02*
X17750Y19700D01*
Y13702D02*
X17744Y13708D01*
Y13906*
X17610Y14040*
X16887*
X15200Y15727*
Y16850*
X14950Y17100*
X17750Y14400D02*
X17850Y14500D01*
X18899*
X19134Y14735*
X17750Y14633D02*
X17783Y14600D01*
X18700*
X18835Y14735*
X17750Y14633D02*
X17593Y14790D01*
X17060*
X16157Y15693*
X15957*
X15750Y15900*
Y15975*
X15600Y16125*
X17750Y14838D02*
X17638Y14950D01*
X17425*
X16075Y16300*
X15850*
X15600Y16550*
X17750Y15353D02*
X17838Y15265D01*
X18907*
X18947Y15305*
X19476*
X19519Y15261*
X17750Y17650D02*
X16150D01*
X14474Y19326*
X13962*
X13409Y19879*
X10733*
X10017Y19162*
Y15068*
X9747Y14798*
Y14107*
X8700Y13059*
Y13050*
X8550Y12900*
X17750Y17650D02*
X21211D01*
X21780Y18219*
X25744*
X25874Y18350*
X28250*
X17750Y18182D02*
X18288D01*
X18430Y18039*
X19268*
X19414Y18186*
X17750Y18182D02*
X16563D01*
X14848Y19896*
X14154*
X12775Y21275*
X7785*
X6917Y22143*
Y22269*
X6588Y22597*
X17750Y18400D02*
X18100D01*
X18166Y18334*
X19734*
X19875Y18475*
Y18477*
X19974Y18576*
X17750Y18838D02*
X17930D01*
X18337Y18430*
X19549*
X19694Y18576*
X17750Y18838D02*
X17583D01*
X17431Y18990*
X17360*
X17200Y19150*
X17750Y19389D02*
X18314Y18826D01*
X19477*
X19700Y19048*
Y19259*
X17750Y19389D02*
X17734Y19405D01*
X17595*
X17450Y19550*
Y19700*
X17200Y19950*
X17750Y19700D02*
X17760Y19690D01*
X18200*
X18753Y19137*
X19137*
X19369Y19369*
Y19569*
X19559Y19759*
X19924*
X17750Y20150D02*
X17250D01*
X17000Y20400*
Y20550*
X17200Y20750*
X17750Y20350D02*
X17350D01*
X17200Y20500*
X17950Y15750D02*
X18401D01*
X18589Y15562*
X20333*
X20691Y15920*
Y16053*
X21037Y16399*
X23556*
X19000Y19700D02*
Y19950D01*
X18600Y20350*
X17750*
X19134Y15875D02*
X19554Y16295D01*
Y16723*
X19726Y16895*
X19942*
X20394Y17347*
Y17467*
X20475Y17548*
X21365*
X21757Y17939*
X26647*
X26652Y17944*
X28156*
X19147Y19550D02*
Y19531D01*
X18919*
X18300Y20150*
X17750*
X19535Y19468D02*
X19686Y19619D01*
X20314*
X20762*
X20899Y19482*
Y19476*
X21036Y19339*
X24875*
X25155Y19059*
X26110*
X26172Y19121*
X28250*
X19549Y15232D02*
X19519Y15261D01*
X19549Y15232D02*
X19554Y15227D01*
Y14677*
X19642Y14590*
X20977*
X21289Y14901*
X26051*
X26450Y15300*
X27500*
X27900Y15700*
X28250*
X19674Y18716D02*
X18237D01*
X17750Y19203*
X19674Y18716D02*
X19924Y18966D01*
X19921Y19479D02*
X19700Y19259D01*
X19924Y19479D02*
X19921D01*
X19974Y15875D02*
Y15765D01*
X20039Y15700*
X20292*
X20550Y15958*
Y16250*
X20991Y16691*
X23687*
X23989Y16993*
X24650*
X24915Y17257*
X27340*
X27381Y17298*
X28250*
X19974Y16265D02*
X20159Y16450D01*
X20350*
X21200Y17300*
X21900*
X20254Y15875D02*
X20400Y16021D01*
Y16300*
X21100Y17000*
X21850*
X22150Y17300*
X24650*
X24912Y17562*
X28250*
X20534Y15284D02*
Y15125D01*
X20814D02*
Y15314D01*
X21000Y15500*
Y15700*
X21100Y15800*
X24520*
X20850Y15600D02*
X20534Y15284D01*
X21094Y15125D02*
Y15344D01*
X21244Y15494*
X22494*
X22650Y15650*
X25507*
X25606Y15748*
Y15986*
X25736Y16116*
X28800*
X21900Y17300D02*
X22197Y17597D01*
X23299Y22998D02*
X23398Y22899D01*
Y22802*
X23800Y22400*
X24300*
X24700Y22000*
X30350*
X30550Y22200*
X23556Y16399D02*
X23860Y16703D01*
X24042Y23005D02*
X24647Y22400D01*
X27350*
X27642Y22108*
X29808*
X29900Y22200*
X30200*
X24147Y17597D02*
X24200Y17650D01*
X24147Y17597D02*
X22197D01*
X24200Y17650D02*
X28250D01*
X24790Y16070D02*
X24520Y15800D01*
X24790Y16070D02*
X24991D01*
X25370Y16449*
X28056*
X28195Y16310*
X28800*
X25101Y26699D02*
X24938Y26535D01*
X20657*
X20430Y26762*
X15078*
X14947Y26893*
X14747*
X26446Y16015D02*
X26306Y15875D01*
X27146D02*
X27125D01*
X26900Y15650*
X26200*
X26050Y15500*
X22950*
X22850Y15400*
Y15300*
X22750Y15200*
X21400*
X21075Y14875*
X19940*
X19834Y14980*
Y15234*
X19683Y15385*
X18914*
X18888Y15360*
X17884*
X17800Y15444*
Y15550*
X17750Y15600*
X27781Y22625D02*
X27880Y22526D01*
Y22520*
X28170Y22230*
X29630*
X29750Y22350*
X30605*
X30700Y22255*
Y22000*
X30900Y21800*
X28200Y17896D02*
X28156Y17944D01*
X28200Y17896D02*
X28250D01*
Y14150D02*
X29371D01*
X29950Y14729*
Y15100*
X30100Y15250*
X28250Y14150D02*
X22924D01*
X22559Y13785*
X19100*
X18875Y13560*
X17892*
X17750Y13702*
X28250Y15250D02*
X27795D01*
X27469Y14924*
X26914*
X26586Y14595*
X24571*
X24570*
X21183*
X21075Y14487*
X19464*
X19274Y14677*
Y14793*
X19192Y14875*
X18475*
X18310Y14710*
X17878*
X17750Y14838*
X28250Y15250D02*
X29800D01*
X28250Y15700D02*
X28450D01*
X28500Y15750*
X28250Y16599D02*
X27538D01*
X27341Y16796*
X25129*
X25046Y16713*
Y16597*
X24909Y16460*
X24773*
X24409Y16096*
X21046*
X20850Y15900*
Y15600*
X28250Y16980D02*
X28158Y16888D01*
X24941*
X24756Y16703*
X23860*
X28250Y17562D02*
X28713D01*
X28765Y17510*
X30160*
X30350Y17700*
Y18150*
X31100Y18900*
X31750*
X33300Y20450*
X33550*
X34000Y20900*
Y22371*
X34763Y23133*
X35560*
X35600Y23173*
Y23233*
X35560Y23273*
X35340*
X35300Y23313*
Y23373*
X35340Y23413*
X35560*
X35600Y23453*
Y23513*
X35560Y23553*
X35340*
X35300Y23593*
Y23710*
X35340Y23750*
X35550*
X28250Y17650D02*
X28255D01*
X28399Y17793*
X30143*
X30250Y17900*
Y18250*
X31000Y19000*
X31700*
X33450Y20750*
X33550*
X28250Y18350D02*
X28350Y18450D01*
X28700*
X28850Y18600*
X29950*
X30100Y18450*
X28250Y18798D02*
X24549D01*
X24530Y18779*
X22430*
X21610*
X21168Y18338*
X20532*
X20132Y17937*
X17750*
X28250Y18798D02*
X28427D01*
X28600Y18625*
X28300Y17030D02*
X28250Y16980D01*
X28500Y15750D02*
X28600Y15850D01*
X28800Y16015D02*
X26446D01*
X28800Y16116D02*
X29561D01*
X29695Y16250*
X29934*
X30700Y17016*
Y17454*
X31496Y18250*
X32068*
X32198Y18380*
Y18748*
X33300Y19850*
X35300*
X36050Y20600*
Y23750*
X35550Y24250*
X29150Y23000D02*
X28950Y23200D01*
X25215*
X25092Y23077*
X24387*
X24264Y23200*
X22000*
X21950Y23150*
X9888*
X9645Y22907*
X30550Y16050D02*
X30350Y15850D01*
X29200*
X29035Y16015*
X28800*
X30900Y22200D02*
Y22348D01*
X30508Y22740*
X29442*
X29248Y22546*
X28130*
X27795Y22881*
X31200Y22200D02*
Y22250D01*
X30450Y23000*
X29800*
X29250Y23550*
X27950*
X27750Y23750*
X23050*
X22935Y23635*
X14759*
X14574Y23450*
X9650*
X9463Y23263*
X8734*
X8440Y23557*
X33026Y20979D02*
X32684Y20638D01*
X31285*
X29769Y19121*
X28250*
X35550Y20750D02*
X35710D01*
X35750Y20710*
Y20700*
X35050Y20000*
X33263*
X31908Y18645*
X31697*
X30605Y17553*
Y17176*
X29888Y16459*
X29657*
X29508Y16310*
X28800*
X35550Y21250D02*
X34770D01*
X34730Y21290*
Y22110*
X34690Y22150*
X34580*
X34540Y22110*
Y21634*
X34511Y21606*
X34378*
X34350Y21634*
Y22110*
X34310Y22150*
X34200*
X34150Y22100*
Y20800*
X33650Y20300*
X33300*
X31815Y18815*
X31215*
X30435Y18035*
Y17665*
X30163Y17393*
X29097*
X28914Y17211*
X28591*
X28504Y17298*
X28250*
X35550Y21750D02*
X35290D01*
X35250Y21790*
Y22481*
X35278Y22510*
X35722*
X35750Y22481*
Y21150*
X35600Y21000*
X34550*
X33700Y20150*
X33300*
X31880Y18730*
X31330*
X30515Y17915*
Y17278*
X29835Y16599*
X28250*
X35550Y24750D02*
X33850Y23050D01*
Y21300*
X32100Y19550*
X30900*
X30250Y18900*
Y18395*
X30105Y18250*
X29550*
X29196Y17896*
X28250*
G54D13*
X20843Y1665D02*
X21001Y1507D01*
X22007*
X20843Y3555D02*
X21000Y3398D01*
X21498*
X21650Y3550*
X21800*
X21952Y3398*
X22143*
X22295Y3550*
X22450*
X22500Y3500*
X20843Y4185D02*
X20935Y4093D01*
X21000Y4028*
X22500*
X20843Y4815D02*
X21001Y4657D01*
X21343*
X21498Y4503*
X22500*
X20843Y5130D02*
X21001Y4972D01*
X21378*
X21700Y4650*
X22500*
X21128Y750D02*
X20843Y1035D01*
X21500Y1000D02*
X21307Y1193D01*
X21000*
X20843Y1350*
X21600Y2900D02*
X21396D01*
X21264Y2768*
X21000*
X20843Y2925*
X21729Y2771D02*
X21600Y2900D01*
X22007Y1507D02*
X22143D01*
X22400Y1250*
X22550*
X22700Y1400*
X22850*
X23000Y1250*
X23150*
X23300Y1400*
X23450*
X23600Y1250*
X23750*
X23900Y1400*
X24050*
X24200Y1250*
X24350*
X24500Y1400*
X24650*
X24850Y1200*
X25050*
X22325Y1825D02*
X22150Y2000D01*
X22000*
X21823Y1823*
X21727*
X21550Y2000*
X21400*
X21223Y1823*
X21000*
X20843Y1980*
X22500Y2138D02*
X22300D01*
X22188Y2250*
X21962*
X21850Y2138*
X21712*
X21600Y2250*
X21362*
X21250Y2138*
X21000*
X20843Y2295*
X22500Y2453D02*
X22347D01*
X22200Y2600*
X21997*
X21850Y2453*
X21700*
X21553Y2600*
X21365*
X21218Y2453*
X21000*
X20843Y2610*
X22500Y2768D02*
X22332D01*
X22200Y2900*
X22000*
X21871Y2771*
X21729*
X22500Y3200D02*
X22392D01*
X22275Y3083*
X22015*
X21898Y3200*
X21750*
X21633Y3083*
X21000*
X20843Y3240*
X22500Y3500D02*
X22602Y3398D01*
X22798*
X22950Y3550*
X23150*
X23302Y3398*
X23498*
X23650Y3550*
X25000*
X25050Y3600*
X22500Y3713D02*
X21000D01*
X20843Y3870*
X22500Y4028D02*
X22978D01*
X23100Y4150*
X23276*
X23396Y4030*
X23530*
X23650Y4150*
X23838*
X23956Y4032*
X24132*
X24250Y4150*
X24400*
X24522Y4028*
X24678*
X25050Y4400*
X22500Y4503D02*
X24753D01*
X24898Y4648*
X25548*
X25700Y4800*
X22500Y4650D02*
X23105D01*
X23205Y4750*
X23365*
X23465Y4650*
X23625*
X23725Y4750*
X23885*
X23985Y4650*
X24145*
X24245Y4750*
X24405*
X24505Y4650*
X24650*
X24775Y4775*
Y4925*
X25050Y5200*
Y1200D02*
X25300D01*
X25453Y1048*
X25848*
X26000Y1200*
X28450*
X28750Y1500*
X25050Y1600D02*
X24900D01*
X24550Y1950*
X24427*
X24177Y1700*
X24000*
X23877Y1823*
X22327*
X22325Y1825*
X25050Y2000D02*
X24850D01*
X24650Y2200*
X24350*
X24150Y2000*
X23800*
X23600Y2200*
X23400*
X23200Y2000*
X22700*
X22562Y2138*
X22500*
X25050Y2400D02*
X24800D01*
X24650Y2550*
X24400*
X24250Y2400*
X23750*
X23600Y2550*
X23400*
X23250Y2400*
X22600*
X22547Y2453*
X22500*
X25050Y2800D02*
X24250D01*
X24050Y2600*
X23850*
X23700Y2750*
X23300*
X23150Y2600*
X22800*
X22632Y2768*
X22500*
X25050Y3200D02*
X24684D01*
X24568Y3084*
X24366*
X24250Y3200*
X24099*
X23982Y3083*
X23617*
X23500Y3200*
X23300*
X23183Y3083*
X22769*
X22652Y3200*
X22500*
X25050D02*
X25300D01*
X25500Y3000*
X26250*
X26400Y3150*
X28150*
X28240Y3240*
X28250*
X25050Y3600D02*
X25300D01*
X25500Y3400*
X26250*
X26405Y3555*
X28250*
X25050Y4000D02*
X24763Y3713D01*
X24538*
X24401Y3850*
X24271*
X24135Y3713*
X23968*
X23831Y3850*
X23651*
X23515Y3713*
X23398*
X23261Y3850*
X23131*
X22995Y3713*
X22500*
X25050Y4000D02*
X25300D01*
X25500Y3800*
X26450*
X26545Y3705*
X28250*
X25050Y4400D02*
X25300D01*
X25500Y4200*
X26500*
X26673Y4027*
X28250*
X25700Y800D02*
X25400D01*
X25200Y1000*
X21500*
X25700Y800D02*
X25703Y803D01*
X25953*
X26150Y1000*
X26300*
X26498Y803*
X26653*
X26850Y1000*
X27000*
X27198Y803*
X27353*
X27550Y1000*
X27700*
X27898Y803*
X28003*
X28200Y1000*
X28353*
X28550Y803*
X28703*
X28800Y900*
Y1100*
X28850Y1150*
X28950*
X29000Y1100*
Y1000*
X29050Y950*
X29192*
X29246Y1004*
X25700Y4800D02*
X26000Y4500D01*
X26150*
X26303Y4653*
X26398*
X26550Y4500*
X26650*
X26803Y4653*
X26898*
X27050Y4500*
X27150*
X27303Y4653*
X27398*
X27548Y4503*
X27653*
X27803Y4653*
X27898*
X28200Y4350*
X28250*
Y2452D02*
X26502D01*
X26250Y2200*
X25500*
X25300Y2400*
X25050*
X28250Y2767D02*
X28200D01*
X28080Y2648*
X25453*
X25300Y2800*
X25050*
X28250Y3240D02*
X29593D01*
X28250Y3555D02*
X29593D01*
X28250Y3705D02*
X29427D01*
X29593Y3870*
X28250Y4027D02*
X29435D01*
X29593Y4185*
X28250Y4650D02*
X28200D01*
X28000Y4850*
X26100*
X25900Y5050*
X25200*
X25050Y5200*
X28425Y1825D02*
X28400Y1800D01*
X25500*
X25300Y2000*
X25050*
X28575Y1675D02*
X28300Y1400D01*
X25500*
X25300Y1600*
X25050*
X28750Y1500D02*
X28915Y1665D01*
X29593*
X29246Y1004D02*
X29593Y1350D01*
X29404Y846D02*
X29007Y450D01*
X21428*
X21128Y750*
X29593Y1035D02*
X29404Y846D01*
X29593Y1980D02*
X28880D01*
X28575Y1675*
X29593Y2295D02*
X28895D01*
X28425Y1825*
X29593Y2610D02*
X28610D01*
X28452Y2452*
X28250*
X29593Y2925D02*
X28625D01*
X28467Y2767*
X28250*
X29593Y4815D02*
X29442Y4664D01*
Y4445*
X29396Y4400*
X29250*
X29150Y4500*
X29050*
X28900Y4350*
X28800*
X28671Y4479*
X28579*
X28450Y4350*
X28250*
X29593Y5130D02*
X29112Y4650D01*
X28250*
G54D14*
X35825Y6235D02*
Y4589D01*
X36436Y3978*
Y2752*
X35966Y2282D02*
X35269Y2979D01*
Y7652*
X35866Y8249*
G54D15*
X1458Y24908D02*
X1538D01*
X2941Y22598D02*
X3021D01*
X4000Y6050D02*
X3943Y6107D01*
X4620Y25867D02*
X4676Y25810D01*
X4658Y22546D02*
X4715Y22489D01*
X4682Y22936D02*
X4738Y22993D01*
X4796Y19803D02*
Y19883D01*
Y19803D02*
Y19723D01*
X4804Y24966D02*
X4747Y25022D01*
X5558Y22725D02*
X5615Y22782D01*
X6050Y13550D02*
X6107Y13607D01*
X6588Y22597D02*
X6645Y22541D01*
X7150Y24000D02*
X7070D01*
X7300Y26400D02*
X7357Y26457D01*
X7300Y26400D02*
X7243Y26343D01*
X8350Y6050D02*
X8407Y6107D01*
X8550Y12900D02*
X8607Y12957D01*
X8550Y20300D02*
X8607Y20243D01*
X9300Y16800D02*
X9243Y16857D01*
X13150Y17950D02*
X13207Y17893D01*
X13537Y21050D02*
X13594Y20993D01*
X14747Y26893D02*
X14827D01*
X14950Y17100D02*
X15007Y17043D01*
X15600Y15875D02*
X15657Y15818D01*
X15600Y16125D02*
X15657Y16068D01*
X15600Y16550D02*
X15657Y16493D01*
X15600Y16800D02*
X15657Y16743D01*
X16900Y22400D02*
X16957Y22343D01*
X17200Y19150D02*
X17257Y19093D01*
X17200Y19550D02*
X17257Y19493D01*
X17200Y19950D02*
X17257Y19893D01*
X17200Y20500D02*
X17257Y20443D01*
X17200Y20750D02*
X17143Y20693D01*
X17200Y22400D02*
X17257Y22457D01*
X17500Y19950D02*
X17557Y19893D01*
X17950Y15750D02*
X18030D01*
X18835Y14735D02*
X18778Y14678D01*
X19000Y19700D02*
Y19780D01*
X19134Y14735D02*
X19078Y14678D01*
X19134Y15875D02*
X19191Y15932D01*
X19147Y19550D02*
Y19531D01*
X19067*
X19535Y19468D02*
X19591Y19525D01*
X19694Y18576D02*
X19638Y18519D01*
X19924Y18966D02*
X19868Y18909D01*
X19924Y19479D02*
X19921D01*
X19924Y19759D02*
X19844D01*
X19974Y15875D02*
Y15795D01*
Y16265D02*
X20031Y16322D01*
X19974Y18576D02*
X19918Y18519D01*
X20254Y15875D02*
X20311Y15932D01*
X20534Y15125D02*
Y15205D01*
X20814Y15125D02*
Y15205D01*
X20843Y1035D02*
X20899Y979D01*
X20843Y1350D02*
X20899Y1294D01*
X20843Y1665D02*
X20899Y1609D01*
X20843Y1980D02*
X20899Y1924D01*
X20843Y2295D02*
X20899Y2239D01*
X20843Y2610D02*
X20899Y2554D01*
X20843Y2925D02*
X20899Y2869D01*
X20843Y3240D02*
X20899Y3184D01*
X20843Y3555D02*
X20899Y3499D01*
X20843Y3870D02*
X20899Y3814D01*
X20843Y4185D02*
X20899Y4129D01*
X20843Y4815D02*
X20899Y4759D01*
X20843Y5130D02*
X20899Y5074D01*
X21094Y15125D02*
Y15205D01*
X22000Y22600D02*
X21920D01*
X23299Y22998D02*
X23356Y22941D01*
X24025Y21793D02*
X23968Y21850D01*
X24042Y23005D02*
X24099Y22948D01*
X25050Y1200D02*
X25130D01*
X25050D02*
X24970D01*
X25050Y1600D02*
X25130D01*
X25050D02*
X24970D01*
X25050Y2000D02*
X25130D01*
X25050D02*
X24970D01*
X25050Y2400D02*
X25130D01*
X25050D02*
X24970D01*
X25050Y2800D02*
X25130D01*
X25050D02*
X24970D01*
X25050Y3200D02*
X25130D01*
X25050D02*
X24970D01*
X25050Y3600D02*
X25130D01*
X25050D02*
X25000Y3550D01*
X24986*
X25050Y4000D02*
X25130D01*
X25050D02*
X24993Y3943D01*
X25050Y4400D02*
X25130D01*
X25050D02*
X24993Y4343D01*
X25050Y5200D02*
X25107Y5143D01*
X25050Y5200D02*
X24993Y5143D01*
X25101Y26699D02*
X25045Y26642D01*
X25700Y800D02*
X25703Y803D01*
X25780*
X25700Y800D02*
X25620D01*
X25700Y4800D02*
X25757Y4743D01*
X25700Y4800D02*
X25643Y4743D01*
X26306Y15875D02*
X26362Y15932D01*
X27781Y22625D02*
X27837Y22569D01*
X27795Y22881D02*
X27852Y22824D01*
X28300Y17030D02*
X28250Y16980D01*
X28450Y28200D02*
X28393Y28143D01*
X28600Y15850D02*
X28543Y15793D01*
X28600Y18625D02*
X28543Y18682D01*
X28900Y23350D02*
X28820D01*
X29150Y23000D02*
X29093Y23057D01*
X29593Y1035D02*
X29536Y979D01*
X29593Y1350D02*
X29536Y1294D01*
X29593Y1665D02*
X29513D01*
X29593Y1980D02*
X29513D01*
X29593Y2295D02*
X29513D01*
X29593Y2610D02*
X29513D01*
X29593Y2925D02*
X29513D01*
X29593Y3240D02*
X29513D01*
X29593Y3555D02*
X29513D01*
X29593Y3870D02*
X29536Y3814D01*
X29593Y4185D02*
X29536Y4129D01*
X29593Y4815D02*
X29536Y4759D01*
X29593Y5130D02*
X29536Y5074D01*
X29800Y15250D02*
X29720D01*
X30100D02*
X30043Y15193D01*
X30100Y18450D02*
X30043Y18507D01*
X30200Y22200D02*
X30120D01*
X30550Y16050D02*
X30493Y15993D01*
X30550Y22200D02*
X30493Y22143D01*
X30592Y21664D02*
X30536Y21607D01*
X30900Y21800D02*
X30843Y21857D01*
X30900Y22200D02*
Y22280D01*
X31200Y22200D02*
Y22250D01*
X31170Y22280*
X33026Y20979D02*
X32969Y20922D01*
X33550Y20750D02*
X33470D01*
X35550D02*
X35630D01*
X35550Y21250D02*
X35470D01*
X35550Y21750D02*
X35470D01*
X35550Y23750D02*
X35470D01*
X35550Y24250D02*
X35607Y24193D01*
X35550Y24750D02*
X35493Y24693D01*
X35825Y6235D02*
Y6155D01*
X36436Y2752D02*
Y2832D01*
G54D16*
X6260Y26230D03*
M02*
