; Version : LOCAL
; Job     : C:\ADI_Projects\Minnowboard\Turbot_F200_X200\PCB\Turbot_F200_X200.pcb
; User    : LEN-ADI-PC:Len
; Date    : Tue Aug 04 10:36:29 2015
; Format  : 2.4 / Absolute / Inch / Trailing
; Contents: Thru / Mill / Plated
M48
INCH,LZ
FMAT,2
ICI,OFF
T07C0.0150
T06C0.0310
T09C0.0400
T10C0.0400
%
M72
G90
G93X0Y0
T07
G00X000674Y02303
M15
G01X000849
X000499
M16
G00X001997Y023032
M15
G01X002172
X001822
M16
G00X000674Y02547
M15
G01X000849
X000499
M16
G00X001997
M15
G01X001822
X002172
M16
T06
G00X015742Y025679
M15
G01Y025539
Y025819
M16
G00X020758Y025679
M15
G01Y025539
Y025819
M16
T09
G00X00367Y00311
M15
G01X00407
X00327
M16
G00X00239Y005
M15
G01Y0054
Y0046
M16
T10
G00X00485Y005
M15
G01Y0045
Y0055
M17
T00
M30
