*
G04 Job   : C:\ADI_Projects\Minnowboard\Turbot_F200_X200\PCB\Turbot_F200_X200.pcb*
G04 User  : LEN-ADI-PC:Len*
G04 Layer : 80101_0125_F200_L03.gdo*
G04 Date  : Tue Aug 04 10:36:48 2015*
G04 Mentor Graphics Example Gerber Output Definition*
%ICAS*%
%MOIN*%
%FSLAX24Y24*%
%OFA0.0000B0.0000*%
G90*
G74*
%AMVB_RECTANGLE*
21,1,$1,$2,0,0,$3*
%
%ADD14C,0.00390*%
%ADD15C,0.00400*%
%ADD17C,0.00450*%
%ADD10C,0.00500*%
%ADD16C,0.00620*%
%ADD13C,0.00700*%
%ADD12C,0.00800*%
%ADD19C,0.01200*%
%ADD11C,0.01600*%
%ADD18C,0.02500*%
%ADD70C,0.05800*%
%ADD71VB_RECTANGLE,0.05800X0.05800X0.00000*%
G01*
G36*
X3350Y21242D02*
G02X3356Y21256I20D01*
G01X3444Y21344*
G02X3458Y21350I14J14*
G01X4994*
G02X5005Y21346J20*
G03X5077Y21323I72J102*
X5149Y21346J125*
G02X5161Y21350I12J16*
G01X7029*
G02X7049Y21330J20*
X7046Y21319I20*
G03X7025Y21250I104J69*
X7150Y21125I125*
X7275Y21250J125*
X7254Y21319I125*
G02X7251Y21330I17J11*
X7271Y21350I20*
G01X7975*
Y18750*
G03X8100Y18625I125*
X8225Y18750J125*
X8215Y18798I125*
G02X8214Y18806I19J8*
X8234Y18826I20*
X8236J20*
G03X8250Y18825I14J124*
X8264Y18826J125*
G02X8266I2J20*
X8286Y18806J20*
X8285Y18798I20*
G03X8275Y18750I115J48*
X8400Y18625I125*
X8525Y18750J125*
X8400Y18875I125*
X8386Y18874J125*
G02X8384I2J20*
X8364Y18894J20*
X8365Y18902I20*
G03X8375Y18950I115J48*
X8250Y19075I125*
X8125Y18950J125*
X8135Y18902I125*
G02X8136Y18894I19J8*
X8116Y18874I20*
X8114J20*
G03X8100Y18875I14J124*
X7975Y18750J125*
G01Y21350*
X8075*
Y19400*
G03X8200Y19275I125*
X8325Y19400J125*
X8200Y19525I125*
X8075Y19400J125*
G01Y20950*
G03X8200Y20825I125*
X8325Y20950J125*
X8200Y21075I125*
X8075Y20950J125*
G01Y21350*
X8192*
G02X8206Y21344J20*
G01X8425Y21125*
Y20300*
G03X8550Y20175I125*
X8675Y20300J125*
X8550Y20425I125*
X8425Y20300J125*
G01Y21125*
X8844Y20706*
G02X8850Y20692I14J14*
G01Y20000*
X9050Y19800*
X9392*
G02X9406Y19794J20*
G01X9494Y19706*
G02X9500Y19692I14J14*
G01Y19508*
G02X9494Y19494I20*
G01X9080Y19080*
G02X9066Y19074I14J14*
X9064J20*
G03X9050Y19075I14J124*
X8925Y18950J125*
X8926Y18936I125*
G02Y18934I20J2*
X8920Y18920I20*
G01X8876Y18876*
G02X8867Y18871I14J14*
G03X8779Y18783I33J121*
G02X8774Y18774I19J5*
G01X7900Y17900*
Y17614*
G02X7880Y17594I20*
X7862Y17605J20*
G03X7750Y17675I112J55*
X7625Y17550J125*
X7750Y17425I125*
X7862Y17495J125*
G02X7880Y17506I18J9*
X7900Y17486J20*
G01Y15571*
G02X7880Y15551I20*
X7869Y15554J20*
G03X7800Y15575I69J104*
X7675Y15450J125*
X7800Y15325I125*
X7869Y15346J125*
G02X7880Y15349I11J17*
X7900Y15329J20*
G01Y13027*
G02X7890Y13009I20*
G03X7825Y12900I60J109*
X7890Y12791I125*
G02X7900Y12773I10J18*
G01Y12727*
G02X7890Y12709I20*
G03X7825Y12600I60J109*
X7890Y12491I125*
G02X7900Y12473I10J18*
G01Y12277*
G02X7890Y12259I20*
G03X7825Y12150I60J109*
X7890Y12041I125*
G02X7900Y12023I10J18*
G01Y11977*
G02X7890Y11959I20*
G03X7825Y11850I60J109*
X7890Y11741I125*
G02X7900Y11723I10J18*
G01Y11527*
G02X7890Y11509I20*
G03X7825Y11400I60J109*
X7890Y11291I125*
G02X7900Y11273I10J18*
G01Y11227*
G02X7890Y11209I20*
G03X7825Y11100I60J109*
X7890Y10991I125*
G02X7900Y10973I10J18*
G01Y10777*
G02X7890Y10759I20*
G03X7825Y10650I60J109*
X7884Y10544I125*
G02X7893Y10527I11J17*
X7884Y10510I20*
G03X7825Y10404I66J106*
X7890Y10295I125*
G02X7900Y10277I10J18*
G01Y6792*
G02X7880Y6772I20*
X7876J20*
G03X7850Y6775I26J122*
X7742Y6713J125*
G02X7725Y6703I17J10*
X7708Y6713J20*
G03X7600Y6775I108J63*
X7492Y6713J125*
G02X7475Y6703I17J10*
X7458Y6713J20*
G03X7350Y6775I108J63*
X7225Y6650J125*
G01Y5400*
G03X7350Y5275I125*
X7475Y5400J125*
X7350Y5525I125*
X7225Y5400J125*
G01Y6650*
G03X7350Y6525I125*
X7458Y6587J125*
G02X7475Y6597I17J10*
X7492Y6587J20*
G03X7600Y6525I108J63*
X7708Y6587J125*
G02X7725Y6597I17J10*
X7742Y6587J20*
G03X7850Y6525I108J63*
X7876Y6528J125*
G02X7880I4J20*
X7900Y6508J20*
G01Y4208*
G02X7894Y4194I20*
G01X7256Y3556*
G02X7242Y3550I14J14*
G01X6358*
G02X6344Y3556J20*
G01X6256Y3644*
G02X6250Y3658I14J14*
G01Y3952*
G02X6256Y3966I20*
G01X6473Y4183*
G02X6487Y4189I14J14*
G01X6489*
G03X6500Y4188I11J124*
X6625Y4313J125*
X6624Y4324I125*
G01Y4326*
G02X6630Y4340I20*
G01X6900Y4610*
Y5329*
G02X6920Y5349I20*
X6931Y5346J20*
G03X7000Y5325I69J104*
X7125Y5450J125*
X7000Y5575I125*
X6931Y5554J125*
G02X6920Y5551I11J17*
X6900Y5571J20*
G01Y6569*
G02X6903Y6580I20*
G03X6925Y6650I103J70*
X6903Y6720I125*
G02X6900Y6731I17J11*
G01Y8269*
G02X6903Y8280I20*
G03X6925Y8350I103J70*
X6903Y8420I125*
G02X6900Y8431I17J11*
G01Y8519*
G02X6903Y8530I20*
G03X6925Y8600I103J70*
X6903Y8670I125*
G02X6900Y8681I17J11*
G01Y10369*
G02X6903Y10380I20*
G03X6925Y10450I103J70*
X6903Y10520I125*
G02X6900Y10531I17J11*
G01Y10619*
G02X6903Y10630I20*
G03X6925Y10700I103J70*
X6903Y10770I125*
G02X6900Y10781I17J11*
G01Y16143*
G02X6920Y16163I20*
X6931Y16160J20*
G03X7000Y16139I69J104*
X7075Y16164J125*
G01Y14800*
G03X7156Y14683I125*
G01Y4144*
G03X7281Y4019I125*
X7406Y4144J125*
X7281Y4269I125*
X7156Y4144J125*
G01Y14683*
G03X7200Y14675I44J117*
X7325Y14800J125*
X7200Y14925I125*
X7075Y14800J125*
G01Y16164*
G03X7078Y16166I75J100*
G01Y15447*
G03X7203Y15322I125*
X7328Y15447J125*
X7203Y15572I125*
X7078Y15447J125*
G01Y16166*
G03X7125Y16264I78J98*
X7000Y16389I125*
X6931Y16368J125*
G02X6920Y16365I11J17*
X6900Y16385J20*
G01Y17286*
G02X6920Y17306I20*
X6938Y17295J20*
G03X7050Y17225I112J55*
X7175Y17350J125*
X7050Y17475I125*
X6938Y17405J125*
G02X6920Y17394I18J9*
X6900Y17414J20*
G01Y18842*
G02X6906Y18856I20*
G01X6975Y18925*
Y18750*
G03X7100Y18625I125*
X7225Y18750J125*
X7100Y18875I125*
X6975Y18750J125*
G01Y18925*
X6998Y18948*
G02X7013Y18954I15J14*
X7025Y18950J20*
G03X7100Y18925I75J100*
X7225Y19050J125*
X7200Y19125I125*
G02X7196Y19137I16J12*
X7202Y19152I20*
G01X7375Y19325*
Y15450*
G03X7500Y15325I125*
X7525Y15328J125*
G01Y9350*
G03X7650Y9225I125*
X7775Y9350J125*
X7650Y9475I125*
X7525Y9350J125*
G01Y15328*
G03X7625Y15450I25J122*
X7500Y15575I125*
X7375Y15450J125*
G01Y19325*
X7425Y19375*
Y18750*
G03X7494Y18638I125*
G01Y16069*
G03X7619Y15944I125*
X7744Y16069J125*
X7619Y16194I125*
X7494Y16069J125*
G01Y16932*
G03X7619Y16807I125*
X7744Y16932J125*
X7619Y17057I125*
X7494Y16932J125*
G01Y18638*
G03X7550Y18625I56J112*
X7658Y18687J125*
G02X7675Y18697I17J10*
X7692Y18687J20*
G03X7800Y18625I108J63*
X7925Y18750J125*
X7800Y18875I125*
X7692Y18813J125*
G02X7675Y18803I17J10*
X7658Y18813J20*
G03X7550Y18875I108J63*
X7425Y18750J125*
G01Y19375*
X7600Y19550*
Y20350*
X7100Y20850*
X3408*
G02X3394Y20856J20*
G01X3356Y20894*
G02X3350Y20908I14J14*
G01Y21242*
X3500Y22242D02*
G02X3506Y22256I20D01*
G01X4300Y23050*
Y26342*
G02X4306Y26356I20*
G01X4495Y26545*
Y25867*
G03X4533Y25776I125*
G01Y22546*
G03X4658Y22421I125*
X4783Y22546J125*
X4658Y22671I125*
X4533Y22546J125*
G01Y25776*
G03X4557Y25759I87J91*
G01Y22936*
G03X4682Y22811I125*
X4807Y22936J125*
X4682Y23061I125*
X4557Y22936J125*
G01Y25759*
G03X4620Y25742I63J108*
X4679Y25756J125*
G01Y24966*
G03X4804Y24841I125*
X4916Y24912J125*
G02X4935Y24924I19J8*
X4945Y24921J20*
G01Y22929*
G03X4952Y22885I125*
G01Y22415*
G03X5077Y22290I125*
X5202Y22415J125*
X5077Y22540I125*
X4952Y22415J125*
G01Y22885*
G03X5070Y22804I118J44*
X5195Y22929J125*
X5070Y23054I125*
X4945Y22929J125*
G01Y24921*
G02X4947Y24920I10J17*
G01Y23916*
G03X5072Y23791I125*
X5197Y23916J125*
X5072Y24041I125*
X4947Y23916J125*
G01Y24920*
G02X4954Y24908I12J16*
G03X5076Y24812I122J29*
X5201Y24937J125*
X5076Y25062I125*
X4963Y24991J125*
G02X4945Y24979I18J8*
X4925Y24995J20*
G03X4804Y25091I121J29*
X4679Y24966J125*
G01Y25756*
G03X4745Y25867I59J111*
X4620Y25992I125*
X4495Y25867J125*
G01Y26545*
X4644Y26694*
G02X4658Y26700I14J14*
G01X4943*
Y25937*
G03X5068Y25812I125*
X5193Y25937J125*
X5068Y26062I125*
X4943Y25937J125*
G01Y26700*
X5433*
Y22725*
G03X5558Y22600I125*
X5683Y22725J125*
X5558Y22850I125*
X5433Y22725J125*
G01Y26700*
X5546*
Y26412*
G03X5671Y26287I125*
X5796Y26412J125*
X5671Y26537I125*
X5546Y26412J125*
G01Y26700*
X5920*
Y25940*
G03X5970Y25890I50*
G01X6463*
Y22597*
G03X6567Y22474I125*
G01Y21780*
G03X6692Y21655I125*
X6817Y21780J125*
X6692Y21905I125*
X6567Y21780J125*
G01Y22080*
G03X6692Y21955I125*
X6817Y22080J125*
X6692Y22205I125*
X6567Y22080J125*
G01Y22474*
G03X6588Y22472I21J123*
X6713Y22597J125*
X6588Y22722I125*
X6463Y22597J125*
G01Y25890*
X6525*
Y23872*
G03X6576Y23771I125*
G01Y23260*
G03X6701Y23135I125*
X6826Y23260J125*
X6701Y23385I125*
X6576Y23260J125*
G01Y23560*
G03X6701Y23435I125*
X6826Y23560J125*
X6701Y23685I125*
X6576Y23560J125*
G01Y23771*
G03X6650Y23747I74J101*
X6775Y23872J125*
X6650Y23997I125*
X6525Y23872J125*
G01Y25890*
X6550*
G03X6563Y25892J50*
G01Y25300*
G03X6571Y25255I125*
G01Y24280*
G03X6696Y24155I125*
X6821Y24280J125*
X6696Y24405I125*
X6571Y24280J125*
G01Y24580*
G03X6696Y24455I125*
X6821Y24580J125*
X6696Y24705I125*
X6571Y24580J125*
G01Y25255*
G03X6591Y25220I117J45*
G01Y24961*
G03X6716Y24836I125*
X6841Y24961J125*
X6716Y25086I125*
X6591Y24961J125*
G01Y25220*
G03X6688Y25175I97J80*
X6813Y25300J125*
X6688Y25425I125*
X6563Y25300J125*
G01Y25600*
G03X6688Y25475I125*
X6813Y25600J125*
X6688Y25725I125*
X6563Y25600J125*
G01Y25892*
G03X6600Y25940I13J48*
G01Y26520*
G03X6550Y26570I50*
G01X5970*
G03X5920Y26520J50*
G01Y26700*
X7020*
Y22250*
G03X7145Y22125I125*
X7270Y22250J125*
X7210Y22356I125*
G02X7201Y22374I11J18*
X7211Y22391I20*
G03X7275Y22500I61J109*
X7213Y22608I125*
G02X7203Y22625I10J17*
X7213Y22642I20*
G03X7275Y22750I63J108*
X7150Y22875I125*
X7025Y22750J125*
X7087Y22642I125*
G02X7097Y22625I10J17*
X7087Y22608I20*
G03X7025Y22500I63J108*
X7085Y22394I125*
G02X7094Y22376I11J18*
X7084Y22359I20*
G03X7020Y22250I61J109*
G01Y24750*
G03X7025Y24715I125*
G01Y24250*
G03X7087Y24142I125*
G02X7097Y24125I10J17*
X7087Y24108I20*
G03X7025Y24000I63J108*
X7087Y23892I125*
G02X7097Y23875I10J17*
X7087Y23858I20*
G03X7025Y23750I63J108*
X7150Y23625I125*
X7275Y23750J125*
X7213Y23858I125*
G02X7203Y23875I10J17*
X7213Y23892I20*
G03X7275Y24000I63J108*
X7213Y24108I125*
G02X7203Y24125I10J17*
X7213Y24142I20*
G03X7275Y24250I63J108*
X7150Y24375I125*
X7025Y24250J125*
G01Y24715*
G03X7145Y24625I120J35*
X7270Y24750J125*
X7210Y24856I125*
G02X7201Y24874I11J18*
X7211Y24891I20*
G03X7275Y25000I61J109*
X7213Y25108I125*
G02X7203Y25125I10J17*
X7213Y25142I20*
G03X7275Y25250I63J108*
X7150Y25375I125*
X7025Y25250J125*
X7087Y25142I125*
G02X7097Y25125I10J17*
X7087Y25108I20*
G03X7025Y25000I63J108*
X7085Y24894I125*
G02X7094Y24876I11J18*
X7084Y24859I20*
G03X7020Y24750I61J109*
G01Y26700*
X7082*
Y25922*
G03X7207Y25797I125*
X7332Y25922J125*
X7207Y26047I125*
X7082Y25922J125*
G01Y26700*
X7175*
Y26400*
G03X7300Y26275I125*
X7425Y26400J125*
X7300Y26525I125*
X7175Y26400J125*
G01Y26700*
X7742*
G02X7756Y26694J20*
G01X8074Y26376*
G02X8079Y26367I14J14*
G03X8167Y26279I121J33*
G02X8176Y26274I5J19*
G01X8200Y26250*
Y22000*
G03X8325Y21875I125*
X8450Y22000J125*
X8325Y22125I125*
X8200Y22000J125*
G01Y22500*
G03X8325Y22375I125*
X8450Y22500J125*
X8325Y22625I125*
X8200Y22500J125*
G01Y24000*
G03X8325Y23875I125*
X8450Y24000J125*
X8325Y24125I125*
X8200Y24000J125*
G01Y24500*
G03X8325Y24375I125*
X8450Y24500J125*
X8325Y24625I125*
X8200Y24500J125*
G01Y25000*
G03X8325Y24875I125*
X8450Y25000J125*
X8325Y25125I125*
X8200Y25000J125*
G01Y26250*
X8750Y25700*
X9050*
Y21500*
G03X9175Y21375I125*
G01Y20950*
G03X9300Y20825I125*
X9425Y20950J125*
X9300Y21075I125*
X9175Y20950J125*
G01Y21375*
G03X9300Y21500J125*
X9175Y21625I125*
X9050Y21500J125*
G01Y22000*
G03X9175Y21875I125*
X9300Y22000J125*
X9175Y22125I125*
X9050Y22000J125*
G01Y22500*
G03X9175Y22375I125*
X9300Y22500J125*
X9175Y22625I125*
X9050Y22500J125*
G01Y24000*
G03X9075Y23925I125*
G01Y23450*
G03X9200Y23325I125*
X9325Y23450J125*
X9200Y23575I125*
X9075Y23450J125*
G01Y23925*
G03X9175Y23875I100J75*
X9300Y24000J125*
X9175Y24125I125*
X9050Y24000J125*
G01Y24500*
G03X9175Y24375I125*
X9300Y24500J125*
X9175Y24625I125*
X9050Y24500J125*
G01Y25000*
G03X9175Y24875I125*
X9300Y25000J125*
X9175Y25125I125*
X9050Y25000J125*
G01Y25700*
X10175*
Y22500*
G03X10237Y22392I125*
G02X10247Y22375I10J17*
X10237Y22358I20*
G03X10175Y22250I63J108*
G01Y21750*
G03X10300Y21625I125*
X10425Y21750J125*
X10300Y21875I125*
X10175Y21750J125*
G01Y22250*
G03X10300Y22125I125*
X10408Y22187J125*
G02X10425Y22197I17J10*
X10442Y22187J20*
G03X10550Y22125I108J63*
X10675Y22250J125*
X10613Y22358I125*
G02X10603Y22375I10J17*
X10613Y22392I20*
G03X10675Y22500I63J108*
X10550Y22625I125*
X10442Y22563J125*
G02X10425Y22553I17J10*
X10408Y22563J20*
G03X10300Y22625I108J63*
X10175Y22500J125*
G01Y25700*
X10225*
Y24250*
G03X10350Y24125I125*
X10458Y24187J125*
G02X10475Y24197I17J10*
X10492Y24187J20*
G03X10600Y24125I108J63*
X10725Y24250J125*
X10600Y24375I125*
X10492Y24313J125*
G02X10475Y24303I17J10*
X10458Y24313J20*
G03X10350Y24375I108J63*
X10225Y24250J125*
G01Y25700*
X10523*
Y24929*
G03X10648Y24804I125*
X10773Y24929J125*
X10648Y25054I125*
X10523Y24929J125*
G01Y25700*
X10910*
Y21750*
G03X11250Y21410I340*
X11590Y21750J340*
X11250Y22090I340*
X10910Y21750J340*
G01Y22460*
G03X10960Y22410I50*
G01X11540*
G03X11590Y22460J50*
G01Y23040*
G03X11540Y23090I50*
G01X10960*
G03X10910Y23040J50*
G01Y25700*
X11342*
G02X11356Y25694J20*
G01X11625Y25425*
Y24250*
G03X11750Y24125I125*
X11875Y24250J125*
X11750Y24375I125*
X11625Y24250J125*
G01Y25425*
X12160Y24890*
Y21750*
G03X12500Y21410I340*
X12840Y21750J340*
X12500Y22090I340*
X12160Y21750J340*
G01Y24890*
X13724Y23326*
Y22102*
G03X13849Y21977I125*
X13974Y22102J125*
X13849Y22227I125*
X13724Y22102J125*
G01Y23326*
X14175Y22875*
Y20750*
G03X14300Y20625I125*
X14425Y20750J125*
X14300Y20875I125*
X14175Y20750J125*
G01Y22875*
X14561Y22489*
G02X14567Y22475I14J14*
X14561Y22461I20*
G01X14524Y22424*
G02X14509Y22418I15J14*
X14505J20*
G03X14480Y22421I25J122*
X14355Y22296J125*
X14480Y22171I125*
X14605Y22296J125*
X14603Y22321I125*
G02Y22325I20J4*
X14608Y22339I20*
G01X14646Y22376*
G02X14660Y22382I14J14*
X14674Y22376J20*
G01X14894Y22156*
G02X14900Y22142I14J14*
G01Y21500*
X15075Y21325*
Y20350*
G03X15200Y20225I125*
X15325Y20350J125*
X15200Y20475I125*
X15075Y20350J125*
G01Y20750*
G03X15200Y20625I125*
X15325Y20750J125*
X15200Y20875I125*
X15075Y20750J125*
G01Y21325*
X15197Y21203*
X15500*
G02X15503I3J20*
G01X15838*
G02X15853Y21197J20*
G01X15875Y21175*
Y16125*
G03X15937Y16017I125*
G02X15947Y16000I10J17*
X15937Y15983I20*
G03X15875Y15875I63J108*
G01Y15375*
G03X15937Y15267I125*
G02X15947Y15250I10J17*
X15937Y15233I20*
G03X15875Y15125I63J108*
G01Y14625*
G03X15937Y14517I125*
G02X15947Y14500I10J17*
X15937Y14483I20*
G03X15875Y14375I63J108*
G01Y13875*
G03X15937Y13767I125*
G02X15947Y13750I10J17*
X15937Y13733I20*
G03X15875Y13625I63J108*
G01Y13125*
G03X15937Y13017I125*
G02X15947Y13000I10J17*
X15937Y12983I20*
G03X15875Y12875I63J108*
G01Y12375*
G03X15937Y12267I125*
G02X15947Y12250I10J17*
X15937Y12233I20*
G03X15875Y12125I63J108*
G01Y11625*
G03X15937Y11517I125*
G02X15947Y11500I10J17*
X15937Y11483I20*
G03X15875Y11375I63J108*
G01Y10875*
G03X15937Y10767I125*
G02X15947Y10750I10J17*
X15937Y10733I20*
G03X15875Y10625I63J108*
X16000Y10500I125*
X16125Y10625J125*
X16063Y10733I125*
G02X16053Y10750I10J17*
X16063Y10767I20*
G03X16125Y10875I63J108*
X16000Y11000I125*
X15875Y10875J125*
G01Y11375*
G03X16000Y11250I125*
X16125Y11375J125*
X16063Y11483I125*
G02X16053Y11500I10J17*
X16063Y11517I20*
G03X16125Y11625I63J108*
X16000Y11750I125*
X15875Y11625J125*
G01Y12125*
G03X16000Y12000I125*
X16125Y12125J125*
X16063Y12233I125*
G02X16053Y12250I10J17*
X16063Y12267I20*
G03X16125Y12375I63J108*
X16000Y12500I125*
X15875Y12375J125*
G01Y12875*
G03X16000Y12750I125*
X16125Y12875J125*
X16063Y12983I125*
G02X16053Y13000I10J17*
X16063Y13017I20*
G03X16125Y13125I63J108*
X16000Y13250I125*
X15875Y13125J125*
G01Y13625*
G03X16000Y13500I125*
X16125Y13625J125*
X16063Y13733I125*
G02X16053Y13750I10J17*
X16063Y13767I20*
G03X16125Y13875I63J108*
X16000Y14000I125*
X15875Y13875J125*
G01Y14375*
G03X16000Y14250I125*
X16125Y14375J125*
X16063Y14483I125*
G02X16053Y14500I10J17*
X16063Y14517I20*
G03X16125Y14625I63J108*
X16000Y14750I125*
X15875Y14625J125*
G01Y15125*
G03X16000Y15000I125*
X16125Y15125J125*
X16063Y15233I125*
G02X16053Y15250I10J17*
X16063Y15267I20*
G03X16125Y15375I63J108*
X16000Y15500I125*
X15875Y15375J125*
G01Y15875*
G03X16000Y15750I125*
X16125Y15875J125*
X16063Y15983I125*
G02X16053Y16000I10J17*
X16063Y16017I20*
G03X16125Y16125I63J108*
X16000Y16250I125*
X15875Y16125J125*
G01Y16800*
G03X16000Y16675I125*
X16125Y16800J125*
X16000Y16925I125*
X15875Y16800J125*
G01Y17550*
G03X16000Y17425I125*
X16125Y17550J125*
X16000Y17675I125*
X15875Y17550J125*
G01Y18200*
G03X16000Y18075I125*
X16125Y18200J125*
X16000Y18325I125*
X15875Y18200J125*
G01Y21175*
X16144Y20906*
G02X16150Y20892I14J14*
X16130Y20872I20*
X16126J20*
G03X16100Y20875I26J122*
X15975Y20750J125*
X16100Y20625I125*
X16225Y20750J125*
X16222Y20776I125*
G02Y20780I20J4*
X16242Y20800I20*
X16256Y20794J20*
G01X16444Y20606*
G02X16450Y20592I14J14*
G01Y20014*
G02X16430Y19994I20*
X16412Y20005J20*
G03X16300Y20075I112J55*
X16239Y20059J125*
G02X16230Y20057I9J18*
X16216Y20063J20*
G01X16213Y20066*
G02X16207Y20080I14J14*
X16209Y20089I20*
G03X16225Y20150I109J61*
X16100Y20275I125*
X15975Y20150J125*
X16100Y20025I125*
X16161Y20041J125*
G02X16170Y20043I9J18*
X16184Y20037J20*
G01X16187Y20034*
G02X16193Y20020I14J14*
X16191Y20011I20*
G03X16175Y19950I109J61*
G01Y18850*
G03X16300Y18725I125*
X16425Y18850J125*
X16300Y18975I125*
X16175Y18850J125*
G01Y19150*
G03X16300Y19025I125*
X16425Y19150J125*
X16300Y19275I125*
X16175Y19150J125*
G01Y19950*
G03X16300Y19825I125*
X16412Y19895J125*
G02X16430Y19906I18J9*
X16450Y19886J20*
G01Y19850*
X17080Y19220*
G02X17086Y19206I14J14*
X17085Y19198I20*
G03X17075Y19150I115J48*
G01Y18550*
G03X17200Y18425I125*
X17325Y18550J125*
X17200Y18675I125*
X17075Y18550J125*
G01Y19150*
G03X17200Y19025I125*
X17248Y19035J125*
G02X17256Y19036I8J19*
X17270Y19030J20*
G01X17375Y18925*
Y16125*
G03X17437Y16017I125*
G02X17447Y16000I10J17*
X17437Y15983I20*
G03X17375Y15875I63J108*
G01Y15375*
G03X17437Y15267I125*
G02X17447Y15250I10J17*
X17437Y15233I20*
G03X17375Y15125I63J108*
G01Y14625*
G03X17437Y14517I125*
G02X17447Y14500I10J17*
X17437Y14483I20*
G03X17375Y14375I63J108*
G01Y13875*
G03X17437Y13767I125*
G02X17447Y13750I10J17*
X17437Y13733I20*
G03X17375Y13625I63J108*
X17500Y13500I125*
X17625Y13625J125*
X17563Y13733I125*
G02X17553Y13750I10J17*
X17563Y13767I20*
G03X17625Y13875I63J108*
X17500Y14000I125*
X17375Y13875J125*
G01Y14375*
G03X17500Y14250I125*
X17625Y14375J125*
X17563Y14483I125*
G02X17553Y14500I10J17*
X17563Y14517I20*
G03X17625Y14625I63J108*
X17500Y14750I125*
X17375Y14625J125*
G01Y15125*
G03X17500Y15000I125*
X17625Y15125J125*
X17563Y15233I125*
G02X17553Y15250I10J17*
X17563Y15267I20*
G03X17625Y15375I63J108*
X17500Y15500I125*
X17375Y15375J125*
G01Y15875*
G03X17500Y15750I125*
X17625Y15875J125*
X17563Y15983I125*
G02X17553Y16000I10J17*
X17563Y16017I20*
G03X17625Y16125I63J108*
X17500Y16250I125*
X17375Y16125J125*
G01Y18925*
X17604Y18696*
G02X17610Y18682I14J14*
G01Y18678*
G02X17608Y18670I20*
G03X17600Y18639I92J40*
G02X17596Y18629I20J2*
G03X17570Y18550I104J79*
X17700Y18420I130*
X17790Y18456J130*
G01X17791Y18457*
G02X17817Y18467I26J30*
X17830Y18464J40*
G01Y15750*
G03X17896Y15643I120*
G02X17907Y15625I9J18*
X17896Y15607I20*
G03X17830Y15500I54J107*
G01Y15100*
G03X17896Y14993I120*
G02X17907Y14975I9J18*
X17896Y14957I20*
G03X17830Y14850I54J107*
X17950Y14730I120*
X18070Y14850J120*
X18004Y14957I120*
G02X17993Y14975I9J18*
X18004Y14993I20*
G03X18070Y15100I54J107*
X17950Y15220I120*
X17830Y15100J120*
G01Y15500*
G03X17950Y15380I120*
X18070Y15500J120*
X18004Y15607I120*
G02X17993Y15625I9J18*
X18004Y15643I20*
G03X18070Y15750I54J107*
X17950Y15870I120*
X17830Y15750J120*
G01Y16250*
G03X17950Y16130I120*
X18070Y16250J120*
X17950Y16370I120*
X17830Y16250J120*
G01Y16600*
G03X17950Y16480I120*
X18070Y16600J120*
X17950Y16720I120*
X17830Y16600J120*
G01Y16900*
G03X17950Y16780I120*
X18070Y16900J120*
X17950Y17020I120*
X17830Y16900J120*
G01Y18464*
G02X17845Y18455I13J37*
G01X17896Y18404*
G02X17908Y18376I28J28*
X17890Y18342I40*
G03X17840Y18250I60J92*
G01Y18249*
Y17790*
G03X17960Y17670I120*
X18080Y17790J120*
X17960Y17910I120*
X17840Y17790J120*
G01Y18249*
G03X17950Y18140I110J1*
X18042Y18190J110*
G02X18076Y18208I34J22*
X18104Y18196J40*
G01X18144Y18156*
G02X18150Y18142I14J14*
G01Y13758*
G02X18144Y13744I20*
G01X18120Y13720*
G02X18092Y13709I28J29*
X18082Y13710J40*
X18067Y13725I5J19*
G03X17984Y13815I117J25*
G02X17970Y13834I6J19*
G01Y13836*
G02X17984Y13855I20*
G03X18070Y13970I34J115*
X17950Y14090I120*
X17830Y13970J120*
X17916Y13855I120*
G02X17930Y13836I6J19*
G01Y13834*
G02X17916Y13815I20*
G03X17830Y13700I34J115*
X17925Y13583I120*
G02X17940Y13568I4J20*
X17941Y13558I39J10*
X17930Y13530I40*
G01X17918Y13518*
G02X17910Y13513I14J14*
G03X17837Y13440I40J113*
G02X17832Y13432I19J6*
G01X17615Y13215*
G02X17601Y13209I14J14*
X17587Y13215J20*
G03X17500Y13250I87J90*
X17375Y13125J125*
X17410Y13038I125*
G02X17416Y13024I14J14*
X17410Y13010I20*
G01X16600Y12200*
Y10708*
G02X16594Y10694I20*
G01X16115Y10215*
G02X16101Y10209I14J14*
X16087Y10215J20*
G03X16000Y10250I87J90*
X15875Y10125J125*
X15910Y10038I125*
G02X15916Y10024I14J14*
X15910Y10010I20*
G01X13800Y7900*
Y6700*
X14494Y6006*
G02X14500Y5992I14J14*
G01Y3658*
G02X14494Y3644I20*
G01X14296Y3446*
G02X14282Y3440I14J14*
G01X12693*
G02X12679Y3446J20*
G01X12499Y3626*
G02X12493Y3641I14J15*
X12498Y3654I20*
G03X12523Y3719I75J66*
G02X12526Y3730I20*
G03X12548Y3800I103J70*
X12423Y3925I125*
X12298Y3800J125*
X12319Y3730I125*
G02X12323Y3719I16J11*
G03X12356Y3645I100J1*
G02X12363Y3631I13J14*
G01Y3617*
G03X12380Y3575I60*
G01X12599Y3356*
G02X12605Y3342I14J14*
X12585Y3322I20*
G01X11337*
G02X11323Y3328J20*
G01X11184Y3467*
G02X11178Y3481I14J14*
G01Y3881*
G02X11184Y3895I20*
G03X11218Y3969I66J75*
G02X11221Y3980I20*
G03X11243Y4050I103J70*
X11118Y4175I125*
X10993Y4050J125*
X11014Y3980I125*
G02X11018Y3969I16J11*
G03X11021Y3944I100J1*
G02X11022Y3939I19J5*
X11002Y3919I20*
X10996Y3920J20*
G03X10960Y3925I36J120*
X10835Y3800J125*
X10960Y3675I125*
X11027Y3694J125*
G02X11038Y3697I11J17*
X11058Y3677J20*
G01Y3448*
G03X11075Y3406I60*
G01X11147Y3334*
G02X11153Y3320I14J14*
X11133Y3300I20*
G01X10042*
G02X10028Y3306J20*
G01X9878Y3455*
G02X9873Y3469I15J14*
G01Y3630*
G02X9879Y3645I20*
G03X9913Y3719I66J75*
G02X9916Y3730I20*
G03X9938Y3800I103J70*
X9813Y3925I125*
X9688Y3800J125*
X9709Y3730I125*
G02X9713Y3719I16J11*
G03X9746Y3646I100J1*
G02X9753Y3631I13J15*
G01Y3436*
G03X9770Y3394I60*
G01X9830Y3334*
G02X9836Y3320I14J14*
X9816Y3300I20*
G01X9111*
G02X9103Y3302J20*
G03X9047Y3315I56J112*
X8991Y3302J125*
G02X8982Y3300I9J18*
G01X8958*
G02X8944Y3306J20*
G01X8806Y3444*
G02X8800Y3458I14J14*
G01Y4519*
G02X8803Y4530I20*
G03X8825Y4600I103J70*
X8803Y4670I125*
G02X8800Y4681I17J11*
G01Y4742*
G02X8806Y4756I20*
G01X8944Y4894*
G02X8958Y4900I14J14*
G01X9075*
Y4300*
G03X9200Y4175I125*
X9229Y4178J125*
G02X9233Y4179I4J19*
X9251Y4169J20*
G01X9255Y4162*
G02X9257Y4152I18J10*
X9252Y4138I20*
G03X9215Y4050I88J88*
X9340Y3925I125*
X9373Y3929J125*
G01Y3800*
G03X9498Y3675I125*
X9623Y3800J125*
X9498Y3925I125*
X9373Y3800J125*
G01Y3929*
G03X9465Y4050I33J121*
X9340Y4175I125*
X9312Y4172J125*
G02X9307Y4171I5J19*
X9290Y4181J20*
G01X9286Y4188*
G02X9283Y4198I17J10*
X9289Y4212I20*
G03X9325Y4300I89J88*
X9200Y4425I125*
X9075Y4300J125*
G01Y4600*
G03X9200Y4475I125*
X9325Y4600J125*
X9200Y4725I125*
X9075Y4600J125*
G01Y4900*
X9530*
Y4050*
G03X9655Y3925I125*
X9780Y4050J125*
X9655Y4175I125*
X9530Y4050J125*
G01Y4900*
X10275*
Y4600*
G03X10400Y4475I125*
X10520Y4566J125*
G01Y3800*
G03X10645Y3675I125*
X10770Y3800J125*
X10645Y3925I125*
X10520Y3800J125*
G01Y4566*
G03X10525Y4600I120J34*
X10400Y4725I125*
X10275Y4600J125*
G01Y4900*
X10678*
Y4050*
G03X10803Y3925I125*
X10928Y4050J125*
X10803Y4175I125*
X10678Y4050J125*
G01Y4900*
X11686*
G02X11706Y4880J20*
X11702Y4868I20*
G03X11675Y4790I98J78*
X11800Y4665I125*
X11825Y4668J125*
G01Y4050*
G03X11950Y3925I125*
X11983Y3929J125*
G01Y3800*
G03X12108Y3675I125*
X12233Y3800J125*
X12108Y3925I125*
X11983Y3800J125*
G01Y3929*
G03X12075Y4050I33J121*
X11950Y4175I125*
X11825Y4050J125*
G01Y4668*
G03X11925Y4790I25J122*
X11898Y4868I125*
G02X11894Y4880I16J12*
X11914Y4900I20*
G01X12140*
Y4050*
G03X12265Y3925I125*
X12390Y4050J125*
X12265Y4175I125*
X12140Y4050J125*
G01Y4900*
X12400*
Y7992*
G02X12406Y8006I20*
G01X12575Y8175*
Y5000*
G03X12700Y4875I125*
X12825Y5000J125*
X12700Y5125I125*
X12575Y5000J125*
G01Y5500*
G03X12700Y5375I125*
X12825Y5500J125*
X12700Y5625I125*
X12575Y5500J125*
G01Y6300*
G03X12700Y6175I125*
X12825Y6300J125*
X12700Y6425I125*
X12575Y6300J125*
G01Y8175*
X12775Y8375*
Y7500*
G03X12900Y7375I125*
X13025Y7500J125*
X12900Y7625I125*
X12775Y7500J125*
G01Y7850*
G03X12900Y7725I125*
X13025Y7850J125*
X12900Y7975I125*
X12775Y7850J125*
G01Y8375*
X13338Y8938*
Y6300*
G03X13375Y6211I125*
G01Y3690*
G03X13500Y3565I125*
X13625Y3690J125*
X13500Y3815I125*
X13375Y3690J125*
G01Y6211*
G03X13463Y6175I88J89*
X13588Y6300J125*
X13463Y6425I125*
X13338Y6300J125*
G01Y8938*
X13675Y9275*
Y4400*
G03X13705Y4319I125*
G01Y4009*
G03X13830Y3884I125*
X13940Y3950J125*
G02X13958Y3960I18J10*
X13976Y3949J20*
G03X14090Y3875I114J51*
X14215Y4000J125*
X14090Y4125I125*
X13980Y4059J125*
G02X13962Y4049I18J10*
X13944Y4061J20*
G03X13830Y4134I114J52*
X13705Y4009J125*
G01Y4319*
G03X13800Y4275I95J81*
X13925Y4400J125*
X13800Y4525I125*
X13675Y4400J125*
G01Y4800*
G03X13800Y4675I125*
X13925Y4800J125*
X13800Y4925I125*
X13675Y4800J125*
G01Y5250*
G03X13800Y5125I125*
X13925Y5250J125*
X13800Y5375I125*
X13675Y5250J125*
G01Y5700*
G03X13800Y5575I125*
X13925Y5700J125*
X13800Y5825I125*
X13675Y5700J125*
G01Y9275*
X15500Y11100*
Y15542*
G02X15506Y15556I20*
G01X15800Y15850*
Y18594*
X15312Y19063*
G02X15306Y19078I14J15*
X15308Y19088I20*
G03X15325Y19150I108J62*
X15200Y19275I125*
X15133Y19256J125*
G02X15123Y19253I10J17*
X15109Y19258J20*
G01X13406Y20894*
G02X13400Y20909I14J15*
G01Y20964*
G02X13420Y20984I20*
X13436Y20976J20*
G03X13537Y20925I101J74*
X13662Y21050J125*
X13537Y21175I125*
X13436Y21124J125*
G02X13420Y21116I16J12*
X13400Y21136J20*
G01Y21200*
X13250Y21350*
X10200*
X9500Y20650*
Y20008*
G02X9494Y19994I20*
G01X9406Y19906*
G02X9392Y19900I14J14*
G01X9208*
G02X9194Y19906J20*
G01X9106Y19994*
G02X9100Y20008I14J14*
G01Y20800*
X8451Y21449*
G02X8445Y21463I14J14*
X8446Y21468I20*
G03X8450Y21500I121J32*
X8325Y21625I125*
X8201Y21517J125*
G02X8181Y21500I20J3*
G01X7290*
G02X7270Y21520J20*
X7271Y21527I20*
G03X7279Y21569I117J42*
X7154Y21694I125*
X7029Y21569J125*
X7036Y21527I125*
G02X7037Y21520I19J7*
X7017Y21500I20*
G01X5203*
G02X5186Y21510J20*
G03X5077Y21573I109J62*
X4969Y21510J125*
G02X4951Y21500I18J10*
G01X3708*
G02X3694Y21506J20*
G01X3506Y21694*
G02X3500Y21708I14J14*
G01Y22242*
X3600Y5969D02*
G03X3597Y5980I20D01*
G02X3575Y6050I103J70*
X3597Y6120I125*
G03X3600Y6131I17J11*
G01Y6492*
G03X3594Y6506I20*
G01X3506Y6594*
G03X3492Y6600I14J14*
G01X3081*
G03X3070Y6597J20*
G02X3063Y6592I70J103*
G03X3053Y6575I10J17*
X3063Y6558I20*
G02X3125Y6450I63J108*
X3000Y6325I125*
X2875Y6450J125*
X2937Y6558I125*
G03X2947Y6575I10J17*
X2937Y6592I20*
G02X2930Y6597I63J108*
G03X2919Y6600I11J17*
G01X2901*
X2900*
X2406Y7094*
G03X2392Y7100I14J14*
G01X2008*
G03X1994Y7094J20*
G01X1906Y7006*
G03X1900Y6992I14J14*
G01Y5858*
G03X1906Y5844I20*
G01X1994Y5756*
G03X2008Y5750I14J14*
G01X2191*
G03X2201Y5752J20*
G02X2390Y5800I189J352*
X2790Y5400J400*
G01Y4868*
G03X2796Y4854I20*
G01X2844Y4806*
G03X2858Y4800I14J14*
G01X3492*
G03X3506Y4806J20*
G01X3594Y4894*
G03X3600Y4908I14J14*
G01Y5969*
X12900Y27889D02*
G02X12909Y27906I20D01*
G01X13475Y28283*
Y27193*
G03X13600Y27068I125*
X13725Y27193J125*
X13600Y27318I125*
X13475Y27193J125*
G01Y28283*
X13495Y28297*
G02X13506Y28300I11J17*
G01X14225*
Y25750*
G03X14275Y25650I125*
G01Y25250*
G03X14400Y25125I125*
X14525Y25250J125*
X14400Y25375I125*
X14275Y25250J125*
G01Y25650*
G03X14350Y25625I75J100*
X14475Y25750J125*
X14350Y25875I125*
X14225Y25750J125*
G01Y28300*
X14528*
Y25490*
G03X14653Y25365I125*
X14778Y25490J125*
X14653Y25615I125*
X14528Y25490J125*
G01Y28300*
X14622*
Y26893*
G03X14747Y26768I125*
X14872Y26893J125*
X14747Y27018I125*
X14622Y26893J125*
G01Y28300*
X14811*
Y28063*
G03X14904Y27942I125*
G01Y26068*
G03X15029Y25943I125*
X15154Y26068J125*
X15029Y26193I125*
X14904Y26068J125*
G01Y27942*
G03X14936Y27938I32J121*
X15061Y28063J125*
X14936Y28188I125*
X14811Y28063J125*
G01Y28300*
X17735*
Y28085*
G03X17860Y27960I125*
X17985Y28085J125*
X17860Y28210I125*
X17735Y28085J125*
G01Y28300*
X18055*
Y27912*
G03X18180Y27787I125*
X18255Y27812J125*
G01Y27512*
G03X18380Y27387I125*
X18505Y27512J125*
X18380Y27637I125*
X18255Y27512J125*
G01Y27812*
G03X18305Y27912I75J100*
X18180Y28037I125*
X18055Y27912J125*
G01Y28300*
X18555*
Y26962*
G03X18680Y26837I125*
X18805Y26962J125*
X18680Y27087I125*
X18555Y26962J125*
G01Y28300*
X18855*
Y26962*
G03X18980Y26837I125*
X19105Y26962J125*
X18980Y27087I125*
X18855Y26962J125*
G01Y28300*
X22312*
G02X22332Y28280J20*
X22329Y28269I20*
G03X22308Y28200I104J69*
X22433Y28075I125*
X22558Y28200J125*
X22537Y28269I125*
G02X22534Y28280I17J11*
X22554Y28300I20*
G01X23257*
G02X23277Y28280J20*
X23274Y28269I20*
G03X23253Y28200I104J69*
X23378Y28075I125*
X23503Y28200J125*
X23482Y28269I125*
G02X23479Y28280I17J11*
X23499Y28300I20*
G01X26092*
G02X26112Y28280J20*
X26108Y28269I20*
G03X26088Y28200I105J69*
X26213Y28075I125*
X26338Y28200J125*
X26317Y28269I125*
G02X26314Y28280I17J11*
X26334Y28300I20*
G01X27037*
G02X27057Y28280J20*
X27053Y28269I20*
G03X27032Y28200I104J69*
X27157Y28075I125*
X27282Y28200J125*
X27262Y28269I125*
G02X27258Y28280I16J11*
X27278Y28300I20*
G01X27347*
Y27000*
G03X27472Y26875I125*
X27597Y27000J125*
X27472Y27125I125*
X27347Y27000J125*
G01Y28300*
X27662*
Y27000*
G03X27787Y26875I125*
X27912Y27000J125*
X27787Y27125I125*
X27662Y27000J125*
G01Y28300*
X27979*
G02X27999Y28280J20*
X27996Y28269I20*
G03X27975Y28200I104J69*
X28100Y28075I125*
X28225Y28200J125*
X28204Y28269I125*
G02X28201Y28280I17J11*
X28221Y28300I20*
G01X28329*
G02X28349Y28280J20*
X28346Y28269I20*
G03X28325Y28200I104J69*
X28450Y28075I125*
X28575Y28200J125*
X28554Y28269I125*
G02X28551Y28280I17J11*
X28571Y28300I20*
G01X28729*
G02X28749Y28280J20*
X28746Y28269I20*
G03X28725Y28200I104J69*
X28850Y28075I125*
X28975Y28200J125*
X28954Y28269I125*
G02X28951Y28280I17J11*
X28971Y28300I20*
G01X29129*
G02X29149Y28280J20*
X29146Y28269I20*
G03X29125Y28200I104J69*
X29250Y28075I125*
X29375Y28200J125*
X29354Y28269I125*
G02X29351Y28280I17J11*
X29371Y28300I20*
G01X29529*
G02X29549Y28280J20*
X29546Y28269I20*
G03X29525Y28200I104J69*
X29650Y28075I125*
X29775Y28200J125*
X29754Y28269I125*
G02X29751Y28280I17J11*
X29771Y28300I20*
G01X30429*
G02X30449Y28280J20*
X30446Y28269I20*
G03X30425Y28200I104J69*
X30550Y28075I125*
X30675Y28200J125*
X30654Y28269I125*
G02X30651Y28280I17J11*
X30671Y28300I20*
G01X31446*
G02X31466Y28280J20*
X31463Y28269I20*
G03X31442Y28200I104J69*
X31567Y28075I125*
X31692Y28200J125*
X31671Y28269I125*
G02X31668Y28280I17J11*
X31688Y28300I20*
G01X31994*
G02X32005Y28297J20*
G01X32839Y27741*
G02X32848Y27724I11J17*
G01Y27111*
G02X32828Y27091I20*
X32816Y27095J20*
G03X32551Y27185I265J345*
X32116Y26750J435*
X32551Y26315I435*
X32817Y26405J435*
G02X32829Y26410I12J15*
X32849Y26390J20*
G01X32850Y25100*
X32947Y24955*
G02X32950Y24944I17J11*
G01X32914Y21039*
G02X32912Y21031I20*
G03X32901Y20979I114J52*
X32911Y20929I125*
G02X32913Y20921I18J8*
G01Y20920*
X32900Y19550*
Y19509*
G02X32893Y19494I20*
G01X32450Y19100*
Y15471*
G02X32430Y15451I20*
X32419Y15454J20*
G03X32350Y15475I69J104*
X32336Y15474J125*
G02X32334I2J20*
X32314Y15494J20*
X32315Y15502I20*
G03X32325Y15550I115J48*
X32200Y15675I125*
X32075Y15550J125*
X32200Y15425I125*
X32214Y15426J125*
G02X32216I2J20*
X32236Y15406J20*
X32235Y15398I20*
G03X32225Y15350I115J48*
X32235Y15302I125*
G02X32236Y15294I19J8*
X32216Y15274I20*
X32214J20*
G03X32200Y15275I14J124*
X32075Y15150J125*
X32200Y15025I125*
X32325Y15150J125*
X32315Y15198I125*
G02X32314Y15206I19J8*
X32334Y15226I20*
X32336J20*
G03X32350Y15225I14J124*
X32419Y15246J125*
G02X32430Y15249I11J17*
X32450Y15229J20*
G01Y14508*
G02X32444Y14494I20*
G01X32356Y14406*
G02X32342Y14400I14J14*
G01X32281*
G02X32270Y14403J20*
G03X32200Y14425I70J103*
X32130Y14403J125*
G02X32119Y14400I11J17*
G01X31292*
G02X31272Y14420J20*
Y14424I20*
G03X31275Y14450I122J26*
X31150Y14575I125*
X31025Y14450J125*
X31028Y14424I125*
G02Y14420I20J4*
X31008Y14400I20*
G01X30658*
G02X30644Y14406J20*
G01X30456Y14594*
G02X30450Y14608I14J14*
G01Y15092*
G02X30456Y15106I20*
G01X30644Y15294*
G02X30658Y15300I14J14*
G01X30675*
Y15100*
G03X30800Y14975I125*
X30925Y15100J125*
X30800Y15225I125*
X30675Y15100J125*
G01Y15300*
X30719*
G02X30730Y15297J20*
G03X30800Y15275I70J103*
X30870Y15297J125*
G02X30881Y15300I11J17*
G01X31025*
Y14800*
G03X31150Y14675I125*
X31275Y14800J125*
X31150Y14925I125*
X31025Y14800J125*
G01Y15300*
X31550*
X31650Y15400*
Y18308*
G02X31670Y18328I20*
X31674J20*
G03X31700Y18325I26J122*
X31825Y18450J125*
X31700Y18575I125*
X31674Y18572J125*
G02X31670I4J20*
X31650Y18592J20*
G01Y19073*
G02X31660Y19091I20*
G03X31725Y19200I60J109*
X31681Y19295I125*
G02X31674Y19311I13J16*
X31681Y19326I20*
G01X31875Y19488*
Y18450*
G03X32000Y18325I125*
X32125Y18450J125*
X32000Y18575I125*
X31875Y18450J125*
G01Y19488*
X32250Y19800*
Y21456*
G02X32267Y21476I20*
G03X32375Y21600I17J124*
X32267Y21724I125*
G02X32250Y21744I3J20*
G01Y24200*
X31850Y24900*
X31750Y25000*
X31158*
G02X31144Y25006J20*
G01X31106Y25044*
G02X31100Y25058I14J14*
G01Y25542*
G02X31106Y25556I20*
G01X31194Y25644*
G02X31208Y25650I14J14*
G01X31442*
Y25300*
G03X31567Y25175I125*
X31692Y25300J125*
X31567Y25425I125*
X31442Y25300J125*
G01Y25650*
X31500*
X31600Y25750*
Y27200*
X31500Y27300*
X31164*
X31163*
G03X31160I3J60*
G01X30590*
G03X30587J60*
G01X30586*
X28200*
X28100Y27200*
Y26458*
G02X28094Y26444I20*
G01X28006Y26356*
G02X27992Y26350I14J14*
G01X27308*
G02X27294Y26356J20*
G01X27206Y26444*
G02X27200Y26458I14J14*
G01Y27200*
X27100Y27300*
X21550*
X20405Y26454*
G02X20393Y26450I12J16*
G01X19842*
G02X19822Y26470J20*
X19827Y26483I20*
G03X19855Y26562I97J79*
X19730Y26687I125*
X19605Y26562J125*
X19633Y26483I125*
G02X19637Y26470I16J13*
X19617Y26450I20*
G01X19125*
G02X19105Y26469J20*
G03X18980Y26587I125J7*
X18855Y26469J125*
G02X18835Y26450I20J1*
G01X18825*
G02X18805Y26469J20*
G03X18680Y26587I125J7*
X18555Y26469J125*
G02X18535Y26450I20J1*
G01X16497*
X16065Y26019*
G02X16051Y26013I14J14*
X16034Y26022J20*
G03X15742Y26179I292J193*
X15392Y25829J350*
G01Y25529*
G03X15742Y25179I350*
X15920Y25228J350*
G02X15930Y25230I10J18*
X15950Y25210J20*
G01Y21552*
G02X15944Y21538I20*
G01X15762Y21356*
G02X15748Y21350I14J14*
G01X15208*
G02X15194Y21356J20*
G01X15146Y21404*
G02X15141Y21418I15J14*
X15160Y21438I20*
G03X15285Y21563J125*
X15160Y21688I125*
X15039Y21595J125*
G02X15020Y21580I19J5*
X15000Y21600J20*
G01Y22049*
G02X15020Y22069I20*
G01X15021*
G02X15040Y22055J20*
G03X15160Y21964I120J34*
X15285Y22089J125*
X15215Y22202I125*
G02X15204Y22219I9J17*
X15215Y22237I20*
G03X15285Y22349I55J112*
X15213Y22463I125*
G02X15202Y22481I9J18*
X15213Y22499I20*
G03X15285Y22612I53J113*
X15160Y22737I125*
X15040Y22646J125*
G02X15021Y22632I19J6*
G01X15020*
G02X15000Y22652J20*
G01Y23550*
X14446Y24104*
G02X14440Y24118I14J14*
X14452Y24136I20*
G03X14525Y24250I52J114*
X14400Y24375I125*
X14286Y24302J125*
G02X14268Y24290I18J8*
X14254Y24296J20*
G01X12906Y25644*
G02X12900Y25658I14J14*
G01Y27889*
X17000Y4376D02*
Y4492D01*
G02X17006Y4506I20*
G01X17094Y4594*
G02X17108Y4600I14J14*
G01X17275*
Y4250*
G03X17400Y4125I125*
X17472Y4148J125*
G02X17484Y4151I12J17*
X17496Y4147J20*
G01X17500Y4144*
G02X17507Y4128I13J16*
X17506Y4121I20*
G03X17496Y4072I115J49*
X17621Y3947I125*
X17746Y4072J125*
X17621Y4197I125*
X17549Y4174J125*
G02X17538Y4171I11J17*
X17525Y4175J20*
G01X17521Y4178*
G02X17514Y4194I13J16*
X17515Y4202I20*
G03X17525Y4250I115J48*
X17400Y4375I125*
X17275Y4250J125*
G01Y4600*
X17700*
X17800Y4700*
Y6069*
G02X17803Y6080I20*
G03X17825Y6150I103J70*
X17803Y6220I125*
G02X17800Y6231I17J11*
G01Y6469*
G02X17803Y6480I20*
G03X17825Y6550I103J70*
X17806Y6617I125*
G02X17803Y6627I17J10*
X17823Y6647I20*
X17833Y6644J20*
G03X17900Y6625I67J106*
X17914Y6626J125*
G02X17916I2J20*
X17936Y6606J20*
X17935Y6598I20*
G03X17925Y6550I115J48*
G01Y4350*
G03X18050Y4225I125*
X18175Y4350J125*
X18050Y4475I125*
X17925Y4350J125*
G01Y5050*
G03X18050Y4925I125*
X18175Y5050J125*
X18050Y5175I125*
X17925Y5050J125*
G01Y5950*
G03X18050Y5825I125*
X18175Y5950J125*
X18050Y6075I125*
X17925Y5950J125*
G01Y6550*
G03X18050Y6425I125*
X18175Y6550J125*
X18050Y6675I125*
X18036Y6674J125*
G02X18034I2J20*
X18014Y6694J20*
X18015Y6702I20*
G03X18025Y6750I115J48*
X17900Y6875I125*
X17832Y6855J125*
G02X17821Y6851I11J16*
X17801Y6866J20*
X17800Y6876I39J10*
G01Y7519*
G02X17803Y7530I20*
G03X17825Y7600I103J70*
X17803Y7670I125*
G02X17800Y7681I17J11*
G01Y7769*
G02X17803Y7780I20*
G03X17825Y7850I103J70*
X17803Y7920I125*
G02X17800Y7931I17J11*
G01Y8492*
G02X17806Y8506I20*
G01X17894Y8594*
G02X17908Y8600I14J14*
G01X18173*
G02X18191Y8590J20*
G03X18300Y8525I109J60*
X18409Y8590J125*
G02X18427Y8600I18J10*
G01X19300*
X21800Y11100*
Y11101*
Y13242*
G02X21806Y13256I20*
G01X22115Y13565*
Y12081*
G03X22235Y11961I120*
X22355Y12081J120*
X22235Y12201I120*
X22115Y12081J120*
G01Y12921*
G03X22201Y12806I120*
G02X22215Y12786I6J20*
G01Y12784*
G02X22201Y12765I20*
G03X22115Y12650I34J115*
X22235Y12530I120*
X22355Y12650J120*
X22269Y12765I120*
G02X22255Y12784I6J19*
G01Y12786*
G02X22269Y12806I20*
G03X22355Y12921I34J115*
X22235Y13041I120*
X22115Y12921J120*
G01Y13565*
X22495Y13945*
Y12361*
G03X22590Y12235I130*
G02X22605Y12216I5J19*
G01Y12215*
G02X22591Y12196I20*
G03X22505Y12081I34J115*
X22591Y11966I120*
G02X22605Y11946I6J20*
G01Y11945*
G02X22590Y11926I20*
G03X22495Y11801I35J125*
X22625Y11671I130*
X22755Y11801J130*
X22659Y11926I130*
G02X22645Y11945I6J19*
G01Y11946*
G02X22659Y11966I20*
G03X22745Y12081I34J115*
X22659Y12196I120*
G02X22645Y12215I6J19*
G01Y12216*
G02X22659Y12235I20*
G03X22755Y12361I34J126*
X22625Y12491I130*
X22495Y12361J130*
G01Y13945*
X22602Y14052*
G02X22616Y14058I14J14*
X22627Y14055J20*
G03X22691Y14037I64J102*
X22811Y14157J120*
X22793Y14221I120*
G02X22790Y14231I17J10*
X22795Y14245I20*
G01X22880Y14330*
Y13560*
G03X23000Y13440I120*
X23120Y13560J120*
X23000Y13680I120*
X22880Y13560J120*
G01Y14330*
X22883Y14333*
Y13861*
G03X23003Y13741I120*
X23123Y13861J120*
X23003Y13981I120*
X22883Y13861J120*
G01Y14333*
X22894Y14344*
G02X22908Y14350I14J14*
G01X22927*
G02X22937Y14347J20*
G03X23000Y14330I63J108*
X23125Y14455J125*
X23103Y14525I125*
G02X23100Y14537I17J12*
G01Y14980*
G02X23103Y14990I20*
G03X23120Y15052I103J62*
X23103Y15114I120*
G02X23100Y15124I17J10*
G01Y15279*
G02X23103Y15289I20*
G03X23120Y15351I103J62*
X23103Y15413I120*
G02X23100Y15423I17J10*
G01Y15876*
G02X23103Y15886I20*
G03X23120Y15948I103J62*
X23103Y16010I120*
G02X23100Y16020I17J10*
G01Y16174*
G02X23103Y16184I20*
G03X23120Y16246I103J62*
X23103Y16308I120*
G02X23100Y16318I17J10*
G01Y16771*
G02X23103Y16781I20*
G03X23120Y16843I103J62*
X23119Y16858I120*
G02Y16861I20J3*
X23125Y16875I20*
G01X23169Y16919*
G02X23183Y16925I14J14*
X23189Y16924J20*
G01Y13858*
G03X23309Y13738I120*
X23429Y13858J120*
X23309Y13978I120*
X23189Y13858J120*
G01Y16924*
Y14455*
G03X23309Y14335I120*
X23429Y14455J120*
X23309Y14575I120*
X23189Y14455J120*
G01Y16924*
G02X23203Y16905I6J19*
X23201Y16896I20*
G03X23189Y16843I108J53*
G01Y15052*
G03X23309Y14932I120*
X23429Y15052J120*
X23309Y15172I120*
X23189Y15052J120*
G01Y15351*
G03X23309Y15231I120*
X23429Y15351J120*
X23309Y15471I120*
X23189Y15351J120*
G01Y15948*
G03X23309Y15828I120*
X23429Y15948J120*
X23309Y16068I120*
X23189Y15948J120*
G01Y16246*
G03X23309Y16126I120*
X23429Y16246J120*
X23309Y16366I120*
X23189Y16246J120*
G01Y16843*
G03X23309Y16723I120*
X23429Y16843J120*
X23309Y16963I120*
X23256Y16951J120*
G02X23247Y16949I9J18*
X23227Y16969J20*
X23233Y16983I20*
G01X23268Y17018*
G02X23283Y17024I15J14*
X23286J20*
G03X23309Y17022I23J118*
X23429Y17142J120*
X23361Y17250I120*
G02X23350Y17268I9J18*
G01Y17314*
G02X23361Y17332I20*
G03X23429Y17440I52J108*
X23401Y17517I120*
G02X23396Y17530I15J13*
X23416Y17550I20*
G01X23498*
Y13858*
G03X23618Y13738I120*
X23738Y13858J120*
X23618Y13978I120*
X23498Y13858J120*
G01Y17550*
Y14455*
G03X23618Y14335I120*
X23738Y14455J120*
X23618Y14575I120*
X23498Y14455J120*
G01Y17550*
Y15052*
G03X23618Y14932I120*
X23738Y15052J120*
X23618Y15172I120*
X23498Y15052J120*
G01Y15351*
G03X23618Y15231I120*
X23738Y15351J120*
X23618Y15471I120*
X23498Y15351J120*
G01Y15948*
G03X23618Y15828I120*
X23738Y15948J120*
X23618Y16068I120*
X23498Y15948J120*
G01Y16246*
G03X23618Y16126I120*
X23738Y16246J120*
X23618Y16366I120*
X23498Y16246J120*
G01Y16843*
G03X23618Y16723I120*
X23738Y16843J120*
X23618Y16963I120*
X23498Y16843J120*
G01Y17142*
G03X23618Y17022I120*
X23738Y17142J120*
X23618Y17262I120*
X23498Y17142J120*
G01Y17550*
X23742*
G02X23756Y17544J20*
G01X23794Y17506*
G02X23800Y17492I14J14*
G01Y16450*
X23860Y16390*
G02X23871Y16366I29J28*
Y16364I20J2*
X23862Y16347I20*
G03X23806Y16246I64J101*
X23926Y16126I120*
X24028Y16182J120*
G02X24044Y16191I16J11*
X24047J20*
X24071Y16179I5J40*
G01X24294Y15956*
G02X24300Y15942I14J14*
G01Y15908*
G02X24294Y15894I20*
G01X23900Y15500*
Y15483*
G02X23887Y15464I20*
G03X23806Y15351I39J113*
X23887Y15238I120*
G02X23900Y15219I7J19*
G01Y15184*
G02X23887Y15165I20*
G03X23806Y15052I39J113*
X23887Y14939I120*
G02X23900Y14920I7J19*
G01Y14587*
G02X23887Y14568I20*
G03X23806Y14455I39J113*
X23887Y14342I120*
G02X23900Y14323I7J19*
G01Y13990*
G02X23887Y13971I20*
G03X23806Y13858I39J113*
X23887Y13745I120*
G02X23900Y13726I7J19*
G01Y13508*
G02X23894Y13494I20*
G01X23806Y13406*
G02X23792Y13400I14J14*
G01X23300*
X22800Y12900*
Y11358*
G02X22794Y11344I20*
G01X21615Y10165*
G02X21591Y10154I28J29*
G01X21589*
G02X21572Y10163J20*
G03X21470Y10220I102J63*
X21350Y10100J120*
X21407Y9998I120*
G02X21416Y9981I11J17*
G01Y9979*
G02X21405Y9955I40J4*
G01X19556Y8106*
G02X19542Y8100I14J14*
G01X18500*
X18400Y8000*
Y3708*
G02X18394Y3694I20*
G01X18306Y3606*
G02X18292Y3600I14J14*
G01X18114*
G02X18094Y3620J20*
X18105Y3638I20*
G03X18175Y3750I55J112*
X18050Y3875I125*
X17925Y3750J125*
X17995Y3638I125*
G02X18006Y3620I9J18*
X17986Y3600I20*
G01X17776*
G02X17736Y3640J40*
X17740Y3657I40*
G03X17750Y3700I90J43*
X17650Y3800I100*
X17550Y3700J100*
X17560Y3657I100*
G02X17564Y3640I36J17*
X17524Y3600I40*
G01X17108*
G02X17094Y3606J20*
G01X17074Y3626*
G02X17068Y3640I14J14*
X17074Y3654I20*
G01X17077Y3658*
G02X17091Y3664I14J14*
X17101Y3661J20*
G03X17162Y3646I61J110*
X17286Y3758J125*
G02X17306Y3776I20J2*
X17309J20*
G03X17330Y3774I21J123*
X17455Y3899J125*
X17330Y4024I125*
X17205Y3912J125*
G02X17185Y3894I20J2*
X17182J20*
G03X17162Y3896I20J123*
X17041Y3805J125*
G02X17022Y3791I19J6*
G01X17020*
G02X17000Y3811J20*
G01Y4124*
G02X17001Y4134I40*
X17021Y4149I20J5*
X17032Y4145J20*
G03X17100Y4125I68J105*
X17225Y4250J125*
X17100Y4375I125*
X17032Y4355J125*
G02X17021Y4351I11J16*
X17001Y4366J20*
X17000Y4376I39J10*
G01X17800Y9836D02*
G02X17802Y9846I20D01*
G03X17810Y9875I52J29*
G01Y11402*
G02X17816Y11416I20*
G01X17984Y11584*
G02X17998Y11590I14J14*
G01X17999*
X18000*
G03X18120Y11710J120*
G01Y11711*
Y11712*
G02X18126Y11726I20*
G01X18161Y11761*
Y10387*
G03X18281Y10267I120*
X18401Y10387J120*
X18281Y10507I120*
X18161Y10387J120*
G01Y11761*
X18740Y12340*
G02X18754Y12346I14J14*
X18769Y12340J20*
G03X18854Y12304I85J84*
X18894Y12311J120*
G01Y11319*
G03X18930Y11233I120*
G01Y10100*
G03X19050Y9980I120*
X19170Y10100J120*
X19050Y10220I120*
X18930Y10100J120*
G01Y11233*
G03X19014Y11199I84J86*
X19134Y11319J120*
X19014Y11439I120*
X18894Y11319J120*
G01Y12311*
G03X18974Y12424I40J113*
X18938Y12510I120*
G02X18932Y12524I14J14*
X18938Y12538I20*
G01X19574Y13174*
Y12424*
G03X19694Y12304I120*
X19804Y12377J120*
G01Y10961*
G03X19820Y10901I120*
G01Y10100*
G03X19940Y9980I120*
X20060Y10100J120*
X19940Y10220I120*
X19820Y10100J120*
G01Y10901*
G03X19924Y10841I104J60*
X20044Y10961J120*
X19924Y11081I120*
X19804Y10961J120*
G01Y12377*
G03X19814Y12424I110J47*
X19694Y12544I120*
X19574Y12424J120*
G01Y13174*
X19854Y13454*
Y13204*
G03X19974Y13084I120*
X20094Y13204J120*
X19974Y13324I120*
X19854Y13204J120*
G01Y13454*
X19888Y13488*
G02X19902Y13494I14J14*
X19913Y13491J20*
G03X19974Y13474I61J103*
X20094Y13594J120*
X20077Y13656I120*
G02X20074Y13666I17J10*
X20080Y13680I20*
G01X20094Y13694*
G02X20108Y13700I14J14*
G01X20134*
Y13204*
G03X20194Y13100I120*
G01Y10961*
G03X20314Y10841I120*
X20434Y10961J120*
X20314Y11081I120*
X20194Y10961J120*
G01Y13100*
G03X20230Y13087I60J104*
G01Y11500*
G03X20350Y11380I120*
X20470Y11500J120*
X20350Y11620I120*
X20230Y11500J120*
G01Y13087*
G03X20254Y13084I24J117*
X20374Y13204J120*
X20254Y13324I120*
X20134Y13204J120*
G01Y13700*
X20414*
Y13204*
G03X20534Y13084I120*
X20649Y13170J120*
G02X20668Y13184I19J6*
G01X20680*
G02X20699Y13170J20*
G03X20814Y13084I115J34*
X20934Y13204J120*
X20814Y13324I120*
X20699Y13239J120*
G02X20680Y13224I19J5*
G01X20668*
G02X20649Y13239J20*
G03X20534Y13324I115J35*
X20414Y13204J120*
G01Y13700*
X20974*
Y12361*
G03X21094Y12241I120*
X21214Y12361J120*
X21094Y12481I120*
X20974Y12361J120*
G01Y13201*
G03X21094Y13081I120*
X21214Y13201J120*
X21094Y13321I120*
X20974Y13201J120*
G01Y13700*
X21492*
G02X21506Y13694J20*
G01X21594Y13606*
G02X21600Y13592I14J14*
G01Y11108*
G02X21594Y11094I20*
G01X19456Y8956*
G02X19442Y8950I14J14*
G01X18427*
G02X18409Y8960J20*
G03X18300Y9025I109J60*
X18191Y8960J125*
G02X18173Y8950I18J10*
G01X17908*
G02X17894Y8956J20*
G01X17806Y9044*
G02X17800Y9058I14J14*
G01Y9836*
X18550Y21142D02*
G02X18556Y21156I20D01*
G01X18694Y21294*
G02X18708Y21300I14J14*
G01X18992*
G02X19006Y21294J20*
G01X19202Y21098*
G02X19208Y21084I14J14*
X19204Y21072I20*
G03X19180Y21000I96J72*
X19300Y20880I120*
X19372Y20904J120*
G02X19384Y20908I12J16*
X19398Y20902J20*
G01X19804Y20496*
Y19199*
G03X19858Y19099I120*
G02X19867Y19082I11J17*
X19858Y19066I20*
G03X19804Y18966I66J100*
X19854Y18868I120*
G01Y17406*
G03X19974Y17286I120*
X20094Y17406J120*
X19974Y17526I120*
X19854Y17406J120*
G01Y18868*
Y18186*
G03X19974Y18066I120*
X20094Y18186J120*
X19974Y18306I120*
X19854Y18186J120*
G01Y18576*
G03X19974Y18456I120*
X20094Y18576J120*
X19974Y18696I120*
X19854Y18576J120*
G01Y18868*
G03X19924Y18846I70J98*
X20044Y18966J120*
X19990Y19066I120*
G02X19981Y19082I11J16*
X19990Y19099I20*
G03X20044Y19199I66J100*
X19959Y19314I120*
G02X19944Y19334I5J20*
G01Y19345*
G02X19959Y19364I20*
G03X20044Y19479I35J115*
X19924Y19599I120*
X19804Y19479J120*
X19890Y19364I120*
G02X19904Y19345I6J19*
G01Y19334*
G02X19890Y19314I20*
G03X19804Y19199I34J115*
G01Y20496*
Y19759*
G03X19924Y19639I120*
X20044Y19759J120*
X19924Y19879I120*
X19804Y19759J120*
G01Y20496*
X20244Y20056*
G02X20250Y20042I14J14*
G01Y17935*
G02X20231Y17915I20*
G03X20126Y17834I8J119*
G02X20107Y17821I19J7*
X20088Y17834J20*
G03X19974Y17916I114J38*
X19854Y17796J120*
X19974Y17676I120*
X20088Y17757J120*
G02X20107Y17770I19J7*
X20126Y17757J20*
G03X20231Y17676I113J39*
G02X20250Y17656I1J20*
G01Y17543*
G02X20233Y17524I20*
G03X20134Y17406I21J118*
X20254Y17286I120*
X20361Y17352J120*
G02X20379Y17362I18J10*
X20393Y17357J20*
G01X20500Y17250*
X21027*
Y16843*
G03X21147Y16723I120*
X21267Y16843J120*
X21147Y16963I120*
X21027Y16843J120*
G01Y17250*
X21336*
Y16843*
G03X21456Y16723I120*
X21576Y16843J120*
X21456Y16963I120*
X21336Y16843J120*
G01Y17250*
X21656*
G02X21676Y17230J20*
X21672Y17217I20*
G03X21645Y17142I93J75*
G01Y16843*
G03X21765Y16723I120*
X21885Y16843J120*
X21765Y16963I120*
X21645Y16843J120*
G01Y17142*
G03X21765Y17022I120*
X21885Y17142J120*
X21858Y17217I120*
G02X21853Y17230I15J13*
X21873Y17250I20*
G01X22442*
G02X22456Y17244J20*
G01X22494Y17206*
G02X22500Y17192I14J14*
G01Y17058*
G02X22494Y17044I20*
G01X22418Y16968*
G02X22403Y16962I15J14*
X22400J20*
G03X22382Y16963I18J119*
X22262Y16843J120*
X22264Y16825I120*
G02Y16822I20J3*
X22258Y16808I20*
G01X22106Y16656*
G02X22092Y16650I14J14*
G01X21210*
G02X21201Y16652J20*
G03X21147Y16665I54J107*
X21094Y16652J120*
G02X21085Y16650I9J18*
G01X20422*
G02X20402Y16668J20*
G03X20283Y16775I119J13*
X20164Y16668J120*
G02X20144Y16650I20J2*
G01X20113*
G02X20094Y16668J20*
G03X19974Y16775I120J13*
X19926Y16765J120*
G02X19918Y16763I8J18*
X19904Y16768J20*
G01X19257Y17344*
G02X19250Y17359I13J15*
G01Y18151*
G02X19251Y18156I20*
G03X19254Y18186I117J30*
X19251Y18215I120*
G02X19250Y18220I19J5*
G01Y18292*
G02X19256Y18306I20*
G01X19294Y18344*
Y17796*
G03X19414Y17676I120*
X19534Y17796J120*
X19414Y17916I120*
X19294Y17796J120*
G01Y18186*
G03X19414Y18066I120*
X19534Y18186J120*
X19414Y18306I120*
X19294Y18186J120*
G01Y18344*
X19400Y18450*
G02X19414Y18456I14J14*
G03X19534Y18576J120*
G02X19540Y18590I20*
X19554Y18596I14J14*
X19574Y18576J20*
G01Y17796*
G03X19694Y17676I120*
X19814Y17796J120*
X19694Y17916I120*
X19574Y17796J120*
G01Y18186*
G03X19694Y18066I120*
X19814Y18186J120*
X19694Y18306I120*
X19574Y18186J120*
G01Y18576*
G03X19694Y18456I120*
X19814Y18576J120*
X19694Y18696I120*
G02X19674Y18716J20*
X19680Y18730I20*
G01X19700Y18750*
Y19850*
X18556Y20994*
G02X18550Y21008I14J14*
G01Y21142*
X19600Y16292D02*
G02X19606Y16306I20D01*
G01X19694Y16394*
G02X19708Y16400I14J14*
G01X19858*
G02X19896Y16372J40*
X19897Y16366I19J6*
X19891Y16352I20*
G03X19854Y16265I83J87*
G01Y15875*
G03X19974Y15755I120*
X20094Y15875J120*
X19974Y15995I120*
X19854Y15875J120*
G01Y16265*
G03X19974Y16145I120*
X20076Y16201J120*
G02X20092Y16210I16J11*
X20111Y16198J20*
G03X20134Y16163I110J48*
G01Y15875*
G03X20254Y15755I120*
X20374Y15875J120*
X20254Y15995I120*
X20134Y15875J120*
G01Y16163*
G03X20221Y16126I87J83*
X20341Y16246J120*
X20256Y16361I120*
G02X20242Y16380I6J19*
X20262Y16400I20*
G01X21027*
Y15649*
G03X21147Y15529I120*
X21267Y15649J120*
X21147Y15769I120*
X21027Y15649J120*
G01Y15948*
G03X21147Y15828I120*
X21267Y15948J120*
X21147Y16068I120*
X21027Y15948J120*
G01Y16400*
X21415*
G02X21435Y16380J20*
X21421Y16361I20*
G03X21336Y16246I35J115*
X21456Y16126I120*
X21549Y16170J120*
G02X21564Y16178I15J12*
X21569Y16177J20*
X21600Y16138I9J39*
G01Y16056*
G02X21569Y16017I40*
X21564Y16016I5J19*
X21549Y16024J20*
G03X21456Y16068I93J76*
X21336Y15948J120*
X21456Y15828I120*
X21549Y15872J120*
G02X21564Y15879I15J13*
X21569J20*
X21600Y15840I9J39*
G01Y15757*
G02X21569Y15718I40*
X21564I5J20*
X21549Y15725J20*
G03X21456Y15769I93J76*
X21336Y15649J120*
X21456Y15529I120*
X21549Y15573J120*
G02X21564Y15581I15J12*
X21569Y15580J20*
X21600Y15541I9J39*
G01Y15308*
G02X21594Y15294I20*
G01X21506Y15206*
G02X21492Y15200I14J14*
G01X21197*
G02X21182Y15206J20*
G03X21094Y15245I88J81*
X21006Y15206J120*
G02X20992Y15200I14J14*
G01X20917*
G02X20902Y15206J20*
G03X20814Y15245I88J81*
X20726Y15206J120*
G02X20712Y15200I14J14*
G01X20637*
G02X20622Y15206J20*
G03X20534Y15245I88J81*
X20502Y15240J120*
G02X20496Y15239I6J19*
X20482Y15245J20*
G01X20337Y15390*
X20318*
G02X20304Y15396J20*
G01X20200Y15500*
X19708*
G02X19694Y15506J20*
G01X19606Y15594*
G02X19600Y15608I14J14*
G01Y16292*
X24050Y16358D02*
Y16525D01*
G02Y16527I20*
G03X24051Y16545I124J18*
X24050Y16562I125*
G01Y16563*
Y16565*
Y17492*
G02X24056Y17506I20*
G01X24110Y17560*
Y16843*
G03X24115Y16808I120*
G01Y16545*
G03X24235Y16425I120*
X24355Y16545J120*
X24235Y16665I120*
X24115Y16545J120*
G01Y16808*
G03X24230Y16723I115J35*
X24350Y16843J120*
X24230Y16963I120*
X24110Y16843J120*
G01Y17560*
X24115Y17565*
Y17142*
G03X24235Y17022I120*
X24355Y17142J120*
X24235Y17262I120*
X24115Y17142J120*
G01Y17565*
X24144Y17594*
G02X24158Y17600I14J14*
G01X24424*
Y16545*
G03Y16540I120*
G01Y15052*
G03X24544Y14932I120*
X24664Y15052J120*
X24544Y15172I120*
X24424Y15052J120*
G01Y15351*
G03X24544Y15231I120*
X24664Y15351J120*
X24544Y15471I120*
X24424Y15351J120*
G01Y16540*
G03X24544Y16425I120J5*
X24664Y16545J120*
X24544Y16665I120*
X24424Y16545J120*
G01Y17600*
X24642*
G02X24656Y17594J20*
G01X24744Y17506*
G02X24750Y17492I14J14*
G01Y15750*
X25094Y15406*
G02X25100Y15392I14J14*
G01Y15231*
G02X25094Y15217I20*
G03X25060Y15159I92J92*
G02X25041Y15145I19J6*
G01X25040*
G02X25021Y15159J20*
G03X24952Y15236I115J34*
G02X24939Y15254I7J18*
X24944Y15267I20*
G03X24973Y15345I91J78*
X24853Y15465I120*
X24733Y15345J120*
X24807Y15234I120*
G02X24819Y15216I8J18*
X24814Y15203I20*
G03X24786Y15125I92J78*
G01Y14735*
G03X24906Y14615I120*
X25026Y14735J120*
X24906Y14855I120*
X24786Y14735J120*
G01Y15125*
G03X24906Y15005I120*
X25021Y15091J120*
G02X25040Y15105I19J6*
G01X25041*
G02X25060Y15090J20*
G03X25094Y15033I126J35*
G02X25100Y15018I14J15*
G01Y13858*
G02X25094Y13844I20*
G01X25006Y13756*
G02X24992Y13750I14J14*
G01X24758*
G02X24744Y13756J20*
G01X24669Y13831*
G02X24663Y13845I14J14*
G01Y13847*
G03X24664Y13858I119J11*
X24652Y13910I120*
G02X24650Y13919I18J9*
G01Y14100*
X24450Y14300*
X24158*
G02X24144Y14306J20*
G01X24056Y14394*
G02X24050Y14408I14J14*
G01Y15492*
G02X24056Y15506I20*
G01X24115Y15565*
Y15052*
G03X24235Y14932I120*
X24355Y15052J120*
X24235Y15172I120*
X24115Y15052J120*
G01Y15351*
G03X24235Y15231I120*
X24355Y15351J120*
X24235Y15471I120*
X24115Y15351J120*
G01Y15565*
X24400Y15850*
Y16000*
X24056Y16344*
G02X24050Y16358I14J14*
G01X25400Y17685D02*
G03X25392Y17701I20D01*
G02X25346Y17796I74J95*
X25352Y17833I120*
G03X25353Y17839I19J6*
X25347Y17853I20*
G01X25200Y18000*
G03X25197Y18012I20*
G02X25176Y18079I99J67*
X25197Y18147I120*
G03X25200Y18158I17J11*
G01Y18272*
G03X25196Y18284I20*
G02X25171Y18359I100J75*
X25196Y18435I125*
G03X25200Y18447I16J12*
G01Y18560*
G03X25197Y18572I20*
G02X25176Y18639I99J67*
X25197Y18707I120*
G03X25200Y18718I17J11*
G01Y19120*
G03X25197Y19132I20*
G02X25176Y19199I99J67*
X25197Y19267I120*
G03X25200Y19278I17J11*
G01Y19960*
G03X25197Y19972I20*
G02X25176Y20039I99J67*
X25197Y20107I120*
G03X25200Y20118I17J11*
G01Y20813*
G03X25196Y20826I20*
G02X25170Y20900I94J74*
X25196Y20974I120*
G03X25200Y20987I16J13*
G01Y21719*
G03X25197Y21730I20*
G02X25175Y21800I103J70*
X25197Y21870I125*
G03X25200Y21881I17J11*
G01Y21892*
G03X25194Y21906I20*
G01X25106Y21994*
G03X25092Y22000I14J14*
G01X24708*
G03X24694Y21994J20*
G01X24606Y21906*
G03X24600Y21892I14J14*
G01Y21007*
G03X24607Y20992I20*
G02X24650Y20900I77J92*
X24607Y20808I120*
G03X24600Y20793I13J15*
G01Y17808*
G03X24606Y17794I20*
G01X24850Y17550*
Y17308*
G03X24856Y17294I20*
G01X24944Y17206*
G03X24958Y17200I14J14*
G01X25292*
G03X25306Y17206J20*
G01X25380Y17280*
G03X25390Y17297I28J28*
X25391Y17303I19J6*
X25384Y17317I20*
G02X25346Y17406I82J89*
X25392Y17501I120*
G03X25400Y17516I12J15*
G01Y17685*
G37*
G54D10*
X0Y0D02*
X39000D01*
Y29000*
X0*
Y0*
G54D11*
X1450Y4800D03*
Y23903D03*
Y24125D03*
Y24375D03*
Y24597D03*
X2000Y6200D03*
X2225D03*
Y6450D03*
Y6700D03*
Y6950D03*
X2571Y16323D03*
X2580Y17809D03*
X2750Y6000D03*
X2900Y5850D03*
X3050Y5200D03*
Y5450D03*
Y5700D03*
X3100Y12000D02*
X2400Y11300D01*
Y8000*
X1200Y6800*
Y5050*
X1450Y4800*
X3100Y12000D03*
X3135Y4947D03*
X3275Y5200D03*
X3350Y23360D03*
Y23616D03*
Y24640D03*
Y24896D03*
X3500Y5200D03*
X3501Y17059D03*
X3637Y21238D03*
X3729Y21657D03*
X4250Y10100D03*
X4750D03*
X5295Y26412D03*
X5550Y4000D03*
Y8350D02*
X5350Y8150D01*
Y6200*
X6050Y5500*
Y3150*
X6350Y2850*
X8000*
X8350Y2500*
X16592*
X16952Y2860*
X17454*
X17784Y2530*
X5550Y8350D03*
X6000Y10100D03*
X6050Y12750D02*
X5825Y12525D01*
Y11136*
X6039Y10923*
Y10339*
X6000Y10300*
Y10100*
X6050Y12750D03*
X6549Y3740D03*
X7100Y19650D03*
X7300Y18500D03*
X8350Y5400D03*
X8850Y9750D03*
X9200Y14050D03*
Y14350D03*
X9300Y16450D03*
Y19650D03*
Y20100D03*
X9813Y3800D03*
X10188Y3537D03*
X10350Y25000D03*
Y25250D03*
Y25550D03*
X10355Y24750D03*
X10400Y17800D02*
X10655Y18055D01*
Y18290*
X10495Y18450*
X10450*
Y9150D03*
Y18200D02*
X10300D01*
X10450D03*
Y18450D03*
Y18700D03*
X10700Y17500D02*
X10950Y17750D01*
X10700Y18700D02*
X10450D01*
X10800Y19650D03*
X11050Y6750D03*
X11100Y20100D03*
Y20250D02*
Y20100D01*
X11118Y4050D03*
X11200Y10900D03*
Y11500D03*
Y15000D03*
X11333Y20100D03*
X11466Y19966D02*
X11333Y20100D01*
X11572Y3565D03*
X11800Y6000D03*
X12423Y3800D03*
X12450Y21050D03*
X12750D03*
X12812Y3628D03*
X12850Y16100D03*
X13155Y26053D03*
X13250Y21050D03*
X13300Y19300D03*
X13350Y15600D03*
X13400Y17450D03*
Y17950D03*
X13522Y2700D03*
X13600Y26053D03*
X14300Y19150D03*
X14480Y22296D03*
X14850Y3800D03*
X15160Y21823D03*
X15178Y11603D02*
X14800Y11981D01*
Y14150*
X13350Y15600*
X15178Y11603D03*
X15191Y3182D03*
X15600Y16550D03*
X15765Y3350D03*
X16300Y7700D03*
Y20500D03*
X16500Y6150D03*
X16900Y22400D03*
X17200Y21200D03*
Y22400D03*
X17350Y23300D03*
X17450Y18550D03*
X17500Y20500D03*
Y21200D03*
X17649Y19106D03*
X17650Y23300D03*
X17700Y18550D03*
X17706Y4395D03*
X17784Y2530D03*
X17830Y3873D03*
X17950Y14300D03*
X18000Y11440D03*
X18600Y7600D03*
Y7850D03*
X18700Y21100D03*
X18765Y19465D03*
X18795Y11130D03*
X18850Y23300D03*
X18854Y14345D03*
X18950Y3350D03*
Y4350D03*
X18988Y19277D03*
X19050Y9100D03*
Y9350D03*
Y9600D03*
Y9850D03*
X19134Y14345D03*
X19150Y12050D03*
Y23300D03*
X19350Y9100D03*
Y9350D03*
Y9600D03*
Y9850D03*
Y10100D03*
X19419Y18966D03*
X19534Y19199D03*
X19550Y11200D03*
X19694Y14345D03*
Y15875D03*
X19730Y26962D03*
X19898Y4815D03*
Y5130D03*
Y5445D03*
X19950Y12080D03*
X20254Y15125D03*
X20350Y12650D03*
X20528Y5130D03*
Y5445D03*
X20534Y17406D03*
X20544Y17796D03*
X20843Y4815D03*
Y6390D03*
X20850Y650D03*
X21147Y16246D03*
X21158Y4815D03*
Y5445D03*
Y6075D03*
X21402Y13202D03*
X21456Y15351D03*
X21788Y5445D03*
X21800Y21000D02*
Y20900D01*
X22900Y19800*
Y17351*
X22691Y17142*
X21800Y21100D03*
Y21000D01*
X21845Y20039D03*
Y19759D03*
X22103Y5445D03*
X22382Y17142D03*
X22417Y3870D03*
Y4185D03*
X22691Y17142D03*
X22733Y4815D03*
X23000Y14455D03*
X23050Y3350D03*
Y4350D03*
X23375Y12361D03*
Y12641D03*
Y12939D03*
X23600Y25300D03*
X23623Y17440D03*
X23693Y27000D03*
X23765Y12641D03*
X23926Y16545D03*
X24008Y27000D03*
X24100Y25300D03*
X24155Y12641D03*
Y12921D03*
Y13201D03*
X24235Y15948D03*
Y14455D03*
Y17440D03*
X24544D03*
X24550Y14450D03*
X24800Y23600D03*
X24853Y13858D03*
X24906Y10961D03*
Y11241D03*
Y11521D03*
Y11801D03*
Y12361D03*
Y12641D03*
Y15875D03*
X25000Y21800D03*
X25050Y800D03*
Y1600D03*
Y2400D03*
Y2800D03*
Y3200D03*
X25186Y17406D03*
Y16175D02*
X24906Y15875D01*
X25186Y16655D02*
Y16175D01*
Y16655D03*
Y13204D03*
Y13594D03*
X25276Y12921D03*
X25296Y18359D03*
X25450Y28200D03*
X25466Y13595D03*
X25506Y13204D03*
X25600Y23600D03*
X25686Y12641D03*
X25700Y800D03*
Y2400D03*
Y2800D03*
Y3200D03*
Y4400D03*
X25733Y20734D03*
X25756Y13595D03*
X25786Y13204D03*
X25900Y23000D03*
X26026Y18576D03*
Y12424D03*
Y12814D03*
Y13204D03*
Y13595D03*
X26076Y11241D03*
Y11801D03*
Y12081D03*
X26100Y26500D03*
X26306Y13594D03*
Y18576D03*
Y16265D03*
X26466Y10895D03*
Y11175D03*
Y11455D03*
X26586Y17796D03*
Y18576D03*
X26780Y11508D03*
X26788Y11121D03*
X26866Y17796D03*
Y18576D03*
X26874Y16649D03*
X26882Y18191D03*
X26976Y10902D03*
X27146Y15112D03*
Y18186D03*
X27450Y26500D03*
X27650Y28200D03*
X27700Y3350D03*
Y4350D03*
X28300Y15500D03*
Y16450D03*
X28333Y3870D03*
Y4185D03*
X28600Y18050D03*
Y21800D03*
X28644Y18303D03*
X28648Y4815D03*
Y5130D03*
Y5445D03*
X28892Y16770D03*
X28900Y23350D03*
X28963Y5760D03*
X29150Y23000D03*
X29278Y5130D03*
Y5445D03*
X29593Y4815D03*
Y5445D03*
X29677Y25300D03*
X29800Y16050D03*
Y17250D02*
X29550Y17000D01*
Y15200*
X29700Y15050*
X29900*
X30100Y14850*
X29800Y17250D03*
Y18450D02*
X29550Y18200D01*
Y17500*
X29800Y17250*
Y18450D03*
Y21800D03*
X29908Y4815D03*
Y5445D03*
X30100Y14850D02*
Y14057D01*
X31776Y12381*
X33351*
X34110Y11621*
Y11027*
X30100Y14850D03*
Y17250D03*
Y17650D03*
Y18050D03*
X30150Y24850D02*
Y22550D01*
X29800Y22200*
Y21800*
X30150Y24850D03*
X30199Y21149D03*
X30226Y21777D03*
X30307Y27000D03*
X30538Y5445D03*
X30540Y21882D03*
X30559Y14830D03*
X30592Y21664D03*
X30622Y27000D03*
X30800Y14800D03*
X30853Y5445D03*
X30950Y27000D03*
Y28200D03*
X31250Y25300D02*
X30800Y24850D01*
X30150*
X31250Y25300D03*
X31252Y26498D03*
Y27000D03*
X31483Y5445D03*
X31800Y3350D03*
Y4350D03*
X33798Y11650D03*
X33800Y12400D03*
X33807Y11349D03*
X33809Y11136D03*
X33980Y10897D03*
X34110Y11027D02*
X33980Y10897D01*
X35659Y2155D03*
X35937Y7673D03*
X36210Y2521D03*
X36257Y7232D02*
X36504Y6986D01*
Y5354*
X36210Y5060*
Y2521*
X36257Y7232D03*
G54D12*
X9200Y14050D02*
X9000Y14250D01*
Y14450*
X9075Y14525*
Y15325*
X9350Y15600*
Y16200*
X9600Y16450*
Y19050*
X10350Y19800*
Y20550*
X10850Y21050*
X12450*
X11800Y6000D02*
X12012Y6212D01*
Y11224*
X12520Y11733*
Y15049*
X13375Y15904*
Y16437*
X13400Y16462*
Y17450*
X12750Y21050D02*
X12550Y20850D01*
X12350*
X12300Y20900*
X10900*
X10500Y20500*
Y19750*
X9750Y19000*
Y16400*
X9500Y16150*
Y15550*
X9200Y15250*
Y14350*
X17500Y21200D02*
Y21100D01*
X17750Y20850*
Y20650D02*
X17200Y21200D01*
X17750Y20850D02*
X18350Y20250D01*
Y19337*
X18787Y19210D02*
X18476D01*
X18350Y19337*
X19534Y19199D02*
X19593Y19140D01*
Y18880*
X19513Y18800*
X18650*
X18200Y19250*
Y20200*
X17750Y20650*
G54D13*
X19419Y18966D02*
X19263Y19121D01*
X18892*
X18856Y19158*
X18803Y19210*
X18787*
G54D14*
X1450Y24375D02*
X1590D01*
X1629Y24415*
X1450Y24597D02*
X1590D01*
X1613Y24574*
X1466Y24109D02*
X1450Y24125D01*
X1497Y23950D02*
X1450Y23903D01*
X1613Y24574D02*
X2333D01*
X2607Y24848*
X3162*
X1629Y24415D02*
X2399D01*
X2673Y24689*
X3162*
X3211Y24640*
X3350*
X3162Y24848D02*
X3211Y24896D01*
X3350*
X3253Y23457D02*
X2568D01*
X2075Y23950*
X1497*
X3319Y23616D02*
X2634D01*
X2141Y24109*
X1466*
X3350Y23360D02*
X3253Y23457D01*
X3350Y23616D02*
X3319D01*
X17491Y23159D02*
X17350Y23300D01*
X17650Y23225D02*
Y23300D01*
X18266Y21000D02*
Y21509D01*
X17491Y22284*
Y23159*
X18425Y21000D02*
Y21575D01*
X17650Y22350*
Y23225*
X18765Y19465D02*
X18777D01*
X18784Y19471*
X18507Y19748*
Y20619*
X18266Y20859*
Y21000*
X18850Y23300D02*
Y22475D01*
X19800Y21525*
Y21000*
X18988Y19277D02*
Y19482D01*
X18657Y19814*
Y20693*
X18425Y20925*
Y21000*
X19009Y23261D02*
Y22541D01*
X19959Y21591*
Y21000*
X19150Y23300D02*
X19048D01*
X19009Y23261*
X20395Y17545D02*
X20500Y17440D01*
X20395Y17545D02*
Y20155D01*
X19800Y20750*
Y21000*
X20500Y17440D02*
X20534Y17406D01*
X20500Y20275D02*
X19959Y20816D01*
Y21000*
X20533Y20242D02*
X20500Y20275D01*
X20544Y17796D02*
X20533Y17807D01*
Y20242*
X21241Y21250D02*
Y20134D01*
X21616Y19759*
X21845*
Y20039D02*
Y19964D01*
X21799Y19918*
X21682*
X21400Y20200*
Y21250*
X23600Y25300D02*
X23700Y25200D01*
Y25124*
X23292Y24716*
Y24278*
X22741Y23727*
Y22741*
X22150Y22150*
X21850*
X21241Y21541*
Y21250*
X23859Y25215D02*
Y25058D01*
X23451Y24650*
Y24212*
X22900Y23661*
Y22675*
X22216Y21991*
X21916*
X21400Y21475*
Y21250*
X24100Y25300D02*
X24093Y25293D01*
X23937*
X23859Y25215*
G54D15*
X2571Y16323D02*
X2766D01*
X3501Y17059*
X2750Y17809*
X2580*
X5550Y4000D02*
X5800Y4250D01*
Y5500*
X5150Y6150*
Y9700*
X4750Y10100*
X7100Y19650D02*
X6650Y19200D01*
Y14800*
X4500Y12650*
Y10350*
X4250Y10100*
X8350Y5400D02*
X8700Y5750D01*
Y7100*
X8600Y7200*
Y9500*
X8850Y9750*
X9250Y27000D02*
X9800Y26450D01*
X12423Y3800D02*
Y3617D01*
X12660Y3380*
X14628*
X15120Y3872*
Y5269*
X16001Y6150*
X16500*
X13250Y21050D02*
X13050Y21250D01*
X10650*
X9700Y20300*
Y19450*
X9450Y19200*
Y16600*
X9300Y16450*
X13400Y17950D02*
Y19200D01*
X13300Y19300*
X14691Y22506D02*
Y23016D01*
X11257Y26450*
X9800*
X14691Y22506D02*
X14480Y22296D01*
X14846Y5269D02*
Y3800D01*
X14850*
X15191Y3182D02*
X15895D01*
X16750Y4037*
Y4650*
X17250Y5150*
Y9375*
X17750Y9875*
Y10000*
X15600Y16550D02*
X15400Y16750D01*
Y18336*
X14586Y19150*
X14300*
X15765Y3350D02*
X15131D01*
X14936Y3155*
Y2984*
X14652Y2700*
X13522*
X16300Y7700D02*
Y9950D01*
X16850Y10500*
Y12200*
X17381Y12731*
X17750*
X16900Y22400D02*
X16800Y22300D01*
Y19750*
X17700Y18850*
Y18550*
X17649Y19106D02*
Y19299D01*
X16950Y19998*
Y22150*
X17200Y22400*
X17750Y10000D02*
Y11756D01*
X18700Y12706*
Y14190*
X18854Y14345*
X17750Y11888D02*
X17786Y11924D01*
X18600Y12738*
Y14288*
X18796Y14485*
X19554*
X19694Y14345*
X17750Y11888D02*
X17667Y11805D01*
X17441*
X17150Y11514*
Y5998*
X15950Y4798*
Y4059*
X15338Y3446*
X15051*
X14778Y3174*
X10075*
X9813Y3436*
Y3660*
Y3800*
X17750Y12038D02*
X18500Y12788D01*
Y14598*
X18823Y14921*
X20050*
X20079Y14950*
X17750Y12038D02*
X17638Y11925D01*
X17407*
X17050Y11568*
Y6122*
X16034Y5106*
X15680*
X15430Y4856*
Y4006*
X14687Y3262*
X11304*
X11118Y3448*
Y4050*
X17750Y12600D02*
X18063D01*
X18400Y12937*
Y14869*
X18796Y15265*
X20312*
X20394Y15183*
Y14930*
Y14540*
Y14287*
X20311Y14203*
X19276*
X19134Y14345*
X17750Y12600D02*
X17527D01*
X16950Y12023*
Y7373*
X14846Y5269*
X17750Y19736D02*
X17755D01*
X17850Y19641*
Y18950*
X18250Y18550*
Y12900*
X18081Y12731*
X17750*
Y19736D02*
X17471D01*
X17344Y19863*
Y20344*
X17500Y20500*
X18600Y7600D02*
X19450D01*
X21850Y10000*
X18600Y7850D02*
X19500D01*
X21650Y10000*
X19898Y4815D02*
X20038D01*
X20084Y4768*
Y4697*
X20131Y4650*
X20198*
X20244Y4697*
Y4818*
X20291Y4865*
X20358*
X20404Y4818*
Y4697*
X20451Y4650*
X20518*
X20564Y4697*
Y4818*
X20722Y4976*
X22500*
X19898Y5445D02*
Y5561D01*
X20069Y5733*
Y6769*
X20050Y5283D02*
X19898Y5130D01*
X20069Y6769D02*
X20300Y7000D01*
X20079Y14950D02*
X20254Y15125D01*
X20300Y7000D02*
X20482Y7182D01*
Y7432*
X20529Y7479*
X20595*
X20654Y7420*
X20720*
X20767Y7467*
Y7533*
X20708Y7592*
Y7658*
X20755Y7705*
X20822*
X20880Y7647*
X20947*
X20993Y7693*
Y7760*
X20935Y7818*
Y7885*
X20982Y7932*
X21048*
X21107Y7873*
X21173*
X21220Y7920*
Y7986*
X21161Y8045*
Y8111*
X21208Y8158*
X21274*
X21333Y8099*
X21399*
X21446Y8146*
Y8212*
X21387Y8271*
Y8337*
X21434Y8384*
X21500*
X21559Y8325*
X21625*
X21672Y8372*
Y8439*
X21614Y8497*
Y8564*
X21660Y8610*
X21727*
X21785Y8552*
X21852*
X22212Y8912*
Y8979*
X22154Y9037*
Y9104*
X22201Y9151*
X22267*
X22326Y9092*
X22392*
X23050Y9750*
X20359Y5677D02*
X20283Y5600D01*
X20169*
X20050Y5481*
Y5283*
X20600Y7000D02*
X20555Y6955D01*
Y6888*
X20613Y6830*
Y6763*
X20359Y6509*
Y5677*
X20600Y7000D02*
X20601Y7001D01*
X20668*
X20669Y7000*
X20776Y6893*
X20843*
X20890Y6940*
Y7000*
Y7006*
X20781Y7115*
Y7171*
X20821Y7211*
X20877*
X20986Y7103*
X21052*
X21007Y7308D02*
Y7407D01*
X21054Y7454*
X21120*
X21179Y7395*
X21245*
X21292Y7442*
Y7508*
X21233Y7567*
Y7633*
X21280Y7680*
X21347*
X21405Y7622*
X21472*
X21518Y7668*
Y7735*
X21460Y7793*
Y7860*
X21507Y7907*
X21573*
X21632Y7848*
X21698*
X21745Y7895*
Y7961*
X21686Y8020*
Y8086*
X21733Y8133*
X21799*
X21858Y8074*
X21924*
X21971Y8121*
Y8187*
X21912Y8246*
Y8312*
X21959Y8359*
X22025*
X22084Y8300*
X22150*
X22197Y8347*
Y8414*
X22139Y8472*
Y8539*
X22185Y8585*
X22252*
X22310Y8527*
X22377*
X22650Y8800*
Y8866*
X22591Y8925*
Y8991*
X22638Y9038*
X22704*
X22763Y8979*
X22829*
X22876Y9026*
Y9092*
X22817Y9151*
Y9217*
X22864Y9264*
X22930*
X22989Y9205*
X23055*
X23102Y9252*
Y9319*
X23044Y9377*
Y9444*
X23090Y9490*
X23157*
X23215Y9432*
X23282*
X23350Y9500*
Y9750*
X21052Y7103D02*
X21099Y7150D01*
Y7216*
X21007Y7308*
X21158Y5445D02*
Y5343D01*
X21200Y5300*
X22500*
X21158Y6075D02*
X21000Y6233D01*
Y6450*
X21138Y6588*
X21205*
X21438Y6355*
X21505*
X21552Y6402*
Y6468*
X21318Y6702*
Y6768*
X21365Y6815*
X21431*
X21665Y6581*
X21731*
X21778Y6628*
Y6694*
X21544Y6928*
Y6994*
X21550Y7000*
X21300D02*
X20843Y6543D01*
Y6390*
X21550Y7000D02*
X21591Y7041D01*
X21657*
X21650Y10000D02*
X22950Y11300D01*
Y12215*
X21657Y7041D02*
X21698Y7000D01*
X21891Y6807*
X21727Y7611D02*
X21661D01*
X21614Y7564*
Y7498*
X21673Y7439*
Y7373*
X21626Y7326*
X21560*
X21501Y7385*
X21435*
X21388Y7338*
Y7272*
X21447Y7213*
Y7147*
X21300Y7000*
X21786Y7552D02*
X21727Y7611D01*
X21850Y10000D02*
X23100Y11250D01*
Y12085*
X23375Y12361*
X21852Y7552D02*
X21786D01*
X21891Y6807D02*
X21957D01*
X22004Y6854*
Y6920*
X21924Y7000*
X21899Y7599D02*
X21852Y7552D01*
X21924Y7000D02*
X21770Y7154D01*
Y7220*
X21817Y7267*
X21884*
X22117Y7034*
X22184*
X22230Y7080*
Y7147*
X21997Y7380*
Y7447*
X22044Y7494*
X22110*
X22344Y7260*
X22410*
X22457Y7307*
Y7373*
X22223Y7607*
Y7673*
X23650Y9100*
Y9750*
X21950Y5608D02*
X21788Y5445D01*
X22500Y4976D02*
X22626D01*
X22733Y5083*
Y5183*
X22800Y5250*
X23750*
X23798Y5298*
Y6048*
X23840Y6090*
X24390*
X24600Y6300*
Y8200*
X24870Y8470*
Y9750*
X22500Y5300D02*
X22600D01*
X22700Y5400*
X23600*
X23650Y5450*
Y6150*
X23731Y6231*
X24331*
X24470Y6370*
Y8240*
X24750Y8520*
Y8710*
X24703Y8756*
X24517*
X24470Y8803*
Y8870*
X24517Y8916*
X24703*
X24750Y8963*
Y9030*
X24703Y9076*
X24517*
X24470Y9123*
Y9190*
X24517Y9236*
X24703*
X24750Y9283*
Y9350*
X24703Y9396*
X24517*
X24470Y9443*
Y9510*
X24517Y9556*
X24703*
X24750Y9603*
Y9670*
X24703Y9716*
X24517*
X24483Y9750*
X22500Y5600D02*
X22257D01*
X22103Y5445*
X22500Y5900D02*
X22498Y5902D01*
X22044*
X21950Y5808*
Y5608*
X22500Y5900D02*
X22650Y5750D01*
X22850Y16900D02*
Y14605D01*
X23000Y14455*
X22950Y12215D02*
X23375Y12641D01*
X23050Y9750D02*
Y9950D01*
X23200Y10100*
Y10500*
X23515Y10815*
Y11176*
X23150Y20600D02*
Y17081D01*
X23057Y16988*
X22938*
X22850Y16900*
X23345Y9195D02*
X23245D01*
X23198Y9148*
Y9082*
X23257Y9023*
Y8957*
X23210Y8910*
X23144*
X23085Y8969*
X23019*
X22972Y8922*
Y8856*
X23031Y8797*
Y8731*
X22984Y8684*
X22918*
X22859Y8743*
X22793*
X22746Y8696*
Y8629*
X22804Y8571*
Y8504*
X22758Y8458*
X22691*
X22633Y8516*
X22566*
X22519Y8469*
Y8403*
X22578Y8344*
Y8278*
X22531Y8231*
X22465*
X22406Y8290*
X22340*
X22293Y8243*
Y8177*
X22352Y8118*
Y8052*
X22305Y8005*
X22239*
X22180Y8064*
X22114*
X22067Y8017*
Y7951*
X22126Y7892*
Y7826*
X22079Y7779*
X22012*
X21954Y7837*
X21887*
X21841Y7791*
Y7724*
X21899Y7666*
Y7599*
X23350Y9750D02*
Y10450D01*
X23625Y10725*
Y12500*
X23765Y12641*
X23375Y12939D02*
X23384Y12930D01*
X23565*
X23600Y12895*
X23415Y12799D02*
X23301D01*
X23200Y12900*
Y13050*
X23351Y13201*
X24155*
X23500Y9350D02*
X23345Y9195D01*
X23500Y9750D02*
Y9350D01*
X23503Y7630D02*
X23543Y7590D01*
X23515Y11176D02*
Y11325D01*
Y12699*
X23415Y12799*
X23543Y7590D02*
X23938D01*
X24000Y7528*
Y7462*
X23953Y7415*
X23540*
X23500Y7375*
Y7295*
X23540Y7255*
X23953*
X24000Y7208*
Y7142*
X23953Y7095*
X23540*
X23500Y7055*
Y6975*
X23540Y6935*
X23953*
X24000Y6888*
Y6831*
X23960Y6791*
X23540*
X23500Y6751*
Y6690*
X23540Y6650*
X23710*
X23750Y6610*
Y6511*
X23710Y6471*
X23421*
X23350Y6400*
Y5790*
X23310Y5750*
X22650*
X23550Y21000D02*
X23150Y20600D01*
X23600Y12895D02*
X23709Y12786D01*
X23818*
X23650Y9750D02*
Y10350D01*
X24000Y10700*
Y12485*
X24155Y12641*
X23818Y12786D02*
X23905Y12699D01*
Y10805*
X23500Y10400*
Y9750*
X23926Y21000D02*
Y16545D01*
X24155Y12921D02*
X24679D01*
X24205Y9750D02*
Y8355D01*
X24000Y8150*
Y7800*
X23950Y7750*
X23550*
X23503Y7703*
Y7630*
X24300Y21750D02*
X23550Y21000D01*
X24300Y21750D02*
X24370Y21820D01*
Y23289*
X24538Y23458*
X24658*
X24800Y23600*
X24350Y9750D02*
Y8140D01*
X24303Y8093*
X24197*
X24150Y8047*
Y7980*
X24197Y7933*
X24303*
X24350Y7887*
Y7820*
X24303Y7773*
X24197*
X24150Y7727*
Y7660*
X24197Y7613*
X24303*
X24350Y7567*
Y7500*
X24303Y7453*
X24197*
X24150Y7407*
Y7340*
X24197Y7293*
X24303*
X24350Y7247*
Y7180*
X24303Y7133*
X24197*
X24150Y7087*
Y7020*
X24197Y6973*
X24303*
X24350Y6927*
Y6860*
X24303Y6813*
X24197*
X24150Y6767*
Y6700*
X24197Y6653*
X24303*
X24350Y6607*
Y6450*
X24251Y6351*
X23601*
X23500Y6250*
Y5650*
X23450Y5600*
X22500*
X24450Y21550D02*
X23926Y21026D01*
Y21000*
X24483Y9750D02*
X24470Y9763D01*
Y9830*
X24517Y9876*
X24703*
X24750Y9923*
Y10700*
X24686Y10764*
Y11286*
X24906Y11506*
Y11521*
X24600Y11227D02*
Y10400D01*
X24350Y10150*
Y9750*
X24600Y11373D02*
Y11227D01*
X24679Y12921D02*
X24806Y12794D01*
X24766Y10884D02*
Y11101D01*
X24906Y11241*
X24870Y9750D02*
Y10780D01*
X24766Y10884*
X24906Y10961D02*
X24990Y10876D01*
X24906Y11801D02*
X24751D01*
X24500Y11550*
Y10500*
X24205Y10205*
Y9750*
X24961Y11661D02*
X24811D01*
X24600Y11450*
Y11373*
X24961Y11661D02*
X24964D01*
X25050Y11747*
Y12697*
X24967Y12781*
X24819*
X24806Y12794*
X24990Y9750D02*
Y8390D01*
X24720Y8120*
Y6220*
X24211Y5711*
X23965*
X23918Y5664*
Y5598*
X23965Y5551*
X24061*
X24108Y5504*
Y5438*
X24061Y5391*
X23965*
X23918Y5344*
Y5278*
X23965Y5231*
X24056*
X24096Y5191*
Y4597*
X24049Y4550*
X23983*
X23936Y4597*
Y4868*
X23889Y4915*
X23823*
X23776Y4868*
Y4547*
X23729Y4500*
X23663*
X23616Y4547*
Y5018*
X23569Y5065*
X23503*
X23456Y5018*
Y4547*
X23409Y4500*
X23343*
X23296Y4547*
Y4868*
X23249Y4915*
X23183*
X23136Y4868*
Y4597*
X23089Y4550*
X23023*
X22976Y4597*
Y4768*
X22929Y4815*
X22733*
X24990Y10876D02*
Y9750D01*
X25300Y23600D02*
X24450Y22750D01*
Y21550*
X25303Y13204D02*
X25186D01*
X25431Y10750D02*
X25437Y10757D01*
Y12392*
X25686Y12641*
X25466Y13595D02*
Y13666D01*
X25850Y14050*
X27650*
X27900Y13800*
X28250*
X25500Y18564D02*
X25296Y18359D01*
X25500Y18564D02*
Y21000D01*
X25454Y21046*
Y22554*
X25900Y23000*
X25544Y10856D02*
Y11868D01*
X25617Y11941*
X25936*
X26076Y12081*
X25553Y12954D02*
X25303Y13204D01*
X25600Y10800D02*
X25544Y10856D01*
X25600Y23600D02*
X25300D01*
X25728Y13064D02*
X25646Y13146D01*
X25728Y13064D02*
X27102D01*
X27915Y12250*
X28250*
X25733Y20734D02*
X25885Y20581D01*
X25750Y10697D02*
Y10822D01*
X25828Y10900*
Y11553*
X26076Y11801*
X25756Y13595D02*
Y13456D01*
X25646Y13346*
Y13154*
Y13146*
X25850Y12350D02*
Y12700D01*
X25750Y12800*
X25594*
X25334Y13061*
X25091*
X25046Y13106*
Y13454*
X25186Y13594*
X25885Y20581D02*
Y18304D01*
X26166Y18024*
Y17895*
Y17030*
X26446Y16750*
X25897Y10747D02*
X25927Y10777D01*
Y11092*
X26076Y11241*
X26026Y12424D02*
X26105D01*
X26026Y12674D02*
Y12814D01*
Y13595D02*
X26281Y13850D01*
X26100Y26500D02*
X26426Y26174D01*
Y23976*
X26570Y23832*
Y21000*
X26216Y10797D02*
Y11416D01*
X26281Y13850D02*
X27450D01*
X27800Y13500*
X28250*
X26306Y13594D02*
X26446Y13735D01*
X27415*
X27800Y13350*
X28250*
X26379Y12150D02*
X26600D01*
X26867Y11883*
X27217*
X27550Y11550*
X26379Y12150D02*
X26105Y12424D01*
X26446Y16750D02*
Y16405D01*
X26306Y16265*
X26446Y17738D02*
X26528Y17656D01*
X26446Y17738D02*
Y18768D01*
X26441Y18773*
Y20447*
X26570Y20576*
Y21000*
X26466Y11175D02*
X26591Y11300D01*
X26524Y11035D02*
X26408D01*
X26326Y11117*
Y11315*
X26466Y11455*
X26528Y17656D02*
X26726D01*
X26866Y17796*
X26533Y12250D02*
X26446Y12337D01*
Y12482*
X26364Y12564*
X26136*
X26026Y12674*
X26586Y18576D02*
X26721Y18711D01*
Y19386*
X26531Y19576*
Y20222*
X27151Y20842*
Y21000*
X26591Y11300D02*
X26806D01*
X27000Y11106*
X26606Y10794D02*
Y10953D01*
X26524Y11035*
X26780Y11508D02*
X26688Y11600D01*
X26400*
X26216Y11416*
X26882Y18191D02*
X27091Y18400D01*
X27200*
X27370Y18570*
Y20379*
X27482Y20491*
Y21000*
X27141Y12659D02*
X26263D01*
X26166Y12756*
Y12872*
X26084Y12954*
X25553*
X27141Y12659D02*
X27750Y12050D01*
X28200*
X28250Y12000*
X27151Y21000D02*
Y24301D01*
X27945Y25095*
Y25445*
X27300Y21000D02*
Y20690D01*
X26648Y20037*
Y19729*
X26872Y19505*
Y19186*
X27001Y19057*
Y18711*
X26866Y18576*
X27900Y6742D02*
X27750Y6892D01*
Y7015*
X27790Y7055*
X27853*
X27900Y7102*
Y7168*
X27853Y7215*
X27747*
X27700Y7262*
Y7328*
X27747Y7375*
X27853*
X27900Y7422*
Y7488*
X27853Y7535*
X27747*
X27700Y7582*
Y7648*
X27747Y7695*
X27853*
X27900Y7742*
Y7808*
X27853Y7855*
X27747*
X27700Y7902*
Y7968*
X27747Y8015*
X27853*
X27900Y8062*
Y8128*
X27853Y8175*
X27747*
X27700Y8222*
Y8288*
X27747Y8335*
X27853*
X27900Y8382*
Y8448*
X27853Y8495*
X27747*
X27700Y8542*
Y8608*
X27747Y8655*
X27853*
X27900Y8702*
Y8768*
X27853Y8815*
X27747*
X27700Y8862*
Y8928*
X27747Y8975*
X27853*
X27900Y9022*
Y9088*
X27853Y9135*
X27747*
X27700Y9182*
Y9248*
X27747Y9295*
X27853*
X27900Y9342*
Y9408*
X27853Y9455*
X27747*
X27700Y9502*
Y9568*
X27900Y9768*
Y10400*
Y10634*
X26534Y12000*
X26356*
X26128Y12228*
X25972*
X25850Y12350*
X27945Y25445D02*
X28800Y26300D01*
X28050Y21000D02*
Y20750D01*
X27450Y20150*
Y18490*
X27146Y18186*
X28175Y10675D02*
X27550Y11300D01*
Y11550*
X28200Y21000D02*
Y20700D01*
X27550Y20050*
Y18350*
X27200Y18000*
X26790*
X26586Y17796*
X28250Y4700D02*
X28275Y4674D01*
X28507*
X28648Y4815*
X28250Y4700D02*
X27900Y5050D01*
Y6742*
X28250Y5000D02*
X28260Y4990D01*
X29680*
X29765Y5075*
Y5273*
X29593Y5445*
X28250Y5000D02*
X28100Y5150D01*
Y6792*
X28250Y6942*
X28300Y6992*
Y7000*
X28250Y11750D02*
X28100Y11900D01*
X27550*
X27200Y12250*
X26533*
X28250D02*
X28300D01*
X28550Y12000*
X29150*
X29400Y11750*
Y9232*
X29750Y8882*
Y8807*
X29697Y8755*
X29453*
X28250Y13350D02*
X28700D01*
X30700Y11350*
Y11255*
X28250Y13500D02*
X28750D01*
X30880Y11370*
Y9825*
X28250Y13650D02*
X27850D01*
X27550Y13950*
X25900*
X25606Y13656*
Y13506*
X25506Y13406*
Y13204*
X28250Y13800D02*
X28850D01*
X31150Y11500*
Y7050*
X31200Y7000*
X28250Y15550D02*
X28300Y15500D01*
X28250Y16500D02*
X28150Y16600D01*
Y19700*
X28250Y19800*
X28504Y20054*
X28562*
X28717Y19899*
X28757*
X28884Y20026*
Y20082*
X28749Y20217*
Y20257*
X28867Y20376*
X28921*
X29093Y20204*
X29148*
X29247Y20303*
Y20358*
X29085Y20521*
Y20602*
X29397Y20915*
X29479*
X29539Y20856*
X29696*
X29802Y20961*
X30011*
X30199Y21149*
X28250Y20150D02*
X27850Y19750D01*
Y18100*
X27750Y18000*
Y16050*
X28250Y15550*
Y20150D02*
X29150Y21050D01*
Y23000*
X28250Y20350D02*
X27750Y19850D01*
Y18150*
X27500Y17900*
Y15467*
X27146Y15112*
X28250Y20603D02*
X27630Y19983D01*
Y18244*
X27314Y17929*
Y16942*
X27197Y16824*
X27050*
X26874Y16649*
X28250Y20603D02*
X28396Y20749D01*
Y21596*
X28600Y21800*
X28300Y7000D02*
Y7058D01*
X28253Y7105*
X28166*
X28137Y7133*
Y7237*
X28166Y7265*
X28253*
X28300Y7312*
Y7378*
X28253Y7425*
X28147*
X28100Y7472*
Y7538*
X28147Y7585*
X28253*
X28300Y7632*
Y7698*
X28253Y7745*
X28147*
X28100Y7792*
Y7858*
X28147Y7905*
X28253*
X28300Y7952*
Y8018*
X28253Y8065*
X28147*
X28100Y8112*
Y8178*
X28147Y8225*
X28253*
X28300Y8272*
Y8338*
X28253Y8385*
X28147*
X28100Y8432*
Y8498*
X28147Y8545*
X28253*
X28300Y8592*
Y8658*
X28253Y8705*
X28147*
X28100Y8752*
Y8818*
X28147Y8865*
X28253*
X28300Y8912*
Y8978*
X28253Y9025*
X28147*
X28100Y9072*
Y9138*
X28147Y9185*
X28253*
X28300Y9232*
Y9298*
X28253Y9345*
X28147*
X28100Y9392*
Y9458*
X28147Y9505*
X28255*
X28300Y9550*
Y10550*
X28175Y10675*
X28300Y16450D02*
X28250Y16500D01*
X28500Y7238D02*
X28547Y7285D01*
X28500Y7558D02*
X28547Y7605D01*
X28500Y7878D02*
X28547Y7925D01*
X28500Y8198D02*
X28547Y8245D01*
X28500Y8518D02*
X28547Y8565D01*
X28500Y8838D02*
X28547Y8885D01*
X28500Y9158D02*
X28547Y9205D01*
X28500Y9478D02*
X28547Y9525D01*
X28500Y9798D02*
X28547Y9845D01*
X28500Y10118D02*
X28547Y10165D01*
X28500Y10438D02*
X28547Y10485D01*
Y7285D02*
X28703D01*
X28750Y7332*
Y7398*
X28547Y7605D02*
X28703D01*
X28750Y7652*
Y7718*
X28547Y7925D02*
X28703D01*
X28750Y7972*
Y8038*
X28547Y8245D02*
X28703D01*
X28750Y8292*
Y8358*
X28547Y8565D02*
X28703D01*
X28750Y8612*
Y8678*
X28547Y8885D02*
X28703D01*
X28750Y8932*
Y8998*
X28547Y9205D02*
X28703D01*
X28750Y9252*
Y9318*
X28547Y9525D02*
X28703D01*
X28750Y9572*
Y9638*
X28547Y9845D02*
X28703D01*
X28750Y9892*
Y9958*
X28547Y10165D02*
X28703D01*
X28750Y10212*
Y10278*
X28547Y10485D02*
X28703D01*
X28750Y10532*
Y10598*
X28600Y18050D02*
X28449Y17899D01*
Y16591*
X28690Y16350*
X28600Y21800D02*
Y23350D01*
X28800Y23550*
X29000*
X29677Y24227*
Y25300*
X28644Y18303D02*
X28971D01*
X29200Y18074*
Y14700*
X31659Y12241*
X33208*
X33798Y11650*
X28648Y5130D02*
X28500Y5278D01*
Y6762*
X28738Y7000*
X28648Y5445D02*
X28800Y5598D01*
Y6450*
X29200Y6850*
Y6963*
X29163Y7000*
X28703Y7125D02*
X28547D01*
X28500Y7172*
Y7238*
X28703Y7445D02*
X28547D01*
X28500Y7492*
Y7558*
X28703Y7765D02*
X28547D01*
X28500Y7812*
Y7878*
X28703Y8085D02*
X28547D01*
X28500Y8132*
Y8198*
X28703Y8405D02*
X28547D01*
X28500Y8452*
Y8518*
X28703Y8725D02*
X28547D01*
X28500Y8772*
Y8838*
X28703Y9045D02*
X28547D01*
X28500Y9092*
Y9158*
X28703Y9365D02*
X28547D01*
X28500Y9412*
Y9478*
X28703Y9685D02*
X28547D01*
X28500Y9732*
Y9798*
X28703Y10005D02*
X28547D01*
X28500Y10052*
Y10118*
X28703Y10325D02*
X28547D01*
X28500Y10372*
Y10438*
X28703Y10645D02*
X28547D01*
X28500Y10692*
Y11500*
X28250Y11750*
X28738Y7000D02*
X28750Y7012D01*
Y7078*
X28703Y7125*
X28750Y7398D02*
X28703Y7445D01*
X28750Y7718D02*
X28703Y7765D01*
X28750Y8038D02*
X28703Y8085D01*
X28750Y8358D02*
X28703Y8405D01*
X28750Y8678D02*
X28703Y8725D01*
X28750Y8998D02*
X28703Y9045D01*
X28750Y9318D02*
X28703Y9365D01*
X28750Y9638D02*
X28703Y9685D01*
X28750Y9958D02*
X28703Y10005D01*
X28750Y10278D02*
X28703Y10325D01*
X28750Y10598D02*
X28703Y10645D01*
X28750Y15750D02*
Y16290D01*
X28690Y16350*
X28892Y16770D02*
X29050Y16612D01*
Y14650*
X31650Y12050*
X32350*
X32538Y11862*
X33294*
X33807Y11349*
X28900Y23350D02*
X28750Y23200D01*
Y20850*
X28250Y20350*
X29163Y7000D02*
X29153Y7010D01*
X28947*
X28900Y7057*
Y7123*
X28947Y7170*
X29153*
X29200Y7217*
Y7283*
X29153Y7330*
X28947*
X28900Y7377*
Y7443*
X28947Y7490*
X29153*
X29200Y7537*
Y7603*
X29153Y7650*
X28947*
X28900Y7697*
Y7763*
X28947Y7810*
X29153*
X29200Y7857*
Y7923*
X29153Y7970*
X28947*
X28900Y8017*
Y8083*
X28947Y8130*
X29153*
X29200Y8177*
Y8243*
X29153Y8290*
X28947*
X28900Y8337*
Y8403*
X28947Y8450*
X29153*
X29200Y8497*
Y8563*
X29153Y8610*
X28947*
X28900Y8657*
Y8723*
X28947Y8770*
X29153*
X29200Y8817*
Y8883*
X29153Y8930*
X28947*
X28900Y8977*
Y9043*
X28947Y9090*
X29153*
X29200Y9137*
Y10200*
X28900Y10500*
Y11350*
X28250Y12000*
X29400Y7622D02*
Y7547D01*
X29453Y7495*
X29697*
X29400Y7982D02*
Y7907D01*
X29453Y7855*
X29697*
X29400Y8342D02*
Y8267D01*
X29453Y8215*
X29697*
X29400Y8702D02*
Y8627D01*
X29453Y8575*
X29697*
X29453Y7675D02*
X29400Y7622D01*
X29453Y8035D02*
X29400Y7982D01*
X29453Y8395D02*
X29400Y8342D01*
X29453Y8755D02*
X29400Y8702D01*
X29697Y7135D02*
X29750Y7082D01*
X29697Y7495D02*
X29750Y7442D01*
X29697Y7855D02*
X29750Y7802D01*
X29697Y8215D02*
X29750Y8162D01*
X29697Y8575D02*
X29750Y8522D01*
X29743Y7000D02*
X28963Y6220D01*
Y5760*
X29750Y7082D02*
Y7007D01*
X29743Y7000*
X29750Y7442D02*
Y7367D01*
X29697Y7315*
X29445*
X29400Y7270*
Y7180*
X29445Y7135*
X29697*
X29750Y7802D02*
Y7727D01*
X29697Y7675*
X29453*
X29750Y8162D02*
Y8087D01*
X29697Y8035*
X29453*
X29750Y8522D02*
Y8447D01*
X29697Y8395*
X29453*
X29800Y16050D02*
X29950Y16200D01*
Y18821*
X29893Y18877*
X29796*
X29768Y18906*
Y19125*
X29796Y19153*
X29949*
X30011Y19215*
Y19367*
X29954Y19424*
X29862*
X29834Y19452*
Y19737*
X29862Y19765*
X29954*
X30011Y19821*
Y20763*
X30339Y21091*
Y21664*
X30226Y21777*
X30100Y17250D02*
X30350Y17000D01*
Y14314*
X30100Y17650D02*
X30517D01*
X30800Y17933*
Y18158*
X30828Y18186*
X30900*
X30928Y18214*
Y18495*
X30900Y18523*
X30828*
X30800Y18551*
Y21483*
X30620Y21664*
X30592*
X30100Y18050D02*
X30298Y18248D01*
Y20410*
X30441Y20554*
Y21783*
X30307Y27000D02*
Y26812D01*
X30150Y26655*
Y26422*
X30027Y26300*
X28800*
X30386Y7000D02*
Y5924D01*
X29908Y5445*
X30400Y10415D02*
X30435Y10380D01*
X30400Y10655D02*
X30435Y10620D01*
X30400Y10895D02*
X30435Y10860D01*
X30400Y11135D02*
X30435Y11100D01*
Y10260D02*
X30386Y10211D01*
Y7000*
X30435Y10380D02*
X30665D01*
X30700Y10345*
Y10295*
X30435Y10620D02*
X30665D01*
X30700Y10585*
Y10535*
X30435Y10860D02*
X30665D01*
X30700Y10825*
Y10775*
X30435Y11100D02*
X30665D01*
X30700Y11065*
Y11015*
X30441Y21783D02*
X30540Y21882D01*
X30622Y27000D02*
X30772Y27150D01*
X31050*
X31107Y27093*
Y26607*
X30500Y26000*
X29500*
X29200Y25700*
Y24600*
X28300Y23700*
Y22150*
X28050Y21900*
Y21000*
X30654Y25900D02*
X29850D01*
X29518Y25568*
Y24718*
X28450Y23650*
Y22091*
X28200Y21841*
Y21000*
X30665Y10260D02*
X30435D01*
X30665Y10500D02*
X30435D01*
X30400Y10465*
Y10415*
X30665Y10740D02*
X30435D01*
X30400Y10705*
Y10655*
X30665Y10980D02*
X30435D01*
X30400Y10945*
Y10895*
X30665Y11220D02*
X30435D01*
X30400Y11185*
Y11135*
X30700Y7000D02*
Y6600D01*
X30850Y6450*
Y6050*
X30700Y5900*
Y5608*
X30538Y5445*
X30700Y8265D02*
X30735Y8230D01*
X30700Y8505D02*
X30735Y8470D01*
X30700Y8745D02*
X30735Y8710D01*
X30700Y8985D02*
X30735Y8950D01*
X30700Y9225D02*
X30735Y9190D01*
X30700Y9465D02*
X30735Y9430D01*
X30700Y9705D02*
X30735Y9670D01*
X30700Y10295D02*
X30665Y10260D01*
X30700Y10535D02*
X30665Y10500D01*
X30700Y10775D02*
X30665Y10740D01*
X30700Y11015D02*
X30665Y10980D01*
X30700Y11255D02*
X30665Y11220D01*
X30735Y8230D02*
X30845D01*
X30880Y8195*
Y8145*
X30735Y8470D02*
X30845D01*
X30880Y8435*
Y8385*
X30735Y8710D02*
X30845D01*
X30880Y8675*
Y8625*
X30735Y8950D02*
X30845D01*
X30880Y8915*
Y8865*
X30735Y9190D02*
X30845D01*
X30880Y9155*
Y9105*
X30735Y9430D02*
X30845D01*
X30880Y9395*
Y9345*
X30735Y9670D02*
X30845D01*
X30880Y9635*
Y9585*
X30845Y8110D02*
X30735D01*
X30700Y8075*
Y7000*
X30845Y8350D02*
X30735D01*
X30700Y8315*
Y8265*
X30845Y8590D02*
X30735D01*
X30700Y8555*
Y8505*
X30845Y8830D02*
X30735D01*
X30700Y8795*
Y8745*
X30845Y9070D02*
X30735D01*
X30700Y9035*
Y8985*
X30845Y9310D02*
X30735D01*
X30700Y9275*
Y9225*
X30845Y9550D02*
X30735D01*
X30700Y9515*
Y9465*
X30845Y9790D02*
X30735D01*
X30700Y9755*
Y9705*
X30850Y6910D02*
Y6960D01*
X30885Y6995*
X30965*
X30850Y7150D02*
Y7200D01*
X30885Y7235*
X30965*
X30850Y7390D02*
Y7440D01*
X30885Y7475*
X30965*
X30850Y7630D02*
Y7680D01*
X30885Y7715*
X30965*
X30850Y7870D02*
Y7920D01*
X30885Y7955*
X30965*
X30853Y5445D02*
X31000Y5593D01*
Y6840*
X30965Y6875*
X30885*
X30880Y8145D02*
X30845Y8110D01*
X30880Y8385D02*
X30845Y8350D01*
X30880Y8625D02*
X30845Y8590D01*
X30880Y8865D02*
X30845Y8830D01*
X30880Y9105D02*
X30845Y9070D01*
X30880Y9345D02*
X30845Y9310D01*
X30880Y9585D02*
X30845Y9550D01*
X30880Y9825D02*
X30845Y9790D01*
X30885Y6875D02*
X30850Y6910D01*
X30885Y7115D02*
X30850Y7150D01*
X30885Y7355D02*
X30850Y7390D01*
X30885Y7595D02*
X30850Y7630D01*
X30885Y7835D02*
X30850Y7870D01*
X30950Y27000D02*
Y26575D01*
X30475Y26100*
X29400*
X28900Y25600*
Y24550*
X28150Y23800*
Y22397*
X27482Y21730*
Y21000*
X30965Y6995D02*
X30970Y7000D01*
X30965Y7235D02*
X31000Y7270D01*
X30965Y7475D02*
X31000Y7510D01*
X30965Y7715D02*
X31000Y7750D01*
X30965Y7955D02*
X31000Y7990D01*
X30970Y7000D02*
X31000Y7030D01*
Y7080*
X30965Y7115*
X30885*
X31000Y7270D02*
Y7320D01*
X30965Y7355*
X30885*
X31000Y7510D02*
Y7560D01*
X30965Y7595*
X30885*
X31000Y7750D02*
Y7800D01*
X30965Y7835*
X30885*
X31000Y7990D02*
Y11450D01*
X28800Y13650*
X28250*
X31160Y27240D02*
X30590D01*
X30477Y27127*
Y26395*
X30283Y26200*
X28950*
X28250Y25500*
Y24150*
X28000Y23900*
Y22571*
X27300Y21871*
Y21000*
X31160Y27240D02*
X31252Y27148D01*
X31200Y7000D02*
X31250Y6950D01*
X31483Y6718*
Y5445*
X31252Y26498D02*
X30654Y25900D01*
X31252Y27000D02*
Y27148D01*
X33800Y12400D02*
X33594Y12606D01*
X32340*
X30946Y14000*
X30664*
X30350Y14314*
X33809Y11136D02*
X33165D01*
X32834Y11467*
X31721*
X31600Y11588*
Y11900*
X28750Y14750*
Y15750*
X35937Y7673D02*
X34742Y6477D01*
Y3351*
X35659Y2433*
Y2155*
G54D16*
X18950Y3350D02*
X18998Y3398D01*
X19500*
X22500*
X19500Y3710D02*
X19440D01*
X18950Y4200*
Y4350*
X21158Y4815D02*
X21485D01*
X21674Y4626*
X22500*
X22417Y3870D02*
X22260Y4028D01*
X21765*
X21550Y4243*
Y4450*
X21347Y4653*
X21005*
X20843Y4815*
X22500Y3398D02*
X23002D01*
X23050Y3350*
X22500Y3710D02*
X19500D01*
X22500Y4268D02*
X22417Y4185D01*
X22500Y4626D02*
X22585Y4541D01*
Y4353*
X22500Y4268*
X23050Y4350D02*
Y4200D01*
X22560Y3710*
X22500*
X25050Y800D02*
X25650Y1400D01*
X26050*
X26600Y1950*
Y2224*
X26776Y2400*
X27000*
X27200Y2600*
Y9750*
X25050Y2400D02*
X24898Y2248D01*
Y1937*
X24987Y1848*
X25198*
X25503Y2153*
X25798*
X25900Y2050*
X26150*
X26300Y2200*
Y2516*
X26800Y3016*
Y3134*
X26648Y3287*
Y3448*
X26900Y3700*
Y4034*
X26648Y4287*
Y4413*
X26800Y4566*
Y4834*
X26648Y4987*
Y5148*
X26900Y5400*
Y5634*
X26648Y5887*
Y6013*
X26800Y6166*
Y6334*
X26648Y6487*
Y6648*
X26900Y6900*
Y9650*
X26800Y9750*
X25050Y2800D02*
X24800D01*
X24700Y2900*
Y3335*
X24765Y3400*
X25235*
X25300Y3465*
Y3735*
X25235Y3800*
X24765*
X24700Y3865*
Y4135*
X24765Y4200*
X25235*
X25300Y4265*
Y4535*
X25235Y4600*
X24765*
X24700Y4665*
Y4935*
X24765Y5000*
X25200*
X25300Y5100*
Y6700*
X25600Y7000*
Y9750*
X25050Y3200D02*
X25250Y3000D01*
X26200*
X26350Y3150*
Y6800*
X26491Y6941*
Y7067*
X26350Y7208*
Y7300*
X26400Y7350*
X26550*
X26600Y7400*
Y7481*
X26543Y7538*
X26407*
X25100Y7443D02*
X25157Y7500D01*
X25141Y9750D02*
Y8413D01*
X24900Y8171*
Y6166*
X24298Y5563*
Y2913*
X22034Y650*
X20850*
X25157Y7500D02*
X25373D01*
X25276Y12921D02*
X25274D01*
X25141Y12788*
Y9750*
X25373Y7500D02*
X25431Y7558D01*
Y7638*
X25373Y7695*
X25157*
X25100Y7753*
Y7833*
X25431Y8164*
Y9750*
Y10750*
X25600Y9750D02*
Y10800D01*
X25700Y2400D02*
X25300D01*
X25100Y2600*
X24657*
X24500Y2757*
Y5000*
X25100Y5600*
Y6837*
X25431Y7168*
Y7248*
X25373Y7305*
X25157*
X25100Y7363*
Y7443*
X25700Y3200D02*
X25500Y3400D01*
Y6380*
X25708Y6588*
X25993*
X25700Y5752D02*
X25757Y5695D01*
X25750Y6840D02*
Y6921D01*
X25807Y6978*
X25993*
X25750Y7230D02*
Y7311D01*
X25807Y7368*
X25993*
X25750Y7620D02*
Y7701D01*
X25807Y7758*
X25993*
X25750Y8010D02*
Y8091D01*
X25807Y8148*
X25993*
X25750Y8400D02*
Y8481D01*
X25807Y8538*
X25993*
X25750Y8790D02*
Y8871D01*
X25807Y8928*
X25993*
X25750Y9180D02*
Y9261D01*
X25807Y9318*
X25993*
X25757Y5695D02*
X26143D01*
X26200Y5638*
Y5557*
X25785Y9750D02*
X25750Y9785D01*
Y10697*
X25807Y6783D02*
X25750Y6840D01*
X25807Y7173D02*
X25750Y7230D01*
X25807Y7563D02*
X25750Y7620D01*
X25807Y7953D02*
X25750Y8010D01*
X25807Y8343D02*
X25750Y8400D01*
X25807Y8733D02*
X25750Y8790D01*
X25807Y9123D02*
X25750Y9180D01*
X25897Y10747D02*
Y9903D01*
X26050Y9750*
X25900Y4582D02*
X25957Y4525D01*
X25900Y4972D02*
X25957Y4915D01*
X25900Y5362D02*
X25957Y5305D01*
Y4525D02*
X26143D01*
X26200Y4468*
Y3265*
X26135Y3200*
X25965*
X25900Y3265*
Y4200*
X25700Y4400*
X25957Y4915D02*
X26143D01*
X26200Y4858*
Y4777*
X25957Y5305D02*
X26143D01*
X26200Y5248*
Y5167*
X25993Y6588D02*
X26050Y6645D01*
X25993Y6978D02*
X26050Y7035D01*
X25993Y7368D02*
X26050Y7425D01*
X25993Y7758D02*
X26050Y7815D01*
X25993Y8148D02*
X26050Y8205D01*
X25993Y8538D02*
X26050Y8595D01*
X25993Y8928D02*
X26050Y8985D01*
X25993Y9318D02*
X26050Y9375D01*
Y6645D02*
Y6726D01*
X25993Y6783*
X25807*
X26050Y7035D02*
Y7116D01*
X25993Y7173*
X25807*
X26050Y7425D02*
Y7506D01*
X25993Y7563*
X25807*
X26050Y7815D02*
Y7896D01*
X25993Y7953*
X25807*
X26050Y8205D02*
Y8286D01*
X25993Y8343*
X25807*
X26050Y8595D02*
Y8676D01*
X25993Y8733*
X25807*
X26050Y8985D02*
Y9066D01*
X25993Y9123*
X25807*
X26050Y9375D02*
Y9485D01*
X25785Y9750*
X26050D02*
X26200Y9600D01*
Y6348*
X26143Y6291*
X25757*
X25700Y6234*
Y6153*
X25757Y6096*
X26143*
X26200Y6039*
Y5947*
X26143Y4720D02*
X25957D01*
X25900Y4663*
Y4582*
X26143Y5110D02*
X25957D01*
X25900Y5053*
Y4972*
X26143Y5500D02*
X25957D01*
X25900Y5443*
Y5362*
X26143Y5890D02*
X25757D01*
X25700Y5833*
Y5752*
X26200Y4777D02*
X26143Y4720D01*
X26200Y5167D02*
X26143Y5110D01*
X26200Y5557D02*
X26143Y5500D01*
X26200Y5947D02*
X26143Y5890D01*
X26300Y9750D02*
X26202Y9848D01*
Y10783*
X26216Y10797*
X26350Y7595D02*
Y7676D01*
X26407Y7733*
X26543*
X26350Y7985D02*
Y8066D01*
X26407Y8123*
X26543*
X26350Y8375D02*
Y8456D01*
X26407Y8513*
X26543*
X26350Y8765D02*
Y8846D01*
X26407Y8903*
X26543*
X26350Y9155D02*
Y9236D01*
X26407Y9293*
X26543*
X26350Y10779D02*
Y10650D01*
X26400Y10600*
X26500*
X26550Y10550*
Y10400*
X26350Y10200*
Y9950*
X26550Y9750*
X26407Y7538D02*
X26350Y7595D01*
X26407Y7928D02*
X26350Y7985D01*
X26407Y8318D02*
X26350Y8375D01*
X26407Y8708D02*
X26350Y8765D01*
X26407Y9098D02*
X26350Y9155D01*
X26466Y10895D02*
X26350Y10779D01*
X26543Y7733D02*
X26600Y7790D01*
X26543Y8123D02*
X26600Y8180D01*
X26543Y8513D02*
X26600Y8570D01*
X26543Y8903D02*
X26600Y8960D01*
X26543Y9293D02*
X26600Y9350D01*
X26550Y9750D02*
X26755Y9545D01*
Y6960*
X26503Y6708*
Y6427*
X26633Y6296*
Y6204*
X26503Y6073*
Y5715*
X26568Y5650*
X26679*
X26755Y5574*
Y5460*
X26697Y5403*
X26568*
X26503Y5338*
Y4905*
X26650Y4757*
Y4643*
X26503Y4495*
Y4065*
X26568Y4000*
X26700*
X26755Y3945*
Y3760*
X26697Y3703*
X26568*
X26503Y3638*
Y3227*
X26600Y3129*
Y3021*
X26429Y2850*
X26086*
X26021Y2785*
Y2679*
X26150Y2550*
Y2260*
X26090Y2200*
X25965*
X25900Y2265*
Y2500*
X25800Y2600*
X25315*
X25250Y2665*
Y2785*
X25315Y2850*
X25650*
X25700Y2800*
X26600Y7790D02*
Y7871D01*
X26543Y7928*
X26407*
X26600Y8180D02*
Y8261D01*
X26543Y8318*
X26407*
X26600Y8570D02*
Y8651D01*
X26543Y8708*
X26407*
X26600Y8960D02*
Y9041D01*
X26543Y9098*
X26407*
X26600Y9350D02*
Y9450D01*
X26300Y9750*
X26788Y11121D02*
Y10812D01*
X27039Y10561*
Y10410*
X26842Y10213*
Y9958*
X27045Y9755*
Y9750*
X26800D02*
X26527Y10023D01*
Y10177*
X26700Y10350*
Y10700*
X26606Y10794*
X27000Y11106D02*
X27350Y10756D01*
Y9850*
X27045Y9750D02*
Y6840D01*
X26953Y6747*
Y6602*
X27050Y6505*
Y6407*
X26953Y6310*
Y6212*
X27050Y6115*
Y6017*
X26953Y5920*
Y5787*
X27045Y5694*
Y5340*
X26953Y5247*
Y5132*
X27055Y5030*
Y4937*
X26953Y4835*
Y4742*
X27055Y4640*
Y4547*
X26953Y4445*
Y4248*
X27045Y4155*
Y3640*
X26953Y3547*
Y3432*
X27055Y3330*
Y3237*
X26953Y3135*
Y3042*
X27055Y2940*
Y2710*
X26895Y2550*
X26600*
X26450Y2400*
Y2050*
X26050Y1650*
X25900*
X25750Y1800*
X25465*
X25400Y1735*
Y1418*
X25335Y1353*
X24965*
X24900Y1418*
Y1535*
X24965Y1600*
X25050*
X27200Y9750D02*
Y10678D01*
X26976Y10902*
X27350Y9850D02*
Y2450D01*
X25700Y800*
X27700Y3350D02*
X27748Y3398D01*
X28250*
X31250*
X28250Y3710D02*
X28190D01*
X27700Y4200*
Y4350*
X28250Y3953D02*
X28333Y3870D01*
X28250Y4318D02*
X28180Y4248D01*
Y4023*
X28250Y3953*
X28432Y4500D02*
X28250Y4318D01*
X28486Y4338D02*
X28333Y4185D01*
X29116Y4264D02*
X29042Y4338D01*
X28486*
X29593Y4815D02*
X29215D01*
X28900Y4500*
X28432*
X29908Y4815D02*
X29746Y4653D01*
X29522*
X29350Y4481*
Y4358*
X29256Y4264*
X29116*
X31250Y3398D02*
X31752D01*
X31800Y3350*
X31250Y3710D02*
X28250D01*
X31800Y4350D02*
Y4200D01*
X31310Y3710*
X31250*
G54D17*
X20528Y5445D02*
Y5612D01*
X20713Y5798*
X21482*
X22155Y6470*
X22500*
X20752Y5703D02*
X20670Y5620D01*
Y5273*
X20528Y5130*
X20752Y5703D02*
X21522D01*
X22195Y6375*
X22500*
X22700*
X22795Y6470*
Y6645*
X22905Y6755*
X23142*
X22500Y6470D02*
X22661D01*
X22700Y6510*
Y6684*
X22866Y6850*
X23103*
X22666Y7618D02*
X23243Y7041D01*
X22790Y7742D02*
X22727D01*
X22666Y7682*
Y7618*
X22962Y7570D02*
X22790Y7742D01*
X22972Y7968D02*
X23133Y7807D01*
X22972Y8122D02*
Y7968D01*
X23080Y8230D02*
X22972Y8122D01*
X23103Y6850D02*
X23148Y6895D01*
Y7002*
X22571Y7579*
Y7721*
X22687Y7837*
X22830*
X23002Y7665*
X23065*
X23133Y7733*
Y7807*
X23142Y6755D02*
X23194Y8135*
X23119D01*
X23067Y8082*
Y8008*
X23228Y7847*
Y7693*
X23105Y7570*
X22962*
X23233Y8230D02*
X23080D01*
X23243Y6856D02*
X23142Y6755D01*
X23243Y7041D02*
Y6856D01*
X23355Y7974D02*
X23194Y8135D01*
X23360Y8357D02*
X23522Y8196D01*
X23360Y8510D02*
Y8357D01*
X23394Y8069D02*
X23233Y8230D01*
X23469Y8619D02*
X23360Y8510D01*
X23508Y7974D02*
X23355D01*
X23522Y8196D02*
Y8122D01*
X23469Y8069*
X23394*
X23583Y8524D02*
X23508D01*
X23455Y8471*
Y8397*
X23617Y8235*
Y8082*
X23508Y7974*
X23622Y8619D02*
X23469D01*
X23693Y27000D02*
X23778Y26915D01*
X23744Y8363D02*
X23583Y8524D01*
X23778Y26915D02*
Y26722D01*
X25250Y25250*
Y24250*
X26093Y23407*
Y21000*
X23783Y8458D02*
X23622Y8619D01*
X23897Y8363D02*
X23744D01*
X23923Y26915D02*
Y26782D01*
X25395Y25310*
Y24310*
X26238Y23467*
Y21000*
X23950Y8550D02*
X23858Y8458D01*
X23783*
X23950Y9750D02*
Y8550D01*
X23960Y9840D02*
X23950Y9830D01*
Y9750*
X24008Y27000D02*
X23923Y26915D01*
X24045Y8511D02*
X23897Y8363D01*
X24045Y8511D02*
Y9750*
Y8511D01*
Y9805D02*
Y9750D01*
X24298Y11873D02*
Y10693D01*
X23960Y10354*
Y9840*
X24383Y11838D02*
Y10658D01*
X24045Y10319*
Y9805*
X24906Y12361D02*
X24383Y11838D01*
X24906Y12641D02*
X24805Y12540D01*
Y12467*
X24719Y12381*
Y12303*
X24298Y11882*
Y11873*
X25786Y13204D02*
X26026Y13445D01*
X26008Y13286D02*
Y13222D01*
X26026Y13204*
Y13445D02*
X27276D01*
X27726Y12995*
X28250*
X26073Y13350D02*
X26008Y13286D01*
X26093Y21000D02*
Y18643D01*
X26026Y18576*
X26238Y21000D02*
Y18643D01*
X26306Y18576*
X28250Y12900D02*
X27679D01*
X27229Y13350*
X26073*
X29150Y5680D02*
X29180Y5710D01*
X29290*
X29320Y5740*
Y5800*
X29288Y5832*
X29178*
X29146Y5864*
Y5927*
X29179Y5960*
X29295*
X29325Y5990*
Y6311*
X29607Y6593*
X29793*
X30050Y6850*
Y7000*
X29278Y5130D02*
X29420Y5273D01*
Y6272*
X29646Y6498*
X29833*
X29278Y5445D02*
X29281D01*
X29320Y5484*
Y5560*
X29290Y5590*
X29175*
X29150Y5615*
Y5680*
X29700Y9341D02*
Y9494D01*
X29808Y9602*
X29997*
X30050Y9655*
Y9730*
X29700Y9891D02*
Y10044D01*
X29808Y10152*
X29997*
X30050Y10205*
Y10280*
X29700Y10441D02*
Y10594D01*
X29808Y10702*
X29997*
X30050Y10755*
Y10830*
X29700Y10991D02*
Y11144D01*
X29808Y11252*
X29997*
X30050Y11305*
X29795Y9455D02*
X29848Y9507D01*
X29795Y10005D02*
X29848Y10057D01*
X29795Y10555D02*
X29848Y10607D01*
X29795Y11105D02*
X29848Y11157D01*
X29808Y9232D02*
X29700Y9341D01*
X29808Y9782D02*
X29700Y9891D01*
X29808Y10332D02*
X29700Y10441D01*
X29808Y10882D02*
X29700Y10991D01*
X29833Y6498D02*
X30000Y6666D01*
X29848Y9507D02*
X30037D01*
X29848Y10057D02*
X30037D01*
X29848Y10607D02*
X30037D01*
X29848Y11157D02*
X30037D01*
X29997Y9232D02*
X29808D01*
X29997Y9782D02*
X29808D01*
X29997Y10332D02*
X29808D01*
X29997Y10882D02*
X29808D01*
X30000Y6666D02*
X30145Y6811D01*
Y7000*
X30037Y9507D02*
X30145Y9616D01*
X30037Y10057D02*
X30145Y10166D01*
X30037Y10607D02*
X30145Y10716D01*
X30037Y11157D02*
X30145Y11266D01*
X30050Y7000D02*
Y9180D01*
X29997Y9232*
X30050Y9730D02*
X29997Y9782D01*
X30050Y10280D02*
X29997Y10332D01*
X30050Y10830D02*
X29997Y10882D01*
X30050Y11305D02*
Y11605D01*
X28755Y12900*
X28250*
X30145Y7000D02*
Y9219D01*
X30037Y9327*
X29848*
X29795Y9380*
Y9455*
X30145Y9616D02*
Y9769D01*
X30037Y9877*
X29848*
X29795Y9930*
Y10005*
X30145Y10166D02*
Y10319D01*
X30037Y10427*
X29848*
X29795Y10480*
Y10555*
X30145Y10716D02*
Y10869D01*
X30037Y10977*
X29848*
X29795Y11030*
Y11105*
X30145Y11266D02*
Y11644D01*
X28794Y12995*
X28250*
G54D18*
X10300Y18200D02*
X10050Y17950D01*
Y16300*
X9950Y16200*
Y15400*
X9500Y14950*
Y11250*
X9300Y11050*
Y7800*
X10350Y6750*
X11050*
X10450Y9150D02*
X9650Y9950D01*
Y10850*
X9850Y11050*
Y14800*
X10250Y15200*
Y16050*
X10350Y16150*
Y17750*
X10400Y17800*
X10950Y17750D02*
Y18450D01*
X10700Y18700*
X11200Y10900D02*
X10700Y11400D01*
Y14750*
X10550Y14900*
Y15900*
X10650Y16000*
Y17450*
X10700Y17500*
X11200Y11500D02*
X11750D01*
X12000Y11750*
Y16350*
X12673Y17023*
Y17527*
X12400Y17800*
Y19350*
X11950Y19800*
X11633*
X11466Y19966*
X11200Y15000D02*
X11400Y15200D01*
Y16850*
X11650Y17100*
Y19270*
X11470Y19450*
X11000*
X10800Y19650*
X12850Y16100D02*
Y16400D01*
X13050Y16600*
Y17650*
X12750Y17950*
Y19850*
X12050Y20550*
X11400*
X11100Y20250*
G54D19*
X1450Y23903D02*
X1497Y23950D01*
X1516*
X1450Y24125D02*
X1466Y24109D01*
X1450Y24375D02*
X1530D01*
X1450Y24597D02*
X1530D01*
X2571Y16323D02*
X2651D01*
X2580Y17809D02*
X2660D01*
X3350Y23360D02*
X3293Y23417D01*
X3350Y23616D02*
X3319D01*
X3350Y24640D02*
X3270D01*
X3501Y17059D02*
X3445Y17115D01*
X3501Y17059D02*
X3445Y17002D01*
X4250Y10100D02*
X4307Y10157D01*
X4750Y10100D02*
X4807Y10043D01*
X5550Y4000D02*
X5607Y4057D01*
X7100Y19650D02*
X7043Y19593D01*
X8350Y5400D02*
X8407Y5457D01*
X8850Y9750D02*
X8793Y9693D01*
X9200Y14050D02*
X9143Y14107D01*
X9200Y14350D02*
Y14430D01*
X9300Y16450D02*
X9357Y16507D01*
X9813Y3800D02*
Y3720D01*
X11118Y4050D02*
Y3970D01*
X11800Y6000D02*
X11857Y6057D01*
X12423Y3800D02*
Y3720D01*
X12450Y21050D02*
X12370D01*
X12750D02*
X12693Y20993D01*
X13250Y21050D02*
X13193Y21107D01*
X13300Y19300D02*
X13357Y19243D01*
X13400Y17450D02*
Y17370D01*
Y17950D02*
Y18030D01*
X14300Y19150D02*
X14380D01*
X14850Y3800D02*
X14846D01*
Y3880*
X15191Y3182D02*
X15271D01*
X15600Y16550D02*
X15543Y16607D01*
X15765Y3350D02*
X15685D01*
X16300Y7700D02*
Y7780D01*
X16500Y6150D02*
X16420D01*
X16900Y22400D02*
X16843Y22343D01*
X17200Y21200D02*
X17257Y21143D01*
X17200Y22400D02*
X17143Y22343D01*
X17350Y23300D02*
X17407Y23243D01*
X17500Y20500D02*
X17443Y20443D01*
X17500Y21200D02*
Y21120D01*
X17649Y19106D02*
Y19186D01*
X17650Y23300D02*
Y23220D01*
X17700Y18550D02*
Y18630D01*
X18600Y7600D02*
X18680D01*
X18600Y7850D02*
X18680D01*
X18765Y19465D02*
X18777D01*
X18784Y19471*
X18721Y19534*
X18850Y23300D02*
Y23220D01*
X18854Y14345D02*
X18798Y14288D01*
X18950Y3350D02*
X18998Y3398D01*
X19016*
X18950Y4350D02*
Y4270D01*
X18988Y19277D02*
Y19357D01*
X19134Y14345D02*
X19191Y14288D01*
X19150Y23300D02*
X19070D01*
X19419Y18966D02*
X19363Y19022D01*
X19534Y19199D02*
X19591Y19143D01*
X19898Y4815D02*
X19978D01*
X19898Y5130D02*
X19954Y5187D01*
X19898Y5445D02*
Y5525D01*
X20254Y15125D02*
X20198Y15068D01*
X20528Y5130D02*
X20584Y5187D01*
X20528Y5445D02*
Y5525D01*
X20534Y17406D02*
X20500Y17440D01*
X20544Y17796D02*
X20533Y17807D01*
Y17876*
X20843Y4815D02*
X20899Y4759D01*
X20843Y6390D02*
Y6470D01*
X20850Y650D02*
X20930D01*
X21158Y4815D02*
X21238D01*
X21158Y5445D02*
Y5365D01*
Y6075D02*
X21101Y6132D01*
X21788Y5445D02*
X21844Y5502D01*
X21845Y20039D02*
Y19964D01*
X21840Y19959*
X22103Y5445D02*
X22159Y5502D01*
X22417Y3870D02*
X22361Y3927D01*
X22417Y4185D02*
X22474Y4242D01*
X22733Y4815D02*
X22813D01*
X23000Y14455D02*
X22943Y14512D01*
X23050Y3350D02*
X23002Y3398D01*
X22984*
X23050Y4350D02*
Y4270D01*
X23375Y12361D02*
X23319Y12304D01*
X23600Y25300D02*
X23657Y25243D01*
X23693Y27000D02*
X23749Y26943D01*
X23765Y12641D02*
X23709Y12584D01*
X23926Y16545D02*
Y16625D01*
X24008Y27000D02*
X23951Y26943D01*
X24100Y25300D02*
X24093Y25293D01*
X24020*
X24155Y12921D02*
X24235D01*
X24155Y13201D02*
X24075D01*
X24800Y23600D02*
X24743Y23543D01*
X24906Y11241D02*
X24849Y11184D01*
X24906Y11521D02*
Y11506D01*
X24856Y11456*
X24906Y11801D02*
X24826D01*
X24906Y12361D02*
X24849Y12304D01*
X24906Y12641D02*
X24849Y12584D01*
X25050Y800D02*
X25107Y857D01*
X25050Y1600D02*
X24970D01*
X25050Y2400D02*
X24993Y2343D01*
X25050Y2800D02*
X24970D01*
X25050Y3200D02*
X25107Y3143D01*
X25186Y13204D02*
X25266D01*
X25186Y13594D02*
X25129Y13538D01*
X25276Y12921D02*
X25274D01*
X25218Y12865*
X25296Y18359D02*
X25352Y18416D01*
X25466Y13595D02*
Y13666D01*
X25475Y13675*
X25506Y13204D02*
Y13284D01*
X25600Y23600D02*
X25520D01*
X25686Y12641D02*
X25629Y12584D01*
X25700Y800D02*
X25757Y857D01*
X25700Y2400D02*
X25620D01*
X25700Y2800D02*
X25650Y2850D01*
X25636*
X25700Y3200D02*
X25643Y3257D01*
X25700Y4400D02*
X25757Y4343D01*
X25733Y20734D02*
X25789Y20677D01*
X25756Y13595D02*
Y13515D01*
X25786Y13204D02*
X25842Y13261D01*
X25900Y23000D02*
X25843Y22943D01*
X26026Y18576D02*
X26082Y18632D01*
X26026Y12424D02*
X26105D01*
X26026Y12814D02*
Y12734D01*
Y13595D02*
X26082Y13652D01*
X26076Y11241D02*
X26019Y11184D01*
X26076Y11801D02*
X26019Y11744D01*
X26076Y12081D02*
X26019Y12024D01*
X26100Y26500D02*
X26157Y26443D01*
X26306Y18576D02*
X26249Y18632D01*
X26306Y16265D02*
X26362Y16322D01*
X26466Y10895D02*
X26409Y10838D01*
X26466Y11455D02*
X26409Y11398D01*
X26586Y17796D02*
X26642Y17852D01*
X26586Y18576D02*
X26642Y18632D01*
X26780Y11508D02*
X26723Y11565D01*
X26788Y11121D02*
Y11041D01*
X26866Y17796D02*
X26809Y17739D01*
X26866Y18576D02*
X26922Y18632D01*
X26874Y16649D02*
X26931Y16705D01*
X26882Y18191D02*
X26939Y18247D01*
X27146Y15112D02*
X27202Y15169D01*
X27146Y18186D02*
X27202Y18242D01*
X27700Y3350D02*
X27748Y3398D01*
X27766*
X27700Y4350D02*
Y4270D01*
X28300Y15500D02*
X28250Y15550D01*
X28300Y16450D02*
X28250Y16500D01*
X28333Y3870D02*
X28276Y3927D01*
X28333Y4185D02*
X28389Y4242D01*
X28600Y18050D02*
X28543Y17993D01*
X28600Y21800D02*
Y21880D01*
Y21800D02*
X28543Y21743D01*
X28644Y18303D02*
X28724D01*
X28648Y4815D02*
X28591Y4759D01*
X28648Y5130D02*
X28591Y5187D01*
X28648Y5445D02*
X28704Y5502D01*
X28892Y16770D02*
X28948Y16714D01*
X28900Y23350D02*
X28843Y23293D01*
X28963Y5760D02*
Y5840D01*
X29150Y23000D02*
Y22920D01*
X29278Y5130D02*
X29334Y5187D01*
X29593Y4815D02*
X29513D01*
X29593Y5445D02*
X29649Y5389D01*
X29677Y25300D02*
Y25220D01*
X29800Y16050D02*
X29857Y16107D01*
X29908Y4815D02*
X29851Y4759D01*
X29908Y5445D02*
X29964Y5502D01*
X30100Y14850D02*
Y14770D01*
Y17250D02*
X30157Y17193D01*
X30100Y17650D02*
X30180D01*
X30100Y18050D02*
X30157Y18107D01*
X30307Y27000D02*
Y26920D01*
X30538Y5445D02*
X30594Y5502D01*
X30592Y21664D02*
X30620D01*
X30663Y21621*
X30622Y27000D02*
X30679Y27057D01*
X30853Y5445D02*
X30909Y5502D01*
X30950Y27000D02*
Y26920D01*
X31252Y26498D02*
X31195Y26441D01*
X31252Y27000D02*
Y27080D01*
X31483Y5445D02*
Y5525D01*
X31800Y3350D02*
X31752Y3398D01*
X31734*
X31800Y4350D02*
Y4270D01*
X33798Y11650D02*
X33742Y11707D01*
X33800Y12400D02*
X33743Y12457D01*
X33809Y11136D02*
X33729D01*
G54D70*
X9250Y27000D03*
G54D71*
X12500Y22750D03*
M02*
