; Version : LOCAL
; Job     : C:\ADI_Projects\Minnowboard\Turbot_F200_X200\PCB\Turbot_F200_X200.pcb
; User    : LEN-ADI-PC:Len
; Date    : Tue Aug 04 10:36:29 2015
; Format  : 2.4 / Absolute / Inch / Trailing
; Contents: Thru / Drill / Plated
M48
INCH,LZ
FMAT,2
ICI,OFF
T01C0.0080
T05C0.0360
T03C0.0380
T08C0.0400
T11C0.0420
T13C0.0620
T04C0.0910
T12C0.1250
T02C0.1560
%
M72
G90
G93X0Y0
T01
X035319Y000615
X034919
X034519
X034119
X02845Y00065
X02785
X02725
X02665
X0257Y0008
X02505
X0241Y00065
X0235
X0229
X0223
X02085
X018946Y00092
X018046
Y00152
X018946
X019583Y00198
X0199Y00105
X020843Y001035
Y00135
Y001665
Y00198
X021158Y001035
Y00135
Y001665
Y00198
X022418
X0226Y0016
X0232
X0238
X02505Y0012
Y0016
X0257Y0012
Y0016
X02695
X02755
X02815
X028333Y00198
X029593Y001035
Y00135
Y001665
Y00198
X029908Y001035
Y00135
Y001665
Y00198
X031168
X036436Y002752
X03621Y002521
X035966Y002282
X035659Y002155
X035185Y00206
X035184Y002331
Y002594
X033415Y002345
Y002695
X033065Y002345
Y002695
X0327Y0022
Y0028
X0318Y0022
Y0028
X031168Y002295
Y00261
Y002925
X029908Y002295
Y00261
Y002925
X029593Y002295
Y00261
Y002925
X028333Y002295
Y00261
Y002925
X0277Y0022
Y0028
X0268Y0022
Y0028
X0257Y002
Y0024
Y0028
X02505Y002
Y0024
Y0028
X02395Y0022
Y0028
X02305Y0022
Y0028
X022418Y002295
Y00261
Y002925
X021158Y002295
Y00261
Y002925
X020843Y002295
Y00261
Y002925
X019583Y002295
Y00261
Y002925
X01895Y0022
Y0028
X01805Y0022
Y0028
X017784Y00253
X01715Y00266
X016893Y002519
X015827Y003
X01565Y002743
X013522Y0027
X012755Y002708
X011685Y002975
X011495Y002793
X01038Y002975
X010252Y002745
X0087Y0028
X0076Y00245
X00685
X0065
X005468Y00287
X00521
X00145Y0032
X00475Y00325
X0052Y003675
X0065Y00325
X006549Y00374
X0074Y00325
X0082Y00365
X009047Y00319
X009498Y0038
X009813
X010188Y003537
X010645Y0038
X01096
X011572Y003565
X012108Y0038
X012423
X012812Y003628
X0135Y00369
X01468Y00302
X01485Y0038
X015191Y003182
X01534Y003711
X015727Y00361
X015765Y00335
X016315Y0038
X01665Y003711
X017162Y003771
X01733Y003899
X01783Y003873
X01805Y00335
Y00375
X01895Y00335
X019583Y00387
X019898
X020843Y00324
Y003555
Y00387
X021158Y00324
Y003555
Y00387
X022102
X022417
X02305Y00335
X02395
X02505Y0032
Y0036
X0257Y0032
Y0036
X0268Y00335
X0277
X028333Y00387
X028648
X029593Y00324
Y003555
Y00387
X029908Y00324
Y003555
Y00387
X030852
X031167
X0318Y00335
X0327
Y00395
X033065Y003045
Y003395
Y003745
X033415Y003045
Y003395
Y003745
X035097Y00331
X035483Y003689
X035835Y003337
X036941Y00308
X037427Y003024
X037837Y003802
X037861Y004757
X037842Y004404
X036537Y004398
X035838Y004059
X035108Y004064
X033415Y004095
X033065
X0327Y00435
X0318
X031168Y0045
X031167Y004185
X030852
X030538Y004815
X029908Y004185
Y0045
Y004815
X029593Y004185
Y0045
Y004815
X028648Y004185
Y004815
X028333Y004185
Y004815
X0277Y00435
X0268
X0257Y004
Y0044
Y0048
X02505Y004
Y0044
Y0048
X02395Y00435
X02305
X022733Y004815
X022418
X022417Y004185
X022102
X021788Y004815
X021158Y004185
Y0045
Y004815
X020843Y004185
Y0045
Y004815
X019898Y004185
Y004815
X019583Y004185
Y004815
X01895Y00435
X01805
X017706Y004395
X017621Y004072
X0174Y00425
X0171
X0164
X016158Y004042
X0161Y00425
X0158Y0045
Y0049
X015793Y0041
X0147Y0044
Y0048
X01409Y004
X01383Y004009
X0138Y0044
Y0048
X012265Y00405
X01195
X0118Y00479
X011118Y00405
X010803
X0104Y0046
X009655Y00405
X00934
X0092Y0043
Y0046
X0087
X0082
X007281Y004144
X0065Y004313
Y004687
X00555Y004
X0054Y0043
Y0046
Y0049
X00437Y0043
Y0046
Y0049
X00405Y0043
Y0046
X003135Y004947
X00145Y0048
X00095Y0057
X00145
X0029Y00585
X00305Y0052
Y00545
Y0057
X003275Y0052
X0035
X00405
Y0058
X00437Y0052
Y0055
Y0058
X0054Y0052
Y0055
X007Y00545
X00735Y0054
X00835
X0087
X0092
X01015
X01125Y0055
X0118Y005
Y0055
Y00575
X0127Y005
Y0055
X0138Y00525
Y0057
X0147Y00525
X0158Y0053
X0161Y00575
X0164
X0171
X0174
X01805Y00505
Y00595
X01895Y00505
Y00595
X019583Y00513
Y005445
Y00576
X019898Y00513
Y005445
Y00576
X020213Y00513
Y005445
Y00576
X020528Y00513
Y005445
X020843Y00513
Y005445
X021158Y00513
Y005445
X021473Y00513
Y005445
X021788Y00513
Y005445
Y00576
X022103Y00513
Y005445
Y00576
X022418Y00513
Y005445
Y00576
X02305Y00505
Y00595
X02395Y00505
Y00595
X02445Y0055
X02475
X02505Y0052
X0257Y0055
X0268Y00505
Y00595
X0277Y00505
Y00595
X028333Y00513
Y005445
Y00576
X028648Y00513
Y005445
Y00576
X028963Y00513
Y005445
Y00576
X029278Y00513
Y005445
X029593Y00513
Y005445
Y005918
X029908Y00513
Y005445
Y005918
X030223Y00513
Y005445
X030538Y00513
Y005445
Y00576
X030853Y00513
Y005445
Y00576
X031168Y00513
Y005445
Y00576
X031483Y005445
X0318Y00505
Y00595
X0327Y00505
X033861Y005181
X034882Y005184
X036142Y005747
X037032Y005116
X038099Y006542
X037738Y006539
X037359Y00653
X035825Y006235
X035429Y006316
X033551Y00697
X033538Y006548
X033532Y006251
X032885Y006534
X032871Y006119
Y006976
X0318Y00655
X031236Y006232
X031168Y006705
X030853
X030538Y00639
X029908Y006233
X029593
X028648Y006075
Y00639
Y006705
X028333Y006075
Y006705
X0277Y00655
X0268
X02395
X02305
X022486Y006232
X022418Y006705
X022103
X021788Y00639
X021158Y006075
Y00639
X020843Y006075
Y00639
X019898Y006075
Y00639
Y006705
X019583Y006075
Y006705
X01895Y00655
X01805
X0179Y00675
X0177Y00615
Y00655
X0168Y00615
Y00645
X0165Y00615
Y00645
X0161Y006
X013463Y0063
X0127
X0118Y006
Y0063
X01105Y00675
X01015Y0061
X0092
X00895
Y00635
Y00665
Y00695
X00835Y00605
Y00665
X0081
X00785
X0076
X00735
X0068
X00655
X0063
X00625Y006
X00605Y00665
X00585Y006
X0058Y00665
X00555
X00425Y00605
Y00695
X004Y00605
Y00695
X0037Y00605
X003Y00645
Y0067
Y00695
X00275Y006
Y00695
X002225Y0062
Y00645
Y0067
Y00695
X002Y0062
X00175Y00605
Y00645
Y0067
Y00695
X00095Y00605
Y00695
X00285Y0074
X00895Y0072
Y00745
Y0078
X01045Y00705
Y00735
Y0078
X0107
X01095
X01105Y00705
X0112Y0078
X01145
X0117
X0129Y0075
Y00785
X016Y0077
X0163Y0074
Y0077
X0177Y0076
Y00785
X0186Y0076
Y00785
X031979Y007516
X032264Y007289
Y007842
X035937Y007673
X036257Y007232
X035866Y008249
X031988Y008142
X0317Y0085
X0223Y0088
X0218
X0183Y00865
Y0089
X0175Y008625
Y008875
X016Y008625
Y008875
X01045Y00855
Y00885
X00895Y0081
Y00855
Y00885
X0068Y00835
Y0086
X00655Y00835
Y0086
X0063Y00835
Y0086
X00605Y00835
Y0086
X0058Y00835
Y0086
X00555Y00835
Y0086
X003Y00805
Y00835
Y00865
Y00895
X0027Y00805
Y00835
Y00865
Y00895
X00765Y00935
X0082Y00905
X00885Y00935
Y00975
X0102Y0099
X01045Y00915
X016Y009125
Y009375
Y009875
X0175Y009125
Y009375
Y009875
X01905Y0091
Y00935
Y0096
Y00985
X01935Y0091
Y00935
Y0096
Y00985
X0215Y0091
X0218
X022Y0098
X02225
X0226
X0229
X0232
X0238
X0317Y009
X032813Y009987
X035128Y009627
X03695Y00965
X036952Y009093
Y009393
X0372Y00965
X037252Y009093
Y009393
X037552Y009093
Y009393
X037852Y009093
Y009393
X038121Y010951
X037164Y010212
X036807Y010782
X036664Y010471
X0351Y01075
X034309Y010293
X03398Y010897
X033683Y010327
X032979Y010804
X0327Y01085
X0318
X02915Y0106
Y0109
X027719Y010387
X027Y0101
X026976Y010902
X02669Y01011
X026466Y010895
X026076Y010961
X02605Y0101
X025686Y010961
X025296
X024906
X0245Y0101
X0238
X023765Y010961
X023375
X02289Y0101
X0226
X02225
X02147
X020314Y010961
X01994Y0101
X019924Y010961
X01935Y0101
X01905
X018281Y010387
X0175Y010125
Y010625
Y010875
X016Y010125
Y010625
Y010875
X01335Y0105
Y01075
X0131Y0105
Y01075
X0112Y0106
Y0109
X01095Y0106
X0107
X01045
X0102Y0103
Y0106
X00995
X009
Y0103
X00795Y010404
Y01065
X0068Y01045
Y0107
X00655Y01045
Y0107
X0063Y01045
Y0107
X00625Y0101
X006
X0058Y01045
Y0107
X00555Y01045
Y0107
X00475Y0101
X00425
X0039
X0036
X00215Y01005
Y0103
Y0108
X00185Y01005
X00155
X00125
Y0103
Y0108
Y01105
X00155
X00185
X00215
X00425Y011
X00475
X00645
Y01125
Y0115
Y01175
X00795Y0111
Y0114
Y01185
X0082Y0114
Y01185
X00895Y0111
Y0114
Y01185
X01045Y0111
Y0114
Y01185
X01095
X0112Y0115
Y01185
X01145
X0117
X0131Y011
X01335
X013725Y0116
X013975
X01425
X0145
X015178Y011603
X016Y011375
Y011625
X0175Y011375
Y011625
X018Y01144
Y01171
X018795Y01113
X019014Y011319
X01955Y0112
X02035Y0115
X022625Y011801
X023375Y011521
Y011801
Y011251
X023765
Y011801
Y011521
X024155Y011241
Y011521
Y011801
X024906Y011241
Y011521
Y011801
X025296
X025686Y011521
Y011801
Y011241
X026076
Y011521
Y011801
X026466Y011175
Y011455
Y011758
X02678Y011508
X026788Y011121
X02699Y011319
X027012Y011723
X027205Y01113
X028Y0111
Y0114
Y01171
X02915Y0112
Y0115
Y0118
X0318Y01125
Y01165
X0327Y01125
Y01165
X03327Y011364
X033798Y01165
X033807Y011349
X033809Y011136
X0347Y01165
X03474Y011304
X0351Y01125
X036337Y011003
X036628Y011002
X036806Y011244
X037242Y011648
X038121Y011351
Y011751
Y012151
X03665Y01215
X0351
X0338Y0124
X033154Y012063
X0327Y01205
X02915Y0122
X02885
Y01255
X0286Y0122
Y01255
X02835
X027962Y012443
X027146Y012814
Y012424
X027141Y012034
X026868Y012424
X026866Y012814
X026586Y012424
Y012814
X026306
Y012424
X026076Y012081
X026026Y012424
Y012814
X025686Y012081
Y012361
Y012641
X025296
X025276Y012921
X024906Y012062
Y012361
Y012641
Y012921
X024155Y012081
Y012641
Y012921
Y012361
X023765
Y012641
Y012081
X023761Y012935
X023375Y012081
Y012361
Y012641
Y012939
X022625Y012081
Y012361
X022235Y01265
Y012081
Y012921
X021094Y012361
X02035Y01265
X01995Y01208
X019694Y012424
X01915Y01205
X018854Y012424
X01795Y01244
Y0129
X0175Y012125
Y012375
Y012875
X016Y012125
Y012375
Y012875
X01335Y01205
Y0123
Y01255
X0131Y01205
Y0123
Y01255
X01045Y0126
Y0129
X00895Y01215
Y0126
Y0129
X00855
X0082Y01215
Y0126
Y0129
X00795Y01215
Y0126
Y0129
X00655Y01275
X00645Y012
X0063Y01275
X00605Y01225
Y01275
X0056Y012
X0031
Y0123
X00225
X00125
X00175Y0132
X0031
X00425
X00605Y01325
Y01355
X0063Y013
Y01325
X00655Y013
Y01325
X01015Y01395
X016Y013125
Y013625
Y013875
X0175Y013125
Y013625
Y013875
X01795Y01315
Y0134
Y0137
Y01397
X018854Y013204
X019974
Y013594
X020254Y013204
X020534
X020814
X021094Y013201
X021402Y013202
X021765Y01356
X023
X023003Y013861
X023309Y013858
X023618
X023926
X024155Y013201
X024229Y013573
X024235Y013858
X024524Y013255
X024544Y013858
X024853
X024904Y013208
X025186Y013204
Y013594
X025466Y013595
X025506Y013204
X025756Y013595
X025786Y013204
X026026
Y013595
X026306Y013594
Y013204
X026586Y013595
Y013204
X026866
Y013594
X027146Y013595
Y013204
X028Y0132
Y013948
X0308Y01385
X03115Y01355
X0322Y0139
X03685Y0142
X03625
X03575Y0144
X03535
X03235Y0141
X0322Y0143
X03115Y01445
Y0148
X0308Y01415
Y0148
X030559Y01483
X0301Y01485
X0298
X0283Y0148
X028
X027146Y014735
X026586Y014345
X026306Y014735
X026026
X024906
X02455Y01445
X024235Y014455
X023926
X023618
X023309
X023
X022691Y014157
Y014455
X021456
X021436Y014754
X021094Y014345
X020814
X020534Y014735
Y014345
X020254Y014735
Y014345
X019974Y014735
Y014345
X019694
Y014735
X019414Y014345
Y014735
X019134Y014345
Y014735
X018854Y014345
X018835Y014735
X01795Y0143
Y01485
X0175Y014375
Y014625
X016Y014375
Y014625
X01335Y01435
Y01465
Y01495
X0131Y01435
Y01465
Y01495
X0112Y01465
X01095
X01035Y014075
Y01465
X01015Y0142
X0101Y01465
X0092Y01405
Y01435
X0089Y0148
X0072
X007203Y015447
X0075Y01545
X0078
X00835
X00865Y0152
Y01545
X0091Y01575
X0108Y01515
Y01575
X01095Y015
Y0153
Y0156
Y01591
X0112Y015
X01225Y0154
X01255
Y01585
X01335Y0156
X013725
X013975
X01435
X0146
X0156Y015875
X016Y015125
Y015375
Y015875
X0175Y015125
Y015375
Y015875
X01795Y0151
Y0155
Y01575
X018854Y015125
Y015875
X019134Y015125
Y015875
X019414Y015125
Y015875
X019694Y015125
Y015875
X019974
Y015125
X020254
Y015875
X020534Y015125
X020814
X021094
X021147Y015649
Y015948
X021456Y015351
Y015649
Y015948
X021459Y01505
X021765Y015052
X022074
Y015351
Y015649
Y015948
X022382Y015052
Y015351
Y015649
Y015948
X022691Y015052
Y015351
Y015948
X023Y015052
Y015351
Y015948
X023309Y015052
Y015351
Y015948
X023618Y015052
Y015351
Y015948
X023926Y015052
Y015351
X024235Y015948
Y015052
Y015351
X024544Y015052
Y015351
X024853Y015345
X024906Y015125
Y015875
X025186Y015125
Y015875
X025466
X025746Y015125
Y015862
X02603Y015874
X026306Y015875
X026586Y015125
Y015875
X0268Y0155
X026866Y015875
X027146Y015112
Y015875
X028Y0155
X0283
Y01585
X0286
X0298Y01525
X0301
X03055Y01565
X0308Y0151
Y0154
X03115Y0157
X0322Y01515
Y01555
X03235Y01535
X03535Y0153
X03575
X03625Y0155
X03685
X0385Y01555
Y01675
X03625Y016
Y0163
X0315Y0162
X03055Y01605
Y01645
X0298Y01605
X0289Y01645
X028892Y01677
X0283Y01645
X028Y01626
X027146Y016265
Y016655
X026874Y016649
X026866Y016265
X026592Y016274
X026586Y016655
X026306Y016265
Y016655
X026026Y016265
Y016655
X025771Y016265
X025766Y016655
X025466Y016265
Y016655
X025186
X024906Y016265
Y016655
X024544Y016545
X024235
X02423Y016843
X023926Y016246
Y016545
X023618Y016246
Y016843
X023309Y016246
Y016843
X023Y016246
Y016843
X022691Y016246
Y016843
X022382Y016246
Y016843
X022074Y016246
X021765
Y016843
X021456Y016246
Y016843
X021147Y016246
Y016545
Y016843
X020283Y016655
X020221Y016246
X019974Y016265
Y016655
X019694
X019414
X019149
X018854
X01795Y01625
Y0166
Y0169
X0175Y016125
X016
Y0168
X0156Y016125
Y01655
Y0168
X01495Y01655
Y0168
X01415Y01615
X01355
X0132
X01285Y0161
X01255
X01095Y01615
X010925Y0168
X0093Y01645
Y0168
X0091Y0163
Y0166
X008482Y016069
Y016932
X007619Y016069
Y016932
X007Y016264
X003999Y016153
X003966Y016683
X003484Y016035
X002571Y016323
X002053Y016835
X001301Y016729
X001042Y016726
X00258Y017809
X002665Y017058
X003492Y017566
X003501Y017059
X004555Y017037
X00705Y01735
X00775Y01755
X0085
X00875
X0093Y0173
Y017525
Y0178
X01065Y01775
X01095Y01745
X011175
X0114
X0119
X012125
X012375
X01315Y01795
X0134Y01745
Y01795
X0143Y0172
Y01745
Y01795
X01495Y0171
X0152Y01755
Y01795
X016Y01755
X01796Y01779
X018854Y017796
Y017406
X019414Y017796
X019694
X019974Y017406
Y017796
X020239
X020254Y017406
X020534
X020544Y017796
X020814Y017406
Y017796
X021094Y017406
Y017799
X021456Y01744
X021765Y017142
Y01744
X022382Y017142
Y01744
Y017739
X022691Y01744
Y017142
X023
X023309Y01744
Y017142
X023375Y017799
X023618Y017142
X023623Y01744
X024235Y017142
Y01744
X024544
X025186Y017406
X025466
Y017796
X025746Y017406
Y017796
X026026Y017406
Y017796
X026306Y017406
Y017796
X026586Y017406
Y017796
X026866Y017406
Y017796
X027146
Y01703
Y017406
X028Y01703
Y0178
X0283Y01703
X0286
X028629Y0174
X028863Y017364
X028865Y017071
X0289Y01765
X0298Y01725
Y01765
X0301Y01725
Y01765
X032Y01845
X0317
X03055Y01895
X0301Y01805
Y01845
X0298Y01805
Y01845
X0289Y01805
Y01845
X028644Y018303
X0286Y01805
Y018625
X0283Y0186
X028
X027146Y018576
Y018186
X027141Y018966
X026882Y018191
X026866Y018576
X026861Y018966
X026586Y018186
Y018576
X026581Y018966
X026306Y018186
Y018576
X026026
X025686Y018359
X025296Y018079
Y018359
Y018639
X023765Y018919
X023375Y018079
Y018359
X022625
Y018639
Y018919
X022235Y018639
X021845Y018359
Y018639
X021094Y018079
Y018639
Y018919
X020704Y018576
X0207Y0181
X019974Y018186
Y018576
X019924Y018966
X019694Y018186
Y018576
X019419Y018966
X019414Y018186
Y018576
X019139Y018966
X019134Y018186
Y018576
X018859Y018966
X018854Y018576
X01795Y01856
X0177Y01855
X01745
X0172
X0163Y01885
X016Y0182
X0143Y01885
X01305Y01845
X01215Y01835
Y01875
X01135Y01835
Y01875
X01045Y0182
Y01845
Y0187
Y01895
X0092Y01875
X00905Y01895
X0089Y01875
X0084
X00825Y01895
X0081Y01875
X0078
X00755
X0073Y0185
X0071Y01875
X004052Y018715
X003999Y018392
X002465Y018293
X002091Y018297
X0005Y018
Y0183
X004562Y019294
X004796Y019803
X0071Y01905
Y01965
X0082Y0194
X0093Y01965
X01045Y019175
X0108Y01965
X01135Y01915
X01215
X0133Y0193
Y01955
X0143Y01915
Y01955
X0152Y01915
X0163
Y01995
X0172Y01915
Y01955
Y01995
X0175
X017649Y019106
X0177Y01955
X01775Y019908
X018Y01955
Y01983
X018038Y019303
X018765Y019465
X0188Y01987
X018988Y019277
X019Y0197
X019147Y01955
X0192Y01985
X019534Y019199
X019535Y019468
X019924Y019199
Y019479
Y019759
X020704Y019199
Y019479
Y019759
X021094
Y019199
Y019479
X021845
Y019759
X022235Y019479
Y019759
X023375Y019479
X024155
X025296Y019199
X025686Y019479
Y019759
Y019199
X026788Y019879
X026986Y019681
X027012Y019277
X027203Y019861
X027222Y019448
X028Y01962
X0298Y01995
X03055Y01945
X031Y0192
X0313
X0316
X03625Y0196
Y0199
X0385Y01915
Y02035
X03745Y02075
X0365
X03555
X03355
X033026Y020979
X03175Y020485
X031475Y020479
X03055Y02025
X0298Y02035
Y02075
X027649Y020572
X02701Y0209
X026976Y020098
X02672Y0209
X02642
X0259
X025733Y020734
X025686Y020039
X025296
X02529Y0209
X02453
X023765Y020039
X02376Y0209
X02224
X022235Y020039
X021845
X02155Y0209
X021094Y020039
X020704
X02065Y0209
X01828Y020613
X0175Y0205
X0172
Y02075
X0163Y0205
X0161Y02015
Y02075
X0152Y02035
Y02075
X0143
X0121Y0201
X0119Y0203
X01175Y0201
X011333
X0111
X01015
X00985
X0093
Y02095
X00855Y0203
X0082Y02095
X0072Y02055
X0063Y02025
X002466Y021191
X002866Y021804
X003637Y021238
X003729Y021657
X005077Y021448
X006692Y02178
X00715Y02125
X007154Y021569
X008325Y0215
X009175
X0103Y02175
X01245Y02105
X01275
X01325
X013537
X01516Y021563
Y021823
X0172Y0212
X0175
X0187Y0211
X0193Y021
X0218Y0211
X024025Y021793
X025Y0218
X0253
X025598Y021795
X0259Y0218
X0278
X0286
X0298Y02115
Y0218
X030199Y021149
X030226Y021777
X03054Y021882
X030592Y021664
X0309Y0218
X03225Y0216
X03355Y02175
X03555Y02125
Y02175
X0365Y02125
Y02175
X0378Y0219
X0368Y0222
X0365
X0362
X0359Y02275
X0312Y0222
X0309
X03055
Y0225
X0302Y0222
X0298Y0226
X028929Y022398
X02889Y022686
Y022952
X027795Y022881
X027781Y022625
X02685Y0222
Y0226
X024953Y022596
X024951Y022207
X024142Y022112
X023299Y022998
X023Y022407
X02219Y022704
X022Y0226
X0218Y0224
Y0228
X01975Y0222
X01835Y0224
X0181
X0178
X0172
X0169
X0161
Y0227
X01516Y022089
Y022349
Y022612
X014551Y02288
X01448Y022296
X013849Y022102
X01055Y02225
Y0225
X0103Y02225
Y0225
X009175Y022
Y0225
X008325Y022
Y0225
X00715
Y02275
X007145Y02225
X006692Y02208
X006588Y022597
X005558Y022725
X005077Y022415
X00507Y022929
X004682Y022936
X004658Y022546
X00335Y022848
X003299Y022156
X002941Y022598
X002874Y022173
X00159Y022267
X00145Y023903
X0017Y023778
X00335Y023104
Y02336
Y023616
Y023872
X005072Y023916
X00665Y023872
X006701Y02326
Y02356
X00715Y02375
X0092Y02345
X01735Y0233
X01765
X0179
X0186
X01885
X01915
X0194Y023
X01965
X01985Y0233
X0199Y023
X0201Y0233
Y0238
X02035Y0233
Y0238
X0206
X0209
X02115
X022292Y023011
X0232Y0235
X024042Y023005
X02463Y02325
X0248Y0236
X0256
X0259Y023
X0267Y0239
X02685Y023
X02735Y0239
X027357Y0236
X02765Y023601
X0289Y02335
Y02375
X02915Y023
X0295
X0298Y02335
Y0236
Y0239
X03555Y02375
X036205Y023295
X0365Y0233
Y02375
X0378Y0236
X03745Y02475
X0365Y02425
Y02475
X03555Y02425
Y02475
X03355Y02425
X03015Y02485
X02855
X0221Y0244
Y02465
X0213Y0249
X02075Y024
X0144Y02425
X01175
X010648Y024929
X0106Y02425
X010355Y02475
X01035Y02425
X009175Y024
Y0245
X008325Y024
Y0245
X00715Y024
Y02425
X007145Y02475
X006716Y024961
X006696Y02428
Y02458
X005076Y024937
X004804Y024966
X00335Y024128
Y024384
Y02464
Y024896
X0029Y024014
Y024486
X0017Y02425
Y024722
X001458Y024908
X00145Y024125
Y024375
Y024597
X00285Y0255
X003352Y025152
X003363Y025411
X00462Y025867
X005068Y025937
X006688Y0253
Y0256
X00715Y025
Y02525
X007207Y025922
X008325Y025
X009175
X01035
Y02525
Y02555
X01435Y02575
X0144Y02525
X014653Y02549
X01675Y02535
X01818Y025812
X01825Y02535
X01948Y025812
X01975Y02535
X01977Y025868
X0213Y0252
X0215Y0251
X0224Y0253
X022748
X023063
X023375Y025077
X0236Y0253
X0241
X024323Y02505
X024638Y0253
X024953
X025583
X0259
X02605Y02505
X026213Y0253
X027157
X027787
X028102Y025302
X028417Y025317
X02875Y0253
X029047
X029362
X029677
X0303
X03065
X03125
X031567
X037675Y025225
X031252Y026498
X030622Y0265
X030307Y026493
X029992Y0265
X029677
X029362
X029047
X028732
X0284
X02745
X02675
X0261
X025583
X025268
X025101Y026699
X01973Y026562
Y026962
X01898Y026462
Y026962
X01868Y026462
Y026962
X016951Y026021
X016562Y026023
X015029Y026068
X014747Y026893
X0136Y026053
X013155
X0082Y0264
Y0268
X0073Y0264
X005936Y02692
X005671Y026412
X005295
X0071Y0277
X0082Y0272
X0084Y0277
X0136Y027193
X01818Y027912
X01838Y027512
X023693Y027
X024008
X024323
X024638
X024953
X025268
X02585
X0261
X02675
X027472
X027787
X028417
X028732
X029047
X029362
X02965
X029992
X030307
X030622
X03095
X031252
X0351Y0275
X0359
X03565Y0286
X03535
X031567Y0282
X03095
X03055
X02965
X02925
X02885
X02845
X0281
X02765
X027157
X026213
X02545
X023378
X022433
X01786Y028085
X014936Y028063
X0082Y0282
X0073
T05
X034677Y014622
X034087Y014425
X033417Y014622
X00525Y015
X00625Y0155
X033417Y015606
X034087Y015213
X034677Y015606
Y016394
X034087Y016
Y016787
X033417Y016394
X00625Y0165
X00525Y016
Y017
X00625Y0175
X033417Y017378
X034087Y017575
X034677Y017378
X00625Y0185
X00525Y018
Y019
X00625Y0195
T03
X00525Y001
X00625
X00725
X00825
X00925
X01025
X01125
X01225
X01325
X01425
X01525
X01625
X01725
Y002
X01625
X01525
X01425
X01325
X01225
X01125
X01025
X00925
X00825
X00725
X00625
X00525
X03175Y02
X01125Y02175
X0125
X03175Y021
X0125Y02275
X01125
X02785Y0245
X02685
X02585
X02485
X02385
X02285
X00626Y02623
X0037
X00925Y027
X01025
X01125
X01225
Y028
X01125
X01025
X00925
X00626
X0037
T08
X00315Y0104
X00115Y0116
X00515
X00175Y01458
X00095
Y01992
X00175
T11
X0335Y0275
X0345
T13
X00395Y0142
Y0203
T04
X033228Y013413
X035465
Y018587
X033228
T12
X00275Y015
Y0195
T02
X0015Y0015
X0375
X0015Y0275
X0375
T00
M30
