G04 DipTrace 3.0.0.0*
G04 BottomSilk.gbr*
%MOIN*%
G04 #@! TF.FileFunction,Legend,Bot*
G04 #@! TF.Part,Single*
%ADD10C,0.01*%
%ADD103C,0.006176*%
%ADD105C,0.015439*%
%FSLAX26Y26*%
G04*
G70*
G90*
G75*
G01*
G04 BotSilk*
%LPD*%
X3185071Y3753544D2*
D10*
X3248000D1*
X3185071Y3746095D2*
X3248000D1*
X3185071D2*
Y3769654D1*
X3248000Y3746095D2*
Y3769654D1*
X3132075Y3764050D2*
D103*
X3128272Y3765951D1*
X3124425Y3769798D1*
X3122524Y3773601D1*
Y3781250D1*
X3124425Y3785097D1*
X3128272Y3788899D1*
X3132075Y3790845D1*
X3137823Y3792746D1*
X3147418D1*
X3153121Y3790845D1*
X3156968Y3788899D1*
X3160771Y3785097D1*
X3162716Y3781250D1*
Y3773601D1*
X3160771Y3769798D1*
X3156968Y3765951D1*
X3153121Y3764050D1*
X3162716Y3732553D2*
X3122568D1*
X3149319Y3751699D1*
Y3723003D1*
X2920965Y4076070D2*
D105*
X2877965D1*
X2863595Y4080934D1*
X2858731Y4085687D1*
X2853978Y4095193D1*
Y4104810D1*
X2858731Y4114316D1*
X2863595Y4119180D1*
X2877965Y4123933D1*
X2920965D1*
Y4023453D1*
X2887471Y4076070D2*
X2853978Y4023453D1*
X2823099Y4061700D2*
X2765730D1*
Y4071317D1*
X2770483Y4080934D1*
X2775236Y4085687D1*
X2784853Y4090440D1*
X2799223D1*
X2808729Y4085687D1*
X2818346Y4076070D1*
X2823099Y4061700D1*
Y4052193D1*
X2818346Y4037823D1*
X2808729Y4028317D1*
X2799223Y4023453D1*
X2784853D1*
X2775236Y4028317D1*
X2765730Y4037823D1*
X2734851Y4090440D2*
X2706111Y4023453D1*
X2677481Y4090440D1*
X2549401Y4104699D2*
X2539784Y4109563D1*
X2525414Y4123823D1*
Y4023453D1*
X2489782Y4033070D2*
X2494536Y4028206D1*
X2489782Y4023453D1*
X2484919Y4028206D1*
X2489782Y4033070D1*
X2454040Y4104699D2*
X2444423Y4109563D1*
X2430053Y4123823D1*
Y4023453D1*
M02*
