M48
INCH
T01C0.0157
T02C0.022
T03C0.028
T04C0.03
T05C0.0315
T06C0.0354
T07C0.0362
T08C0.0394
T09C0.0449
T10C0.0618
T11C0.0906
T12C0.128
T13C0.1575
%
T01
X+027077Y+039656
X+022835Y+031476
X+025059Y+029213
X+025059Y+027008
X+027244Y+022047
X+022205Y+018622
X+022992Y+014390
X+022992Y+012646
X+020591Y+013937
X+020087Y+013583
X+013622Y+014213
X+013425Y+014606
X+012992Y+012756
X+012598Y+012835
X+016181Y+022047
X+015906Y+022559
X+015354Y+023937
X+016142Y+026457
X+016378Y+027165
X+012819Y+027925
T02
X+029260Y+035427
X+029260Y+032427
X+008740Y+028945
X+007736Y+027709
X+008740Y+025945
X+007736Y+030709
T03
X+031189Y+033415
T04
X+031189Y+032415
T05
X+010699Y+024600
X+010199Y+025100
X+010699Y+025600
X+012163Y+027135
X+011663Y+027635
X+012163Y+028135
X+011075Y+029636
X+010575Y+029136
X+010075Y+029636
X+010581Y+031594
X+011081Y+032094
X+010581Y+032594
T06
X+014272Y+036831
X+014272Y+037831
X+012638Y+038189
X+012638Y+034213
X+014134Y+032244
X+014134Y+028268
X+006000Y+027776
X+006000Y+028776
X+006000Y+029776
X+006000Y+030776
X+006000Y+031776
X+006000Y+032776
X+006000Y+033776
X+006000Y+034776
X+006000Y+035776
X+006000Y+036776
X+005000Y+036776
X+005000Y+035776
X+005000Y+034776
X+005000Y+033776
X+005000Y+032776
X+005000Y+031776
X+005000Y+030776
X+005000Y+029776
X+005000Y+028776
X+005000Y+027776
X+005000Y+026776
X+006000Y+026776
X+006000Y+025776
X+005000Y+025776
X+009823Y+015236
X+009823Y+014236
X+009823Y+013236
X+009823Y+012236
X+010823Y+011736
X+010823Y+012736
X+010823Y+013736
X+010823Y+014736
X+026185Y+014374
X+026185Y+013374
X+027185Y+013874
X+027185Y+014874
X+027185Y+015874
X+026185Y+016374
X+026185Y+015374
X+027185Y+012874
X+023406Y+028622
X+023406Y+032598
X+030335Y+037106
X+030335Y+038106
X+006000Y+037776
X+005000Y+037776
T07
X+027008Y+023976
X+027795Y+023976
X+027795Y+022992
X+027008Y+022992
X+009291Y+022402
X+009291Y+021417
X+009291Y+020630
X+009291Y+019646
T08
X+010571Y+039547G85X+009587Y+039547
X+008228Y+037874G85X+008228Y+038858
X+010669Y+037185G85X+009488Y+037185
X+017043Y+031476
X+018043Y+031476
X+019043Y+031476
X+021043Y+031476
X+021043Y+029476
X+021004Y+028091
X+019004Y+028091
X+018004Y+028091
X+017004Y+028091
X+017043Y+029476
X+018043Y+029476
X+019043Y+029476
X+019004Y+026091
X+018004Y+026091
X+017004Y+026091
X+017024Y+024764
X+018024Y+024764
X+019024Y+024764
X+021024Y+024764
X+021004Y+026091
X+021024Y+022764
X+021043Y+021398
X+019043Y+021398
X+018043Y+021398
X+017043Y+021398
X+017024Y+022764
X+018024Y+022764
X+019024Y+022764
X+019043Y+019398
X+018043Y+019398
X+017043Y+019398
X+017043Y+017992
X+018043Y+017992
X+019043Y+017992
X+021043Y+017992
X+021043Y+019398
X+021043Y+015992
X+021024Y+014646
X+019024Y+014646
X+018024Y+014646
X+017024Y+014646
X+017043Y+015992
X+018043Y+015992
X+019043Y+015992
X+019024Y+012646
X+018024Y+012646
X+017024Y+012646
X+021024Y+012646
T09
X+007205Y+034803
X+007205Y+033803
X+007205Y+032803
X+007205Y+031803
X+008205Y+031803
X+008205Y+032803
X+008205Y+033803
X+008205Y+034803
X+025177Y+035020
X+026177Y+035020
T10
X+030886Y+011575
X+030886Y+017673
X+006122Y+016535
X+006122Y+010437
T11
X+028862Y+021114
X+028862Y+025854
X+008224Y+023610
X+008224Y+018437
T12
X+029685Y+012374
X+029685Y+016874
X+007323Y+015736
X+007323Y+011236
T13
X+031656Y+041535
X+005337Y+041537
X+005339Y+005476
X+031654Y+005475
T00
M30
