G04 DipTrace 3.0.0.0*
G04 Top.gbr*
%MOIN*%
G04 #@! TF.FileFunction,Copper,L1,Top*
G04 #@! TF.Part,Single*
%AMOUTLINE0*5,1,4,0,0,0.070866,-180.0*%
%AMOUTLINE3*5,1,4,0,0,0.070866,0.0*%
%AMOUTLINE6*5,1,4,0,0,0.070866,-90.0*%
G04 #@! TA.AperFunction,Conductor*
%ADD10C,0.01*%
%ADD14C,0.015748*%
%ADD15C,0.007*%
%ADD16C,0.014*%
%ADD17C,0.008*%
%ADD19C,0.019685*%
%ADD20C,0.023622*%
%ADD21C,0.04*%
%ADD22C,0.059055*%
%ADD23C,0.03937*%
%ADD24C,0.048*%
%ADD25C,0.02*%
%ADD26C,0.015*%
%ADD27C,0.016*%
%ADD28C,0.047244*%
G04 #@! TA.AperFunction,CopperBalancing*
%ADD29C,0.025*%
%ADD32R,0.03937X0.108268*%
%ADD33R,0.218504X0.242126*%
G04 #@! TA.AperFunction,ComponentPad*
%ADD34R,0.062992X0.062992*%
%ADD35C,0.062992*%
%ADD37R,0.059055X0.059055*%
%ADD38C,0.059055*%
%ADD39C,0.06*%
%ADD40R,0.05X0.05*%
%ADD41R,0.070866X0.070866*%
%ADD42C,0.070866*%
%ADD43C,0.11811*%
%ADD44C,0.062992*%
%ADD45C,0.137795*%
%ADD46O,0.177165X0.07874*%
%ADD47O,0.19685X0.07874*%
%ADD48O,0.07874X0.177165*%
%ADD49R,0.068898X0.068898*%
%ADD50C,0.068898*%
%ADD51C,0.055118*%
%ADD52C,0.05*%
%ADD53C,0.05*%
G04 #@! TA.AperFunction,ViaPad*
%ADD54C,0.031496*%
G04 #@! TA.AperFunction,ComponentPad*
%ADD106OUTLINE0*%
%ADD109OUTLINE3*%
%ADD112OUTLINE6*%
%FSLAX26Y26*%
G04*
G70*
G90*
G75*
G01*
G04 Top*
%LPD*%
X982284Y1523622D2*
D14*
X1007874D1*
X1122047Y1637795D1*
X1338583D1*
X1584646Y1391732D1*
X1729528D1*
X1802362Y1464567D1*
X1082284Y1473610D2*
Y1492520D1*
X1055118Y1519685D1*
Y1523622D1*
X1137795Y1606299D1*
X1322835D1*
X1570866Y1358268D1*
X1736221D1*
Y1330709D1*
X1802362Y1264567D1*
X982284Y1423610D2*
D15*
X981856Y1423377D1*
X1153544D1*
D16*
Y1480315D1*
X1192914D1*
D14*
Y1425197D1*
X1240158D1*
Y1480315D1*
X1287402D1*
Y1425197D1*
X1307087D1*
X1342520Y1460630D1*
X1082284Y1373610D2*
D15*
X921666D1*
X901575Y1393701D1*
D16*
Y1429134D1*
D14*
Y1606299D1*
X984252Y1688977D1*
X1460630D1*
Y1602362D1*
X1511811D1*
Y1688977D1*
X1570866D1*
Y1602362D1*
X1618110D1*
Y1688977D1*
X1714567D1*
X1804331Y1599213D1*
X982284Y1323610D2*
X932295D1*
X870079Y1385827D1*
Y1618110D1*
X972441Y1720473D1*
X1728347D1*
X1755906Y1748032D1*
D15*
Y2091339D1*
X1804331Y2139764D1*
X1082284Y1273610D2*
D14*
X1096445D1*
X1173229Y1350394D1*
Y1377953D1*
X1188977Y1393701D1*
X1334646D1*
X1362205Y1421260D1*
X982284Y1223610D2*
D15*
X1130721D1*
X1137795Y1216536D1*
D16*
X1149607Y1204725D1*
D14*
X1181103D1*
X1259843Y1283465D1*
X1590551Y2255906D2*
Y2266891D1*
X1699929Y2376269D1*
X1707874Y2381890D1*
X1802362Y2476378D1*
X1082284Y1173622D2*
X1139154D1*
Y1074803D1*
X1208662D1*
Y1185040D1*
X1299213Y1275591D1*
X1618110Y2204725D2*
X1730709D1*
X1802362Y2276378D1*
X2700788Y2299213D2*
X2665355D1*
X2645670Y2318898D1*
X2618110D1*
X2602362Y2334646D1*
X2488189D1*
X2212599Y2610236D1*
Y2625984D1*
D17*
Y2633858D1*
X2122047Y2724410D1*
X1952756D1*
X1929134Y2700788D1*
Y2649607D1*
X1888583Y2609055D1*
X1900394D1*
X2779528Y2299213D2*
D15*
X2775591D1*
X2728347Y2346457D1*
X2641732D1*
D16*
X2633858D1*
X2614173Y2366142D1*
D14*
X2503937D1*
X2240158Y2629921D1*
D17*
X2129921Y2740158D1*
X1969292D1*
X1900394Y2809055D1*
X929134Y2062992D2*
D14*
X948819D1*
X996063Y2110236D1*
X1078740D1*
X1614173Y2645670D1*
X929134Y2141732D2*
X1062992D1*
X1637795Y2716536D1*
X929134Y2240158D2*
D19*
X978347D1*
X1614173Y2875984D1*
X1785433D1*
X1807087Y2897638D1*
Y2944882D1*
X1804331Y2947638D1*
X929134Y1964567D2*
X933071D1*
X990158Y2021654D1*
X1163386D1*
X1535433Y2393701D1*
X3118898Y3241470D2*
D20*
X2927166D1*
X2925984Y3242651D1*
X3033465Y3810630D2*
X2984646D1*
X2895670Y3899607D1*
X2756562D1*
X2710105Y3946063D1*
X1216273Y2813517D2*
D14*
X1181890Y2847900D1*
X1023753D1*
X966273Y2905381D1*
Y2922441D1*
X1007481Y2963649D1*
Y2962467D1*
X947113Y2902100D1*
Y2802756D1*
X787533Y2643176D1*
Y2547244D1*
X827953Y2506824D1*
Y2366536D1*
X822441Y2361024D1*
X3118898Y3341470D2*
Y3493045D1*
X3188189Y3562336D1*
Y3754331D1*
X3128084Y3814436D1*
X3037271D1*
X3033465Y3810630D1*
X2710105Y3946063D2*
D21*
X1590158D1*
X1427166Y3783071D1*
X2707743Y3965617D2*
D20*
X2710105Y3946063D1*
X1007874Y3718504D2*
D22*
Y3496063D1*
X1082677Y3421260D1*
X1263780D1*
X1379921D1*
X1429134Y3470473D1*
Y3681103D1*
D20*
X1427166Y3683071D1*
X2620341Y3682284D2*
D23*
X2576656D1*
D24*
X1427953D1*
X1427166Y3683071D1*
X500000Y3677559D2*
D10*
Y3685302D1*
X543307Y3728609D1*
X684252D1*
X720341Y3692520D1*
Y3480446D1*
X720473Y3480315D1*
Y3380315D2*
X727691D1*
X775722Y3332284D1*
X893570D1*
D25*
X1013268D1*
X1390551D1*
X1474935Y3416667D1*
X2432415D1*
X2517717Y3501969D1*
X720473Y3380315D2*
D10*
X724803D1*
X774016Y3429528D1*
X858137D1*
X901444Y3386221D1*
Y3365748D1*
X920604Y3346588D1*
X998963D1*
X1013268Y3332284D1*
X600000Y3677559D2*
D25*
X642389D1*
X653281Y3666667D1*
Y3433071D1*
X704987Y3381365D1*
X719423D1*
X720473Y3380315D1*
Y3280315D2*
D15*
X682021D1*
X627953Y3226247D1*
X564305D1*
X552362Y3214305D1*
Y2987927D1*
X542257Y2977822D1*
X500263D1*
X500000Y2977559D1*
X820473Y3280315D2*
Y3275460D1*
X774803Y3229790D1*
X676772D1*
X659318Y3212336D1*
Y2944488D1*
X644357Y2929528D1*
X551969D1*
X500000Y2877559D1*
X820473Y3180315D2*
Y3169160D1*
X777034Y3125722D1*
X740945D1*
X721785Y3106562D1*
Y2911418D1*
X672704Y2862336D1*
Y2750263D1*
X600000Y2677559D1*
X1166273Y2763517D2*
D14*
Y2656299D1*
X1069948Y2559974D1*
X1057481Y2913649D2*
D26*
Y2949738D1*
X1061549Y2953806D1*
Y3156037D1*
D10*
X1058137Y3159449D1*
X1108137Y3209449D2*
D27*
X973229D1*
D20*
X834646Y3070866D1*
X773622D1*
X2340551Y2862205D2*
D19*
X2618110D1*
X2753937Y2726378D1*
X2956693D1*
X3055118Y2627953D1*
Y2401575D1*
X2962599Y2309055D1*
X2907481D1*
X2803150Y2204725D1*
X2724410D1*
X2220473Y1862205D2*
D20*
Y1622047D1*
X2177166Y1578740D1*
X2165355D1*
X2144882Y1599213D1*
X2104331D1*
X2102362Y1264567D2*
X2299213D1*
Y1438977D2*
Y1456693D1*
X2177166Y1578740D1*
X1216273Y2713517D2*
D14*
Y2726903D1*
X1281890Y2792520D1*
X874016Y2594488D2*
D20*
X935433D1*
X1019948Y2509974D1*
X1413386Y2826772D2*
X1494095D1*
X1523622Y2856299D1*
Y3220473D1*
X1551181Y3248032D1*
X2188977D1*
X2212599Y3224410D1*
Y2948819D1*
X2192914Y2929134D1*
X2122835D1*
X2104331Y2947638D1*
X1107481Y2963649D2*
D14*
X1276509D1*
X1413386Y2826772D1*
X2718504Y1287402D2*
X2673229D1*
X2645670Y1259843D1*
X2555118D1*
X2500000Y1314961D1*
X2051969D1*
X2008662Y1358268D1*
X2618504Y1337414D2*
X2613004D1*
X2564961Y1289370D1*
X2507874Y1346457D1*
X2106299D1*
X2059055Y1393701D1*
X2618504Y1437414D2*
X2538965D1*
X2472441Y1503937D1*
Y1807087D1*
X2240158Y2039370D1*
X2027559D1*
X2007874Y2019685D1*
Y1814961D1*
X1964567Y1771654D1*
Y1657481D1*
X1906299Y1599213D1*
X1904331D1*
X2718504Y1487414D2*
D15*
X2559831D1*
X2559055Y1488189D1*
D16*
X2531496D1*
D14*
X2503937Y1515748D1*
Y1779528D1*
X2602362D1*
Y1838583D1*
X2488189D1*
X2255906Y2070866D1*
X1952756D1*
X1883858Y2139764D1*
X1904331D1*
X2718504Y1587414D2*
Y1944882D1*
X2255906Y2407481D1*
X1974410D1*
X1905512Y2476378D1*
X1902362D1*
X2618504Y1637402D2*
X2653150D1*
X2685040Y1669292D1*
Y1933071D1*
X2240158Y2377953D1*
X1984252D1*
X1882677Y2276378D1*
X1902362D1*
X3033465Y3710630D2*
D28*
X2828215D1*
D20*
X2799869Y3682284D1*
X2340551Y3259843D2*
X2574803D1*
X2797244Y3482284D1*
Y3501969D1*
Y3679659D1*
X2799869Y3682284D1*
X1413386Y3224410D2*
Y3289370D1*
X1460630Y3336614D1*
X2263780D1*
X2340551Y3259843D1*
X2283465Y3147638D2*
D19*
Y3127953D1*
X2450788D1*
D20*
X2505906Y3072835D1*
Y2921260D1*
Y2700788D2*
D19*
X2486221Y2681103D1*
D20*
X2255906D1*
X2127953Y2809055D1*
X2100394D1*
X2104331Y1799213D2*
X2053150D1*
X2025591Y1771654D1*
Y1486221D1*
X2047244Y1464567D1*
X2102362D1*
X2617717Y3501969D2*
X2797244D1*
X1058137Y3259449D2*
D25*
X1333334D1*
X1368635Y3224147D1*
X1413124D1*
X1413386Y3224410D1*
X2925984Y3542651D2*
D14*
X2976509D1*
X3035565Y3601706D1*
Y3708530D1*
X3033465Y3710630D1*
X874016Y2894488D2*
D15*
X757349D1*
X696063Y2833202D1*
Y2692257D1*
X630446Y2626641D1*
X571129D1*
X551837Y2645932D1*
Y2725722D1*
X500000Y2777559D1*
X773622Y2770866D2*
Y2712861D1*
X706824Y2646063D1*
Y2525984D1*
X648557Y2467717D1*
X462074D1*
X437271Y2492520D1*
Y2614830D1*
X500000Y2677559D1*
D54*
X1342520Y1460630D3*
X1362205Y1421260D3*
X1259843Y1283465D3*
X1590551Y2255906D3*
X1299213Y1275591D3*
X1618110Y2204725D3*
X1614173Y2645670D3*
X1637795Y2716536D3*
X1535433Y2393701D3*
X2724410Y2204725D3*
X2220473Y1862205D3*
X2299213Y1264567D3*
Y1438977D3*
X1281890Y2792520D3*
X2008662Y1358268D3*
X2059055Y1393701D3*
X2283465Y3147638D3*
X2505906Y2921260D3*
Y2700788D3*
X2707743Y3965617D3*
X643807Y4227970D2*
D29*
X3055604D1*
X657284Y4203101D2*
X3042128D1*
X664656Y4178232D2*
X3034706D1*
X666952Y4153364D2*
X3032362D1*
X664511Y4128495D2*
X3034803D1*
X656991Y4103626D2*
X3042274D1*
X643368Y4078757D2*
X2571864D1*
X2848348D2*
X3055898D1*
X434726Y4053889D2*
X446750D1*
X620711D2*
X2571864D1*
X2848348D2*
X3078504D1*
X3252743D2*
X3266099D1*
X434726Y4029020D2*
X491786D1*
X575643D2*
X2571864D1*
X2848348D2*
X3123280D1*
X3207967D2*
X3266103D1*
X434726Y4004151D2*
X912635D1*
X1103134D2*
X2571864D1*
X2848348D2*
X3266103D1*
X434726Y3979282D2*
X895058D1*
X1120711D2*
X1555116D1*
X2848348D2*
X3266103D1*
X434726Y3954414D2*
X890322D1*
X1125448D2*
X1530263D1*
X2848348D2*
X3266103D1*
X434726Y3929545D2*
X771083D1*
X874618D2*
X895302D1*
X1120467D2*
X1505408D1*
X2922079D2*
X3266103D1*
X434726Y3904676D2*
X757215D1*
X888436D2*
X913368D1*
X1102402D2*
X1480507D1*
X2947274D2*
X3266103D1*
X434726Y3879807D2*
X754482D1*
X891219D2*
X1455654D1*
X1592147D2*
X2571864D1*
X2972128D2*
X3266103D1*
X434726Y3854939D2*
X754482D1*
X891219D2*
X1218398D1*
X1309188D2*
X1430799D1*
X1567294D2*
X2571864D1*
X2848348D2*
X2883680D1*
X3073398D2*
X3266103D1*
X558504Y3830070D2*
X577967D1*
X622030D2*
X754482D1*
X891219D2*
X1206386D1*
X1321151D2*
X1390711D1*
X1542391D2*
X2571864D1*
X2848348D2*
X2908534D1*
X3163534D2*
X3266103D1*
X651230Y3805201D2*
X754482D1*
X891219D2*
X1206971D1*
X1320614D2*
X1371083D1*
X1517538D2*
X2571864D1*
X2848348D2*
X2933387D1*
X3188436D2*
X3266103D1*
X658456Y3780332D2*
X754872D1*
X890828D2*
X923622D1*
X1092147D2*
X1220643D1*
X1306894D2*
X1366738D1*
X1492684D2*
X2958730D1*
X3213290D2*
X3266103D1*
X703183Y3755463D2*
X762734D1*
X882919D2*
X891782D1*
X1123935D2*
X1373671D1*
X1480672D2*
X2571668D1*
X2669003D2*
X2751210D1*
X3093954D2*
X3135975D1*
X3225058D2*
X3266103D1*
X729306Y3730595D2*
X787000D1*
X858651D2*
X881580D1*
X1134188D2*
X1366688D1*
X2669003D2*
X2751210D1*
X3093954D2*
X3151307D1*
X3225058D2*
X3266103D1*
X434726Y3705726D2*
X449091D1*
X751424D2*
X881727D1*
X1134042D2*
X1366688D1*
X2669003D2*
X2751210D1*
X3093954D2*
X3151307D1*
X3225058D2*
X3266103D1*
X754355Y3680857D2*
X892274D1*
X1123495D2*
X1366688D1*
X2669003D2*
X2751210D1*
X3093954D2*
X3151307D1*
X3225058D2*
X3266103D1*
X434726Y3655988D2*
X445774D1*
X754355D2*
X925575D1*
X1090146D2*
X1366688D1*
X2669003D2*
X2751210D1*
X2848544D2*
X2972987D1*
X3093954D2*
X3151307D1*
X3225058D2*
X3266103D1*
X434726Y3631120D2*
X466151D1*
X533847D2*
X566151D1*
X754355D2*
X949355D1*
X1066415D2*
X1366688D1*
X1487655D2*
X2571668D1*
X2669003D2*
X2751210D1*
X2848544D2*
X2998719D1*
X3072420D2*
X3151307D1*
X3225058D2*
X3266103D1*
X434726Y3606251D2*
X449383D1*
X754355D2*
X949355D1*
X1066415D2*
X1370595D1*
X1487655D2*
X2571668D1*
X2669003D2*
X2751210D1*
X2848544D2*
X2989003D1*
X3072420D2*
X3151307D1*
X3225058D2*
X3266103D1*
X754355Y3581382D2*
X949355D1*
X1066415D2*
X1370595D1*
X1487655D2*
X2756435D1*
X2838046D2*
X2889540D1*
X3065780D2*
X3151307D1*
X3225058D2*
X3266103D1*
X434726Y3556513D2*
X445579D1*
X754355D2*
X949355D1*
X1066415D2*
X1370595D1*
X1487655D2*
X2454286D1*
X2647372D2*
X2756435D1*
X2838046D2*
X2873915D1*
X3041463D2*
X3131288D1*
X3224570D2*
X3266103D1*
X434726Y3531645D2*
X465419D1*
X534579D2*
X565419D1*
X855819D2*
X949355D1*
X1066415D2*
X1370595D1*
X1487655D2*
X2454286D1*
X2838046D2*
X2873183D1*
X3016610D2*
X3106386D1*
X3208603D2*
X3266103D1*
X434726Y3506776D2*
X449676D1*
X877890D2*
X949355D1*
X1078866D2*
X1370595D1*
X1487655D2*
X2454286D1*
X2838046D2*
X2886562D1*
X2965439D2*
X3084902D1*
X3183748D2*
X3266103D1*
X883895Y3481907D2*
X951160D1*
X1103768D2*
X1358827D1*
X1487655D2*
X2443544D1*
X2838046D2*
X3082020D1*
X3158847D2*
X3266103D1*
X434726Y3457038D2*
X445383D1*
X879306D2*
X965175D1*
X1485995D2*
X2418691D1*
X2661386D2*
X2715322D1*
X2828572D2*
X3082020D1*
X3155771D2*
X3266103D1*
X434726Y3432170D2*
X464687D1*
X535311D2*
X564687D1*
X902547D2*
X990028D1*
X2502011D2*
X2690467D1*
X2803818D2*
X3082020D1*
X3155771D2*
X3266103D1*
X434726Y3407301D2*
X450067D1*
X927352D2*
X1014931D1*
X2477156D2*
X2665614D1*
X2778915D2*
X3082020D1*
X3155771D2*
X3266103D1*
X935458Y3382432D2*
X1039784D1*
X2447567D2*
X2640711D1*
X2754062D2*
X3064882D1*
X3172908D2*
X3266103D1*
X434726Y3357563D2*
X445189D1*
X2299520D2*
X2615858D1*
X2729208D2*
X3064882D1*
X3172908D2*
X3266103D1*
X434726Y3332694D2*
X463954D1*
X536044D2*
X563954D1*
X636044D2*
X679970D1*
X2324374D2*
X2591004D1*
X2704306D2*
X3064882D1*
X3172908D2*
X3266103D1*
X434726Y3307826D2*
X450360D1*
X649618D2*
X663629D1*
X2399080D2*
X2566103D1*
X2679452D2*
X3064882D1*
X3172908D2*
X3266103D1*
X883847Y3282957D2*
X1006971D1*
X1463631D2*
X1532948D1*
X2207187D2*
X2260780D1*
X2654599D2*
X2891444D1*
X2960507D2*
X3078066D1*
X3159726D2*
X3266103D1*
X434726Y3258088D2*
X444994D1*
X879696D2*
X1001600D1*
X1471883D2*
X1504579D1*
X2235604D2*
X2282020D1*
X2629696D2*
X2874355D1*
X3175399D2*
X3266103D1*
X434726Y3233219D2*
X463271D1*
X861630D2*
X940322D1*
X1471883D2*
X1484999D1*
X2252352D2*
X2282020D1*
X2604843D2*
X2872840D1*
X3177303D2*
X3266103D1*
X434726Y3208351D2*
X450750D1*
X877059D2*
X915467D1*
X1164656D2*
X1330311D1*
X1471883D2*
X1482802D1*
X1568172D2*
X2171815D1*
X2253378D2*
X2282020D1*
X2399080D2*
X2885096D1*
X3167147D2*
X3266103D1*
X1158066Y3183482D2*
X1354872D1*
X1471883D2*
X1482802D1*
X1564412D2*
X1658778D1*
X1749862D2*
X1758780D1*
X1849862D2*
X1858780D1*
X1949862D2*
X2045790D1*
X2162851D2*
X2171806D1*
X2308310D2*
X3266103D1*
X434726Y3158613D2*
X444798D1*
X979062D2*
X993739D1*
X1129012D2*
X1482802D1*
X1564412D2*
X1646912D1*
X1961776D2*
X2045790D1*
X2162851D2*
X2171806D1*
X2476230D2*
X3266103D1*
X434726Y3133744D2*
X462587D1*
X954208D2*
X1008436D1*
X1107822D2*
X1482802D1*
X1564412D2*
X1647547D1*
X1961092D2*
X2045790D1*
X2162851D2*
X2171806D1*
X2501668D2*
X3266103D1*
X434726Y3108876D2*
X451042D1*
X929306D2*
X1025038D1*
X1098055D2*
X1482802D1*
X1564412D2*
X1661366D1*
X1747274D2*
X1761407D1*
X1847274D2*
X1861407D1*
X1947274D2*
X2045790D1*
X2162851D2*
X2171806D1*
X2526523D2*
X3266103D1*
X904452Y3084007D2*
X1025038D1*
X1098055D2*
X1482802D1*
X1564412D2*
X2171815D1*
X2253378D2*
X2438075D1*
X2545028D2*
X3266103D1*
X434726Y3059138D2*
X444604D1*
X879599D2*
X1025038D1*
X1098055D2*
X1482802D1*
X1564412D2*
X2171815D1*
X2253378D2*
X2462928D1*
X2546688D2*
X3266103D1*
X434726Y3034269D2*
X461952D1*
X848446D2*
X1025038D1*
X1098055D2*
X1482802D1*
X1564412D2*
X2171815D1*
X2253378D2*
X2465126D1*
X2546688D2*
X3266103D1*
X434726Y3009400D2*
X451433D1*
X754256D2*
X977822D1*
X1138778D2*
X1482802D1*
X1564412D2*
X2171815D1*
X2253378D2*
X2465126D1*
X2546688D2*
X3266103D1*
X754256Y2984532D2*
X952967D1*
X1306747D2*
X1482802D1*
X1564412D2*
X1659656D1*
X1748983D2*
X1759718D1*
X1848983D2*
X1859718D1*
X1948983D2*
X2059656D1*
X2148983D2*
X2171815D1*
X2253378D2*
X2465126D1*
X2546688D2*
X3266103D1*
X434726Y2959663D2*
X444408D1*
X754256D2*
X943348D1*
X1331600D2*
X1482802D1*
X1564412D2*
X1647108D1*
X1961532D2*
X2047108D1*
X2253378D2*
X2465126D1*
X2546688D2*
X3266103D1*
X434726Y2934794D2*
X461318D1*
X754256D2*
X839491D1*
X908554D2*
X928700D1*
X1356454D2*
X1482802D1*
X1564412D2*
X1647303D1*
X1961336D2*
X2047303D1*
X2250740D2*
X2463416D1*
X2548398D2*
X3266103D1*
X434726Y2909925D2*
X451823D1*
X1115927D2*
X1279139D1*
X1381356D2*
X1482802D1*
X1564412D2*
X1598719D1*
X1848251D2*
X1860419D1*
X1948251D2*
X2060390D1*
X2230379D2*
X2308730D1*
X2372372D2*
X2462734D1*
X2549080D2*
X3266103D1*
X1105868Y2885057D2*
X1303992D1*
X1406210D2*
X1482802D1*
X1843660D2*
X2286903D1*
X2649130D2*
X3266103D1*
X434726Y2860188D2*
X444213D1*
X767978D2*
X833095D1*
X1244979D2*
X1328847D1*
X1825790D2*
X1874990D1*
X1925790D2*
X2041883D1*
X2158895D2*
X2282070D1*
X2674032D2*
X3266103D1*
X434726Y2835319D2*
X460683D1*
X539315D2*
X560683D1*
X743075D2*
X910243D1*
X1269882D2*
X1353748D1*
X1627402D2*
X1648427D1*
X1952352D2*
X2041883D1*
X2158895D2*
X2288906D1*
X2698886D2*
X3266103D1*
X434726Y2810450D2*
X452116D1*
X728572D2*
X738163D1*
X809042D2*
X903700D1*
X983992D2*
X1136952D1*
X1322616D2*
X1357314D1*
X1602547D2*
X1641883D1*
X1958895D2*
X2041883D1*
X2183211D2*
X2316591D1*
X2364511D2*
X2615956D1*
X2723739D2*
X3266103D1*
X825448Y2785582D2*
X878847D1*
X979403D2*
X1114442D1*
X1326034D2*
X1372939D1*
X1453866D2*
X1469862D1*
X1577646D2*
X1647011D1*
X1969491D2*
X2041883D1*
X2208114D2*
X2640858D1*
X2748642D2*
X3266103D1*
X434726Y2760713D2*
X444116D1*
X826620D2*
X853992D1*
X956160D2*
X1109803D1*
X1312167D2*
X1445008D1*
X1552792D2*
X1669570D1*
X1731210D2*
X1769570D1*
X1831210D2*
X1869570D1*
X2232967D2*
X2665711D1*
X2971103D2*
X3266103D1*
X434726Y2735844D2*
X460096D1*
X813876D2*
X829091D1*
X931307D2*
X1117323D1*
X1276327D2*
X1420155D1*
X1527939D2*
X1597743D1*
X1677840D2*
X1918592D1*
X2257822D2*
X2479823D1*
X2531991D2*
X2690566D1*
X3001131D2*
X3266103D1*
X434726Y2710975D2*
X452505D1*
X906454D2*
X1129383D1*
X1272763D2*
X1395302D1*
X1503036D2*
X1581142D1*
X1682187D2*
X1897890D1*
X2549423D2*
X2715467D1*
X3025986D2*
X3266103D1*
X881551Y2686107D2*
X1129383D1*
X1265340D2*
X1370399D1*
X1478183D2*
X1556288D1*
X1669588D2*
X1896131D1*
X1962118D2*
X2114735D1*
X2548007D2*
X2943055D1*
X3050839D2*
X3266103D1*
X856698Y2661238D2*
X1120107D1*
X1232479D2*
X1345546D1*
X1453328D2*
X1531386D1*
X1655916D2*
X1677528D1*
X1723251D2*
X1777528D1*
X1823251D2*
X1877528D1*
X1962118D2*
X2077528D1*
X2123251D2*
X2139629D1*
X2523251D2*
X2825819D1*
X2946639D2*
X2967958D1*
X3075740D2*
X3266103D1*
X742050Y2636369D2*
X750667D1*
X831844D2*
X841571D1*
X906454D2*
X1095252D1*
X1196786D2*
X1320692D1*
X1428427D2*
X1506532D1*
X1959091D2*
X2048963D1*
X2151815D2*
X2164454D1*
X2284823D2*
X2803066D1*
X2969394D2*
X2992811D1*
X3092978D2*
X3266103D1*
X660214Y2611500D2*
X674297D1*
X739315D2*
X750680D1*
X975107D2*
X1046083D1*
X1172567D2*
X1295790D1*
X1403572D2*
X1481679D1*
X1958847D2*
X2041932D1*
X2158847D2*
X2175722D1*
X2309676D2*
X2791982D1*
X2980478D2*
X3016298D1*
X3093954D2*
X3266103D1*
X657772Y2586631D2*
X674355D1*
X739315D2*
X750680D1*
X999960D2*
X1021230D1*
X1147714D2*
X1270936D1*
X1378719D2*
X1456776D1*
X1606259D2*
X1646571D1*
X1954208D2*
X2046571D1*
X2154208D2*
X2185146D1*
X2334530D2*
X2788319D1*
X2984091D2*
X3016298D1*
X3093954D2*
X3266103D1*
X656259Y2561763D2*
X674355D1*
X739315D2*
X750680D1*
X1134335D2*
X1246083D1*
X1353818D2*
X1431923D1*
X1581356D2*
X1667860D1*
X1732919D2*
X1767860D1*
X1832919D2*
X1867860D1*
X1932919D2*
X2067860D1*
X2132919D2*
X2209950D1*
X2359432D2*
X2791298D1*
X2981112D2*
X3016298D1*
X3093954D2*
X3266103D1*
X541024Y2536894D2*
X558974D1*
X641024D2*
X672840D1*
X739315D2*
X752272D1*
X848983D2*
X936366D1*
X1122274D2*
X1221180D1*
X1328963D2*
X1407070D1*
X1556503D2*
X2234852D1*
X2384286D2*
X2801600D1*
X2970858D2*
X3016298D1*
X3093954D2*
X3266103D1*
X469784Y2512025D2*
X647939D1*
X735848D2*
X771668D1*
X864412D2*
X961219D1*
X1097420D2*
X1196327D1*
X1304110D2*
X1382167D1*
X1531650D2*
X1656630D1*
X1748055D2*
X1756684D1*
X1848055D2*
X1856684D1*
X1948055D2*
X2043836D1*
X2160898D2*
X2259706D1*
X2409139D2*
X2822792D1*
X2949618D2*
X3016298D1*
X3093954D2*
X3266103D1*
X712899Y2487156D2*
X791103D1*
X864803D2*
X968446D1*
X1119150D2*
X1171474D1*
X1279208D2*
X1357314D1*
X1506747D2*
X1644911D1*
X1959823D2*
X2043836D1*
X2160898D2*
X2284559D1*
X2434042D2*
X3016298D1*
X3093954D2*
X3266103D1*
X688046Y2462288D2*
X791103D1*
X864803D2*
X991982D1*
X1126474D2*
X1146571D1*
X1254355D2*
X1332460D1*
X1481894D2*
X1645643D1*
X1970711D2*
X2043836D1*
X2160898D2*
X2309462D1*
X2458895D2*
X3016298D1*
X3093954D2*
X3266103D1*
X434726Y2437419D2*
X762831D1*
X882040D2*
X1018348D1*
X1229500D2*
X1307558D1*
X1457040D2*
X1659608D1*
X1845126D2*
X1859608D1*
X2275302D2*
X2334315D1*
X2483748D2*
X2640322D1*
X2824227D2*
X3016298D1*
X3093954D2*
X3266103D1*
X434726Y2412550D2*
X739687D1*
X905234D2*
X1041492D1*
X1204647D2*
X1282704D1*
X1432138D2*
X1495155D1*
X1575740D2*
X1687440D1*
X1789656D2*
X1918251D1*
X2301912D2*
X2359168D1*
X2508651D2*
X2640322D1*
X2838046D2*
X3012196D1*
X3093954D2*
X3266103D1*
X434726Y2387681D2*
X728358D1*
X916512D2*
X1071962D1*
X1179744D2*
X1257851D1*
X1407284D2*
X1475526D1*
X1579744D2*
X1660243D1*
X1764755D2*
X1942860D1*
X2326815D2*
X2384071D1*
X2839168D2*
X2987343D1*
X3091171D2*
X3266103D1*
X434726Y2362813D2*
X724550D1*
X920322D2*
X1047108D1*
X1154891D2*
X1232948D1*
X1382431D2*
X1450672D1*
X1566756D2*
X1635390D1*
X1739902D2*
X1918007D1*
X2351668D2*
X2408924D1*
X2828378D2*
X2962490D1*
X3070223D2*
X3266103D1*
X434726Y2337944D2*
X727382D1*
X917490D2*
X1022255D1*
X1130038D2*
X1208095D1*
X1357528D2*
X1425771D1*
X1533554D2*
X1610487D1*
X1712704D2*
X1893154D1*
X1995322D2*
X2229042D1*
X2376523D2*
X2433778D1*
X2825204D2*
X2882948D1*
X3045370D2*
X3266103D1*
X434726Y2313075D2*
X737490D1*
X907382D2*
X997402D1*
X1105135D2*
X1183240D1*
X1332675D2*
X1400916D1*
X1508700D2*
X1585634D1*
X1747176D2*
X1757558D1*
X1847176D2*
X1857558D1*
X1970467D2*
X2057558D1*
X2147176D2*
X2253944D1*
X2401424D2*
X2458680D1*
X2838339D2*
X2857607D1*
X3020516D2*
X3266103D1*
X434726Y2288206D2*
X758339D1*
X1080282D2*
X1158387D1*
X1307822D2*
X1376063D1*
X1483847D2*
X1560828D1*
X1959628D2*
X2045107D1*
X2159628D2*
X2278798D1*
X2426278D2*
X2600135D1*
X2995614D2*
X3266103D1*
X434726Y2263337D2*
X868642D1*
X1055428D2*
X1133486D1*
X1282919D2*
X1351160D1*
X1458944D2*
X1546474D1*
X1959335D2*
X2045399D1*
X2159335D2*
X2303651D1*
X2451131D2*
X2652723D1*
X2915634D2*
X3266103D1*
X434726Y2238469D2*
X868642D1*
X1030526D2*
X1108631D1*
X1258066D2*
X1326307D1*
X1434091D2*
X1549599D1*
X1846103D2*
X1858631D1*
X1946103D2*
X2058631D1*
X2146103D2*
X2328554D1*
X2476034D2*
X2696523D1*
X2890780D2*
X3266103D1*
X434726Y2213600D2*
X868642D1*
X1005624D2*
X1083778D1*
X1233211D2*
X1301454D1*
X1409238D2*
X1574306D1*
X1790683D2*
X2353407D1*
X2500887D2*
X2680604D1*
X2865927D2*
X3266103D1*
X434726Y2188731D2*
X868642D1*
X989608D2*
X1058876D1*
X1208358D2*
X1276600D1*
X1384335D2*
X1576503D1*
X1765828D2*
X1774651D1*
X1834042D2*
X1874599D1*
X1934042D2*
X2045790D1*
X2162851D2*
X2378260D1*
X2525740D2*
X2682802D1*
X2944588D2*
X3266103D1*
X434726Y2163862D2*
X875184D1*
X1183456D2*
X1251698D1*
X1359482D2*
X1604920D1*
X1631264D2*
X1651259D1*
X1957382D2*
X2045790D1*
X2162851D2*
X2403163D1*
X2550643D2*
X2711219D1*
X2737607D2*
X2804042D1*
X2968416D2*
X3266103D1*
X434726Y2138994D2*
X870692D1*
X1158603D2*
X1226844D1*
X1334628D2*
X1645839D1*
X1962851D2*
X2045790D1*
X2162851D2*
X2428016D1*
X2575496D2*
X2792420D1*
X2980038D2*
X3266103D1*
X434726Y2114125D2*
X877870D1*
X1133748D2*
X1201991D1*
X1309726D2*
X1652040D1*
X1960604D2*
X2045790D1*
X2162851D2*
X2452870D1*
X2600351D2*
X2788368D1*
X2984091D2*
X3266103D1*
X434726Y2089256D2*
X877138D1*
X1108847D2*
X1177088D1*
X1284872D2*
X1677576D1*
X1831063D2*
X1877576D1*
X2288631D2*
X2477772D1*
X2625252D2*
X2790956D1*
X2981503D2*
X3266103D1*
X434726Y2064387D2*
X870643D1*
X1001327D2*
X1152235D1*
X1260019D2*
X1723427D1*
X1788387D2*
X1908143D1*
X2313486D2*
X2502626D1*
X2650107D2*
X2800722D1*
X2971688D2*
X3266103D1*
X434726Y2039519D2*
X875771D1*
X1235116D2*
X1723427D1*
X1788387D2*
X1936171D1*
X2338339D2*
X2527479D1*
X2674960D2*
X2821034D1*
X2951424D2*
X3266103D1*
X434726Y2014650D2*
X897402D1*
X1210263D2*
X1723427D1*
X1788387D2*
X1970986D1*
X2363240D2*
X2552382D1*
X2699814D2*
X3266103D1*
X434726Y1989781D2*
X874403D1*
X1183310D2*
X1676600D1*
X1832040D2*
X1876600D1*
X1932040D2*
X1970986D1*
X2044735D2*
X2076600D1*
X2132040D2*
X2238660D1*
X2388095D2*
X2577235D1*
X2724715D2*
X3266103D1*
X434726Y1964912D2*
X868642D1*
X989608D2*
X1651795D1*
X1956894D2*
X1970986D1*
X2156894D2*
X2263515D1*
X2412948D2*
X2602088D1*
X2748935D2*
X3266103D1*
X434726Y1940044D2*
X874110D1*
X984188D2*
X1645790D1*
X1962851D2*
X1971037D1*
X2162851D2*
X2288368D1*
X2437851D2*
X2626942D1*
X2755379D2*
X3266103D1*
X434726Y1915175D2*
X756776D1*
X888095D2*
X896219D1*
X962020D2*
X1651503D1*
X1957187D2*
X1970986D1*
X2157187D2*
X2313271D1*
X2462704D2*
X2648183D1*
X2755379D2*
X3266103D1*
X434726Y1890306D2*
X736708D1*
X908163D2*
X1675526D1*
X1833163D2*
X1875526D1*
X1933163D2*
X1970986D1*
X2044735D2*
X2075526D1*
X2133163D2*
X2186415D1*
X2254500D2*
X2338124D1*
X2487558D2*
X2648183D1*
X2755379D2*
X3266103D1*
X434726Y1865437D2*
X727040D1*
X917831D2*
X1723427D1*
X1788387D2*
X1970986D1*
X2044735D2*
X2175868D1*
X2265096D2*
X2362978D1*
X2626327D2*
X2648183D1*
X2755379D2*
X3266103D1*
X434726Y1840568D2*
X724599D1*
X920272D2*
X1664051D1*
X1844638D2*
X1864051D1*
X1944638D2*
X1970986D1*
X2162851D2*
X2179658D1*
X2261288D2*
X2387879D1*
X2639168D2*
X2648164D1*
X2755379D2*
X3041883D1*
X3135263D2*
X3266103D1*
X434726Y1815700D2*
X728748D1*
X916122D2*
X1648280D1*
X2162851D2*
X2179658D1*
X2261288D2*
X2412734D1*
X2639218D2*
X2648180D1*
X2755379D2*
X3015516D1*
X3161630D2*
X3266103D1*
X434726Y1790831D2*
X740566D1*
X904355D2*
X1646424D1*
X2162851D2*
X2179658D1*
X2261288D2*
X2435584D1*
X2639218D2*
X2648180D1*
X2755379D2*
X3003847D1*
X3173348D2*
X3266103D1*
X434726Y1765962D2*
X764638D1*
X880234D2*
X1656727D1*
X2162851D2*
X2179658D1*
X2261288D2*
X2435584D1*
X2636435D2*
X2648202D1*
X2755379D2*
X2919324D1*
X3176620D2*
X3266103D1*
X434726Y1741093D2*
X941982D1*
X1792050D2*
X1927723D1*
X2066415D2*
X2179676D1*
X2261288D2*
X2435584D1*
X2540780D2*
X2648183D1*
X2755379D2*
X2892079D1*
X3172519D2*
X3266103D1*
X434726Y1716225D2*
X551503D1*
X672908D2*
X917079D1*
X1775204D2*
X1927723D1*
X2066415D2*
X2179676D1*
X2261288D2*
X2435584D1*
X2540780D2*
X2648183D1*
X2755379D2*
X2879286D1*
X3159676D2*
X3266103D1*
X434726Y1691356D2*
X532948D1*
X691463D2*
X892226D1*
X1763290D2*
X1927723D1*
X2066415D2*
X2179676D1*
X2261288D2*
X2435584D1*
X2540780D2*
X2585634D1*
X2755379D2*
X2874696D1*
X3130428D2*
X3266103D1*
X434726Y1666487D2*
X525135D1*
X699276D2*
X867372D1*
X1788143D2*
X1922450D1*
X2066415D2*
X2179676D1*
X2261288D2*
X2435584D1*
X2540780D2*
X2561318D1*
X2755379D2*
X2877040D1*
X3059970D2*
X3266103D1*
X434726Y1641618D2*
X524990D1*
X795810D2*
X842519D1*
X987996D2*
X1074744D1*
X1385848D2*
X1423768D1*
X1843416D2*
X1865223D1*
X2143416D2*
X2179676D1*
X2261288D2*
X2435584D1*
X2540780D2*
X2554221D1*
X2755379D2*
X2886952D1*
X3050058D2*
X3266103D1*
X434726Y1616750D2*
X532460D1*
X815340D2*
X833192D1*
X963143D2*
X1049891D1*
X1410751D2*
X1423760D1*
X1974960D2*
X1984773D1*
X2260898D2*
X2435584D1*
X2540780D2*
X2557607D1*
X2775546D2*
X2908046D1*
X3028963D2*
X3266103D1*
X434726Y1591881D2*
X550428D1*
X824324D2*
X833221D1*
X938436D2*
X1025038D1*
X1962362D2*
X1984803D1*
X2246982D2*
X2435584D1*
X2540780D2*
X2574012D1*
X2782772D2*
X3266103D1*
X434726Y1567012D2*
X638660D1*
X1149618D2*
X1311024D1*
X1460458D2*
X1655995D1*
X1952694D2*
X1984803D1*
X2245566D2*
X2435584D1*
X2540780D2*
X2561610D1*
X2779452D2*
X3266103D1*
X434726Y1542143D2*
X643983D1*
X820566D2*
X833192D1*
X1124764D2*
X1335878D1*
X1485360D2*
X1984803D1*
X2066415D2*
X2151551D1*
X2270419D2*
X2435584D1*
X2540780D2*
X2554294D1*
X2763240D2*
X3266103D1*
X434726Y1517274D2*
X657851D1*
X806698D2*
X833192D1*
X1128671D2*
X1360780D1*
X1510214D2*
X1680898D1*
X1723836D2*
X1780898D1*
X1823836D2*
X1880898D1*
X1923836D2*
X1984803D1*
X2160898D2*
X2181971D1*
X2295322D2*
X2435584D1*
X2775252D2*
X3266103D1*
X434726Y1492406D2*
X687928D1*
X776668D2*
X833192D1*
X1372860D2*
X1385593D1*
X1535067D2*
X1651259D1*
X1953475D2*
X1984803D1*
X2160898D2*
X2206824D1*
X2320175D2*
X2437587D1*
X2782723D2*
X3266103D1*
X434726Y1467537D2*
X833192D1*
X1386679D2*
X1410487D1*
X1559920D2*
X1643935D1*
X1960799D2*
X1989638D1*
X2160898D2*
X2231679D1*
X2338436D2*
X2457752D1*
X2779647D2*
X3266103D1*
X434726Y1442668D2*
X833192D1*
X1401131D2*
X1435390D1*
X1584823D2*
X1648280D1*
X1956406D2*
X2012490D1*
X2160898D2*
X2254628D1*
X2343807D2*
X2482607D1*
X2763827D2*
X3266103D1*
X434726Y1417799D2*
X833192D1*
X1406795D2*
X1460243D1*
X1835702D2*
X1869032D1*
X1935702D2*
X2021864D1*
X2160898D2*
X2260146D1*
X2338240D2*
X2507460D1*
X2774960D2*
X3266103D1*
X434726Y1392931D2*
X833192D1*
X1396054D2*
X1485096D1*
X1781844D2*
X1982020D1*
X2110946D2*
X2572939D1*
X2782675D2*
X3266103D1*
X434726Y1368062D2*
X838172D1*
X1360019D2*
X1509950D1*
X1771639D2*
X1965076D1*
X2537362D2*
X2562196D1*
X2779843D2*
X3266103D1*
X434726Y1343193D2*
X861610D1*
X1209335D2*
X1534852D1*
X1774814D2*
X1966688D1*
X2782919D2*
X3266103D1*
X434726Y1318324D2*
X886463D1*
X1192244D2*
X1233486D1*
X1286191D2*
X1684120D1*
X1820614D2*
X1884120D1*
X1920614D2*
X1992420D1*
X2782919D2*
X2923572D1*
X3013436D2*
X3266103D1*
X434726Y1293456D2*
X913319D1*
X1167391D2*
X1216298D1*
X1339999D2*
X1651844D1*
X1952840D2*
X2022352D1*
X2782919D2*
X2893836D1*
X3043172D2*
X3266103D1*
X434726Y1268587D2*
X937196D1*
X1146492D2*
X1193886D1*
X1343368D2*
X1643983D1*
X1960751D2*
X2043983D1*
X2343759D2*
X2495252D1*
X2782919D2*
X2880116D1*
X3056894D2*
X3266103D1*
X434726Y1243718D2*
X921230D1*
X1159872D2*
X1168983D1*
X1329452D2*
X1647890D1*
X1956844D2*
X2047890D1*
X2338436D2*
X2520155D1*
X2782919D2*
X2874843D1*
X3062167D2*
X3266103D1*
X434726Y1218849D2*
X918055D1*
X1293563D2*
X1667470D1*
X1737215D2*
X1767470D1*
X1837215D2*
X1867470D1*
X1937215D2*
X2067470D1*
X2137215D2*
X2876551D1*
X3150692D2*
X3266103D1*
X434726Y1193981D2*
X671474D1*
X793075D2*
X925428D1*
X1268710D2*
X2885634D1*
X3168466D2*
X3266103D1*
X434726Y1169112D2*
X650526D1*
X814023D2*
X950379D1*
X1245516D2*
X2905311D1*
X3175839D2*
X3266103D1*
X434726Y1144243D2*
X640760D1*
X823788D2*
X1025282D1*
X1245516D2*
X3001551D1*
X3175595D2*
X3266103D1*
X434726Y1119374D2*
X569814D1*
X826034D2*
X1049940D1*
X1245516D2*
X3009511D1*
X3167684D2*
X3266103D1*
X434726Y1094505D2*
X540858D1*
X821395D2*
X1102284D1*
X1245516D2*
X3028163D1*
X3148983D2*
X3266103D1*
X434726Y1069637D2*
X528163D1*
X808504D2*
X1102675D1*
X1245126D2*
X3266103D1*
X434726Y1044768D2*
X524159D1*
X780966D2*
X1119960D1*
X1227840D2*
X3266103D1*
X434726Y1019899D2*
X527528D1*
X696883D2*
X3266103D1*
X434726Y995030D2*
X539344D1*
X685067D2*
X3266103D1*
X434726Y970162D2*
X566004D1*
X658407D2*
X3266103D1*
X434726Y945293D2*
X3266103D1*
X434726Y920424D2*
X3266103D1*
X434726Y895555D2*
X3266103D1*
X434726Y870687D2*
X3266103D1*
X434726Y845818D2*
X3266103D1*
X434726Y820949D2*
X3266103D1*
X434726Y796080D2*
X3266103D1*
X434726Y771211D2*
X3266103D1*
X434726Y746343D2*
X3266103D1*
X434726Y721474D2*
X3266103D1*
X434726Y696605D2*
X3266103D1*
X434726Y671736D2*
X490223D1*
X577499D2*
X3122108D1*
X3208603D2*
X3266103D1*
X434726Y646868D2*
X446261D1*
X621492D2*
X3077870D1*
X3252840D2*
X3266104D1*
X643906Y621999D2*
X3055408D1*
X657382Y597130D2*
X3041883D1*
X664755Y572261D2*
X3034462D1*
X667099Y547393D2*
X3032118D1*
X664656Y522524D2*
X3034511D1*
X657187Y497655D2*
X3041982D1*
X643563Y472786D2*
X3055555D1*
X620907Y447918D2*
X3078163D1*
X3252547D2*
X3266088D1*
X2586664Y3762910D2*
X2666519D1*
Y3601658D1*
X2574164D1*
Y3631785D1*
X1485201Y3631792D1*
X1485154Y3470473D1*
X1484463Y3461709D1*
X1482406Y3453146D1*
X2417268Y3453159D1*
X2456778Y3492638D1*
X2456776Y3562910D1*
X2578658D1*
Y3548701D1*
X2585876Y3553929D1*
X2594395Y3558271D1*
X2603491Y3561226D1*
X2612936Y3562722D1*
X2622498D1*
X2631942Y3561226D1*
X2641038Y3558271D1*
X2649558Y3553929D1*
X2657294Y3548309D1*
X2664057Y3541546D1*
X2665063Y3540269D1*
X2758977Y3540272D1*
X2758941Y3601628D1*
X2753692Y3601658D1*
Y3762910D1*
X2846046D1*
Y3760713D1*
X2975432Y3760744D1*
X2975477Y3768618D1*
X2993495D1*
X2989962Y3772330D1*
X2978654Y3772798D1*
X2972810Y3774202D1*
X2967256Y3776502D1*
X2962131Y3779642D1*
X2957562Y3783546D1*
X2879773Y3861335D1*
X2845816Y3861303D1*
X2845849Y3798508D1*
X2574361D1*
Y3899533D1*
X1609373Y3899571D1*
X1484546Y3774702D1*
X1482315Y3765151D1*
X1478834Y3756746D1*
X1474079Y3748987D1*
X1468170Y3742067D1*
X1467086Y3741066D1*
X1485154Y3741059D1*
Y3732807D1*
X2574162Y3732776D1*
X2574164Y3762910D1*
X2586664D1*
X1319626Y3814503D2*
X1318251Y3805820D1*
X1315536Y3797460D1*
X1311545Y3789628D1*
X1306377Y3782516D1*
X1300162Y3776301D1*
X1293050Y3771133D1*
X1285218Y3767142D1*
X1276857Y3764427D1*
X1268175Y3763051D1*
X1259385D1*
X1250702Y3764427D1*
X1242341Y3767142D1*
X1234509Y3771133D1*
X1227398Y3776301D1*
X1221183Y3782516D1*
X1216015Y3789628D1*
X1212024Y3797460D1*
X1209309Y3805820D1*
X1207933Y3814503D1*
Y3823293D1*
X1209309Y3831975D1*
X1212024Y3840336D1*
X1216015Y3848168D1*
X1221183Y3855280D1*
X1227398Y3861495D1*
X1234509Y3866663D1*
X1242341Y3870654D1*
X1250702Y3873369D1*
X1259385Y3874744D1*
X1268175D1*
X1276857Y3873369D1*
X1285218Y3870654D1*
X1293050Y3866663D1*
X1300162Y3861495D1*
X1306377Y3855280D1*
X1311545Y3848168D1*
X1315536Y3840336D1*
X1318251Y3831975D1*
X1319626Y3823293D1*
Y3814503D1*
X2338683Y3315862D2*
X2396571D1*
Y3298138D1*
X2558960Y3298146D1*
X2724461Y3463670D1*
X2665164Y3463666D1*
X2657294Y3455629D1*
X2649558Y3450008D1*
X2641038Y3445667D1*
X2631942Y3442711D1*
X2622498Y3441215D1*
X2612936D1*
X2603491Y3442711D1*
X2594395Y3445667D1*
X2585876Y3450008D1*
X2578652Y3455223D1*
X2578658Y3441028D1*
X2508166Y3440810D1*
X2456114Y3388918D1*
X2451482Y3385553D1*
X2446379Y3382953D1*
X2440933Y3381183D1*
X2435278Y3380288D1*
X2294915Y3380175D1*
X1490082D1*
X1485630Y3374918D1*
X2266785Y3374799D1*
X2272722Y3373860D1*
X2278437Y3372002D1*
X2283793Y3369273D1*
X2288655Y3365740D1*
X2338684Y3315879D1*
X2383181Y2825864D2*
X2376933Y2819608D1*
X2369822Y2814440D1*
X2361990Y2810449D1*
X2353629Y2807734D1*
X2344946Y2806358D1*
X2336156D1*
X2327474Y2807734D1*
X2319113Y2810449D1*
X2311281Y2814440D1*
X2304170Y2819608D1*
X2297954Y2825823D1*
X2292786Y2832935D1*
X2288795Y2840767D1*
X2286080Y2849128D1*
X2284705Y2857810D1*
Y2866600D1*
X2286080Y2875282D1*
X2288795Y2883643D1*
X2292786Y2891475D1*
X2297954Y2898587D1*
X2304170Y2904802D1*
X2311281Y2909970D1*
X2319113Y2913961D1*
X2327474Y2916676D1*
X2336156Y2918051D1*
X2344946D1*
X2353629Y2916676D1*
X2361990Y2913961D1*
X2369822Y2909970D1*
X2376933Y2904802D1*
X2383181Y2898546D1*
X2470288Y2898540D1*
X2466881Y2905096D1*
X2464832Y2911399D1*
X2463795Y2917946D1*
Y2924574D1*
X2464832Y2931121D1*
X2467603Y2938990D1*
Y3056953D1*
X2432936Y3091637D1*
X2280614Y3091730D1*
X2274983Y3092622D1*
X2269561Y3094385D1*
X2264481Y3096973D1*
X2259868Y3100324D1*
X2255836Y3104356D1*
X2252484Y3108969D1*
X2251086Y3111467D1*
X2250902Y3024410D1*
X2250784Y2945814D1*
X2249844Y2939877D1*
X2247986Y2934162D1*
X2245257Y2928806D1*
X2241725Y2923944D1*
X2217789Y2900008D1*
X2212927Y2896475D1*
X2207571Y2893747D1*
X2201856Y2891890D1*
X2195919Y2890949D1*
X2122835Y2890831D1*
X2116843Y2891302D1*
X2113882Y2891893D1*
X2099936Y2891792D1*
X2091253Y2893167D1*
X2082893Y2895882D1*
X2075061Y2899873D1*
X2067949Y2905041D1*
X2061734Y2911256D1*
X2056566Y2918368D1*
X2052575Y2926200D1*
X2049860Y2934561D1*
X2048484Y2943243D1*
Y2952033D1*
X2049860Y2960715D1*
X2052575Y2969076D1*
X2056566Y2976908D1*
X2061734Y2984020D1*
X2067949Y2990235D1*
X2075061Y2995403D1*
X2082893Y2999394D1*
X2091253Y3002109D1*
X2099936Y3003484D1*
X2108726D1*
X2117408Y3002109D1*
X2125769Y2999394D1*
X2133601Y2995403D1*
X2140713Y2990235D1*
X2146928Y2984020D1*
X2152096Y2976908D1*
X2156087Y2969076D1*
X2156687Y2967448D1*
X2174251Y2967437D1*
X2174295Y3208536D1*
X2163977Y3209729D1*
X1567053D1*
X1561925Y3195473D1*
Y2875112D1*
X1590576Y2903613D1*
X1595189Y2906965D1*
X1600269Y2909553D1*
X1605692Y2911315D1*
X1611323Y2912208D1*
X1660805Y2912319D1*
X1656566Y2918368D1*
X1652575Y2926200D1*
X1649860Y2934561D1*
X1648484Y2943243D1*
Y2952033D1*
X1649860Y2960715D1*
X1652575Y2969076D1*
X1656566Y2976908D1*
X1661734Y2984020D1*
X1667949Y2990235D1*
X1675061Y2995403D1*
X1682893Y2999394D1*
X1691253Y3002109D1*
X1699936Y3003484D1*
X1708726D1*
X1717408Y3002109D1*
X1725769Y2999394D1*
X1733601Y2995403D1*
X1740713Y2990235D1*
X1746928Y2984020D1*
X1752096Y2976908D1*
X1754418Y2973070D1*
X1759011Y2980566D1*
X1764719Y2987250D1*
X1771403Y2992958D1*
X1778899Y2997551D1*
X1787020Y3000916D1*
X1795567Y3002967D1*
X1804331Y3003658D1*
X1813095Y3002967D1*
X1821642Y3000916D1*
X1829763Y2997551D1*
X1837259Y2992958D1*
X1843942Y2987250D1*
X1849651Y2980566D1*
X1854324Y2972899D1*
X1859011Y2980566D1*
X1864719Y2987250D1*
X1871403Y2992958D1*
X1878899Y2997551D1*
X1887020Y3000916D1*
X1895567Y3002967D1*
X1904331Y3003658D1*
X1913095Y3002967D1*
X1921642Y3000916D1*
X1929763Y2997551D1*
X1937259Y2992958D1*
X1943942Y2987250D1*
X1949651Y2980566D1*
X1954244Y2973070D1*
X1957609Y2964949D1*
X1959660Y2956402D1*
X1960351Y2947638D1*
X1959660Y2938874D1*
X1957609Y2930327D1*
X1954244Y2922206D1*
X1949651Y2914710D1*
X1943942Y2908026D1*
X1937259Y2902318D1*
X1929763Y2897725D1*
X1921642Y2894360D1*
X1913095Y2892309D1*
X1904331Y2891618D1*
X1895567Y2892309D1*
X1887020Y2894360D1*
X1878899Y2897725D1*
X1871403Y2902318D1*
X1864719Y2908026D1*
X1859011Y2914710D1*
X1854337Y2922377D1*
X1849651Y2914710D1*
X1843425Y2907547D1*
X1843310Y2894788D1*
X1842418Y2889156D1*
X1840655Y2883734D1*
X1838067Y2878654D1*
X1834715Y2874041D1*
X1821832Y2860811D1*
X1829664Y2856820D1*
X1836776Y2851652D1*
X1842991Y2845437D1*
X1848159Y2838326D1*
X1850481Y2834487D1*
X1855074Y2841983D1*
X1860782Y2848667D1*
X1867466Y2854376D1*
X1874962Y2858969D1*
X1883083Y2862334D1*
X1891630Y2864385D1*
X1900394Y2865075D1*
X1909158Y2864385D1*
X1917705Y2862334D1*
X1925826Y2858969D1*
X1933322Y2854376D1*
X1940005Y2848667D1*
X1945714Y2841983D1*
X1950307Y2834487D1*
X1953672Y2826366D1*
X1955723Y2817819D1*
X1956414Y2809055D1*
X1955723Y2800292D1*
X1955151Y2797410D1*
X1981928Y2770643D1*
X2044340Y2770650D1*
X2044374Y2865075D1*
X2156414D1*
Y2834752D1*
X2271772Y2719404D1*
X2467966Y2719406D1*
X2471732Y2725616D1*
X2476037Y2730656D1*
X2481078Y2734961D1*
X2486729Y2738424D1*
X2492853Y2740961D1*
X2499298Y2742508D1*
X2505906Y2743028D1*
X2512513Y2742508D1*
X2518958Y2740961D1*
X2525083Y2738424D1*
X2530734Y2734961D1*
X2535774Y2730656D1*
X2540079Y2725616D1*
X2543542Y2719965D1*
X2546079Y2713840D1*
X2547626Y2707395D1*
X2548146Y2700788D1*
X2547626Y2694180D1*
X2546079Y2687735D1*
X2543542Y2681610D1*
X2540079Y2675960D1*
X2535774Y2670919D1*
X2530734Y2666614D1*
X2525083Y2663151D1*
X2518498Y2660484D1*
X2513305Y2654019D1*
X2508735Y2650114D1*
X2503610Y2646974D1*
X2498057Y2644675D1*
X2492213Y2643271D1*
X2486221Y2642799D1*
X2275918D1*
X2518194Y2400486D1*
X2616870Y2400402D1*
X2622196Y2399558D1*
X2627324Y2397893D1*
X2632130Y2395444D1*
X2636492Y2392274D1*
X2640306Y2388461D1*
X2642802Y2385107D1*
X2642799Y2455626D1*
X2758776D1*
Y2451768D1*
X2765991Y2454024D1*
X2774978Y2455448D1*
X2784078D1*
X2793065Y2454024D1*
X2801719Y2451211D1*
X2809827Y2447082D1*
X2817188Y2441732D1*
X2823622Y2435298D1*
X2828971Y2427937D1*
X2833101Y2419830D1*
X2835914Y2411175D1*
X2837337Y2402188D1*
Y2393088D1*
X2835914Y2384101D1*
X2833101Y2375446D1*
X2828971Y2367339D1*
X2823622Y2359978D1*
X2817188Y2353544D1*
X2810196Y2348442D1*
X2817188Y2343307D1*
X2823622Y2336873D1*
X2828971Y2329512D1*
X2833101Y2321404D1*
X2835914Y2312750D1*
X2837337Y2303763D1*
Y2294663D1*
X2836709Y2289671D1*
X2883883Y2336684D1*
X2888496Y2340036D1*
X2893576Y2342624D1*
X2898999Y2344386D1*
X2904630Y2345278D1*
X2947568Y2345390D1*
X3018769Y2416610D1*
X3018784Y2612855D1*
X2941625Y2690062D1*
X2751087Y2690155D1*
X2745456Y2691047D1*
X2740033Y2692810D1*
X2734953Y2695398D1*
X2730340Y2698750D1*
X2631017Y2797912D1*
X2603086Y2825845D1*
X2383198Y2825870D1*
X1454200Y2788460D2*
X1449768Y2784175D1*
X1442656Y2779007D1*
X1434824Y2775016D1*
X1426463Y2772301D1*
X1417781Y2770925D1*
X1408991D1*
X1400309Y2772301D1*
X1391948Y2775016D1*
X1384116Y2779007D1*
X1377004Y2784175D1*
X1370789Y2790390D1*
X1365621Y2797502D1*
X1361630Y2805334D1*
X1358915Y2813694D1*
X1357540Y2822377D1*
Y2831167D1*
X1357840Y2833709D1*
X1262269Y2929288D1*
X1149214Y2929282D1*
X1142584Y2922547D1*
X1135722Y2917562D1*
X1128166Y2913711D1*
X1120099Y2911091D1*
X1111407Y2909752D1*
X1110038Y2901030D1*
X1107418Y2892963D1*
X1103567Y2885407D1*
X1101475Y2882278D1*
X1184587Y2882160D1*
X1189912Y2881316D1*
X1195041Y2879651D1*
X1199847Y2877202D1*
X1204217Y2874025D1*
X1206135Y2873425D1*
X1212129Y2875116D1*
X1218352Y2875361D1*
X1224460Y2874146D1*
X1230116Y2871538D1*
X1235005Y2867683D1*
X1269705Y2832983D1*
X1278576Y2834630D1*
X1285204D1*
X1291751Y2833593D1*
X1298054Y2831545D1*
X1303961Y2828536D1*
X1309323Y2824639D1*
X1314009Y2819953D1*
X1317906Y2814591D1*
X1320915Y2808684D1*
X1322963Y2802381D1*
X1324000Y2795834D1*
Y2789206D1*
X1322963Y2782659D1*
X1320915Y2776356D1*
X1317906Y2770449D1*
X1314009Y2765087D1*
X1309323Y2760400D1*
X1303961Y2756504D1*
X1298054Y2753495D1*
X1291751Y2751446D1*
X1288513Y2750542D1*
X1267831Y2729860D1*
X1269659Y2721973D1*
X1270324Y2713517D1*
X1269659Y2705062D1*
X1267679Y2696815D1*
X1264433Y2688979D1*
X1260002Y2681747D1*
X1254494Y2675297D1*
X1248044Y2669789D1*
X1240811Y2665357D1*
X1232975Y2662112D1*
X1224729Y2660131D1*
X1216273Y2659466D1*
X1207818Y2660131D1*
X1200639Y2661810D1*
X1200217Y2650923D1*
X1198957Y2645680D1*
X1196894Y2640697D1*
X1194076Y2636100D1*
X1190574Y2631999D1*
X1129496Y2570921D1*
X1131141Y2566159D1*
X1131873Y2559974D1*
X1131141Y2553789D1*
X1128986Y2547946D1*
X1125525Y2542769D1*
X1092108Y2509235D1*
X1098189Y2506061D1*
X1105051Y2501075D1*
X1111049Y2495078D1*
X1116034Y2488215D1*
X1119885Y2480659D1*
X1122505Y2472592D1*
X1123832Y2464214D1*
Y2455734D1*
X1122505Y2447356D1*
X1119885Y2439289D1*
X1116034Y2431732D1*
X1111049Y2424870D1*
X1105051Y2418873D1*
X1098189Y2413887D1*
X1090633Y2410037D1*
X1082566Y2407416D1*
X1074188Y2406089D1*
X1065708D1*
X1057330Y2407416D1*
X1049263Y2410037D1*
X1041706Y2413887D1*
X1034844Y2418873D1*
X1028847Y2424870D1*
X1023861Y2431732D1*
X1020011Y2439289D1*
X1017390Y2447356D1*
X1016051Y2456047D1*
X1007330Y2457416D1*
X999263Y2460037D1*
X991706Y2463887D1*
X984844Y2468873D1*
X978847Y2474870D1*
X973861Y2481732D1*
X970011Y2489289D1*
X967390Y2497356D1*
X966063Y2505734D1*
X965902Y2509858D1*
X919563Y2556189D1*
X908432Y2556185D1*
X900920Y2550584D1*
X893721Y2546916D1*
X886037Y2544419D1*
X878055Y2543155D1*
X869977D1*
X861995Y2544419D1*
X854311Y2546916D1*
X847112Y2550584D1*
X840575Y2555334D1*
X834861Y2561047D1*
X830112Y2567584D1*
X826444Y2574784D1*
X823946Y2582467D1*
X822683Y2590449D1*
Y2598528D1*
X823946Y2606509D1*
X826444Y2614193D1*
X830112Y2621393D1*
X834861Y2627929D1*
X840575Y2633643D1*
X847112Y2638393D1*
X854311Y2642061D1*
X861995Y2644558D1*
X869977Y2645822D1*
X878055D1*
X886037Y2644558D1*
X893721Y2642061D1*
X900920Y2638393D1*
X908373Y2632797D1*
X938439Y2632673D1*
X944376Y2631734D1*
X950091Y2629876D1*
X955446Y2627147D1*
X960309Y2623614D1*
X1011303Y2572786D1*
X1014370Y2577179D1*
X1052743Y2615551D1*
X1057920Y2619012D1*
X1063763Y2621167D1*
X1069948Y2621899D1*
X1076133Y2621167D1*
X1081003Y2619630D1*
X1131929Y2670557D1*
X1131907Y2721778D1*
X1125172Y2728414D1*
X1120187Y2735276D1*
X1116336Y2742832D1*
X1113715Y2750899D1*
X1112389Y2759277D1*
Y2767757D1*
X1113715Y2776135D1*
X1116336Y2784202D1*
X1120187Y2791759D1*
X1125172Y2798621D1*
X1131170Y2804618D1*
X1138032Y2809604D1*
X1145822Y2813540D1*
X1021057Y2813641D1*
X1015731Y2814484D1*
X1010603Y2816150D1*
X1005797Y2818599D1*
X1001435Y2821768D1*
X981465Y2841588D1*
X981373Y2800059D1*
X980529Y2794734D1*
X978864Y2789605D1*
X976415Y2784799D1*
X973246Y2780437D1*
X856508Y2663551D1*
X821878Y2628920D1*
X821899Y2561487D1*
X854086Y2529143D1*
X857255Y2524781D1*
X859704Y2519975D1*
X861369Y2514847D1*
X862213Y2509521D1*
X862319Y2447693D1*
X872282Y2442357D1*
X884391Y2433559D1*
X894977Y2422974D1*
X903774Y2410865D1*
X910570Y2397528D1*
X915196Y2383292D1*
X917537Y2368508D1*
Y2353540D1*
X915196Y2338756D1*
X910570Y2324520D1*
X903774Y2311183D1*
X894977Y2299074D1*
X894122Y2298150D1*
X984936Y2298146D1*
X1475285Y2788481D1*
X1454299Y2788469D1*
X2767370Y1349327D2*
X2780429D1*
Y1225477D1*
X2656579D1*
X2656289Y1227159D1*
X2651046Y1225899D1*
X2645670Y1225477D1*
X2552421Y1225583D1*
X2547096Y1226427D1*
X2541967Y1228092D1*
X2537162Y1230541D1*
X2532799Y1233710D1*
X2485760Y1280600D1*
X2338331Y1280595D1*
X2340286Y1274428D1*
X2341323Y1267881D1*
Y1261253D1*
X2340286Y1254706D1*
X2338238Y1248403D1*
X2335229Y1242496D1*
X2331332Y1237134D1*
X2326646Y1232448D1*
X2321284Y1228551D1*
X2315377Y1225542D1*
X2309074Y1223494D1*
X2302526Y1222457D1*
X2295899D1*
X2289352Y1223494D1*
X2281483Y1226264D1*
X2143208D1*
X2138744Y1221970D1*
X2131633Y1216802D1*
X2123801Y1212811D1*
X2115440Y1210096D1*
X2106757Y1208721D1*
X2097967D1*
X2089285Y1210096D1*
X2080924Y1212811D1*
X2073092Y1216802D1*
X2065981Y1221970D1*
X2059765Y1228185D1*
X2054597Y1235297D1*
X2050607Y1243129D1*
X2047891Y1251490D1*
X2046516Y1260172D1*
Y1268962D1*
X2047891Y1277645D1*
X2048763Y1280736D1*
X2041349Y1282277D1*
X2036366Y1284340D1*
X2031769Y1287158D1*
X2027668Y1290660D1*
X2001739Y1316589D1*
X1995609Y1318095D1*
X1989484Y1320631D1*
X1983834Y1324095D1*
X1978793Y1328399D1*
X1974488Y1333440D1*
X1971025Y1339091D1*
X1968488Y1345215D1*
X1966941Y1351660D1*
X1966421Y1358268D1*
X1966941Y1364876D1*
X1968488Y1371320D1*
X1971025Y1377445D1*
X1974488Y1383096D1*
X1978793Y1388137D1*
X1983834Y1392441D1*
X1989484Y1395904D1*
X1995609Y1398441D1*
X2002054Y1399988D1*
X2008662Y1400508D1*
X2017239Y1399596D1*
X2018882Y1406753D1*
X2021419Y1412878D1*
X2024882Y1418529D1*
X2029187Y1423570D1*
X2034885Y1428313D1*
X2027231Y1431908D1*
X2022369Y1435441D1*
X1996465Y1461345D1*
X1992932Y1466208D1*
X1990204Y1471563D1*
X1988345Y1477278D1*
X1987406Y1483215D1*
X1987288Y1611221D1*
Y1631582D1*
X1960107Y1604419D1*
X1960177Y1594818D1*
X1958802Y1586135D1*
X1956087Y1577774D1*
X1952096Y1569942D1*
X1946928Y1562831D1*
X1940713Y1556616D1*
X1933601Y1551448D1*
X1925769Y1547457D1*
X1917408Y1544742D1*
X1908726Y1543366D1*
X1899936D1*
X1891253Y1544742D1*
X1882893Y1547457D1*
X1875061Y1551448D1*
X1867949Y1556616D1*
X1861734Y1562831D1*
X1856566Y1569942D1*
X1854244Y1573781D1*
X1849651Y1566285D1*
X1843942Y1559601D1*
X1837259Y1553893D1*
X1829763Y1549299D1*
X1821642Y1545935D1*
X1813095Y1543883D1*
X1804331Y1543193D1*
X1795567Y1543883D1*
X1787020Y1545935D1*
X1778899Y1549299D1*
X1771403Y1553893D1*
X1764719Y1559601D1*
X1759011Y1566285D1*
X1754337Y1573952D1*
X1749651Y1566285D1*
X1743942Y1559601D1*
X1737259Y1553893D1*
X1729763Y1549299D1*
X1721642Y1545935D1*
X1713095Y1543883D1*
X1704331Y1543193D1*
X1695567Y1543883D1*
X1687020Y1545935D1*
X1678899Y1549299D1*
X1671403Y1553893D1*
X1664719Y1559601D1*
X1659011Y1566285D1*
X1654418Y1573781D1*
X1651053Y1581902D1*
X1649440Y1588242D1*
X1645914Y1582163D1*
X1642411Y1578062D1*
X1638310Y1574559D1*
X1633713Y1571742D1*
X1628730Y1569679D1*
X1623487Y1568419D1*
X1618110Y1567996D1*
X1568170Y1568103D1*
X1562844Y1568946D1*
X1557715Y1570612D1*
X1552910Y1573061D1*
X1548547Y1576230D1*
X1544734Y1580044D1*
X1541559Y1584415D1*
X1541113Y1584406D1*
X1537944Y1580044D1*
X1534130Y1576230D1*
X1529768Y1573061D1*
X1524962Y1570612D1*
X1519834Y1568946D1*
X1514508Y1568103D1*
X1457923Y1568104D1*
X1460110Y1564869D1*
X1598873Y1426107D1*
X1661647Y1426099D1*
X1657042Y1431639D1*
X1652449Y1439135D1*
X1649084Y1447256D1*
X1647033Y1455803D1*
X1646343Y1464567D1*
X1647033Y1473331D1*
X1649084Y1481878D1*
X1652449Y1489999D1*
X1657042Y1497495D1*
X1662751Y1504179D1*
X1669435Y1509887D1*
X1676931Y1514481D1*
X1685051Y1517845D1*
X1693599Y1519897D1*
X1702362Y1520587D1*
X1711126Y1519897D1*
X1719673Y1517845D1*
X1727794Y1514481D1*
X1735290Y1509887D1*
X1741974Y1504179D1*
X1747683Y1497495D1*
X1752356Y1489828D1*
X1757042Y1497495D1*
X1762751Y1504179D1*
X1769435Y1509887D1*
X1776931Y1514481D1*
X1785051Y1517845D1*
X1793599Y1519897D1*
X1802362Y1520587D1*
X1811126Y1519897D1*
X1819673Y1517845D1*
X1827794Y1514481D1*
X1835290Y1509887D1*
X1841974Y1504179D1*
X1847683Y1497495D1*
X1852356Y1489828D1*
X1857042Y1497495D1*
X1862751Y1504179D1*
X1869435Y1509887D1*
X1876931Y1514481D1*
X1885051Y1517845D1*
X1893599Y1519897D1*
X1902362Y1520587D1*
X1911126Y1519897D1*
X1919673Y1517845D1*
X1927794Y1514481D1*
X1935290Y1509887D1*
X1941974Y1504179D1*
X1947683Y1497495D1*
X1952276Y1489999D1*
X1955641Y1481878D1*
X1957692Y1473331D1*
X1958382Y1464567D1*
X1957692Y1455803D1*
X1955641Y1447256D1*
X1952276Y1439135D1*
X1947683Y1431639D1*
X1941974Y1424956D1*
X1935290Y1419247D1*
X1927794Y1414654D1*
X1919673Y1411289D1*
X1911126Y1409238D1*
X1902362Y1408547D1*
X1893599Y1409238D1*
X1885051Y1411289D1*
X1876931Y1414654D1*
X1869435Y1419247D1*
X1862751Y1424956D1*
X1857042Y1431639D1*
X1852369Y1439306D1*
X1847683Y1431639D1*
X1841974Y1424956D1*
X1835290Y1419247D1*
X1827794Y1414654D1*
X1819673Y1411289D1*
X1811126Y1409238D1*
X1802362Y1408547D1*
X1795425Y1409021D1*
X1764343Y1377946D1*
X1767971Y1371419D1*
X1769637Y1366290D1*
X1770481Y1360965D1*
X1770587Y1344937D1*
X1795358Y1320172D1*
X1802362Y1320587D1*
X1811126Y1319897D1*
X1819673Y1317845D1*
X1827794Y1314481D1*
X1835290Y1309887D1*
X1841974Y1304179D1*
X1847683Y1297495D1*
X1852356Y1289828D1*
X1857042Y1297495D1*
X1862751Y1304179D1*
X1869435Y1309887D1*
X1876931Y1314481D1*
X1885051Y1317845D1*
X1893599Y1319897D1*
X1902362Y1320587D1*
X1911126Y1319897D1*
X1919673Y1317845D1*
X1927794Y1314481D1*
X1935290Y1309887D1*
X1941974Y1304179D1*
X1947683Y1297495D1*
X1952276Y1289999D1*
X1955641Y1281878D1*
X1957692Y1273331D1*
X1958382Y1264567D1*
X1957692Y1255803D1*
X1955641Y1247256D1*
X1952276Y1239135D1*
X1947683Y1231639D1*
X1941974Y1224956D1*
X1935290Y1219247D1*
X1927794Y1214654D1*
X1919673Y1211289D1*
X1911126Y1209238D1*
X1902362Y1208547D1*
X1893599Y1209238D1*
X1885051Y1211289D1*
X1876931Y1214654D1*
X1869435Y1219247D1*
X1862751Y1224956D1*
X1857042Y1231639D1*
X1852369Y1239306D1*
X1847683Y1231639D1*
X1841974Y1224956D1*
X1835290Y1219247D1*
X1827794Y1214654D1*
X1819673Y1211289D1*
X1811126Y1209238D1*
X1802362Y1208547D1*
X1793599Y1209238D1*
X1785051Y1211289D1*
X1776931Y1214654D1*
X1769435Y1219247D1*
X1762751Y1224956D1*
X1757042Y1231639D1*
X1752369Y1239306D1*
X1747683Y1231639D1*
X1741974Y1224956D1*
X1735290Y1219247D1*
X1727794Y1214654D1*
X1719673Y1211289D1*
X1711126Y1209238D1*
X1702362Y1208547D1*
X1693599Y1209238D1*
X1685051Y1211289D1*
X1676931Y1214654D1*
X1669435Y1219247D1*
X1662751Y1224956D1*
X1657042Y1231639D1*
X1652449Y1239135D1*
X1649084Y1247256D1*
X1647033Y1255803D1*
X1646343Y1264567D1*
X1647033Y1273331D1*
X1649084Y1281878D1*
X1652449Y1289999D1*
X1657042Y1297495D1*
X1662751Y1304179D1*
X1669435Y1309887D1*
X1676931Y1314481D1*
X1685051Y1317845D1*
X1693599Y1319897D1*
X1703376Y1320547D1*
X1702802Y1322697D1*
X1698721Y1323902D1*
X1568170Y1324008D1*
X1562844Y1324852D1*
X1557715Y1326517D1*
X1552910Y1328966D1*
X1548547Y1332135D1*
X1431662Y1448873D1*
X1308574Y1571960D1*
X1151986Y1571933D1*
X1109374Y1529277D1*
X1118683Y1523709D1*
X1126071Y1517398D1*
X1132382Y1510009D1*
X1134038Y1507529D1*
X1140727Y1511257D1*
X1148305Y1513395D1*
X1153544Y1513807D1*
X1185232D1*
X1192914Y1514681D1*
X1198290Y1514259D1*
X1203533Y1512999D1*
X1208516Y1510936D1*
X1213113Y1508118D1*
X1216525Y1505252D1*
X1222201Y1509617D1*
X1227007Y1512066D1*
X1232135Y1513731D1*
X1237461Y1514575D1*
X1290099D1*
X1295424Y1513731D1*
X1300553Y1512066D1*
X1305358Y1509617D1*
X1309721Y1506448D1*
X1313534Y1502634D1*
X1316704Y1498272D1*
X1318026Y1495907D1*
X1323343Y1498267D1*
X1329467Y1500803D1*
X1335912Y1502351D1*
X1342520Y1502870D1*
X1349128Y1502351D1*
X1355572Y1500803D1*
X1361697Y1498267D1*
X1367348Y1494803D1*
X1372389Y1490499D1*
X1376693Y1485458D1*
X1380156Y1479807D1*
X1382693Y1473683D1*
X1384240Y1467238D1*
X1384760Y1460630D1*
X1384601Y1457071D1*
X1389638Y1453379D1*
X1394324Y1448693D1*
X1398221Y1443331D1*
X1401230Y1437424D1*
X1403278Y1431121D1*
X1404315Y1424574D1*
Y1417946D1*
X1403278Y1411399D1*
X1401230Y1405096D1*
X1398221Y1399189D1*
X1394324Y1393827D1*
X1389638Y1389141D1*
X1384276Y1385244D1*
X1378369Y1382235D1*
X1372066Y1380187D1*
X1368828Y1379282D1*
X1356965Y1367568D1*
X1352603Y1364399D1*
X1347797Y1361950D1*
X1342668Y1360285D1*
X1337343Y1359441D1*
X1207546Y1359335D1*
X1207488Y1347697D1*
X1206645Y1342372D1*
X1204979Y1337243D1*
X1202530Y1332437D1*
X1199361Y1328075D1*
X1144185Y1272750D1*
X1143446Y1263923D1*
X1141177Y1254474D1*
X1140277Y1252033D1*
X1148145Y1248389D1*
X1155295Y1245092D1*
X1161478Y1240218D1*
X1162616Y1239080D1*
X1174479Y1246702D1*
X1218156Y1290379D1*
X1219670Y1296517D1*
X1222206Y1302642D1*
X1225670Y1308293D1*
X1229974Y1313334D1*
X1235015Y1317638D1*
X1240666Y1321101D1*
X1246790Y1323638D1*
X1253235Y1325185D1*
X1259843Y1325705D1*
X1266450Y1325185D1*
X1272895Y1323638D1*
X1279020Y1321101D1*
X1284671Y1317638D1*
X1286797Y1315961D1*
X1292605Y1317311D1*
X1299213Y1317831D1*
X1305820Y1317311D1*
X1312265Y1315764D1*
X1318390Y1313227D1*
X1324041Y1309764D1*
X1329082Y1305460D1*
X1333386Y1300419D1*
X1336849Y1294768D1*
X1339386Y1288643D1*
X1340933Y1282198D1*
X1341453Y1275591D1*
X1340933Y1268983D1*
X1339386Y1262538D1*
X1336849Y1256414D1*
X1333386Y1250763D1*
X1329082Y1245722D1*
X1324041Y1241418D1*
X1318390Y1237954D1*
X1312265Y1235418D1*
X1306164Y1233939D1*
X1243032Y1170809D1*
X1242921Y1072107D1*
X1242078Y1066781D1*
X1240412Y1061652D1*
X1237963Y1056847D1*
X1234794Y1052484D1*
X1230981Y1048671D1*
X1226618Y1045502D1*
X1221813Y1043053D1*
X1216684Y1041387D1*
X1211358Y1040544D1*
X1139154Y1040437D1*
X1133777Y1040860D1*
X1128534Y1042120D1*
X1123551Y1044183D1*
X1118954Y1047000D1*
X1114853Y1050503D1*
X1111351Y1054604D1*
X1108533Y1059201D1*
X1106470Y1064184D1*
X1105210Y1069427D1*
X1104788Y1074803D1*
Y1115966D1*
X1096740Y1113408D1*
X1087142Y1111889D1*
X1077425D1*
X1067827Y1113408D1*
X1058586Y1116411D1*
X1049928Y1120823D1*
X1042067Y1126534D1*
X1035196Y1133406D1*
X1029484Y1141267D1*
X1025072Y1149924D1*
X1022070Y1159166D1*
X1020550Y1168764D1*
X1020406Y1174818D1*
X1014639Y1170811D1*
X1005982Y1166399D1*
X996740Y1163397D1*
X987142Y1161877D1*
X977425D1*
X967827Y1163397D1*
X958586Y1166399D1*
X949928Y1170811D1*
X942067Y1176523D1*
X935196Y1183394D1*
X929484Y1191255D1*
X925072Y1199912D1*
X922070Y1209154D1*
X920550Y1218752D1*
Y1228469D1*
X922070Y1238067D1*
X925072Y1247309D1*
X929484Y1255966D1*
X935196Y1263827D1*
X942067Y1270698D1*
X945751Y1273603D1*
X938496Y1279823D1*
X932185Y1287211D1*
X930803Y1289281D1*
X924273Y1290194D1*
X919145Y1291860D1*
X914339Y1294309D1*
X909977Y1297478D1*
X845778Y1361526D1*
X842276Y1365628D1*
X839458Y1370225D1*
X837395Y1375208D1*
X836135Y1380450D1*
X835713Y1385827D1*
X835819Y1620807D1*
X836663Y1626133D1*
X838328Y1631261D1*
X840777Y1636067D1*
X843946Y1640429D1*
X948141Y1744773D1*
X952242Y1748276D1*
X956839Y1751093D1*
X961822Y1753156D1*
X967065Y1754416D1*
X972441Y1754839D1*
X1670146D1*
X1664719Y1759601D1*
X1659011Y1766285D1*
X1654418Y1773781D1*
X1651053Y1781902D1*
X1649002Y1790449D1*
X1648311Y1799213D1*
X1649002Y1807977D1*
X1651053Y1816524D1*
X1654418Y1824645D1*
X1659011Y1832141D1*
X1664719Y1838824D1*
X1671403Y1844533D1*
X1678899Y1849126D1*
X1687020Y1852491D1*
X1695567Y1854542D1*
X1704331Y1855232D1*
X1713095Y1854542D1*
X1721642Y1852491D1*
X1725910Y1850903D1*
X1725769Y1888008D1*
X1717408Y1885293D1*
X1708726Y1883918D1*
X1699936D1*
X1691253Y1885293D1*
X1682893Y1888008D1*
X1675061Y1891999D1*
X1667949Y1897167D1*
X1661734Y1903382D1*
X1656566Y1910494D1*
X1652575Y1918326D1*
X1649860Y1926687D1*
X1648484Y1935369D1*
Y1944159D1*
X1649860Y1952841D1*
X1652575Y1961202D1*
X1656566Y1969034D1*
X1661734Y1976146D1*
X1667949Y1982361D1*
X1675061Y1987529D1*
X1682893Y1991520D1*
X1691253Y1994235D1*
X1699936Y1995610D1*
X1708726D1*
X1717408Y1994235D1*
X1725910Y1991454D1*
X1725769Y2088008D1*
X1717408Y2085293D1*
X1708726Y2083918D1*
X1699936D1*
X1691253Y2085293D1*
X1682893Y2088008D1*
X1675061Y2091999D1*
X1667949Y2097167D1*
X1661734Y2103382D1*
X1656566Y2110494D1*
X1652575Y2118326D1*
X1649860Y2126687D1*
X1648484Y2135369D1*
Y2144159D1*
X1649860Y2152841D1*
X1652575Y2161202D1*
X1656566Y2169034D1*
X1657454Y2170362D1*
X1642672Y2170358D1*
X1637288Y2167088D1*
X1631163Y2164551D1*
X1624718Y2163004D1*
X1618110Y2162484D1*
X1611503Y2163004D1*
X1605058Y2164551D1*
X1598933Y2167088D1*
X1593282Y2170551D1*
X1588242Y2174856D1*
X1583937Y2179897D1*
X1580474Y2185547D1*
X1577937Y2191672D1*
X1576390Y2198117D1*
X1575870Y2204725D1*
X1576390Y2211332D1*
X1577372Y2215771D1*
X1571374Y2218269D1*
X1565723Y2221732D1*
X1560683Y2226037D1*
X1556378Y2231078D1*
X1552915Y2236729D1*
X1550378Y2242853D1*
X1548831Y2249298D1*
X1548311Y2255906D1*
X1548831Y2262513D1*
X1550378Y2268958D1*
X1552915Y2275083D1*
X1556378Y2280734D1*
X1560683Y2285774D1*
X1566251Y2291192D1*
X1677610Y2402402D1*
X1685637Y2408255D1*
X1697902Y2420519D1*
X1689285Y2421907D1*
X1680924Y2424622D1*
X1673092Y2428613D1*
X1665981Y2433781D1*
X1659765Y2439996D1*
X1654597Y2447108D1*
X1650607Y2454940D1*
X1647891Y2463301D1*
X1646516Y2471983D1*
Y2480773D1*
X1647891Y2489456D1*
X1650607Y2497816D1*
X1654597Y2505649D1*
X1659765Y2512760D1*
X1665981Y2518975D1*
X1673092Y2524143D1*
X1680924Y2528134D1*
X1689285Y2530849D1*
X1697967Y2532225D1*
X1706757D1*
X1715440Y2530849D1*
X1723801Y2528134D1*
X1731633Y2524143D1*
X1738744Y2518975D1*
X1744960Y2512760D1*
X1750128Y2505649D1*
X1752449Y2501810D1*
X1757042Y2509306D1*
X1762751Y2515990D1*
X1769435Y2521698D1*
X1776931Y2526292D1*
X1785051Y2529656D1*
X1793599Y2531708D1*
X1802362Y2532398D1*
X1811126Y2531708D1*
X1819673Y2529656D1*
X1827794Y2526292D1*
X1835290Y2521698D1*
X1841974Y2515990D1*
X1847683Y2509306D1*
X1852356Y2501639D1*
X1857042Y2509306D1*
X1862751Y2515990D1*
X1869435Y2521698D1*
X1876931Y2526292D1*
X1885051Y2529656D1*
X1893599Y2531708D1*
X1902362Y2532398D1*
X1911126Y2531708D1*
X1919673Y2529656D1*
X1927794Y2526292D1*
X1935290Y2521698D1*
X1941974Y2515990D1*
X1947683Y2509306D1*
X1952276Y2501810D1*
X1955641Y2493689D1*
X1957692Y2485142D1*
X1958382Y2476378D1*
X1958221Y2472274D1*
X1988612Y2441879D1*
X2046334Y2441847D1*
X2046343Y2532398D1*
X2158382D1*
Y2441822D1*
X2258603Y2441740D1*
X2263928Y2440897D1*
X2269057Y2439231D1*
X2273862Y2436782D1*
X2278225Y2433613D1*
X2395112Y2316877D1*
X2744637Y1967201D1*
X2747806Y1962839D1*
X2750255Y1958033D1*
X2751920Y1952904D1*
X2752764Y1947579D1*
X2752870Y1782382D1*
Y1638974D1*
X2758721Y1634502D1*
X2765592Y1627630D1*
X2771303Y1619769D1*
X2775715Y1611112D1*
X2778718Y1601870D1*
X2780238Y1592272D1*
Y1582555D1*
X2778718Y1572957D1*
X2775715Y1563715D1*
X2771303Y1555058D1*
X2765592Y1547197D1*
X2758721Y1540326D1*
X2755037Y1537421D1*
X2762292Y1531201D1*
X2768603Y1523813D1*
X2773680Y1515526D1*
X2777398Y1506550D1*
X2779667Y1497101D1*
X2780429Y1487414D1*
X2779667Y1477726D1*
X2777398Y1468277D1*
X2773680Y1459301D1*
X2768603Y1451015D1*
X2762292Y1443626D1*
X2755037Y1437421D1*
X2762292Y1431201D1*
X2768603Y1423813D1*
X2773680Y1415526D1*
X2777398Y1406550D1*
X2779667Y1397101D1*
X2780429Y1387414D1*
X2779667Y1377726D1*
X2777398Y1368277D1*
X2773680Y1359301D1*
X2768603Y1351015D1*
X2767274Y1349330D1*
X2557183Y1345761D2*
X2558290Y1351870D1*
X2561293Y1361112D1*
X2565705Y1369769D1*
X2571416Y1377630D1*
X2578288Y1384502D1*
X2581971Y1387406D1*
X2574717Y1393626D1*
X2568406Y1401015D1*
X2567045Y1403053D1*
X2536268Y1403154D1*
X2530942Y1403998D1*
X2525814Y1405663D1*
X2521008Y1408112D1*
X2516646Y1411281D1*
X2448141Y1479637D1*
X2444638Y1483738D1*
X2441820Y1488335D1*
X2439757Y1493318D1*
X2438498Y1498561D1*
X2438075Y1503937D1*
Y1792853D1*
X2225893Y2005034D1*
X2042257Y2005004D1*
X2042240Y1835945D1*
X2047170Y1837046D1*
X2048311Y1843193D1*
Y1855232D1*
X2160351D1*
Y1743193D1*
X2063915D1*
X2063894Y1638011D1*
X2071403Y1644533D1*
X2078899Y1649126D1*
X2087020Y1652491D1*
X2095567Y1654542D1*
X2104331Y1655232D1*
X2113095Y1654542D1*
X2121642Y1652491D1*
X2129763Y1649126D1*
X2137259Y1644533D1*
X2143942Y1638824D1*
X2145145Y1637525D1*
X2150874Y1637045D1*
X2156718Y1635641D1*
X2162272Y1633341D1*
X2167397Y1630201D1*
X2169767Y1628331D1*
X2176597Y1632341D1*
X2182156Y1637900D1*
X2182170Y1844362D1*
X2179399Y1852344D1*
X2178362Y1858891D1*
Y1865519D1*
X2179399Y1872066D1*
X2181448Y1878369D1*
X2184457Y1884276D1*
X2188353Y1889638D1*
X2193040Y1894324D1*
X2198402Y1898221D1*
X2204309Y1901230D1*
X2210612Y1903278D1*
X2217159Y1904315D1*
X2223786D1*
X2230334Y1903278D1*
X2236637Y1901230D1*
X2242544Y1898221D1*
X2247906Y1894324D1*
X2252592Y1889638D1*
X2256488Y1884276D1*
X2259498Y1878369D1*
X2261546Y1872066D1*
X2262583Y1865519D1*
Y1858891D1*
X2261546Y1852344D1*
X2258776Y1844475D1*
X2258658Y1619042D1*
X2257717Y1613105D1*
X2255860Y1607390D1*
X2253131Y1602034D1*
X2249599Y1597172D1*
X2231364Y1578771D1*
X2328339Y1481568D1*
X2331872Y1476706D1*
X2334600Y1471351D1*
X2336458Y1465635D1*
X2338238Y1455141D1*
X2340286Y1448837D1*
X2341323Y1442290D1*
Y1435663D1*
X2340286Y1429116D1*
X2338238Y1422813D1*
X2335229Y1416906D1*
X2331332Y1411544D1*
X2326646Y1406857D1*
X2321284Y1402961D1*
X2315377Y1399952D1*
X2309074Y1397903D1*
X2302526Y1396866D1*
X2295899D1*
X2289352Y1397903D1*
X2283049Y1399952D1*
X2277142Y1402961D1*
X2271780Y1406857D1*
X2267093Y1411544D1*
X2263197Y1416906D1*
X2260188Y1422813D1*
X2258139Y1429116D1*
X2257103Y1435663D1*
Y1442290D1*
X2257351Y1444387D1*
X2161057Y1540681D1*
X2153519Y1542313D1*
X2147965Y1544612D1*
X2142840Y1547752D1*
X2136579Y1553348D1*
X2129763Y1549299D1*
X2121642Y1545935D1*
X2113095Y1543883D1*
X2104331Y1543193D1*
X2095567Y1543883D1*
X2087020Y1545935D1*
X2078899Y1549299D1*
X2071403Y1553893D1*
X2063891Y1560496D1*
X2063894Y1520629D1*
X2158382Y1520587D1*
Y1408547D1*
X2098567D1*
X2100708Y1400652D1*
X2120541Y1380816D1*
X2510571Y1380717D1*
X2515897Y1379873D1*
X2521025Y1378208D1*
X2525831Y1375759D1*
X2530193Y1372589D1*
X2557138Y1345794D1*
X2558646Y1521696D2*
X2557341Y1527726D1*
X2556579Y1537414D1*
X2557341Y1547101D1*
X2559610Y1556550D1*
X2563328Y1565526D1*
X2568406Y1573813D1*
X2574717Y1581201D1*
X2581971Y1587406D1*
X2574717Y1593614D1*
X2568406Y1601003D1*
X2563328Y1609289D1*
X2559610Y1618265D1*
X2557341Y1627714D1*
X2556579Y1637402D1*
X2557341Y1647089D1*
X2559610Y1656538D1*
X2563328Y1665515D1*
X2568406Y1673801D1*
X2574717Y1681189D1*
X2582105Y1687500D1*
X2590391Y1692578D1*
X2599368Y1696295D1*
X2608816Y1698565D1*
X2618504Y1699327D1*
X2628192Y1698565D1*
X2637641Y1696295D1*
X2646617Y1692578D1*
X2650677Y1690303D1*
X2650673Y1918852D1*
X2225944Y2343566D1*
X1998507Y2343587D1*
X1953689Y2298789D1*
X1956834Y2289456D1*
X1958209Y2280773D1*
Y2271983D1*
X1956834Y2263301D1*
X1954118Y2254940D1*
X1950128Y2247108D1*
X1944960Y2239996D1*
X1938744Y2233781D1*
X1931633Y2228613D1*
X1923801Y2224622D1*
X1915440Y2221907D1*
X1906757Y2220532D1*
X1897967D1*
X1889285Y2221907D1*
X1880924Y2224622D1*
X1873092Y2228613D1*
X1865981Y2233781D1*
X1859765Y2239996D1*
X1854597Y2247108D1*
X1852276Y2250946D1*
X1847683Y2243450D1*
X1841974Y2236767D1*
X1835290Y2231058D1*
X1827794Y2226465D1*
X1819673Y2223100D1*
X1811126Y2221049D1*
X1802362Y2220358D1*
X1795425Y2220832D1*
X1753028Y2178592D1*
X1748656Y2175418D1*
X1749651Y2172692D1*
X1754324Y2165025D1*
X1759011Y2172692D1*
X1764719Y2179376D1*
X1771403Y2185084D1*
X1778899Y2189677D1*
X1787020Y2193042D1*
X1795567Y2195093D1*
X1804331Y2195784D1*
X1813095Y2195093D1*
X1821642Y2193042D1*
X1829763Y2189677D1*
X1837259Y2185084D1*
X1843942Y2179376D1*
X1849651Y2172692D1*
X1854324Y2165025D1*
X1859011Y2172692D1*
X1864719Y2179376D1*
X1871403Y2185084D1*
X1878899Y2189677D1*
X1887020Y2193042D1*
X1895567Y2195093D1*
X1904331Y2195784D1*
X1913095Y2195093D1*
X1921642Y2193042D1*
X1929763Y2189677D1*
X1937259Y2185084D1*
X1943942Y2179376D1*
X1949651Y2172692D1*
X1954244Y2165196D1*
X1957609Y2157075D1*
X1959660Y2148528D1*
X1960351Y2139764D1*
X1959660Y2131000D1*
X1957609Y2122453D1*
X1955389Y2116813D1*
X1966958Y2105265D1*
X2048313Y2105232D1*
X2048311Y2195784D1*
X2160351D1*
Y2105208D1*
X2258603Y2105126D1*
X2263928Y2104282D1*
X2269057Y2102617D1*
X2273862Y2100168D1*
X2278225Y2096999D1*
X2395110Y1980261D1*
X2502454Y1872919D1*
X2605059Y1872843D1*
X2610385Y1871999D1*
X2615513Y1870334D1*
X2620319Y1867885D1*
X2624681Y1864715D1*
X2628495Y1860902D1*
X2631664Y1856540D1*
X2634113Y1851734D1*
X2635778Y1846605D1*
X2636622Y1841280D1*
X2636729Y1779528D1*
X2636306Y1774151D1*
X2635046Y1768908D1*
X2632983Y1763925D1*
X2630166Y1759328D1*
X2626663Y1755227D1*
X2622562Y1751725D1*
X2617965Y1748907D1*
X2612982Y1746844D1*
X2607739Y1745584D1*
X2602362Y1745162D1*
X2538349D1*
X2538303Y1529967D1*
X2546571Y1521715D1*
X2558605Y1521681D1*
X3173866Y1150768D2*
X3171767Y1137509D1*
X3167618Y1124743D1*
X3161524Y1112782D1*
X3153634Y1101921D1*
X3144142Y1092429D1*
X3133281Y1084540D1*
X3121320Y1078445D1*
X3108554Y1074297D1*
X3095295Y1072197D1*
X3081870D1*
X3068612Y1074297D1*
X3055845Y1078445D1*
X3043885Y1084540D1*
X3033024Y1092429D1*
X3023532Y1101921D1*
X3015642Y1112782D1*
X3009547Y1124743D1*
X3005399Y1137509D1*
X3003299Y1150768D1*
X3003215Y1152893D1*
X2989835Y1148555D1*
X2975673Y1146313D1*
X2961335D1*
X2947173Y1148555D1*
X2933538Y1152986D1*
X2920763Y1159495D1*
X2909163Y1167923D1*
X2899025Y1178061D1*
X2890597Y1189660D1*
X2884088Y1202436D1*
X2879658Y1216071D1*
X2877415Y1230232D1*
Y1244571D1*
X2879658Y1258732D1*
X2884088Y1272368D1*
X2890597Y1285143D1*
X2899025Y1296743D1*
X2909163Y1306881D1*
X2920763Y1315309D1*
X2933538Y1321818D1*
X2947173Y1326248D1*
X2961335Y1328491D1*
X2975673D1*
X2989835Y1326248D1*
X3003470Y1321818D1*
X3016246Y1315309D1*
X3027845Y1306881D1*
X3037983Y1296743D1*
X3046411Y1285143D1*
X3052920Y1272368D1*
X3057351Y1258732D1*
X3059593Y1244571D1*
X3059851Y1238046D1*
X3068612Y1240664D1*
X3081870Y1242764D1*
X3095295D1*
X3108554Y1240664D1*
X3121320Y1236516D1*
X3133281Y1230421D1*
X3144142Y1222532D1*
X3153634Y1213040D1*
X3161524Y1202179D1*
X3167618Y1190218D1*
X3171767Y1177452D1*
X3173866Y1164193D1*
Y1150768D1*
Y1760610D2*
X3171767Y1747352D1*
X3167618Y1734586D1*
X3161524Y1722625D1*
X3153634Y1711764D1*
X3144142Y1702272D1*
X3133281Y1694382D1*
X3121320Y1688288D1*
X3108554Y1684139D1*
X3095295Y1682040D1*
X3081870D1*
X3068612Y1684139D1*
X3059858Y1686807D1*
X3058751Y1673108D1*
X3055403Y1659167D1*
X3049916Y1645920D1*
X3042425Y1633694D1*
X3033113Y1622793D1*
X3022211Y1613481D1*
X3009986Y1605990D1*
X2996739Y1600503D1*
X2982798Y1597155D1*
X2968504Y1596030D1*
X2954210Y1597155D1*
X2940269Y1600503D1*
X2927023Y1605990D1*
X2914797Y1613481D1*
X2903895Y1622793D1*
X2894583Y1633694D1*
X2887092Y1645920D1*
X2881605Y1659167D1*
X2878257Y1673108D1*
X2877133Y1687402D1*
X2878257Y1701696D1*
X2881605Y1715637D1*
X2887092Y1728883D1*
X2894583Y1741109D1*
X2903895Y1752011D1*
X2914797Y1761323D1*
X2927023Y1768814D1*
X2940269Y1774301D1*
X2954210Y1777649D1*
X2968504Y1778773D1*
X2982798Y1777649D1*
X2996739Y1774301D1*
X3003181Y1771924D1*
X3004089Y1780705D1*
X3007223Y1793759D1*
X3012360Y1806160D1*
X3019374Y1817607D1*
X3028092Y1827814D1*
X3038299Y1836532D1*
X3049746Y1843546D1*
X3062147Y1848683D1*
X3075201Y1851816D1*
X3088583Y1852870D1*
X3101965Y1851816D1*
X3115019Y1848683D1*
X3127420Y1843546D1*
X3138866Y1836532D1*
X3149074Y1827814D1*
X3157792Y1817607D1*
X3164806Y1806160D1*
X3169942Y1793759D1*
X3173076Y1780705D1*
X3174130Y1767323D1*
X3173866Y1760610D1*
X2981316Y2577949D2*
X2978975Y2563166D1*
X2974349Y2548929D1*
X2967554Y2535592D1*
X2958756Y2523483D1*
X2948171Y2512898D1*
X2936062Y2504100D1*
X2922725Y2497305D1*
X2908488Y2492679D1*
X2893705Y2490337D1*
X2878736D1*
X2863953Y2492679D1*
X2849717Y2497305D1*
X2836379Y2504100D1*
X2824271Y2512898D1*
X2813685Y2523483D1*
X2804887Y2535592D1*
X2798092Y2548929D1*
X2793466Y2563166D1*
X2791125Y2577949D1*
Y2592918D1*
X2793466Y2607701D1*
X2798092Y2621937D1*
X2804887Y2635274D1*
X2813685Y2647383D1*
X2824271Y2657969D1*
X2836379Y2666767D1*
X2849717Y2673562D1*
X2863953Y2678188D1*
X2878736Y2680529D1*
X2893705D1*
X2908488Y2678188D1*
X2922725Y2673562D1*
X2936062Y2666767D1*
X2948171Y2657969D1*
X2958756Y2647383D1*
X2967554Y2635274D1*
X2974349Y2621937D1*
X2978975Y2607701D1*
X2981316Y2592918D1*
Y2577949D1*
X987122Y2204933D2*
Y2182170D1*
X967933D1*
X973316Y2176104D1*
X1048714Y2176099D1*
X1596125Y2723466D1*
X1597622Y2729588D1*
X1600159Y2735713D1*
X1603622Y2741364D1*
X1607927Y2746404D1*
X1612967Y2750709D1*
X1618618Y2754172D1*
X1624743Y2756709D1*
X1631188Y2758256D1*
X1637795Y2758776D1*
X1644403Y2758256D1*
X1650848Y2756709D1*
X1656973Y2754172D1*
X1662624Y2750709D1*
X1667664Y2746404D1*
X1671969Y2741364D1*
X1675432Y2735713D1*
X1677969Y2729588D1*
X1679516Y2723143D1*
X1680036Y2716536D1*
X1679516Y2709928D1*
X1677969Y2703483D1*
X1675432Y2697358D1*
X1671969Y2691708D1*
X1667664Y2686667D1*
X1662624Y2682362D1*
X1656973Y2678899D1*
X1650848Y2676362D1*
X1644747Y2674883D1*
X1650189Y2667740D1*
X1653198Y2661834D1*
X1655247Y2655530D1*
X1656284Y2648983D1*
X1656335Y2643663D1*
X1660782Y2648667D1*
X1667466Y2654376D1*
X1674962Y2658969D1*
X1683083Y2662334D1*
X1691630Y2664385D1*
X1700394Y2665075D1*
X1709158Y2664385D1*
X1717705Y2662334D1*
X1725826Y2658969D1*
X1733322Y2654376D1*
X1740005Y2648667D1*
X1745714Y2641983D1*
X1750387Y2634316D1*
X1755074Y2641983D1*
X1760782Y2648667D1*
X1767466Y2654376D1*
X1774962Y2658969D1*
X1783083Y2662334D1*
X1791630Y2664385D1*
X1800394Y2665075D1*
X1809158Y2664385D1*
X1817705Y2662334D1*
X1825826Y2658969D1*
X1833322Y2654376D1*
X1840005Y2648667D1*
X1845714Y2641983D1*
X1850387Y2634316D1*
X1855074Y2641983D1*
X1860782Y2648667D1*
X1867466Y2654376D1*
X1874962Y2658969D1*
X1883083Y2662334D1*
X1891630Y2664385D1*
X1898625Y2665005D1*
X1898736Y2703180D1*
X1900134Y2710210D1*
X1903135Y2716719D1*
X1907572Y2722349D1*
X1925785Y2740561D1*
X1912065Y2754263D1*
X1904789Y2753209D1*
X1895999D1*
X1887316Y2754584D1*
X1878956Y2757299D1*
X1871124Y2761290D1*
X1864012Y2766458D1*
X1857797Y2772673D1*
X1852629Y2779785D1*
X1850307Y2783624D1*
X1845714Y2776128D1*
X1840005Y2769444D1*
X1833322Y2763735D1*
X1825826Y2759142D1*
X1817705Y2755777D1*
X1809158Y2753726D1*
X1800394Y2753036D1*
X1791630Y2753726D1*
X1783083Y2755777D1*
X1774962Y2759142D1*
X1767466Y2763735D1*
X1760782Y2769444D1*
X1755074Y2776128D1*
X1750400Y2783794D1*
X1745714Y2776128D1*
X1740005Y2769444D1*
X1733322Y2763735D1*
X1725826Y2759142D1*
X1717705Y2755777D1*
X1709158Y2753726D1*
X1700394Y2753036D1*
X1691630Y2753726D1*
X1683083Y2755777D1*
X1674962Y2759142D1*
X1667466Y2763735D1*
X1660782Y2769444D1*
X1655074Y2776128D1*
X1650481Y2783624D1*
X1647116Y2791744D1*
X1645065Y2800292D1*
X1644374Y2809055D1*
X1645065Y2817819D1*
X1647116Y2826366D1*
X1650481Y2834487D1*
X1653517Y2839654D1*
X1629232Y2839650D1*
X1001944Y2212529D1*
X997331Y2209177D1*
X992251Y2206589D1*
X989565Y2205599D1*
X986944Y1960017D2*
X985520Y1951030D1*
X982708Y1942376D1*
X978578Y1934268D1*
X973229Y1926907D1*
X966794Y1920473D1*
X959433Y1915124D1*
X951326Y1910994D1*
X942671Y1908181D1*
X933684Y1906757D1*
X924584D1*
X915597Y1908181D1*
X906942Y1910994D1*
X898835Y1915124D1*
X891474Y1920473D1*
X885040Y1926907D1*
X879691Y1934268D1*
X875561Y1942376D1*
X872748Y1951030D1*
X871324Y1960017D1*
Y1969117D1*
X872748Y1978104D1*
X875561Y1986759D1*
X879691Y1994866D1*
X885040Y2002227D1*
X891474Y2008662D1*
X898835Y2014011D1*
X900389Y2014935D1*
X892752Y2020395D1*
X886537Y2026610D1*
X881369Y2033722D1*
X877378Y2041554D1*
X874663Y2049915D1*
X873288Y2058597D1*
Y2067387D1*
X874663Y2076070D1*
X877378Y2084431D1*
X881369Y2092263D1*
X886537Y2099374D1*
X889301Y2102360D1*
X883814Y2108805D1*
X879221Y2116301D1*
X875856Y2124421D1*
X873805Y2132969D1*
X873114Y2141732D1*
X873805Y2150496D1*
X875856Y2159044D1*
X879221Y2167164D1*
X883814Y2174660D1*
X890418Y2182172D1*
X871146Y2182170D1*
Y2278995D1*
X858945Y2272895D1*
X844709Y2268269D1*
X829925Y2265928D1*
X814957D1*
X800173Y2268269D1*
X785937Y2272895D1*
X772600Y2279691D1*
X760491Y2288488D1*
X749906Y2299074D1*
X741108Y2311183D1*
X734313Y2324520D1*
X729687Y2338756D1*
X727345Y2353540D1*
Y2368508D1*
X729687Y2383292D1*
X734313Y2397528D1*
X741108Y2410865D1*
X749906Y2422974D1*
X760491Y2433559D1*
X772600Y2442357D1*
X785937Y2449152D1*
X793612Y2451928D1*
X793587Y2492561D1*
X761400Y2524925D1*
X758231Y2529288D1*
X755782Y2534093D1*
X754117Y2539222D1*
X753273Y2544547D1*
X753167Y2643176D1*
X753592Y2648562D1*
X750635Y2647460D1*
X736816Y2633563D1*
X736725Y2523631D1*
X735348Y2516717D1*
X732397Y2510314D1*
X728032Y2504777D1*
X668034Y2444911D1*
X662172Y2440994D1*
X655558Y2438553D1*
X648557Y2437725D1*
X459721Y2437816D1*
X452806Y2439193D1*
X446403Y2442145D1*
X440866Y2446509D1*
X432200Y2455175D1*
X432201Y629841D1*
X441410Y640087D1*
X448949Y647054D1*
X457011Y653410D1*
X465546Y659113D1*
X474503Y664130D1*
X483826Y668427D1*
X493457Y671981D1*
X503337Y674767D1*
X513406Y676769D1*
X523601Y677977D1*
X533858Y678379D1*
X544116Y677977D1*
X554311Y676769D1*
X564379Y674767D1*
X574260Y671981D1*
X583891Y668427D1*
X593214Y664130D1*
X602171Y659113D1*
X610706Y653410D1*
X618768Y647054D1*
X626307Y640087D1*
X633274Y632547D1*
X639630Y624486D1*
X645334Y615950D1*
X650351Y606994D1*
X654647Y597671D1*
X658201Y588040D1*
X660987Y578159D1*
X662990Y568091D1*
X664197Y557895D1*
X664600Y547638D1*
X664197Y537381D1*
X662990Y527185D1*
X660987Y517117D1*
X658201Y507236D1*
X654647Y497605D1*
X650351Y488282D1*
X645334Y479326D1*
X639630Y470790D1*
X633274Y462729D1*
X626307Y455189D1*
X618768Y448222D1*
X610706Y441866D1*
X602171Y436163D1*
X595068Y432185D1*
X3103734Y432201D1*
X3088507Y441735D1*
X3080445Y448091D1*
X3072906Y455058D1*
X3065939Y462597D1*
X3059583Y470659D1*
X3053879Y479194D1*
X3048862Y488151D1*
X3044566Y497474D1*
X3041012Y507105D1*
X3038226Y516986D1*
X3036223Y527054D1*
X3035016Y537250D1*
X3034613Y547507D1*
X3035016Y557764D1*
X3036223Y567960D1*
X3038226Y578028D1*
X3041012Y587908D1*
X3044566Y597540D1*
X3048862Y606862D1*
X3053879Y615819D1*
X3059583Y624355D1*
X3065939Y632416D1*
X3072906Y639956D1*
X3080445Y646923D1*
X3088507Y653278D1*
X3097042Y658982D1*
X3105999Y663999D1*
X3115322Y668295D1*
X3124953Y671849D1*
X3134834Y674635D1*
X3144902Y676638D1*
X3155097Y677845D1*
X3165355Y678248D1*
X3175612Y677845D1*
X3185807Y676638D1*
X3195876Y674635D1*
X3205756Y671849D1*
X3215387Y668295D1*
X3224710Y663999D1*
X3233667Y658982D1*
X3242202Y653278D1*
X3250264Y646923D1*
X3257803Y639956D1*
X3268570Y627599D1*
X3268587Y4072973D1*
X3258066Y4061095D1*
X3250526Y4054128D1*
X3242465Y4047772D1*
X3233929Y4042068D1*
X3224973Y4037051D1*
X3215650Y4032755D1*
X3206019Y4029201D1*
X3196138Y4026415D1*
X3186070Y4024412D1*
X3175874Y4023205D1*
X3165617Y4022802D1*
X3155360Y4023205D1*
X3145164Y4024412D1*
X3135096Y4026415D1*
X3125215Y4029201D1*
X3115584Y4032755D1*
X3106261Y4037051D1*
X3097305Y4042068D1*
X3088769Y4047772D1*
X3080708Y4054128D1*
X3073168Y4061095D1*
X3066201Y4068634D1*
X3059845Y4076696D1*
X3054142Y4085231D1*
X3049125Y4094188D1*
X3044828Y4103511D1*
X3041274Y4113142D1*
X3038488Y4123023D1*
X3036486Y4133091D1*
X3035278Y4143286D1*
X3034876Y4153544D1*
X3035278Y4163801D1*
X3036486Y4173996D1*
X3038488Y4184065D1*
X3041274Y4193945D1*
X3044828Y4203576D1*
X3049125Y4212899D1*
X3054142Y4221856D1*
X3059845Y4230391D1*
X3066201Y4238453D1*
X3073168Y4245992D1*
X3080561Y4252824D1*
X618928Y4252839D1*
X626176Y4246124D1*
X633143Y4238584D1*
X639499Y4230523D1*
X645202Y4221987D1*
X650219Y4213030D1*
X654516Y4203708D1*
X658070Y4194076D1*
X660856Y4184196D1*
X662858Y4174128D1*
X664066Y4163932D1*
X664469Y4153675D1*
X664066Y4143418D1*
X662858Y4133222D1*
X660856Y4123154D1*
X658070Y4113273D1*
X654516Y4103642D1*
X650219Y4094319D1*
X645202Y4085362D1*
X639499Y4076827D1*
X633143Y4068765D1*
X626176Y4061226D1*
X618637Y4054259D1*
X610575Y4047903D1*
X602040Y4042200D1*
X593083Y4037183D1*
X583760Y4032886D1*
X574129Y4029332D1*
X564248Y4026546D1*
X554180Y4024544D1*
X543984Y4023336D1*
X533727Y4022933D1*
X523470Y4023336D1*
X513274Y4024544D1*
X503206Y4026546D1*
X493326Y4029332D1*
X483694Y4032886D1*
X474372Y4037183D1*
X465415Y4042200D1*
X456879Y4047903D1*
X448818Y4054259D1*
X441278Y4061226D1*
X432201Y4071441D1*
Y2652204D1*
X445307Y2665281D1*
X444154Y2673164D1*
Y2681954D1*
X445529Y2690637D1*
X448244Y2698998D1*
X452235Y2706830D1*
X457403Y2713941D1*
X463618Y2720156D1*
X470730Y2725324D1*
X474568Y2727646D1*
X467072Y2732239D1*
X460389Y2737948D1*
X454680Y2744631D1*
X450087Y2752128D1*
X446722Y2760248D1*
X444671Y2768795D1*
X443981Y2777559D1*
X444671Y2786323D1*
X446722Y2794870D1*
X450087Y2802991D1*
X454680Y2810487D1*
X460389Y2817171D1*
X467072Y2822879D1*
X474739Y2827553D1*
X467072Y2832239D1*
X460389Y2837948D1*
X454680Y2844631D1*
X450087Y2852128D1*
X446722Y2860248D1*
X444671Y2868795D1*
X443981Y2877559D1*
X444671Y2886323D1*
X446722Y2894870D1*
X450087Y2902991D1*
X454680Y2910487D1*
X460389Y2917171D1*
X467072Y2922879D1*
X474739Y2927553D1*
X467072Y2932239D1*
X460389Y2937948D1*
X454680Y2944631D1*
X450087Y2952128D1*
X446722Y2960248D1*
X444671Y2968795D1*
X443981Y2977559D1*
X444671Y2986323D1*
X446722Y2994870D1*
X450087Y3002991D1*
X454680Y3010487D1*
X460389Y3017171D1*
X467072Y3022879D1*
X474739Y3027553D1*
X467072Y3032239D1*
X460389Y3037948D1*
X454680Y3044631D1*
X450087Y3052128D1*
X446722Y3060248D1*
X444671Y3068795D1*
X443981Y3077559D1*
X444671Y3086323D1*
X446722Y3094870D1*
X450087Y3102991D1*
X454680Y3110487D1*
X460389Y3117171D1*
X467072Y3122879D1*
X474739Y3127553D1*
X467072Y3132239D1*
X460389Y3137948D1*
X454680Y3144631D1*
X450087Y3152128D1*
X446722Y3160248D1*
X444671Y3168795D1*
X443981Y3177559D1*
X444671Y3186323D1*
X446722Y3194870D1*
X450087Y3202991D1*
X454680Y3210487D1*
X460389Y3217171D1*
X467072Y3222879D1*
X474739Y3227553D1*
X467072Y3232239D1*
X460389Y3237948D1*
X454680Y3244631D1*
X450087Y3252128D1*
X446722Y3260248D1*
X444671Y3268795D1*
X443981Y3277559D1*
X444671Y3286323D1*
X446722Y3294870D1*
X450087Y3302991D1*
X454680Y3310487D1*
X460389Y3317171D1*
X467072Y3322879D1*
X474739Y3327553D1*
X467072Y3332239D1*
X460389Y3337948D1*
X454680Y3344631D1*
X450087Y3352128D1*
X446722Y3360248D1*
X444671Y3368795D1*
X443981Y3377559D1*
X444671Y3386323D1*
X446722Y3394870D1*
X450087Y3402991D1*
X454680Y3410487D1*
X460389Y3417171D1*
X467072Y3422879D1*
X474739Y3427553D1*
X467072Y3432239D1*
X460389Y3437948D1*
X454680Y3444631D1*
X450087Y3452128D1*
X446722Y3460248D1*
X444671Y3468795D1*
X443981Y3477559D1*
X444671Y3486323D1*
X446722Y3494870D1*
X450087Y3502991D1*
X454680Y3510487D1*
X460389Y3517171D1*
X467072Y3522879D1*
X474739Y3527553D1*
X467072Y3532239D1*
X460389Y3537948D1*
X454680Y3544631D1*
X450087Y3552128D1*
X446722Y3560248D1*
X444671Y3568795D1*
X443981Y3577559D1*
X444671Y3586323D1*
X446722Y3594870D1*
X450087Y3602991D1*
X454680Y3610487D1*
X460389Y3617171D1*
X467072Y3622879D1*
X474739Y3627553D1*
X467072Y3632239D1*
X460389Y3637948D1*
X454680Y3644631D1*
X450087Y3652128D1*
X446722Y3660248D1*
X444671Y3668795D1*
X443981Y3677559D1*
X444671Y3686323D1*
X446722Y3694870D1*
X450087Y3702991D1*
X454680Y3710487D1*
X460389Y3717171D1*
X465358Y3721529D1*
X443981Y3721540D1*
Y3833579D1*
X556020D1*
Y3812240D1*
X560389Y3817171D1*
X567072Y3822879D1*
X574568Y3827473D1*
X582689Y3830837D1*
X591236Y3832889D1*
X600000Y3833579D1*
X608764Y3832889D1*
X617311Y3830837D1*
X625432Y3827473D1*
X632928Y3822879D1*
X639612Y3817171D1*
X645320Y3810487D1*
X649914Y3802991D1*
X653278Y3794870D1*
X655330Y3786323D1*
X656020Y3777559D1*
X655330Y3768795D1*
X653225Y3760103D1*
X686723Y3760004D1*
X693983Y3758561D1*
X700706Y3755461D1*
X706520Y3750877D1*
X744288Y3712973D1*
X748400Y3706816D1*
X750963Y3699872D1*
X751834Y3692520D1*
Y3541299D1*
X781414Y3541256D1*
Y3527047D1*
X788631Y3532276D1*
X797151Y3536617D1*
X806247Y3539572D1*
X815692Y3541068D1*
X825253D1*
X834698Y3539572D1*
X843794Y3536617D1*
X852314Y3532276D1*
X860050Y3526655D1*
X866813Y3519893D1*
X872433Y3512156D1*
X876774Y3503637D1*
X879730Y3494541D1*
X881226Y3485096D1*
Y3475534D1*
X879730Y3466089D1*
X876774Y3456994D1*
X876047Y3455415D1*
X880404Y3451795D1*
X925390Y3406673D1*
X929503Y3400517D1*
X932066Y3393572D1*
X932936Y3386221D1*
Y3378750D1*
X945604Y3378080D1*
X1001435Y3377983D1*
X1008694Y3376538D1*
X1015418Y3373440D1*
X1021335Y3368753D1*
X1063121Y3368776D1*
X1057246Y3371347D1*
X1049750Y3375940D1*
X1043066Y3381649D1*
X965277Y3459681D1*
X960109Y3466793D1*
X956118Y3474625D1*
X953402Y3482986D1*
X952028Y3491668D1*
X951855Y3546063D1*
Y3652655D1*
X943651Y3652845D1*
X933444Y3654462D1*
X923614Y3657655D1*
X914406Y3662348D1*
X906045Y3668423D1*
X898738Y3675730D1*
X892663Y3684091D1*
X887970Y3693299D1*
X884777Y3703129D1*
X883160Y3713336D1*
Y3723672D1*
X884777Y3733879D1*
X887970Y3743709D1*
X892663Y3752918D1*
X898738Y3761278D1*
X906045Y3768586D1*
X914406Y3774660D1*
X923614Y3779353D1*
X933444Y3782546D1*
X943651Y3784163D1*
X986319Y3784366D1*
X1072097Y3784163D1*
X1082305Y3782546D1*
X1092134Y3779353D1*
X1101343Y3774660D1*
X1109704Y3768586D1*
X1117011Y3761278D1*
X1123086Y3752918D1*
X1127778Y3743709D1*
X1130971Y3733879D1*
X1132588Y3723672D1*
Y3713336D1*
X1130971Y3703129D1*
X1127778Y3693299D1*
X1123086Y3684091D1*
X1117011Y3675730D1*
X1109704Y3668423D1*
X1101343Y3662348D1*
X1092134Y3657655D1*
X1082305Y3654462D1*
X1072097Y3652845D1*
X1063853Y3652642D1*
X1063894Y3519236D1*
X1105870Y3477290D1*
X1356700Y3477280D1*
X1373145Y3493706D1*
X1373093Y3625083D1*
X1369177D1*
Y3741059D1*
X1387196D1*
X1380252Y3748987D1*
X1375498Y3756746D1*
X1372016Y3765151D1*
X1369891Y3774000D1*
X1369177Y3783071D1*
X1369891Y3792142D1*
X1372016Y3800991D1*
X1375498Y3809397D1*
X1380252Y3817155D1*
X1386162Y3824075D1*
X1393082Y3829984D1*
X1400840Y3834739D1*
X1409246Y3838221D1*
X1418784Y3840427D1*
X1559963Y3981416D1*
X1565865Y3985704D1*
X1572366Y3989016D1*
X1579305Y3991271D1*
X1586509Y3992412D1*
X1665158Y3992555D1*
X2574361Y3992600D1*
Y4093618D1*
X2845849D1*
Y3937906D1*
X2898675Y3937792D1*
X2904612Y3936851D1*
X2910327Y3934994D1*
X2915683Y3932265D1*
X2920545Y3928732D1*
X2995226Y3854219D1*
X3003166Y3860074D1*
X3011273Y3864204D1*
X3019928Y3867016D1*
X3028915Y3868440D1*
X3038015D1*
X3047002Y3867016D1*
X3055656Y3864204D1*
X3063764Y3860074D1*
X3071125Y3854725D1*
X3077088Y3848799D1*
X3130781Y3848696D1*
X3136107Y3847852D1*
X3141235Y3846187D1*
X3146041Y3843738D1*
X3150403Y3840568D1*
X3212490Y3778631D1*
X3215992Y3774530D1*
X3218810Y3769933D1*
X3220873Y3764950D1*
X3222133Y3759708D1*
X3222555Y3754331D1*
X3222449Y3559639D1*
X3221605Y3554314D1*
X3219940Y3549185D1*
X3217491Y3544379D1*
X3214322Y3540017D1*
X3153276Y3478822D1*
X3153264Y3392996D1*
X3170390Y3392962D1*
Y3289978D1*
X3147881D1*
X3155587Y3284427D1*
X3161855Y3278159D1*
X3167066Y3270987D1*
X3171089Y3263088D1*
X3173830Y3254658D1*
X3175215Y3245902D1*
Y3237038D1*
X3173830Y3228282D1*
X3171089Y3219852D1*
X3167066Y3211953D1*
X3161855Y3204781D1*
X3155587Y3198513D1*
X3148415Y3193302D1*
X3140516Y3189278D1*
X3132086Y3186538D1*
X3123330Y3185152D1*
X3114466D1*
X3105710Y3186538D1*
X3097280Y3189278D1*
X3089381Y3193302D1*
X3082209Y3198513D1*
X3077435Y3203166D1*
X2959083Y3203167D1*
X2952889Y3198747D1*
X2945689Y3195079D1*
X2938005Y3192582D1*
X2930024Y3191318D1*
X2921945D1*
X2913963Y3192582D1*
X2906280Y3195079D1*
X2899080Y3198747D1*
X2892544Y3203496D1*
X2886830Y3209210D1*
X2882080Y3215747D1*
X2878412Y3222946D1*
X2875915Y3230630D1*
X2874651Y3238612D1*
Y3246691D1*
X2875915Y3254672D1*
X2878412Y3262356D1*
X2882080Y3269555D1*
X2886830Y3276092D1*
X2892544Y3281806D1*
X2899080Y3286555D1*
X2906280Y3290223D1*
X2913963Y3292721D1*
X2921945Y3293984D1*
X2930024D1*
X2938005Y3292721D1*
X2945689Y3290223D1*
X2952889Y3286555D1*
X2959425Y3281806D1*
X2961618Y3279780D1*
X3077410Y3279773D1*
X3082209Y3284427D1*
X3090000Y3289984D1*
X3067406Y3289978D1*
Y3392962D1*
X3084545D1*
X3084638Y3495742D1*
X3085482Y3501067D1*
X3087147Y3506196D1*
X3089596Y3511002D1*
X3092765Y3515364D1*
X3153811Y3576559D1*
X3153823Y3740120D1*
X3113860Y3780059D1*
X3082723Y3780070D1*
X3077559Y3772970D1*
X3073385Y3768625D1*
X3091453Y3768618D1*
Y3652642D1*
X3069920D1*
X3069824Y3599009D1*
X3068981Y3593684D1*
X3067315Y3588555D1*
X3064866Y3583750D1*
X3061697Y3579387D1*
X3000810Y3518351D1*
X2996709Y3514848D1*
X2992112Y3512030D1*
X2987129Y3509967D1*
X2981886Y3508708D1*
X2976509Y3508285D1*
X2964351D1*
X2959425Y3503496D1*
X2952889Y3498747D1*
X2945689Y3495079D1*
X2938005Y3492582D1*
X2930024Y3491318D1*
X2921945D1*
X2913963Y3492582D1*
X2906280Y3495079D1*
X2899080Y3498747D1*
X2892544Y3503496D1*
X2886830Y3509210D1*
X2882080Y3515747D1*
X2878412Y3522946D1*
X2875915Y3530630D1*
X2874651Y3538612D1*
Y3546691D1*
X2875915Y3554672D1*
X2878412Y3562356D1*
X2882080Y3569555D1*
X2886830Y3576092D1*
X2892544Y3581806D1*
X2899080Y3586555D1*
X2906280Y3590223D1*
X2913963Y3592721D1*
X2921945Y3593984D1*
X2930024D1*
X2938005Y3592721D1*
X2945689Y3590223D1*
X2952889Y3586555D1*
X2959425Y3581806D1*
X2963327Y3578053D1*
X3001202Y3615945D1*
X3001198Y3652634D1*
X2975477Y3652642D1*
Y3660503D1*
X2846046Y3660517D1*
Y3601658D1*
X2835547D1*
X2835429Y3479278D1*
X2834490Y3473341D1*
X2832631Y3467626D1*
X2829903Y3462271D1*
X2826370Y3457408D1*
X2735940Y3366811D1*
X2599679Y3230717D1*
X2594816Y3227184D1*
X2589461Y3224456D1*
X2583746Y3222597D1*
X2577809Y3221658D1*
X2449803Y3221540D1*
X2396532D1*
X2396571Y3203823D1*
X2284532D1*
Y3261684D1*
X2247900Y3298324D1*
X1476524Y3298311D1*
X1458609Y3280424D1*
X1469406Y3280429D1*
Y3168390D1*
X1357366D1*
X1357358Y3189441D1*
X1352068Y3191633D1*
X1347185Y3194625D1*
X1342831Y3198343D1*
X1318214Y3222961D1*
X1160433Y3222957D1*
X1162021Y3213689D1*
Y3205209D1*
X1160694Y3196831D1*
X1158074Y3188764D1*
X1154223Y3181208D1*
X1149238Y3174345D1*
X1143240Y3168348D1*
X1136378Y3163362D1*
X1128822Y3159512D1*
X1119925Y3156726D1*
X1118765Y3151263D1*
X1116158Y3145607D1*
X1112297Y3140710D1*
X1095557Y3123971D1*
X1095541Y3016340D1*
X1103240Y3017533D1*
X1111721D1*
X1120099Y3016206D1*
X1128166Y3013586D1*
X1135722Y3009735D1*
X1142584Y3004750D1*
X1149167Y2998009D1*
X1279206Y2997908D1*
X1284532Y2997065D1*
X1289660Y2995399D1*
X1294466Y2992950D1*
X1298828Y2989781D1*
X1406427Y2882332D1*
X1413386Y2882792D1*
X1422150Y2882101D1*
X1430697Y2880050D1*
X1438818Y2876685D1*
X1446314Y2872092D1*
X1452998Y2866383D1*
X1454200Y2865084D1*
X1478181Y2865075D1*
X1485344Y2872191D1*
X1485437Y3223478D1*
X1486377Y3229415D1*
X1488235Y3235130D1*
X1490963Y3240486D1*
X1494496Y3245348D1*
X1526306Y3277158D1*
X1531168Y3280691D1*
X1536524Y3283419D1*
X1542239Y3285277D1*
X1548176Y3286217D1*
X1676181Y3286335D1*
X2191982Y3286217D1*
X2197919Y3285277D1*
X2203634Y3283419D1*
X2208990Y3280691D1*
X2213852Y3277158D1*
X2241725Y3249285D1*
X2245257Y3244423D1*
X2247986Y3239067D1*
X2249844Y3233352D1*
X2250784Y3227415D1*
X2250902Y3174557D1*
X2256032Y3179757D1*
X2261394Y3183654D1*
X2267301Y3186663D1*
X2273604Y3188711D1*
X2280151Y3189748D1*
X2286778D1*
X2293326Y3188711D1*
X2299629Y3186663D1*
X2305536Y3183654D1*
X2310898Y3179757D1*
X2315584Y3175071D1*
X2319481Y3169709D1*
X2322267Y3164285D1*
X2438952Y3164381D1*
X2444795Y3165785D1*
X2450788Y3166256D1*
X2456780Y3165785D1*
X2462624Y3164381D1*
X2468177Y3162082D1*
X2473302Y3158941D1*
X2477872Y3155037D1*
X2535032Y3097710D1*
X2538565Y3092848D1*
X2541293Y3087492D1*
X2543150Y3081777D1*
X2544091Y3075840D1*
X2544209Y2947835D1*
Y2939095D1*
X2546979Y2931121D1*
X2548016Y2924574D1*
Y2917946D1*
X2546979Y2911399D1*
X2544931Y2905096D1*
X2541482Y2898533D1*
X2620961Y2898428D1*
X2626592Y2897536D1*
X2632015Y2895773D1*
X2637095Y2893185D1*
X2641708Y2889834D1*
X2741030Y2790671D1*
X2768962Y2762738D1*
X2959544Y2762601D1*
X2965175Y2761709D1*
X2970597Y2759946D1*
X2975677Y2757358D1*
X2980290Y2754007D1*
X3080811Y2653646D1*
X3084513Y2649310D1*
X3087492Y2644449D1*
X3089675Y2639181D1*
X3091005Y2633637D1*
X3091453Y2627953D1*
X3091341Y2398725D1*
X3090449Y2393093D1*
X3088687Y2387671D1*
X3086099Y2382591D1*
X3082747Y2377978D1*
X2988292Y2283362D1*
X2983956Y2279660D1*
X2979095Y2276681D1*
X2973827Y2274499D1*
X2968282Y2273168D1*
X2962599Y2272721D1*
X2922511D1*
X2849717Y2199546D1*
X2863953Y2204172D1*
X2878736Y2206513D1*
X2893705D1*
X2908488Y2204172D1*
X2922725Y2199546D1*
X2936062Y2192751D1*
X2948171Y2183953D1*
X2958756Y2173368D1*
X2967554Y2161259D1*
X2974349Y2147921D1*
X2978975Y2133685D1*
X2981316Y2118902D1*
Y2103933D1*
X2978975Y2089150D1*
X2974349Y2074914D1*
X2967554Y2061576D1*
X2958756Y2049467D1*
X2948171Y2038882D1*
X2936062Y2030084D1*
X2922725Y2023289D1*
X2908488Y2018663D1*
X2893705Y2016322D1*
X2878736D1*
X2863953Y2018663D1*
X2849717Y2023289D1*
X2836379Y2030084D1*
X2824271Y2038882D1*
X2813685Y2049467D1*
X2804887Y2061576D1*
X2798092Y2074914D1*
X2793466Y2089150D1*
X2791125Y2103933D1*
Y2118902D1*
X2793466Y2133685D1*
X2798092Y2147921D1*
X2804887Y2161259D1*
X2810335Y2169117D1*
X2803150Y2168390D1*
X2745973D1*
X2740574Y2165700D1*
X2734271Y2163651D1*
X2727723Y2162614D1*
X2721096D1*
X2714549Y2163651D1*
X2708246Y2165700D1*
X2702339Y2168709D1*
X2696977Y2172605D1*
X2692290Y2177292D1*
X2688394Y2182654D1*
X2685385Y2188561D1*
X2683336Y2194864D1*
X2682299Y2201411D1*
Y2208038D1*
X2683336Y2214586D1*
X2685385Y2220889D1*
X2688394Y2226795D1*
X2692290Y2232158D1*
X2696977Y2236844D1*
X2703301Y2241278D1*
X2696238Y2241403D1*
X2687251Y2242827D1*
X2678596Y2245639D1*
X2670488Y2249769D1*
X2663128Y2255118D1*
X2656693Y2261553D1*
X2652204Y2267462D1*
X2647398Y2269911D1*
X2643036Y2273080D1*
X2631421Y2284545D1*
X2615414Y2284638D1*
X2610088Y2285482D1*
X2604960Y2287147D1*
X2600154Y2289596D1*
X2595792Y2292765D1*
X2588113Y2300294D1*
X2485492Y2300386D1*
X2480167Y2301230D1*
X2475038Y2302895D1*
X2470232Y2305344D1*
X2465870Y2308513D1*
X2348984Y2425251D1*
X2186466Y2587918D1*
X2183297Y2592280D1*
X2180848Y2597086D1*
X2179183Y2602214D1*
X2178339Y2607540D1*
X2178232Y2625103D1*
X2109450Y2693883D1*
X1965358Y2693918D1*
X1959626Y2688141D1*
X1959532Y2647214D1*
X1958134Y2640184D1*
X1955133Y2633675D1*
X1952381Y2629865D1*
X1954865Y2622133D1*
X1956240Y2613450D1*
Y2604660D1*
X1954865Y2595978D1*
X1952150Y2587617D1*
X1948159Y2579785D1*
X1942991Y2572673D1*
X1936776Y2566458D1*
X1929664Y2561290D1*
X1921832Y2557299D1*
X1913471Y2554584D1*
X1904789Y2553209D1*
X1895999D1*
X1887316Y2554584D1*
X1878956Y2557299D1*
X1871124Y2561290D1*
X1864012Y2566458D1*
X1857797Y2572673D1*
X1852629Y2579785D1*
X1850307Y2583624D1*
X1845714Y2576128D1*
X1840005Y2569444D1*
X1833322Y2563735D1*
X1825826Y2559142D1*
X1817705Y2555777D1*
X1809158Y2553726D1*
X1800394Y2553036D1*
X1791630Y2553726D1*
X1783083Y2555777D1*
X1774962Y2559142D1*
X1767466Y2563735D1*
X1760782Y2569444D1*
X1755074Y2576128D1*
X1750387Y2583794D1*
X1745714Y2576128D1*
X1740005Y2569444D1*
X1733322Y2563735D1*
X1725826Y2559142D1*
X1717705Y2555777D1*
X1709158Y2553726D1*
X1700394Y2553036D1*
X1691630Y2553726D1*
X1683083Y2555777D1*
X1674962Y2559142D1*
X1667466Y2563735D1*
X1660782Y2569444D1*
X1655074Y2576128D1*
X1650481Y2583624D1*
X1647116Y2591744D1*
X1645065Y2600292D1*
X1644374Y2609055D1*
X1644933Y2616710D1*
X1639002Y2611496D1*
X1633351Y2608033D1*
X1627226Y2605496D1*
X1621125Y2604017D1*
X1101059Y2084104D1*
X1096697Y2080935D1*
X1091891Y2078486D1*
X1086763Y2076820D1*
X1081437Y2075977D1*
X1010332Y2075870D1*
X992432Y2058004D1*
X1148313Y2057988D1*
X1494526Y2404180D1*
X1496408Y2409865D1*
X1499418Y2415772D1*
X1503314Y2421134D1*
X1508000Y2425820D1*
X1513362Y2429717D1*
X1519269Y2432726D1*
X1525572Y2434774D1*
X1532120Y2435811D1*
X1538747D1*
X1545294Y2434774D1*
X1551597Y2432726D1*
X1557504Y2429717D1*
X1562866Y2425820D1*
X1567553Y2421134D1*
X1571449Y2415772D1*
X1574458Y2409865D1*
X1576507Y2403562D1*
X1577544Y2397015D1*
Y2390387D1*
X1576507Y2383840D1*
X1574458Y2377537D1*
X1571449Y2371630D1*
X1567553Y2366268D1*
X1562866Y2361582D1*
X1557504Y2357685D1*
X1551597Y2354676D1*
X1545929Y2352807D1*
X1186983Y1994025D1*
X1182370Y1990673D1*
X1177290Y1988086D1*
X1171868Y1986323D1*
X1166236Y1985431D1*
X1025886Y1985319D1*
X1005231D1*
X987021Y1967145D1*
X986944Y1960017D1*
X917537Y1836217D2*
X915196Y1821433D1*
X910570Y1807197D1*
X903774Y1793860D1*
X894977Y1781751D1*
X884391Y1771166D1*
X872282Y1762368D1*
X858945Y1755572D1*
X844709Y1750946D1*
X829925Y1748605D1*
X814957D1*
X800173Y1750946D1*
X785937Y1755572D1*
X772600Y1762368D1*
X760491Y1771166D1*
X749906Y1781751D1*
X741108Y1793860D1*
X734313Y1807197D1*
X729687Y1821433D1*
X727345Y1836217D1*
Y1851185D1*
X729687Y1865969D1*
X734313Y1880205D1*
X741108Y1893542D1*
X749906Y1905651D1*
X760491Y1916236D1*
X772600Y1925034D1*
X785937Y1931830D1*
X800173Y1936456D1*
X814957Y1938797D1*
X829925D1*
X844709Y1936456D1*
X858945Y1931830D1*
X872282Y1925034D1*
X884391Y1916236D1*
X894977Y1905651D1*
X903774Y1893542D1*
X910570Y1880205D1*
X915196Y1865969D1*
X917537Y1851185D1*
Y1836217D1*
X958681Y3888864D2*
X948358Y3889673D1*
X938309Y3892086D1*
X928761Y3896041D1*
X919949Y3901441D1*
X912089Y3908152D1*
X905378Y3916012D1*
X899978Y3924824D1*
X896023Y3934372D1*
X893610Y3944421D1*
X892799Y3954725D1*
X893610Y3965028D1*
X896023Y3975078D1*
X899978Y3984625D1*
X905378Y3993437D1*
X912089Y4001297D1*
X919949Y4008008D1*
X928761Y4013408D1*
X938309Y4017364D1*
X948358Y4019776D1*
X958681Y4020586D1*
X1062255Y4020383D1*
X1072462Y4018767D1*
X1082292Y4015574D1*
X1091500Y4010881D1*
X1099861Y4004806D1*
X1107168Y3997499D1*
X1113243Y3989138D1*
X1117936Y3979929D1*
X1121129Y3970100D1*
X1122746Y3959893D1*
Y3949557D1*
X1121129Y3939349D1*
X1117936Y3929520D1*
X1113243Y3920311D1*
X1107168Y3911950D1*
X1099861Y3904643D1*
X1091500Y3898568D1*
X1082292Y3893876D1*
X1072462Y3890683D1*
X1062255Y3889066D1*
X1019587Y3888862D1*
X958662Y3888911D1*
X756974Y3885807D2*
X757784Y3896130D1*
X760196Y3906180D1*
X764151Y3915727D1*
X769551Y3924540D1*
X776263Y3932399D1*
X784122Y3939110D1*
X792935Y3944511D1*
X802482Y3948466D1*
X812532Y3950878D1*
X822835Y3951689D1*
X833138Y3950878D1*
X843188Y3948466D1*
X852735Y3944511D1*
X861547Y3939110D1*
X869407Y3932399D1*
X876118Y3924540D1*
X881519Y3915727D1*
X885474Y3906180D1*
X887886Y3896130D1*
X888697Y3885827D1*
X888494Y3782234D1*
X886877Y3772026D1*
X883684Y3762197D1*
X878991Y3752988D1*
X872916Y3744628D1*
X865609Y3737320D1*
X857248Y3731246D1*
X848040Y3726553D1*
X838210Y3723360D1*
X828003Y3721743D1*
X817667D1*
X807460Y3723360D1*
X797630Y3726553D1*
X788421Y3731246D1*
X780061Y3737320D1*
X772753Y3744628D1*
X766679Y3752988D1*
X761986Y3762197D1*
X758793Y3772026D1*
X757176Y3782234D1*
X756973Y3824902D1*
Y3885613D1*
X685663Y3330337D2*
X680895Y3333975D1*
X674133Y3340738D1*
X668512Y3348474D1*
X664171Y3356994D1*
X661215Y3366089D1*
X659788Y3374958D1*
X655847Y3373164D1*
X654471Y3364482D1*
X651756Y3356121D1*
X647765Y3348289D1*
X642597Y3341177D1*
X636382Y3334962D1*
X629271Y3329794D1*
X625432Y3327473D1*
X632928Y3322879D1*
X639612Y3317171D1*
X645320Y3310487D1*
X649914Y3302991D1*
X653469Y3294192D1*
X664400Y3304584D1*
X668512Y3312156D1*
X674133Y3319893D1*
X680895Y3326655D1*
X685663Y3330293D1*
X697344Y3123942D2*
X689299Y3127981D1*
X689218Y2942135D1*
X687841Y2935221D1*
X684890Y2928818D1*
X680525Y2923281D1*
X663835Y2906722D1*
X657973Y2902805D1*
X651349Y2900362D1*
X654471Y2890637D1*
X655152Y2887215D1*
X691793Y2923918D1*
X691886Y3108915D1*
X693261Y3115830D1*
X696218Y3122240D1*
X881226Y3175534D2*
X880701Y3171097D1*
X948353Y3238575D1*
X953215Y3242108D1*
X958571Y3244836D1*
X964286Y3246694D1*
X970223Y3247634D1*
X976234D1*
X982171Y3246694D1*
X989839Y3243936D1*
X1006383Y3243941D1*
X1004751Y3250994D1*
X1004086Y3259449D1*
X1004751Y3267904D1*
X1006731Y3276151D1*
X1009977Y3283987D1*
X1014408Y3291219D1*
X1018172Y3295782D1*
X890706Y3295904D1*
X885051Y3296799D1*
X878436Y3299108D1*
X880663Y3289848D1*
X881414Y3280315D1*
X880663Y3270782D1*
X878431Y3261483D1*
X874772Y3252649D1*
X869774Y3244495D1*
X863565Y3237223D1*
X856293Y3231013D1*
X855282Y3230337D1*
X863565Y3223407D1*
X869774Y3216135D1*
X874772Y3207982D1*
X878431Y3199147D1*
X880663Y3189848D1*
X881414Y3180315D1*
X881226Y3175534D1*
X935935Y1585547D2*
X1021189D1*
X1090242Y1654591D1*
X998471Y1654610D1*
X935942Y1592067D1*
X640929Y1573028D2*
X632176Y1570360D1*
X618918Y1568260D1*
X605492D1*
X592234Y1570360D1*
X579467Y1574508D1*
X567507Y1580603D1*
X556646Y1588492D1*
X547154Y1597984D1*
X539264Y1608845D1*
X533170Y1620806D1*
X529021Y1633572D1*
X526921Y1646831D1*
Y1660256D1*
X529021Y1673515D1*
X533170Y1686281D1*
X539264Y1698242D1*
X547154Y1709103D1*
X556646Y1718595D1*
X567507Y1726484D1*
X579467Y1732579D1*
X592234Y1736727D1*
X605492Y1738827D1*
X618918D1*
X632176Y1736727D1*
X644942Y1732579D1*
X656903Y1726484D1*
X667764Y1718595D1*
X677256Y1709103D1*
X685146Y1698242D1*
X691240Y1686281D1*
X695389Y1673515D1*
X697488Y1660256D1*
X697572Y1658131D1*
X710953Y1662469D1*
X725114Y1664711D1*
X739453D1*
X753614Y1662469D1*
X767250Y1658038D1*
X780025Y1651529D1*
X791625Y1643101D1*
X801763Y1632963D1*
X810191Y1621364D1*
X816700Y1608588D1*
X821130Y1594953D1*
X823373Y1580792D1*
Y1566453D1*
X821130Y1552292D1*
X816700Y1538656D1*
X810191Y1525881D1*
X801763Y1514281D1*
X791625Y1504143D1*
X780025Y1495715D1*
X767250Y1489206D1*
X753614Y1484776D1*
X739453Y1482533D1*
X725114D1*
X710953Y1484776D1*
X697318Y1489206D1*
X684542Y1495715D1*
X672942Y1504143D1*
X662805Y1514281D1*
X654377Y1525881D1*
X647868Y1538656D1*
X643437Y1552292D1*
X641194Y1566453D1*
X640937Y1572978D1*
X697572Y1039113D2*
X696698Y1030319D1*
X693565Y1017265D1*
X688428Y1004864D1*
X681414Y993418D1*
X672696Y983210D1*
X662488Y974492D1*
X651042Y967478D1*
X638641Y962341D1*
X625587Y959208D1*
X612205Y958154D1*
X598823Y959208D1*
X585769Y962341D1*
X573368Y967478D1*
X561921Y974492D1*
X551714Y983210D1*
X542996Y993418D1*
X535982Y1004864D1*
X530845Y1017265D1*
X527711Y1030319D1*
X526658Y1043701D1*
X527711Y1057083D1*
X530845Y1070137D1*
X535982Y1082538D1*
X542996Y1093984D1*
X551714Y1104192D1*
X561921Y1112910D1*
X573368Y1119924D1*
X585769Y1125061D1*
X598823Y1128194D1*
X612205Y1129248D1*
X625587Y1128194D1*
X638641Y1125061D1*
X640929Y1124217D1*
X642037Y1137916D1*
X645385Y1151857D1*
X650872Y1165104D1*
X658362Y1177330D1*
X667675Y1188231D1*
X678576Y1197544D1*
X690802Y1205034D1*
X704049Y1210521D1*
X717990Y1213869D1*
X732284Y1214994D1*
X746578Y1213869D1*
X760519Y1210521D1*
X773765Y1205034D1*
X785991Y1197544D1*
X796893Y1188231D1*
X806205Y1177330D1*
X813696Y1165104D1*
X819183Y1151857D1*
X822530Y1137916D1*
X823655Y1123622D1*
X822530Y1109328D1*
X819183Y1095387D1*
X813696Y1082141D1*
X806205Y1069915D1*
X796893Y1059013D1*
X785991Y1049701D1*
X773765Y1042210D1*
X760519Y1036723D1*
X746578Y1033376D1*
X732284Y1032251D1*
X717990Y1033376D1*
X704049Y1036723D1*
X697607Y1039100D1*
X1930198Y1749542D2*
X1921642Y1745935D1*
X1913095Y1743883D1*
X1904331Y1743193D1*
X1895567Y1743883D1*
X1887020Y1745935D1*
X1878899Y1749299D1*
X1871403Y1753893D1*
X1864719Y1759601D1*
X1859011Y1766285D1*
X1854337Y1773952D1*
X1849651Y1766285D1*
X1843942Y1759601D1*
X1837259Y1753893D1*
X1829763Y1749299D1*
X1821642Y1745935D1*
X1813095Y1743883D1*
X1804331Y1743193D1*
X1795567Y1743883D1*
X1790146Y1745054D1*
X1788589Y1737412D1*
X1786526Y1732429D1*
X1783709Y1727832D1*
X1780206Y1723731D1*
X1754277Y1697802D1*
X1797322Y1654823D1*
X1804331Y1655232D1*
X1813095Y1654542D1*
X1821642Y1652491D1*
X1829763Y1649126D1*
X1837259Y1644533D1*
X1843942Y1638824D1*
X1849651Y1632141D1*
X1854324Y1624474D1*
X1859011Y1632141D1*
X1864719Y1638824D1*
X1871403Y1644533D1*
X1878899Y1649126D1*
X1887020Y1652491D1*
X1895567Y1654542D1*
X1904331Y1655232D1*
X1913044Y1654549D1*
X1930232Y1671747D1*
X1930201Y1749521D1*
X1854337Y1824474D2*
X1859011Y1832141D1*
X1864719Y1838824D1*
X1871403Y1844533D1*
X1878899Y1849126D1*
X1887020Y1852491D1*
X1895567Y1854542D1*
X1904331Y1855232D1*
X1913095Y1854542D1*
X1921642Y1852491D1*
X1929763Y1849126D1*
X1937259Y1844533D1*
X1943942Y1838824D1*
X1949651Y1832141D1*
X1954244Y1824645D1*
X1957609Y1816524D1*
X1958322Y1813994D1*
X1973516Y1829204D1*
X1973614Y2022382D1*
X1974458Y2027708D1*
X1976124Y2032836D1*
X1977259Y2035297D1*
X1968406Y2036500D1*
X1950059Y2036607D1*
X1944734Y2037450D1*
X1939605Y2039116D1*
X1934799Y2041565D1*
X1930437Y2044734D1*
X1889198Y2085823D1*
X1882893Y2088008D1*
X1875061Y2091999D1*
X1867949Y2097167D1*
X1861734Y2103382D1*
X1856566Y2110494D1*
X1854244Y2114332D1*
X1849651Y2106836D1*
X1843942Y2100152D1*
X1837259Y2094444D1*
X1829763Y2089851D1*
X1821642Y2086486D1*
X1813095Y2084435D1*
X1804331Y2083744D1*
X1795567Y2084435D1*
X1792113Y2085121D1*
X1785898Y2078839D1*
Y1992658D1*
X1795567Y1995093D1*
X1804331Y1995784D1*
X1813095Y1995093D1*
X1821642Y1993042D1*
X1829763Y1989677D1*
X1837259Y1985084D1*
X1843942Y1979376D1*
X1849651Y1972692D1*
X1854324Y1965025D1*
X1859011Y1972692D1*
X1864719Y1979376D1*
X1871403Y1985084D1*
X1878899Y1989677D1*
X1887020Y1993042D1*
X1895567Y1995093D1*
X1904331Y1995784D1*
X1913095Y1995093D1*
X1921642Y1993042D1*
X1929763Y1989677D1*
X1937259Y1985084D1*
X1943942Y1979376D1*
X1949651Y1972692D1*
X1954244Y1965196D1*
X1957609Y1957075D1*
X1959660Y1948528D1*
X1960351Y1939764D1*
X1959660Y1931000D1*
X1957609Y1922453D1*
X1954244Y1914332D1*
X1949651Y1906836D1*
X1943942Y1900152D1*
X1937259Y1894444D1*
X1929763Y1889851D1*
X1921642Y1886486D1*
X1913095Y1884435D1*
X1904331Y1883744D1*
X1895567Y1884435D1*
X1887020Y1886486D1*
X1878899Y1889851D1*
X1871403Y1894444D1*
X1864719Y1900152D1*
X1859011Y1906836D1*
X1854337Y1914503D1*
X1849651Y1906836D1*
X1843942Y1900152D1*
X1837259Y1894444D1*
X1829763Y1889851D1*
X1821642Y1886486D1*
X1813095Y1884435D1*
X1804331Y1883744D1*
X1795567Y1884435D1*
X1785907Y1886897D1*
X1785898Y1852130D1*
X1795567Y1854542D1*
X1804331Y1855232D1*
X1813095Y1854542D1*
X1821642Y1852491D1*
X1829763Y1849126D1*
X1837259Y1844533D1*
X1843942Y1838824D1*
X1849651Y1832141D1*
X1854324Y1824474D1*
X2160177Y1935369D2*
X2158802Y1926687D1*
X2156087Y1918326D1*
X2152096Y1910494D1*
X2146928Y1903382D1*
X2140713Y1897167D1*
X2133601Y1891999D1*
X2125769Y1888008D1*
X2117408Y1885293D1*
X2108726Y1883918D1*
X2099936D1*
X2091253Y1885293D1*
X2082893Y1888008D1*
X2075061Y1891999D1*
X2067949Y1897167D1*
X2061734Y1903382D1*
X2056566Y1910494D1*
X2052575Y1918326D1*
X2049860Y1926687D1*
X2048484Y1935369D1*
Y1944159D1*
X2049860Y1952841D1*
X2052575Y1961202D1*
X2056566Y1969034D1*
X2061734Y1976146D1*
X2067949Y1982361D1*
X2075061Y1987529D1*
X2082893Y1991520D1*
X2091253Y1994235D1*
X2099936Y1995610D1*
X2108726D1*
X2117408Y1994235D1*
X2125769Y1991520D1*
X2133601Y1987529D1*
X2140713Y1982361D1*
X2146928Y1976146D1*
X2152096Y1969034D1*
X2156087Y1961202D1*
X2158802Y1952841D1*
X2160177Y1944159D1*
Y1935369D1*
X1912053Y2421232D2*
X1902362Y2420358D1*
X1893599Y2421049D1*
X1885051Y2423100D1*
X1876931Y2426465D1*
X1869435Y2431058D1*
X1862751Y2436767D1*
X1857042Y2443450D1*
X1852369Y2451117D1*
X1847683Y2443450D1*
X1841974Y2436767D1*
X1835290Y2431058D1*
X1827794Y2426465D1*
X1819673Y2423100D1*
X1811126Y2421049D1*
X1802362Y2420358D1*
X1795425Y2420832D1*
X1730193Y2355757D1*
X1722167Y2349904D1*
X1704584Y2332323D1*
X1711126Y2331708D1*
X1719673Y2329656D1*
X1727794Y2326292D1*
X1735290Y2321698D1*
X1741974Y2315990D1*
X1747683Y2309306D1*
X1752356Y2301639D1*
X1757042Y2309306D1*
X1762751Y2315990D1*
X1769435Y2321698D1*
X1776931Y2326292D1*
X1785051Y2329656D1*
X1793599Y2331708D1*
X1802362Y2332398D1*
X1811126Y2331708D1*
X1819673Y2329656D1*
X1827794Y2326292D1*
X1835290Y2321698D1*
X1841974Y2315990D1*
X1847683Y2309306D1*
X1852356Y2301639D1*
X1857042Y2309306D1*
X1862751Y2315990D1*
X1869435Y2321698D1*
X1876931Y2326292D1*
X1885051Y2329656D1*
X1888243Y2330557D1*
X1945488Y2387789D1*
X1912095Y2421194D1*
X2158209Y2271983D2*
X2156834Y2263301D1*
X2154118Y2254940D1*
X2150128Y2247108D1*
X2144960Y2239996D1*
X2138744Y2233781D1*
X2131633Y2228613D1*
X2123801Y2224622D1*
X2115440Y2221907D1*
X2106757Y2220532D1*
X2097967D1*
X2089285Y2221907D1*
X2080924Y2224622D1*
X2073092Y2228613D1*
X2065981Y2233781D1*
X2059765Y2239996D1*
X2054597Y2247108D1*
X2050607Y2254940D1*
X2047891Y2263301D1*
X2046516Y2271983D1*
Y2280773D1*
X2047891Y2289456D1*
X2050607Y2297816D1*
X2054597Y2305649D1*
X2059765Y2312760D1*
X2065981Y2318975D1*
X2073092Y2324143D1*
X2080924Y2328134D1*
X2089285Y2330849D1*
X2097967Y2332225D1*
X2106757D1*
X2115440Y2330849D1*
X2123801Y2328134D1*
X2131633Y2324143D1*
X2138744Y2318975D1*
X2144960Y2312760D1*
X2150128Y2305649D1*
X2154118Y2297816D1*
X2156834Y2289456D1*
X2158209Y2280773D1*
Y2271983D1*
X2156240Y2604660D2*
X2154865Y2595978D1*
X2152150Y2587617D1*
X2148159Y2579785D1*
X2142991Y2572673D1*
X2136776Y2566458D1*
X2129664Y2561290D1*
X2121832Y2557299D1*
X2113471Y2554584D1*
X2104789Y2553209D1*
X2095999D1*
X2087316Y2554584D1*
X2078956Y2557299D1*
X2071124Y2561290D1*
X2064012Y2566458D1*
X2057797Y2572673D1*
X2052629Y2579785D1*
X2048638Y2587617D1*
X2045923Y2595978D1*
X2044547Y2604660D1*
Y2613450D1*
X2045923Y2622133D1*
X2048638Y2630494D1*
X2052629Y2638326D1*
X2057797Y2645437D1*
X2064012Y2651652D1*
X2071124Y2656820D1*
X2078956Y2660811D1*
X2087316Y2663526D1*
X2095999Y2664902D1*
X2104789D1*
X2113471Y2663526D1*
X2121832Y2660811D1*
X2129664Y2656820D1*
X2136776Y2651652D1*
X2142991Y2645437D1*
X2148159Y2638326D1*
X2152150Y2630494D1*
X2154865Y2622133D1*
X2156240Y2613450D1*
Y2604660D1*
X2060811Y3203658D2*
X2160351D1*
Y3091618D1*
X2048311D1*
Y3203658D1*
X2060811D1*
X1960177Y3143243D2*
X1958802Y3134561D1*
X1956087Y3126200D1*
X1952096Y3118368D1*
X1946928Y3111256D1*
X1940713Y3105041D1*
X1933601Y3099873D1*
X1925769Y3095882D1*
X1917408Y3093167D1*
X1908726Y3091792D1*
X1899936D1*
X1891253Y3093167D1*
X1882893Y3095882D1*
X1875061Y3099873D1*
X1867949Y3105041D1*
X1861734Y3111256D1*
X1856566Y3118368D1*
X1854244Y3122206D1*
X1849651Y3114710D1*
X1843942Y3108026D1*
X1837259Y3102318D1*
X1829763Y3097725D1*
X1821642Y3094360D1*
X1813095Y3092309D1*
X1804331Y3091618D1*
X1795567Y3092309D1*
X1787020Y3094360D1*
X1778899Y3097725D1*
X1771403Y3102318D1*
X1764719Y3108026D1*
X1759011Y3114710D1*
X1754337Y3122377D1*
X1749651Y3114710D1*
X1743942Y3108026D1*
X1737259Y3102318D1*
X1729763Y3097725D1*
X1721642Y3094360D1*
X1713095Y3092309D1*
X1704331Y3091618D1*
X1695567Y3092309D1*
X1687020Y3094360D1*
X1678899Y3097725D1*
X1671403Y3102318D1*
X1664719Y3108026D1*
X1659011Y3114710D1*
X1654418Y3122206D1*
X1651053Y3130327D1*
X1649002Y3138874D1*
X1648311Y3147638D1*
X1649002Y3156402D1*
X1651053Y3164949D1*
X1654418Y3173070D1*
X1659011Y3180566D1*
X1664719Y3187250D1*
X1671403Y3192958D1*
X1678899Y3197551D1*
X1687020Y3200916D1*
X1695567Y3202967D1*
X1704331Y3203658D1*
X1713095Y3202967D1*
X1721642Y3200916D1*
X1729763Y3197551D1*
X1737259Y3192958D1*
X1743942Y3187250D1*
X1749651Y3180566D1*
X1754324Y3172899D1*
X1759011Y3180566D1*
X1764719Y3187250D1*
X1771403Y3192958D1*
X1778899Y3197551D1*
X1787020Y3200916D1*
X1795567Y3202967D1*
X1804331Y3203658D1*
X1813095Y3202967D1*
X1821642Y3200916D1*
X1829763Y3197551D1*
X1837259Y3192958D1*
X1843942Y3187250D1*
X1849651Y3180566D1*
X1854324Y3172899D1*
X1859011Y3180566D1*
X1864719Y3187250D1*
X1871403Y3192958D1*
X1878899Y3197551D1*
X1887020Y3200916D1*
X1895567Y3202967D1*
X1904331Y3203658D1*
X1913095Y3202967D1*
X1921642Y3200916D1*
X1929763Y3197551D1*
X1937259Y3192958D1*
X1943942Y3187250D1*
X1949651Y3180566D1*
X1954244Y3173070D1*
X1957609Y3164949D1*
X1959660Y3156402D1*
X1960351Y3147638D1*
X1960177Y3143243D1*
X1027562Y3117126D2*
X1001271Y3143877D1*
X998229Y3149311D1*
X996538Y3155305D1*
X996293Y3161528D1*
X997508Y3167635D1*
X1000120Y3173298D1*
X995637Y3174957D1*
X992952D1*
X859521Y3041740D1*
X854659Y3038208D1*
X849303Y3035479D1*
X843588Y3033621D1*
X837651Y3032681D1*
X808034Y3032563D1*
X800526Y3026962D1*
X793327Y3023294D1*
X785643Y3020797D1*
X777662Y3019533D1*
X769583D1*
X761601Y3020797D1*
X753918Y3023294D1*
X751780Y3024280D1*
X751777Y2923994D1*
X757349Y2924481D1*
X832358Y2924755D1*
X837605Y2930899D1*
X843750Y2936146D1*
X850639Y2940368D1*
X858104Y2943461D1*
X865961Y2945347D1*
X874016Y2945981D1*
X882071Y2945347D1*
X889928Y2943461D1*
X897393Y2940368D1*
X904282Y2936146D1*
X910427Y2930899D1*
X915673Y2924755D1*
X918268Y2920773D1*
X922813Y2926400D1*
X937210Y2940798D1*
X941973Y2946742D1*
X947946Y2952714D1*
X946288Y2957463D1*
X945555Y2963649D1*
X946288Y2969834D1*
X948442Y2975676D1*
X951903Y2980853D1*
X990276Y3019226D1*
X995453Y3022687D1*
X1001295Y3024841D1*
X1007481Y3025574D1*
X1013666Y3024841D1*
X1019508Y3022687D1*
X1024685Y3019226D1*
X1027559Y3016467D1*
X1027557Y3117137D1*
X912752Y2860595D2*
X907457Y2855334D1*
X900920Y2850584D1*
X893721Y2846916D1*
X886037Y2844419D1*
X878055Y2843155D1*
X869977D1*
X861995Y2844419D1*
X854311Y2846916D1*
X847112Y2850584D1*
X840575Y2855334D1*
X834861Y2861047D1*
X832173Y2864498D1*
X769718Y2864442D1*
X726055Y2820702D1*
Y2790575D1*
X729718Y2797771D1*
X734467Y2804307D1*
X740181Y2810021D1*
X746718Y2814771D1*
X753918Y2818439D1*
X761601Y2820936D1*
X769583Y2822200D1*
X777662D1*
X785643Y2820936D1*
X793327Y2818439D1*
X800526Y2814771D1*
X807063Y2810021D1*
X812777Y2804307D1*
X817526Y2797771D1*
X821194Y2790571D1*
X823692Y2782887D1*
X824956Y2774906D1*
Y2766827D1*
X823692Y2758845D1*
X821194Y2751162D1*
X817526Y2743962D1*
X812777Y2737425D1*
X807063Y2731711D1*
X803613Y2729024D1*
X803523Y2710508D1*
X803243Y2708160D1*
X807427Y2711671D1*
X912768Y2817012D1*
X912747Y2860520D1*
X549994Y3652298D2*
X545320Y3644631D1*
X539612Y3637948D1*
X532928Y3632239D1*
X525261Y3627566D1*
X532928Y3622879D1*
X539612Y3617171D1*
X545320Y3610487D1*
X549994Y3602820D1*
X554680Y3610487D1*
X560389Y3617171D1*
X567072Y3622879D1*
X574739Y3627553D1*
X567072Y3632239D1*
X560389Y3637948D1*
X554680Y3644631D1*
X550007Y3652298D1*
X549994Y3552298D2*
X545320Y3544631D1*
X539612Y3537948D1*
X532928Y3532239D1*
X525261Y3527566D1*
X532928Y3522879D1*
X539612Y3517171D1*
X545320Y3510487D1*
X549994Y3502820D1*
X554680Y3510487D1*
X560389Y3517171D1*
X567072Y3522879D1*
X574739Y3527553D1*
X567072Y3532239D1*
X560389Y3537948D1*
X554680Y3544631D1*
X550007Y3552298D1*
X549994Y3452298D2*
X545320Y3444631D1*
X539612Y3437948D1*
X532928Y3432239D1*
X525261Y3427566D1*
X532928Y3422879D1*
X539612Y3417171D1*
X545320Y3410487D1*
X549994Y3402820D1*
X554680Y3410487D1*
X560389Y3417171D1*
X567072Y3422879D1*
X574739Y3427553D1*
X567072Y3432239D1*
X560389Y3437948D1*
X554680Y3444631D1*
X550007Y3452298D1*
X549994Y3352298D2*
X545320Y3344631D1*
X539612Y3337948D1*
X532928Y3332239D1*
X525261Y3327566D1*
X532928Y3322879D1*
X539612Y3317171D1*
X545320Y3310487D1*
X549994Y3302820D1*
X554680Y3310487D1*
X560389Y3317171D1*
X567072Y3322879D1*
X574739Y3327553D1*
X567072Y3332239D1*
X560389Y3337948D1*
X554680Y3344631D1*
X550007Y3352298D1*
X549994Y2852298D2*
X545320Y2844631D1*
X539612Y2837948D1*
X532928Y2832239D1*
X525261Y2827566D1*
X532928Y2822879D1*
X539612Y2817171D1*
X545320Y2810487D1*
X549994Y2802820D1*
X554680Y2810487D1*
X560389Y2817171D1*
X567072Y2822879D1*
X574739Y2827553D1*
X567072Y2832239D1*
X560389Y2837948D1*
X554680Y2844631D1*
X550007Y2852298D1*
X549994Y2552298D2*
X545320Y2544631D1*
X539612Y2537948D1*
X532928Y2532239D1*
X525432Y2527646D1*
X517311Y2524281D1*
X508764Y2522230D1*
X500000Y2521540D1*
X491236Y2522230D1*
X482689Y2524281D1*
X474568Y2527646D1*
X467259Y2532114D1*
X467316Y2504889D1*
X474574Y2497709D1*
X636188Y2497763D1*
X676832Y2538484D1*
Y2630624D1*
X649918Y2603828D1*
X651756Y2598998D1*
X654471Y2590637D1*
X655847Y2581954D1*
Y2573164D1*
X654471Y2564482D1*
X651756Y2556121D1*
X647765Y2548289D1*
X642597Y2541177D1*
X636382Y2534962D1*
X629271Y2529794D1*
X621439Y2525803D1*
X613078Y2523088D1*
X604395Y2521713D1*
X595605D1*
X586923Y2523088D1*
X578562Y2525803D1*
X570730Y2529794D1*
X563618Y2534962D1*
X557403Y2541177D1*
X552235Y2548289D1*
X550007Y2552298D1*
X3268570Y467415D2*
X3257803Y455058D1*
X3250264Y448091D1*
X3242202Y441735D1*
X3233667Y436032D1*
X3226844Y432210D1*
X3268578Y432201D1*
X3268587Y467309D1*
X1370376Y1654604D2*
X1426516Y1598463D1*
X1426264Y1614862D1*
Y1654658D1*
X1370347Y1654610D1*
D32*
X2620341Y3682284D3*
X2799869D3*
D33*
X2710105Y3946063D3*
D34*
X1427166Y3683071D3*
D35*
Y3783071D3*
D34*
X3033465Y3710630D3*
D35*
Y3810630D3*
D37*
X1263780Y3421260D3*
D38*
Y3818898D3*
D39*
X3118898Y3241470D3*
D40*
Y3341470D3*
D37*
X2340551Y3259843D3*
D38*
Y2862205D3*
D37*
X1413386Y3224410D3*
D38*
Y2826772D3*
D41*
X2718504Y1287402D3*
D42*
X2618504Y1337414D3*
X2718504Y1387414D3*
X2618504Y1437414D3*
X2718504Y1487414D3*
X2618504Y1537414D3*
X2718504Y1587414D3*
X2618504Y1637402D3*
D43*
X3088583Y1157481D3*
Y1767323D3*
D34*
X2700788Y2397638D3*
D44*
Y2299213D3*
X2779528D3*
Y2397638D3*
D45*
X2886221Y2111418D3*
Y2585433D3*
D34*
X929134Y2240158D3*
D38*
Y2141732D3*
Y2062992D3*
D44*
Y1964567D3*
D45*
X822441Y2361024D3*
Y1843701D3*
D46*
X1007874Y3954725D3*
D47*
Y3718504D3*
D48*
X822835Y3836614D3*
D49*
X720473Y3480315D3*
D50*
Y3380315D3*
Y3280315D3*
Y3180315D3*
X820473D3*
Y3280315D3*
Y3380315D3*
Y3480315D3*
D49*
X2517717Y3501969D3*
D50*
X2617717D3*
D41*
X982284Y1523622D3*
D42*
X1082284Y1473610D3*
X982284Y1423610D3*
X1082284Y1373610D3*
X982284Y1323610D3*
X1082284Y1273610D3*
X982284Y1223610D3*
X1082284Y1173622D3*
D43*
X612205Y1653544D3*
Y1043701D3*
D37*
X2102362Y1464567D3*
D38*
X1902362D3*
X1802362D3*
X1702362D3*
Y1264567D3*
X1802362D3*
X1902362D3*
X2102362D3*
D37*
X2104331Y1799213D3*
D38*
X1904331D3*
X1804331D3*
X1704331D3*
Y1599213D3*
X1804331D3*
X1904331D3*
X2104331D3*
D37*
Y2139764D3*
D38*
X1904331D3*
X1804331D3*
X1704331D3*
Y1939764D3*
X1804331D3*
X1904331D3*
X2104331D3*
D37*
X2102362Y2476378D3*
D38*
X1902362D3*
X1802362D3*
X1702362D3*
Y2276378D3*
X1802362D3*
X1902362D3*
X2102362D3*
D37*
X2100394Y2809055D3*
D38*
X1900394D3*
X1800394D3*
X1700394D3*
Y2609055D3*
X1800394D3*
X1900394D3*
X2100394D3*
D37*
X2104331Y3147638D3*
D38*
X1904331D3*
X1804331D3*
X1704331D3*
Y2947638D3*
X1804331D3*
X1904331D3*
X2104331D3*
D51*
X1069948Y2459974D3*
X1019948Y2509974D3*
D106*
X1069948Y2559974D3*
D51*
X1058137Y3259449D3*
X1108137Y3209449D3*
D109*
X1058137Y3159449D3*
D51*
X1216273Y2713517D3*
X1166273Y2763517D3*
D106*
X1216273Y2813517D3*
D51*
X1107481Y2963649D3*
X1057481Y2913649D3*
D112*
X1007481Y2963649D3*
D52*
X2925984Y3542651D3*
D53*
Y3242651D3*
D52*
X874016Y2594488D3*
D53*
Y2894488D3*
D52*
X773622Y3070866D3*
D53*
Y2770866D3*
D37*
X500000Y3777559D3*
D38*
X600000D3*
X500000Y3677559D3*
X600000D3*
X500000Y3577559D3*
X600000D3*
X500000Y3477559D3*
X600000D3*
X500000Y3377559D3*
X600000D3*
X500000Y3277559D3*
X600000D3*
X500000Y3177559D3*
X600000D3*
X500000Y3077559D3*
X600000D3*
X500000Y2977559D3*
X600000D3*
X500000Y2877559D3*
X600000D3*
X500000Y2777559D3*
X600000D3*
X500000Y2677559D3*
X600000D3*
X500000Y2577559D3*
X600000D3*
M02*
