G04 DipTrace 3.0.0.0*
G04 TopDimension.gbr*
%MOIN*%
G04 #@! TF.FileFunction,Drawing,Top*
G04 #@! TF.Part,Single*
%ADD13C,0.0015*%
%ADD103C,0.006176*%
%FSLAX26Y26*%
G04*
G70*
G90*
G75*
G01*
G04 TopDimension*
%LPD*%
X2145670Y2905906D2*
D13*
X57087D1*
X393701Y4291339D2*
X57087D1*
X76772Y3598622D2*
Y2945276D1*
G36*
Y2905906D2*
X68898Y2945276D1*
X84646D1*
X76772Y2905906D1*
G37*
Y3598622D2*
D13*
Y4251969D1*
G36*
Y4291339D2*
X84646Y4251969D1*
X68898D1*
X76772Y4291339D1*
G37*
X2145670Y2905906D2*
D13*
Y3822835D1*
X393701Y3588583D2*
Y3822835D1*
X1269685Y3803150D2*
X2106299D1*
G36*
X2145670D2*
X2106299Y3795276D1*
Y3811024D1*
X2145670Y3803150D1*
G37*
X1269685D2*
D13*
X433071D1*
G36*
X393701D2*
X433071Y3811024D1*
Y3795276D1*
X393701Y3803150D1*
G37*
X2104331Y3147638D2*
D13*
X-78740D1*
X393701Y4291339D2*
X-78740D1*
X-59055Y3719488D2*
Y3187008D1*
G36*
Y3147638D2*
X-66929Y3187008D1*
X-51181D1*
X-59055Y3147638D1*
G37*
Y3719488D2*
D13*
Y4251969D1*
G36*
Y4291339D2*
X-51181Y4251969D1*
X-66929D1*
X-59055Y4291339D1*
G37*
X612467Y4153675D2*
D13*
Y4366142D1*
X454987Y4153675D2*
Y4366142D1*
Y4346457D2*
X612467D1*
X395932D2*
X415617D1*
G36*
X454987D2*
X415617Y4338583D1*
Y4354331D1*
X454987Y4346457D1*
G37*
X671523D2*
D13*
X651837D1*
G36*
X612467D2*
X651837Y4354331D1*
Y4338583D1*
X612467Y4346457D1*
G37*
X393701Y4291339D2*
D13*
Y4517717D1*
X533727Y4153675D2*
Y4517717D1*
X393701Y4498032D2*
X533727D1*
X334646D2*
X354331D1*
G36*
X393701D2*
X354331Y4490158D1*
Y4505906D1*
X393701Y4498032D1*
G37*
X592782D2*
D13*
X573097D1*
G36*
X533727D2*
X573097Y4505906D1*
Y4490158D1*
X533727Y4498032D1*
G37*
Y4153675D2*
D13*
X244095D1*
X393701Y4291339D2*
X244095D1*
X263780Y4222507D2*
Y4193045D1*
G36*
Y4153675D2*
X255906Y4193045D1*
X271654D1*
X263780Y4153675D1*
G37*
Y4222507D2*
D13*
Y4251969D1*
G36*
Y4291339D2*
X271654Y4251969D1*
X255906D1*
X263780Y4291339D1*
G37*
Y4473940D2*
D13*
Y4291339D1*
X3165617Y4153544D2*
Y4468504D1*
X3307087Y4291339D2*
Y4468504D1*
X3165617Y4448819D2*
X3307087D1*
X3106562D2*
X3126247D1*
G36*
X3165617D2*
X3126247Y4440945D1*
Y4456693D1*
X3165617Y4448819D1*
G37*
X3366142D2*
D13*
X3346457D1*
G36*
X3307087D2*
X3346457Y4456693D1*
Y4440945D1*
X3307087Y4448819D1*
G37*
X3165617Y4153544D2*
D13*
X3598425D1*
X3307087Y4291339D2*
X3598425D1*
X3578740Y4222441D2*
Y4192914D1*
G36*
Y4153544D2*
X3570866Y4192914D1*
X3586614D1*
X3578740Y4153544D1*
G37*
Y4222441D2*
D13*
Y4251969D1*
G36*
Y4291339D2*
X3586614Y4251969D1*
X3570866D1*
X3578740Y4291339D1*
G37*
Y3970987D2*
D13*
Y4291339D1*
X3165355Y547507D2*
Y116667D1*
X3307087Y393701D2*
Y116667D1*
X3165355Y136352D2*
X3307087D1*
X3106299D2*
X3125984D1*
G36*
X3165355D2*
X3125984Y128478D1*
Y144226D1*
X3165355Y136352D1*
G37*
X3366142D2*
D13*
X3346457D1*
G36*
X3307087D2*
X3346457Y144226D1*
Y128478D1*
X3307087Y136352D1*
G37*
X3165355Y547507D2*
D13*
X3688977D1*
X3307087Y393701D2*
X3688977D1*
X3669292Y547507D2*
Y393701D1*
Y606562D2*
Y586877D1*
G36*
Y547507D2*
X3661418Y586877D1*
X3677166D1*
X3669292Y547507D1*
G37*
Y334646D2*
D13*
Y354331D1*
G36*
Y393701D2*
X3677166Y354331D1*
X3661418D1*
X3669292Y393701D1*
G37*
X533858Y547638D2*
D13*
Y192914D1*
X393701Y393701D2*
Y192914D1*
X463780Y212599D2*
X494488D1*
G36*
X533858D2*
X494488Y204725D1*
Y220473D1*
X533858Y212599D1*
G37*
X463780D2*
D13*
X433071D1*
G36*
X393701D2*
X433071Y220473D1*
Y204725D1*
X393701Y212599D1*
G37*
X718361D2*
D13*
X533858D1*
Y547638D2*
X149607D1*
X393701Y393701D2*
X149607D1*
X169292Y547638D2*
Y393701D1*
Y606693D2*
Y587008D1*
G36*
Y547638D2*
X161418Y587008D1*
X177166D1*
X169292Y547638D1*
G37*
Y334646D2*
D13*
Y354331D1*
G36*
Y393701D2*
X177166Y354331D1*
X161418D1*
X169292Y393701D1*
G37*
X2102362Y1264567D2*
D13*
X3925197D1*
X3307087Y393701D2*
X3925197D1*
X3905512Y829134D2*
Y1225197D1*
G36*
Y1264567D2*
X3913386Y1225197D1*
X3897638D1*
X3905512Y1264567D1*
G37*
Y829134D2*
D13*
Y433071D1*
G36*
Y393701D2*
X3897638Y433071D1*
X3913386D1*
X3905512Y393701D1*
G37*
X393701Y4291339D2*
D13*
Y4722441D1*
X3307087Y4291339D2*
Y4722441D1*
X1850394Y4702756D2*
X433071D1*
G36*
X393701D2*
X433071Y4710630D1*
Y4694882D1*
X393701Y4702756D1*
G37*
X1850394D2*
D13*
X3267717D1*
G36*
X3307087D2*
X3267717Y4694882D1*
Y4710630D1*
X3307087Y4702756D1*
G37*
Y4291339D2*
D13*
Y5055118D1*
X1850394Y4293307D2*
Y5055118D1*
X2578740Y5035433D2*
X3267717D1*
G36*
X3307087D2*
X3267717Y5027559D1*
Y5043307D1*
X3307087Y5035433D1*
G37*
X2578740D2*
D13*
X1889764D1*
G36*
X1850394D2*
X1889764Y5043307D1*
Y5027559D1*
X1850394Y5035433D1*
G37*
X3307087Y393701D2*
D13*
Y47244D1*
X1850394Y393701D2*
Y47244D1*
X2578740Y66929D2*
X3267717D1*
G36*
X3307087D2*
X3267717Y59055D1*
Y74803D1*
X3307087Y66929D1*
G37*
X2578740D2*
D13*
X1889764D1*
G36*
X1850394D2*
X1889764Y74803D1*
Y59055D1*
X1850394Y66929D1*
G37*
X500000Y3777559D2*
D13*
Y3958399D1*
X393701Y4291339D2*
Y3919029D1*
X446851Y3938714D2*
X460630D1*
G36*
X500000D2*
X460630Y3930840D1*
Y3946588D1*
X500000Y3938714D1*
G37*
X446851D2*
D13*
X433071D1*
G36*
X393701D2*
X433071Y3946588D1*
Y3930840D1*
X393701Y3938714D1*
G37*
X680656D2*
D13*
X500000D1*
Y3777559D2*
X288452D1*
X393701Y4291339D2*
X288452D1*
X308137Y4034449D2*
Y3816929D1*
G36*
Y3777559D2*
X300263Y3816929D1*
X316011D1*
X308137Y3777559D1*
G37*
Y4034449D2*
D13*
Y4251969D1*
G36*
Y4291339D2*
X316011Y4251969D1*
X300263D1*
X308137Y4291339D1*
G37*
X32063Y3509593D2*
D103*
X30117Y3513440D1*
X24413Y3519188D1*
X64561D1*
X24413Y3535386D2*
Y3556388D1*
X39712Y3544936D1*
Y3550685D1*
X41613Y3554487D1*
X43514Y3556388D1*
X49263Y3558334D1*
X53065D1*
X58813Y3556388D1*
X62660Y3552586D1*
X64561Y3546838D1*
Y3541090D1*
X62660Y3535386D1*
X60714Y3533485D1*
X56912Y3531539D1*
X24413Y3580236D2*
X26315Y3574532D1*
X30117Y3572587D1*
X33964D1*
X37766Y3574532D1*
X39712Y3578335D1*
X41613Y3585984D1*
X43514Y3591732D1*
X47361Y3595534D1*
X51164Y3597436D1*
X56912D1*
X60714Y3595534D1*
X62660Y3593633D1*
X64561Y3587885D1*
Y3580236D1*
X62660Y3574532D1*
X60714Y3572587D1*
X56912Y3570685D1*
X51164D1*
X47361Y3572587D1*
X43514Y3576433D1*
X41613Y3582137D1*
X39712Y3589786D1*
X37766Y3593633D1*
X33964Y3595534D1*
X30117D1*
X26315Y3593633D1*
X24413Y3587885D1*
Y3580236D1*
Y3632735D2*
Y3613634D1*
X41613Y3611733D1*
X39712Y3613634D1*
X37766Y3619382D1*
Y3625086D1*
X39712Y3630834D1*
X43514Y3634680D1*
X49263Y3636582D1*
X53065D1*
X58813Y3634680D1*
X62660Y3630834D1*
X64561Y3625086D1*
Y3619382D1*
X62660Y3613634D1*
X60714Y3611733D1*
X56912Y3609787D1*
X60714Y3650834D2*
X62660Y3648933D1*
X64561Y3650834D1*
X62660Y3652780D1*
X60714Y3650834D1*
X64561Y3684277D2*
X24413D1*
X51164Y3665131D1*
Y3693827D1*
X1209257Y3847859D2*
X1213103Y3849805D1*
X1218851Y3855508D1*
Y3815361D1*
X1238852D2*
X1257997Y3855508D1*
X1231203D1*
X1293297D2*
X1274196D1*
X1272294Y3838308D1*
X1274196Y3840210D1*
X1279944Y3842155D1*
X1285647D1*
X1291395Y3840210D1*
X1295242Y3836407D1*
X1297144Y3830659D1*
Y3826857D1*
X1295242Y3821109D1*
X1291395Y3817262D1*
X1285647Y3815361D1*
X1279944D1*
X1274196Y3817262D1*
X1272294Y3819207D1*
X1270349Y3823010D1*
X1311440Y3845958D2*
Y3847859D1*
X1313342Y3851706D1*
X1315243Y3853607D1*
X1319090Y3855508D1*
X1326739D1*
X1330542Y3853607D1*
X1332443Y3851706D1*
X1334388Y3847859D1*
Y3844057D1*
X1332443Y3840210D1*
X1328640Y3834506D1*
X1309495Y3815361D1*
X1336290D1*
X-103764Y3639037D2*
X-105710Y3642884D1*
X-111413Y3648632D1*
X-71266D1*
X-103764Y3660983D2*
X-105710Y3664830D1*
X-111413Y3670578D1*
X-71266D1*
Y3702075D2*
X-111413D1*
X-84663Y3682929D1*
Y3711625D1*
X-111413Y3727823D2*
Y3748826D1*
X-96115Y3737374D1*
Y3743122D1*
X-94214Y3746925D1*
X-92312Y3748826D1*
X-86564Y3750771D1*
X-82762D1*
X-77014Y3748826D1*
X-73167Y3745023D1*
X-71266Y3739275D1*
Y3733527D1*
X-73167Y3727823D1*
X-75112Y3725922D1*
X-78915Y3723977D1*
X-75112Y3765024D2*
X-73167Y3763123D1*
X-71266Y3765024D1*
X-73167Y3766969D1*
X-75112Y3765024D1*
X-71266Y3786970D2*
X-111413Y3806116D1*
Y3779321D1*
X465200Y4391166D2*
X469046Y4393112D1*
X474794Y4398815D1*
Y4358668D1*
X510094Y4398815D2*
X490992D1*
X489091Y4381616D1*
X490992Y4383517D1*
X496741Y4385462D1*
X502444D1*
X508192Y4383517D1*
X512039Y4379714D1*
X513940Y4373966D1*
Y4370164D1*
X512039Y4364416D1*
X508192Y4360569D1*
X502444Y4358668D1*
X496741D1*
X490992Y4360569D1*
X489091Y4362514D1*
X487146Y4366317D1*
X533941Y4358668D2*
X553086Y4398815D1*
X526292D1*
X567339Y4362514D2*
X565438Y4360569D1*
X567339Y4358668D1*
X569285Y4360569D1*
X567339Y4362514D1*
X604584Y4398815D2*
X585483D1*
X583581Y4381616D1*
X585483Y4383517D1*
X591231Y4385462D1*
X596935D1*
X602683Y4383517D1*
X606529Y4379714D1*
X608431Y4373966D1*
Y4370164D1*
X606529Y4364416D1*
X602683Y4360569D1*
X596935Y4358668D1*
X591231D1*
X585483Y4360569D1*
X583581Y4362514D1*
X581636Y4366317D1*
X421908Y4542741D2*
X425755Y4544686D1*
X431503Y4550390D1*
Y4510242D1*
X462999D2*
Y4550390D1*
X443854Y4523640D1*
X472550D1*
X496397Y4550390D2*
X490649Y4548489D1*
X486803Y4542741D1*
X484901Y4533190D1*
Y4527442D1*
X486803Y4517892D1*
X490649Y4512144D1*
X496397Y4510242D1*
X500200D1*
X505948Y4512144D1*
X509751Y4517892D1*
X511696Y4527442D1*
Y4533190D1*
X509751Y4542741D1*
X505948Y4548489D1*
X500200Y4550390D1*
X496397D1*
X509751Y4542741D2*
X486803Y4517892D1*
X219070Y4339972D2*
X217125Y4343819D1*
X211421Y4349567D1*
X251569D1*
X211421Y4365765D2*
Y4386768D1*
X226720Y4375316D1*
Y4381064D1*
X228621Y4384867D1*
X230522Y4386768D1*
X236270Y4388713D1*
X240073D1*
X245821Y4386768D1*
X249668Y4382965D1*
X251569Y4377217D1*
Y4371469D1*
X249668Y4365765D1*
X247722Y4363864D1*
X243920Y4361919D1*
X251569Y4408714D2*
X211421Y4427859D1*
Y4401065D1*
X247722Y4442112D2*
X249668Y4440211D1*
X251569Y4442112D1*
X249668Y4444058D1*
X247722Y4442112D1*
X251569Y4464058D2*
X211421Y4483204D1*
Y4456409D1*
X3175473Y4493528D2*
X3179320Y4495474D1*
X3185068Y4501178D1*
Y4461030D1*
X3216565D2*
Y4501178D1*
X3197420Y4474427D1*
X3226116D1*
X3238467Y4493528D2*
X3242314Y4495474D1*
X3248062Y4501178D1*
Y4461030D1*
X3262314Y4464877D2*
X3260413Y4462931D1*
X3262314Y4461030D1*
X3264260Y4462931D1*
X3262314Y4464877D1*
X3299559Y4501178D2*
X3280458D1*
X3278557Y4483978D1*
X3280458Y4485879D1*
X3286206Y4487825D1*
X3291910D1*
X3297658Y4485879D1*
X3301505Y4482077D1*
X3303406Y4476328D1*
Y4472526D1*
X3301505Y4466778D1*
X3297658Y4462931D1*
X3291910Y4461030D1*
X3286206D1*
X3280458Y4462931D1*
X3278557Y4464877D1*
X3276611Y4468679D1*
X3623450Y4104910D2*
X3625395Y4101063D1*
X3631099Y4095315D1*
X3590951D1*
X3631099Y4079117D2*
Y4058115D1*
X3615800Y4069566D1*
Y4063818D1*
X3613899Y4060016D1*
X3611998Y4058115D1*
X3606250Y4056169D1*
X3602447D1*
X3596699Y4058115D1*
X3592852Y4061917D1*
X3590951Y4067665D1*
Y4073413D1*
X3592852Y4079117D1*
X3594798Y4081018D1*
X3598600Y4082964D1*
X3590951Y4036168D2*
X3631099Y4017023D1*
Y4043818D1*
X3594798Y4002770D2*
X3592852Y4004672D1*
X3590951Y4002770D1*
X3592852Y4000825D1*
X3594798Y4002770D1*
X3631099Y3978923D2*
X3629198Y3984627D1*
X3625395Y3986572D1*
X3621548D1*
X3617746Y3984627D1*
X3615800Y3980824D1*
X3613899Y3973175D1*
X3611998Y3967427D1*
X3608151Y3963624D1*
X3604348Y3961723D1*
X3598600D1*
X3594798Y3963624D1*
X3592852Y3965526D1*
X3590951Y3971274D1*
Y3978923D1*
X3592852Y3984627D1*
X3594798Y3986572D1*
X3598600Y3988473D1*
X3604348D1*
X3608151Y3986572D1*
X3611998Y3982725D1*
X3613899Y3977022D1*
X3615800Y3969372D1*
X3617746Y3965526D1*
X3621548Y3963624D1*
X3625395D1*
X3629198Y3965526D1*
X3631099Y3971274D1*
Y3978923D1*
X3175342Y181061D2*
X3179189Y183007D1*
X3184937Y188710D1*
Y148563D1*
X3216434D2*
Y188710D1*
X3197288Y161960D1*
X3225984D1*
X3238336Y181061D2*
X3242183Y183007D1*
X3247931Y188710D1*
Y148563D1*
X3262183Y152409D2*
X3260282Y150464D1*
X3262183Y148563D1*
X3264129Y150464D1*
X3262183Y152409D1*
X3284129Y148563D2*
X3303275Y188710D1*
X3276480D1*
X3714001Y539110D2*
X3715946Y535263D1*
X3721650Y529515D1*
X3681502D1*
X3721650Y494215D2*
Y513317D1*
X3704450Y515218D1*
X3706351Y513317D1*
X3708297Y507569D1*
Y501865D1*
X3706351Y496117D1*
X3702549Y492270D1*
X3696801Y490369D1*
X3692998D1*
X3687250Y492270D1*
X3683404Y496117D1*
X3681502Y501865D1*
Y507569D1*
X3683404Y513317D1*
X3685349Y515218D1*
X3689152Y517163D1*
X3721650Y474170D2*
Y453168D1*
X3706351Y464620D1*
Y458872D1*
X3704450Y455069D1*
X3702549Y453168D1*
X3696801Y451223D1*
X3692998D1*
X3687250Y453168D1*
X3683404Y456971D1*
X3681502Y462719D1*
Y468467D1*
X3683404Y474170D1*
X3685349Y476072D1*
X3689152Y478017D1*
X3685349Y436970D2*
X3683404Y438871D1*
X3681502Y436970D1*
X3683404Y435024D1*
X3685349Y436970D1*
X3721650Y413122D2*
X3719749Y418826D1*
X3715946Y420772D1*
X3712100D1*
X3708297Y418826D1*
X3706351Y415024D1*
X3704450Y407374D1*
X3702549Y401626D1*
X3698702Y397824D1*
X3694900Y395923D1*
X3689152D1*
X3685349Y397824D1*
X3683404Y399725D1*
X3681502Y405473D1*
Y413122D1*
X3683404Y418826D1*
X3685349Y420772D1*
X3689152Y422673D1*
X3694900D1*
X3698702Y420772D1*
X3702549Y416925D1*
X3704450Y411221D1*
X3706351Y403572D1*
X3708297Y399725D1*
X3712100Y397824D1*
X3715946D1*
X3719749Y399725D1*
X3721650Y405473D1*
Y413122D1*
X582492Y257308D2*
X586339Y259253D1*
X592087Y264957D1*
Y224809D1*
X623584D2*
Y264957D1*
X604438Y238207D1*
X633134D1*
X656982Y264957D2*
X651234Y263056D1*
X647387Y257308D1*
X645486Y247757D1*
Y242009D1*
X647387Y232459D1*
X651234Y226711D1*
X656982Y224809D1*
X660784D1*
X666532Y226711D1*
X670335Y232459D1*
X672280Y242009D1*
Y247757D1*
X670335Y257308D1*
X666532Y263056D1*
X660784Y264957D1*
X656982D1*
X670335Y257308D2*
X647387Y232459D1*
X686533Y228656D2*
X684632Y226711D1*
X686533Y224809D1*
X688478Y226711D1*
X686533Y228656D1*
X702775Y255407D2*
Y257308D1*
X704677Y261155D1*
X706578Y263056D1*
X710425Y264957D1*
X718074D1*
X721876Y263056D1*
X723778Y261155D1*
X725723Y257308D1*
Y253505D1*
X723778Y249659D1*
X719975Y243955D1*
X700830Y224809D1*
X727625D1*
X124582Y403092D2*
X122637Y406939D1*
X116933Y412687D1*
X157081D1*
X116933Y447987D2*
Y428885D1*
X134133Y426984D1*
X132232Y428885D1*
X130286Y434633D1*
Y440337D1*
X132232Y446085D1*
X136034Y449932D1*
X141782Y451833D1*
X145585D1*
X151333Y449932D1*
X155180Y446085D1*
X157081Y440337D1*
Y434633D1*
X155180Y428885D1*
X153234Y426984D1*
X149431Y425039D1*
X116933Y468031D2*
Y489034D1*
X132232Y477582D1*
Y483330D1*
X134133Y487133D1*
X136034Y489034D1*
X141782Y490979D1*
X145585D1*
X151333Y489034D1*
X155180Y485231D1*
X157081Y479483D1*
Y473735D1*
X155180Y468031D1*
X153234Y466130D1*
X149431Y464185D1*
X153234Y505232D2*
X155180Y503331D1*
X157081Y505232D1*
X155180Y507177D1*
X153234Y505232D1*
X130286Y544422D2*
X136034Y542477D1*
X139881Y538674D1*
X141782Y532926D1*
Y531025D1*
X139881Y525277D1*
X136034Y521474D1*
X130286Y519529D1*
X128385D1*
X122637Y521474D1*
X118834Y525277D1*
X116933Y531025D1*
Y532926D1*
X118834Y538674D1*
X122637Y542477D1*
X130286Y544422D1*
X139881D1*
X149431Y542477D1*
X155180Y538674D1*
X157081Y532926D1*
Y529124D1*
X155180Y523376D1*
X151333Y521474D1*
X3957871Y895738D2*
X3955969Y901442D1*
X3952167Y903388D1*
X3948320D1*
X3944517Y901442D1*
X3942572Y897640D1*
X3940671Y889990D1*
X3938769Y884242D1*
X3934923Y880440D1*
X3931120Y878539D1*
X3925372D1*
X3921570Y880440D1*
X3919624Y882341D1*
X3917723Y888089D1*
Y895738D1*
X3919624Y901442D1*
X3921570Y903388D1*
X3925372Y905289D1*
X3931120D1*
X3934923Y903388D1*
X3938769Y899541D1*
X3940671Y893837D1*
X3942572Y886188D1*
X3944517Y882341D1*
X3948320Y880440D1*
X3952167D1*
X3955969Y882341D1*
X3957871Y888089D1*
Y895738D1*
X3917723Y858538D2*
X3957871Y839392D1*
Y866187D1*
Y815545D2*
X3955969Y821293D1*
X3950221Y825140D1*
X3940671Y827041D1*
X3934923D1*
X3925372Y825140D1*
X3919624Y821293D1*
X3917723Y815545D1*
Y811742D1*
X3919624Y805994D1*
X3925372Y802192D1*
X3934923Y800246D1*
X3940671D1*
X3950221Y802192D1*
X3955969Y805994D1*
X3957871Y811742D1*
Y815545D1*
X3950221Y802192D2*
X3925372Y825140D1*
X3921570Y785994D2*
X3919624Y787895D1*
X3917723Y785994D1*
X3919624Y784048D1*
X3921570Y785994D1*
X3944517Y746803D2*
X3938769Y748749D1*
X3934923Y752551D1*
X3933021Y758300D1*
Y760201D1*
X3934923Y765949D1*
X3938769Y769751D1*
X3944517Y771697D1*
X3946419D1*
X3952167Y769751D1*
X3955969Y765949D1*
X3957871Y760201D1*
Y758300D1*
X3955969Y752551D1*
X3952167Y748749D1*
X3944517Y746803D1*
X3934923D1*
X3925372Y748749D1*
X3919624Y752551D1*
X3917723Y758300D1*
Y762102D1*
X3919624Y767850D1*
X3923471Y769751D1*
X1764239Y4745564D2*
Y4747465D1*
X1766140Y4751312D1*
X1768041Y4753213D1*
X1771888Y4755115D1*
X1779537D1*
X1783340Y4753213D1*
X1785241Y4751312D1*
X1787187Y4747465D1*
Y4743663D1*
X1785241Y4739816D1*
X1781439Y4734112D1*
X1762293Y4714967D1*
X1789088D1*
X1826333Y4741762D2*
X1824387Y4736014D1*
X1820585Y4732167D1*
X1814837Y4730265D1*
X1812935D1*
X1807187Y4732167D1*
X1803385Y4736014D1*
X1801439Y4741762D1*
Y4743663D1*
X1803385Y4749411D1*
X1807187Y4753213D1*
X1812935Y4755115D1*
X1814837D1*
X1820585Y4753213D1*
X1824387Y4749411D1*
X1826333Y4741762D1*
Y4732167D1*
X1824387Y4722616D1*
X1820585Y4716868D1*
X1814837Y4714967D1*
X1811034D1*
X1805286Y4716868D1*
X1803385Y4720715D1*
X1838684Y4747465D2*
X1842531Y4749411D1*
X1848279Y4755115D1*
Y4714967D1*
X1864477Y4755115D2*
X1885479D1*
X1874028Y4739816D1*
X1879776D1*
X1883578Y4737915D1*
X1885479Y4736014D1*
X1887425Y4730265D1*
Y4726463D1*
X1885479Y4720715D1*
X1881677Y4716868D1*
X1875929Y4714967D1*
X1870181D1*
X1864477Y4716868D1*
X1862576Y4718814D1*
X1860630Y4722616D1*
X1901678Y4718814D2*
X1899776Y4716868D1*
X1901678Y4714967D1*
X1903623Y4716868D1*
X1901678Y4718814D1*
X1935120Y4714967D2*
Y4755115D1*
X1915974Y4728364D1*
X1944670D1*
X2490662Y5080143D2*
X2494508Y5082088D1*
X2500257Y5087792D1*
Y5047644D1*
X2531753D2*
Y5087792D1*
X2512608Y5061041D1*
X2541304D1*
X2576603Y5087792D2*
X2557502D1*
X2555601Y5070592D1*
X2557502Y5072493D1*
X2563250Y5074439D1*
X2568954D1*
X2574702Y5072493D1*
X2578549Y5068691D1*
X2580450Y5062943D1*
Y5059140D1*
X2578549Y5053392D1*
X2574702Y5049545D1*
X2568954Y5047644D1*
X2563250D1*
X2557502Y5049545D1*
X2555601Y5051491D1*
X2553655Y5055293D1*
X2615749Y5082088D2*
X2613848Y5085891D1*
X2608100Y5087792D1*
X2604297D1*
X2598549Y5085891D1*
X2594703Y5080143D1*
X2592801Y5070592D1*
Y5061041D1*
X2594703Y5053392D1*
X2598549Y5049545D1*
X2604297Y5047644D1*
X2606199D1*
X2611902Y5049545D1*
X2615749Y5053392D1*
X2617650Y5059140D1*
Y5061041D1*
X2615749Y5066789D1*
X2611902Y5070592D1*
X2606199Y5072493D1*
X2604297D1*
X2598549Y5070592D1*
X2594703Y5066789D1*
X2592801Y5061041D1*
X2631903Y5051491D2*
X2630002Y5049545D1*
X2631903Y5047644D1*
X2633849Y5049545D1*
X2631903Y5051491D1*
X2653849Y5047644D2*
X2672995Y5087792D1*
X2646200D1*
X2490662Y111639D2*
X2494508Y113584D1*
X2500257Y119288D1*
Y79140D1*
X2531753D2*
Y119288D1*
X2512608Y92537D1*
X2541304D1*
X2576603Y119288D2*
X2557502D1*
X2555601Y102088D1*
X2557502Y103989D1*
X2563250Y105935D1*
X2568954D1*
X2574702Y103989D1*
X2578549Y100187D1*
X2580450Y94439D1*
Y90636D1*
X2578549Y84888D1*
X2574702Y81041D1*
X2568954Y79140D1*
X2563250D1*
X2557502Y81041D1*
X2555601Y82987D1*
X2553655Y86789D1*
X2615749Y113584D2*
X2613848Y117387D1*
X2608100Y119288D1*
X2604297D1*
X2598549Y117387D1*
X2594703Y111639D1*
X2592801Y102088D1*
Y92537D1*
X2594703Y84888D1*
X2598549Y81041D1*
X2604297Y79140D1*
X2606199D1*
X2611902Y81041D1*
X2615749Y84888D1*
X2617650Y90636D1*
Y92537D1*
X2615749Y98285D1*
X2611902Y102088D1*
X2606199Y103989D1*
X2604297D1*
X2598549Y102088D1*
X2594703Y98285D1*
X2592801Y92537D1*
X2631903Y82987D2*
X2630002Y81041D1*
X2631903Y79140D1*
X2633849Y81041D1*
X2631903Y82987D1*
X2653849Y79140D2*
X2672995Y119288D1*
X2646200D1*
X548634Y3983423D2*
X552481Y3985369D1*
X558229Y3991073D1*
Y3950925D1*
X582076Y3991073D2*
X576328Y3989171D1*
X572481Y3983423D1*
X570580Y3973873D1*
Y3968125D1*
X572481Y3958574D1*
X576328Y3952826D1*
X582076Y3950925D1*
X585879D1*
X591627Y3952826D1*
X595429Y3958574D1*
X597375Y3968125D1*
Y3973873D1*
X595429Y3983423D1*
X591627Y3989171D1*
X585879Y3991073D1*
X582076D1*
X595429Y3983423D2*
X572481Y3958574D1*
X632674Y3985369D2*
X630773Y3989171D1*
X625025Y3991073D1*
X621222D1*
X615474Y3989171D1*
X611627Y3983423D1*
X609726Y3973873D1*
Y3964322D1*
X611627Y3956673D1*
X615474Y3952826D1*
X621222Y3950925D1*
X623123D1*
X628827Y3952826D1*
X632674Y3956673D1*
X634575Y3962421D1*
Y3964322D1*
X632674Y3970070D1*
X628827Y3973873D1*
X623123Y3975774D1*
X621222D1*
X615474Y3973873D1*
X611627Y3970070D1*
X609726Y3964322D1*
X648828Y3954772D2*
X646927Y3952826D1*
X648828Y3950925D1*
X650773Y3952826D1*
X648828Y3954772D1*
X666972Y3991073D2*
X687974D1*
X676522Y3975774D1*
X682270D1*
X686073Y3973873D1*
X687974Y3971972D1*
X689920Y3966223D1*
Y3962421D1*
X687974Y3956673D1*
X684171Y3952826D1*
X678423Y3950925D1*
X672675D1*
X666972Y3952826D1*
X665070Y3954772D1*
X663125Y3958574D1*
X255778Y3988891D2*
Y3969790D1*
X272978Y3967889D1*
X271077Y3969790D1*
X269131Y3975538D1*
Y3981242D1*
X271077Y3986990D1*
X274879Y3990837D1*
X280627Y3992738D1*
X284430D1*
X290178Y3990837D1*
X294025Y3986990D1*
X295926Y3981242D1*
Y3975538D1*
X294025Y3969790D1*
X292079Y3967889D1*
X288277Y3965943D1*
X263427Y4005089D2*
X261482Y4008936D1*
X255778Y4014684D1*
X295926D1*
X255778Y4030882D2*
Y4051885D1*
X271077Y4040433D1*
Y4046181D1*
X272978Y4049984D1*
X274879Y4051885D1*
X280627Y4053830D1*
X284430D1*
X290178Y4051885D1*
X294025Y4048082D1*
X295926Y4042334D1*
Y4036586D1*
X294025Y4030882D1*
X292079Y4028981D1*
X288277Y4027036D1*
X292079Y4068083D2*
X294025Y4066182D1*
X295926Y4068083D1*
X294025Y4070028D1*
X292079Y4068083D1*
X255778Y4091930D2*
X257679Y4086227D1*
X261482Y4084281D1*
X265329D1*
X269131Y4086227D1*
X271077Y4090029D1*
X272978Y4097679D1*
X274879Y4103427D1*
X278726Y4107229D1*
X282529Y4109130D1*
X288277D1*
X292079Y4107229D1*
X294025Y4105328D1*
X295926Y4099580D1*
Y4091930D1*
X294025Y4086227D1*
X292079Y4084281D1*
X288277Y4082380D1*
X282529D1*
X278726Y4084281D1*
X274879Y4088128D1*
X272978Y4093832D1*
X271077Y4101481D1*
X269131Y4105328D1*
X265329Y4107229D1*
X261482D1*
X257679Y4105328D1*
X255778Y4099580D1*
Y4091930D1*
M02*
