G04 DipTrace 3.0.0.0*
G04 TopMask.gbr*
%MOIN*%
G04 #@! TF.FileFunction,Soldermask,Top*
G04 #@! TF.Part,Single*
%AMOUTLINE1*5,1,4,0,0,0.082002,-179.999998*%
%AMOUTLINE4*5,1,4,0,0,0.082002,0.0*%
%AMOUTLINE7*5,1,4,0,0,0.082002,-90.0*%
%ADD35C,0.062992*%
%ADD41R,0.070866X0.070866*%
%ADD42C,0.070866*%
%ADD55C,0.15748*%
%ADD56C,0.127953*%
%ADD66C,0.057874*%
%ADD68C,0.057874*%
%ADD70C,0.076772*%
%ADD72R,0.076772X0.076772*%
%ADD74O,0.086614X0.185039*%
%ADD76O,0.204724X0.086614*%
%ADD78O,0.185039X0.086614*%
%ADD80C,0.145669*%
%ADD83C,0.125984*%
%ADD85C,0.07874*%
%ADD86R,0.07874X0.07874*%
%ADD87R,0.057874X0.057874*%
%ADD89C,0.067874*%
%ADD91C,0.066929*%
%ADD93R,0.066929X0.066929*%
%ADD97C,0.070866*%
%ADD99R,0.226378X0.25*%
%ADD101R,0.047244X0.116142*%
%ADD107OUTLINE1*%
%ADD110OUTLINE4*%
%ADD113OUTLINE7*%
%FSLAX26Y26*%
G04*
G70*
G90*
G75*
G01*
G04 TopMask*
%LPD*%
D101*
X2620341Y3682284D3*
X2799869D3*
D99*
X2710105Y3946063D3*
D41*
X1427166Y3683071D3*
D97*
Y3783071D3*
D41*
X3033465Y3710630D3*
D97*
Y3810630D3*
D93*
X1263780Y3421260D3*
D91*
Y3818898D3*
D89*
X3118898Y3241470D3*
D87*
Y3341470D3*
D93*
X2340551Y3259843D3*
D91*
Y2862205D3*
D93*
X1413386Y3224410D3*
D91*
Y2826772D3*
D55*
X3165617Y4153544D3*
X3165355Y547507D3*
X533858Y547638D3*
X533727Y4153675D3*
D86*
X2718504Y1287402D3*
D85*
X2618504Y1337414D3*
X2718504Y1387414D3*
X2618504Y1437414D3*
X2718504Y1487414D3*
X2618504Y1537414D3*
X2718504Y1587414D3*
X2618504Y1637402D3*
D83*
X3088583Y1157481D3*
Y1767323D3*
D56*
X2968504Y1237402D3*
Y1687402D3*
D41*
X2700788Y2397638D3*
D42*
Y2299213D3*
X2779528D3*
Y2397638D3*
D80*
X2886221Y2111418D3*
Y2585433D3*
D41*
X929134Y2240158D3*
D91*
Y2141732D3*
Y2062992D3*
D42*
Y1964567D3*
D80*
X822441Y2361024D3*
Y1843701D3*
D78*
X1007874Y3954725D3*
D76*
Y3718504D3*
D74*
X822835Y3836614D3*
D72*
X720473Y3480315D3*
D70*
Y3380315D3*
Y3280315D3*
Y3180315D3*
X820473D3*
Y3280315D3*
Y3380315D3*
Y3480315D3*
D72*
X2517717Y3501969D3*
D70*
X2617717D3*
D86*
X982284Y1523622D3*
D85*
X1082284Y1473610D3*
X982284Y1423610D3*
X1082284Y1373610D3*
X982284Y1323610D3*
X1082284Y1273610D3*
X982284Y1223610D3*
X1082284Y1173622D3*
D83*
X612205Y1653544D3*
Y1043701D3*
D56*
X732284Y1573622D3*
Y1123622D3*
D93*
X2102362Y1464567D3*
D91*
X1902362D3*
X1802362D3*
X1702362D3*
Y1264567D3*
X1802362D3*
X1902362D3*
X2102362D3*
D93*
X2104331Y1799213D3*
D91*
X1904331D3*
X1804331D3*
X1704331D3*
Y1599213D3*
X1804331D3*
X1904331D3*
X2104331D3*
D93*
Y2139764D3*
D91*
X1904331D3*
X1804331D3*
X1704331D3*
Y1939764D3*
X1804331D3*
X1904331D3*
X2104331D3*
D93*
X2102362Y2476378D3*
D91*
X1902362D3*
X1802362D3*
X1702362D3*
Y2276378D3*
X1802362D3*
X1902362D3*
X2102362D3*
D93*
X2100394Y2809055D3*
D91*
X1900394D3*
X1800394D3*
X1700394D3*
Y2609055D3*
X1800394D3*
X1900394D3*
X2100394D3*
D93*
X2104331Y3147638D3*
D91*
X1904331D3*
X1804331D3*
X1704331D3*
Y2947638D3*
X1804331D3*
X1904331D3*
X2104331D3*
D35*
X1069948Y2459974D3*
X1019948Y2509974D3*
D107*
X1069948Y2559974D3*
D35*
X1058137Y3259449D3*
X1108137Y3209449D3*
D110*
X1058137Y3159449D3*
D35*
X1216273Y2713517D3*
X1166273Y2763517D3*
D107*
X1216273Y2813517D3*
D35*
X1107481Y2963649D3*
X1057481Y2913649D3*
D113*
X1007481Y2963649D3*
D68*
X2925984Y3542651D3*
D66*
Y3242651D3*
D68*
X874016Y2594488D3*
D66*
Y2894488D3*
D68*
X773622Y3070866D3*
D66*
Y2770866D3*
D93*
X500000Y3777559D3*
D91*
X600000D3*
X500000Y3677559D3*
X600000D3*
X500000Y3577559D3*
X600000D3*
X500000Y3477559D3*
X600000D3*
X500000Y3377559D3*
X600000D3*
X500000Y3277559D3*
X600000D3*
X500000Y3177559D3*
X600000D3*
X500000Y3077559D3*
X600000D3*
X500000Y2977559D3*
X600000D3*
X500000Y2877559D3*
X600000D3*
X500000Y2777559D3*
X600000D3*
X500000Y2677559D3*
X600000D3*
X500000Y2577559D3*
X600000D3*
M02*
