G04 DipTrace 3.0.0.0*
G04 TopSilk.gbr*
%MOIN*%
G04 #@! TF.FileFunction,Legend,Top*
G04 #@! TF.Part,Single*
%ADD10C,0.01*%
%ADD12C,0.002992*%
%ADD31C,0.01541*%
%ADD103C,0.006176*%
%ADD104C,0.013895*%
%FSLAX26Y26*%
G04*
G70*
G90*
G75*
G01*
G04 TopSilk*
%LPD*%
X2580179Y3753170D2*
D10*
X2840021D1*
X2580179Y4028760D2*
Y3753170D1*
Y4028760D2*
X2588044D1*
X2840021D2*
Y3753170D1*
Y4028760D2*
X2832156D1*
D31*
X2581112Y3638224D3*
X1438986Y3603190D2*
D10*
X1415346D1*
X1427166Y3591371D2*
Y3614984D1*
X1327166Y3733100D2*
G02X1327166Y3733100I100000J0D01*
G01*
X3045285Y3630749D2*
X3021645D1*
X3033465Y3618930D2*
Y3642544D1*
X2933465Y3760659D2*
G02X2933465Y3760659I100000J0D01*
G01*
X1309055Y3519607D2*
X1218504D1*
Y3720551D1*
X1309055Y3552991D2*
X1218504D1*
X1309055Y3720551D2*
X1218504D1*
X1309055Y3519607D2*
Y3720551D1*
X3043960Y3391463D2*
X3193836D1*
X3043660Y3391238D2*
G03X3194136Y3391238I75238J-99796D01*
G01*
X2295276Y3161496D2*
X2385827D1*
Y2960551D1*
X2295276Y3128112D2*
X2385827D1*
X2295276Y2960551D2*
X2385827D1*
X2295276Y3161496D2*
Y2960551D1*
X1368110Y3126063D2*
X1458662D1*
Y2925118D1*
X1368110Y3092679D2*
X1458662D1*
X1368110Y2925118D2*
X1458662D1*
X1368110Y3126063D2*
Y2925118D1*
X3290551Y1139555D2*
X3162621D1*
X2778758D2*
X3013016D1*
X2782713D2*
X2558268D1*
Y1785249D1*
X2782713D1*
X2778758D2*
X3013016D1*
X3162621D2*
X3290551D1*
Y1139555D1*
X2672835Y2112205D2*
Y2249985D1*
X3290945Y2112205D2*
X2964204D1*
X2798844D2*
X2672835D1*
Y2584646D2*
X2802761D1*
X2968120D2*
X3290945D1*
Y2112205D1*
X2672835Y2584646D2*
Y2458674D1*
X976772Y2362182D2*
Y1842543D1*
X417717D2*
X740571D1*
X901970D2*
X976772D1*
X417717D2*
Y2362182D1*
X736602D1*
X901970D2*
X976772D1*
X1185040Y4257874D2*
X830690D1*
Y3942924D1*
X828722Y3730295D2*
X828762Y3690940D1*
X897632D1*
X1118097D2*
X1185040D1*
Y4257874D1*
X872047Y3531496D2*
X668898D1*
Y3129134D1*
X872047D1*
Y3531496D1*
X2669292Y3553150D2*
X2466142D1*
Y3450788D1*
X2669292D1*
Y3553150D1*
X410236Y1671469D2*
X538166D1*
X922029D2*
X687772D1*
X918075D2*
X1142520D1*
Y1025775D1*
X918075D1*
X922029D2*
X687772D1*
X538166D2*
X410236D1*
Y1671469D1*
X2143701Y1222835D2*
X1561024D1*
Y1506299D1*
X2143701D1*
Y1222835D1*
G36*
X2127386Y1414570D2*
X2102389D1*
Y1314564D1*
X2127386D1*
Y1414570D1*
G37*
X2145670Y1557481D2*
D10*
X1562992D1*
Y1840945D1*
X2145670D1*
Y1557481D1*
G36*
X2129355Y1749216D2*
X2104358D1*
Y1649210D1*
X2129355D1*
Y1749216D1*
G37*
X2145670Y1898032D2*
D10*
X1562992D1*
Y2181496D1*
X2145670D1*
Y1898032D1*
G36*
X2129355Y2089767D2*
X2104358D1*
Y1989761D1*
X2129355D1*
Y2089767D1*
G37*
X2143701Y2234646D2*
D10*
X1561024D1*
Y2518110D1*
X2143701D1*
Y2234646D1*
G36*
X2127386Y2426381D2*
X2102389D1*
Y2326375D1*
X2127386D1*
Y2426381D1*
G37*
X2141732Y2567323D2*
D10*
X1559055D1*
Y2850788D1*
X2141732D1*
Y2567323D1*
G36*
X2125418Y2759058D2*
X2100421D1*
Y2659052D1*
X2125418D1*
Y2759058D1*
G37*
X2145670Y2905906D2*
D10*
X1562992D1*
Y3189370D1*
X2145670D1*
Y2905906D1*
G36*
X2129355Y3097641D2*
X2104358D1*
Y2997635D1*
X2129355D1*
Y3097641D1*
G37*
X1146850Y2594751D2*
D10*
X1166539Y2614441D1*
Y2575060D2*
X1186227Y2594751D1*
X1166539Y2614441D1*
X955952Y2509927D2*
G02X955952Y2509927I113952J0D01*
G01*
X981234Y3124672D2*
X961546Y3104982D1*
Y3144363D2*
X941857Y3124672D1*
X961546Y3104982D1*
X944229Y3209496D2*
G02X944229Y3209496I113952J0D01*
G01*
X1293176Y2848294D2*
X1312864Y2867984D1*
Y2828604D2*
X1332553Y2848294D1*
X1312864Y2867984D1*
X1102277Y2763470D2*
G02X1102277Y2763470I113952J0D01*
G01*
X972704Y3040551D2*
X953013Y3060239D1*
X992394D2*
X972704Y3079928D1*
X953013Y3060239D1*
X943578Y2963604D2*
G02X943578Y2963604I113949J0D01*
G01*
X2955984Y3472801D2*
X2895984D1*
X2955984Y3312501D2*
Y3472801D1*
Y3312501D2*
X2895984D1*
Y3472801D1*
X844016Y2664338D2*
X904016D1*
X844016Y2824638D2*
Y2664338D1*
Y2824638D2*
X904016D1*
Y2664338D1*
X803622Y3001016D2*
X743622D1*
X803622Y2840716D2*
Y3001016D1*
Y2840716D2*
X743622D1*
Y3001016D1*
X450000Y2527559D2*
X650000D1*
X450000Y3827559D2*
X650000D1*
Y2527559D1*
X450000Y3827559D2*
Y2527559D1*
X1819598Y3718137D2*
D12*
X1870462D1*
X1819484Y3715145D2*
X1870474D1*
X1819100Y3712153D2*
X1870579D1*
X1818383Y3709161D2*
X1870960D1*
X1817616Y3706169D2*
X1871677D1*
X1817094Y3703177D2*
X1872444D1*
X1816805Y3700185D2*
X1872966D1*
X1816573Y3697193D2*
X1873255D1*
X1816139Y3694201D2*
X1873487D1*
X1815402Y3691209D2*
X1873921D1*
X1814628Y3688217D2*
X1874657D1*
X1814104Y3685225D2*
X1875432D1*
X1732830Y3682233D2*
X1738814D1*
X1813813D2*
X1875968D1*
X1951246D2*
X1954238D1*
X1730300Y3679241D2*
X1743301D1*
X1813558D2*
X1876375D1*
X1946410D2*
X1957230D1*
X1728050Y3676249D2*
X1747536D1*
X1813176D2*
X1876848D1*
X1941806D2*
X1960222D1*
X1725833Y3673257D2*
X1751692D1*
X1811650D2*
X1878397D1*
X1937499D2*
X1963214D1*
X1723365Y3670265D2*
X1755749D1*
X1808065D2*
X1881990D1*
X1933397D2*
X1966206D1*
X1720651Y3667273D2*
X1759724D1*
X1803370D2*
X1886688D1*
X1929218D2*
X1969198D1*
X1717786Y3664281D2*
X1763766D1*
X1797600D2*
X1892459D1*
X1924832D2*
X1972190D1*
X1714847Y3661289D2*
X1767791D1*
X1790891D2*
X1899168D1*
X1920185D2*
X1975182D1*
X1711886Y3658297D2*
X1771726D1*
X1783694D2*
X1906366D1*
X1915342D2*
X1978162D1*
X1709019Y3655305D2*
X1981026D1*
X1706539Y3652313D2*
X1983414D1*
X1704517Y3649321D2*
X1985227D1*
X1703946Y3646329D2*
X1985094D1*
X1704875Y3643337D2*
X1984342D1*
X1706342Y3640345D2*
X1983177D1*
X1708053Y3637353D2*
X1981725D1*
X1709935Y3634361D2*
X1979997D1*
X1711918Y3631369D2*
X1978077D1*
X1713776Y3628377D2*
X1976159D1*
X1715480Y3625385D2*
X1974191D1*
X1717165Y3622393D2*
X1972164D1*
X1718986Y3619401D2*
X1970201D1*
X1720940Y3616409D2*
X1968216D1*
X1722882Y3613417D2*
X1966195D1*
X1724951Y3610425D2*
X1964346D1*
X1727314Y3607433D2*
X1962860D1*
X1729838Y3604441D2*
X1961730D1*
X1728343Y3601449D2*
X1962082D1*
X1727088Y3598457D2*
X1962937D1*
X1725831Y3595465D2*
X1964047D1*
X1724490Y3592473D2*
X1965137D1*
X1723162Y3589481D2*
X1966156D1*
X1721982Y3586489D2*
X1967300D1*
X1720930Y3583497D2*
X1968592D1*
X1719774Y3580505D2*
X1828700D1*
X1861012D2*
X1969901D1*
X1718431Y3577513D2*
X1823216D1*
X1866137D2*
X1971120D1*
X1716653Y3574521D2*
X1818447D1*
X1870848D2*
X1972288D1*
X1714286Y3571529D2*
X1814457D1*
X1875082D2*
X1974808D1*
X1707699Y3568537D2*
X1811082D1*
X1878701D2*
X1981432D1*
X1698446Y3565545D2*
X1808260D1*
X1881661D2*
X1990613D1*
X1687992Y3562553D2*
X1805913D1*
X1883989D2*
X2001172D1*
X1678934Y3559561D2*
X1803773D1*
X1885885D2*
X2010551D1*
X1671828Y3556569D2*
X1801778D1*
X1887546D2*
X2017975D1*
X1668893Y3553577D2*
X1800170D1*
X1889015D2*
X2021065D1*
X1667877Y3550585D2*
X1798904D1*
X1890252D2*
X2022136D1*
X1667360Y3547593D2*
X1797751D1*
X1891314D2*
X2022681D1*
X1667139Y3544601D2*
X1796793D1*
X1892373D2*
X2022914D1*
X1667053Y3541609D2*
X1796195D1*
X1893291D2*
X2023004D1*
X1667022Y3538617D2*
X1795888D1*
X1893874D2*
X2023037D1*
X1667011Y3535625D2*
X1795751D1*
X1894174D2*
X2023048D1*
X1667008Y3532633D2*
X1795695D1*
X1894310D2*
X2023052D1*
X1667006Y3529641D2*
X1795674D1*
X1894353D2*
X2023053D1*
X1667006Y3526649D2*
X1795678D1*
X1894269D2*
X2023054D1*
X1667006Y3523657D2*
X1795780D1*
X1893896D2*
X2023054D1*
X1667006Y3520665D2*
X1796161D1*
X1893170D2*
X2023054D1*
X1667006Y3517673D2*
X1796889D1*
X1892299D2*
X2023054D1*
X1667029Y3514681D2*
X1797761D1*
X1891384D2*
X2023019D1*
X1667298Y3511689D2*
X1798676D1*
X1890285D2*
X2022914D1*
X1667964Y3508697D2*
X1799786D1*
X1888998D2*
X2021780D1*
X1671354Y3505705D2*
X1801179D1*
X1887590D2*
X2016972D1*
X1679701Y3502713D2*
X1802968D1*
X1886027D2*
X2009337D1*
X1689914Y3499721D2*
X1805247D1*
X1884156D2*
X1999549D1*
X1699848Y3496729D2*
X1807885D1*
X1881842D2*
X1989813D1*
X1707286Y3493737D2*
X1810733D1*
X1879179D2*
X1982261D1*
X1712599Y3490745D2*
X1813756D1*
X1876244D2*
X1976637D1*
X1714942Y3487753D2*
X1816989D1*
X1873048D2*
X1974316D1*
X1716845Y3484761D2*
X1820179D1*
X1869873D2*
X1972682D1*
X1718415Y3481769D2*
X1823042D1*
X1867016D2*
X1971364D1*
X1719689Y3478777D2*
X1824197D1*
X1865862D2*
X1970243D1*
X1720764Y3475785D2*
X1823808D1*
X1866150D2*
X1969231D1*
X1721838Y3472793D2*
X1822913D1*
X1866766D2*
X1968096D1*
X1722863Y3469801D2*
X1821779D1*
X1867565D2*
X1966808D1*
X1723828Y3466809D2*
X1820676D1*
X1868617D2*
X1965513D1*
X1724833Y3463817D2*
X1819651D1*
X1869875D2*
X1964447D1*
X1725631Y3460825D2*
X1818505D1*
X1871172D2*
X1963802D1*
X1726069Y3457833D2*
X1817212D1*
X1872340D2*
X1963586D1*
X1725355Y3454841D2*
X1815903D1*
X1873388D2*
X1963925D1*
X1724282Y3451849D2*
X1814730D1*
X1874542D2*
X1964974D1*
X1722970Y3448857D2*
X1813692D1*
X1875839D2*
X1966552D1*
X1721457Y3445865D2*
X1812631D1*
X1877149D2*
X1968319D1*
X1719706Y3442873D2*
X1811611D1*
X1878321D2*
X1970225D1*
X1717778Y3439881D2*
X1810636D1*
X1879360D2*
X1972229D1*
X1715856Y3436889D2*
X1809514D1*
X1880421D2*
X1974183D1*
X1713888Y3433897D2*
X1808230D1*
X1881441D2*
X1976165D1*
X1711860Y3430905D2*
X1806925D1*
X1882416D2*
X1978186D1*
X1709897Y3427913D2*
X1805754D1*
X1883538D2*
X1980057D1*
X1707924Y3424921D2*
X1804704D1*
X1884822D2*
X1981754D1*
X1706019Y3421929D2*
X1803550D1*
X1886127D2*
X1983324D1*
X1704360Y3418937D2*
X1802253D1*
X1887298D2*
X1984635D1*
X1703890Y3415945D2*
X1800943D1*
X1888336D2*
X1985632D1*
X1704964Y3412953D2*
X1799771D1*
X1889397D2*
X1985132D1*
X1706830Y3409961D2*
X1798721D1*
X1890417D2*
X1983182D1*
X1709275Y3406969D2*
X1797566D1*
X1891392D2*
X1980752D1*
X1712032Y3403977D2*
X1796267D1*
X1892524D2*
X1978012D1*
X1714920Y3400985D2*
X1769322D1*
X1780702D2*
X1794941D1*
X1893896D2*
X1909358D1*
X1921788D2*
X1975122D1*
X1717772Y3397993D2*
X1764568D1*
X1786686D2*
X1793734D1*
X1895543D2*
X1903374D1*
X1925534D2*
X1972169D1*
X1720370Y3395001D2*
X1760469D1*
X1792670D2*
D3*
X1897390D2*
D3*
X1929406D2*
X1969191D1*
X1722641Y3392009D2*
X1756598D1*
X1933303D2*
X1966215D1*
X1724865Y3389017D2*
X1752565D1*
X1937290D2*
X1963339D1*
X1727332Y3386025D2*
X1748252D1*
X1941184D2*
X1960810D1*
X1730031Y3383033D2*
X1743638D1*
X1944797D2*
X1958841D1*
X1732830Y3380041D2*
X1738814D1*
X1948254D2*
X1957230D1*
X1625118Y3338153D2*
X1646062D1*
X1664014D2*
X1672990D1*
X1678974D2*
X1693934D1*
X1717870D2*
X1735822D1*
X1756766D2*
X1786686D1*
X1831566D2*
X1852510D1*
X1876446D2*
X1894398D1*
X1915342D2*
X1921326D1*
X1942270D2*
X1951246D1*
X1963214D2*
X1993134D1*
X2005102D2*
X2023054D1*
X2043998D2*
X2061950D1*
X1622714Y3335161D2*
X1648478D1*
X1664014D2*
X1696338D1*
X1715352D2*
X1739058D1*
X1756766D2*
X1788529D1*
X1828341D2*
X1855280D1*
X1873580D2*
X1897264D1*
X1915342D2*
X1921326D1*
X1942270D2*
X1951246D1*
X1963214D2*
X1991988D1*
X2001866D2*
X2026717D1*
X2041480D2*
X2064712D1*
X1620964Y3332169D2*
X1650333D1*
X1664014D2*
X1698088D1*
X1713219D2*
X1741624D1*
X1756766D2*
X1790131D1*
X1825881D2*
X1856162D1*
X1871088D2*
X1899756D1*
X1915342D2*
X1921326D1*
X1942270D2*
X1951246D1*
X1963214D2*
X1990625D1*
X1999300D2*
X2029491D1*
X2039347D2*
X2066758D1*
X1619962Y3329177D2*
X1651716D1*
X1664014D2*
X1699090D1*
X1711500D2*
X1743650D1*
X1756766D2*
X1791340D1*
X1824248D2*
X1855881D1*
X1869311D2*
X1901544D1*
X1915342D2*
X1921326D1*
X1942270D2*
X1951246D1*
X1963214D2*
X1988988D1*
X1997274D2*
X2029803D1*
X2037628D2*
X2067382D1*
X1619476Y3326185D2*
X1628698D1*
X1643532D2*
X1652918D1*
X1664014D2*
X1676570D1*
X1687374D2*
X1699576D1*
X1710246D2*
X1721412D1*
X1736372D2*
X1745276D1*
X1756766D2*
X1769322D1*
X1780114D2*
X1792057D1*
X1823186D2*
X1832501D1*
X1849518D2*
X1855502D1*
X1868301D2*
X1879912D1*
X1890818D2*
X1902659D1*
X1915342D2*
X1921326D1*
X1942270D2*
X1951246D1*
X1963214D2*
X1975770D1*
X1987150D2*
D3*
X1995648D2*
X2008220D1*
X2023054D2*
X2029038D1*
X2036374D2*
X2047540D1*
X2062500D2*
X2067707D1*
X1619266Y3323193D2*
X1626948D1*
X1644274D2*
X1653896D1*
X1664014D2*
X1674820D1*
X1689238D2*
X1699786D1*
X1709514D2*
X1719470D1*
X1737422D2*
X1746477D1*
X1756766D2*
X1767572D1*
X1781864D2*
X1792413D1*
X1823338D2*
X1836447D1*
X1867813D2*
X1877779D1*
X1892568D2*
X1903529D1*
X1915342D2*
X1921326D1*
X1942270D2*
X1951246D1*
X1963214D2*
X1974020D1*
X1994447D2*
X2005728D1*
X2035642D2*
X2045598D1*
X2063550D2*
X2067848D1*
X1619182Y3320201D2*
X1625946D1*
X1645049D2*
X1654501D1*
X1664014D2*
X1673818D1*
X1690705D2*
X1699870D1*
X1709153D2*
X1717870D1*
X1738814D2*
X1747185D1*
X1756766D2*
X1766570D1*
X1782866D2*
X1792570D1*
X1824057D2*
X1842176D1*
X1867602D2*
X1876071D1*
X1893570D2*
X1904456D1*
X1915342D2*
X1921338D1*
X1942270D2*
X1951246D1*
X1963214D2*
X1973018D1*
X1993739D2*
X2003951D1*
X2035281D2*
X2043998D1*
X2064942D2*
X2067903D1*
X1619151Y3317209D2*
X1625460D1*
X1645573D2*
X1654810D1*
X1664014D2*
X1673332D1*
X1692237D2*
X1699901D1*
X1708995D2*
X1747537D1*
X1756766D2*
X1766084D1*
X1783352D2*
X1792633D1*
X1825174D2*
X1848185D1*
X1867518D2*
X1874923D1*
X1894056D2*
X1905296D1*
X1915342D2*
X1921443D1*
X1942270D2*
X1951246D1*
X1963214D2*
X1972532D1*
X1993387D2*
X2002953D1*
X2035123D2*
X2067923D1*
X1619140Y3314217D2*
X1625262D1*
X1645839D2*
X1654948D1*
X1664014D2*
X1673134D1*
X1693934D2*
X1699912D1*
X1708931D2*
X1747691D1*
X1756766D2*
X1765874D1*
X1783562D2*
X1792657D1*
X1827618D2*
X1852841D1*
X1867487D2*
X1874292D1*
X1894266D2*
X1905744D1*
X1915342D2*
X1921824D1*
X1942258D2*
X1951246D1*
X1963214D2*
X1972322D1*
X1993233D2*
X2002570D1*
X2035059D2*
X2067930D1*
X1619136Y3311225D2*
X1625292D1*
X1645852D2*
X1654993D1*
X1664014D2*
X1673164D1*
X1692553D2*
X1699916D1*
X1708919D2*
X1747756D1*
X1756766D2*
X1765790D1*
X1783646D2*
X1792665D1*
X1832839D2*
X1856303D1*
X1867476D2*
X1874881D1*
X1894326D2*
X1905651D1*
X1915342D2*
X1922541D1*
X1942144D2*
X1951246D1*
X1963214D2*
X1972238D1*
X1993182D2*
X2002764D1*
X2035047D2*
X2067933D1*
X1619135Y3308233D2*
X1625723D1*
X1645443D2*
X1654909D1*
X1664014D2*
X1673595D1*
X1691690D2*
X1699917D1*
X1709015D2*
X1717870D1*
X1756766D2*
X1765759D1*
X1783677D2*
X1792668D1*
X1838903D2*
X1857445D1*
X1867484D2*
X1875771D1*
X1894130D2*
X1905054D1*
X1915342D2*
X1923316D1*
X1941682D2*
X1951246D1*
X1963214D2*
X1972207D1*
X1993264D2*
X2003625D1*
X2035143D2*
X2043998D1*
X1619146Y3305241D2*
X1626734D1*
X1644440D2*
X1654524D1*
X1664014D2*
X1674606D1*
X1691233D2*
X1699906D1*
X1709405D2*
X1719470D1*
X1756766D2*
X1765748D1*
X1783688D2*
X1792669D1*
X1844544D2*
X1858053D1*
X1867587D2*
X1877169D1*
X1893601D2*
X1904235D1*
X1915354D2*
X1923883D1*
X1940659D2*
X1951246D1*
X1963214D2*
X1972196D1*
X1993648D2*
X2005293D1*
X2035533D2*
X2045598D1*
X1619263Y3302249D2*
X1628110D1*
X1643070D2*
X1653693D1*
X1664014D2*
X1675982D1*
X1690942D2*
X1699789D1*
X1710238D2*
X1721537D1*
X1738814D2*
D3*
X1756766D2*
X1765744D1*
X1783692D2*
X1792670D1*
X1825582D2*
X1828574D1*
X1849518D2*
X1858300D1*
X1867980D2*
X1879486D1*
X1891270D2*
X1903341D1*
X1915471D2*
X1924318D1*
X1939278D2*
X1951246D1*
X1963214D2*
X1972192D1*
X1994479D2*
X2007894D1*
X2023054D2*
X2026046D1*
X2036366D2*
X2047665D1*
X2064942D2*
D3*
X1619772Y3299257D2*
X1652417D1*
X1664014D2*
X1699291D1*
X1711514D2*
X1723854D1*
X1732830D2*
X1744798D1*
X1756766D2*
X1765743D1*
X1783693D2*
X1792670D1*
X1822590D2*
X1834558D1*
X1846526D2*
X1858174D1*
X1868825D2*
X1882430D1*
X1888414D2*
X1902226D1*
X1915969D2*
X1951246D1*
X1963214D2*
X1972191D1*
X1995755D2*
X2011086D1*
X2017070D2*
X2029038D1*
X2037642D2*
X2049982D1*
X2058958D2*
X2067934D1*
X1620741Y3296265D2*
X1650567D1*
X1664014D2*
X1698077D1*
X1713365D2*
X1744307D1*
X1756766D2*
X1765742D1*
X1783694D2*
X1792670D1*
X1819598D2*
X1857665D1*
X1870204D2*
X1900723D1*
X1917183D2*
X1951246D1*
X1963214D2*
X1972190D1*
X1997605D2*
X2032030D1*
X2039493D2*
X2067689D1*
X1623452Y3293273D2*
X1647848D1*
X1664014D2*
X1696098D1*
X1716084D2*
X1742449D1*
X1756766D2*
X1765742D1*
X1783694D2*
X1792670D1*
X1824190D2*
X1854937D1*
X1872394D2*
X1898481D1*
X1919162D2*
X1951246D1*
X1963214D2*
X1972190D1*
X2000324D2*
X2028488D1*
X2042212D2*
X2067139D1*
X1627023Y3290281D2*
X1644212D1*
X1664014D2*
X1693617D1*
X1719719D2*
X1737997D1*
X1756766D2*
X1765742D1*
X1783694D2*
X1792670D1*
X1829249D2*
X1851032D1*
X1875624D2*
X1895231D1*
X1921643D2*
X1951246D1*
X1963214D2*
X1972190D1*
X2003959D2*
X2024446D1*
X2045847D2*
X2064808D1*
X1631102Y3287289D2*
X1640078D1*
X1664014D2*
X1672990D1*
X1681966D2*
X1690942D1*
X1723854D2*
X1732830D1*
X1783694D2*
D3*
X1792670D2*
D3*
X1834558D2*
X1846526D1*
X1879438D2*
X1891406D1*
X1924318D2*
X1933294D1*
X1963214D2*
D3*
X1972190D2*
D3*
X2008094D2*
X2020062D1*
X2049982D2*
X2061950D1*
X1664014Y3284297D2*
X1672990D1*
X1664014Y3281305D2*
X1672990D1*
X1664014Y3278313D2*
X1672990D1*
X1819598D2*
X1828574D1*
X1664014Y3275321D2*
X1672990D1*
X1819598D2*
X1828574D1*
X1664014Y3272329D2*
X1672990D1*
X1819598D2*
X1828574D1*
X1664014Y3269337D2*
X1672990D1*
X1819598D2*
X1828574D1*
X1664014Y3266345D2*
X1672990D1*
X1819598D2*
X1828574D1*
X1664014Y3263353D2*
X1672990D1*
X1819598D2*
X1828574D1*
X1664014Y3260361D2*
X1672990D1*
X1819598D2*
X1828574D1*
X1664014Y3257369D2*
X1684143D1*
X1714878D2*
X1738814D1*
X1756766D2*
X1765742D1*
X1771726D2*
X1786686D1*
X1798654D2*
X1813614D1*
X1819598D2*
X1828574D1*
X1834558D2*
X1843534D1*
X1861486D2*
X1870462D1*
X1888414D2*
X1900382D1*
X1909358D2*
X1933294D1*
X1951246D2*
X1981166D1*
X1993134D2*
X2011086D1*
X1664014Y3254377D2*
X1691791D1*
X1713715D2*
X1741218D1*
X1756766D2*
X1789678D1*
X1796136D2*
X1828574D1*
X1834672D2*
X1843996D1*
X1861024D2*
X1871485D1*
X1888300D2*
X1898989D1*
X1906366D2*
X1935137D1*
X1951246D2*
X1980582D1*
X1990268D2*
X2013952D1*
X1664014Y3251385D2*
X1697042D1*
X1714028D2*
X1742968D1*
X1756766D2*
X1784950D1*
X1794003D2*
X1828574D1*
X1835055D2*
X1844738D1*
X1860282D2*
X1872387D1*
X1887916D2*
X1898025D1*
X1903374D2*
X1936739D1*
X1951246D2*
X1978159D1*
X1987776D2*
X2016456D1*
X1664014Y3248393D2*
X1698560D1*
X1715811D2*
X1743970D1*
X1756766D2*
X1779386D1*
X1792284D2*
X1828574D1*
X1835784D2*
X1845524D1*
X1859495D2*
X1873059D1*
X1887199D2*
X1897208D1*
X1906366D2*
X1937948D1*
X1951246D2*
X1972816D1*
X1985999D2*
X2018337D1*
X1664014Y3245401D2*
X1676570D1*
X1687476D2*
X1699354D1*
X1717870D2*
D3*
X1735272D2*
X1744456D1*
X1756766D2*
X1774130D1*
X1791030D2*
X1801184D1*
X1816720D2*
X1828574D1*
X1836657D2*
X1846154D1*
X1858866D2*
X1873734D1*
X1886420D2*
X1896287D1*
X1909358D2*
X1912350D1*
X1930302D2*
X1938665D1*
X1951246D2*
X1967589D1*
X1984989D2*
X1993134D1*
X2007544D2*
X2019729D1*
X1664014Y3242409D2*
X1674820D1*
X1689609D2*
X1699702D1*
X1737214D2*
X1744666D1*
X1756766D2*
X1770307D1*
X1790298D2*
X1800442D1*
X1817103D2*
X1828574D1*
X1837560D2*
X1846813D1*
X1858207D2*
X1874583D1*
X1885785D2*
X1895337D1*
X1930302D2*
X1939021D1*
X1951246D2*
X1963287D1*
X1984501D2*
X1993134D1*
X2009486D2*
X2020934D1*
X1664014Y3239417D2*
X1673818D1*
X1691328D2*
X1699840D1*
X1738814D2*
X1744750D1*
X1756766D2*
X1767509D1*
X1789937D2*
X1799667D1*
X1817821D2*
X1828574D1*
X1838566D2*
X1847657D1*
X1857363D2*
X1875412D1*
X1885044D2*
X1894404D1*
X1930302D2*
X1939178D1*
X1951246D2*
X1961699D1*
X1984290D2*
X1993134D1*
X2011086D2*
X2021912D1*
X1664014Y3236425D2*
X1673332D1*
X1692582D2*
X1699891D1*
X1726280D2*
X1744781D1*
X1756766D2*
X1766591D1*
X1789779D2*
X1799143D1*
X1818576D2*
X1828574D1*
X1839565D2*
X1848485D1*
X1856535D2*
X1876000D1*
X1883889D2*
X1893400D1*
X1919035D2*
X1939241D1*
X1951246D2*
X1960846D1*
X1984206D2*
X2022517D1*
X1664014Y3233433D2*
X1673122D1*
X1693314D2*
X1699909D1*
X1717773D2*
X1744792D1*
X1756766D2*
X1766100D1*
X1789715D2*
X1798877D1*
X1818993D2*
X1828574D1*
X1840520D2*
X1849072D1*
X1855947D2*
X1865066D1*
X1870474D2*
X1876446D1*
X1882430D2*
X1892490D1*
X1911004D2*
X1939265D1*
X1951246D2*
X1960465D1*
X1984175D2*
X2022827D1*
X1664014Y3230441D2*
X1673038D1*
X1693675D2*
X1699915D1*
X1711989D2*
X1744796D1*
X1756766D2*
X1765881D1*
X1789691D2*
X1798866D1*
X1818877D2*
X1828574D1*
X1841535D2*
X1849518D1*
X1855502D2*
X1863304D1*
X1870579D2*
X1891809D1*
X1905099D2*
X1939273D1*
X1951246D2*
X1960311D1*
X1984164D2*
X2022970D1*
X1664014Y3227449D2*
X1673007D1*
X1693833D2*
X1699917D1*
X1710057D2*
X1721572D1*
X1738349D2*
X1744797D1*
X1756766D2*
X1765793D1*
X1789694D2*
X1799311D1*
X1818173D2*
X1828574D1*
X1842448D2*
X1862197D1*
X1870960D2*
X1891130D1*
X1902402D2*
X1916639D1*
X1930179D2*
X1939276D1*
X1951246D2*
X1960253D1*
X1984172D2*
X1993134D1*
X1664014Y3224457D2*
X1672996D1*
X1693897D2*
X1699918D1*
X1709435D2*
X1719822D1*
X1737582D2*
X1744798D1*
X1756766D2*
X1765760D1*
X1789796D2*
X1800495D1*
X1816989D2*
X1828574D1*
X1843130D2*
X1861330D1*
X1871688D2*
X1890267D1*
X1901209D2*
X1912864D1*
X1929715D2*
X1939277D1*
X1951246D2*
X1960233D1*
X1984275D2*
X1993905D1*
X1664014Y3221465D2*
X1672992D1*
X1693921D2*
X1699918D1*
X1709232D2*
X1720115D1*
X1736684D2*
X1744798D1*
X1756766D2*
X1765748D1*
X1790179D2*
X1802401D1*
X1815419D2*
X1828574D1*
X1843812D2*
X1860403D1*
X1872570D2*
X1889331D1*
X1901223D2*
X1911321D1*
X1928691D2*
X1939278D1*
X1951246D2*
X1960225D1*
X1984659D2*
X1996252D1*
X2014078D2*
D3*
X1664014Y3218473D2*
X1672991D1*
X1693929D2*
X1699918D1*
X1709561D2*
X1720862D1*
X1735822D2*
X1744798D1*
X1756766D2*
X1765744D1*
X1790920D2*
X1804638D1*
X1813614D2*
X1828574D1*
X1844688D2*
X1859544D1*
X1873556D2*
X1888323D1*
X1901765D2*
X1912350D1*
X1927310D2*
X1939278D1*
X1951246D2*
X1960223D1*
X1985400D2*
X1999118D1*
X2008094D2*
X2017070D1*
X1664014Y3215481D2*
X1672990D1*
X1693933D2*
X1699918D1*
X1710531D2*
X1744798D1*
X1756766D2*
X1765743D1*
X1791811D2*
X1828574D1*
X1845636D2*
X1858945D1*
X1874872D2*
X1887000D1*
X1902565D2*
X1939278D1*
X1951246D2*
X1960222D1*
X1986291D2*
X2018659D1*
X1664014Y3212489D2*
X1672990D1*
X1693934D2*
X1699918D1*
X1711886D2*
X1744798D1*
X1756766D2*
X1765742D1*
X1792670D2*
X1828574D1*
X1846526D2*
X1858494D1*
X1876446D2*
X1885422D1*
X1903374D2*
X1939278D1*
X1951246D2*
X1960222D1*
X1987150D2*
X2020062D1*
X1819598Y3718137D2*
X1819484Y3715145D1*
X1819100Y3712153D1*
X1818383Y3709161D1*
X1817616Y3706169D1*
X1817094Y3703177D1*
X1816805Y3700185D1*
X1816573Y3697193D1*
X1816139Y3694201D1*
X1815402Y3691209D1*
X1814628Y3688217D1*
X1814104Y3685225D1*
X1813813Y3682233D1*
X1813558Y3679241D1*
X1813176Y3676249D1*
X1811650Y3673257D1*
X1808065Y3670265D1*
X1803370Y3667273D1*
X1797600Y3664281D1*
X1790891Y3661289D1*
X1783694Y3658297D1*
X1870462Y3718137D2*
X1870474Y3715145D1*
X1870579Y3712153D1*
X1870960Y3709161D1*
X1871677Y3706169D1*
X1872444Y3703177D1*
X1872966Y3700185D1*
X1873255Y3697193D1*
X1873487Y3694201D1*
X1873921Y3691209D1*
X1874657Y3688217D1*
X1875432Y3685225D1*
X1875968Y3682233D1*
X1876375Y3679241D1*
X1876848Y3676249D1*
X1878397Y3673257D1*
X1881990Y3670265D1*
X1886688Y3667273D1*
X1892459Y3664281D1*
X1899168Y3661289D1*
X1906366Y3658297D1*
X1732830Y3682233D2*
X1730300Y3679241D1*
X1728050Y3676249D1*
X1725833Y3673257D1*
X1723365Y3670265D1*
X1720651Y3667273D1*
X1717786Y3664281D1*
X1714847Y3661289D1*
X1711886Y3658297D1*
X1709019Y3655305D1*
X1706539Y3652313D1*
X1704517Y3649321D1*
X1703946Y3646329D1*
X1704875Y3643337D1*
X1706342Y3640345D1*
X1708053Y3637353D1*
X1709935Y3634361D1*
X1711918Y3631369D1*
X1713776Y3628377D1*
X1715480Y3625385D1*
X1717165Y3622393D1*
X1718986Y3619401D1*
X1720940Y3616409D1*
X1722882Y3613417D1*
X1724951Y3610425D1*
X1727314Y3607433D1*
X1729838Y3604441D1*
X1728343Y3601449D1*
X1727088Y3598457D1*
X1725831Y3595465D1*
X1724490Y3592473D1*
X1723162Y3589481D1*
X1721982Y3586489D1*
X1720930Y3583497D1*
X1719774Y3580505D1*
X1718431Y3577513D1*
X1716653Y3574521D1*
X1714286Y3571529D1*
X1707699Y3568537D1*
X1698446Y3565545D1*
X1687992Y3562553D1*
X1678934Y3559561D1*
X1671828Y3556569D1*
X1668893Y3553577D1*
X1667877Y3550585D1*
X1667360Y3547593D1*
X1667139Y3544601D1*
X1667053Y3541609D1*
X1667022Y3538617D1*
X1667011Y3535625D1*
X1667008Y3532633D1*
X1667006Y3529641D1*
Y3526649D1*
Y3523657D1*
Y3520665D1*
Y3517673D1*
X1667029Y3514681D1*
X1667298Y3511689D1*
X1667964Y3508697D1*
X1671354Y3505705D1*
X1679701Y3502713D1*
X1689914Y3499721D1*
X1699848Y3496729D1*
X1707286Y3493737D1*
X1712599Y3490745D1*
X1714942Y3487753D1*
X1716845Y3484761D1*
X1718415Y3481769D1*
X1719689Y3478777D1*
X1720764Y3475785D1*
X1721838Y3472793D1*
X1722863Y3469801D1*
X1723828Y3466809D1*
X1724833Y3463817D1*
X1725631Y3460825D1*
X1726069Y3457833D1*
X1725355Y3454841D1*
X1724282Y3451849D1*
X1722970Y3448857D1*
X1721457Y3445865D1*
X1719706Y3442873D1*
X1717778Y3439881D1*
X1715856Y3436889D1*
X1713888Y3433897D1*
X1711860Y3430905D1*
X1709897Y3427913D1*
X1707924Y3424921D1*
X1706019Y3421929D1*
X1704360Y3418937D1*
X1703890Y3415945D1*
X1704964Y3412953D1*
X1706830Y3409961D1*
X1709275Y3406969D1*
X1712032Y3403977D1*
X1714920Y3400985D1*
X1717772Y3397993D1*
X1720370Y3395001D1*
X1722641Y3392009D1*
X1724865Y3389017D1*
X1727332Y3386025D1*
X1730031Y3383033D1*
X1732830Y3380041D1*
X1738814Y3682233D2*
X1743301Y3679241D1*
X1747536Y3676249D1*
X1751692Y3673257D1*
X1755749Y3670265D1*
X1759724Y3667273D1*
X1763766Y3664281D1*
X1767791Y3661289D1*
X1771726Y3658297D1*
X1951246Y3682233D2*
X1946410Y3679241D1*
X1941806Y3676249D1*
X1937499Y3673257D1*
X1933397Y3670265D1*
X1929218Y3667273D1*
X1924832Y3664281D1*
X1920185Y3661289D1*
X1915342Y3658297D1*
X1954238Y3682233D2*
X1957230Y3679241D1*
X1960222Y3676249D1*
X1963214Y3673257D1*
X1966206Y3670265D1*
X1969198Y3667273D1*
X1972190Y3664281D1*
X1975182Y3661289D1*
X1978162Y3658297D1*
X1981026Y3655305D1*
X1983414Y3652313D1*
X1985227Y3649321D1*
X1985094Y3646329D1*
X1984342Y3643337D1*
X1983177Y3640345D1*
X1981725Y3637353D1*
X1979997Y3634361D1*
X1978077Y3631369D1*
X1976159Y3628377D1*
X1974191Y3625385D1*
X1972164Y3622393D1*
X1970201Y3619401D1*
X1968216Y3616409D1*
X1966195Y3613417D1*
X1964346Y3610425D1*
X1962860Y3607433D1*
X1961730Y3604441D1*
X1962082Y3601449D1*
X1962937Y3598457D1*
X1964047Y3595465D1*
X1965137Y3592473D1*
X1966156Y3589481D1*
X1967300Y3586489D1*
X1968592Y3583497D1*
X1969901Y3580505D1*
X1971120Y3577513D1*
X1972288Y3574521D1*
X1974808Y3571529D1*
X1981432Y3568537D1*
X1990613Y3565545D1*
X2001172Y3562553D1*
X2010551Y3559561D1*
X2017975Y3556569D1*
X2021065Y3553577D1*
X2022136Y3550585D1*
X2022681Y3547593D1*
X2022914Y3544601D1*
X2023004Y3541609D1*
X2023037Y3538617D1*
X2023048Y3535625D1*
X2023052Y3532633D1*
X2023053Y3529641D1*
X2023054Y3526649D1*
Y3523657D1*
Y3520665D1*
Y3517673D1*
X2023019Y3514681D1*
X2022914Y3511689D1*
X2021780Y3508697D1*
X2016972Y3505705D1*
X2009337Y3502713D1*
X1999549Y3499721D1*
X1989813Y3496729D1*
X1982261Y3493737D1*
X1976637Y3490745D1*
X1974316Y3487753D1*
X1972682Y3484761D1*
X1971364Y3481769D1*
X1970243Y3478777D1*
X1969231Y3475785D1*
X1968096Y3472793D1*
X1966808Y3469801D1*
X1965513Y3466809D1*
X1964447Y3463817D1*
X1963802Y3460825D1*
X1963586Y3457833D1*
X1963925Y3454841D1*
X1964974Y3451849D1*
X1966552Y3448857D1*
X1968319Y3445865D1*
X1970225Y3442873D1*
X1972229Y3439881D1*
X1974183Y3436889D1*
X1976165Y3433897D1*
X1978186Y3430905D1*
X1980057Y3427913D1*
X1981754Y3424921D1*
X1983324Y3421929D1*
X1984635Y3418937D1*
X1985632Y3415945D1*
X1985132Y3412953D1*
X1983182Y3409961D1*
X1980752Y3406969D1*
X1978012Y3403977D1*
X1975122Y3400985D1*
X1972169Y3397993D1*
X1969191Y3395001D1*
X1966215Y3392009D1*
X1963339Y3389017D1*
X1960810Y3386025D1*
X1958841Y3383033D1*
X1957230Y3380041D1*
X1834558Y3583497D2*
X1828700Y3580505D1*
X1823216Y3577513D1*
X1818447Y3574521D1*
X1814457Y3571529D1*
X1811082Y3568537D1*
X1808260Y3565545D1*
X1805913Y3562553D1*
X1803773Y3559561D1*
X1801778Y3556569D1*
X1800170Y3553577D1*
X1798904Y3550585D1*
X1797751Y3547593D1*
X1796793Y3544601D1*
X1796195Y3541609D1*
X1795888Y3538617D1*
X1795751Y3535625D1*
X1795695Y3532633D1*
X1795674Y3529641D1*
X1795678Y3526649D1*
X1795780Y3523657D1*
X1796161Y3520665D1*
X1796889Y3517673D1*
X1797761Y3514681D1*
X1798676Y3511689D1*
X1799786Y3508697D1*
X1801179Y3505705D1*
X1802968Y3502713D1*
X1805247Y3499721D1*
X1807885Y3496729D1*
X1810733Y3493737D1*
X1813756Y3490745D1*
X1816989Y3487753D1*
X1820179Y3484761D1*
X1823042Y3481769D1*
X1824197Y3478777D1*
X1823808Y3475785D1*
X1822913Y3472793D1*
X1821779Y3469801D1*
X1820676Y3466809D1*
X1819651Y3463817D1*
X1818505Y3460825D1*
X1817212Y3457833D1*
X1815903Y3454841D1*
X1814730Y3451849D1*
X1813692Y3448857D1*
X1812631Y3445865D1*
X1811611Y3442873D1*
X1810636Y3439881D1*
X1809514Y3436889D1*
X1808230Y3433897D1*
X1806925Y3430905D1*
X1805754Y3427913D1*
X1804704Y3424921D1*
X1803550Y3421929D1*
X1802253Y3418937D1*
X1800943Y3415945D1*
X1799771Y3412953D1*
X1798721Y3409961D1*
X1797566Y3406969D1*
X1796267Y3403977D1*
X1794941Y3400985D1*
X1793734Y3397993D1*
X1792670Y3395001D1*
X1855502Y3583497D2*
X1861012Y3580505D1*
X1866137Y3577513D1*
X1870848Y3574521D1*
X1875082Y3571529D1*
X1878701Y3568537D1*
X1881661Y3565545D1*
X1883989Y3562553D1*
X1885885Y3559561D1*
X1887546Y3556569D1*
X1889015Y3553577D1*
X1890252Y3550585D1*
X1891314Y3547593D1*
X1892373Y3544601D1*
X1893291Y3541609D1*
X1893874Y3538617D1*
X1894174Y3535625D1*
X1894310Y3532633D1*
X1894353Y3529641D1*
X1894269Y3526649D1*
X1893896Y3523657D1*
X1893170Y3520665D1*
X1892299Y3517673D1*
X1891384Y3514681D1*
X1890285Y3511689D1*
X1888998Y3508697D1*
X1887590Y3505705D1*
X1886027Y3502713D1*
X1884156Y3499721D1*
X1881842Y3496729D1*
X1879179Y3493737D1*
X1876244Y3490745D1*
X1873048Y3487753D1*
X1869873Y3484761D1*
X1867016Y3481769D1*
X1865862Y3478777D1*
X1866150Y3475785D1*
X1866766Y3472793D1*
X1867565Y3469801D1*
X1868617Y3466809D1*
X1869875Y3463817D1*
X1871172Y3460825D1*
X1872340Y3457833D1*
X1873388Y3454841D1*
X1874542Y3451849D1*
X1875839Y3448857D1*
X1877149Y3445865D1*
X1878321Y3442873D1*
X1879360Y3439881D1*
X1880421Y3436889D1*
X1881441Y3433897D1*
X1882416Y3430905D1*
X1883538Y3427913D1*
X1884822Y3424921D1*
X1886127Y3421929D1*
X1887298Y3418937D1*
X1888336Y3415945D1*
X1889397Y3412953D1*
X1890417Y3409961D1*
X1891392Y3406969D1*
X1892524Y3403977D1*
X1893896Y3400985D1*
X1895543Y3397993D1*
X1897390Y3395001D1*
X1774718Y3403977D2*
X1769322Y3400985D1*
X1764568Y3397993D1*
X1760469Y3395001D1*
X1756598Y3392009D1*
X1752565Y3389017D1*
X1748252Y3386025D1*
X1743638Y3383033D1*
X1738814Y3380041D1*
X1774718Y3403977D2*
X1780702Y3400985D1*
X1786686Y3397993D1*
X1792670Y3395001D1*
X1915342Y3403977D2*
X1909358Y3400985D1*
X1903374Y3397993D1*
X1897390Y3395001D1*
X1918334Y3403977D2*
X1921788Y3400985D1*
X1925534Y3397993D1*
X1929406Y3395001D1*
X1933303Y3392009D1*
X1937290Y3389017D1*
X1941184Y3386025D1*
X1944797Y3383033D1*
X1948254Y3380041D1*
X1625118Y3338153D2*
X1622714Y3335161D1*
X1620964Y3332169D1*
X1619962Y3329177D1*
X1619476Y3326185D1*
X1619266Y3323193D1*
X1619182Y3320201D1*
X1619151Y3317209D1*
X1619140Y3314217D1*
X1619136Y3311225D1*
X1619135Y3308233D1*
X1619146Y3305241D1*
X1619263Y3302249D1*
X1619772Y3299257D1*
X1620741Y3296265D1*
X1623452Y3293273D1*
X1627023Y3290281D1*
X1631102Y3287289D1*
X1646062Y3338153D2*
X1648478Y3335161D1*
X1650333Y3332169D1*
X1651716Y3329177D1*
X1652918Y3326185D1*
X1653896Y3323193D1*
X1654501Y3320201D1*
X1654810Y3317209D1*
X1654948Y3314217D1*
X1654993Y3311225D1*
X1654909Y3308233D1*
X1654524Y3305241D1*
X1653693Y3302249D1*
X1652417Y3299257D1*
X1650567Y3296265D1*
X1647848Y3293273D1*
X1644212Y3290281D1*
X1640078Y3287289D1*
X1664014Y3338153D2*
Y3335161D1*
Y3332169D1*
Y3329177D1*
Y3326185D1*
Y3323193D1*
Y3320201D1*
Y3317209D1*
Y3314217D1*
Y3311225D1*
Y3308233D1*
Y3305241D1*
Y3302249D1*
Y3299257D1*
Y3296265D1*
Y3293273D1*
Y3290281D1*
Y3287289D1*
Y3284297D1*
Y3281305D1*
Y3278313D1*
Y3275321D1*
Y3272329D1*
Y3269337D1*
Y3266345D1*
Y3263353D1*
Y3260361D1*
Y3257369D1*
Y3254377D1*
Y3251385D1*
Y3248393D1*
Y3245401D1*
Y3242409D1*
Y3239417D1*
Y3236425D1*
Y3233433D1*
Y3230441D1*
Y3227449D1*
Y3224457D1*
Y3221465D1*
Y3218473D1*
Y3215481D1*
Y3212489D1*
X1672990Y3338153D2*
X1678974D2*
X1693934D2*
X1696338Y3335161D1*
X1698088Y3332169D1*
X1699090Y3329177D1*
X1699576Y3326185D1*
X1699786Y3323193D1*
X1699870Y3320201D1*
X1699901Y3317209D1*
X1699912Y3314217D1*
X1699916Y3311225D1*
X1699917Y3308233D1*
X1699906Y3305241D1*
X1699789Y3302249D1*
X1699291Y3299257D1*
X1698077Y3296265D1*
X1696098Y3293273D1*
X1693617Y3290281D1*
X1690942Y3287289D1*
X1717870Y3338153D2*
X1715352Y3335161D1*
X1713219Y3332169D1*
X1711500Y3329177D1*
X1710246Y3326185D1*
X1709514Y3323193D1*
X1709153Y3320201D1*
X1708995Y3317209D1*
X1708931Y3314217D1*
X1708919Y3311225D1*
X1709015Y3308233D1*
X1709405Y3305241D1*
X1710238Y3302249D1*
X1711514Y3299257D1*
X1713365Y3296265D1*
X1716084Y3293273D1*
X1719719Y3290281D1*
X1723854Y3287289D1*
X1735822Y3338153D2*
X1739058Y3335161D1*
X1741624Y3332169D1*
X1743650Y3329177D1*
X1745276Y3326185D1*
X1746477Y3323193D1*
X1747185Y3320201D1*
X1747537Y3317209D1*
X1747691Y3314217D1*
X1747756Y3311225D1*
X1747790Y3308233D1*
X1717870D1*
X1719470Y3305241D1*
X1721537Y3302249D1*
X1723854Y3299257D1*
X1756766Y3338153D2*
Y3335161D1*
Y3332169D1*
Y3329177D1*
Y3326185D1*
Y3323193D1*
Y3320201D1*
Y3317209D1*
Y3314217D1*
Y3311225D1*
Y3308233D1*
Y3305241D1*
Y3302249D1*
Y3299257D1*
Y3296265D1*
Y3293273D1*
Y3290281D1*
X1786686Y3338153D2*
X1788529Y3335161D1*
X1790131Y3332169D1*
X1791340Y3329177D1*
X1792057Y3326185D1*
X1792413Y3323193D1*
X1792570Y3320201D1*
X1792633Y3317209D1*
X1792657Y3314217D1*
X1792665Y3311225D1*
X1792668Y3308233D1*
X1792669Y3305241D1*
X1792670Y3302249D1*
Y3299257D1*
Y3296265D1*
Y3293273D1*
Y3290281D1*
Y3287289D1*
X1831566Y3338153D2*
X1828341Y3335161D1*
X1825881Y3332169D1*
X1824248Y3329177D1*
X1823186Y3326185D1*
X1823338Y3323193D1*
X1824057Y3320201D1*
X1825174Y3317209D1*
X1827618Y3314217D1*
X1832839Y3311225D1*
X1838903Y3308233D1*
X1844544Y3305241D1*
X1849518Y3302249D1*
X1846526Y3299257D1*
X1852510Y3338153D2*
X1855280Y3335161D1*
X1856162Y3332169D1*
X1855881Y3329177D1*
X1855502Y3326185D1*
X1876446Y3338153D2*
X1873580Y3335161D1*
X1871088Y3332169D1*
X1869311Y3329177D1*
X1868301Y3326185D1*
X1867813Y3323193D1*
X1867602Y3320201D1*
X1867518Y3317209D1*
X1867487Y3314217D1*
X1867476Y3311225D1*
X1867484Y3308233D1*
X1867587Y3305241D1*
X1867980Y3302249D1*
X1868825Y3299257D1*
X1870204Y3296265D1*
X1872394Y3293273D1*
X1875624Y3290281D1*
X1879438Y3287289D1*
X1894398Y3338153D2*
X1897264Y3335161D1*
X1899756Y3332169D1*
X1901544Y3329177D1*
X1902659Y3326185D1*
X1903529Y3323193D1*
X1904456Y3320201D1*
X1905296Y3317209D1*
X1905744Y3314217D1*
X1905651Y3311225D1*
X1905054Y3308233D1*
X1904235Y3305241D1*
X1903341Y3302249D1*
X1902226Y3299257D1*
X1900723Y3296265D1*
X1898481Y3293273D1*
X1895231Y3290281D1*
X1891406Y3287289D1*
X1915342Y3338153D2*
Y3335161D1*
Y3332169D1*
Y3329177D1*
Y3326185D1*
Y3323193D1*
Y3320201D1*
Y3317209D1*
Y3314217D1*
Y3311225D1*
Y3308233D1*
X1915354Y3305241D1*
X1915471Y3302249D1*
X1915969Y3299257D1*
X1917183Y3296265D1*
X1919162Y3293273D1*
X1921643Y3290281D1*
X1924318Y3287289D1*
X1921326Y3338153D2*
Y3335161D1*
Y3332169D1*
Y3329177D1*
Y3326185D1*
Y3323193D1*
X1921338Y3320201D1*
X1921443Y3317209D1*
X1921824Y3314217D1*
X1922541Y3311225D1*
X1923316Y3308233D1*
X1923883Y3305241D1*
X1924318Y3302249D1*
X1942270Y3338153D2*
Y3335161D1*
Y3332169D1*
Y3329177D1*
Y3326185D1*
Y3323193D1*
Y3320201D1*
Y3317209D1*
X1942258Y3314217D1*
X1942144Y3311225D1*
X1941682Y3308233D1*
X1940659Y3305241D1*
X1939278Y3302249D1*
X1951246Y3338153D2*
Y3335161D1*
Y3332169D1*
Y3329177D1*
Y3326185D1*
Y3323193D1*
Y3320201D1*
Y3317209D1*
Y3314217D1*
Y3311225D1*
Y3308233D1*
Y3305241D1*
Y3302249D1*
Y3299257D1*
Y3296265D1*
Y3293273D1*
Y3290281D1*
X1933294Y3287289D1*
X1963214Y3338153D2*
Y3335161D1*
Y3332169D1*
Y3329177D1*
Y3326185D1*
Y3323193D1*
Y3320201D1*
Y3317209D1*
Y3314217D1*
Y3311225D1*
Y3308233D1*
Y3305241D1*
Y3302249D1*
Y3299257D1*
Y3296265D1*
Y3293273D1*
Y3290281D1*
Y3287289D1*
X1993134Y3338153D2*
X1991988Y3335161D1*
X1990625Y3332169D1*
X1988988Y3329177D1*
X1987150Y3326185D1*
X2005102Y3338153D2*
X2001866Y3335161D1*
X1999300Y3332169D1*
X1997274Y3329177D1*
X1995648Y3326185D1*
X1994447Y3323193D1*
X1993739Y3320201D1*
X1993387Y3317209D1*
X1993233Y3314217D1*
X1993182Y3311225D1*
X1993264Y3308233D1*
X1993648Y3305241D1*
X1994479Y3302249D1*
X1995755Y3299257D1*
X1997605Y3296265D1*
X2000324Y3293273D1*
X2003959Y3290281D1*
X2008094Y3287289D1*
X2023054Y3338153D2*
X2026717Y3335161D1*
X2029491Y3332169D1*
X2029803Y3329177D1*
X2029038Y3326185D1*
X2043998Y3338153D2*
X2041480Y3335161D1*
X2039347Y3332169D1*
X2037628Y3329177D1*
X2036374Y3326185D1*
X2035642Y3323193D1*
X2035281Y3320201D1*
X2035123Y3317209D1*
X2035059Y3314217D1*
X2035047Y3311225D1*
X2035143Y3308233D1*
X2035533Y3305241D1*
X2036366Y3302249D1*
X2037642Y3299257D1*
X2039493Y3296265D1*
X2042212Y3293273D1*
X2045847Y3290281D1*
X2049982Y3287289D1*
X2061950Y3338153D2*
X2064712Y3335161D1*
X2066758Y3332169D1*
X2067382Y3329177D1*
X2067707Y3326185D1*
X2067848Y3323193D1*
X2067903Y3320201D1*
X2067923Y3317209D1*
X2067930Y3314217D1*
X2067933Y3311225D1*
X2067934Y3308233D1*
X2043998D1*
X2045598Y3305241D1*
X2047665Y3302249D1*
X2049982Y3299257D1*
X1631102Y3329177D2*
X1628698Y3326185D1*
X1626948Y3323193D1*
X1625946Y3320201D1*
X1625460Y3317209D1*
X1625262Y3314217D1*
X1625292Y3311225D1*
X1625723Y3308233D1*
X1626734Y3305241D1*
X1628110Y3302249D1*
X1643070Y3329177D2*
X1643532Y3326185D1*
X1644274Y3323193D1*
X1645049Y3320201D1*
X1645573Y3317209D1*
X1645839Y3314217D1*
X1645852Y3311225D1*
X1645443Y3308233D1*
X1644440Y3305241D1*
X1643070Y3302249D1*
X1678974Y3329177D2*
X1676570Y3326185D1*
X1674820Y3323193D1*
X1673818Y3320201D1*
X1673332Y3317209D1*
X1673134Y3314217D1*
X1673164Y3311225D1*
X1673595Y3308233D1*
X1674606Y3305241D1*
X1675982Y3302249D1*
X1684958Y3329177D2*
X1687374Y3326185D1*
X1689238Y3323193D1*
X1690705Y3320201D1*
X1692237Y3317209D1*
X1693934Y3314217D1*
X1692553Y3311225D1*
X1691690Y3308233D1*
X1691233Y3305241D1*
X1690942Y3302249D1*
X1723854Y3329177D2*
X1721412Y3326185D1*
X1719470Y3323193D1*
X1717870Y3320201D1*
X1735822Y3329177D2*
X1736372Y3326185D1*
X1737422Y3323193D1*
X1738814Y3320201D1*
X1771726Y3329177D2*
X1769322Y3326185D1*
X1767572Y3323193D1*
X1766570Y3320201D1*
X1766084Y3317209D1*
X1765874Y3314217D1*
X1765790Y3311225D1*
X1765759Y3308233D1*
X1765748Y3305241D1*
X1765744Y3302249D1*
X1765743Y3299257D1*
X1765742Y3296265D1*
Y3293273D1*
Y3290281D1*
X1777710Y3329177D2*
X1780114Y3326185D1*
X1781864Y3323193D1*
X1782866Y3320201D1*
X1783352Y3317209D1*
X1783562Y3314217D1*
X1783646Y3311225D1*
X1783677Y3308233D1*
X1783688Y3305241D1*
X1783692Y3302249D1*
X1783693Y3299257D1*
X1783694Y3296265D1*
Y3293273D1*
Y3290281D1*
Y3287289D1*
X1831566Y3329177D2*
X1832501Y3326185D1*
X1836447Y3323193D1*
X1842176Y3320201D1*
X1848185Y3317209D1*
X1852841Y3314217D1*
X1856303Y3311225D1*
X1857445Y3308233D1*
X1858053Y3305241D1*
X1858300Y3302249D1*
X1858174Y3299257D1*
X1857665Y3296265D1*
X1854937Y3293273D1*
X1851032Y3290281D1*
X1846526Y3287289D1*
Y3329177D2*
X1849518Y3326185D1*
X1882430Y3329177D2*
X1879912Y3326185D1*
X1877779Y3323193D1*
X1876071Y3320201D1*
X1874923Y3317209D1*
X1874292Y3314217D1*
X1874881Y3311225D1*
X1875771Y3308233D1*
X1877169Y3305241D1*
X1879486Y3302249D1*
X1882430Y3299257D1*
X1888414Y3329177D2*
X1890818Y3326185D1*
X1892568Y3323193D1*
X1893570Y3320201D1*
X1894056Y3317209D1*
X1894266Y3314217D1*
X1894326Y3311225D1*
X1894130Y3308233D1*
X1893601Y3305241D1*
X1891270Y3302249D1*
X1888414Y3299257D1*
X1978174Y3329177D2*
X1975770Y3326185D1*
X1974020Y3323193D1*
X1973018Y3320201D1*
X1972532Y3317209D1*
X1972322Y3314217D1*
X1972238Y3311225D1*
X1972207Y3308233D1*
X1972196Y3305241D1*
X1972192Y3302249D1*
X1972191Y3299257D1*
X1972190Y3296265D1*
Y3293273D1*
Y3290281D1*
Y3287289D1*
X2011086Y3329177D2*
X2008220Y3326185D1*
X2005728Y3323193D1*
X2003951Y3320201D1*
X2002953Y3317209D1*
X2002570Y3314217D1*
X2002764Y3311225D1*
X2003625Y3308233D1*
X2005293Y3305241D1*
X2007894Y3302249D1*
X2011086Y3299257D1*
X2020062Y3329177D2*
X2023054Y3326185D1*
X2049982Y3329177D2*
X2047540Y3326185D1*
X2045598Y3323193D1*
X2043998Y3320201D1*
X2061950Y3329177D2*
X2062500Y3326185D1*
X2063550Y3323193D1*
X2064942Y3320201D1*
X1738814Y3302249D2*
X1732830Y3299257D1*
X1825582Y3302249D2*
X1822590Y3299257D1*
X1819598Y3296265D1*
X1824190Y3293273D1*
X1829249Y3290281D1*
X1834558Y3287289D1*
X1828574Y3302249D2*
X1834558Y3299257D1*
X2023054Y3302249D2*
X2017070Y3299257D1*
X2026046Y3302249D2*
X2029038Y3299257D1*
X2032030Y3296265D1*
X2028488Y3293273D1*
X2024446Y3290281D1*
X2020062Y3287289D1*
X2064942Y3302249D2*
X2058958Y3299257D1*
X1744798D2*
X1744307Y3296265D1*
X1742449Y3293273D1*
X1737997Y3290281D1*
X1732830Y3287289D1*
X2067934Y3299257D2*
X2067689Y3296265D1*
X2067139Y3293273D1*
X2064808Y3290281D1*
X2061950Y3287289D1*
X1672990Y3290281D2*
Y3287289D1*
Y3284297D1*
Y3281305D1*
Y3278313D1*
Y3275321D1*
Y3272329D1*
Y3269337D1*
Y3266345D1*
Y3263353D1*
Y3260361D1*
X1684143Y3257369D1*
X1691791Y3254377D1*
X1697042Y3251385D1*
X1698560Y3248393D1*
X1699354Y3245401D1*
X1699702Y3242409D1*
X1699840Y3239417D1*
X1699891Y3236425D1*
X1699909Y3233433D1*
X1699915Y3230441D1*
X1699917Y3227449D1*
X1699918Y3224457D1*
Y3221465D1*
Y3218473D1*
Y3215481D1*
Y3212489D1*
X1678974Y3290281D2*
X1681966Y3287289D1*
X1819598Y3278313D2*
Y3275321D1*
Y3272329D1*
Y3269337D1*
Y3266345D1*
Y3263353D1*
Y3260361D1*
Y3257369D1*
X1828574Y3278313D2*
Y3275321D1*
Y3272329D1*
Y3269337D1*
Y3266345D1*
Y3263353D1*
Y3260361D1*
Y3257369D1*
Y3254377D1*
Y3251385D1*
Y3248393D1*
Y3245401D1*
Y3242409D1*
Y3239417D1*
Y3236425D1*
Y3233433D1*
Y3230441D1*
Y3227449D1*
Y3224457D1*
Y3221465D1*
Y3218473D1*
Y3215481D1*
Y3212489D1*
X1714878Y3257369D2*
X1713715Y3254377D1*
X1714028Y3251385D1*
X1715811Y3248393D1*
X1717870Y3245401D1*
X1738814Y3257369D2*
X1741218Y3254377D1*
X1742968Y3251385D1*
X1743970Y3248393D1*
X1744456Y3245401D1*
X1744666Y3242409D1*
X1744750Y3239417D1*
X1744781Y3236425D1*
X1744792Y3233433D1*
X1744796Y3230441D1*
X1744797Y3227449D1*
X1744798Y3224457D1*
Y3221465D1*
Y3218473D1*
Y3215481D1*
Y3212489D1*
X1756766Y3257369D2*
Y3254377D1*
Y3251385D1*
Y3248393D1*
Y3245401D1*
Y3242409D1*
Y3239417D1*
Y3236425D1*
Y3233433D1*
Y3230441D1*
Y3227449D1*
Y3224457D1*
Y3221465D1*
Y3218473D1*
Y3215481D1*
Y3212489D1*
X1765742Y3257369D2*
X1771726D2*
X1786686D2*
X1789678Y3254377D1*
X1784950Y3251385D1*
X1779386Y3248393D1*
X1774130Y3245401D1*
X1770307Y3242409D1*
X1767509Y3239417D1*
X1766591Y3236425D1*
X1766100Y3233433D1*
X1765881Y3230441D1*
X1765793Y3227449D1*
X1765760Y3224457D1*
X1765748Y3221465D1*
X1765744Y3218473D1*
X1765743Y3215481D1*
X1765742Y3212489D1*
X1798654Y3257369D2*
X1796136Y3254377D1*
X1794003Y3251385D1*
X1792284Y3248393D1*
X1791030Y3245401D1*
X1790298Y3242409D1*
X1789937Y3239417D1*
X1789779Y3236425D1*
X1789715Y3233433D1*
X1789691Y3230441D1*
X1789694Y3227449D1*
X1789796Y3224457D1*
X1790179Y3221465D1*
X1790920Y3218473D1*
X1791811Y3215481D1*
X1792670Y3212489D1*
X1813614Y3257369D2*
X1834558D2*
X1834672Y3254377D1*
X1835055Y3251385D1*
X1835784Y3248393D1*
X1836657Y3245401D1*
X1837560Y3242409D1*
X1838566Y3239417D1*
X1839565Y3236425D1*
X1840520Y3233433D1*
X1841535Y3230441D1*
X1842448Y3227449D1*
X1843130Y3224457D1*
X1843812Y3221465D1*
X1844688Y3218473D1*
X1845636Y3215481D1*
X1846526Y3212489D1*
X1843534Y3257369D2*
X1843996Y3254377D1*
X1844738Y3251385D1*
X1845524Y3248393D1*
X1846154Y3245401D1*
X1846813Y3242409D1*
X1847657Y3239417D1*
X1848485Y3236425D1*
X1849072Y3233433D1*
X1849518Y3230441D1*
X1861486Y3257369D2*
X1861024Y3254377D1*
X1860282Y3251385D1*
X1859495Y3248393D1*
X1858866Y3245401D1*
X1858207Y3242409D1*
X1857363Y3239417D1*
X1856535Y3236425D1*
X1855947Y3233433D1*
X1855502Y3230441D1*
X1870462Y3257369D2*
X1871485Y3254377D1*
X1872387Y3251385D1*
X1873059Y3248393D1*
X1873734Y3245401D1*
X1874583Y3242409D1*
X1875412Y3239417D1*
X1876000Y3236425D1*
X1876446Y3233433D1*
X1888414Y3257369D2*
X1888300Y3254377D1*
X1887916Y3251385D1*
X1887199Y3248393D1*
X1886420Y3245401D1*
X1885785Y3242409D1*
X1885044Y3239417D1*
X1883889Y3236425D1*
X1882430Y3233433D1*
X1900382Y3257369D2*
X1898989Y3254377D1*
X1898025Y3251385D1*
X1897208Y3248393D1*
X1896287Y3245401D1*
X1895337Y3242409D1*
X1894404Y3239417D1*
X1893400Y3236425D1*
X1892490Y3233433D1*
X1891809Y3230441D1*
X1891130Y3227449D1*
X1890267Y3224457D1*
X1889331Y3221465D1*
X1888323Y3218473D1*
X1887000Y3215481D1*
X1885422Y3212489D1*
X1909358Y3257369D2*
X1906366Y3254377D1*
X1903374Y3251385D1*
X1906366Y3248393D1*
X1909358Y3245401D1*
X1933294Y3257369D2*
X1935137Y3254377D1*
X1936739Y3251385D1*
X1937948Y3248393D1*
X1938665Y3245401D1*
X1939021Y3242409D1*
X1939178Y3239417D1*
X1939241Y3236425D1*
X1939265Y3233433D1*
X1939273Y3230441D1*
X1939276Y3227449D1*
X1939277Y3224457D1*
X1939278Y3221465D1*
Y3218473D1*
Y3215481D1*
Y3212489D1*
X1951246Y3257369D2*
Y3254377D1*
Y3251385D1*
Y3248393D1*
Y3245401D1*
Y3242409D1*
Y3239417D1*
Y3236425D1*
Y3233433D1*
Y3230441D1*
Y3227449D1*
Y3224457D1*
Y3221465D1*
Y3218473D1*
Y3215481D1*
Y3212489D1*
X1981166Y3257369D2*
X1980582Y3254377D1*
X1978159Y3251385D1*
X1972816Y3248393D1*
X1967589Y3245401D1*
X1963287Y3242409D1*
X1961699Y3239417D1*
X1960846Y3236425D1*
X1960465Y3233433D1*
X1960311Y3230441D1*
X1960253Y3227449D1*
X1960233Y3224457D1*
X1960225Y3221465D1*
X1960223Y3218473D1*
X1960222Y3215481D1*
Y3212489D1*
X1993134Y3257369D2*
X1990268Y3254377D1*
X1987776Y3251385D1*
X1985999Y3248393D1*
X1984989Y3245401D1*
X1984501Y3242409D1*
X1984290Y3239417D1*
X1984206Y3236425D1*
X1984175Y3233433D1*
X1984164Y3230441D1*
X1984172Y3227449D1*
X1984275Y3224457D1*
X1984659Y3221465D1*
X1985400Y3218473D1*
X1986291Y3215481D1*
X1987150Y3212489D1*
X2011086Y3257369D2*
X2013952Y3254377D1*
X2016456Y3251385D1*
X2018337Y3248393D1*
X2019729Y3245401D1*
X2020934Y3242409D1*
X2021912Y3239417D1*
X2022517Y3236425D1*
X2022827Y3233433D1*
X2022970Y3230441D1*
X2023054Y3227449D1*
X1993134D1*
X1993905Y3224457D1*
X1996252Y3221465D1*
X1999118Y3218473D1*
X1678974Y3248393D2*
X1676570Y3245401D1*
X1674820Y3242409D1*
X1673818Y3239417D1*
X1673332Y3236425D1*
X1673122Y3233433D1*
X1673038Y3230441D1*
X1673007Y3227449D1*
X1672996Y3224457D1*
X1672992Y3221465D1*
X1672991Y3218473D1*
X1672990Y3215481D1*
Y3212489D1*
X1684958Y3248393D2*
X1687476Y3245401D1*
X1689609Y3242409D1*
X1691328Y3239417D1*
X1692582Y3236425D1*
X1693314Y3233433D1*
X1693675Y3230441D1*
X1693833Y3227449D1*
X1693897Y3224457D1*
X1693921Y3221465D1*
X1693929Y3218473D1*
X1693933Y3215481D1*
X1693934Y3212489D1*
X1732830Y3248393D2*
X1735272Y3245401D1*
X1737214Y3242409D1*
X1738814Y3239417D1*
X1726280Y3236425D1*
X1717773Y3233433D1*
X1711989Y3230441D1*
X1710057Y3227449D1*
X1709435Y3224457D1*
X1709232Y3221465D1*
X1709561Y3218473D1*
X1710531Y3215481D1*
X1711886Y3212489D1*
X1801646Y3248393D2*
X1801184Y3245401D1*
X1800442Y3242409D1*
X1799667Y3239417D1*
X1799143Y3236425D1*
X1798877Y3233433D1*
X1798866Y3230441D1*
X1799311Y3227449D1*
X1800495Y3224457D1*
X1802401Y3221465D1*
X1804638Y3218473D1*
X1816606Y3248393D2*
X1816720Y3245401D1*
X1817103Y3242409D1*
X1817821Y3239417D1*
X1818576Y3236425D1*
X1818993Y3233433D1*
X1818877Y3230441D1*
X1818173Y3227449D1*
X1816989Y3224457D1*
X1815419Y3221465D1*
X1813614Y3218473D1*
X1915342Y3248393D2*
X1912350Y3245401D1*
X1930302Y3248393D2*
Y3245401D1*
Y3242409D1*
Y3239417D1*
X1919035Y3236425D1*
X1911004Y3233433D1*
X1905099Y3230441D1*
X1902402Y3227449D1*
X1901209Y3224457D1*
X1901223Y3221465D1*
X1901765Y3218473D1*
X1902565Y3215481D1*
X1903374Y3212489D1*
X1993134Y3248393D2*
Y3245401D1*
Y3242409D1*
Y3239417D1*
X2005102Y3248393D2*
X2007544Y3245401D1*
X2009486Y3242409D1*
X2011086Y3239417D1*
X1867470Y3236425D2*
X1865066Y3233433D1*
X1863304Y3230441D1*
X1862197Y3227449D1*
X1861330Y3224457D1*
X1860403Y3221465D1*
X1859544Y3218473D1*
X1858945Y3215481D1*
X1858494Y3212489D1*
X1870462Y3236425D2*
X1870474Y3233433D1*
X1870579Y3230441D1*
X1870960Y3227449D1*
X1871688Y3224457D1*
X1872570Y3221465D1*
X1873556Y3218473D1*
X1874872Y3215481D1*
X1876446Y3212489D1*
X1723854Y3230441D2*
X1721572Y3227449D1*
X1719822Y3224457D1*
X1720115Y3221465D1*
X1720862Y3218473D1*
X1738814Y3230441D2*
X1738349Y3227449D1*
X1737582Y3224457D1*
X1736684Y3221465D1*
X1735822Y3218473D1*
X1921326Y3230441D2*
X1916639Y3227449D1*
X1912864Y3224457D1*
X1911321Y3221465D1*
X1912350Y3218473D1*
X1930302Y3230441D2*
X1930179Y3227449D1*
X1929715Y3224457D1*
X1928691Y3221465D1*
X1927310Y3218473D1*
X2014078Y3221465D2*
X2008094Y3218473D1*
X2017070D2*
X2018659Y3215481D1*
X2020062Y3212489D1*
X2648017Y4125660D2*
D103*
X2669020D1*
X2657568Y4110362D1*
X2663316D1*
X2667118Y4108461D1*
X2669020Y4106559D1*
X2670965Y4100811D1*
Y4097009D1*
X2669020Y4091261D1*
X2665217Y4087414D1*
X2659469Y4085513D1*
X2653721D1*
X2648017Y4087414D1*
X2646116Y4089359D1*
X2644170Y4093162D1*
X2685218Y4089359D2*
X2683316Y4087414D1*
X2685218Y4085513D1*
X2687163Y4087414D1*
X2685218Y4089359D1*
X2703361Y4125660D2*
X2724364D1*
X2712912Y4110362D1*
X2718660D1*
X2722463Y4108461D1*
X2724364Y4106559D1*
X2726309Y4100811D1*
Y4097009D1*
X2724364Y4091261D1*
X2720561Y4087414D1*
X2714813Y4085513D1*
X2709065D1*
X2703361Y4087414D1*
X2701460Y4089359D1*
X2699515Y4093162D1*
X2738661Y4125705D2*
X2753959Y4085513D1*
X2769258Y4125705D1*
X1430540Y3882093D2*
X1428639Y3885896D1*
X1424792Y3889742D1*
X1420990Y3891644D1*
X1413341D1*
X1409494Y3889742D1*
X1405691Y3885896D1*
X1403746Y3882093D1*
X1401845Y3876345D1*
Y3866750D1*
X1403746Y3861046D1*
X1405691Y3857200D1*
X1409494Y3853397D1*
X1413341Y3851452D1*
X1420990D1*
X1424792Y3853397D1*
X1428639Y3857200D1*
X1430540Y3861046D1*
X1442892Y3883950D2*
X1446739Y3885896D1*
X1452487Y3891599D1*
Y3851452D1*
X3028240Y3909652D2*
X3026338Y3913455D1*
X3022492Y3917301D1*
X3018689Y3919203D1*
X3011040D1*
X3007193Y3917301D1*
X3003391Y3913455D1*
X3001445Y3909652D1*
X2999544Y3903904D1*
Y3894309D1*
X3001445Y3888605D1*
X3003391Y3884759D1*
X3007193Y3880956D1*
X3011040Y3879011D1*
X3018689D1*
X3022492Y3880956D1*
X3026338Y3884759D1*
X3028240Y3888605D1*
X3044438Y3919158D2*
X3065440D1*
X3053988Y3903860D1*
X3059736D1*
X3063539Y3901959D1*
X3065440Y3900057D1*
X3067386Y3894309D1*
Y3890507D1*
X3065440Y3884759D1*
X3061638Y3880912D1*
X3055890Y3879011D1*
X3050142D1*
X3044438Y3880912D1*
X3042537Y3882857D1*
X3040591Y3886660D1*
X1241274Y3595709D2*
X1281466D1*
Y3609106D1*
X1279521Y3614854D1*
X1275718Y3618701D1*
X1271871Y3620602D1*
X1266167Y3622503D1*
X1256573D1*
X1250825Y3620602D1*
X1247022Y3618701D1*
X1243175Y3614854D1*
X1241274Y3609106D1*
Y3595709D1*
X1248968Y3634855D2*
X1247022Y3638701D1*
X1241318Y3644449D1*
X1281466D1*
X3085927Y3450042D2*
Y3409850D1*
X3099325D1*
X3105073Y3411795D1*
X3108920Y3415598D1*
X3110821Y3419445D1*
X3112722Y3425149D1*
Y3434743D1*
X3110821Y3440491D1*
X3108920Y3444294D1*
X3105073Y3448141D1*
X3099325Y3450042D1*
X3085927D1*
X3127019Y3440447D2*
Y3442348D1*
X3128920Y3446195D1*
X3130822Y3448096D1*
X3134668Y3449998D1*
X3142318D1*
X3146120Y3448096D1*
X3148021Y3446195D1*
X3149967Y3442348D1*
Y3438546D1*
X3148021Y3434699D1*
X3144219Y3428995D1*
X3125074Y3409850D1*
X3151868D1*
X2318046Y3028054D2*
X2358238D1*
Y3041451D1*
X2356292Y3047199D1*
X2352490Y3051046D1*
X2348643Y3052947D1*
X2342939Y3054848D1*
X2333344D1*
X2327596Y3052947D1*
X2323794Y3051046D1*
X2319947Y3047199D1*
X2318046Y3041451D1*
Y3028054D1*
X2318090Y3071046D2*
Y3092049D1*
X2333389Y3080597D1*
Y3086345D1*
X2335290Y3090147D1*
X2337191Y3092049D1*
X2342939Y3093994D1*
X2346742D1*
X2352490Y3092049D1*
X2356336Y3088246D1*
X2358238Y3082498D1*
Y3076750D1*
X2356336Y3071046D1*
X2354391Y3069145D1*
X2350588Y3067200D1*
X1390880Y2991670D2*
X1431072D1*
Y3005067D1*
X1429127Y3010815D1*
X1425324Y3014662D1*
X1421478Y3016563D1*
X1415774Y3018465D1*
X1406179D1*
X1400431Y3016563D1*
X1396628Y3014662D1*
X1392782Y3010815D1*
X1390880Y3005067D1*
Y2991670D1*
X1431072Y3049961D2*
X1390925D1*
X1417675Y3030816D1*
Y3059512D1*
X2923009Y1484908D2*
Y1454310D1*
X2921108Y1448562D1*
X2919162Y1446661D1*
X2915360Y1444716D1*
X2911513D1*
X2907711Y1446661D1*
X2905809Y1448562D1*
X2903864Y1454310D1*
Y1458113D1*
X2935361Y1477214D2*
X2939207Y1479160D1*
X2944955Y1484863D1*
Y1444716D1*
X2970118Y2370931D2*
Y2340334D1*
X2968217Y2334586D1*
X2966271Y2332685D1*
X2962469Y2330739D1*
X2958622D1*
X2954819Y2332685D1*
X2952918Y2334586D1*
X2950973Y2340334D1*
Y2344136D1*
X2984415Y2361336D2*
Y2363238D1*
X2986316Y2367084D1*
X2988217Y2368986D1*
X2992064Y2370887D1*
X2999713D1*
X3003516Y2368986D1*
X3005417Y2367084D1*
X3007363Y2363238D1*
Y2359435D1*
X3005417Y2355588D1*
X3001615Y2349885D1*
X2982469Y2330739D1*
X3009264D1*
X674739Y2092362D2*
X705336D1*
X711084Y2090461D1*
X712985Y2088515D1*
X714931Y2084713D1*
Y2080866D1*
X712985Y2077064D1*
X711084Y2075162D1*
X705336Y2073217D1*
X701533D1*
X674783Y2108560D2*
Y2129563D1*
X690081Y2118111D1*
Y2123859D1*
X691983Y2127661D1*
X693884Y2129563D1*
X699632Y2131508D1*
X703435D1*
X709183Y2129563D1*
X713029Y2125760D1*
X714931Y2120012D1*
Y2114264D1*
X713029Y2108560D1*
X711084Y2106659D1*
X707281Y2104714D1*
X973301Y3665567D2*
Y3634970D1*
X971400Y3629222D1*
X969454Y3627321D1*
X965652Y3625375D1*
X961805D1*
X958003Y3627321D1*
X956101Y3629222D1*
X954156Y3634970D1*
Y3638772D1*
X1004798Y3625375D2*
Y3665523D1*
X985653Y3638772D1*
X1014349D1*
X760472Y3590075D2*
Y3559478D1*
X758571Y3553729D1*
X756626Y3551828D1*
X752823Y3549883D1*
X748976D1*
X745174Y3551828D1*
X743272Y3553729D1*
X741327Y3559478D1*
Y3563280D1*
X795772Y3590031D2*
X776670D1*
X774769Y3572831D1*
X776670Y3574732D1*
X782418Y3576677D1*
X788122D1*
X793870Y3574732D1*
X797717Y3570929D1*
X799618Y3565181D1*
Y3561379D1*
X797717Y3555631D1*
X793870Y3551784D1*
X788122Y3549883D1*
X782418D1*
X776670Y3551784D1*
X774769Y3553729D1*
X772824Y3557532D1*
X766378Y1371128D2*
Y1340531D1*
X764477Y1334783D1*
X762531Y1332881D1*
X758729Y1330936D1*
X754882D1*
X751079Y1332881D1*
X749178Y1334783D1*
X747232Y1340531D1*
Y1344333D1*
X786379Y1330936D2*
X805524Y1371084D1*
X778729D1*
X1827992Y1387073D2*
Y1346881D1*
X1854787Y1387073D2*
X1827992Y1360278D1*
X1837543Y1369873D2*
X1854787Y1346881D1*
X1867138Y1379379D2*
X1870985Y1381325D1*
X1876733Y1387029D1*
Y1346881D1*
X1821361Y1721719D2*
Y1681527D1*
X1848155Y1721719D2*
X1821361Y1694924D1*
X1830911Y1704519D2*
X1848155Y1681527D1*
X1862452Y1712124D2*
Y1714025D1*
X1864353Y1717872D1*
X1866255Y1719773D1*
X1870101Y1721674D1*
X1877751D1*
X1881553Y1719773D1*
X1883455Y1717872D1*
X1885400Y1714025D1*
Y1710223D1*
X1883455Y1706376D1*
X1879652Y1700672D1*
X1860507Y1681527D1*
X1887301D1*
X1821361Y2062270D2*
Y2022078D1*
X1848155Y2062270D2*
X1821361Y2035475D1*
X1830911Y2045070D2*
X1848155Y2022078D1*
X1864353Y2062226D2*
X1885356D1*
X1873904Y2046927D1*
X1879652D1*
X1883455Y2045026D1*
X1885356Y2043124D1*
X1887301Y2037376D1*
Y2033574D1*
X1885356Y2027826D1*
X1881553Y2023979D1*
X1875805Y2022078D1*
X1870057D1*
X1864353Y2023979D1*
X1862452Y2025925D1*
X1860507Y2029727D1*
X1818441Y2398884D2*
Y2358692D1*
X1845236Y2398884D2*
X1818441Y2372089D1*
X1827992Y2381684D2*
X1845236Y2358692D1*
X1876733D2*
Y2398840D1*
X1857587Y2372089D1*
X1886283D1*
X1817424Y2731561D2*
Y2691369D1*
X1844218Y2731561D2*
X1817424Y2704766D1*
X1826974Y2714361D2*
X1844218Y2691369D1*
X1879518Y2731517D2*
X1860416D1*
X1858515Y2714317D1*
X1860416Y2716218D1*
X1866164Y2718164D1*
X1871868D1*
X1877616Y2716218D1*
X1881463Y2712416D1*
X1883364Y2706668D1*
Y2702865D1*
X1881463Y2697117D1*
X1877616Y2693270D1*
X1871868Y2691369D1*
X1866164D1*
X1860416Y2693270D1*
X1858515Y2695216D1*
X1856570Y2699018D1*
X1822333Y3070144D2*
Y3029952D1*
X1849128Y3070144D2*
X1822333Y3043349D1*
X1831884Y3052944D2*
X1849128Y3029952D1*
X1884427Y3064396D2*
X1882526Y3068198D1*
X1876778Y3070100D1*
X1872975D1*
X1867227Y3068198D1*
X1863381Y3062450D1*
X1861479Y3052900D1*
Y3043349D1*
X1863381Y3035700D1*
X1867227Y3031853D1*
X1872975Y3029952D1*
X1874877D1*
X1880581Y3031853D1*
X1884427Y3035700D1*
X1886329Y3041448D1*
Y3043349D1*
X1884427Y3049097D1*
X1880581Y3052900D1*
X1874877Y3054801D1*
X1872975D1*
X1867227Y3052900D1*
X1863381Y3049097D1*
X1861479Y3043349D1*
X1056292Y2682455D2*
X1052489Y2680598D1*
X1048642Y2676751D1*
X1046741Y2672904D1*
X1044796Y2667156D1*
Y2657605D1*
X1046741Y2651857D1*
X1048642Y2648055D1*
X1052489Y2644208D1*
X1056292Y2642307D1*
X1063941D1*
X1067788Y2644208D1*
X1071590Y2648055D1*
X1073492Y2651857D1*
X1075437Y2657605D1*
Y2667156D1*
X1073492Y2672904D1*
X1071590Y2676751D1*
X1067788Y2680598D1*
X1063941Y2682455D1*
X1056292D1*
X1062040Y2649956D2*
X1073492Y2638460D1*
X1087788Y2674761D2*
X1091635Y2676707D1*
X1097383Y2682410D1*
Y2642263D1*
X1033597Y3382024D2*
X1029795Y3380167D1*
X1025948Y3376320D1*
X1024047Y3372474D1*
X1022101Y3366726D1*
Y3357175D1*
X1024047Y3351427D1*
X1025948Y3347624D1*
X1029795Y3343778D1*
X1033597Y3341876D1*
X1041247D1*
X1045093Y3343778D1*
X1048896Y3347624D1*
X1050797Y3351427D1*
X1052743Y3357175D1*
Y3366726D1*
X1050797Y3372474D1*
X1048896Y3376320D1*
X1045093Y3380167D1*
X1041247Y3382024D1*
X1033597D1*
X1039345Y3349526D2*
X1050797Y3338030D1*
X1067040Y3372429D2*
Y3374331D1*
X1068941Y3378177D1*
X1070842Y3380079D1*
X1074689Y3381980D1*
X1082338D1*
X1086141Y3380079D1*
X1088042Y3378177D1*
X1089987Y3374331D1*
Y3370528D1*
X1088042Y3366681D1*
X1084239Y3360978D1*
X1065094Y3341832D1*
X1091889D1*
X1043699Y2740072D2*
X1045556Y2736270D1*
X1049402Y2732423D1*
X1053249Y2730522D1*
X1058997Y2728576D1*
X1068548D1*
X1074296Y2730522D1*
X1078098Y2732423D1*
X1081945Y2736270D1*
X1083847Y2740072D1*
Y2747722D1*
X1081945Y2751568D1*
X1078098Y2755371D1*
X1074296Y2757272D1*
X1068548Y2759218D1*
X1058997D1*
X1053249Y2757272D1*
X1049403Y2755371D1*
X1045556Y2751569D1*
X1043699Y2747722D1*
Y2740072D1*
X1076197Y2745820D2*
X1087693Y2757272D1*
X1043743Y2775416D2*
Y2796418D1*
X1059042Y2784966D1*
Y2790715D1*
X1060943Y2794517D1*
X1062844Y2796418D1*
X1068592Y2798364D1*
X1072395D1*
X1078143Y2796418D1*
X1081989Y2792616D1*
X1083891Y2786868D1*
Y2781120D1*
X1081989Y2775416D1*
X1080044Y2773515D1*
X1076241Y2771569D1*
X1185044Y2940442D2*
X1186901Y2936640D1*
X1190748Y2932793D1*
X1194595Y2930891D1*
X1200343Y2928946D1*
X1209893D1*
X1215641Y2930891D1*
X1219444Y2932793D1*
X1223291Y2936639D1*
X1225192Y2940442D1*
Y2948091D1*
X1223291Y2951938D1*
X1219444Y2955741D1*
X1215641Y2957642D1*
X1209893Y2959587D1*
X1200343D1*
X1194595Y2957642D1*
X1190748Y2955741D1*
X1186901Y2951938D1*
X1185044Y2948091D1*
Y2940442D1*
X1217543Y2946190D2*
X1229039Y2957642D1*
X1225236Y2991084D2*
X1185088D1*
X1211839Y2971939D1*
Y3000635D1*
X2922624Y3368281D2*
Y3385481D1*
X2920679Y3391229D1*
X2918777Y3393174D1*
X2914975Y3395075D1*
X2911128D1*
X2907326Y3393174D1*
X2905380Y3391229D1*
X2903479Y3385481D1*
Y3368281D1*
X2943671D1*
X2922624Y3381678D2*
X2943671Y3395075D1*
X2911172Y3407427D2*
X2909227Y3411274D1*
X2903523Y3417022D1*
X2943671D1*
X870656Y2712469D2*
Y2729669D1*
X868710Y2735417D1*
X866809Y2737362D1*
X863006Y2739263D1*
X859160D1*
X855357Y2737362D1*
X853412Y2735417D1*
X851510Y2729669D1*
Y2712469D1*
X891702D1*
X870656Y2725866D2*
X891702Y2739263D1*
X864908Y2776508D2*
X870656Y2774563D1*
X874502Y2770760D1*
X876404Y2765012D1*
Y2763111D1*
X874502Y2757363D1*
X870656Y2753560D1*
X864908Y2751615D1*
X863006D1*
X857258Y2753560D1*
X853456Y2757363D1*
X851554Y2763111D1*
Y2765012D1*
X853456Y2770760D1*
X857258Y2774563D1*
X864908Y2776508D1*
X874502D1*
X884053Y2774563D1*
X889801Y2770760D1*
X891702Y2765012D1*
Y2761210D1*
X889801Y2755462D1*
X885954Y2753560D1*
X770262Y2876923D2*
Y2894123D1*
X768316Y2899871D1*
X766415Y2901816D1*
X762613Y2903718D1*
X758766D1*
X754963Y2901816D1*
X753018Y2899871D1*
X751117Y2894123D1*
Y2876923D1*
X791309D1*
X770262Y2890320D2*
X791309Y2903718D1*
X758810Y2916069D2*
X756865Y2919916D1*
X751161Y2925664D1*
X791309D1*
X751161Y2949511D2*
X753062Y2943763D1*
X758810Y2939916D1*
X768361Y2938015D1*
X774109D1*
X783659Y2939916D1*
X789407Y2943763D1*
X791309Y2949511D1*
Y2953314D1*
X789407Y2959062D1*
X783659Y2962864D1*
X774109Y2964810D1*
X768361D1*
X758810Y2962864D1*
X753062Y2959062D1*
X751161Y2953314D1*
Y2949511D1*
X758810Y2962864D2*
X783659Y2939916D1*
X517030Y3886138D2*
Y3857442D1*
X518931Y3851694D1*
X522778Y3847891D1*
X528526Y3845946D1*
X532328D1*
X538076Y3847891D1*
X541923Y3851694D1*
X543825Y3857442D1*
Y3886138D1*
X558121Y3876543D2*
Y3878444D1*
X560023Y3882291D1*
X561924Y3884192D1*
X565771Y3886094D1*
X573420D1*
X577223Y3884192D1*
X579124Y3882291D1*
X581069Y3878444D1*
Y3874642D1*
X579124Y3870795D1*
X575321Y3865091D1*
X556176Y3845946D1*
X582971D1*
X1274819Y607345D2*
D104*
X1313519D1*
X1326452Y611722D1*
X1330829Y616000D1*
X1335107Y624556D1*
Y633211D1*
X1330829Y641767D1*
X1326452Y646144D1*
X1313519Y650422D1*
X1274819D1*
Y559990D1*
X1304963Y607345D2*
X1335107Y559990D1*
X1362898Y594412D2*
X1414531D1*
Y603067D1*
X1410253Y611722D1*
X1405975Y616000D1*
X1397320Y620278D1*
X1384387D1*
X1375831Y616000D1*
X1367176Y607345D1*
X1362898Y594412D1*
Y585856D1*
X1367176Y572923D1*
X1375831Y564367D1*
X1384387Y559990D1*
X1397320D1*
X1405975Y564367D1*
X1414531Y572923D1*
X1442321Y620278D2*
Y559990D1*
Y603067D2*
X1455254Y616000D1*
X1463910Y620278D1*
X1476743D1*
X1485398Y616000D1*
X1489676Y603067D1*
Y559990D1*
Y603067D2*
X1502609Y616000D1*
X1511265Y620278D1*
X1524098D1*
X1532753Y616000D1*
X1537131Y603067D1*
Y559990D1*
X1586410Y620278D2*
X1577854Y616000D1*
X1569199Y607345D1*
X1564921Y594412D1*
Y585856D1*
X1569199Y572923D1*
X1577854Y564367D1*
X1586410Y559990D1*
X1599343D1*
X1607998Y564367D1*
X1616554Y572923D1*
X1620932Y585856D1*
Y594412D1*
X1616554Y607345D1*
X1607998Y616000D1*
X1599343Y620278D1*
X1586410D1*
X1661655Y650422D2*
Y577201D1*
X1665933Y564367D1*
X1674588Y559990D1*
X1683144D1*
X1648722Y620278D2*
X1678866D1*
X1710935Y594412D2*
X1762567D1*
Y603067D1*
X1758290Y611722D1*
X1754012Y616000D1*
X1745357Y620278D1*
X1732423D1*
X1723868Y616000D1*
X1715213Y607345D1*
X1710935Y594412D1*
Y585856D1*
X1715213Y572923D1*
X1723868Y564367D1*
X1732423Y559990D1*
X1745357D1*
X1754012Y564367D1*
X1762567Y572923D1*
X1938128Y637489D2*
X1929572Y646144D1*
X1916639Y650422D1*
X1899428D1*
X1886495Y646144D1*
X1877840Y637489D1*
Y628933D1*
X1882217Y620278D1*
X1886495Y616000D1*
X1895051Y611722D1*
X1920917Y603067D1*
X1929572Y598789D1*
X1933850Y594412D1*
X1938128Y585856D1*
Y572923D1*
X1929572Y564367D1*
X1916639Y559990D1*
X1899428D1*
X1886495Y564367D1*
X1877840Y572923D1*
X1965918Y620278D2*
X1983129Y559990D1*
X2000340Y620278D1*
X2017551Y559990D1*
X2034762Y620278D1*
X2062553Y650422D2*
X2066831Y646144D1*
X2071208Y650422D1*
X2066831Y654799D1*
X2062553Y650422D1*
X2066831Y620278D2*
Y559990D1*
X2111932Y650422D2*
Y577201D1*
X2116210Y564367D1*
X2124865Y559990D1*
X2133421D1*
X2098999Y620278D2*
X2129143D1*
X2212944Y607345D2*
X2204288Y616000D1*
X2195633Y620278D1*
X2182800D1*
X2174144Y616000D1*
X2165589Y607345D1*
X2161211Y594412D1*
Y585856D1*
X2165589Y572923D1*
X2174144Y564367D1*
X2182800Y559990D1*
X2195633D1*
X2204288Y564367D1*
X2212944Y572923D1*
X2240734Y650422D2*
Y559990D1*
Y603067D2*
X2253667Y616000D1*
X2262322Y620278D1*
X2275256D1*
X2283811Y616000D1*
X2288089Y603067D1*
Y559990D1*
X2315880Y594412D2*
X2367513D1*
Y603067D1*
X2363235Y611722D1*
X2358957Y616000D1*
X2350302Y620278D1*
X2337369D1*
X2328813Y616000D1*
X2320158Y607345D1*
X2315880Y594412D1*
Y585856D1*
X2320158Y572923D1*
X2328813Y564367D1*
X2337369Y559990D1*
X2350302D1*
X2358957Y564367D1*
X2367513Y572923D1*
X2395303Y620278D2*
Y559990D1*
Y594412D2*
X2399681Y607345D1*
X2408236Y616000D1*
X2416891Y620278D1*
X2429825D1*
X1177187Y837430D2*
X1121276D1*
Y746998D1*
X1177187D1*
X1121276Y794353D2*
X1155698D1*
X1217910Y837430D2*
Y764209D1*
X1222188Y751375D1*
X1230843Y746998D1*
X1239399D1*
X1204977Y807286D2*
X1235121D1*
X1267190Y837430D2*
Y746998D1*
Y790075D2*
X1280123Y803008D1*
X1288778Y807286D1*
X1301711D1*
X1310267Y803008D1*
X1314545Y790075D1*
Y746998D1*
X1342335Y781420D2*
X1393968D1*
Y790075D1*
X1389690Y798730D1*
X1385412Y803008D1*
X1376757Y807286D1*
X1363824D1*
X1355268Y803008D1*
X1346613Y794353D1*
X1342335Y781420D1*
Y772864D1*
X1346613Y759931D1*
X1355268Y751375D1*
X1363824Y746998D1*
X1376757D1*
X1385412Y751375D1*
X1393968Y759931D1*
X1421759Y807286D2*
Y746998D1*
Y781420D2*
X1426136Y794353D1*
X1434692Y803008D1*
X1443347Y807286D1*
X1456280D1*
X1484071D2*
Y746998D1*
Y790075D2*
X1497004Y803008D1*
X1505659Y807286D1*
X1518493D1*
X1527148Y803008D1*
X1531426Y790075D1*
Y746998D1*
X1559216Y781420D2*
X1610849D1*
Y790075D1*
X1606571Y798730D1*
X1602293Y803008D1*
X1593638Y807286D1*
X1580705D1*
X1572149Y803008D1*
X1563494Y794353D1*
X1559216Y781420D1*
Y772864D1*
X1563494Y759931D1*
X1572149Y751375D1*
X1580705Y746998D1*
X1593638D1*
X1602293Y751375D1*
X1610849Y759931D1*
X1651573Y837430D2*
Y764209D1*
X1655851Y751375D1*
X1664506Y746998D1*
X1673062D1*
X1638640Y807286D2*
X1668784D1*
X1870111D2*
X1865734D1*
X1861456Y802909D1*
X1857178Y794353D1*
X1848523Y772864D1*
X1839967Y759931D1*
X1831411Y751276D1*
X1822756Y746998D1*
X1805545D1*
X1796989Y751276D1*
X1792612Y755653D1*
X1788334Y764209D1*
Y772864D1*
X1792612Y781420D1*
X1796989Y785698D1*
X1827034Y802909D1*
X1831411Y807286D1*
X1835689Y815842D1*
Y824497D1*
X1831411Y833053D1*
X1822756Y837330D1*
X1814200Y833053D1*
X1809823Y824497D1*
Y815842D1*
X1814200Y802909D1*
X1822756Y790075D1*
X1844245Y759931D1*
X1852900Y751276D1*
X1861456Y746998D1*
X1870111D1*
X1985383Y837430D2*
Y772864D1*
X1989661Y759931D1*
X1998316Y751375D1*
X2011249Y746998D1*
X2019805D1*
X2032738Y751375D1*
X2041393Y759931D1*
X2045671Y772864D1*
Y837430D1*
X2133750Y824497D2*
X2125194Y833152D1*
X2112261Y837430D1*
X2095050D1*
X2082117Y833152D1*
X2073462Y824497D1*
Y815941D1*
X2077839Y807286D1*
X2082117Y803008D1*
X2090673Y798730D1*
X2116539Y790075D1*
X2125194Y785797D1*
X2129472Y781420D1*
X2133750Y772864D1*
Y759931D1*
X2125194Y751375D1*
X2112261Y746998D1*
X2095050D1*
X2082117Y751375D1*
X2073462Y759931D1*
X2161541Y837430D2*
Y746998D1*
X2200340D1*
X2213273Y751375D1*
X2217551Y755653D1*
X2221829Y764209D1*
Y777142D1*
X2217551Y785797D1*
X2213273Y790075D1*
X2200340Y794353D1*
X2213273Y798730D1*
X2217551Y803008D1*
X2221829Y811564D1*
Y820219D1*
X2217551Y828775D1*
X2213273Y833152D1*
X2200340Y837430D1*
X2161541D1*
Y794353D2*
X2200340D1*
X2337101Y807286D2*
Y716854D1*
Y794353D2*
X2345756Y802909D1*
X2354312Y807286D1*
X2367245D1*
X2375900Y802909D1*
X2384456Y794353D1*
X2388833Y781420D1*
Y772765D1*
X2384456Y759931D1*
X2375900Y751276D1*
X2367245Y746998D1*
X2354312D1*
X2345756Y751276D1*
X2337101Y759931D1*
X2438113Y807286D2*
X2429557Y803008D1*
X2420902Y794353D1*
X2416624Y781420D1*
Y772864D1*
X2420902Y759931D1*
X2429557Y751375D1*
X2438113Y746998D1*
X2451046D1*
X2459701Y751375D1*
X2468257Y759931D1*
X2472634Y772864D1*
Y781420D1*
X2468257Y794353D1*
X2459701Y803008D1*
X2451046Y807286D1*
X2438113D1*
X2500425D2*
Y746998D1*
Y781420D2*
X2504802Y794353D1*
X2513358Y803008D1*
X2522013Y807286D1*
X2534946D1*
X2575670Y837430D2*
Y764209D1*
X2579948Y751375D1*
X2588603Y746998D1*
X2597159D1*
X2562737Y807286D2*
X2592881D1*
X2694727Y1949635D2*
Y1859203D1*
X2664583Y1949635D2*
X2724871D1*
X2774150Y1919491D2*
X2765595Y1915213D1*
X2756940Y1906558D1*
X2752662Y1893625D1*
Y1885069D1*
X2756940Y1872136D1*
X2765595Y1863580D1*
X2774150Y1859203D1*
X2787084D1*
X2795739Y1863580D1*
X2804294Y1872136D1*
X2808672Y1885069D1*
Y1893625D1*
X2804294Y1906558D1*
X2795739Y1915213D1*
X2787084Y1919491D1*
X2774150D1*
X2923944Y1949635D2*
Y1859203D1*
X2954088D1*
X2967021Y1863580D1*
X2975677Y1872136D1*
X2979954Y1880791D1*
X2984232Y1893625D1*
Y1915213D1*
X2979954Y1928146D1*
X2975677Y1936702D1*
X2967021Y1945357D1*
X2954088Y1949635D1*
X2923944D1*
X3012023D2*
Y1885069D1*
X3016301Y1872136D1*
X3024956Y1863580D1*
X3037889Y1859203D1*
X3046445D1*
X3059378Y1863580D1*
X3068033Y1872136D1*
X3072311Y1885069D1*
Y1949635D1*
X3130246D2*
Y1859203D1*
X3100102Y1949635D2*
X3160390D1*
M02*
