M48
INCH
T01C0.0157
T02C0.0315
T03C0.035
T04C0.0354
T05C0.0394
T06C0.0571
T07C0.061
T08C0.0984
T09C0.126
T10C0.1358
T11C0.1378
%
T01
X+011018Y+008000
X+012331Y+008000
X+013999Y+011301
X+014457Y+011311
X+018948Y+009983
X+019469Y+009958
X+019280Y+014870
X+019631Y+015079
X+027547Y+014840
X+027818Y+015071
X+026328Y+009937
X+026328Y+008858
X+027175Y+008686
X+034207Y+007054
X+035895Y+006562
X+035895Y+005764
X+035181Y+008782
X+035181Y+010030
X+038937Y+007739
X+039344Y+007224
X+039890Y+007259
X+039625Y+005776
X+039881Y+005534
X+042836Y+008948
X+042836Y+009991
X+044055Y+014818
X+044348Y+015131
X+051629Y+014749
X+051927Y+015000
X+050837Y+010020
X+050837Y+008635
X+059790Y+014864
X+060046Y+015123
X+064440Y+015106
X+064864Y+015113
X+066970Y+013134
X+069301Y+008543
X+063081Y+008678
X+035782Y+015163
X+035505Y+014899
X+010143Y+014107
T02
X+018018Y+012062
X+018518Y+011562
X+018018Y+011062
X+026018Y+011062
X+026518Y+011562
X+026018Y+012062
X+034018Y+012000
X+034518Y+011500
X+034018Y+011000
X+042018Y+011062
X+042518Y+011562
X+042018Y+012062
X+050023Y+012062
X+050523Y+011562
X+050023Y+011062
X+058019Y+011042
X+058519Y+011542
X+058019Y+012042
X+065581Y+012062
X+066081Y+011562
X+065581Y+011062
X+071611Y+011062
X+072111Y+011562
X+071611Y+012062
T03
X+041643Y+006125
X+042442Y+006125
X+043242Y+006125
X+042842Y+006924
X+043642Y+006924
X+042043Y+006924
X+049393Y+006125
X+050192Y+006125
X+050992Y+006125
X+050592Y+006924
X+051392Y+006924
X+049793Y+006924
T04
X+004893Y+010403
X+008870Y+010403
X+012081Y+012295
X+012081Y+013083
X+015518Y+013937
X+015518Y+014937
X+018518Y+014937
X+018518Y+013937
X+023518Y+013937
X+023518Y+014937
X+026518Y+014937
X+026518Y+013937
X+031518Y+013937
X+031518Y+014937
X+034518Y+014937
X+034518Y+013937
X+039518Y+013937
X+039518Y+014937
X+042518Y+014937
X+042518Y+013937
X+047518Y+013967
X+047518Y+014967
X+050518Y+014967
X+050518Y+013967
X+055519Y+013917
X+055519Y+014917
X+058519Y+014917
X+058519Y+013917
X+063081Y+013937
X+063081Y+014937
X+066081Y+014937
X+066081Y+013937
X+069301Y+014000
X+069301Y+015000
X+072301Y+015000
X+072301Y+014000
X+031456Y+006875
X+030456Y+006875
X+029456Y+006875
X+028456Y+006875
X+027456Y+006875
X+026456Y+006875
X+025456Y+006875
X+024456Y+006875
X+023456Y+006875
X+022456Y+006875
X+021456Y+006875
X+020456Y+006875
X+019456Y+006875
X+019456Y+005875
X+020456Y+005875
X+021456Y+005875
X+022456Y+005875
X+023456Y+005875
X+024456Y+005875
X+025456Y+005875
X+026456Y+005875
X+027456Y+005875
X+028456Y+005875
X+029456Y+005875
X+030456Y+005875
X+031456Y+005875
X+015893Y+006187
X+015106Y+006187
X+015125Y+007831
X+015912Y+007831
X+013018Y+007250
X+013018Y+006462
T05
X+005061Y+013248
X+006061Y+013248
X+007061Y+013248
T06
X+011688Y+017687
X+014038Y+018487
X+017238Y+018487
X+019588Y+017687
X+021938Y+018487
X+025138Y+018487
X+027488Y+017687
X+029838Y+018487
X+033038Y+018487
X+035388Y+017687
X+037738Y+018487
X+040938Y+018487
X+043288Y+017687
X+045638Y+018487
X+048838Y+018487
X+051188Y+017687
X+053538Y+018487
X+056758Y+018487
X+059108Y+017687
X+061458Y+018487
X+064658Y+018487
X+067008Y+017687
X+069358Y+018487
X+069358Y+023287
X+064658Y+023287
X+061458Y+023287
X+056758Y+023287
X+053538Y+023287
X+048838Y+023287
X+045638Y+023287
X+040938Y+023287
X+037738Y+023287
X+033038Y+023287
X+029838Y+023287
X+025138Y+023287
X+021938Y+023287
X+017238Y+023287
X+014038Y+023287
X+009338Y+023287
X+009338Y+018487
T07
X+060906Y+006339
X+058937Y+006339
X+056969Y+006339
X+065551Y+006339
X+067520Y+006339
X+069488Y+006339
X+069488Y+027767
X+066988Y+027767
X+064488Y+027767
X+061588Y+027767
X+059088Y+027767
X+056588Y+027767
X+053688Y+027767
X+051188Y+027767
X+048688Y+027767
X+045788Y+027767
X+043288Y+027767
X+040788Y+027767
X+037888Y+027767
X+035388Y+027767
X+032888Y+027767
X+029988Y+027767
X+027488Y+027767
X+024988Y+027767
X+022088Y+027767
X+019588Y+027767
X+017088Y+027767
X+014188Y+027767
X+011688Y+027767
X+009188Y+027767
T08
X+071619Y+030280
X+071619Y+005153
X+005152Y+005152
X+005037Y+030396
T09
X+008268Y+005067
X+010119Y+006248
T10
X+044517Y+004924
X+040768Y+004924
X+048518Y+004924
X+052267Y+004924
T11
X+008268Y+007429
T00
M30
