G04 DipTrace 3.0.0.1*
G04 Top.gbr*
%MOIN*%
G04 #@! TF.FileFunction,Copper,L1,Top*
G04 #@! TF.Part,Single*
%AMOUTLINE0*5,1,4,0,0,0.070866,0.0*%
G04 #@! TA.AperFunction,Conductor*
%ADD10C,0.01*%
%ADD14C,0.035*%
%ADD15C,0.02*%
%ADD16C,0.015*%
G04 #@! TA.AperFunction,ViaPad*
%ADD17C,0.031496*%
G04 #@! TA.AperFunction,Conductor*
%ADD18C,0.05*%
%ADD19C,0.03*%
%ADD20C,0.007*%
%ADD21C,0.090551*%
%ADD22C,0.1*%
%ADD23C,0.086614*%
G04 #@! TA.AperFunction,CopperBalancing*
%ADD24C,0.025*%
%ADD55R,0.03937X0.108268*%
%ADD56R,0.218504X0.242126*%
G04 #@! TA.AperFunction,ComponentPad*
%ADD57O,0.090551X0.11811*%
%ADD58R,0.051181X0.059055*%
%ADD59R,0.059055X0.051181*%
G04 #@! TA.AperFunction,ComponentPad*
%ADD60R,0.059055X0.059055*%
%ADD61C,0.059055*%
%ADD62R,0.070866X0.062992*%
G04 #@! TA.AperFunction,ComponentPad*
%ADD63C,0.177165*%
%ADD64C,0.19685*%
%ADD65O,0.086614X0.141732*%
%ADD66C,0.059055*%
%ADD67C,0.055118*%
%ADD68C,0.051181*%
%ADD70R,0.055118X0.03937*%
%ADD71R,0.07874X0.023622*%
%ADD73C,0.03937*%
G04 #@! TA.AperFunction,ComponentPad*
%ADD124OUTLINE0*%
%FSLAX26Y26*%
G04*
G70*
G90*
G75*
G01*
G04 Top*
%LPD*%
X1100098Y1150886D2*
D14*
Y962450D1*
X1101822D1*
X1233072D1*
X1208071Y1229512D2*
Y1049951D1*
X1233072Y1024950D1*
Y962450D1*
X1208071Y1229512D2*
D15*
X1264322D1*
Y1381201D1*
X1245571Y1399951D1*
Y1549950D1*
X1264322Y1568701D1*
X1381833D1*
X2181833D1*
X2964071D1*
X3781831D1*
X4578571D1*
X4581820Y1571950D1*
X5376634D1*
X5381883Y1566701D1*
X6138096D1*
Y1568701D1*
X6627071D1*
X6711820Y1483951D1*
X6785031D1*
X4204322Y692371D2*
Y730831D1*
X4229003Y755512D1*
X4798294D1*
X4860892Y692913D1*
X4978778D1*
X4979320Y692371D1*
X3508071Y481201D2*
D16*
X3720669Y481299D1*
X3915945D1*
X3988058Y553412D1*
X3962467Y577559D2*
D17*
X3963911D1*
D18*
X3988058Y553412D1*
X3508071Y806201D2*
D10*
X3562106D1*
X3622441Y866535D1*
X3812467D1*
X3861286Y817717D1*
Y705774D1*
X3878478Y688583D1*
X4200533D1*
X4204322Y692371D1*
X4979773D2*
D15*
X5039370Y751969D1*
X5972441D1*
X6090551Y633858D1*
X6098425D1*
X6216535Y751969D1*
X6830709D1*
X6948819Y633858D1*
X1589322Y618701D2*
D14*
X1720571D1*
X1901820Y437451D1*
X3176822D1*
X3276820Y537450D1*
Y712451D1*
X3220571Y768701D1*
X3076820D1*
X3045571Y737451D1*
Y687451D1*
X606127Y1324820D2*
X608202D1*
X689322Y1243701D1*
X814320D1*
X858071Y1287451D1*
Y1374951D1*
X876820Y1393701D1*
X989370D1*
X1010335Y1414665D1*
X1014320Y1410680D2*
X1010335Y1414665D1*
X1101822Y887647D2*
Y833199D1*
D17*
Y799951D1*
X1233072Y887647D2*
D14*
X1233071Y833199D1*
D17*
Y799951D1*
X757874Y896505D2*
D14*
X880266D1*
X889320Y887451D1*
Y1037895D1*
X886959Y1040256D1*
X1158071Y612647D2*
X1268256D1*
X1301820Y646211D1*
X1208071Y1308252D2*
X1116748D1*
X1010335Y1414665D1*
X3720669Y806201D2*
D20*
Y756201D1*
X3508071Y706201D2*
X3592946D1*
X3642257Y755512D1*
X3719980D1*
X3720669Y756201D1*
X3508071Y706201D2*
D10*
X3421555D1*
X3420735Y705381D1*
X2545571Y687451D2*
D20*
Y726148D1*
X2661417Y841995D1*
X3281234D1*
X3376378Y746850D1*
Y669948D1*
X3393832Y652493D1*
X3504364D1*
X3508071Y656201D1*
Y556004D2*
Y563517D1*
X3549606D1*
X3562467Y576378D1*
X3589501D1*
Y656201D2*
X3508071D1*
X3720669Y556102D2*
Y656201D1*
X3664206D1*
X3620472Y612467D1*
X3365748D1*
X3347375Y630840D1*
Y729528D1*
X3254199Y822703D1*
X2667717D1*
X2595144Y750131D1*
Y647113D1*
X2583202Y635171D1*
X2497852D1*
X2445571Y687451D1*
X3151822Y1393701D2*
X3387270D1*
X3433858Y1440289D1*
X3467323D1*
X3496850Y1410761D1*
Y1067979D1*
X3404199Y975328D1*
X2651181D1*
X2632808Y993701D1*
Y885827D2*
X2198425D1*
X2146588Y833990D1*
Y688469D1*
X2145571Y687451D1*
X2351822Y1393701D2*
X2587664D1*
X2628346Y1434383D1*
X2670210D1*
X2710105Y1394488D1*
Y1156955D1*
X2527559Y974409D1*
X1968241D1*
X1946850Y995801D1*
X1551822Y1393701D2*
X1753543D1*
X1804856Y1445013D1*
X1872047D1*
X1894751Y1422310D1*
Y998294D1*
X4751822Y1396701D2*
X4967436D1*
X5014436Y1443701D1*
X5066010D1*
X5106037Y1403675D1*
Y1090026D1*
X4990682Y974672D1*
X4308005D1*
X4283596Y999081D1*
Y894751D2*
X4234777D1*
X4225066Y885039D1*
X3576247D1*
X3534252Y843045D1*
X3328740D1*
X3303150Y868635D1*
X2717454D1*
X6930071Y854331D2*
X6356037D1*
X6338320Y836614D1*
X5155512D1*
X5138714Y819816D1*
X4082940D1*
X3988976Y725853D1*
X6308084Y867848D2*
X5139370D1*
X5106037Y834514D1*
X4046457D1*
X3934383Y722441D1*
X5551858Y1391701D2*
X5777265D1*
X5820735Y1435171D1*
X5882808D1*
X5899081Y1418898D1*
Y1031759D1*
X5842126Y974803D1*
X5110892D1*
X5083727Y1001969D1*
Y863517D2*
X4028740D1*
X3939108Y773885D1*
X3893701D1*
X3951819Y1393701D2*
X4183202D1*
X4223622Y1434121D1*
X4274803D1*
X4296850Y1412073D1*
Y1103412D1*
X4169423Y975984D1*
X3545144D1*
X3518110Y1003018D1*
Y878215D2*
X3334252D1*
X3313386Y899081D1*
X2685433D1*
X2535958Y749606D1*
X2307726D1*
X2245571Y687451D1*
X1958822Y2776701D2*
D21*
Y2667646D1*
D22*
Y1889567D1*
D23*
Y1768701D1*
X1708822Y2776701D2*
D21*
Y2667646D1*
D22*
Y2343701D1*
D23*
X1723822Y2328701D1*
X2748822Y2776701D2*
D21*
Y2667646D1*
D22*
Y1889567D1*
D23*
Y1768701D1*
X1418822Y2776701D2*
D21*
Y2667646D1*
D22*
Y2343701D1*
D23*
X1403822Y2328701D1*
X2251820Y1206199D2*
D19*
X2420568D1*
X2420570Y1206201D1*
X2601820D1*
X2420570D2*
D24*
Y1225231D1*
X2283202Y1362598D1*
X2074016D1*
X1940551Y1496063D1*
Y1511155D1*
X1959843D1*
X1963123Y1507874D1*
X1927953Y1487008D2*
X1942257D1*
X1963123Y1507874D1*
X1851820Y1156201D2*
D10*
Y1393699D1*
X1851822Y1393701D1*
X1168822Y2776701D2*
D21*
Y2667646D1*
D22*
Y1889567D1*
D23*
Y1768701D1*
X3064320Y1199950D2*
D19*
X3220570D1*
X3220571Y1199951D1*
X3401820D1*
X3220571D2*
D24*
Y1267356D1*
X3165223Y1322703D1*
X2941995D1*
X2764567Y1500131D1*
D15*
X2774803D1*
X2781759Y1507087D1*
X2754724Y1483990D2*
X2758661D1*
X2781759Y1507087D1*
X3851819Y1206201D2*
D19*
X4008068D1*
X4201819D1*
X4008068D2*
D24*
Y1237601D1*
X3905118Y1340551D1*
X3724934D1*
X3559843Y1505643D1*
X3567585D1*
X3578215Y1516273D1*
X3550525Y1489895D2*
X3551837D1*
X3578215Y1516273D1*
X2420570Y1131398D2*
D19*
X2420571Y1012255D1*
X2181833Y1493898D2*
D15*
X2351625D1*
X2351822Y1493701D1*
X3288822Y2776701D2*
D21*
Y2667646D1*
D22*
Y2343701D1*
D23*
X3303822Y2328701D1*
X1620571Y1131398D2*
D19*
Y1012253D1*
X506127Y1324820D2*
D14*
Y1289395D1*
X644636Y1150886D1*
X920571D1*
X950887D1*
X988189Y1113584D1*
Y842520D1*
X1102362Y728346D1*
X1158071D1*
Y687450D1*
X1195570D1*
X1233071Y724951D1*
X1301820D1*
Y1137449D1*
X1339322Y1174950D1*
Y1242715D1*
X1340207Y1243601D1*
X1301820Y724951D2*
X1358071D1*
X1401820Y768701D1*
Y912450D1*
X1426820Y937450D1*
X1620571D1*
X2420571D1*
Y937451D1*
X3220571D1*
X4007871D1*
X4007970Y937550D1*
X4808472D1*
X5614260D1*
X5614358Y937451D1*
X6121469D1*
X6358165D1*
X6711955D1*
X6961071D1*
Y931201D1*
X1301820Y724951D2*
X1404331D1*
X1510581Y618701D1*
X7230071Y1499950D2*
D16*
Y1626753D1*
X7008136Y1848688D1*
X6935835D1*
X6935822Y1848701D1*
X5851858Y1491701D2*
D24*
X5873370D1*
X6121469Y1243602D1*
Y937451D1*
X6711955Y1243602D2*
Y937451D1*
X6696982Y1313386D2*
Y1258576D1*
X6711955Y1243602D1*
X5051822Y1496701D2*
X5306920Y1241602D1*
X5358993D1*
X4584457Y1243602D2*
X4501917D1*
X4251819Y1493701D1*
X3765205Y1243602D2*
X3701920D1*
X3451822Y1493701D1*
X2977706Y1237352D2*
X2908171D1*
X2651822Y1493701D1*
X2165206Y1243601D2*
X2114929D1*
X1864829Y1493701D1*
X1851822D1*
X3538822Y2776701D2*
D21*
Y2667646D1*
D22*
Y1889567D1*
D23*
Y1768701D1*
X2208822Y2776701D2*
D21*
Y2667646D1*
D22*
Y2343701D1*
D23*
X2193822Y2328701D1*
X1426822Y1206199D2*
D19*
X1620571Y1206201D1*
X1801820D1*
X1426822Y1206199D2*
D24*
Y1129790D1*
X1400131D1*
X1399869Y1130052D1*
X1445669Y1131102D2*
X1400919D1*
X918822Y2776701D2*
D21*
Y2667646D1*
D22*
Y2343701D1*
D23*
X933822Y2328701D1*
X2651820Y1156201D2*
D10*
Y1393699D1*
X2651822Y1393701D1*
X3220571Y1125148D2*
D19*
Y1012255D1*
X2964071Y1493898D2*
D15*
X3151625D1*
X3151822Y1493701D1*
X4328822Y2776701D2*
D21*
Y2667646D1*
D22*
Y1889567D1*
D23*
Y1768701D1*
X4078822Y2776701D2*
D21*
Y2667646D1*
D22*
Y2343701D1*
D23*
X4093822Y2328701D1*
X4578822Y2776701D2*
D21*
Y2667646D1*
D22*
Y2343701D1*
D23*
X4563822Y2328701D1*
X3451820Y1149951D2*
D10*
Y1393699D1*
X3451822Y1393701D1*
X4008068Y1131398D2*
D19*
Y1012451D1*
X4007970Y1012353D1*
X3781831Y1493898D2*
D15*
X3951622D1*
X3951819Y1493701D1*
X2498822Y2776701D2*
D21*
Y2667646D1*
D22*
Y2343701D1*
D23*
X2513822Y2328701D1*
X2998822Y2776701D2*
D21*
Y2667646D1*
D22*
Y2343701D1*
D23*
X2983822Y2328701D1*
X4671071Y1206201D2*
D19*
X4808571D1*
X5002322D1*
X4808571D2*
D24*
Y1287492D1*
X4765092Y1330971D1*
X4586614D1*
X4419554Y1498031D1*
X4419685D1*
X4434777Y1513123D1*
X4405512Y1481759D2*
Y1483858D1*
X4434777Y1513123D1*
X4251819Y1156201D2*
D10*
Y1393701D1*
X1381833Y1493898D2*
D15*
X1551625D1*
X1551822Y1493701D1*
X826820Y742898D2*
D14*
X557266D1*
X539215Y724846D1*
X4808571Y1131398D2*
D19*
Y1012451D1*
X4808472Y1012353D1*
X4581820Y1497147D2*
D15*
X4751375D1*
X4751822Y1496701D1*
X3788822Y2776701D2*
D21*
Y2667646D1*
D22*
Y2343701D1*
D23*
X3773822Y2328701D1*
X5052322Y1156201D2*
D10*
Y1396201D1*
X5051822Y1396701D1*
X5445608Y1204201D2*
D19*
X5614357D1*
X5801857D1*
X5614357D2*
D24*
Y1235906D1*
X5510105Y1340157D1*
X5325459D1*
X5175984Y1489633D1*
X5182283D1*
X5192651Y1500000D1*
X5162861Y1474934D2*
X5167585D1*
X5192651Y1500000D1*
X6208083Y1206201D2*
D19*
X6358084D1*
X6558084D1*
X6358084D2*
D24*
Y1254908D1*
X6272310Y1340682D1*
X6148556D1*
X5992913Y1496325D1*
Y1500656D1*
X6004593Y1512336D1*
X5979003Y1486352D2*
Y1486745D1*
X6004593Y1512336D1*
X6798570Y1206201D2*
D19*
X6961070D1*
X7161071D1*
X6961070D2*
D24*
Y1268720D1*
X6883333Y1346457D1*
X6743176D1*
X6645276Y1444357D1*
X6553281D1*
X6486352Y1511286D1*
X6443963Y1510630D2*
X6485696D1*
X6486352Y1511286D1*
X5614357Y1129398D2*
D19*
X5614358Y1012255D1*
X5381883Y1491898D2*
D15*
X5551661D1*
X5551858Y1491701D1*
X5851857Y1154201D2*
D10*
Y1391699D1*
X5851858Y1391701D1*
X6358084Y1131398D2*
D19*
Y1012336D1*
X6358165Y1012255D1*
X6138096Y1493898D2*
D15*
X6307887D1*
X6308084Y1493701D1*
X6608084Y1156201D2*
D10*
Y1393701D1*
X6961070Y1131398D2*
D19*
Y1006005D1*
X6961071Y1006004D1*
X6785031Y1409148D2*
D24*
X6822534D1*
X6856562Y1443176D1*
Y1491076D1*
X6861680Y1496194D1*
X6926315D1*
X6930071Y1499950D1*
X7211071Y1156201D2*
D10*
Y1380950D1*
X7230071Y1399950D1*
X539215Y835083D2*
D14*
Y862558D1*
X489322Y912451D1*
Y1040256D1*
Y1112450D1*
X437071Y1164701D1*
Y1372701D1*
X470571Y1406201D1*
X706127D1*
Y1324820D1*
X539215Y835083D2*
X621648D1*
X683071Y896505D1*
X5118822Y2776701D2*
D21*
Y2667646D1*
D22*
Y1889567D1*
D23*
Y1768701D1*
X4868822Y2776701D2*
D21*
Y2667646D1*
D22*
Y2343701D1*
D23*
X4883822Y2328701D1*
X5368822Y2776701D2*
D21*
Y2667646D1*
D22*
Y2343701D1*
D23*
X5353822Y2328701D1*
X5908822Y2776701D2*
D21*
Y2667646D1*
D22*
Y1770701D1*
D23*
X5910822Y1768701D1*
X5658822Y2776701D2*
D21*
Y2667646D1*
D22*
Y2345701D1*
D23*
X5675822Y2328701D1*
X6158822Y2776701D2*
D21*
Y2667646D1*
D22*
Y2341701D1*
D23*
X6145822Y2328701D1*
X6698822Y2776701D2*
D21*
Y2667646D1*
D22*
Y1770701D1*
D23*
X6700822Y1768701D1*
X6448822Y2776701D2*
D21*
Y2667646D1*
D22*
Y2345701D1*
D23*
X6465822Y2328701D1*
X6948822Y2776701D2*
D21*
Y2667646D1*
D22*
Y2341701D1*
D23*
X6935822Y2328701D1*
X5059241Y692371D2*
D20*
X5054314D1*
X5017717Y655774D1*
X4320840D1*
X4284243Y692371D1*
X4279904D1*
X4242520Y654987D1*
X3869554D1*
X3828740Y695801D1*
Y804724D1*
X3791076Y842388D1*
X3636614D1*
X3609318Y815092D1*
Y784514D1*
X3581004Y756201D1*
X3508071D1*
X5059241Y692371D2*
Y680916D1*
X5086614Y653543D1*
X5586614D1*
X5602362Y637795D1*
Y562992D1*
X5629921Y535433D1*
X5877953D1*
X5893701Y551181D1*
Y633858D1*
Y555118D1*
X5913386Y535433D1*
X6653543D1*
X6751969Y633858D1*
X1591192Y783071D2*
D14*
X1643702D1*
X1914322Y512451D1*
X3033072D1*
X3045571Y524950D1*
Y587451D1*
D17*
X1014320Y1410680D3*
X3589501Y576378D3*
Y656201D3*
X2632808Y993701D3*
Y885827D3*
X1946850Y995801D3*
X1894751Y998294D3*
X4283596Y999081D3*
Y894751D3*
X2717454Y868635D3*
X6930071Y854331D3*
X3988976Y725853D3*
X6308084Y867848D3*
X3934383Y722441D3*
X5083727Y1001969D3*
Y863517D3*
X3893701Y773885D3*
X3518110Y1003018D3*
Y878215D3*
X6696982Y1313386D3*
X1101822Y799951D3*
X1233071D3*
X3962467Y577559D3*
X3988058Y553412D3*
X6443963Y1510630D3*
X6486352Y1511286D3*
X5979003Y1486352D3*
X6004593Y1512336D3*
X5162861Y1474934D3*
X5192651Y1500000D3*
X4405512Y1481759D3*
X4434777Y1513123D3*
X3550525Y1489895D3*
X3578215Y1516273D3*
X2754724Y1483990D3*
X2781759Y1507087D3*
X1927953Y1487008D3*
X1963123Y1507874D3*
X1399869Y1130052D3*
X1445669Y1131102D3*
X3420735Y705381D3*
X592690Y3092238D2*
D24*
X634419D1*
X603579Y3067369D2*
X634419D1*
X607387Y3042500D2*
X634419D1*
X604995Y3017631D2*
X634419D1*
X595912Y2992762D2*
X634419D1*
X577651Y2967894D2*
X634419D1*
X428726Y2943025D2*
X470991D1*
X536440D2*
X634419D1*
X7088394D2*
X7104487D1*
X7219399D2*
X7248482D1*
X428726Y2918156D2*
X634419D1*
X7088394D2*
X7248482D1*
X428726Y2893287D2*
X634419D1*
X7088394D2*
X7248482D1*
X428726Y2868419D2*
X634419D1*
X7088394D2*
X7248482D1*
X428726Y2843550D2*
X634419D1*
X7088394D2*
X7248482D1*
X428726Y2818681D2*
X471088D1*
X539419D2*
X634419D1*
X7088394D2*
X7137739D1*
X7206167D2*
X7248482D1*
X428726Y2793812D2*
X439482D1*
X570962D2*
X634419D1*
X7088394D2*
X7106196D1*
X7237710D2*
X7248482D1*
X582730Y2768944D2*
X634419D1*
X585415Y2744075D2*
X634419D1*
X579848Y2719206D2*
X634419D1*
X7088394D2*
X7097356D1*
X428726Y2694337D2*
X447091D1*
X563394D2*
X634419D1*
X7088394D2*
X7113814D1*
X7230092D2*
X7248470D1*
X428726Y2669469D2*
X634419D1*
X7088394D2*
X7248482D1*
X428726Y2644600D2*
X634419D1*
X428726Y2619731D2*
X634419D1*
X428726Y2594862D2*
X634419D1*
X428726Y2569993D2*
X634419D1*
X428726Y2545125D2*
X634419D1*
X428726Y2520256D2*
X634419D1*
X428726Y2495387D2*
X634419D1*
X428726Y2470518D2*
X634419D1*
X428726Y2445650D2*
X634419D1*
X428726Y2420781D2*
X634419D1*
X428726Y2395912D2*
X634419D1*
X428726Y2371043D2*
X634419D1*
X428726Y2346175D2*
X634419D1*
X428726Y2321306D2*
X634419D1*
X428726Y2296437D2*
X634419D1*
X428726Y2271568D2*
X634419D1*
X428726Y2246699D2*
X634419D1*
X428726Y2221831D2*
X634419D1*
X428726Y2196962D2*
X634419D1*
X428726Y2172093D2*
X634419D1*
X428726Y2147224D2*
X634419D1*
X428726Y2122356D2*
X634419D1*
X428726Y2097487D2*
X634419D1*
X428726Y2072618D2*
X634419D1*
X428726Y2047749D2*
X634419D1*
X428726Y2022881D2*
X634419D1*
X428726Y1998012D2*
X634419D1*
X428726Y1973143D2*
X634419D1*
X428726Y1948274D2*
X634419D1*
X428726Y1923406D2*
X634419D1*
X428726Y1898537D2*
X634419D1*
X428726Y1873668D2*
X634419D1*
X428726Y1848799D2*
X634419D1*
X428726Y1823930D2*
X634419D1*
X428726Y1799062D2*
X634419D1*
X428726Y1774193D2*
X634419D1*
X428726Y1749324D2*
X634419D1*
X428726Y1724455D2*
X634419D1*
X428726Y1699587D2*
X634419D1*
X428726Y1674718D2*
X634419D1*
X428726Y1649849D2*
X634419D1*
X428726Y1624980D2*
X7026070D1*
X428726Y1600112D2*
X1243207D1*
X6648159D2*
X7026070D1*
X428726Y1575243D2*
X1216743D1*
X6674623D2*
X7193550D1*
X428726Y1550374D2*
X872066D1*
X1148598D2*
X1206587D1*
X6699526D2*
X6871528D1*
X6988588D2*
X7193550D1*
X428726Y1525505D2*
X872066D1*
X1148598D2*
X1206587D1*
X1284584D2*
X1323286D1*
X1610366D2*
X1803218D1*
X2004018D2*
X2123286D1*
X2410366D2*
X2603218D1*
X2700454D2*
X2732466D1*
X2822280D2*
X2905562D1*
X3210366D2*
X3403218D1*
X3621938D2*
X3723286D1*
X4010366D2*
X4203218D1*
X4300454D2*
X4389350D1*
X4477651D2*
X4523286D1*
X4810366D2*
X5001264D1*
X5102358D2*
X5156490D1*
X5228823D2*
X5323335D1*
X5610366D2*
X5804682D1*
X5899038D2*
X5960102D1*
X6047231D2*
X6079584D1*
X6366615D2*
X6401899D1*
X6529799D2*
X6559467D1*
X6988588D2*
X7177730D1*
X428726Y1500636D2*
X872066D1*
X1148598D2*
X1206587D1*
X1284584D2*
X1323286D1*
X1610366D2*
X1793744D1*
X2007241D2*
X2123286D1*
X2410366D2*
X2593744D1*
X2825991D2*
X2905562D1*
X3210366D2*
X3393744D1*
X3622524D2*
X3723286D1*
X4010366D2*
X4193744D1*
X4309927D2*
X4365230D1*
X4477651D2*
X4523286D1*
X4810366D2*
X4993451D1*
X5110219D2*
X5126850D1*
X5237416D2*
X5323335D1*
X5610366D2*
X5794038D1*
X5922084D2*
X5936762D1*
X6047671D2*
X6079584D1*
X6366615D2*
X6400434D1*
X6988588D2*
X7171528D1*
X428726Y1475768D2*
X872066D1*
X1148598D2*
X1206587D1*
X1284584D2*
X1323286D1*
X1610366D2*
X1796235D1*
X2018520D2*
X2123286D1*
X2410366D2*
X2596235D1*
X2846596D2*
X2905562D1*
X3210366D2*
X3396235D1*
X3647378D2*
X3723286D1*
X4010366D2*
X4196235D1*
X4327407D2*
X4361176D1*
X4499478D2*
X4523286D1*
X4810366D2*
X4997358D1*
X5247524D2*
X5323335D1*
X5610366D2*
X5795650D1*
X6071108D2*
X6079568D1*
X6366615D2*
X6417622D1*
X6988588D2*
X7177046D1*
X428726Y1450899D2*
X872066D1*
X1148598D2*
X1206587D1*
X1284584D2*
X1323286D1*
X1440346D2*
X1493306D1*
X1610366D2*
X1765815D1*
X2043374D2*
X2123286D1*
X2240346D2*
X2293306D1*
X2410366D2*
X2599946D1*
X2871450D2*
X2905562D1*
X3022622D2*
X3093306D1*
X3210366D2*
X3399555D1*
X3672231D2*
X3723286D1*
X3840346D2*
X3893306D1*
X4010366D2*
X4195454D1*
X4352260D2*
X4374164D1*
X4640346D2*
X4693306D1*
X4810366D2*
X4976703D1*
X5272378D2*
X5323335D1*
X5440395D2*
X5493354D1*
X5610366D2*
X5791547D1*
X6196646D2*
X6249555D1*
X6366615D2*
X6489106D1*
X6988588D2*
X7200483D1*
X747915Y1426030D2*
X844478D1*
X1148598D2*
X1206587D1*
X1284584D2*
X1503559D1*
X1600063D2*
X1740962D1*
X2068227D2*
X2303559D1*
X2400063D2*
X2575043D1*
X2896303D2*
X3103559D1*
X3200063D2*
X3374654D1*
X3697134D2*
X3903559D1*
X4000063D2*
X4170600D1*
X4377163D2*
X4433882D1*
X4549234D2*
X4701606D1*
X5297231D2*
X5505073D1*
X5598647D2*
X5766646D1*
X5996694D2*
X6005524D1*
X6120864D2*
X6259810D1*
X6356362D2*
X6513959D1*
X6982143D2*
X7177974D1*
X752651Y1401161D2*
X820210D1*
X1148598D2*
X1206587D1*
X1297378D2*
X1493794D1*
X2921206D2*
X3093794D1*
X3721987D2*
X3893794D1*
X4402016D2*
X4458783D1*
X4574087D2*
X4693451D1*
X5322134D2*
X5494135D1*
X6021547D2*
X6030404D1*
X6145718D2*
X6250043D1*
X6366127D2*
X6550043D1*
X6988588D2*
X7171576D1*
X752651Y1376293D2*
X811567D1*
X1148598D2*
X1215278D1*
X1303335D2*
X1496088D1*
X1781070D2*
X1796093D1*
X2946059D2*
X3096088D1*
X4426870D2*
X4483638D1*
X4598940D2*
X4697163D1*
X6046450D2*
X6055299D1*
X6363832D2*
X6552339D1*
X6983364D2*
X7176802D1*
X757924Y1351424D2*
X811567D1*
X1303335D2*
X1512543D1*
X1591079D2*
X1812543D1*
X1927260D2*
X1949458D1*
X2391079D2*
X2612543D1*
X3194106D2*
X3412543D1*
X3991079D2*
X4212543D1*
X4451772D2*
X4508491D1*
X4802310D2*
X5016303D1*
X5593325D2*
X5810395D1*
X5931558D2*
X5956000D1*
X6071303D2*
X6080177D1*
X6347328D2*
X6568794D1*
X6647328D2*
X6676118D1*
X6960562D2*
X7177094D1*
X764614Y1326555D2*
X811567D1*
X1303335D2*
X1370259D1*
X1483364D2*
X1817818D1*
X1927260D2*
X1974311D1*
X2376919D2*
X2617818D1*
X2742592D2*
X2761323D1*
X3219008D2*
X3417818D1*
X3529360D2*
X3561323D1*
X3976772D2*
X4217818D1*
X4329360D2*
X4361323D1*
X4476626D2*
X4533394D1*
X4827163D2*
X5018306D1*
X5138539D2*
X5164302D1*
X5581362D2*
X5817866D1*
X5931558D2*
X5980854D1*
X6096157D2*
X6105055D1*
X6344106D2*
X6574067D1*
X6642104D2*
X6654377D1*
X6960903D2*
X7177094D1*
X759634Y1301686D2*
X807563D1*
X1303335D2*
X1370259D1*
X1483364D2*
X1817818D1*
X1927260D2*
X1999214D1*
X2114516D2*
X2195259D1*
X2401772D2*
X2617818D1*
X2742592D2*
X2786176D1*
X3243911D2*
X3417818D1*
X3529360D2*
X3586176D1*
X3701479D2*
X3719184D1*
X4001626D2*
X4217818D1*
X4329360D2*
X4386176D1*
X4501479D2*
X4558344D1*
X4847378D2*
X5018306D1*
X5138539D2*
X5189203D1*
X5304507D2*
X5316566D1*
X5606215D2*
X5817866D1*
X5931558D2*
X6005707D1*
X6121059D2*
X6145503D1*
X6368959D2*
X6574067D1*
X6642104D2*
X6653906D1*
X6855142D2*
X6870434D1*
X6985756D2*
X7177094D1*
X1483364Y1276818D2*
X1817818D1*
X1927260D2*
X2024067D1*
X2426626D2*
X2617818D1*
X2742592D2*
X2811030D1*
X3120864D2*
X3153462D1*
X3260903D2*
X3417818D1*
X3529360D2*
X3611030D1*
X4026528D2*
X4217818D1*
X4329360D2*
X4411030D1*
X4727651D2*
X4761567D1*
X4850063D2*
X5018306D1*
X5138539D2*
X5214058D1*
X5502163D2*
X5515766D1*
X5631118D2*
X5817866D1*
X5931558D2*
X6030610D1*
X6264663D2*
X6278510D1*
X6392836D2*
X6574067D1*
X6642104D2*
X6655412D1*
X6855142D2*
X6895307D1*
X7001723D2*
X7177094D1*
X608315Y1251949D2*
X616335D1*
X887270D2*
X1149555D1*
X1483364D2*
X1562055D1*
X1679115D2*
X1770503D1*
X1927260D2*
X2048920D1*
X2308364D2*
X2336176D1*
X2479115D2*
X2570503D1*
X2742592D2*
X2835932D1*
X3120864D2*
X3162055D1*
X3279115D2*
X3384516D1*
X3529360D2*
X3635932D1*
X3908364D2*
X3936079D1*
X4066615D2*
X4170503D1*
X4329360D2*
X4435932D1*
X4727651D2*
X4750043D1*
X4867104D2*
X4971039D1*
X5138539D2*
X5238911D1*
X5502163D2*
X5540668D1*
X5672866D2*
X5774018D1*
X5931558D2*
X6055463D1*
X6264663D2*
X6299555D1*
X6416615D2*
X6526802D1*
X6642104D2*
X6655412D1*
X6855142D2*
X6902534D1*
X7019594D2*
X7129780D1*
X483559Y1227080D2*
X503706D1*
X633168D2*
X641202D1*
X862416D2*
X871888D1*
X969252D2*
X1051411D1*
X1927260D2*
X2073774D1*
X2742592D2*
X2860786D1*
X3529360D2*
X3660786D1*
X4329360D2*
X4460786D1*
X5138539D2*
X5263764D1*
X5931558D2*
X6064887D1*
X6642104D2*
X6655412D1*
X483559Y1202211D2*
X528608D1*
X658022D2*
X672206D1*
X831459D2*
X871870D1*
X969252D2*
X1051411D1*
X1927260D2*
X2108638D1*
X2742592D2*
X2888764D1*
X3529360D2*
X3708638D1*
X4329360D2*
X4527875D1*
X5138539D2*
X5302436D1*
X5931558D2*
X6064887D1*
X6642104D2*
X6655412D1*
X489175Y1177343D2*
X553462D1*
X989175D2*
X1051411D1*
X1266615D2*
X1277029D1*
X1927260D2*
X2195259D1*
X2742592D2*
X3007759D1*
X3529360D2*
X3795259D1*
X4329360D2*
X4614496D1*
X5138539D2*
X5389058D1*
X5931558D2*
X6079975D1*
X6660318D2*
X6670433D1*
X514028Y1152474D2*
X578315D1*
X1014028D2*
X1051411D1*
X1148794D2*
X1161567D1*
X1484634D2*
X1562055D1*
X1679115D2*
X1772699D1*
X1927260D2*
X2362055D1*
X2479115D2*
X2572699D1*
X2742251D2*
X3162055D1*
X3279115D2*
X3373482D1*
X3529360D2*
X3949555D1*
X4066615D2*
X4172699D1*
X4329360D2*
X4750043D1*
X4867104D2*
X4973188D1*
X5138539D2*
X5555806D1*
X5672866D2*
X5774702D1*
X5931558D2*
X6079975D1*
X6162954D2*
X6299555D1*
X6416615D2*
X6528950D1*
X6753432D2*
X6902534D1*
X7019594D2*
X7131928D1*
X533119Y1127605D2*
X603168D1*
X1032387D2*
X1051411D1*
X1148794D2*
X1161567D1*
X1490248D2*
X1562055D1*
X1679115D2*
X1747798D1*
X1927260D2*
X2362055D1*
X2479115D2*
X2547798D1*
X2725698D2*
X3162055D1*
X3279115D2*
X3354047D1*
X3529360D2*
X3949555D1*
X4066615D2*
X4147798D1*
X4329360D2*
X4750043D1*
X4867104D2*
X4948335D1*
X5138539D2*
X5555806D1*
X5672866D2*
X5749848D1*
X5931558D2*
X6079975D1*
X6162954D2*
X6299555D1*
X6416615D2*
X6504096D1*
X6656459D2*
X6670442D1*
X6753432D2*
X6902534D1*
X7019594D2*
X7107075D1*
X535806Y1102736D2*
X871870D1*
X1034682D2*
X1051411D1*
X1148794D2*
X1161567D1*
X1348306D2*
X1365131D1*
X1479458D2*
X1562055D1*
X1679115D2*
X1737592D1*
X1927260D2*
X2362055D1*
X2479115D2*
X2537592D1*
X2700795D2*
X3162055D1*
X3279115D2*
X3337543D1*
X3529360D2*
X3949555D1*
X4066615D2*
X4137592D1*
X4329360D2*
X4750043D1*
X4867104D2*
X4938130D1*
X5138539D2*
X5555806D1*
X5672866D2*
X5737446D1*
X5931558D2*
X6079975D1*
X6162954D2*
X6299555D1*
X6416615D2*
X6493891D1*
X6622280D2*
X6670454D1*
X6753432D2*
X6902534D1*
X7019594D2*
X7096870D1*
X7225259D2*
X7248482D1*
X547866Y1077867D2*
X842915D1*
X1034682D2*
X1051411D1*
X1148794D2*
X1161567D1*
X1348306D2*
X1576558D1*
X1664566D2*
X1754731D1*
X1848891D2*
X1862251D1*
X1927260D2*
X2376558D1*
X2464566D2*
X2554731D1*
X2675942D2*
X3162055D1*
X3279115D2*
X3348482D1*
X3529360D2*
X3964058D1*
X4052066D2*
X4154731D1*
X4316226D2*
X4764594D1*
X4852554D2*
X4955268D1*
X5135951D2*
X5555806D1*
X5672866D2*
X5752778D1*
X5850942D2*
X5866596D1*
X5931558D2*
X6079975D1*
X6162954D2*
X6314106D1*
X6402066D2*
X6511030D1*
X6605142D2*
X6670454D1*
X6753432D2*
X6917084D1*
X7005092D2*
X7114008D1*
X7208168D2*
X7248482D1*
X547866Y1052999D2*
X829878D1*
X1034682D2*
X1053608D1*
X1146596D2*
X1161567D1*
X1348306D2*
X1562055D1*
X1679115D2*
X1779634D1*
X1824038D2*
X1862251D1*
X1927260D2*
X2362055D1*
X2479115D2*
X2561226D1*
X2651088D2*
X3162055D1*
X3279115D2*
X3373383D1*
X3525356D2*
X3949458D1*
X4066518D2*
X4179634D1*
X4291371D2*
X4749946D1*
X4867007D2*
X4980122D1*
X5113930D2*
X5555854D1*
X5672866D2*
X5777631D1*
X5826088D2*
X5866596D1*
X5931558D2*
X6079975D1*
X6162954D2*
X6299654D1*
X6416714D2*
X6535883D1*
X6580287D2*
X6670454D1*
X6753432D2*
X6902534D1*
X7019594D2*
X7138862D1*
X7183266D2*
X7248482D1*
X547866Y1028130D2*
X829780D1*
X1034682D2*
X1053608D1*
X1146596D2*
X1167378D1*
X1348306D2*
X1562055D1*
X1679115D2*
X1862251D1*
X1976528D2*
X2362055D1*
X2479115D2*
X2536371D1*
X2659780D2*
X3162055D1*
X3279115D2*
X3412055D1*
X3554604D2*
X3949458D1*
X4066518D2*
X4176655D1*
X4316762D2*
X4749946D1*
X4867007D2*
X4999214D1*
X5119399D2*
X5555854D1*
X5672866D2*
X5850531D1*
X5931362D2*
X6079975D1*
X6162954D2*
X6299654D1*
X6416714D2*
X6670454D1*
X6753432D2*
X6902534D1*
X7019594D2*
X7248482D1*
X547866Y1003261D2*
X842378D1*
X1034682D2*
X1043315D1*
X1348306D2*
X1562055D1*
X1679115D2*
X1850287D1*
X5915492D2*
X6079975D1*
X6162954D2*
X6299654D1*
X6416714D2*
X6670454D1*
X6753432D2*
X6902534D1*
X7019594D2*
X7248482D1*
X428726Y978392D2*
X442798D1*
X535806D2*
X842818D1*
X1034682D2*
X1043315D1*
X1348306D2*
X1408198D1*
X7019594D2*
X7248482D1*
X428726Y953524D2*
X442798D1*
X535806D2*
X842818D1*
X1034682D2*
X1043315D1*
X1348306D2*
X1378168D1*
X7019594D2*
X7248482D1*
X428726Y928655D2*
X442798D1*
X537856D2*
X628462D1*
X1034682D2*
X1043315D1*
X1348306D2*
X1358440D1*
X7019594D2*
X7248482D1*
X428726Y903786D2*
X443676D1*
X562710D2*
X625630D1*
X1034682D2*
X1043315D1*
X1160366D2*
X1174555D1*
X7019594D2*
X7248482D1*
X428726Y878917D2*
X458150D1*
X1034682D2*
X1043315D1*
X1160366D2*
X1174555D1*
X1448306D2*
X2146576D1*
X6966909D2*
X7248482D1*
X428726Y854049D2*
X474799D1*
X920474D2*
X941694D1*
X1160366D2*
X1174555D1*
X1448306D2*
X2121772D1*
X2211587D2*
X2595454D1*
X3871987D2*
X3974360D1*
X6974819D2*
X7118843D1*
X7225014D2*
X7248482D1*
X428726Y829180D2*
X474799D1*
X680483D2*
X733979D1*
X919643D2*
X943744D1*
X1148159D2*
X1186762D1*
X1448306D2*
X1478119D1*
X1649722D2*
X2114106D1*
X2186684D2*
X2570600D1*
X3893130D2*
X3949458D1*
X6966518D2*
X7099898D1*
X428726Y804311D2*
X474799D1*
X655580D2*
X715522D1*
X938100D2*
X961664D1*
X1146547D2*
X1188325D1*
X1448306D2*
X1458091D1*
X1687172D2*
X2114106D1*
X2179067D2*
X2545747D1*
X3363832D2*
X3439692D1*
X5168130D2*
X7092573D1*
X428726Y779442D2*
X474799D1*
X948794D2*
X986518D1*
X1141274D2*
X1193647D1*
X1712075D2*
X2114106D1*
X2179067D2*
X2302094D1*
X2669399D2*
X3022846D1*
X3388735D2*
X3439692D1*
X4087514D2*
X4198823D1*
X4828482D2*
X5012836D1*
X5998990D2*
X6189986D1*
X6857241D2*
X7093647D1*
X428726Y754573D2*
X474799D1*
X953676D2*
X1011420D1*
X1446010D2*
X1461714D1*
X1736928D2*
X2114106D1*
X2179067D2*
X2267768D1*
X2644496D2*
X3002534D1*
X3407875D2*
X3439692D1*
X4062612D2*
X4174115D1*
X4853335D2*
X4987836D1*
X6023940D2*
X6165034D1*
X6882241D2*
X7103364D1*
X7240444D2*
X7248467D1*
X428726Y729705D2*
X474799D1*
X953530D2*
X962055D1*
X1464322D2*
X1492866D1*
X1761782D2*
X1906294D1*
X1984878D2*
X2006294D1*
X2084878D2*
X2106294D1*
X2184878D2*
X2206294D1*
X2684878D2*
X2706294D1*
X2784878D2*
X2806294D1*
X2884878D2*
X2906294D1*
X2984878D2*
X2999067D1*
X4037759D2*
X4165327D1*
X4878238D2*
X4940474D1*
X6048843D2*
X6140131D1*
X6907094D2*
X7127778D1*
X7216079D2*
X7248482D1*
X428726Y704836D2*
X474799D1*
X1489175D2*
X1657222D1*
X1786684D2*
X1889790D1*
X3204115D2*
X3219715D1*
X3636490D2*
X3652290D1*
X4417251D2*
X4794867D1*
X5192251D2*
X5650971D1*
X5742690D2*
X5847846D1*
X5939566D2*
X5965474D1*
X6223500D2*
X6509272D1*
X6600991D2*
X6706098D1*
X6797818D2*
X6823726D1*
X6994692D2*
X7248482D1*
X428726Y679967D2*
X474799D1*
X603627D2*
X716402D1*
X1360366D2*
X1384614D1*
X1514028D2*
X1682075D1*
X1811538D2*
X1887543D1*
X3204115D2*
X3230318D1*
X3626919D2*
X3643403D1*
X3789028D2*
X3800776D1*
X5603335D2*
X5630268D1*
X5763442D2*
X5827094D1*
X5960268D2*
X5990327D1*
X6198647D2*
X6488520D1*
X6621694D2*
X6685395D1*
X6818570D2*
X6848579D1*
X7015395D2*
X7248482D1*
X428726Y655098D2*
X735444D1*
X1359634D2*
X1409467D1*
X1836391D2*
X1897310D1*
X3204115D2*
X3230318D1*
X3789028D2*
X3824507D1*
X5770718D2*
X5819819D1*
X5967592D2*
X6015180D1*
X6173794D2*
X6481244D1*
X6629018D2*
X6678071D1*
X6825844D2*
X6873482D1*
X7022719D2*
X7248482D1*
X428726Y630230D2*
X770356D1*
X883266D2*
X894430D1*
X1358022D2*
X1434322D1*
X1861244D2*
X1906879D1*
X1984243D2*
X2006879D1*
X2084243D2*
X2106879D1*
X2184243D2*
X2206879D1*
X2284243D2*
X2306879D1*
X2384243D2*
X2406879D1*
X2684243D2*
X2706879D1*
X2784243D2*
X2806879D1*
X2884243D2*
X2906879D1*
X2984243D2*
X3006879D1*
X3184243D2*
X3230318D1*
X3789028D2*
X3850092D1*
X5771108D2*
X5819428D1*
X5967983D2*
X6016255D1*
X6164810D2*
X6480854D1*
X6629409D2*
X6677680D1*
X6826235D2*
X6874555D1*
X7023110D2*
X7248482D1*
X428726Y605361D2*
X466743D1*
X563638D2*
X765131D1*
X1342642D2*
X1453657D1*
X3201138D2*
X3230318D1*
X3779214D2*
X3918062D1*
X4011440D2*
X4110199D1*
X4378286D2*
X4885199D1*
X5153286D2*
X5569867D1*
X5769594D2*
X5820942D1*
X5966470D2*
X6017818D1*
X6163295D2*
X6482367D1*
X6627846D2*
X6678559D1*
X6824722D2*
X6876070D1*
X7021547D2*
X7113227D1*
X7210562D2*
X7248482D1*
X595034Y580492D2*
X736030D1*
X1300795D2*
X1467084D1*
X3203676D2*
X3230318D1*
X3323306D2*
X3449555D1*
X3634047D2*
X3662154D1*
X3779214D2*
X3910004D1*
X4367787D2*
X4415230D1*
X4488198D2*
X4815375D1*
X5142787D2*
X5190230D1*
X5263198D2*
X5569867D1*
X5759243D2*
X5831343D1*
X5956070D2*
X6028168D1*
X6152944D2*
X6492768D1*
X6617495D2*
X6653657D1*
X6814322D2*
X6886470D1*
X7011196D2*
X7081978D1*
X610463Y555623D2*
X720160D1*
X1106362D2*
X1718940D1*
X3194203D2*
X3230268D1*
X3323306D2*
X3449555D1*
X3628823D2*
X3662154D1*
X3779214D2*
X3914839D1*
X4149478D2*
X4379096D1*
X4524331D2*
X4779194D1*
X4924478D2*
X5154096D1*
X5299331D2*
X5570795D1*
X6786050D2*
X6914741D1*
X6982875D2*
X7066547D1*
X617690Y530755D2*
X711762D1*
X1080727D2*
X1743794D1*
X3092055D2*
X3205415D1*
X3322818D2*
X3449555D1*
X3566615D2*
X3662154D1*
X3779214D2*
X3914839D1*
X4165591D2*
X4362934D1*
X4540492D2*
X4763080D1*
X4940591D2*
X5137934D1*
X5315492D2*
X5589692D1*
X6693814D2*
X7059370D1*
X618471Y505886D2*
X709223D1*
X944399D2*
X1768647D1*
X3087710D2*
X3180512D1*
X3309975D2*
X3449555D1*
X4172768D2*
X4355756D1*
X4547671D2*
X4755903D1*
X4947768D2*
X5130756D1*
X5322671D2*
X5622211D1*
X5885659D2*
X5905707D1*
X6661244D2*
X7058588D1*
X612954Y481017D2*
X712154D1*
X941518D2*
X1793550D1*
X3285122D2*
X3449555D1*
X3966226D2*
X3980591D1*
X4173062D2*
X4355512D1*
X4547963D2*
X4755610D1*
X4948062D2*
X5130512D1*
X5322963D2*
X7064155D1*
X599916Y456148D2*
X720942D1*
X932730D2*
X1818403D1*
X3260268D2*
X3449555D1*
X3941323D2*
X3987154D1*
X4166518D2*
X4362055D1*
X4541371D2*
X4762154D1*
X4941518D2*
X5137055D1*
X5316371D2*
X7077241D1*
X429262Y431280D2*
X456098D1*
X574282D2*
X737398D1*
X916274D2*
X1843256D1*
X3235366D2*
X3449555D1*
X3566615D2*
X3662154D1*
X3779214D2*
X4002387D1*
X4151283D2*
X4377290D1*
X4526186D2*
X4777387D1*
X4926283D2*
X5152290D1*
X5301186D2*
X7102924D1*
X7220815D2*
X7247944D1*
X886886Y1231520D2*
X966756D1*
Y1191920D1*
X973877Y1188402D1*
X979463Y1184344D1*
X1019302Y1144697D1*
X1023786Y1139446D1*
X1027394Y1133559D1*
X1030035Y1127181D1*
X1031647Y1120467D1*
X1032189Y1113584D1*
Y860703D1*
X1045783Y847151D1*
X1045794Y1014541D1*
X1056097D1*
X1056098Y1070214D1*
X1053913Y1070252D1*
Y1231520D1*
X1146283D1*
Y1070252D1*
X1144087D1*
X1144098Y1014509D1*
X1157849Y1014541D1*
Y1006484D1*
X1177066Y1006450D1*
X1177045Y1014541D1*
X1181293D1*
X1174613Y1021375D1*
X1170555Y1026962D1*
X1167420Y1033113D1*
X1165286Y1039680D1*
X1164206Y1046499D1*
X1164071Y1137451D1*
Y1173438D1*
X1152043Y1173484D1*
Y1264256D1*
X1113295Y1264387D1*
X1106476Y1265467D1*
X1103139Y1266409D1*
X1096087Y1267102D1*
X897112D1*
X893668Y1261589D1*
X889184Y1256339D1*
X842896Y1210243D1*
X837310Y1206185D1*
X831159Y1203050D1*
X824592Y1200916D1*
X817773Y1199836D1*
X726820Y1199701D1*
X685869Y1199836D1*
X679050Y1200916D1*
X672483Y1203050D1*
X666332Y1206185D1*
X660745Y1210243D1*
X601827Y1268970D1*
X593049Y1270341D1*
X584702Y1273051D1*
X662883Y1194865D1*
X874373Y1194886D1*
X874386Y1231520D1*
X886886D1*
X944148Y1070252D2*
X934285D1*
X938722Y1061697D1*
X941438Y1053335D1*
X942814Y1044652D1*
Y1035860D1*
X941438Y1027177D1*
X938722Y1018815D1*
X934731Y1010982D1*
X933327Y1008881D1*
X933185Y883999D1*
X932105Y877180D1*
X929971Y870613D1*
X926836Y864462D1*
X922778Y858875D1*
X917896Y853993D1*
X912310Y849936D1*
X906159Y846801D1*
X899579Y844664D1*
X907953Y837891D1*
X915156Y831234D1*
X921814Y824030D1*
X927887Y816327D1*
X933336Y808171D1*
X938130Y799613D1*
X942236Y790705D1*
X945631Y781501D1*
X948294Y772060D1*
X950207Y762440D1*
X951361Y752699D1*
X951745Y742898D1*
X951361Y733096D1*
X949886Y721739D1*
X959613Y727327D1*
X967819Y731110D1*
X976297Y734238D1*
X984993Y736690D1*
X993857Y738453D1*
X1002831Y739516D1*
X1011860Y739870D1*
X1020888Y739516D1*
X1030105Y738406D1*
X954731Y813944D1*
X950673Y819530D1*
X947538Y825681D1*
X945404Y832248D1*
X944324Y839067D1*
X944189Y930020D1*
Y1070205D1*
X874386Y1094812D2*
Y1106921D1*
X641184Y1107021D1*
X634365Y1108101D1*
X627798Y1110235D1*
X621647Y1113370D1*
X616060Y1117428D1*
X551652Y1181644D1*
X481045Y1252252D1*
X481071Y1182906D1*
X522780Y1141026D1*
X526837Y1135440D1*
X529972Y1129289D1*
X532106Y1122722D1*
X533186Y1115903D1*
X533322Y1096287D1*
X545349Y1096283D1*
Y984228D1*
X533289D1*
X533322Y930636D1*
X570337Y893660D1*
X577282Y893079D1*
X601148D1*
Y879064D1*
X603424Y879083D1*
X630966Y906626D1*
X630980Y952533D1*
X809965D1*
Y940472D1*
X845325Y940505D1*
X845320Y1002735D1*
X839188Y1010982D1*
X835197Y1018815D1*
X832480Y1027177D1*
X831105Y1035860D1*
Y1044652D1*
X832480Y1053335D1*
X835197Y1061697D1*
X839188Y1069530D1*
X844356Y1076643D1*
X850572Y1082860D1*
X857685Y1088028D1*
X865518Y1092018D1*
X874403Y1094840D1*
X887083Y1562228D2*
X1146087D1*
Y1352219D1*
X1173340Y1352252D1*
X1178797Y1356024D1*
X1186630Y1360014D1*
X1194992Y1362731D1*
X1203675Y1364106D1*
X1212467D1*
X1221150Y1362731D1*
X1227819Y1360639D1*
X1220835Y1373070D1*
X1216042Y1378497D1*
X1213049Y1383381D1*
X1210857Y1388672D1*
X1209520Y1394241D1*
X1209071Y1399951D1*
X1209184Y1552814D1*
X1210079Y1558471D1*
X1211849Y1563919D1*
X1214449Y1569021D1*
X1217816Y1573655D1*
X1240617Y1596455D1*
X1245251Y1599823D1*
X1250353Y1602423D1*
X1255801Y1604193D1*
X1261458Y1605088D1*
X1325797Y1605201D1*
X1325806Y1620791D1*
X1437861D1*
Y1605215D1*
X2125828Y1605201D1*
X2125806Y1620791D1*
X2237861D1*
Y1605215D1*
X2908054Y1605201D1*
X2908043Y1620791D1*
X3020098D1*
Y1605215D1*
X3725839Y1605201D1*
X3725803Y1620791D1*
X3837858D1*
Y1605215D1*
X4525825Y1605201D1*
X4525793Y1624041D1*
X4637848D1*
Y1608465D1*
X5325815Y1608450D1*
X5325856Y1618791D1*
X5437911D1*
Y1603215D1*
X6082030Y1603201D1*
X6082068Y1620791D1*
X6194123D1*
Y1605215D1*
X6629934Y1605088D1*
X6635592Y1604193D1*
X6641039Y1602423D1*
X6646142Y1599822D1*
X6650776Y1596455D1*
X6726940Y1520450D1*
X6729004Y1531861D1*
Y1536042D1*
X6841059D1*
X6841302Y1529448D1*
X6846755Y1532226D1*
X6852575Y1534117D1*
X6858619Y1535073D1*
X6874033Y1535194D1*
X6874043Y1555978D1*
X6986098D1*
Y1443923D1*
X6964761D1*
X6969689Y1439568D1*
X6975398Y1432882D1*
X6979992Y1425386D1*
X6983356Y1417264D1*
X6985408Y1408715D1*
X6986098Y1399950D1*
X6985408Y1391185D1*
X6983356Y1382636D1*
X6979992Y1374514D1*
X6975398Y1367018D1*
X6969689Y1360332D1*
X6963003Y1354623D1*
X6955507Y1350029D1*
X6947385Y1346665D1*
X6940100Y1344864D1*
X6990726Y1294049D1*
X6994323Y1289098D1*
X6997101Y1283646D1*
X6998992Y1277825D1*
X6999949Y1271781D1*
X7000070Y1258320D1*
X7017097Y1258291D1*
Y1247696D1*
X7126450Y1247701D1*
X7132825Y1252294D1*
X7140383Y1256144D1*
X7148451Y1258766D1*
X7156829Y1260093D1*
X7165312D1*
X7173690Y1258766D1*
X7179566Y1256954D1*
X7179571Y1375639D1*
X7176786Y1382636D1*
X7174734Y1391185D1*
X7174043Y1399950D1*
X7174734Y1408715D1*
X7176786Y1417264D1*
X7180150Y1425386D1*
X7184744Y1432882D1*
X7190453Y1439568D1*
X7197139Y1445277D1*
X7204807Y1449950D1*
X7197139Y1454623D1*
X7190453Y1460332D1*
X7184744Y1467018D1*
X7180150Y1474514D1*
X7176786Y1482636D1*
X7174734Y1491185D1*
X7174043Y1499950D1*
X7174734Y1508715D1*
X7176786Y1517264D1*
X7180150Y1525386D1*
X7184744Y1532882D1*
X7190453Y1539568D1*
X7196072Y1544437D1*
X7196071Y1596190D1*
X7028571Y1596201D1*
Y1640196D1*
X636902Y1640182D1*
Y3117087D1*
X568810Y3117106D1*
X575290Y3111189D1*
X585604Y3099112D1*
X593903Y3085570D1*
X599980Y3070896D1*
X603688Y3055453D1*
X604934Y3039619D1*
X603688Y3023786D1*
X599980Y3008343D1*
X593903Y2993669D1*
X585604Y2980127D1*
X575290Y2968050D1*
X563213Y2957736D1*
X549671Y2949437D1*
X534997Y2943360D1*
X519554Y2939652D1*
X503720Y2938406D1*
X487887Y2939652D1*
X472444Y2943360D1*
X457770Y2949437D1*
X444228Y2957736D1*
X432151Y2968050D1*
X426199Y2974593D1*
X426201Y1424013D1*
X441995Y1439659D1*
X447581Y1443717D1*
X453732Y1446852D1*
X460299Y1448986D1*
X467118Y1450066D1*
X558071Y1450201D1*
X709580Y1450066D1*
X716399Y1448986D1*
X722966Y1446852D1*
X729117Y1443717D1*
X734703Y1439659D1*
X739585Y1434777D1*
X743643Y1429190D1*
X746778Y1423039D1*
X748912Y1416472D1*
X749992Y1409654D1*
X750127Y1359472D1*
X753899Y1354094D1*
X757890Y1346261D1*
X760606Y1337899D1*
X761982Y1329217D1*
Y1320424D1*
X760606Y1311741D1*
X757890Y1303379D1*
X753899Y1295546D1*
X748043Y1287689D1*
X796109Y1287701D1*
X814039Y1305646D1*
X814206Y1378404D1*
X815286Y1385223D1*
X817420Y1391790D1*
X820555Y1397941D1*
X824613Y1403528D1*
X848244Y1427159D1*
X853831Y1431217D1*
X859982Y1434352D1*
X866549Y1436486D1*
X873382Y1437566D1*
X874583Y1442102D1*
Y1562228D1*
X887083D1*
X705815Y840478D2*
X689311D1*
X650224Y801625D1*
X644638Y797567D1*
X638486Y794432D1*
X631920Y792298D1*
X625100Y791218D1*
X601189Y791083D1*
X607266Y786898D1*
X709854D1*
X715510Y799613D1*
X720304Y808171D1*
X725753Y816327D1*
X731827Y824030D1*
X738484Y831234D1*
X748967Y840478D1*
X705783Y840526D1*
X1214098Y568693D2*
Y560556D1*
X1107365D1*
X1099369Y550047D1*
X1093235Y543412D1*
X1086600Y537278D1*
X1079504Y531684D1*
X1071990Y526663D1*
X1064106Y522248D1*
X1055900Y518465D1*
X1047423Y515337D1*
X1038726Y512885D1*
X1029862Y511122D1*
X1020888Y510059D1*
X1011860Y509705D1*
X1002831Y510059D1*
X993857Y511122D1*
X984993Y512885D1*
X976297Y515337D1*
X967819Y518465D1*
X959613Y522248D1*
X951730Y526663D1*
X944215Y531684D1*
X937924Y536644D1*
X940486Y524680D1*
X941549Y515706D1*
X941903Y506677D1*
X941549Y497648D1*
X940486Y488675D1*
X938723Y479811D1*
X936270Y471114D1*
X933143Y462636D1*
X929360Y454430D1*
X924945Y446547D1*
X919924Y439033D1*
X914329Y431937D1*
X909381Y426201D1*
X1850836D1*
X1702320Y574726D1*
X1645327Y574701D1*
X1645349Y562673D1*
X1533294D1*
Y567507D1*
X1523660Y564222D1*
X1514978Y562846D1*
X1506185D1*
X1497503Y564222D1*
X1489140Y566938D1*
X1481307Y570929D1*
X1474194Y576097D1*
X1467978Y582314D1*
X1462810Y589427D1*
X1458819Y597260D1*
X1456102Y605622D1*
X1454991Y612070D1*
X1386073Y680983D1*
X1358058Y680951D1*
X1357848Y668924D1*
X1353014D1*
X1356299Y659290D1*
X1357675Y650608D1*
Y641815D1*
X1356299Y633133D1*
X1353583Y624770D1*
X1349592Y616937D1*
X1344424Y609824D1*
X1338207Y603608D1*
X1331094Y598440D1*
X1323261Y594449D1*
X1314899Y591732D1*
X1308451Y590621D1*
X1296832Y579189D1*
X1291247Y575131D1*
X1285094Y571996D1*
X1278528Y569864D1*
X1271709Y568783D1*
X1214106Y568647D1*
X1177092Y910360D2*
X1177045Y918416D1*
X1157828Y918450D1*
X1157849Y835556D1*
X1145789D1*
X1145280Y826316D1*
X1144070Y820699D1*
X1143940Y796636D1*
X1142903Y790089D1*
X1140853Y783783D1*
X1137844Y777877D1*
X1133938Y772504D1*
X1161524Y772211D1*
X1168343Y771131D1*
X1174909Y768997D1*
X1181060Y765862D1*
X1186647Y761804D1*
X1191529Y756923D1*
X1195593Y751324D1*
X1199812Y753919D1*
X1207209Y760549D1*
X1210093Y762474D1*
X1210996Y763929D1*
X1205633Y767825D1*
X1200945Y772513D1*
X1197049Y777877D1*
X1194038Y783783D1*
X1191990Y790089D1*
X1190953Y796636D1*
X1190823Y820899D1*
X1189206Y829748D1*
X1189071Y835593D1*
X1177045Y835556D1*
Y910312D1*
X445302Y984228D2*
X433294D1*
Y1096283D1*
X443304D1*
X426202Y1113344D1*
X426201Y563369D1*
X433307Y574681D1*
X443621Y586759D1*
X455698Y597072D1*
X469240Y605371D1*
X483913Y611449D1*
X499357Y615156D1*
X515190Y616403D1*
X531024Y615156D1*
X546467Y611449D1*
X561140Y605371D1*
X574682Y597072D1*
X586760Y586759D1*
X597073Y574681D1*
X605373Y561139D1*
X611450Y546466D1*
X615157Y531022D1*
X616404Y515189D1*
X615157Y499356D1*
X611450Y483912D1*
X605373Y469239D1*
X597073Y455697D1*
X586760Y443619D1*
X574682Y433306D1*
X563281Y426205D1*
X744585Y426201D1*
X739311Y431937D1*
X733717Y439033D1*
X728696Y446547D1*
X724281Y454430D1*
X720497Y462636D1*
X717370Y471114D1*
X714917Y479811D1*
X713155Y488675D1*
X712092Y497648D1*
X711738Y506677D1*
X712092Y515706D1*
X713155Y524680D1*
X714917Y533543D1*
X717370Y542240D1*
X720497Y550718D1*
X724281Y558924D1*
X728696Y566807D1*
X733717Y574322D1*
X739311Y581417D1*
X745445Y588052D1*
X752080Y594186D1*
X759176Y599781D1*
X766690Y604802D1*
X774573Y609217D1*
X782780Y613000D1*
X791257Y616127D1*
X805806Y619744D1*
X797657Y621424D1*
X788217Y624087D1*
X779013Y627482D1*
X770105Y631588D1*
X761547Y636382D1*
X753391Y641831D1*
X745688Y647904D1*
X738484Y654562D1*
X731827Y661765D1*
X725753Y669469D1*
X720304Y677625D1*
X715510Y686182D1*
X710012Y698865D1*
X601185Y698898D1*
X601148Y666850D1*
X477282D1*
Y862291D1*
X455864Y883875D1*
X451806Y889462D1*
X448671Y895613D1*
X446537Y902180D1*
X445457Y908999D1*
X445322Y984180D1*
X847835Y619744D2*
X862383Y616127D1*
X870861Y613000D1*
X879067Y609217D1*
X886950Y604802D1*
X894465Y599781D1*
X900756Y594820D1*
X898194Y606785D1*
X897131Y615759D1*
X896777Y624787D1*
X897883Y640161D1*
X883535Y631588D1*
X874627Y627482D1*
X865424Y624087D1*
X855983Y621424D1*
X847904Y619818D1*
X1545794Y674728D2*
X1645349D1*
Y662668D1*
X1701870Y662701D1*
X1637482Y727066D1*
X1535164Y727043D1*
Y731877D1*
X1525530Y728592D1*
X1516848Y727217D1*
X1508055D1*
X1499373Y728592D1*
X1491010Y731308D1*
X1483177Y735299D1*
X1476064Y740467D1*
X1469848Y746684D1*
X1464680Y753797D1*
X1460689Y761630D1*
X1457972Y769992D1*
X1456597Y778675D1*
Y787467D1*
X1457972Y796150D1*
X1460689Y804512D1*
X1464680Y812345D1*
X1469848Y819458D1*
X1476064Y825675D1*
X1483177Y830843D1*
X1491010Y834833D1*
X1499373Y837550D1*
X1508055Y838925D1*
X1516848D1*
X1525530Y837550D1*
X1533892Y834833D1*
X1535156Y834251D1*
X1535164Y839098D1*
X1647219D1*
Y826940D1*
X1653974Y825856D1*
X1660541Y823722D1*
X1666692Y820587D1*
X1672278Y816529D1*
X1736686Y752312D1*
X1890642Y598357D1*
X1892286Y604765D1*
X1895650Y612887D1*
X1900244Y620383D1*
X1905953Y627070D1*
X1912639Y632778D1*
X1920307Y637451D1*
X1912639Y642125D1*
X1905953Y647833D1*
X1900244Y654520D1*
X1895650Y662016D1*
X1892286Y670138D1*
X1890234Y678686D1*
X1889543Y687451D1*
X1890234Y696217D1*
X1892286Y704765D1*
X1895650Y712887D1*
X1900244Y720383D1*
X1905953Y727070D1*
X1912639Y732778D1*
X1920135Y737373D1*
X1928257Y740736D1*
X1936806Y742789D1*
X1945571Y743479D1*
X1954336Y742789D1*
X1962885Y740736D1*
X1971007Y737373D1*
X1978503Y732778D1*
X1985189Y727070D1*
X1990898Y720383D1*
X1995571Y712715D1*
X2000244Y720383D1*
X2005953Y727070D1*
X2012639Y732778D1*
X2020135Y737373D1*
X2028257Y740736D1*
X2036806Y742789D1*
X2045571Y743479D1*
X2054336Y742789D1*
X2062885Y740736D1*
X2071007Y737373D1*
X2078503Y732778D1*
X2085189Y727070D1*
X2090898Y720383D1*
X2095571Y712715D1*
X2100244Y720383D1*
X2105953Y727070D1*
X2112639Y732778D1*
X2116581Y735382D1*
X2116680Y836344D1*
X2118056Y843260D1*
X2121009Y849664D1*
X2125374Y855203D1*
X2163596Y893424D1*
X1676576Y893450D1*
X1676598Y885360D1*
X1564543D1*
Y893416D1*
X1445815Y893450D1*
X1445685Y765248D1*
X1444605Y758429D1*
X1442466Y751850D1*
X1444282Y747226D1*
X1517168Y674340D1*
X1523660Y673180D1*
X1532022Y670463D1*
X1533286Y669881D1*
X1533294Y674728D1*
X1545794D1*
X1264098Y1193009D2*
Y1173484D1*
X1252038D1*
X1252071Y1068135D1*
X1257820Y1062451D1*
X1257955Y1140902D1*
X1259035Y1147720D1*
X1261169Y1154287D1*
X1264304Y1160438D1*
X1268362Y1166025D1*
X1295325Y1193178D1*
X1294266Y1197416D1*
X1286148D1*
Y1200297D1*
X1280892Y1196990D1*
X1275601Y1194798D1*
X1270031Y1193461D1*
X1264310Y1193012D1*
X1577043Y1258291D2*
X1676598D1*
Y1247696D1*
X1767202Y1247701D1*
X1773575Y1252294D1*
X1781133Y1256144D1*
X1789201Y1258766D1*
X1797579Y1260093D1*
X1806062D1*
X1814440Y1258766D1*
X1820315Y1256954D1*
X1820320Y1347364D1*
X1812203Y1354083D1*
X1806495Y1360769D1*
X1801900Y1368265D1*
X1798537Y1376387D1*
X1796484Y1384936D1*
X1795801Y1393546D1*
X1773026Y1370888D1*
X1767163Y1366971D1*
X1760547Y1364530D1*
X1753543Y1363701D1*
X1599100D1*
X1594425Y1357314D1*
X1588209Y1351097D1*
X1581096Y1345929D1*
X1573262Y1341938D1*
X1564900Y1339222D1*
X1556218Y1337846D1*
X1547425D1*
X1538743Y1339222D1*
X1530381Y1341938D1*
X1522547Y1345929D1*
X1515434Y1351097D1*
X1509218Y1357314D1*
X1504050Y1364427D1*
X1500059Y1372260D1*
X1497343Y1380622D1*
X1495967Y1389304D1*
Y1398097D1*
X1497343Y1406780D1*
X1500059Y1415142D1*
X1504050Y1422975D1*
X1509218Y1430088D1*
X1515434Y1436304D1*
X1517176Y1437677D1*
X1495794Y1437673D1*
Y1457350D1*
X1437904Y1457398D1*
X1437861Y1441807D1*
X1325806D1*
Y1532186D1*
X1282077Y1532201D1*
X1282071Y1415038D1*
X1292076Y1404906D1*
X1295444Y1400272D1*
X1298043Y1395169D1*
X1299814Y1389722D1*
X1300709Y1384064D1*
X1300822Y1289745D1*
X1372720Y1289786D1*
X1372762Y1327188D1*
X1480881D1*
Y1247744D1*
X1564566Y1247701D1*
X1564543Y1258291D1*
X1577043D1*
X1676598Y1164688D2*
Y1079307D1*
X1662097D1*
X1662071Y1064357D1*
X1676598Y1064344D1*
Y981482D1*
X1855971Y981450D1*
X1853669Y988432D1*
X1852633Y994979D1*
Y1001609D1*
X1853669Y1008156D1*
X1855719Y1014462D1*
X1858728Y1020369D1*
X1862625Y1025732D1*
X1864745Y1028025D1*
X1864751Y1103714D1*
X1863610Y1103470D1*
X1862457Y1098012D1*
X1859848Y1092354D1*
X1855986Y1087457D1*
X1817396Y1049329D1*
X1811962Y1046285D1*
X1805966Y1044594D1*
X1799741Y1044349D1*
X1793631Y1045564D1*
X1787974Y1048173D1*
X1783081Y1052029D1*
X1744949Y1090625D1*
X1741904Y1096059D1*
X1740214Y1102055D1*
X1739969Y1108280D1*
X1741184Y1114390D1*
X1743793Y1120047D1*
X1747648Y1124940D1*
X1779587Y1156877D1*
X1773575Y1160108D1*
X1767219Y1164694D1*
X1676576Y1164701D1*
X1579089Y1079307D2*
X1564543D1*
Y1164707D1*
X1480874Y1164699D1*
X1480881Y1160014D1*
X1476437D1*
X1479849Y1155936D1*
X1483312Y1150282D1*
X1485849Y1144157D1*
X1487398Y1137711D1*
X1487917Y1131102D1*
X1487398Y1124493D1*
X1485849Y1118047D1*
X1483312Y1111923D1*
X1479849Y1106269D1*
X1475543Y1101228D1*
X1470503Y1096923D1*
X1464849Y1093459D1*
X1458724Y1090923D1*
X1452278Y1089374D1*
X1445669Y1088854D1*
X1439060Y1089374D1*
X1432018Y1091142D1*
X1426822Y1090790D1*
X1415445D1*
X1409731Y1088971D1*
X1403184Y1087934D1*
X1396554D1*
X1390007Y1088971D1*
X1383701Y1091021D1*
X1377794Y1094030D1*
X1372430Y1097927D1*
X1367743Y1102614D1*
X1363846Y1107978D1*
X1360837Y1113885D1*
X1358787Y1120190D1*
X1357751Y1126738D1*
X1357661Y1131075D1*
X1345816Y1119220D1*
X1345820Y780954D1*
X1353475Y782580D1*
X1357790Y786896D1*
X1357955Y915903D1*
X1359035Y922722D1*
X1361169Y929289D1*
X1364304Y935440D1*
X1368362Y941026D1*
X1395707Y968563D1*
X1400958Y973047D1*
X1406845Y976655D1*
X1413223Y979297D1*
X1419937Y980908D1*
X1426820Y981450D1*
X1564564D1*
X1564543Y1064344D1*
X1579046D1*
X1579071Y1079294D1*
X2442618Y1258291D2*
X2476597D1*
Y1247696D1*
X2567201Y1247701D1*
X2573575Y1252294D1*
X2581133Y1256144D1*
X2589201Y1258766D1*
X2597579Y1260093D1*
X2606062D1*
X2614440Y1258766D1*
X2620315Y1256954D1*
X2620320Y1347364D1*
X2612203Y1354083D1*
X2606495Y1360769D1*
X2602312Y1367530D1*
X2596934Y1365169D1*
X2590018Y1363793D1*
X2399139Y1363701D1*
X2394425Y1357314D1*
X2388209Y1351097D1*
X2381096Y1345929D1*
X2373262Y1341938D1*
X2364900Y1339222D1*
X2362255Y1338696D1*
X2442636Y1258318D1*
X2364589Y1154110D2*
X2364542Y1164706D1*
X2305871Y1164699D1*
X2305879Y1160014D1*
X2197761D1*
Y1197367D1*
X2111147Y1197416D1*
Y1204789D1*
X2102878Y1206510D1*
X2097223Y1208852D1*
X2092005Y1212050D1*
X2087352Y1216024D1*
X1924765Y1378610D1*
X1924776Y1031823D1*
X1930682Y1034832D1*
X1936988Y1036882D1*
X1943535Y1037919D1*
X1950165D1*
X1956713Y1036882D1*
X1963018Y1034832D1*
X1968925Y1031823D1*
X1974289Y1027927D1*
X1978976Y1023239D1*
X1982873Y1017875D1*
X1985882Y1011969D1*
X1988181Y1004406D1*
X2364579Y1004409D1*
X2364543Y1064345D1*
X2379046D1*
X2379070Y1079295D1*
X2364542Y1079307D1*
Y1154063D1*
X2476597Y1164689D2*
Y1079307D1*
X2462096D1*
X2462071Y1064357D1*
X2476598Y1064345D1*
Y1004433D1*
X2515185Y1004462D1*
X2572948Y1062224D1*
X2546236Y1088991D1*
X2542776Y1094171D1*
X2540619Y1100014D1*
X2539887Y1106201D1*
X2540619Y1112387D1*
X2542776Y1118231D1*
X2546236Y1123411D1*
X2579585Y1156877D1*
X2573575Y1160108D1*
X2567219Y1164694D1*
X2476576Y1164701D1*
X3177043Y1252042D2*
X3180706D1*
X3149041Y1283731D1*
X3118379Y1283438D1*
Y1241495D1*
X3164564Y1241450D1*
X3164543Y1252042D1*
X3177043D1*
X3259612D2*
X3276598D1*
Y1241446D1*
X3367202Y1241451D1*
X3373575Y1246045D1*
X3381133Y1249895D1*
X3389201Y1252517D1*
X3397579Y1253844D1*
X3406062D1*
X3414440Y1252517D1*
X3420315Y1250705D1*
X3420320Y1347364D1*
X3412203Y1354083D1*
X3406495Y1360769D1*
X3402228Y1367680D1*
X3396541Y1365169D1*
X3389625Y1363793D1*
X3199135Y1363701D1*
X3194425Y1357314D1*
X3190038Y1352789D1*
X3219316Y1323764D1*
X3250227Y1292684D1*
X3253824Y1287734D1*
X3256602Y1282281D1*
X3258493Y1276461D1*
X3259450Y1270416D1*
X3259571Y1252072D1*
X3164591Y1147861D2*
X3164543Y1158457D1*
X3118373Y1158450D1*
X3118379Y1153765D1*
X3010261D1*
Y1191118D1*
X2923647Y1191167D1*
Y1198344D1*
X2905110Y1198471D1*
X2899066Y1199429D1*
X2893245Y1201320D1*
X2887793Y1204098D1*
X2882843Y1207696D1*
X2801043Y1289324D1*
X2740104Y1350264D1*
X2740013Y1154601D1*
X2738636Y1147685D1*
X2735684Y1141281D1*
X2731318Y1135743D1*
X2631501Y1035925D1*
X2639417Y1035429D1*
X2645864Y1033881D1*
X2651988Y1031344D1*
X2657642Y1027881D1*
X2662682Y1023575D1*
X2666988Y1018534D1*
X2670451Y1012881D1*
X2673394Y1005322D1*
X3164512Y1005328D1*
X3164543Y1064345D1*
X3179046D1*
X3176598Y1073058D1*
X3164543D1*
Y1147814D1*
X3276598Y1158440D2*
Y1073058D1*
X3262097D1*
X3264543Y1064345D1*
X3276598D1*
Y1005312D1*
X3391825Y1005381D1*
X3466850Y1080479D1*
Y1098008D1*
X3463610Y1097220D1*
X3462457Y1091762D1*
X3459848Y1086105D1*
X3455986Y1081207D1*
X3417396Y1043079D1*
X3411962Y1040035D1*
X3405966Y1038345D1*
X3399741Y1038100D1*
X3393631Y1039315D1*
X3387974Y1041924D1*
X3383081Y1045780D1*
X3344948Y1084375D1*
X3341904Y1089810D1*
X3340214Y1095806D1*
X3339969Y1102030D1*
X3341184Y1108140D1*
X3343793Y1113798D1*
X3347648Y1118690D1*
X3379585Y1150627D1*
X3373575Y1153858D1*
X3367219Y1158445D1*
X3276576Y1158451D1*
X4041152Y1258291D2*
X4064096D1*
Y1247696D1*
X4167199Y1247701D1*
X4173573Y1252294D1*
X4181131Y1256144D1*
X4189199Y1258766D1*
X4197577Y1260093D1*
X4206060D1*
X4214438Y1258766D1*
X4220314Y1256954D1*
X4220319Y1347364D1*
X4212201Y1354083D1*
X4206492Y1360769D1*
X4201898Y1368265D1*
X4201228Y1369717D1*
X4196822Y1366971D1*
X4190206Y1364530D1*
X4183202Y1363701D1*
X3999169D1*
X3994423Y1357314D1*
X3988206Y1351097D1*
X3981093Y1345929D1*
X3973260Y1341938D1*
X3964898Y1339222D1*
X3962151Y1338675D1*
X4037724Y1262929D1*
X4039627Y1260514D1*
X3952088Y1154110D2*
X3952041Y1164706D1*
X3905871Y1164701D1*
X3905878Y1160016D1*
X3797760D1*
Y1197369D1*
X3711146Y1197417D1*
Y1204594D1*
X3698860Y1204723D1*
X3692815Y1205680D1*
X3686995Y1207571D1*
X3681542Y1210349D1*
X3676592Y1213946D1*
X3594793Y1295575D1*
X3526879Y1363488D1*
X3526759Y1065625D1*
X3525382Y1058709D1*
X3522429Y1052304D1*
X3518064Y1046765D1*
X3516510Y1045213D1*
X3524719Y1044747D1*
X3531165Y1043198D1*
X3537290Y1040661D1*
X3542944Y1037198D1*
X3547984Y1032892D1*
X3552290Y1027852D1*
X3555753Y1022198D1*
X3558290Y1016073D1*
X3559839Y1009627D1*
X3560241Y1005983D1*
X3951932Y1005984D1*
X3951942Y1064444D1*
X3966542D1*
X3966568Y1079297D1*
X3952041Y1079307D1*
Y1154063D1*
X4064096Y1164689D2*
Y1079307D1*
X4049594D1*
X4049568Y1064454D1*
X4063997Y1064444D1*
Y1005996D1*
X4157049Y1006037D1*
X4195633Y1045000D1*
X4189789Y1047156D1*
X4184609Y1050617D1*
X4146235Y1088991D1*
X4142774Y1094171D1*
X4140618Y1100014D1*
X4139886Y1106201D1*
X4140618Y1112387D1*
X4142774Y1118231D1*
X4146235Y1123411D1*
X4179585Y1156877D1*
X4173573Y1160108D1*
X4167218Y1164694D1*
X4064075Y1164701D1*
X4765043Y1258291D2*
X4769584D1*
X4769571Y1271386D1*
X4748919Y1291991D1*
X4725101Y1291971D1*
X4725130Y1247745D1*
X4752566Y1247701D1*
X4752543Y1258291D1*
X4765043D1*
X4847612D2*
X4864598D1*
Y1247696D1*
X4967702Y1247701D1*
X4974076Y1252294D1*
X4981634Y1256144D1*
X4989702Y1258766D1*
X4998080Y1260093D1*
X5006563D1*
X5014941Y1258766D1*
X5020816Y1256954D1*
X5020822Y1350000D1*
X5015434Y1354097D1*
X5009218Y1360314D1*
X5004050Y1367427D1*
X5000059Y1375260D1*
X4997252Y1384076D1*
X4985070Y1372430D1*
X4978916Y1368984D1*
X4972129Y1367070D1*
X4967436Y1366701D1*
X4799125D1*
X4794425Y1360314D1*
X4792734Y1358484D1*
X4838227Y1312820D1*
X4841824Y1307870D1*
X4844602Y1302417D1*
X4846493Y1296597D1*
X4847450Y1290552D1*
X4847571Y1258244D1*
X4752591Y1154110D2*
X4752543Y1164706D1*
X4725123Y1164701D1*
X4725130Y1160016D1*
X4617012D1*
Y1197369D1*
X4530398Y1197417D1*
Y1204594D1*
X4498857Y1204723D1*
X4492812Y1205680D1*
X4486992Y1207571D1*
X4481539Y1210349D1*
X4476589Y1213946D1*
X4394790Y1295575D1*
X4326877Y1363488D1*
X4326759Y1101058D1*
X4325382Y1094142D1*
X4322429Y1087738D1*
X4318064Y1082198D1*
X4276987Y1040810D1*
X4283596Y1041329D1*
X4290205Y1040810D1*
X4296651Y1039261D1*
X4302776Y1036724D1*
X4308429Y1033261D1*
X4313470Y1028955D1*
X4317776Y1023915D1*
X4321239Y1018261D1*
X4323776Y1012136D1*
X4325444Y1004673D1*
X4752488Y1004672D1*
X4752445Y1064444D1*
X4767045D1*
X4767071Y1079297D1*
X4752543Y1079307D1*
Y1154063D1*
X4864598Y1164689D2*
Y1079307D1*
X4850097D1*
X4850071Y1064454D1*
X4864500Y1064444D1*
Y1004629D1*
X4978308Y1004724D1*
X5076037Y1102526D1*
Y1107654D1*
X5069026Y1104787D1*
X5064112Y1103470D1*
X5062958Y1098012D1*
X5060349Y1092354D1*
X5056487Y1087457D1*
X5017898Y1049328D1*
X5012463Y1046285D1*
X5006467Y1044594D1*
X5000243Y1044349D1*
X4994133Y1045564D1*
X4988475Y1048173D1*
X4983583Y1052029D1*
X4945449Y1090625D1*
X4942406Y1096059D1*
X4940715Y1102055D1*
X4940470Y1108280D1*
X4941685Y1114390D1*
X4944294Y1120047D1*
X4948150Y1124940D1*
X4980088Y1156877D1*
X4974076Y1160108D1*
X4967720Y1164694D1*
X4864577Y1164701D1*
X5647636Y1256291D2*
X5670385D1*
Y1245696D1*
X5767238Y1245701D1*
X5773612Y1250294D1*
X5781169Y1254144D1*
X5789238Y1256766D1*
X5797615Y1258093D1*
X5806098D1*
X5814476Y1256766D1*
X5820352Y1254954D1*
X5820357Y1345364D1*
X5812240Y1352083D1*
X5806531Y1358769D1*
X5801937Y1366265D1*
X5799602Y1371598D1*
X5794899Y1367430D1*
X5788745Y1363984D1*
X5781958Y1362070D1*
X5777265Y1361701D1*
X5599189D1*
X5594462Y1355314D1*
X5588245Y1349097D1*
X5581133Y1343929D1*
X5573299Y1339938D1*
X5567469Y1337934D1*
X5644013Y1261234D1*
X5645915Y1258819D1*
X5558377Y1152110D2*
X5558329Y1162706D1*
X5499660Y1162701D1*
X5499667Y1158016D1*
X5391549D1*
Y1195369D1*
X5304934Y1195417D1*
Y1202693D1*
X5297815Y1203680D1*
X5291995Y1205571D1*
X5286542Y1208349D1*
X5281592Y1211946D1*
X5199793Y1293575D1*
X5136022Y1357345D1*
X5135945Y1087672D1*
X5134568Y1080756D1*
X5131615Y1074352D1*
X5127251Y1068812D1*
X5099594Y1041157D1*
X5105802Y1037991D1*
X5111165Y1034094D1*
X5115853Y1029407D1*
X5119749Y1024043D1*
X5122759Y1018136D1*
X5124808Y1011831D1*
X5125864Y1004804D1*
X5558304Y1004803D1*
X5558331Y1064345D1*
X5572833D1*
X5572857Y1077343D1*
X5558329Y1077307D1*
Y1152063D1*
X5670385Y1162689D2*
Y1077307D1*
X5655883D1*
X5655858Y1064310D1*
X5670386Y1064345D1*
Y1004823D1*
X5829752Y1004856D1*
X5869081Y1044259D1*
Y1102999D1*
X5863647Y1101470D1*
X5862493Y1096012D1*
X5859885Y1090354D1*
X5856022Y1085457D1*
X5817433Y1047328D1*
X5811999Y1044285D1*
X5806003Y1042594D1*
X5799778Y1042349D1*
X5793668Y1043564D1*
X5788010Y1046173D1*
X5783118Y1050029D1*
X5744984Y1088625D1*
X5741941Y1094059D1*
X5740251Y1100055D1*
X5740005Y1106280D1*
X5741220Y1112390D1*
X5743829Y1118047D1*
X5747685Y1122940D1*
X5779622Y1154877D1*
X5773612Y1158108D1*
X5767256Y1162694D1*
X5670364Y1162701D1*
X6396929Y1258291D2*
X6414112D1*
Y1247696D1*
X6523465Y1247701D1*
X6529839Y1252294D1*
X6537396Y1256144D1*
X6545465Y1258766D1*
X6553843Y1260093D1*
X6562325D1*
X6570703Y1258766D1*
X6576579Y1256954D1*
X6576584Y1347364D1*
X6568466Y1354083D1*
X6562757Y1360769D1*
X6558163Y1368265D1*
X6554799Y1376387D1*
X6552747Y1384936D1*
X6552056Y1393701D1*
X6552747Y1402466D1*
X6553281Y1405357D1*
X6547180Y1405837D1*
X6541230Y1407265D1*
X6535575Y1409608D1*
X6530357Y1412806D1*
X6525703Y1416780D1*
X6470841Y1471643D1*
X6460131Y1471598D1*
X6453825Y1469549D1*
X6447278Y1468512D1*
X6440648D1*
X6434101Y1469549D1*
X6427795Y1471598D1*
X6421888Y1474608D1*
X6416525Y1478504D1*
X6411837Y1483192D1*
X6407941Y1488555D1*
X6404932Y1494462D1*
X6402882Y1500768D1*
X6401845Y1507315D1*
Y1513945D1*
X6402882Y1520492D1*
X6404932Y1526798D1*
X6407656Y1532196D1*
X6364131Y1532201D1*
X6364112Y1437673D1*
X6342774D1*
X6347702Y1433319D1*
X6353411Y1426633D1*
X6358005Y1419136D1*
X6361369Y1411014D1*
X6363421Y1402466D1*
X6364112Y1393701D1*
X6363421Y1384936D1*
X6361369Y1376387D1*
X6358005Y1368265D1*
X6353411Y1360769D1*
X6347702Y1354083D1*
X6341016Y1348374D1*
X6333520Y1343780D1*
X6327091Y1341039D1*
X6387740Y1280236D1*
X6391337Y1275286D1*
X6394115Y1269833D1*
X6396007Y1264013D1*
X6396605Y1260997D1*
X6302104Y1154110D2*
X6302056Y1164706D1*
X6262136Y1164701D1*
X6262142Y1160016D1*
X6160461D1*
X6160469Y981444D1*
X6302181Y981451D1*
X6302138Y1064345D1*
X6316542D1*
X6316584Y1079280D1*
X6302056Y1079307D1*
Y1154063D1*
Y1247714D2*
Y1255791D1*
X6262109Y1295728D1*
X6262142Y1247745D1*
X6302077Y1247701D1*
X6414112Y1164689D2*
Y1079307D1*
X6399610D1*
X6399584Y1064357D1*
X6414193Y1064345D1*
Y981483D1*
X6672961Y981451D1*
X6672955Y1197461D1*
X6657896Y1197417D1*
X6657950Y1297218D1*
X6655900Y1303524D1*
X6654864Y1310071D1*
Y1316701D1*
X6655900Y1323248D1*
X6657950Y1329554D1*
X6660959Y1335461D1*
X6664856Y1340824D1*
X6669543Y1345512D1*
X6674907Y1349408D1*
X6681726Y1352755D1*
X6660529Y1373950D1*
X6655856Y1364427D1*
X6650688Y1357314D1*
X6644471Y1351097D1*
X6639573Y1347409D1*
X6639860Y1199936D1*
X6646310Y1194427D1*
X6651819Y1187976D1*
X6656251Y1180743D1*
X6659497Y1172906D1*
X6661478Y1164657D1*
X6662143Y1156201D1*
X6661478Y1147744D1*
X6659497Y1139496D1*
X6656251Y1131659D1*
X6651819Y1124425D1*
X6646310Y1117975D1*
X6639860Y1112466D1*
X6632626Y1108034D1*
X6624789Y1104787D1*
X6619874Y1103470D1*
X6618720Y1098012D1*
X6616112Y1092354D1*
X6612249Y1087457D1*
X6573660Y1049328D1*
X6568226Y1046285D1*
X6562230Y1044594D1*
X6556005Y1044349D1*
X6549895Y1045564D1*
X6544238Y1048173D1*
X6539345Y1052029D1*
X6501211Y1090625D1*
X6498168Y1096059D1*
X6496478Y1102055D1*
X6496232Y1108280D1*
X6497448Y1114390D1*
X6500056Y1120047D1*
X6503912Y1124940D1*
X6535849Y1156877D1*
X6529839Y1160108D1*
X6523483Y1164694D1*
X6414091Y1164701D1*
X6905089Y1154110D2*
X6905042Y1164706D1*
X6852622Y1164701D1*
X6852629Y1160016D1*
X6750948D1*
X6750955Y981444D1*
X6905071Y981451D1*
X6905043Y1058094D1*
X6919546D1*
X6919570Y1079297D1*
X6905042Y1079307D1*
Y1154063D1*
Y1247713D2*
Y1258291D1*
X6916322D1*
X6867167Y1307469D1*
X6852621Y1307457D1*
X6852629Y1247745D1*
X6905064Y1247701D1*
X7017097Y1164689D2*
Y1079307D1*
X7002596D1*
X7002570Y1058106D1*
X7017098Y1058094D1*
Y879110D1*
X6964315D1*
X6967714Y873510D1*
X6970251Y867386D1*
X6971799Y860940D1*
X6972319Y854331D1*
X6971799Y847722D1*
X6970251Y841276D1*
X6967714Y835151D1*
X6964251Y829497D1*
X6959945Y824457D1*
X6954904Y820151D1*
X6949251Y816688D1*
X6943126Y814151D1*
X6936680Y812602D1*
X6930071Y812083D1*
X6923462Y812602D1*
X6917016Y814151D1*
X6910891Y816688D1*
X6905238Y820151D1*
X6900340Y824325D1*
X6368411Y824278D1*
X6355954Y812344D1*
X6349801Y808898D1*
X6343013Y806983D1*
X6338320Y806614D1*
X5167886Y806562D1*
X5156348Y795546D1*
X5150194Y792100D1*
X5143407Y790185D1*
X5138714Y789816D1*
X4810735D1*
X4817365Y786634D1*
X4821999Y783266D1*
X4875997Y729428D1*
X4942680Y729413D1*
X4948702Y734513D1*
X4955672Y738785D1*
X4963223Y741912D1*
X4971172Y743820D1*
X4980198Y744428D1*
X5015665Y779723D1*
X5020299Y783089D1*
X5025402Y785690D1*
X5030849Y787461D1*
X5036507Y788356D1*
X5176870Y788469D1*
X5975304Y788356D1*
X5980962Y787461D1*
X5986409Y785690D1*
X5991512Y783091D1*
X5996146Y779723D1*
X6062366Y713661D1*
X6073795Y717430D1*
X6084920Y719192D1*
X6096182D1*
X6107307Y717430D1*
X6118018Y713950D1*
X6124039Y711085D1*
X6192831Y779723D1*
X6197465Y783091D1*
X6202567Y785690D1*
X6208014Y787461D1*
X6213672Y788356D1*
X6354035Y788469D1*
X6833572Y788356D1*
X6839230Y787461D1*
X6844677Y785690D1*
X6849780Y783091D1*
X6854413Y779723D1*
X6920634Y713661D1*
X6932063Y717430D1*
X6943188Y719192D1*
X6954450D1*
X6965575Y717430D1*
X6976286Y713950D1*
X6986322Y708836D1*
X6995433Y702217D1*
X7003398Y694252D1*
X7010017Y685140D1*
X7015131Y675105D1*
X7018612Y664394D1*
X7020373Y653269D1*
X7020594Y620079D1*
X7019711Y608850D1*
X7017081Y597899D1*
X7012772Y587493D1*
X7006887Y577890D1*
X6999572Y569325D1*
X6991008Y562010D1*
X6981404Y556126D1*
X6970999Y551816D1*
X6960047Y549186D1*
X6948819Y548303D1*
X6937591Y549186D1*
X6926639Y551816D1*
X6916234Y556126D1*
X6906630Y562010D1*
X6898066Y569325D1*
X6890751Y577890D1*
X6884866Y587493D1*
X6880556Y597899D1*
X6877927Y608850D1*
X6877045Y620101D1*
X6877319Y653728D1*
X6815597Y715462D1*
X6775484Y715469D1*
X6784554Y711591D1*
X6794157Y705706D1*
X6802722Y698391D1*
X6810037Y689827D1*
X6815921Y680223D1*
X6820231Y669818D1*
X6822861Y658866D1*
X6823744Y647638D1*
X6823522Y614448D1*
X6821761Y603323D1*
X6818281Y592612D1*
X6813167Y582576D1*
X6806547Y573465D1*
X6798583Y565500D1*
X6789471Y558881D1*
X6779436Y553766D1*
X6768724Y550286D1*
X6757600Y548525D1*
X6746337D1*
X6735213Y550286D1*
X6724501Y553766D1*
X6717635Y557105D1*
X6673026Y512621D1*
X6667163Y508703D1*
X6660547Y506262D1*
X6653543Y505433D1*
X5911031Y505525D1*
X5904115Y506902D1*
X5897711Y509854D1*
X5895587Y511163D1*
X5889433Y507717D1*
X5882646Y505802D1*
X5877953Y505433D1*
X5627567Y505525D1*
X5620651Y506902D1*
X5614247Y509854D1*
X5608709Y514220D1*
X5579550Y543509D1*
X5575633Y549373D1*
X5573192Y555988D1*
X5572362Y562992D1*
Y623588D1*
X5150042Y623543D1*
X5151093Y616537D1*
Y608364D1*
X5149814Y600290D1*
X5147289Y592516D1*
X5143577Y585232D1*
X5138773Y578619D1*
X5132993Y572840D1*
X5126381Y568035D1*
X5119097Y564324D1*
X5111323Y561799D1*
X5103249Y560520D1*
X5095076D1*
X5087003Y561799D1*
X5079228Y564324D1*
X5071945Y568035D1*
X5065332Y572840D1*
X5059206Y579059D1*
X5053072Y572840D1*
X5046459Y568035D1*
X5039176Y564324D1*
X5031402Y561799D1*
X5023328Y560520D1*
X5015155D1*
X5007081Y561799D1*
X4999307Y564324D1*
X4992024Y568035D1*
X4985411Y572840D1*
X4979285Y579059D1*
X4973151Y572840D1*
X4966538Y568035D1*
X4959255Y564324D1*
X4951480Y561799D1*
X4943407Y560520D1*
X4935234D1*
X4927160Y561799D1*
X4919386Y564324D1*
X4912102Y568035D1*
X4905490Y572840D1*
X4899710Y578619D1*
X4894906Y585232D1*
X4891194Y592516D1*
X4888669Y600290D1*
X4887390Y608364D1*
Y616537D1*
X4888995Y625764D1*
X4374504Y625774D1*
X4376094Y616537D1*
Y608364D1*
X4374815Y600290D1*
X4372290Y592516D1*
X4368579Y585232D1*
X4363774Y578619D1*
X4357995Y572840D1*
X4351382Y568035D1*
X4344098Y564324D1*
X4336324Y561799D1*
X4328251Y560520D1*
X4320077D1*
X4312004Y561799D1*
X4304230Y564324D1*
X4296946Y568035D1*
X4290333Y572840D1*
X4284207Y579059D1*
X4278073Y572840D1*
X4271461Y568035D1*
X4264177Y564324D1*
X4256403Y561799D1*
X4248329Y560520D1*
X4240156D1*
X4232083Y561799D1*
X4224308Y564324D1*
X4217025Y568035D1*
X4210412Y572840D1*
X4204286Y579059D1*
X4198152Y572840D1*
X4191539Y568035D1*
X4184256Y564324D1*
X4176482Y561799D1*
X4168408Y560520D1*
X4160235D1*
X4152161Y561799D1*
X4144387Y564324D1*
X4137104Y568035D1*
X4130491Y572840D1*
X4124711Y578619D1*
X4119907Y585232D1*
X4116196Y592516D1*
X4113671Y600290D1*
X4112391Y608364D1*
Y616537D1*
X4113778Y624995D1*
X3983975Y624987D1*
X3990819Y621470D1*
X3997357Y616720D1*
X4024474Y589828D1*
X4029722Y583684D1*
X4034058Y576549D1*
X4047665Y582196D1*
X4062072Y585654D1*
X4076841Y586816D1*
X4091610Y585654D1*
X4106017Y582196D1*
X4119703Y576526D1*
X4132336Y568785D1*
X4143601Y559163D1*
X4153223Y547898D1*
X4160965Y535265D1*
X4166634Y521579D1*
X4170092Y507172D1*
X4171255Y492403D1*
X4170092Y477634D1*
X4166634Y463227D1*
X4160965Y449541D1*
X4153223Y436908D1*
X4144133Y426217D1*
X4384429Y426201D1*
X4375341Y436916D1*
X4367600Y449549D1*
X4361930Y463235D1*
X4358472Y477642D1*
X4357310Y492411D1*
X4358472Y507180D1*
X4361930Y521587D1*
X4367600Y535273D1*
X4375341Y547906D1*
X4384963Y559171D1*
X4396228Y568793D1*
X4408861Y576534D1*
X4422547Y582203D1*
X4436954Y585661D1*
X4451723Y586824D1*
X4466492Y585661D1*
X4480899Y582203D1*
X4494585Y576534D1*
X4507218Y568793D1*
X4518483Y559171D1*
X4528105Y547906D1*
X4535846Y535273D1*
X4541516Y521587D1*
X4544974Y507180D1*
X4546136Y492411D1*
X4544974Y477642D1*
X4541516Y463235D1*
X4535846Y449549D1*
X4528105Y436916D1*
X4518975Y426182D1*
X4784528Y426201D1*
X4775458Y436908D1*
X4767717Y449541D1*
X4762047Y463227D1*
X4758589Y477634D1*
X4757427Y492403D1*
X4758589Y507172D1*
X4762047Y521579D1*
X4767717Y535265D1*
X4775458Y547898D1*
X4785080Y559163D1*
X4796345Y568785D1*
X4808978Y576526D1*
X4822664Y582196D1*
X4837071Y585654D1*
X4851840Y586816D1*
X4866609Y585654D1*
X4881016Y582196D1*
X4894702Y576526D1*
X4907335Y568785D1*
X4918600Y559163D1*
X4928222Y547898D1*
X4935963Y535265D1*
X4941633Y521579D1*
X4945091Y507172D1*
X4946253Y492403D1*
X4945091Y477634D1*
X4941633Y463227D1*
X4935963Y449541D1*
X4928222Y436908D1*
X4919131Y426217D1*
X5159429Y426201D1*
X5150340Y436916D1*
X5142598Y449549D1*
X5136929Y463235D1*
X5133471Y477642D1*
X5132308Y492411D1*
X5133471Y507180D1*
X5136929Y521587D1*
X5142598Y535273D1*
X5150340Y547906D1*
X5159962Y559171D1*
X5171227Y568793D1*
X5183860Y576534D1*
X5197546Y582203D1*
X5211953Y585661D1*
X5226722Y586824D1*
X5241491Y585661D1*
X5255898Y582203D1*
X5269584Y576534D1*
X5282217Y568793D1*
X5293482Y559171D1*
X5303104Y547906D1*
X5310845Y535273D1*
X5316514Y521587D1*
X5319972Y507180D1*
X5321135Y492411D1*
X5319972Y477642D1*
X5316514Y463235D1*
X5310845Y449549D1*
X5303104Y436916D1*
X5293974Y426182D1*
X7113824Y426201D1*
X7102385Y433406D1*
X7090307Y443719D1*
X7079993Y455797D1*
X7071694Y469339D1*
X7065617Y484012D1*
X7061909Y499455D1*
X7060663Y515289D1*
X7061909Y531122D1*
X7065617Y546566D1*
X7071694Y561239D1*
X7079993Y574781D1*
X7090307Y586858D1*
X7102385Y597172D1*
X7115927Y605471D1*
X7130600Y611549D1*
X7146043Y615256D1*
X7161877Y616503D1*
X7177710Y615256D1*
X7193154Y611549D1*
X7207827Y605471D1*
X7221369Y597172D1*
X7233446Y586858D1*
X7243760Y574781D1*
X7250951Y563217D1*
X7250966Y1119685D1*
X7246180Y1115094D1*
X7239316Y1110108D1*
X7231759Y1106257D1*
X7222861Y1103470D1*
X7221707Y1098012D1*
X7219098Y1092354D1*
X7215236Y1087457D1*
X7176647Y1049329D1*
X7171213Y1046285D1*
X7165217Y1044594D1*
X7158992Y1044349D1*
X7152882Y1045564D1*
X7147224Y1048173D1*
X7142332Y1052029D1*
X7104199Y1090625D1*
X7101155Y1096059D1*
X7099465Y1102055D1*
X7099219Y1108280D1*
X7100434Y1114390D1*
X7103043Y1120047D1*
X7106899Y1124940D1*
X7138837Y1156877D1*
X7132825Y1160108D1*
X7126470Y1164694D1*
X7017077Y1164701D1*
X1607849Y1532198D2*
Y1437673D1*
X1586512D1*
X1591440Y1433319D1*
X1597148Y1426633D1*
X1599106Y1423703D1*
X1741169Y1423753D1*
X1785373Y1467825D1*
X1791236Y1471743D1*
X1797861Y1474186D1*
X1798537Y1476387D1*
X1796484Y1484936D1*
X1795794Y1493701D1*
X1796484Y1502466D1*
X1798537Y1511014D1*
X1801900Y1519136D1*
X1806495Y1526633D1*
X1811165Y1532196D1*
X1607858Y1532201D1*
X2407849Y1532198D2*
Y1437673D1*
X2386512D1*
X2391440Y1433319D1*
X2397148Y1426633D1*
X2399106Y1423703D1*
X2575290Y1423753D1*
X2608870Y1457201D1*
X2601900Y1468265D1*
X2598537Y1476387D1*
X2596484Y1484936D1*
X2595794Y1493701D1*
X2596484Y1502466D1*
X2598537Y1511014D1*
X2601900Y1519136D1*
X2606495Y1526633D1*
X2611165Y1532196D1*
X2407870Y1532201D1*
X2317077Y1437673D2*
X2295794D1*
Y1457350D1*
X2237904Y1457398D1*
X2237861Y1441807D1*
X2125806D1*
Y1532186D1*
X1997702Y1532201D1*
X2002155Y1524042D1*
X2004205Y1517736D1*
X2005241Y1511189D1*
Y1504559D1*
X2004205Y1498012D1*
X2001499Y1490282D1*
X2090180Y1401588D1*
X2286262Y1401478D1*
X2292307Y1400521D1*
X2295265Y1399685D1*
X2296484Y1402466D1*
X2298537Y1411014D1*
X2301900Y1419136D1*
X2306495Y1426633D1*
X2312203Y1433319D1*
X2317176Y1437677D1*
X2692478Y1532196D2*
X2697148Y1526633D1*
X2701743Y1519136D1*
X2705106Y1511014D1*
X2707159Y1502466D1*
X2707816Y1492860D1*
X2712996Y1490598D1*
X2714545Y1497045D1*
X2717081Y1503169D1*
X2720545Y1508823D1*
X2724850Y1513864D1*
X2730031Y1518262D1*
X2733016Y1523055D1*
X2736990Y1527709D1*
X2742409Y1532194D1*
X2692538Y1532201D1*
X3207849Y1532198D2*
Y1437673D1*
X3186512D1*
X3191440Y1433319D1*
X3197148Y1426633D1*
X3199106Y1423703D1*
X3374896Y1423753D1*
X3408836Y1457693D1*
X3404050Y1464427D1*
X3400059Y1472260D1*
X3397343Y1480622D1*
X3395967Y1489304D1*
Y1498097D1*
X3397343Y1506780D1*
X3400059Y1515142D1*
X3404050Y1522975D1*
X3409218Y1530088D1*
X3411165Y1532196D1*
X3207856Y1532201D1*
X3117077Y1437673D2*
X3095794D1*
Y1457350D1*
X3020130Y1457398D1*
X3020098Y1441807D1*
X2908043D1*
Y1532188D1*
X2815938Y1531920D1*
X2819402Y1526266D1*
X2821938Y1520142D1*
X2823487Y1513696D1*
X2824007Y1507087D1*
X2823487Y1500478D1*
X2822794Y1497062D1*
X2958182Y1361669D1*
X3105814Y1361703D1*
X3101900Y1368265D1*
X3098537Y1376387D1*
X3096484Y1384936D1*
X3095794Y1393701D1*
X3096484Y1402466D1*
X3098537Y1411014D1*
X3101900Y1419136D1*
X3106495Y1426633D1*
X3112203Y1433319D1*
X3117176Y1437677D1*
X4007846Y1532198D2*
Y1437673D1*
X3986509D1*
X3991437Y1433319D1*
X3997146Y1426633D1*
X3999104Y1423703D1*
X4170828Y1423753D1*
X4204139Y1456933D1*
X4205996Y1458396D1*
X4206492Y1460769D1*
X4201898Y1468265D1*
X4198534Y1476387D1*
X4196482Y1484936D1*
X4195791Y1493701D1*
X4196482Y1502466D1*
X4198534Y1511014D1*
X4201898Y1519136D1*
X4206492Y1526633D1*
X4211163Y1532196D1*
X4007819Y1532201D1*
X3917075Y1437673D2*
X3895791D1*
Y1457350D1*
X3837902Y1457398D1*
X3837858Y1441807D1*
X3725803D1*
Y1532186D1*
X3617329Y1532201D1*
X3619297Y1526135D1*
X3620333Y1519588D1*
Y1512958D1*
X3619297Y1506411D1*
X3618131Y1502500D1*
X3741098Y1379542D1*
X3897639Y1379551D1*
X3895965Y1389304D1*
Y1398097D1*
X3897340Y1406780D1*
X3900056Y1415142D1*
X3904047Y1422975D1*
X3909215Y1430088D1*
X3915432Y1436304D1*
X3917173Y1437677D1*
X4292475Y1532196D2*
X4297146Y1526633D1*
X4301740Y1519136D1*
X4305104Y1511014D1*
X4307156Y1502466D1*
X4307814Y1492860D1*
X4518079Y1282594D1*
X4530385Y1282602D1*
X4530398Y1289787D1*
X4616970D1*
X4615092Y1291971D1*
X4583554Y1292092D1*
X4577509Y1293049D1*
X4571689Y1294940D1*
X4566236Y1297718D1*
X4561286Y1301315D1*
X4479487Y1382944D1*
X4420274Y1442156D1*
X4412121Y1440030D1*
X4405512Y1439510D1*
X4398903Y1440030D1*
X4392457Y1441579D1*
X4386332Y1444115D1*
X4380678Y1447579D1*
X4375638Y1451885D1*
X4371332Y1456925D1*
X4367869Y1462579D1*
X4365332Y1468703D1*
X4363783Y1475150D1*
X4363264Y1481759D1*
X4363783Y1488367D1*
X4365332Y1494814D1*
X4367869Y1500938D1*
X4371332Y1506592D1*
X4375638Y1511633D1*
X4380678Y1515938D1*
X4385348Y1518850D1*
X4395745Y1529291D1*
X4397085Y1532198D1*
X4292487Y1532201D1*
X4807849Y1535492D2*
Y1440673D1*
X4786512D1*
X4791440Y1436319D1*
X4797148Y1429633D1*
X4799106Y1426703D1*
X4955062Y1426753D1*
X4994953Y1466513D1*
X5000824Y1470434D1*
X5001900Y1471265D1*
X4998537Y1479387D1*
X4996484Y1487936D1*
X4995794Y1496701D1*
X4996484Y1505466D1*
X4998537Y1514014D1*
X5001900Y1522136D1*
X5006495Y1529633D1*
X5011399Y1535448D1*
X4807835Y1535450D1*
X4717077Y1440673D2*
X4695794D1*
Y1460643D1*
X4637850Y1460647D1*
X4637848Y1445056D1*
X4527723D1*
X4602743Y1369997D1*
X4702581Y1369971D1*
X4698537Y1379387D1*
X4696484Y1387936D1*
X4695794Y1396701D1*
X4696484Y1405466D1*
X4698537Y1414014D1*
X4701900Y1422136D1*
X4706495Y1429633D1*
X4712203Y1436319D1*
X4717176Y1440677D1*
X5092244Y1535448D2*
X5097148Y1529633D1*
X5101743Y1522136D1*
X5105106Y1514014D1*
X5107159Y1505466D1*
X5107816Y1495860D1*
X5121280Y1482398D1*
X5122681Y1487990D1*
X5125218Y1494114D1*
X5128681Y1499768D1*
X5132987Y1504808D1*
X5138028Y1509114D1*
X5144845Y1513114D1*
X5150656Y1519289D1*
X5158471Y1524833D1*
X5162777Y1529874D1*
X5167818Y1534180D1*
X5169726Y1535454D1*
X5092307Y1535450D1*
X5607886Y1530198D2*
Y1435673D1*
X5586549D1*
X5591476Y1431319D1*
X5597185Y1424633D1*
X5599143Y1421703D1*
X5764891Y1421753D1*
X5801252Y1457983D1*
X5805068Y1460755D1*
X5800096Y1470260D1*
X5797379Y1478622D1*
X5796004Y1487304D1*
Y1496097D1*
X5797379Y1504780D1*
X5800096Y1513142D1*
X5804087Y1520975D1*
X5809255Y1528088D1*
X5811202Y1530196D1*
X5607871Y1530201D1*
X5517114Y1435673D2*
X5495831D1*
Y1455350D1*
X5437941Y1455398D1*
X5437911Y1439807D1*
X5325856D1*
Y1535459D1*
X5215647Y1535450D1*
X5222525Y1529874D1*
X5226831Y1524833D1*
X5230294Y1519180D1*
X5232831Y1513055D1*
X5234379Y1506609D1*
X5234899Y1500000D1*
X5234379Y1493391D1*
X5233052Y1487731D1*
X5341634Y1379138D1*
X5497286Y1379157D1*
X5496004Y1387304D1*
Y1396097D1*
X5497379Y1404780D1*
X5500096Y1413142D1*
X5504087Y1420975D1*
X5509255Y1428088D1*
X5515471Y1434304D1*
X5517213Y1435677D1*
X5892514Y1530196D2*
X5897185Y1524633D1*
X5900948Y1519278D1*
X5936890Y1483336D1*
X5936885Y1489667D1*
X5937921Y1496214D1*
X5939971Y1502520D1*
X5942980Y1508427D1*
X5946877Y1513790D1*
X5951564Y1518478D1*
X5956928Y1522374D1*
X5962188Y1525085D1*
X5965562Y1528504D1*
X5966348Y1530210D1*
X5892539Y1530201D1*
X5900948Y1519278D1*
X6273340Y1437673D2*
X6252056D1*
Y1457350D1*
X6194167Y1457398D1*
X6194123Y1441807D1*
X6102571D1*
X6164709Y1379685D1*
X6253879Y1379682D1*
X6252230Y1389304D1*
Y1398097D1*
X6253605Y1406780D1*
X6256322Y1415142D1*
X6260312Y1422975D1*
X6265480Y1430088D1*
X6271697Y1436304D1*
X6273438Y1437677D1*
X6552490Y1500298D2*
X6553605Y1506780D1*
X6556322Y1515142D1*
X6560312Y1522975D1*
X6565480Y1530088D1*
X6567428Y1532196D1*
X6523018Y1532201D1*
X6525407Y1527392D1*
X6552427Y1500366D1*
X7250979Y1347991D2*
X7242560Y1345353D1*
X7242846Y1199936D1*
X7249297Y1194427D1*
X7250974Y1192612D1*
X7250966Y1348005D1*
X1759466Y1075646D2*
X1744949Y1090625D1*
X1741904Y1096059D1*
X1740214Y1102055D1*
X1739969Y1108280D1*
X1741184Y1114390D1*
X1743793Y1120047D1*
X1747648Y1124940D1*
X1759466Y1136756D1*
X2559466Y1075646D2*
X2544948Y1090625D1*
X2541904Y1096059D1*
X2540214Y1102055D1*
X2539969Y1108280D1*
X2541184Y1114390D1*
X2543793Y1120047D1*
X2547648Y1124940D1*
X2559466Y1136756D1*
X4159465Y1075646D2*
X4144948Y1090625D1*
X4141903Y1096059D1*
X4140213Y1102055D1*
X4139967Y1108280D1*
X4141182Y1114390D1*
X4143791Y1120047D1*
X4147647Y1124940D1*
X4159465Y1136756D1*
X4959967Y1075646D2*
X4945449Y1090625D1*
X4942406Y1096059D1*
X4940715Y1102055D1*
X4940470Y1108280D1*
X4941685Y1114390D1*
X4944294Y1120047D1*
X4948150Y1124940D1*
X4959967Y1136756D1*
X5759503Y1073646D2*
X5744984Y1088625D1*
X5741941Y1094059D1*
X5740251Y1100055D1*
X5740005Y1106280D1*
X5741220Y1112390D1*
X5743829Y1118047D1*
X5747685Y1122940D1*
X5759503Y1134756D1*
X3564098Y447207D2*
Y429110D1*
X3452043D1*
Y582478D1*
X3363394Y582559D1*
X3356478Y583936D1*
X3350073Y586888D1*
X3344535Y591255D1*
X3324563Y611357D1*
X3321791Y615173D1*
X3320820Y612451D1*
X3320685Y533997D1*
X3319605Y527178D1*
X3317471Y520612D1*
X3314336Y514461D1*
X3310278Y508874D1*
X3246062Y444466D1*
X3227797Y426201D1*
X4009528D1*
X4000459Y436908D1*
X3992718Y449541D1*
X3987049Y463227D1*
X3983591Y477634D1*
X3982428Y492403D1*
X3982743Y500012D1*
X3938026Y455445D1*
X3933710Y452310D1*
X3928957Y449887D1*
X3923882Y448239D1*
X3918613Y447404D1*
X3776736Y447299D1*
X3776697Y429209D1*
X3664642D1*
Y447226D1*
X3564093Y447227D1*
X3564098Y537244D2*
Y515272D1*
X3664647Y515273D1*
X3664642Y608193D1*
X3690667D1*
X3686539Y617890D1*
X3668327D1*
X3639955Y589655D1*
X3634092Y585736D1*
X3631945Y584748D1*
X3631230Y582987D1*
X3631749Y576378D1*
X3631230Y569769D1*
X3629681Y563323D1*
X3627144Y557198D1*
X3623681Y551545D1*
X3619375Y546504D1*
X3614335Y542198D1*
X3608681Y538735D1*
X3602556Y536198D1*
X3596110Y534650D1*
X3589501Y534130D1*
X3582892Y534650D1*
X3576446Y536198D1*
X3570322Y538735D1*
X3568161Y539944D1*
X3565273Y537933D1*
X3750629Y608193D2*
X3776697D1*
Y515273D1*
X3901870Y515299D1*
X3927495Y541143D1*
X3922247Y547287D1*
X3918024Y554178D1*
X3914932Y561644D1*
X3913045Y569503D1*
X3912411Y577559D1*
X3913045Y585615D1*
X3914932Y593474D1*
X3918024Y600940D1*
X3922247Y607831D1*
X3927495Y613975D1*
X3933639Y619223D1*
X3940530Y623446D1*
X3943873Y624987D1*
X3867199Y625079D1*
X3860283Y626455D1*
X3853879Y629408D1*
X3848341Y633774D1*
X3805928Y676318D1*
X3802010Y682181D1*
X3799570Y688797D1*
X3798740Y695801D1*
X3798688Y792350D1*
X3786570Y804469D1*
X3786491Y667890D1*
X3786539Y617890D1*
X3750651D1*
X4525840Y1519860D2*
X4525793Y1532213D1*
X4472467Y1532201D1*
X4474957Y1526178D1*
X4476505Y1519732D1*
X4477025Y1513123D1*
X4476505Y1506514D1*
X4474343Y1498403D1*
X4525818Y1446923D1*
X4525793Y1519812D1*
X6082115Y1516610D2*
X6082068Y1530234D1*
X6042832Y1530201D1*
X6044773Y1525391D1*
X6046322Y1518945D1*
X6046841Y1512336D1*
X6046322Y1505727D1*
X6044848Y1499542D1*
X6082051Y1462341D1*
X6082068Y1516563D1*
X6414193Y893497D2*
Y885361D1*
X6346566D1*
X6347462Y883079D1*
X6353682Y884239D1*
X6606037Y884331D1*
X6900324D1*
X6905045Y888358D1*
X6905043Y893417D1*
X6414152Y893451D1*
X4416094Y688285D2*
X4415795Y685761D1*
X4816396Y685774D1*
X4783189Y718997D1*
X4408890Y719012D1*
X4412290Y712306D1*
X4414815Y704531D1*
X4416094Y696458D1*
Y688285D1*
X4160235Y720080D2*
X4164711Y726202D1*
X4167822Y729871D1*
X4168270Y736541D1*
X4169608Y742110D1*
X4171799Y747402D1*
X4174793Y752285D1*
X4178512Y756640D1*
X4205298Y783266D1*
X4209932Y786634D1*
X4215045Y789238D1*
X4213714Y789816D1*
X4095314Y789764D1*
X4031198Y725648D1*
X4030803Y720080D1*
X4160167Y720083D1*
X4167822Y730831D1*
X4168270Y736541D1*
X4169608Y742110D1*
X4171799Y747402D1*
X4174793Y752285D1*
X4178512Y756640D1*
X5191093Y688285D2*
X5190478Y683549D1*
X5588969Y683451D1*
X5595885Y682075D1*
X5602289Y679122D1*
X5607828Y674757D1*
X5625180Y657272D1*
X5625958Y658866D1*
X5628588Y669818D1*
X5632898Y680223D1*
X5638782Y689827D1*
X5646097Y698391D1*
X5654661Y705706D1*
X5664265Y711591D1*
X5673493Y715466D1*
X5185869Y715469D1*
X5188703Y708469D1*
X5190612Y700520D1*
X5191253Y692371D1*
X5191093Y688285D1*
X3201598Y724680D2*
Y631424D1*
X3180261D1*
X3185189Y627070D1*
X3190898Y620383D1*
X3195492Y612887D1*
X3198856Y604765D1*
X3200908Y596217D1*
X3201598Y587451D1*
X3200908Y578686D1*
X3198856Y570138D1*
X3195492Y562016D1*
X3190898Y554520D1*
X3185189Y547833D1*
X3178503Y542125D1*
X3171007Y537530D1*
X3162885Y534167D1*
X3154336Y532114D1*
X3145571Y531424D1*
X3136806Y532114D1*
X3128257Y534167D1*
X3120135Y537530D1*
X3112639Y542125D1*
X3105953Y547833D1*
X3100244Y554520D1*
X3095571Y562188D1*
X3090898Y554520D1*
X3089568Y552832D1*
X3089436Y521497D1*
X3088356Y514678D1*
X3086222Y508112D1*
X3083087Y501961D1*
X3079029Y496374D1*
X3064320Y481451D1*
X3158608D1*
X3232820Y555675D1*
Y694238D1*
X3202377Y724669D1*
X3020307Y637451D2*
X3012639Y642125D1*
X3005953Y647833D1*
X3000244Y654520D1*
X2995571Y662188D1*
X2990898Y654520D1*
X2985189Y647833D1*
X2978503Y642125D1*
X2970835Y637451D1*
X2978503Y632778D1*
X2985189Y627070D1*
X2990898Y620383D1*
X2995571Y612715D1*
X3000244Y620383D1*
X3005953Y627070D1*
X3012639Y632778D1*
X3020307Y637451D1*
X2995571Y712715D2*
X3000244Y720383D1*
X3001573Y722071D1*
X3001706Y740904D1*
X3002786Y747723D1*
X3004920Y754290D1*
X3008055Y760441D1*
X3012113Y766028D1*
X3038592Y792698D1*
X2680091Y792651D1*
X2628257Y740736D1*
X2636806Y742789D1*
X2645571Y743479D1*
X2654336Y742789D1*
X2662885Y740736D1*
X2671007Y737373D1*
X2678503Y732778D1*
X2685189Y727070D1*
X2690898Y720383D1*
X2695571Y712715D1*
X2700244Y720383D1*
X2705953Y727070D1*
X2712639Y732778D1*
X2720135Y737373D1*
X2728257Y740736D1*
X2736806Y742789D1*
X2745571Y743479D1*
X2754336Y742789D1*
X2762885Y740736D1*
X2771007Y737373D1*
X2778503Y732778D1*
X2785189Y727070D1*
X2790898Y720383D1*
X2795571Y712715D1*
X2800244Y720383D1*
X2805953Y727070D1*
X2812639Y732778D1*
X2820135Y737373D1*
X2828257Y740736D1*
X2836806Y742789D1*
X2845571Y743479D1*
X2854336Y742789D1*
X2862885Y740736D1*
X2871007Y737373D1*
X2878503Y732778D1*
X2885189Y727070D1*
X2890898Y720383D1*
X2895571Y712715D1*
X2900244Y720383D1*
X2905953Y727070D1*
X2912639Y732778D1*
X2920135Y737373D1*
X2928257Y740736D1*
X2936806Y742789D1*
X2945571Y743479D1*
X2954336Y742789D1*
X2962885Y740736D1*
X2971007Y737373D1*
X2978503Y732778D1*
X2985189Y727070D1*
X2990898Y720383D1*
X2995571Y712715D1*
X2920307Y637451D2*
X2912639Y642125D1*
X2905953Y647833D1*
X2900244Y654520D1*
X2895571Y662188D1*
X2890898Y654520D1*
X2885189Y647833D1*
X2878503Y642125D1*
X2870835Y637451D1*
X2878503Y632778D1*
X2885189Y627070D1*
X2890898Y620383D1*
X2895571Y612715D1*
X2900244Y620383D1*
X2905953Y627070D1*
X2912639Y632778D1*
X2920307Y637451D1*
X2820307D2*
X2812639Y642125D1*
X2805953Y647833D1*
X2800244Y654520D1*
X2795571Y662188D1*
X2790898Y654520D1*
X2785189Y647833D1*
X2778503Y642125D1*
X2770835Y637451D1*
X2778503Y632778D1*
X2785189Y627070D1*
X2790898Y620383D1*
X2795571Y612715D1*
X2800244Y620383D1*
X2805953Y627070D1*
X2812639Y632778D1*
X2820307Y637451D1*
X2720307D2*
X2712639Y642125D1*
X2705953Y647833D1*
X2700244Y654520D1*
X2695571Y662188D1*
X2690898Y654520D1*
X2685189Y647833D1*
X2678503Y642125D1*
X2670835Y637451D1*
X2678503Y632778D1*
X2685189Y627070D1*
X2690898Y620383D1*
X2695571Y612715D1*
X2700244Y620383D1*
X2705953Y627070D1*
X2712639Y632778D1*
X2720307Y637451D1*
X2420307D2*
X2412639Y642125D1*
X2405953Y647833D1*
X2400244Y654520D1*
X2395571Y662188D1*
X2390898Y654520D1*
X2385189Y647833D1*
X2378503Y642125D1*
X2370835Y637451D1*
X2378503Y632778D1*
X2385189Y627070D1*
X2390898Y620383D1*
X2395571Y612715D1*
X2400244Y620383D1*
X2405953Y627070D1*
X2412639Y632778D1*
X2420307Y637451D1*
X2320307D2*
X2312639Y642125D1*
X2305953Y647833D1*
X2300244Y654520D1*
X2295571Y662188D1*
X2290898Y654520D1*
X2285189Y647833D1*
X2278503Y642125D1*
X2270835Y637451D1*
X2278503Y632778D1*
X2285189Y627070D1*
X2290898Y620383D1*
X2295571Y612715D1*
X2300244Y620383D1*
X2305953Y627070D1*
X2312639Y632778D1*
X2320307Y637451D1*
X2220307D2*
X2212639Y642125D1*
X2205953Y647833D1*
X2200244Y654520D1*
X2195571Y662188D1*
X2190898Y654520D1*
X2185189Y647833D1*
X2178503Y642125D1*
X2170835Y637451D1*
X2178503Y632778D1*
X2185189Y627070D1*
X2190898Y620383D1*
X2195571Y612715D1*
X2200244Y620383D1*
X2205953Y627070D1*
X2212639Y632778D1*
X2220307Y637451D1*
X2195571Y712715D2*
X2200244Y720383D1*
X2205953Y727070D1*
X2212639Y732778D1*
X2220135Y737373D1*
X2228257Y740736D1*
X2236806Y742789D1*
X2245571Y743479D1*
X2254336Y742789D1*
X2257790Y742102D1*
X2288243Y772419D1*
X2294106Y776337D1*
X2300722Y778777D1*
X2307726Y779606D1*
X2523584Y779659D1*
X2599783Y855858D1*
X2210799Y855774D1*
X2176588Y821490D1*
Y734136D1*
X2181958Y730055D1*
X2188175Y723839D1*
X2193343Y716726D1*
X2195571Y712715D1*
X2120307Y637451D2*
X2112639Y642125D1*
X2105953Y647833D1*
X2100244Y654520D1*
X2095571Y662188D1*
X2090898Y654520D1*
X2085189Y647833D1*
X2078503Y642125D1*
X2070835Y637451D1*
X2078503Y632778D1*
X2085189Y627070D1*
X2090898Y620383D1*
X2095571Y612715D1*
X2100244Y620383D1*
X2105953Y627070D1*
X2112639Y632778D1*
X2120307Y637451D1*
X2020307D2*
X2012639Y642125D1*
X2005953Y647833D1*
X2000244Y654520D1*
X1995571Y662188D1*
X1990898Y654520D1*
X1985189Y647833D1*
X1978503Y642125D1*
X1970835Y637451D1*
X1978503Y632778D1*
X1985189Y627070D1*
X1990898Y620383D1*
X1995571Y612715D1*
X2000244Y620383D1*
X2005953Y627070D1*
X2012639Y632778D1*
X2020307Y637451D1*
X2123891Y1289786D2*
X2197719D1*
X2197761Y1323592D1*
X2090087Y1323598D1*
X2123908Y1289777D1*
X2305879Y1284756D2*
Y1247744D1*
X2342983Y1247699D1*
X2305882Y1284765D1*
X2936147Y1283537D2*
X2977723Y1283703D1*
X2938934Y1283824D1*
X2932890Y1284781D1*
X2927070Y1286672D1*
X2921617Y1289450D1*
X2916667Y1293047D1*
X2834867Y1374676D1*
X2766194Y1443349D1*
X2758722Y1441953D1*
X2923675Y1277001D1*
X2923647Y1283537D1*
X2936147D1*
X3723646Y1289787D2*
X3797718D1*
X3797760Y1301567D1*
X3721874Y1301672D1*
X3715829Y1302629D1*
X3710009Y1304520D1*
X3704556Y1307298D1*
X3699606Y1310895D1*
X3617807Y1392524D1*
X3561287Y1449043D1*
X3552946Y1447741D1*
X3711146Y1289787D1*
X3723646D1*
X3905878Y1284660D2*
Y1247745D1*
X3942786Y1247701D1*
X3905879Y1284636D1*
X5315921Y1287787D2*
X5391507D1*
X5391549Y1301129D1*
X5322399Y1301278D1*
X5316354Y1302235D1*
X5310534Y1304126D1*
X5305081Y1306904D1*
X5300131Y1310501D1*
X5218332Y1392130D1*
X5175761Y1434701D1*
X5170297Y1433371D1*
X5315873Y1287804D1*
X5319358Y1301638D1*
X5313408Y1303066D1*
X5307753Y1305408D1*
X5302535Y1308606D1*
X5297882Y1312580D1*
X5499667Y1295453D2*
Y1245745D1*
X5549367Y1245701D1*
X5499669Y1295440D1*
X6130446Y1289787D2*
X6153982D1*
X6154024Y1301664D1*
X6142455Y1302163D1*
X6136505Y1303591D1*
X6130850Y1305933D1*
X6125633Y1309131D1*
X6120979Y1313105D1*
X5988845Y1445239D1*
X5982318Y1444234D1*
X5976012Y1444222D1*
X6130446Y1289780D1*
X6136505Y1303591D1*
X6130850Y1305933D1*
X6125633Y1309131D1*
X6120971Y1313114D1*
X6082510Y1197417D2*
X6067409D1*
X6067375Y1242542D1*
X5929096Y1380822D1*
X5928990Y1029404D1*
X5927613Y1022488D1*
X5924660Y1016084D1*
X5920294Y1010546D1*
X5891189Y981440D1*
X6082474Y981451D1*
X6082469Y1197461D1*
X3442227Y767890D2*
X3442201Y813055D1*
X3352563Y813045D1*
X3399190Y766333D1*
X3403108Y760470D1*
X3405549Y753854D1*
X3406378Y746850D1*
Y745142D1*
X3414126Y747109D1*
X3420735Y747629D1*
X3427344Y747109D1*
X3433790Y745560D1*
X3439915Y743024D1*
X3442210Y741739D1*
X3442201Y767938D1*
X3654799Y694501D2*
X3654631Y725459D1*
X3617257Y688085D1*
X3621627Y683639D1*
X3625524Y678276D1*
X3628533Y672369D1*
X3630756Y665186D1*
X3644723Y679013D1*
X3650587Y682932D1*
X6018777Y647615D2*
X6018776Y645079D1*
Y647467D1*
X6011709Y661081D1*
X5957329Y715462D1*
X5917217Y715469D1*
X5926286Y711591D1*
X5935890Y705706D1*
X5944454Y698391D1*
X5951769Y689827D1*
X5957654Y680223D1*
X5961963Y669818D1*
X5964593Y658866D1*
X5965476Y647638D1*
X5965255Y614448D1*
X5963493Y603323D1*
X5960013Y592612D1*
X5954899Y582576D1*
X5948280Y573465D1*
X5940228Y565432D1*
X6043937Y565500D1*
X6035972Y573465D1*
X6029353Y582576D1*
X6024239Y592612D1*
X6020759Y603323D1*
X6018997Y614448D1*
X6018776Y645079D1*
X6162325Y620056D2*
X6161444Y608850D1*
X6158814Y597899D1*
X6154504Y587493D1*
X6148619Y577890D1*
X6141304Y569325D1*
X6137079Y565432D1*
X6508504Y565500D1*
X6500539Y573465D1*
X6493920Y582576D1*
X6488806Y592612D1*
X6485325Y603323D1*
X6483564Y614448D1*
X6483343Y647638D1*
X6484226Y658866D1*
X6486856Y669818D1*
X6491165Y680223D1*
X6497050Y689827D1*
X6504365Y698391D1*
X6512929Y705706D1*
X6522533Y711591D1*
X6531761Y715466D1*
X6231636Y715469D1*
X6162346Y646160D1*
X6162278Y620079D1*
X5821927Y647615D2*
X5822808Y658866D1*
X5825438Y669818D1*
X5829748Y680223D1*
X5835633Y689827D1*
X5842948Y698391D1*
X5851512Y705706D1*
X5861115Y711591D1*
X5870344Y715466D1*
X5720341Y715469D1*
X5729436Y711591D1*
X5739039Y705706D1*
X5747604Y698391D1*
X5754919Y689827D1*
X5760803Y680223D1*
X5765113Y669818D1*
X5767743Y658866D1*
X5768626Y647638D1*
X5768404Y614448D1*
X5766643Y603323D1*
X5763163Y592612D1*
X5758049Y582576D1*
X5751429Y573465D1*
X5743378Y565432D1*
X5847087Y565500D1*
X5839122Y573465D1*
X5832503Y582576D1*
X5827388Y592612D1*
X5823908Y603323D1*
X5822147Y614448D1*
X5821925Y647467D1*
X6680194Y647615D2*
X6681076Y658866D1*
X6683706Y669818D1*
X6688016Y680223D1*
X6693900Y689827D1*
X6701215Y698391D1*
X6709780Y705706D1*
X6719383Y711591D1*
X6728612Y715466D1*
X6578609Y715469D1*
X6587703Y711591D1*
X6597307Y705706D1*
X6605871Y698391D1*
X6613186Y689827D1*
X6619071Y680223D1*
X6623381Y669818D1*
X6626010Y658866D1*
X6626894Y647638D1*
X6626672Y614448D1*
X6624911Y603323D1*
X6621430Y592612D1*
X6616316Y582576D1*
X6609697Y573465D1*
X6601646Y565432D1*
X6641169Y565486D1*
X6681600Y605916D1*
X6680415Y614448D1*
X6680193Y647448D1*
X7250954Y2979991D2*
X7243823Y2968534D1*
X7233509Y2956457D1*
X7221432Y2946143D1*
X7207890Y2937844D1*
X7193217Y2931766D1*
X7177773Y2928059D1*
X7161940Y2926812D1*
X7146106Y2928059D1*
X7130663Y2931766D1*
X7115990Y2937844D1*
X7102448Y2946143D1*
X7090370Y2956457D1*
X7085882Y2961312D1*
X7085902Y2663223D1*
X7250983Y2663201D1*
X7250965Y2979841D1*
X7209867Y3117101D2*
X7221432Y3109909D1*
X7233509Y3099596D1*
X7243823Y3087518D1*
X7250954Y3076062D1*
X7250965Y3108126D1*
X7249803Y3113526D1*
X7247392Y3115940D1*
X7243247Y3116936D1*
X7210021Y3117105D1*
X467100Y426205D2*
X455698Y433306D1*
X443621Y443619D1*
X433307Y455697D1*
X426206Y467098D1*
X426201Y435181D1*
X427362Y429783D1*
X429783Y427360D1*
X433917Y426370D1*
X466949Y426201D1*
X7250951Y467361D2*
X7243760Y455797D1*
X7233446Y443719D1*
X7221369Y433406D1*
X7209804Y426214D1*
X7241963Y426201D1*
X7247365Y427354D1*
X7249798Y429772D1*
X7250797Y433920D1*
X7250966Y467243D1*
X7247810Y780138D2*
X7246151Y771155D1*
X7239417Y757425D1*
X7235064Y749396D1*
X7224417Y738419D1*
X7217795Y732127D1*
X7204278Y724978D1*
X7196037Y721041D1*
X7180971Y718417D1*
X7171916Y717220D1*
X7156778Y719382D1*
X7147795Y721041D1*
X7134066Y727774D1*
X7126037Y732127D1*
X7115059Y742774D1*
X7108768Y749396D1*
X7101618Y762913D1*
X7097681Y771155D1*
X7095058Y786220D1*
X7093861Y795276D1*
X7096021Y810413D1*
X7097681Y819396D1*
X7104415Y833126D1*
X7108768Y841155D1*
X7119415Y852133D1*
X7126037Y858424D1*
X7139554Y865573D1*
X7147795Y869510D1*
X7162861Y872134D1*
X7171916Y873331D1*
X7187054Y871171D1*
X7196037Y869510D1*
X7209766Y862777D1*
X7217795Y858424D1*
X7228773Y847777D1*
X7235064Y841155D1*
X7242214Y827638D1*
X7246151Y819396D1*
X7248774Y804331D1*
X7249971Y795276D1*
X7247810Y780138D1*
X581143Y2732894D2*
X579484Y2723911D1*
X572751Y2710181D1*
X568398Y2702152D1*
X557751Y2691175D1*
X551129Y2684883D1*
X537612Y2677734D1*
X529370Y2673797D1*
X514304Y2671173D1*
X505249Y2669976D1*
X490112Y2672138D1*
X481129Y2673797D1*
X467399Y2680530D1*
X459370Y2684883D1*
X448392Y2695530D1*
X442101Y2702152D1*
X434951Y2715669D1*
X431014Y2723911D1*
X428391Y2738976D1*
X427194Y2748031D1*
X429354Y2763169D1*
X431014Y2772152D1*
X437748Y2785882D1*
X442101Y2793911D1*
X452748Y2804888D1*
X459370Y2811180D1*
X472887Y2818329D1*
X481129Y2822266D1*
X496194Y2824890D1*
X505249Y2826087D1*
X520387Y2823927D1*
X529370Y2822266D1*
X543100Y2815533D1*
X551129Y2811180D1*
X562106Y2800533D1*
X568398Y2793911D1*
X575547Y2780394D1*
X579484Y2772152D1*
X582108Y2757087D1*
X583304Y2748031D1*
X581143Y2732894D1*
X7247852Y2732920D2*
X7246193Y2723937D1*
X7239459Y2710207D1*
X7235106Y2702178D1*
X7224459Y2691201D1*
X7217837Y2684909D1*
X7204320Y2677760D1*
X7196079Y2673823D1*
X7181013Y2671199D1*
X7171958Y2670003D1*
X7156820Y2672164D1*
X7147837Y2673823D1*
X7134108Y2680556D1*
X7126079Y2684909D1*
X7115101Y2695556D1*
X7108810Y2702178D1*
X7101660Y2715696D1*
X7097723Y2723937D1*
X7095100Y2739003D1*
X7093903Y2748058D1*
X7096063Y2763196D1*
X7097723Y2772178D1*
X7104457Y2785908D1*
X7108810Y2793937D1*
X7119457Y2804915D1*
X7126079Y2811206D1*
X7139596Y2818356D1*
X7147837Y2822293D1*
X7162903Y2824916D1*
X7171958Y2826113D1*
X7187096Y2823953D1*
X7196079Y2822293D1*
X7209808Y2815559D1*
X7217837Y2811206D1*
X7228815Y2800559D1*
X7235106Y2793937D1*
X7242256Y2780420D1*
X7246193Y2772178D1*
X7248816Y2757113D1*
X7250013Y2748058D1*
X7247852Y2732920D1*
X3868543Y855008D2*
X3885239Y838175D1*
X3889353Y832017D1*
X3891916Y825070D1*
X3892786Y817717D1*
Y816105D1*
X3900310Y815613D1*
X3906756Y814064D1*
X3912881Y811528D1*
X3918534Y808064D1*
X3923432Y803890D1*
X3926734Y803937D1*
X3977867Y855071D1*
X3868474Y855039D1*
D55*
X920571Y1150886D3*
X1100098D3*
D56*
X1010335Y1414665D3*
D57*
X6090551Y633858D3*
X5893701D3*
X5696850D3*
X6948819D3*
X6751969D3*
X6555118D3*
X1418822Y2776701D3*
X1168822D3*
X918822D3*
X2208822D3*
X1958822D3*
X1708822D3*
X2998822D3*
X2748822D3*
X2498822D3*
X3788822D3*
X3538822D3*
X3288822D3*
X4578822D3*
X4328822D3*
X4078822D3*
X5368822D3*
X5118822D3*
X4868822D3*
X6158822D3*
X5908822D3*
X5658822D3*
X6948822D3*
X6698822D3*
X6448822D3*
D58*
X683071Y896505D3*
X757874D3*
D59*
X1158071Y687450D3*
Y612647D3*
X1233072Y962450D3*
Y887647D3*
X1101822Y962450D3*
Y887647D3*
D60*
X489322Y1040256D3*
D61*
X886959D3*
D62*
X539215Y724846D3*
Y835083D3*
D63*
X826820Y506677D3*
D64*
Y742898D3*
D63*
X1011860Y624787D3*
D60*
X1589322Y618701D3*
D61*
X1510581D3*
D60*
X1301820Y724951D3*
D61*
Y646211D3*
D60*
X1208071Y1229512D3*
D61*
Y1308252D3*
D60*
X1591192Y783071D3*
D61*
X1512451D3*
D65*
X1168822Y1768701D3*
X1403822Y1848701D3*
X933822D3*
Y2328701D3*
X1403822D3*
X1958822Y1768701D3*
X2193822Y1848701D3*
X1723822D3*
Y2328701D3*
X2193822D3*
X2748822Y1768701D3*
X2983822Y1848701D3*
X2513822D3*
Y2328701D3*
X2983822D3*
X3538822Y1768701D3*
X3773822Y1848701D3*
X3303822D3*
Y2328701D3*
X3773822D3*
X4328822Y1768701D3*
X4563822Y1848701D3*
X4093822D3*
Y2328701D3*
X4563822D3*
X5118822Y1768701D3*
X5353822Y1848701D3*
X4883822D3*
Y2328701D3*
X5353822D3*
X5910822Y1768701D3*
X6145822Y1848701D3*
X5675822D3*
Y2328701D3*
X6145822D3*
X6700822Y1768701D3*
X6935822Y1848701D3*
X6465822D3*
Y2328701D3*
X6935822D3*
D59*
X1620571Y1206201D3*
Y1131398D3*
X2420570Y1206201D3*
Y1131398D3*
X3220571Y1199951D3*
Y1125148D3*
X4008068Y1206201D3*
Y1131398D3*
X4808571Y1206201D3*
Y1131398D3*
X5614357Y1204201D3*
Y1129398D3*
X6358084Y1206201D3*
Y1131398D3*
X6961070Y1206201D3*
Y1131398D3*
D60*
X1551822Y1493701D3*
D66*
Y1393701D3*
X1851822D3*
Y1493701D3*
D60*
X2351822D3*
D66*
Y1393701D3*
X2651822D3*
Y1493701D3*
D60*
X3151822D3*
D66*
Y1393701D3*
X3451822D3*
Y1493701D3*
D60*
X3951819D3*
D66*
Y1393701D3*
X4251819D3*
Y1493701D3*
D60*
X4751822Y1496701D3*
D66*
Y1396701D3*
X5051822D3*
Y1496701D3*
D60*
X5551858Y1491701D3*
D66*
Y1391701D3*
X5851858D3*
Y1491701D3*
D60*
X6308084Y1493701D3*
D66*
Y1393701D3*
X6608084D3*
Y1493701D3*
D60*
X6930071Y1499950D3*
D66*
Y1399950D3*
X7230071D3*
Y1499950D3*
D67*
X1801820Y1206201D3*
X1851820Y1156201D3*
D124*
X1801820Y1106201D3*
D67*
X2601820Y1206201D3*
X2651820Y1156201D3*
D124*
X2601820Y1106201D3*
D67*
X3401820Y1199951D3*
X3451820Y1149951D3*
D124*
X3401820Y1099951D3*
D67*
X4201819Y1206201D3*
X4251819Y1156201D3*
D124*
X4201819Y1106201D3*
D67*
X5002322Y1206201D3*
X5052322Y1156201D3*
D124*
X5002322Y1106201D3*
D67*
X5801857Y1204201D3*
X5851857Y1154201D3*
D124*
X5801857Y1104201D3*
D67*
X6558084Y1206201D3*
X6608084Y1156201D3*
D124*
X6558084Y1106201D3*
D67*
X7161071Y1206201D3*
X7211071Y1156201D3*
D124*
X7161071Y1106201D3*
D59*
X3508071Y481201D3*
Y556004D3*
X3720669Y481299D3*
Y556102D3*
X1381833Y1568701D3*
Y1493898D3*
X1620571Y937450D3*
Y1012253D3*
X2181833Y1568701D3*
Y1493898D3*
X2420571Y937451D3*
Y1012255D3*
X2964071Y1568701D3*
Y1493898D3*
X3220571Y937451D3*
Y1012255D3*
X3781831Y1568701D3*
Y1493898D3*
X4007970Y937550D3*
Y1012353D3*
X4581820Y1571950D3*
Y1497147D3*
X4808472Y937550D3*
Y1012353D3*
X5381883Y1566701D3*
Y1491898D3*
X5614358Y937451D3*
Y1012255D3*
X6138096Y1568701D3*
Y1493898D3*
X6358165Y937451D3*
Y1012255D3*
X6785031Y1483951D3*
Y1409148D3*
X6961071Y931201D3*
Y1006004D3*
D68*
X4164322Y612450D3*
X4244243D3*
X4324164D3*
X4364164Y692371D3*
X4284243D3*
X4204322D3*
X4939320Y612450D3*
X5019241D3*
X5099163D3*
X5139163Y692371D3*
X5059241D3*
X4979320D3*
D60*
X3145571Y687451D3*
D66*
X3045571D3*
X2945571D3*
X2845571D3*
X2745571D3*
X2645571D3*
X2545571D3*
X2445571D3*
X2345571D3*
X2245571D3*
X2145571D3*
X2045571D3*
X1945571D3*
Y587451D3*
X2045571D3*
X2145571D3*
X2245571D3*
X2345571D3*
X2445571D3*
X2545571D3*
X2645571D3*
X2745571D3*
X2845571D3*
X2945571D3*
X3045571D3*
X3145571D3*
D70*
X1426822Y1206199D3*
X1340207Y1243601D3*
X1426822Y1281003D3*
X2251820Y1206199D3*
X2165206Y1243601D3*
X2251820Y1281003D3*
X3064320Y1199950D3*
X2977706Y1237352D3*
X3064320Y1274753D3*
X3851819Y1206201D3*
X3765205Y1243602D3*
X3851819Y1281004D3*
X4671071Y1206201D3*
X4584457Y1243602D3*
X4671071Y1281004D3*
X5445608Y1204201D3*
X5358993Y1241602D3*
X5445608Y1279004D3*
X6208083Y1206201D3*
X6121469Y1243602D3*
X6208083Y1281004D3*
X6798570Y1206201D3*
X6711955Y1243602D3*
X6798570Y1281004D3*
D71*
X3508071Y806201D3*
Y756201D3*
Y706201D3*
Y656201D3*
X3720669D3*
Y706201D3*
Y756201D3*
Y806201D3*
D73*
X7171916Y795276D3*
D66*
X506127Y1324820D3*
X606127D3*
X706127D3*
D73*
X505249Y2748031D3*
X7171958Y2748058D3*
M02*
