G04 DipTrace 3.0.0.1*
G04 TopDimension.gbr*
%MOIN*%
G04 #@! TF.FileFunction,Drawing,Top*
G04 #@! TF.Part,Single*
%ADD13C,0.001496*%
%ADD118C,0.006176*%
%FSLAX26Y26*%
G04*
G70*
G90*
G75*
G01*
G04 TopDimension*
%LPD*%
X503720Y3039619D2*
D13*
Y3307135D1*
X393701Y3110236D2*
Y3307135D1*
X448711Y3287450D2*
X464350D1*
G36*
X503720D2*
X464350Y3279576D1*
Y3295324D1*
X503720Y3287450D1*
G37*
X448711D2*
D13*
X433071D1*
G36*
X393701D2*
X433071Y3295324D1*
Y3279576D1*
X393701Y3287450D1*
G37*
X662474D2*
D13*
X503720D1*
Y3039619D2*
X213386D1*
X433071Y3149606D2*
X213386D1*
X233071Y3094613D2*
Y3078990D1*
G36*
Y3039619D2*
X225197Y3078990D1*
X240945D1*
X233071Y3039619D1*
G37*
Y3094613D2*
D13*
Y3110236D1*
G36*
Y3149606D2*
X240945Y3110236D1*
X225197D1*
X233071Y3149606D1*
G37*
Y3308360D2*
D13*
Y3149606D1*
X4851840Y492403D2*
Y-94735D1*
X4451723Y492411D2*
Y-94735D1*
X4651781Y-75050D2*
X4812470D1*
G36*
X4851840D2*
X4812470Y-82924D1*
Y-67176D1*
X4851840Y-75050D1*
G37*
X4651781D2*
D13*
X4491093D1*
G36*
X4451723D2*
X4491093Y-67176D1*
Y-82924D1*
X4451723Y-75050D1*
G37*
Y492411D2*
D13*
X4971507D1*
X4851840Y492403D2*
X4971507D1*
X4951822Y492411D2*
Y492403D1*
Y551466D2*
Y531781D1*
G36*
Y492411D2*
X4943948Y531781D1*
X4959696D1*
X4951822Y492411D1*
G37*
Y433348D2*
D13*
Y453033D1*
G36*
Y492403D2*
X4959696Y453033D1*
X4943948D1*
X4951822Y492403D1*
G37*
Y426238D2*
D13*
Y492411D1*
X5226722D2*
X5815256D1*
X5626840Y492404D2*
X5815256D1*
X5795571Y492411D2*
Y492404D1*
Y551466D2*
Y531781D1*
G36*
Y492411D2*
X5787697Y531781D1*
X5803445D1*
X5795571Y492411D1*
G37*
Y433349D2*
D13*
Y453034D1*
G36*
Y492404D2*
X5803445Y453034D1*
X5787697D1*
X5795571Y492404D1*
G37*
Y426239D2*
D13*
Y492411D1*
X6001722Y492412D2*
X6559005D1*
X6401841Y492404D2*
X6559005D1*
X6539320Y492412D2*
Y492404D1*
Y551467D2*
Y531782D1*
G36*
Y492412D2*
X6531446Y531782D1*
X6547194D1*
X6539320Y492412D1*
G37*
Y433349D2*
D13*
Y453034D1*
G36*
Y492404D2*
X6547194Y453034D1*
X6531446D1*
X6539320Y492404D1*
G37*
Y426239D2*
D13*
Y492412D1*
X6698822Y2776701D2*
Y2067765D1*
X5118822Y1768701D2*
Y2107135D1*
X5908822Y2087450D2*
X6659451D1*
G36*
X6698822D2*
X6659451Y2079576D1*
Y2095324D1*
X6698822Y2087450D1*
G37*
X5908822D2*
D13*
X5158192D1*
G36*
X5118822D2*
X5158192Y2095324D1*
Y2079576D1*
X5118822Y2087450D1*
G37*
X5908822Y2776701D2*
D13*
Y2136516D1*
X5910822Y1768701D2*
Y2175886D1*
X5908822Y2156201D2*
X5910822D1*
X5849766D2*
X5869451D1*
G36*
X5908822D2*
X5869451Y2148327D1*
Y2164075D1*
X5908822Y2156201D1*
G37*
X5969877D2*
D13*
X5950192D1*
G36*
X5910822D2*
X5950192Y2164075D1*
Y2148327D1*
X5910822Y2156201D1*
G37*
X6071477D2*
D13*
X5910822D1*
X5118822Y2776701D2*
Y2074016D1*
Y1768701D2*
Y2113386D1*
Y2093701D2*
D3*
X5059766D2*
X5079451D1*
G36*
X5118822D2*
X5079451Y2085827D1*
Y2101575D1*
X5118822Y2093701D1*
G37*
X5177877D2*
D13*
X5158192D1*
G36*
X5118822D2*
X5158192Y2101575D1*
Y2085827D1*
X5118822Y2093701D1*
G37*
X5184986D2*
D13*
X5118822D1*
X4328822Y2776701D2*
Y2067765D1*
Y1768701D2*
Y2107135D1*
Y2087450D2*
D3*
X4269766D2*
X4289451D1*
G36*
X4328822D2*
X4289451Y2079576D1*
Y2095324D1*
X4328822Y2087450D1*
G37*
X4387877D2*
D13*
X4368192D1*
G36*
X4328822D2*
X4368192Y2095324D1*
Y2079576D1*
X4328822Y2087450D1*
G37*
X4394986D2*
D13*
X4328822D1*
X3538822Y2776701D2*
Y2086516D1*
X4328822Y1768701D2*
Y2125886D1*
X3933822Y2106201D2*
X3578192D1*
G36*
X3538822D2*
X3578192Y2114075D1*
Y2098327D1*
X3538822Y2106201D1*
G37*
X3933822D2*
D13*
X4289451D1*
G36*
X4328822D2*
X4289451Y2098327D1*
Y2114075D1*
X4328822Y2106201D1*
G37*
X2748822Y2776701D2*
D13*
Y2117766D1*
Y1768701D2*
Y2157136D1*
Y2137451D2*
D3*
X2689766D2*
X2709451D1*
G36*
X2748822D2*
X2709451Y2129577D1*
Y2145325D1*
X2748822Y2137451D1*
G37*
X2807877D2*
D13*
X2788192D1*
G36*
X2748822D2*
X2788192Y2145325D1*
Y2129577D1*
X2748822Y2137451D1*
G37*
X2814986D2*
D13*
X2748822D1*
X1958822Y2776701D2*
Y2086516D1*
X3538822Y1768701D2*
Y2125886D1*
X2748822Y2106201D2*
X1998192D1*
G36*
X1958822D2*
X1998192Y2114075D1*
Y2098327D1*
X1958822Y2106201D1*
G37*
X2748822D2*
D13*
X3499451D1*
G36*
X3538822D2*
X3499451Y2098327D1*
Y2114075D1*
X3538822Y2106201D1*
G37*
X1168822Y2776701D2*
D13*
Y2117766D1*
Y1768701D2*
Y2157136D1*
Y2137451D2*
D3*
X1109766D2*
X1129451D1*
G36*
X1168822D2*
X1129451Y2129577D1*
Y2145325D1*
X1168822Y2137451D1*
G37*
X1227877D2*
D13*
X1208192D1*
G36*
X1168822D2*
X1208192Y2145325D1*
Y2129577D1*
X1168822Y2137451D1*
G37*
X1234986D2*
D13*
X1168822D1*
X918822Y2776701D2*
X1196756D1*
X933822Y2328701D2*
X1196756D1*
X1177071Y2552701D2*
Y2737331D1*
G36*
Y2776701D2*
X1184945Y2737331D1*
X1169197D1*
X1177071Y2776701D1*
G37*
Y2552701D2*
D13*
Y2368071D1*
G36*
Y2328701D2*
X1169197Y2368071D1*
X1184945D1*
X1177071Y2328701D1*
G37*
X1708822Y2776701D2*
D13*
X1921756D1*
X3303822Y2328701D2*
X1882386D1*
X1902071Y2552701D2*
Y2737331D1*
G36*
Y2776701D2*
X1909945Y2737331D1*
X1894197D1*
X1902071Y2776701D1*
G37*
Y2552701D2*
D13*
Y2368071D1*
G36*
Y2328701D2*
X1894197Y2368071D1*
X1909945D1*
X1902071Y2328701D1*
G37*
X2498822Y2776701D2*
D13*
X2706756D1*
X2513822Y2328701D2*
X2706756D1*
X2687071Y2552701D2*
Y2737331D1*
G36*
Y2776701D2*
X2694945Y2737331D1*
X2679197D1*
X2687071Y2776701D1*
G37*
Y2552701D2*
D13*
Y2368071D1*
G36*
Y2328701D2*
X2679197Y2368071D1*
X2694945D1*
X2687071Y2328701D1*
G37*
X3288822Y2776701D2*
D13*
X3460756D1*
X4093822Y2328701D2*
X3421386D1*
X3441071Y2552701D2*
Y2737331D1*
G36*
Y2776701D2*
X3448945Y2737331D1*
X3433197D1*
X3441071Y2776701D1*
G37*
Y2552701D2*
D13*
Y2368071D1*
G36*
Y2328701D2*
X3433197Y2368071D1*
X3448945D1*
X3441071Y2328701D1*
G37*
X3788822Y2776701D2*
D13*
X3888756D1*
X4563822Y2328701D2*
X3849386D1*
X3869071Y2552701D2*
Y2737331D1*
G36*
Y2776701D2*
X3876945Y2737331D1*
X3861197D1*
X3869071Y2776701D1*
G37*
Y2552701D2*
D13*
Y2368071D1*
G36*
Y2328701D2*
X3861197Y2368071D1*
X3876945D1*
X3869071Y2328701D1*
G37*
X4078822Y2776701D2*
D13*
X4238756D1*
X4093822Y2328701D2*
X4238756D1*
X4219071Y2552701D2*
Y2737331D1*
G36*
Y2776701D2*
X4226945Y2737331D1*
X4211197D1*
X4219071Y2776701D1*
G37*
Y2552701D2*
D13*
Y2368071D1*
G36*
Y2328701D2*
X4211197Y2368071D1*
X4226945D1*
X4219071Y2328701D1*
G37*
X4868822Y2776701D2*
D13*
X4985756D1*
X4883822Y2328701D2*
X4985756D1*
X4966071Y2552701D2*
Y2737331D1*
G36*
Y2776701D2*
X4973945Y2737331D1*
X4958197D1*
X4966071Y2776701D1*
G37*
Y2552701D2*
D13*
Y2368071D1*
G36*
Y2328701D2*
X4958197Y2368071D1*
X4973945D1*
X4966071Y2328701D1*
G37*
X5658822Y2776701D2*
D13*
X5765756D1*
X5675822Y2328701D2*
X5765756D1*
X5746071Y2552701D2*
Y2737331D1*
G36*
Y2776701D2*
X5753945Y2737331D1*
X5738197D1*
X5746071Y2776701D1*
G37*
Y2552701D2*
D13*
Y2368071D1*
G36*
Y2328701D2*
X5738197Y2368071D1*
X5753945D1*
X5746071Y2328701D1*
G37*
X6448822Y2776701D2*
D13*
X6541756D1*
X4883822Y2328701D2*
X6541756D1*
X6522071Y2552701D2*
Y2737331D1*
G36*
Y2776701D2*
X6529945Y2737331D1*
X6514197D1*
X6522071Y2776701D1*
G37*
Y2552701D2*
D13*
Y2368071D1*
G36*
Y2328701D2*
X6514197Y2368071D1*
X6529945D1*
X6522071Y2328701D1*
G37*
X6158822Y2776701D2*
D13*
Y3244386D1*
X6448822Y2776701D2*
Y3244386D1*
X6303822Y3224701D2*
X6198192D1*
G36*
X6158822D2*
X6198192Y3232575D1*
Y3216827D1*
X6158822Y3224701D1*
G37*
X6303822D2*
D13*
X6409451D1*
G36*
X6448822D2*
X6409451Y3216827D1*
Y3232575D1*
X6448822Y3224701D1*
G37*
X5658822Y2776701D2*
D13*
Y3205386D1*
X5368822Y2776701D2*
Y3205386D1*
X5513822Y3185701D2*
X5619451D1*
G36*
X5658822D2*
X5619451Y3177827D1*
Y3193575D1*
X5658822Y3185701D1*
G37*
X5513822D2*
D13*
X5408192D1*
G36*
X5368822D2*
X5408192Y3193575D1*
Y3177827D1*
X5368822Y3185701D1*
G37*
X4868822Y2776701D2*
D13*
Y3294386D1*
X4578822Y2776701D2*
Y3294386D1*
X4723822Y3274701D2*
X4829451D1*
G36*
X4868822D2*
X4829451Y3266827D1*
Y3282575D1*
X4868822Y3274701D1*
G37*
X4723822D2*
D13*
X4618192D1*
G36*
X4578822D2*
X4618192Y3282575D1*
Y3266827D1*
X4578822Y3274701D1*
G37*
X4078822Y2776701D2*
D13*
Y3267386D1*
X3788822Y2776701D2*
Y3267386D1*
X3933822Y3247701D2*
X4039451D1*
G36*
X4078822D2*
X4039451Y3239827D1*
Y3255575D1*
X4078822Y3247701D1*
G37*
X3933822D2*
D13*
X3828192D1*
G36*
X3788822D2*
X3828192Y3255575D1*
Y3239827D1*
X3788822Y3247701D1*
G37*
X3288822Y2776701D2*
D13*
Y3316386D1*
X2998822Y2776701D2*
Y3316386D1*
X3143822Y3296701D2*
X3249451D1*
G36*
X3288822D2*
X3249451Y3288827D1*
Y3304575D1*
X3288822Y3296701D1*
G37*
X3143822D2*
D13*
X3038192D1*
G36*
X2998822D2*
X3038192Y3304575D1*
Y3288827D1*
X2998822Y3296701D1*
G37*
X2498822Y2776701D2*
D13*
Y3307386D1*
X2208822Y2776701D2*
Y3307386D1*
X2353822Y3287701D2*
X2459451D1*
G36*
X2498822D2*
X2459451Y3279827D1*
Y3295575D1*
X2498822Y3287701D1*
G37*
X2353822D2*
D13*
X2248192D1*
G36*
X2208822D2*
X2248192Y3295575D1*
Y3279827D1*
X2208822Y3287701D1*
G37*
X1708822Y2776701D2*
D13*
Y3386386D1*
X1418822Y2776701D2*
Y3386386D1*
X1563822Y3366701D2*
X1669451D1*
G36*
X1708822D2*
X1669451Y3358827D1*
Y3374575D1*
X1708822Y3366701D1*
G37*
X1563822D2*
D13*
X1458192D1*
G36*
X1418822D2*
X1458192Y3374575D1*
Y3358827D1*
X1418822Y3366701D1*
G37*
Y2776701D2*
D13*
X1724756D1*
X1708822D2*
X1685386D1*
X1705071D2*
D3*
Y2835756D2*
Y2816071D1*
G36*
Y2776701D2*
X1697197Y2816071D1*
X1712945D1*
X1705071Y2776701D1*
G37*
Y2717646D2*
D13*
Y2737331D1*
G36*
Y2776701D2*
X1712945Y2737331D1*
X1697197D1*
X1705071Y2776701D1*
G37*
Y2710536D2*
D13*
Y2776701D1*
X2208822D2*
X2467756D1*
X2498822D2*
X2428386D1*
X2448071D2*
D3*
Y2835756D2*
Y2816071D1*
G36*
Y2776701D2*
X2440197Y2816071D1*
X2455945D1*
X2448071Y2776701D1*
G37*
Y2717646D2*
D13*
Y2737331D1*
G36*
Y2776701D2*
X2455945Y2737331D1*
X2440197D1*
X2448071Y2776701D1*
G37*
Y2710536D2*
D13*
Y2776701D1*
X2998822D2*
X3237756D1*
X3288822D2*
X3198386D1*
X3218071D2*
D3*
Y2835756D2*
Y2816071D1*
G36*
Y2776701D2*
X3210197Y2816071D1*
X3225945D1*
X3218071Y2776701D1*
G37*
Y2717646D2*
D13*
Y2737331D1*
G36*
Y2776701D2*
X3225945Y2737331D1*
X3210197D1*
X3218071Y2776701D1*
G37*
Y2710536D2*
D13*
Y2776701D1*
X3788822D2*
X4016756D1*
X4078822D2*
X3977386D1*
X3997071D2*
D3*
Y2835756D2*
Y2816071D1*
G36*
Y2776701D2*
X3989197Y2816071D1*
X4004945D1*
X3997071Y2776701D1*
G37*
Y2717646D2*
D13*
Y2737331D1*
G36*
Y2776701D2*
X4004945Y2737331D1*
X3989197D1*
X3997071Y2776701D1*
G37*
Y2710536D2*
D13*
Y2776701D1*
X4578822D2*
X4761756D1*
X4868822D2*
X4722386D1*
X4742071D2*
D3*
Y2835756D2*
Y2816071D1*
G36*
Y2776701D2*
X4734197Y2816071D1*
X4749945D1*
X4742071Y2776701D1*
G37*
Y2717646D2*
D13*
Y2737331D1*
G36*
Y2776701D2*
X4749945Y2737331D1*
X4734197D1*
X4742071Y2776701D1*
G37*
Y2710536D2*
D13*
Y2776701D1*
X5368822D2*
X5550756D1*
X5658822D2*
X5511386D1*
X5531071D2*
D3*
Y2835756D2*
Y2816071D1*
G36*
Y2776701D2*
X5523197Y2816071D1*
X5538945D1*
X5531071Y2776701D1*
G37*
Y2717646D2*
D13*
Y2737331D1*
G36*
Y2776701D2*
X5538945Y2737331D1*
X5523197D1*
X5531071Y2776701D1*
G37*
Y2710536D2*
D13*
Y2776701D1*
X6158822D2*
X6292756D1*
X6448822D2*
X6253386D1*
X6273071D2*
D3*
Y2835756D2*
Y2816071D1*
G36*
Y2776701D2*
X6265197Y2816071D1*
X6280945D1*
X6273071Y2776701D1*
G37*
Y2717646D2*
D13*
Y2737331D1*
G36*
Y2776701D2*
X6280945Y2737331D1*
X6265197D1*
X6273071Y2776701D1*
G37*
Y2710536D2*
D13*
Y2776701D1*
X1851822Y1493701D2*
Y1722386D1*
X3220571Y1199951D2*
Y1722386D1*
X2536196Y1702701D2*
X1891192D1*
G36*
X1851822D2*
X1891192Y1710575D1*
Y1694827D1*
X1851822Y1702701D1*
G37*
X2536196D2*
D13*
X3181201D1*
G36*
X3220571D2*
X3181201Y1694827D1*
Y1710575D1*
X3220571Y1702701D1*
G37*
X2651822Y1493701D2*
D13*
Y1684386D1*
X4008068Y1206201D2*
Y1684386D1*
X3329945Y1664701D2*
X2691192D1*
G36*
X2651822D2*
X2691192Y1672575D1*
Y1656827D1*
X2651822Y1664701D1*
G37*
X3329945D2*
D13*
X3968698D1*
G36*
X4008068D2*
X3968698Y1656827D1*
Y1672575D1*
X4008068Y1664701D1*
G37*
X3451822Y1493701D2*
D13*
Y1704386D1*
X3951819Y1493701D2*
Y1704386D1*
X3701820Y1684701D2*
X3491192D1*
G36*
X3451822D2*
X3491192Y1692575D1*
Y1676827D1*
X3451822Y1684701D1*
G37*
X3701820D2*
D13*
X3912449D1*
G36*
X3951819D2*
X3912449Y1676827D1*
Y1692575D1*
X3951819Y1684701D1*
G37*
X4251819Y1493701D2*
D13*
Y1670386D1*
X4751822Y1496701D2*
Y1670386D1*
X4501820Y1650701D2*
X4291189D1*
G36*
X4251819D2*
X4291189Y1658575D1*
Y1642827D1*
X4251819Y1650701D1*
G37*
X4501820D2*
D13*
X4712451D1*
G36*
X4751822D2*
X4712451Y1642827D1*
Y1658575D1*
X4751822Y1650701D1*
G37*
X5051822Y1496701D2*
D13*
Y1642386D1*
X5551858Y1491701D2*
Y1642386D1*
X5301840Y1622701D2*
X5091192D1*
G36*
X5051822D2*
X5091192Y1630575D1*
Y1614827D1*
X5051822Y1622701D1*
G37*
X5301840D2*
D13*
X5512488D1*
G36*
X5551858D2*
X5512488Y1614827D1*
Y1630575D1*
X5551858Y1622701D1*
G37*
X5851858Y1491701D2*
D13*
Y1712386D1*
X6308084Y1493701D2*
Y1712386D1*
X6079971Y1692701D2*
X5891228D1*
G36*
X5851858D2*
X5891228Y1700575D1*
Y1684827D1*
X5851858Y1692701D1*
G37*
X6079971D2*
D13*
X6268714D1*
G36*
X6308084D2*
X6268714Y1684827D1*
Y1700575D1*
X6308084Y1692701D1*
G37*
X6608084Y1493701D2*
D13*
Y1680386D1*
X6930071Y1499950D2*
Y1680386D1*
X6769077Y1660701D2*
X6647454D1*
G36*
X6608084D2*
X6647454Y1668575D1*
Y1652827D1*
X6608084Y1660701D1*
G37*
X6769077D2*
D13*
X6890701D1*
G36*
X6930071D2*
X6890701Y1652827D1*
Y1668575D1*
X6930071Y1660701D1*
G37*
X2420570Y1206201D2*
D13*
Y1444386D1*
X1381833Y1493898D2*
Y1405016D1*
X1901201Y1424701D2*
X2381199D1*
G36*
X2420570D2*
X2381199Y1416827D1*
Y1432575D1*
X2420570Y1424701D1*
G37*
X1901201D2*
D13*
X1421203D1*
G36*
X1381833D2*
X1421203Y1432575D1*
Y1416827D1*
X1381833Y1424701D1*
G37*
X2181833Y1493898D2*
D13*
Y1407349D1*
X3220571Y1199951D2*
Y1446719D1*
X2701202Y1427034D2*
X2221203D1*
G36*
X2181833D2*
X2221203Y1434908D1*
Y1419160D1*
X2181833Y1427034D1*
G37*
X2701202D2*
D13*
X3181201D1*
G36*
X3220571D2*
X3181201Y1419160D1*
Y1434908D1*
X3220571Y1427034D1*
G37*
X2964071Y1493898D2*
D13*
Y1422441D1*
X4008068Y1206201D2*
Y1461811D1*
X3486070Y1442126D2*
X3003441D1*
G36*
X2964071D2*
X3003441Y1450000D1*
Y1434252D1*
X2964071Y1442126D1*
G37*
X3486070D2*
D13*
X3968698D1*
G36*
X4008068D2*
X3968698Y1434252D1*
Y1450000D1*
X4008068Y1442126D1*
G37*
X3781831Y1493898D2*
D13*
Y1428084D1*
X3951819Y1493701D2*
Y1428084D1*
X3781831Y1447769D2*
X3951819D1*
X3722776D2*
X3742461D1*
G36*
X3781831D2*
X3742461Y1439895D1*
Y1455643D1*
X3781831Y1447769D1*
G37*
X4010874D2*
D13*
X3991189D1*
G36*
X3951819D2*
X3991189Y1455643D1*
Y1439895D1*
X3951819Y1447769D1*
G37*
X4581820Y1497147D2*
D13*
Y1424016D1*
X4751822Y1496701D2*
Y1424016D1*
X4581820Y1443701D2*
X4751822D1*
X4522765D2*
X4542450D1*
G36*
X4581820D2*
X4542450Y1435827D1*
Y1451575D1*
X4581820Y1443701D1*
G37*
X4810877D2*
D13*
X4791192D1*
G36*
X4751822D2*
X4791192Y1451575D1*
Y1435827D1*
X4751822Y1443701D1*
G37*
X5381883Y1491898D2*
D13*
Y1423097D1*
X5551858Y1491701D2*
Y1423097D1*
X5381883Y1442782D2*
X5551858D1*
X5322828D2*
X5342513D1*
G36*
X5381883D2*
X5342513Y1434908D1*
Y1450656D1*
X5381883Y1442782D1*
G37*
X5610913D2*
D13*
X5591228D1*
G36*
X5551858D2*
X5591228Y1450656D1*
Y1434908D1*
X5551858Y1442782D1*
G37*
X6138096Y1493898D2*
D13*
Y1414567D1*
X6308084Y1493701D2*
Y1414567D1*
X6138096Y1434252D2*
X6308084D1*
X6079041D2*
X6098726D1*
G36*
X6138096D2*
X6098726Y1426378D1*
Y1442126D1*
X6138096Y1434252D1*
G37*
X6367139D2*
D13*
X6347454D1*
G36*
X6308084D2*
X6347454Y1442126D1*
Y1426378D1*
X6308084Y1434252D1*
G37*
X6785031Y1409148D2*
D13*
Y1471129D1*
X6930071Y1499950D2*
Y1431759D1*
X6785031Y1451444D2*
X6930071D1*
X6725976D2*
X6745661D1*
G36*
X6785031D2*
X6745661Y1443570D1*
Y1459318D1*
X6785031Y1451444D1*
G37*
X6989126D2*
D13*
X6969441D1*
G36*
X6930071D2*
X6969441Y1459318D1*
Y1443570D1*
X6930071Y1451444D1*
G37*
X2420571Y937451D2*
D13*
Y2887386D1*
X405232Y3138075D2*
Y2848016D1*
X1412902Y2867701D2*
X2381201D1*
G36*
X2420571D2*
X2381201Y2859827D1*
Y2875575D1*
X2420571Y2867701D1*
G37*
X1412902D2*
D13*
X444602D1*
G36*
X405232D2*
X444602Y2875575D1*
Y2859827D1*
X405232Y2867701D1*
G37*
X2420571Y937451D2*
D13*
X332386D1*
X405232Y3138075D2*
X332386D1*
X352071Y2037763D2*
Y976822D1*
G36*
Y937451D2*
X344197Y976822D1*
X359945D1*
X352071Y937451D1*
G37*
Y2037763D2*
D13*
Y3098705D1*
G36*
Y3138075D2*
X359945Y3098705D1*
X344197D1*
X352071Y3138075D1*
G37*
X2964071Y1568701D2*
D13*
Y2906562D1*
X7271933Y3138075D2*
Y2867192D1*
X5118002Y2886877D2*
X3003441D1*
G36*
X2964071D2*
X3003441Y2894751D1*
Y2879003D1*
X2964071Y2886877D1*
G37*
X5118002D2*
D13*
X7232563D1*
G36*
X7271933D2*
X7232563Y2879003D1*
Y2894751D1*
X7271933Y2886877D1*
G37*
X2964071Y1568701D2*
D13*
X7566798D1*
X7271933Y3138075D2*
X7566798D1*
X7547113Y2353388D2*
Y1608071D1*
G36*
Y1568701D2*
X7539239Y1608071D1*
X7554987D1*
X7547113Y1568701D1*
G37*
Y2353388D2*
D13*
Y3098705D1*
G36*
Y3138075D2*
X7554987Y3098705D1*
X7539239D1*
X7547113Y3138075D1*
G37*
X1620571Y937450D2*
D13*
Y618635D1*
X7271933Y405232D2*
Y658005D1*
X4446252Y638320D2*
X1659941D1*
G36*
X1620571D2*
X1659941Y646194D1*
Y630446D1*
X1620571Y638320D1*
G37*
X4446252D2*
D13*
X7232563D1*
G36*
X7271933D2*
X7232563Y630446D1*
Y646194D1*
X7271933Y638320D1*
G37*
X1620571Y937450D2*
D13*
X7418898D1*
X7271933Y405232D2*
X7418898D1*
X7399213Y671341D2*
Y898080D1*
G36*
Y937450D2*
X7407087Y898080D1*
X7391339D1*
X7399213Y937450D1*
G37*
Y671341D2*
D13*
Y444602D1*
G36*
Y405232D2*
X7391339Y444602D1*
X7407087D1*
X7399213Y405232D1*
G37*
X7161940Y3028026D2*
D13*
Y3241732D1*
X7271933Y3138075D2*
Y3241732D1*
X7216936Y3222047D2*
X7201310D1*
G36*
X7161940D2*
X7201310Y3229921D1*
Y3214173D1*
X7161940Y3222047D1*
G37*
X7216936D2*
D13*
X7232563D1*
G36*
X7271933D2*
X7232563Y3214173D1*
Y3229921D1*
X7271933Y3222047D1*
G37*
X7430687D2*
D13*
X7271933D1*
X7161940Y3028026D2*
X7401969D1*
X7271933Y3138075D2*
X7401969D1*
X7382283D2*
Y3028026D1*
Y3197130D2*
Y3177445D1*
G36*
Y3138075D2*
X7374409Y3177445D1*
X7390157D1*
X7382283Y3138075D1*
G37*
Y2968971D2*
D13*
Y2988656D1*
G36*
Y3028026D2*
X7390157Y2988656D1*
X7374409D1*
X7382283Y3028026D1*
G37*
X515190Y515189D2*
D13*
Y308016D1*
X405232Y405232D2*
Y308016D1*
X460211Y327701D2*
X475820D1*
G36*
X515190D2*
X475820Y319827D1*
Y335575D1*
X515190Y327701D1*
G37*
X460211D2*
D13*
X444602D1*
G36*
X405232D2*
X444602Y335575D1*
Y319827D1*
X405232Y327701D1*
G37*
X673944D2*
D13*
X515190D1*
Y515189D2*
X257386D1*
X405232Y405232D2*
X257386D1*
X277071Y460211D2*
Y475819D1*
G36*
Y515189D2*
X284945Y475819D1*
X269197D1*
X277071Y515189D1*
G37*
Y460211D2*
D13*
Y444602D1*
G36*
Y405232D2*
X269197Y444602D1*
X284945D1*
X277071Y405232D1*
G37*
Y673943D2*
D13*
Y515189D1*
X7161877Y515289D2*
Y234383D1*
X7271933Y405232D2*
Y234383D1*
X7161877Y254068D2*
X7271933D1*
X7102822D2*
X7122507D1*
G36*
X7161877D2*
X7122507Y246194D1*
Y261942D1*
X7161877Y254068D1*
G37*
X7330988D2*
D13*
X7311303D1*
G36*
X7271933D2*
X7311303Y261942D1*
Y246194D1*
X7271933Y254068D1*
G37*
X7161877Y515289D2*
D13*
X7546063D1*
X7271933Y405232D2*
X7546063D1*
X7526378Y515289D2*
Y405232D1*
Y574344D2*
Y554659D1*
G36*
Y515289D2*
X7518504Y554659D1*
X7534252D1*
X7526378Y515289D1*
G37*
Y346177D2*
D13*
Y365862D1*
G36*
Y405232D2*
X7534252Y365862D1*
X7518504D1*
X7526378Y405232D1*
G37*
X405232Y3138075D2*
D13*
Y3604068D1*
X7271933Y3138075D2*
Y3604068D1*
X3838583Y3584383D2*
X444602D1*
G36*
X405232D2*
X444602Y3592257D1*
Y3576509D1*
X405232Y3584383D1*
G37*
X3838583D2*
D13*
X7232563D1*
G36*
X7271933D2*
X7232563Y3576509D1*
Y3592257D1*
X7271933Y3584383D1*
G37*
Y3138075D2*
D13*
X7711417D1*
X7271933Y405232D2*
X7711417D1*
X7691732Y1771654D2*
Y3098705D1*
G36*
Y3138075D2*
X7699606Y3098705D1*
X7683858D1*
X7691732Y3138075D1*
G37*
Y1771654D2*
D13*
Y444602D1*
G36*
Y405232D2*
X7683858Y444602D1*
X7699606D1*
X7691732Y405232D1*
G37*
X6090551Y633858D2*
D13*
X6370079D1*
X6555118D2*
X6330709D1*
X6350394D2*
D3*
Y692913D2*
Y673228D1*
G36*
Y633858D2*
X6342520Y673228D1*
X6358268D1*
X6350394Y633858D1*
G37*
Y574803D2*
D13*
Y594488D1*
G36*
Y633858D2*
X6358268Y594488D1*
X6342520D1*
X6350394Y633858D1*
G37*
Y567694D2*
D13*
Y633858D1*
X554300Y3330258D2*
D118*
Y3332159D1*
X556201Y3336006D1*
X558102Y3337907D1*
X561949Y3339809D1*
X569598D1*
X573401Y3337907D1*
X575302Y3336006D1*
X577247Y3332159D1*
Y3328357D1*
X575302Y3324510D1*
X571499Y3318806D1*
X552354Y3299661D1*
X579149D1*
X593401Y3303508D2*
X591500Y3301562D1*
X593401Y3299661D1*
X595347Y3301562D1*
X593401Y3303508D1*
X615348Y3299661D2*
X634493Y3339809D1*
X607698D1*
X671738Y3326456D2*
X669792Y3320708D1*
X665990Y3316861D1*
X660242Y3314959D1*
X658340D1*
X652592Y3316861D1*
X648790Y3320708D1*
X646844Y3326456D1*
Y3328357D1*
X648790Y3334105D1*
X652592Y3337907D1*
X658340Y3339809D1*
X660242D1*
X665990Y3337907D1*
X669792Y3334105D1*
X671738Y3326456D1*
Y3316861D1*
X669792Y3307310D1*
X665990Y3301562D1*
X660242Y3299661D1*
X656439D1*
X650691Y3301562D1*
X648790Y3305409D1*
X190263Y3200185D2*
X188362D1*
X184515Y3202087D1*
X182614Y3203988D1*
X180712Y3207835D1*
Y3215484D1*
X182614Y3219287D1*
X184515Y3221188D1*
X188362Y3223133D1*
X192164D1*
X196011Y3221188D1*
X201715Y3217385D1*
X220860Y3198240D1*
Y3225035D1*
X217013Y3239287D2*
X218959Y3237386D1*
X220860Y3239287D1*
X218959Y3241233D1*
X217013Y3239287D1*
X220860Y3261233D2*
X180712Y3280379D1*
Y3253584D1*
X194065Y3317624D2*
X199813Y3315678D1*
X203660Y3311876D1*
X205562Y3306128D1*
Y3304226D1*
X203660Y3298478D1*
X199813Y3294676D1*
X194065Y3292730D1*
X192164D1*
X186416Y3294676D1*
X182614Y3298478D1*
X180712Y3304226D1*
Y3306128D1*
X182614Y3311876D1*
X186416Y3315678D1*
X194065Y3317624D1*
X203660D1*
X213211Y3315678D1*
X218959Y3311876D1*
X220860Y3306128D1*
Y3302325D1*
X218959Y3296577D1*
X215112Y3294676D1*
X4592826Y-30341D2*
X4596673Y-28395D1*
X4602421Y-22691D1*
Y-62839D1*
X4626269Y-22691D2*
X4620521Y-24593D1*
X4616674Y-30341D1*
X4614773Y-39891D1*
Y-45639D1*
X4616674Y-55190D1*
X4620521Y-60938D1*
X4626269Y-62839D1*
X4630071D1*
X4635819Y-60938D1*
X4639622Y-55190D1*
X4641567Y-45639D1*
Y-39891D1*
X4639622Y-30341D1*
X4635819Y-24593D1*
X4630071Y-22691D1*
X4626269D1*
X4639622Y-30341D2*
X4616674Y-55190D1*
X4655820Y-58992D2*
X4653919Y-60938D1*
X4655820Y-62839D1*
X4657765Y-60938D1*
X4655820Y-58992D1*
X4670117Y-30341D2*
X4673964Y-28395D1*
X4679712Y-22691D1*
Y-62839D1*
X4715011Y-28395D2*
X4713110Y-24593D1*
X4707362Y-22691D1*
X4703559D1*
X4697811Y-24593D1*
X4693964Y-30341D1*
X4692063Y-39891D1*
Y-49442D1*
X4693964Y-57091D1*
X4697811Y-60938D1*
X4703559Y-62839D1*
X4705460D1*
X4711164Y-60938D1*
X4715011Y-57091D1*
X4716912Y-51343D1*
Y-49442D1*
X4715011Y-43694D1*
X4711164Y-39891D1*
X4705460Y-37990D1*
X4703559D1*
X4697811Y-39891D1*
X4693964Y-43694D1*
X4692063Y-49442D1*
X5004180Y432273D2*
X5002279Y438021D1*
X4996531Y441868D1*
X4986980Y443769D1*
X4981232D1*
X4971682Y441868D1*
X4965934Y438021D1*
X4964032Y432273D1*
Y428471D1*
X4965934Y422723D1*
X4971682Y418920D1*
X4981232Y416975D1*
X4986980D1*
X4996531Y418920D1*
X5002279Y422723D1*
X5004180Y428471D1*
Y432273D1*
X4996531Y418920D2*
X4971682Y441868D1*
X5847929Y432275D2*
X5846028Y438023D1*
X5840280Y441869D1*
X5830730Y443771D1*
X5824982D1*
X5815431Y441869D1*
X5809683Y438023D1*
X5807782Y432275D1*
Y428472D1*
X5809683Y422724D1*
X5815431Y418921D1*
X5824982Y416976D1*
X5830730D1*
X5840280Y418921D1*
X5846028Y422724D1*
X5847929Y428472D1*
Y432275D1*
X5840280Y418921D2*
X5815431Y441869D1*
X6591679Y432275D2*
X6589777Y438023D1*
X6584029Y441869D1*
X6574479Y443771D1*
X6568731D1*
X6559180Y441869D1*
X6553432Y438023D1*
X6551531Y432275D1*
Y428472D1*
X6553432Y422724D1*
X6559180Y418921D1*
X6568731Y416976D1*
X6574479D1*
X6584029Y418921D1*
X6589777Y422724D1*
X6591679Y428472D1*
Y432275D1*
X6584029Y418921D2*
X6559180Y441869D1*
X5858489Y2099661D2*
Y2139809D1*
X5839343Y2113058D1*
X5868039D1*
X5891887Y2139809D2*
X5886139Y2137907D1*
X5882292Y2132159D1*
X5880391Y2122609D1*
Y2116861D1*
X5882292Y2107310D1*
X5886139Y2101562D1*
X5891887Y2099661D1*
X5895689D1*
X5901437Y2101562D1*
X5905240Y2107310D1*
X5907185Y2116861D1*
Y2122609D1*
X5905240Y2132159D1*
X5901437Y2137907D1*
X5895689Y2139809D1*
X5891887D1*
X5905240Y2132159D2*
X5882292Y2107310D1*
X5921438Y2103508D2*
X5919537Y2101562D1*
X5921438Y2099661D1*
X5923383Y2101562D1*
X5921438Y2103508D1*
X5935735Y2132159D2*
X5939581Y2134105D1*
X5945330Y2139809D1*
Y2099661D1*
X5961528Y2139809D2*
X5982530D1*
X5971078Y2124510D1*
X5976826D1*
X5980629Y2122609D1*
X5982530Y2120708D1*
X5984476Y2114959D1*
Y2111157D1*
X5982530Y2105409D1*
X5978728Y2101562D1*
X5972980Y2099661D1*
X5967231D1*
X5961528Y2101562D1*
X5959626Y2103508D1*
X5957681Y2107310D1*
X5970951Y2208559D2*
X5965203Y2206658D1*
X5961356Y2200910D1*
X5959455Y2191359D1*
Y2185611D1*
X5961356Y2176061D1*
X5965203Y2170313D1*
X5970951Y2168412D1*
X5974754D1*
X5980502Y2170313D1*
X5984304Y2176061D1*
X5986250Y2185611D1*
Y2191359D1*
X5984304Y2200910D1*
X5980502Y2206658D1*
X5974754Y2208559D1*
X5970951D1*
X5984304Y2200910D2*
X5961356Y2176061D1*
X6000502Y2172258D2*
X5998601Y2170313D1*
X6000502Y2168412D1*
X6002448Y2170313D1*
X6000502Y2172258D1*
X6026295Y2208559D2*
X6020547Y2206658D1*
X6016701Y2200910D1*
X6014799Y2191359D1*
Y2185611D1*
X6016701Y2176061D1*
X6020547Y2170313D1*
X6026295Y2168412D1*
X6030098D1*
X6035846Y2170313D1*
X6039649Y2176061D1*
X6041594Y2185611D1*
Y2191359D1*
X6039649Y2200910D1*
X6035846Y2206658D1*
X6030098Y2208559D1*
X6026295D1*
X6039649Y2200910D2*
X6016701Y2176061D1*
X6076893Y2208559D2*
X6057792D1*
X6055891Y2191359D1*
X6057792Y2193261D1*
X6063540Y2195206D1*
X6069244D1*
X6074992Y2193261D1*
X6078839Y2189458D1*
X6080740Y2183710D1*
Y2179908D1*
X6078839Y2174160D1*
X6074992Y2170313D1*
X6069244Y2168412D1*
X6063540D1*
X6057792Y2170313D1*
X6055891Y2172258D1*
X6053945Y2176061D1*
X5178951Y2146059D2*
X5173203Y2144158D1*
X5169356Y2138410D1*
X5167455Y2128859D1*
Y2123111D1*
X5169356Y2113561D1*
X5173203Y2107813D1*
X5178951Y2105912D1*
X5182754D1*
X5188502Y2107813D1*
X5192304Y2113561D1*
X5194250Y2123111D1*
Y2128859D1*
X5192304Y2138410D1*
X5188502Y2144158D1*
X5182754Y2146059D1*
X5178951D1*
X5192304Y2138410D2*
X5169356Y2113561D1*
X4388951Y2139809D2*
X4383203Y2137907D1*
X4379356Y2132159D1*
X4377455Y2122609D1*
Y2116861D1*
X4379356Y2107310D1*
X4383203Y2101562D1*
X4388951Y2099661D1*
X4392754D1*
X4398502Y2101562D1*
X4402304Y2107310D1*
X4404250Y2116861D1*
Y2122609D1*
X4402304Y2132159D1*
X4398502Y2137907D1*
X4392754Y2139809D1*
X4388951D1*
X4402304Y2132159D2*
X4379356Y2107310D1*
X3858639Y2149009D2*
Y2150910D1*
X3860541Y2154757D1*
X3862442Y2156658D1*
X3866289Y2158559D1*
X3873938D1*
X3877740Y2156658D1*
X3879642Y2154757D1*
X3881587Y2150910D1*
Y2147107D1*
X3879642Y2143261D1*
X3875839Y2137557D1*
X3856694Y2118412D1*
X3883489D1*
X3907336Y2158559D2*
X3901588Y2156658D1*
X3897741Y2150910D1*
X3895840Y2141359D1*
Y2135611D1*
X3897741Y2126061D1*
X3901588Y2120313D1*
X3907336Y2118412D1*
X3911139D1*
X3916887Y2120313D1*
X3920689Y2126061D1*
X3922635Y2135611D1*
Y2141359D1*
X3920689Y2150910D1*
X3916887Y2156658D1*
X3911139Y2158559D1*
X3907336D1*
X3920689Y2150910D2*
X3897741Y2126061D1*
X3936887Y2122258D2*
X3934986Y2120313D1*
X3936887Y2118412D1*
X3938833Y2120313D1*
X3936887Y2122258D1*
X3962680Y2158559D2*
X3956932Y2156658D1*
X3953085Y2150910D1*
X3951184Y2141359D1*
Y2135611D1*
X3953085Y2126061D1*
X3956932Y2120313D1*
X3962680Y2118412D1*
X3966483D1*
X3972231Y2120313D1*
X3976033Y2126061D1*
X3977979Y2135611D1*
Y2141359D1*
X3976033Y2150910D1*
X3972231Y2156658D1*
X3966483Y2158559D1*
X3962680D1*
X3976033Y2150910D2*
X3953085Y2126061D1*
X3997980Y2118412D2*
X4017125Y2158559D1*
X3990330D1*
X2808951Y2189810D2*
X2803203Y2187909D1*
X2799356Y2182161D1*
X2797455Y2172610D1*
Y2166862D1*
X2799356Y2157312D1*
X2803203Y2151563D1*
X2808951Y2149662D1*
X2812754D1*
X2818502Y2151563D1*
X2822304Y2157312D1*
X2824250Y2166862D1*
Y2172610D1*
X2822304Y2182161D1*
X2818502Y2187909D1*
X2812754Y2189810D1*
X2808951D1*
X2822304Y2182161D2*
X2799356Y2157312D1*
X2698489Y2118412D2*
Y2158559D1*
X2679343Y2131809D1*
X2708039D1*
X2731887Y2158559D2*
X2726139Y2156658D1*
X2722292Y2150910D1*
X2720391Y2141359D1*
Y2135611D1*
X2722292Y2126061D1*
X2726139Y2120313D1*
X2731887Y2118412D1*
X2735689D1*
X2741437Y2120313D1*
X2745240Y2126061D1*
X2747185Y2135611D1*
Y2141359D1*
X2745240Y2150910D1*
X2741437Y2156658D1*
X2735689Y2158559D1*
X2731887D1*
X2745240Y2150910D2*
X2722292Y2126061D1*
X2761438Y2122258D2*
X2759537Y2120313D1*
X2761438Y2118412D1*
X2763383Y2120313D1*
X2761438Y2122258D1*
X2775735Y2150910D2*
X2779581Y2152856D1*
X2785330Y2158559D1*
Y2118412D1*
X2801528Y2158559D2*
X2822530D1*
X2811078Y2143261D1*
X2816826D1*
X2820629Y2141359D1*
X2822530Y2139458D1*
X2824476Y2133710D1*
Y2129908D1*
X2822530Y2124160D1*
X2818728Y2120313D1*
X2812980Y2118412D1*
X2807231D1*
X2801528Y2120313D1*
X2799626Y2122258D1*
X2797681Y2126061D1*
X1228951Y2189810D2*
X1223203Y2187909D1*
X1219356Y2182161D1*
X1217455Y2172610D1*
Y2166862D1*
X1219356Y2157312D1*
X1223203Y2151563D1*
X1228951Y2149662D1*
X1232754D1*
X1238502Y2151563D1*
X1242304Y2157312D1*
X1244250Y2166862D1*
Y2172610D1*
X1242304Y2182161D1*
X1238502Y2187909D1*
X1232754Y2189810D1*
X1228951D1*
X1242304Y2182161D2*
X1219356Y2157312D1*
X1221780Y2612606D2*
X1223726Y2608760D1*
X1229429Y2603012D1*
X1189282D1*
X1221780Y2590660D2*
X1223726Y2586814D1*
X1229429Y2581065D1*
X1189282D1*
X1193128Y2566813D2*
X1191183Y2568714D1*
X1189282Y2566813D1*
X1191183Y2564867D1*
X1193128Y2566813D1*
X1229429Y2548669D2*
Y2527667D1*
X1214131Y2539119D1*
Y2533371D1*
X1212230Y2529568D1*
X1210328Y2527667D1*
X1204580Y2525721D1*
X1200778D1*
X1195030Y2527667D1*
X1191183Y2531469D1*
X1189282Y2537217D1*
Y2542965D1*
X1191183Y2548669D1*
X1193128Y2550570D1*
X1196931Y2552516D1*
X1229429Y2503819D2*
X1227528Y2509523D1*
X1223726Y2511469D1*
X1219879D1*
X1216076Y2509523D1*
X1214131Y2505721D1*
X1212230Y2498071D1*
X1210328Y2492323D1*
X1206482Y2488521D1*
X1202679Y2486619D1*
X1196931D1*
X1193128Y2488521D1*
X1191183Y2490422D1*
X1189282Y2496170D1*
Y2503819D1*
X1191183Y2509523D1*
X1193128Y2511469D1*
X1196931Y2513370D1*
X1202679D1*
X1206482Y2511469D1*
X1210328Y2507622D1*
X1212230Y2501918D1*
X1214131Y2494269D1*
X1216076Y2490422D1*
X1219879Y2488521D1*
X1223726D1*
X1227528Y2490422D1*
X1229429Y2496170D1*
Y2503819D1*
X1946780Y2612606D2*
X1948726Y2608760D1*
X1954429Y2603012D1*
X1914282D1*
X1946780Y2590660D2*
X1948726Y2586814D1*
X1954429Y2581065D1*
X1914282D1*
X1918128Y2566813D2*
X1916183Y2568714D1*
X1914282Y2566813D1*
X1916183Y2564867D1*
X1918128Y2566813D1*
X1954429Y2548669D2*
Y2527667D1*
X1939131Y2539119D1*
Y2533371D1*
X1937230Y2529568D1*
X1935328Y2527667D1*
X1929580Y2525721D1*
X1925778D1*
X1920030Y2527667D1*
X1916183Y2531469D1*
X1914282Y2537217D1*
Y2542965D1*
X1916183Y2548669D1*
X1918128Y2550570D1*
X1921931Y2552516D1*
X1954429Y2503819D2*
X1952528Y2509523D1*
X1948726Y2511469D1*
X1944879D1*
X1941076Y2509523D1*
X1939131Y2505721D1*
X1937230Y2498071D1*
X1935328Y2492323D1*
X1931482Y2488521D1*
X1927679Y2486619D1*
X1921931D1*
X1918128Y2488521D1*
X1916183Y2490422D1*
X1914282Y2496170D1*
Y2503819D1*
X1916183Y2509523D1*
X1918128Y2511469D1*
X1921931Y2513370D1*
X1927679D1*
X1931482Y2511469D1*
X1935328Y2507622D1*
X1937230Y2501918D1*
X1939131Y2494269D1*
X1941076Y2490422D1*
X1944879Y2488521D1*
X1948726D1*
X1952528Y2490422D1*
X1954429Y2496170D1*
Y2503819D1*
X2731780Y2612606D2*
X2733726Y2608760D1*
X2739429Y2603012D1*
X2699282D1*
X2731780Y2590660D2*
X2733726Y2586814D1*
X2739429Y2581065D1*
X2699282D1*
X2703128Y2566813D2*
X2701183Y2568714D1*
X2699282Y2566813D1*
X2701183Y2564867D1*
X2703128Y2566813D1*
X2739429Y2548669D2*
Y2527667D1*
X2724131Y2539119D1*
Y2533371D1*
X2722230Y2529568D1*
X2720328Y2527667D1*
X2714580Y2525721D1*
X2710778D1*
X2705030Y2527667D1*
X2701183Y2531469D1*
X2699282Y2537217D1*
Y2542965D1*
X2701183Y2548669D1*
X2703128Y2550570D1*
X2706931Y2552516D1*
X2739429Y2503819D2*
X2737528Y2509523D1*
X2733726Y2511469D1*
X2729879D1*
X2726076Y2509523D1*
X2724131Y2505721D1*
X2722230Y2498071D1*
X2720328Y2492323D1*
X2716482Y2488521D1*
X2712679Y2486619D1*
X2706931D1*
X2703128Y2488521D1*
X2701183Y2490422D1*
X2699282Y2496170D1*
Y2503819D1*
X2701183Y2509523D1*
X2703128Y2511469D1*
X2706931Y2513370D1*
X2712679D1*
X2716482Y2511469D1*
X2720328Y2507622D1*
X2722230Y2501918D1*
X2724131Y2494269D1*
X2726076Y2490422D1*
X2729879Y2488521D1*
X2733726D1*
X2737528Y2490422D1*
X2739429Y2496170D1*
Y2503819D1*
X3485780Y2612606D2*
X3487726Y2608760D1*
X3493429Y2603012D1*
X3453282D1*
X3485780Y2590660D2*
X3487726Y2586814D1*
X3493429Y2581065D1*
X3453282D1*
X3457128Y2566813D2*
X3455183Y2568714D1*
X3453282Y2566813D1*
X3455183Y2564867D1*
X3457128Y2566813D1*
X3493429Y2548669D2*
Y2527667D1*
X3478131Y2539119D1*
Y2533371D1*
X3476230Y2529568D1*
X3474328Y2527667D1*
X3468580Y2525721D1*
X3464778D1*
X3459030Y2527667D1*
X3455183Y2531469D1*
X3453282Y2537217D1*
Y2542965D1*
X3455183Y2548669D1*
X3457128Y2550570D1*
X3460931Y2552516D1*
X3493429Y2503819D2*
X3491528Y2509523D1*
X3487726Y2511469D1*
X3483879D1*
X3480076Y2509523D1*
X3478131Y2505721D1*
X3476230Y2498071D1*
X3474328Y2492323D1*
X3470482Y2488521D1*
X3466679Y2486619D1*
X3460931D1*
X3457128Y2488521D1*
X3455183Y2490422D1*
X3453282Y2496170D1*
Y2503819D1*
X3455183Y2509523D1*
X3457128Y2511469D1*
X3460931Y2513370D1*
X3466679D1*
X3470482Y2511469D1*
X3474328Y2507622D1*
X3476230Y2501918D1*
X3478131Y2494269D1*
X3480076Y2490422D1*
X3483879Y2488521D1*
X3487726D1*
X3491528Y2490422D1*
X3493429Y2496170D1*
Y2503819D1*
X3913780Y2612606D2*
X3915726Y2608760D1*
X3921429Y2603012D1*
X3881282D1*
X3913780Y2590660D2*
X3915726Y2586814D1*
X3921429Y2581065D1*
X3881282D1*
X3885128Y2566813D2*
X3883183Y2568714D1*
X3881282Y2566813D1*
X3883183Y2564867D1*
X3885128Y2566813D1*
X3921429Y2548669D2*
Y2527667D1*
X3906131Y2539119D1*
Y2533371D1*
X3904230Y2529568D1*
X3902328Y2527667D1*
X3896580Y2525721D1*
X3892778D1*
X3887030Y2527667D1*
X3883183Y2531469D1*
X3881282Y2537217D1*
Y2542965D1*
X3883183Y2548669D1*
X3885128Y2550570D1*
X3888931Y2552516D1*
X3921429Y2503819D2*
X3919528Y2509523D1*
X3915726Y2511469D1*
X3911879D1*
X3908076Y2509523D1*
X3906131Y2505721D1*
X3904230Y2498071D1*
X3902328Y2492323D1*
X3898482Y2488521D1*
X3894679Y2486619D1*
X3888931D1*
X3885128Y2488521D1*
X3883183Y2490422D1*
X3881282Y2496170D1*
Y2503819D1*
X3883183Y2509523D1*
X3885128Y2511469D1*
X3888931Y2513370D1*
X3894679D1*
X3898482Y2511469D1*
X3902328Y2507622D1*
X3904230Y2501918D1*
X3906131Y2494269D1*
X3908076Y2490422D1*
X3911879Y2488521D1*
X3915726D1*
X3919528Y2490422D1*
X3921429Y2496170D1*
Y2503819D1*
X4263780Y2612606D2*
X4265726Y2608760D1*
X4271429Y2603012D1*
X4231282D1*
X4263780Y2590660D2*
X4265726Y2586814D1*
X4271429Y2581065D1*
X4231282D1*
X4235128Y2566813D2*
X4233183Y2568714D1*
X4231282Y2566813D1*
X4233183Y2564867D1*
X4235128Y2566813D1*
X4271429Y2548669D2*
Y2527667D1*
X4256131Y2539119D1*
Y2533371D1*
X4254230Y2529568D1*
X4252328Y2527667D1*
X4246580Y2525721D1*
X4242778D1*
X4237030Y2527667D1*
X4233183Y2531469D1*
X4231282Y2537217D1*
Y2542965D1*
X4233183Y2548669D1*
X4235128Y2550570D1*
X4238931Y2552516D1*
X4271429Y2503819D2*
X4269528Y2509523D1*
X4265726Y2511469D1*
X4261879D1*
X4258076Y2509523D1*
X4256131Y2505721D1*
X4254230Y2498071D1*
X4252328Y2492323D1*
X4248482Y2488521D1*
X4244679Y2486619D1*
X4238931D1*
X4235128Y2488521D1*
X4233183Y2490422D1*
X4231282Y2496170D1*
Y2503819D1*
X4233183Y2509523D1*
X4235128Y2511469D1*
X4238931Y2513370D1*
X4244679D1*
X4248482Y2511469D1*
X4252328Y2507622D1*
X4254230Y2501918D1*
X4256131Y2494269D1*
X4258076Y2490422D1*
X4261879Y2488521D1*
X4265726D1*
X4269528Y2490422D1*
X4271429Y2496170D1*
Y2503819D1*
X5010780Y2612606D2*
X5012726Y2608760D1*
X5018429Y2603012D1*
X4978282D1*
X5010780Y2590660D2*
X5012726Y2586814D1*
X5018429Y2581065D1*
X4978282D1*
X4982128Y2566813D2*
X4980183Y2568714D1*
X4978282Y2566813D1*
X4980183Y2564867D1*
X4982128Y2566813D1*
X5018429Y2548669D2*
Y2527667D1*
X5003131Y2539119D1*
Y2533371D1*
X5001230Y2529568D1*
X4999328Y2527667D1*
X4993580Y2525721D1*
X4989778D1*
X4984030Y2527667D1*
X4980183Y2531469D1*
X4978282Y2537217D1*
Y2542965D1*
X4980183Y2548669D1*
X4982128Y2550570D1*
X4985931Y2552516D1*
X5018429Y2503819D2*
X5016528Y2509523D1*
X5012726Y2511469D1*
X5008879D1*
X5005076Y2509523D1*
X5003131Y2505721D1*
X5001230Y2498071D1*
X4999328Y2492323D1*
X4995482Y2488521D1*
X4991679Y2486619D1*
X4985931D1*
X4982128Y2488521D1*
X4980183Y2490422D1*
X4978282Y2496170D1*
Y2503819D1*
X4980183Y2509523D1*
X4982128Y2511469D1*
X4985931Y2513370D1*
X4991679D1*
X4995482Y2511469D1*
X4999328Y2507622D1*
X5001230Y2501918D1*
X5003131Y2494269D1*
X5005076Y2490422D1*
X5008879Y2488521D1*
X5012726D1*
X5016528Y2490422D1*
X5018429Y2496170D1*
Y2503819D1*
X5790780Y2612606D2*
X5792726Y2608760D1*
X5798429Y2603012D1*
X5758282D1*
X5790780Y2590660D2*
X5792726Y2586814D1*
X5798429Y2581065D1*
X5758282D1*
X5762128Y2566813D2*
X5760183Y2568714D1*
X5758282Y2566813D1*
X5760183Y2564867D1*
X5762128Y2566813D1*
X5798429Y2548669D2*
Y2527667D1*
X5783131Y2539119D1*
Y2533371D1*
X5781230Y2529568D1*
X5779328Y2527667D1*
X5773580Y2525721D1*
X5769778D1*
X5764030Y2527667D1*
X5760183Y2531469D1*
X5758282Y2537217D1*
Y2542965D1*
X5760183Y2548669D1*
X5762128Y2550570D1*
X5765931Y2552516D1*
X5798429Y2503819D2*
X5796528Y2509523D1*
X5792726Y2511469D1*
X5788879D1*
X5785076Y2509523D1*
X5783131Y2505721D1*
X5781230Y2498071D1*
X5779328Y2492323D1*
X5775482Y2488521D1*
X5771679Y2486619D1*
X5765931D1*
X5762128Y2488521D1*
X5760183Y2490422D1*
X5758282Y2496170D1*
Y2503819D1*
X5760183Y2509523D1*
X5762128Y2511469D1*
X5765931Y2513370D1*
X5771679D1*
X5775482Y2511469D1*
X5779328Y2507622D1*
X5781230Y2501918D1*
X5783131Y2494269D1*
X5785076Y2490422D1*
X5788879Y2488521D1*
X5792726D1*
X5796528Y2490422D1*
X5798429Y2496170D1*
Y2503819D1*
X6566780Y2612606D2*
X6568726Y2608760D1*
X6574429Y2603012D1*
X6534282D1*
X6566780Y2590660D2*
X6568726Y2586814D1*
X6574429Y2581065D1*
X6534282D1*
X6538128Y2566813D2*
X6536183Y2568714D1*
X6534282Y2566813D1*
X6536183Y2564867D1*
X6538128Y2566813D1*
X6574429Y2548669D2*
Y2527667D1*
X6559131Y2539119D1*
Y2533371D1*
X6557230Y2529568D1*
X6555328Y2527667D1*
X6549580Y2525721D1*
X6545778D1*
X6540030Y2527667D1*
X6536183Y2531469D1*
X6534282Y2537217D1*
Y2542965D1*
X6536183Y2548669D1*
X6538128Y2550570D1*
X6541931Y2552516D1*
X6574429Y2503819D2*
X6572528Y2509523D1*
X6568726Y2511469D1*
X6564879D1*
X6561076Y2509523D1*
X6559131Y2505721D1*
X6557230Y2498071D1*
X6555328Y2492323D1*
X6551482Y2488521D1*
X6547679Y2486619D1*
X6541931D1*
X6538128Y2488521D1*
X6536183Y2490422D1*
X6534282Y2496170D1*
Y2503819D1*
X6536183Y2509523D1*
X6538128Y2511469D1*
X6541931Y2513370D1*
X6547679D1*
X6551482Y2511469D1*
X6555328Y2507622D1*
X6557230Y2501918D1*
X6559131Y2494269D1*
X6561076Y2490422D1*
X6564879Y2488521D1*
X6568726D1*
X6572528Y2490422D1*
X6574429Y2496170D1*
Y2503819D1*
X6253916Y3236912D2*
X6273062Y3277059D1*
X6246267D1*
X6287314Y3240758D2*
X6285413Y3238813D1*
X6287314Y3236912D1*
X6289260Y3238813D1*
X6287314Y3240758D1*
X6305458Y3277059D2*
X6326460D1*
X6315008Y3261761D1*
X6320756D1*
X6324559Y3259859D1*
X6326460Y3257958D1*
X6328406Y3252210D1*
Y3248408D1*
X6326460Y3242660D1*
X6322658Y3238813D1*
X6316910Y3236912D1*
X6311162D1*
X6305458Y3238813D1*
X6303557Y3240758D1*
X6301611Y3244561D1*
X6348406Y3236912D2*
X6367552Y3277059D1*
X6340757D1*
X5463916Y3197912D2*
X5483062Y3238059D1*
X5456267D1*
X5497314Y3201758D2*
X5495413Y3199813D1*
X5497314Y3197912D1*
X5499260Y3199813D1*
X5497314Y3201758D1*
X5515458Y3238059D2*
X5536460D1*
X5525008Y3222761D1*
X5530756D1*
X5534559Y3220859D1*
X5536460Y3218958D1*
X5538406Y3213210D1*
Y3209408D1*
X5536460Y3203660D1*
X5532658Y3199813D1*
X5526910Y3197912D1*
X5521162D1*
X5515458Y3199813D1*
X5513557Y3201758D1*
X5511611Y3205561D1*
X5558406Y3197912D2*
X5577552Y3238059D1*
X5550757D1*
X4673916Y3286912D2*
X4693062Y3327059D1*
X4666267D1*
X4707314Y3290758D2*
X4705413Y3288813D1*
X4707314Y3286912D1*
X4709260Y3288813D1*
X4707314Y3290758D1*
X4725458Y3327059D2*
X4746460D1*
X4735008Y3311761D1*
X4740756D1*
X4744559Y3309859D1*
X4746460Y3307958D1*
X4748406Y3302210D1*
Y3298408D1*
X4746460Y3292660D1*
X4742658Y3288813D1*
X4736910Y3286912D1*
X4731162D1*
X4725458Y3288813D1*
X4723557Y3290758D1*
X4721611Y3294561D1*
X4768406Y3286912D2*
X4787552Y3327059D1*
X4760757D1*
X3883916Y3259912D2*
X3903062Y3300059D1*
X3876267D1*
X3917314Y3263758D2*
X3915413Y3261813D1*
X3917314Y3259912D1*
X3919260Y3261813D1*
X3917314Y3263758D1*
X3935458Y3300059D2*
X3956460D1*
X3945008Y3284761D1*
X3950756D1*
X3954559Y3282859D1*
X3956460Y3280958D1*
X3958406Y3275210D1*
Y3271408D1*
X3956460Y3265660D1*
X3952658Y3261813D1*
X3946910Y3259912D1*
X3941162D1*
X3935458Y3261813D1*
X3933557Y3263758D1*
X3931611Y3267561D1*
X3978406Y3259912D2*
X3997552Y3300059D1*
X3970757D1*
X3093916Y3308912D2*
X3113062Y3349059D1*
X3086267D1*
X3127314Y3312758D2*
X3125413Y3310813D1*
X3127314Y3308912D1*
X3129260Y3310813D1*
X3127314Y3312758D1*
X3145458Y3349059D2*
X3166460D1*
X3155008Y3333761D1*
X3160756D1*
X3164559Y3331859D1*
X3166460Y3329958D1*
X3168406Y3324210D1*
Y3320408D1*
X3166460Y3314660D1*
X3162658Y3310813D1*
X3156910Y3308912D1*
X3151162D1*
X3145458Y3310813D1*
X3143557Y3312758D1*
X3141611Y3316561D1*
X3188406Y3308912D2*
X3207552Y3349059D1*
X3180757D1*
X2303916Y3299912D2*
X2323062Y3340059D1*
X2296267D1*
X2337314Y3303758D2*
X2335413Y3301813D1*
X2337314Y3299912D1*
X2339260Y3301813D1*
X2337314Y3303758D1*
X2355458Y3340059D2*
X2376460D1*
X2365008Y3324761D1*
X2370756D1*
X2374559Y3322859D1*
X2376460Y3320958D1*
X2378406Y3315210D1*
Y3311408D1*
X2376460Y3305660D1*
X2372658Y3301813D1*
X2366910Y3299912D1*
X2361162D1*
X2355458Y3301813D1*
X2353557Y3303758D1*
X2351611Y3307561D1*
X2398406Y3299912D2*
X2417552Y3340059D1*
X2390757D1*
X1513916Y3378912D2*
X1533062Y3419059D1*
X1506267D1*
X1547314Y3382758D2*
X1545413Y3380813D1*
X1547314Y3378912D1*
X1549260Y3380813D1*
X1547314Y3382758D1*
X1565458Y3419059D2*
X1586460D1*
X1575008Y3403761D1*
X1580756D1*
X1584559Y3401859D1*
X1586460Y3399958D1*
X1588406Y3394210D1*
Y3390408D1*
X1586460Y3384660D1*
X1582658Y3380813D1*
X1576910Y3378912D1*
X1571162D1*
X1565458Y3380813D1*
X1563557Y3382758D1*
X1561611Y3386561D1*
X1608406Y3378912D2*
X1627552Y3419059D1*
X1600757D1*
X1757429Y2716571D2*
X1755528Y2722319D1*
X1749780Y2726166D1*
X1740230Y2728067D1*
X1734482D1*
X1724931Y2726166D1*
X1719183Y2722319D1*
X1717282Y2716571D1*
Y2712769D1*
X1719183Y2707021D1*
X1724931Y2703218D1*
X1734482Y2701272D1*
X1740230D1*
X1749780Y2703218D1*
X1755528Y2707021D1*
X1757429Y2712769D1*
Y2716571D1*
X1749780Y2703218D2*
X1724931Y2726166D1*
X2500429Y2716571D2*
X2498528Y2722319D1*
X2492780Y2726166D1*
X2483230Y2728067D1*
X2477482D1*
X2467931Y2726166D1*
X2462183Y2722319D1*
X2460282Y2716571D1*
Y2712769D1*
X2462183Y2707021D1*
X2467931Y2703218D1*
X2477482Y2701272D1*
X2483230D1*
X2492780Y2703218D1*
X2498528Y2707021D1*
X2500429Y2712769D1*
Y2716571D1*
X2492780Y2703218D2*
X2467931Y2726166D1*
X3270429Y2716571D2*
X3268528Y2722319D1*
X3262780Y2726166D1*
X3253230Y2728067D1*
X3247482D1*
X3237931Y2726166D1*
X3232183Y2722319D1*
X3230282Y2716571D1*
Y2712769D1*
X3232183Y2707021D1*
X3237931Y2703218D1*
X3247482Y2701272D1*
X3253230D1*
X3262780Y2703218D1*
X3268528Y2707021D1*
X3270429Y2712769D1*
Y2716571D1*
X3262780Y2703218D2*
X3237931Y2726166D1*
X4049429Y2716571D2*
X4047528Y2722319D1*
X4041780Y2726166D1*
X4032230Y2728067D1*
X4026482D1*
X4016931Y2726166D1*
X4011183Y2722319D1*
X4009282Y2716571D1*
Y2712769D1*
X4011183Y2707021D1*
X4016931Y2703218D1*
X4026482Y2701272D1*
X4032230D1*
X4041780Y2703218D1*
X4047528Y2707021D1*
X4049429Y2712769D1*
Y2716571D1*
X4041780Y2703218D2*
X4016931Y2726166D1*
X4794429Y2716571D2*
X4792528Y2722319D1*
X4786780Y2726166D1*
X4777230Y2728067D1*
X4771482D1*
X4761931Y2726166D1*
X4756183Y2722319D1*
X4754282Y2716571D1*
Y2712769D1*
X4756183Y2707021D1*
X4761931Y2703218D1*
X4771482Y2701272D1*
X4777230D1*
X4786780Y2703218D1*
X4792528Y2707021D1*
X4794429Y2712769D1*
Y2716571D1*
X4786780Y2703218D2*
X4761931Y2726166D1*
X5583429Y2716571D2*
X5581528Y2722319D1*
X5575780Y2726166D1*
X5566230Y2728067D1*
X5560482D1*
X5550931Y2726166D1*
X5545183Y2722319D1*
X5543282Y2716571D1*
Y2712769D1*
X5545183Y2707021D1*
X5550931Y2703218D1*
X5560482Y2701272D1*
X5566230D1*
X5575780Y2703218D1*
X5581528Y2707021D1*
X5583429Y2712769D1*
Y2716571D1*
X5575780Y2703218D2*
X5550931Y2726166D1*
X6325429Y2716571D2*
X6323528Y2722319D1*
X6317780Y2726166D1*
X6308230Y2728067D1*
X6302482D1*
X6292931Y2726166D1*
X6287183Y2722319D1*
X6285282Y2716571D1*
Y2712769D1*
X6287183Y2707021D1*
X6292931Y2703218D1*
X6302482Y2701272D1*
X6308230D1*
X6317780Y2703218D1*
X6323528Y2707021D1*
X6325429Y2712769D1*
Y2716571D1*
X6317780Y2703218D2*
X6292931Y2726166D1*
X2461965Y1755059D2*
X2482967D1*
X2471515Y1739761D1*
X2477263D1*
X2481066Y1737859D1*
X2482967Y1735958D1*
X2484913Y1730210D1*
Y1726408D1*
X2482967Y1720660D1*
X2479165Y1716813D1*
X2473417Y1714912D1*
X2467668D1*
X2461965Y1716813D1*
X2460063Y1718758D1*
X2458118Y1722561D1*
X2516409Y1714912D2*
Y1755059D1*
X2497264Y1728309D1*
X2525960D1*
X2540213Y1718758D2*
X2538311Y1716813D1*
X2540213Y1714912D1*
X2542158Y1716813D1*
X2540213Y1718758D1*
X2562159Y1714912D2*
X2581304Y1755059D1*
X2554509D1*
X2601305Y1714912D2*
X2620450Y1755059D1*
X2593656D1*
X3254763Y1717059D2*
X3275765D1*
X3264313Y1701761D1*
X3270061D1*
X3273864Y1699859D1*
X3275765Y1697958D1*
X3277711Y1692210D1*
Y1688408D1*
X3275765Y1682660D1*
X3271963Y1678813D1*
X3266215Y1676912D1*
X3260467D1*
X3254763Y1678813D1*
X3252861Y1680758D1*
X3250916Y1684561D1*
X3309207Y1676912D2*
Y1717059D1*
X3290062Y1690309D1*
X3318758D1*
X3333011Y1680758D2*
X3331109Y1678813D1*
X3333011Y1676912D1*
X3334956Y1678813D1*
X3333011Y1680758D1*
X3366453Y1676912D2*
Y1717059D1*
X3347308Y1690309D1*
X3376003D1*
X3411303Y1717059D2*
X3392202D1*
X3390300Y1699859D1*
X3392202Y1701761D1*
X3397950Y1703706D1*
X3403653D1*
X3409401Y1701761D1*
X3413248Y1697958D1*
X3415150Y1692210D1*
Y1688408D1*
X3413248Y1682660D1*
X3409401Y1678813D1*
X3403653Y1676912D1*
X3397950D1*
X3392202Y1678813D1*
X3390300Y1680758D1*
X3388355Y1684561D1*
X3652866Y1729410D2*
X3656712Y1731356D1*
X3662460Y1737059D1*
Y1696912D1*
X3676757Y1727509D2*
Y1729410D1*
X3678658Y1733257D1*
X3680560Y1735158D1*
X3684406Y1737059D1*
X3692056D1*
X3695858Y1735158D1*
X3697760Y1733257D1*
X3699705Y1729410D1*
Y1725607D1*
X3697760Y1721761D1*
X3693957Y1716057D1*
X3674812Y1696912D1*
X3701606D1*
X3715859Y1700758D2*
X3713958Y1698813D1*
X3715859Y1696912D1*
X3717805Y1698813D1*
X3715859Y1700758D1*
X3737805Y1696912D2*
X3756951Y1737059D1*
X3730156D1*
X4452866Y1695410D2*
X4456712Y1697356D1*
X4462460Y1703059D1*
Y1662912D1*
X4476757Y1693509D2*
Y1695410D1*
X4478658Y1699257D1*
X4480560Y1701158D1*
X4484406Y1703059D1*
X4492056D1*
X4495858Y1701158D1*
X4497760Y1699257D1*
X4499705Y1695410D1*
Y1691607D1*
X4497760Y1687761D1*
X4493957Y1682057D1*
X4474812Y1662912D1*
X4501606D1*
X4515859Y1666758D2*
X4513958Y1664813D1*
X4515859Y1662912D1*
X4517805Y1664813D1*
X4515859Y1666758D1*
X4537805Y1662912D2*
X4556951Y1703059D1*
X4530156D1*
X5252885Y1667410D2*
X5256732Y1669356D1*
X5262480Y1675059D1*
Y1634912D1*
X5276777Y1665509D2*
Y1667410D1*
X5278678Y1671257D1*
X5280579Y1673158D1*
X5284426Y1675059D1*
X5292075D1*
X5295878Y1673158D1*
X5297779Y1671257D1*
X5299725Y1667410D1*
Y1663607D1*
X5297779Y1659761D1*
X5293977Y1654057D1*
X5274831Y1634912D1*
X5301626D1*
X5315879Y1638758D2*
X5313977Y1636813D1*
X5315879Y1634912D1*
X5317824Y1636813D1*
X5315879Y1638758D1*
X5337825Y1634912D2*
X5356970Y1675059D1*
X5330176D1*
X6020994Y1737410D2*
X6024841Y1739356D1*
X6030589Y1745059D1*
Y1704912D1*
X6042940Y1737410D2*
X6046787Y1739356D1*
X6052535Y1745059D1*
Y1704912D1*
X6066788Y1708758D2*
X6064886Y1706813D1*
X6066788Y1704912D1*
X6068733Y1706813D1*
X6066788Y1708758D1*
X6104032Y1745059D2*
X6084931D1*
X6083030Y1727859D1*
X6084931Y1729761D1*
X6090679Y1731706D1*
X6096383D1*
X6102131Y1729761D1*
X6105978Y1725958D1*
X6107879Y1720210D1*
Y1716408D1*
X6105978Y1710660D1*
X6102131Y1706813D1*
X6096383Y1704912D1*
X6090679D1*
X6084931Y1706813D1*
X6083030Y1708758D1*
X6081085Y1712561D1*
X6145124Y1731706D2*
X6143178Y1725958D1*
X6139376Y1722111D1*
X6133628Y1720210D1*
X6131727D1*
X6125979Y1722111D1*
X6122176Y1725958D1*
X6120231Y1731706D1*
Y1733607D1*
X6122176Y1739356D1*
X6125979Y1743158D1*
X6131727Y1745059D1*
X6133628D1*
X6139376Y1743158D1*
X6143178Y1739356D1*
X6145124Y1731706D1*
Y1722111D1*
X6143178Y1712561D1*
X6139376Y1706813D1*
X6133628Y1704912D1*
X6129825D1*
X6124077Y1706813D1*
X6122176Y1710660D1*
X6729718Y1713059D2*
X6724014Y1711158D1*
X6722068Y1707356D1*
Y1703509D1*
X6724014Y1699706D1*
X6727816Y1697761D1*
X6735466Y1695859D1*
X6741214Y1693958D1*
X6745016Y1690111D1*
X6746917Y1686309D1*
Y1680561D1*
X6745016Y1676758D1*
X6743115Y1674813D1*
X6737367Y1672912D1*
X6729718D1*
X6724014Y1674813D1*
X6722068Y1676758D1*
X6720167Y1680561D1*
Y1686309D1*
X6722068Y1690111D1*
X6725915Y1693958D1*
X6731619Y1695859D1*
X6739268Y1697761D1*
X6743115Y1699706D1*
X6745016Y1703509D1*
Y1707356D1*
X6743115Y1711158D1*
X6737367Y1713059D1*
X6729718D1*
X6761170Y1676758D2*
X6759269Y1674813D1*
X6761170Y1672912D1*
X6763116Y1674813D1*
X6761170Y1676758D1*
X6775467Y1705410D2*
X6779314Y1707356D1*
X6785062Y1713059D1*
Y1672912D1*
X6806964Y1713059D2*
X6801260Y1711158D1*
X6799314Y1707356D1*
Y1703509D1*
X6801260Y1699706D1*
X6805062Y1697761D1*
X6812712Y1695859D1*
X6818460Y1693958D1*
X6822262Y1690111D1*
X6824164Y1686309D1*
Y1680561D1*
X6822262Y1676758D1*
X6820361Y1674813D1*
X6814613Y1672912D1*
X6806964D1*
X6801260Y1674813D1*
X6799314Y1676758D1*
X6797413Y1680561D1*
Y1686309D1*
X6799314Y1690111D1*
X6803161Y1693958D1*
X6808865Y1695859D1*
X6816514Y1697761D1*
X6820361Y1699706D1*
X6822262Y1703509D1*
Y1707356D1*
X6820361Y1711158D1*
X6814613Y1713059D1*
X6806964D1*
X1827014Y1467509D2*
Y1469410D1*
X1828915Y1473257D1*
X1830817Y1475158D1*
X1834663Y1477059D1*
X1842313D1*
X1846115Y1475158D1*
X1848017Y1473257D1*
X1849962Y1469410D1*
Y1465607D1*
X1848017Y1461761D1*
X1844214Y1456057D1*
X1825069Y1436912D1*
X1851863D1*
X1887163Y1471356D2*
X1885261Y1475158D1*
X1879513Y1477059D1*
X1875711D1*
X1869963Y1475158D1*
X1866116Y1469410D1*
X1864215Y1459859D1*
Y1450309D1*
X1866116Y1442660D1*
X1869963Y1438813D1*
X1875711Y1436912D1*
X1877612D1*
X1883316Y1438813D1*
X1887163Y1442660D1*
X1889064Y1448408D1*
Y1450309D1*
X1887163Y1456057D1*
X1883316Y1459859D1*
X1877612Y1461761D1*
X1875711D1*
X1869963Y1459859D1*
X1866116Y1456057D1*
X1864215Y1450309D1*
X1903317Y1440758D2*
X1901415Y1438813D1*
X1903317Y1436912D1*
X1905262Y1438813D1*
X1903317Y1440758D1*
X1921460Y1477059D2*
X1942463D1*
X1931011Y1461761D1*
X1936759D1*
X1940561Y1459859D1*
X1942463Y1457958D1*
X1944408Y1452210D1*
Y1448408D1*
X1942463Y1442660D1*
X1938660Y1438813D1*
X1932912Y1436912D1*
X1927164D1*
X1921460Y1438813D1*
X1919559Y1440758D1*
X1917613Y1444561D1*
X1966310Y1477059D2*
X1960606Y1475158D1*
X1958661Y1471356D1*
Y1467509D1*
X1960606Y1463706D1*
X1964409Y1461761D1*
X1972058Y1459859D1*
X1977806Y1457958D1*
X1981609Y1454111D1*
X1983510Y1450309D1*
Y1444561D1*
X1981609Y1440758D1*
X1979707Y1438813D1*
X1973959Y1436912D1*
X1966310D1*
X1960606Y1438813D1*
X1958661Y1440758D1*
X1956760Y1444561D1*
Y1450309D1*
X1958661Y1454111D1*
X1962508Y1457958D1*
X1968211Y1459859D1*
X1975861Y1461761D1*
X1979707Y1463706D1*
X1981609Y1467509D1*
Y1471356D1*
X1979707Y1475158D1*
X1973959Y1477059D1*
X1966310D1*
X2627015Y1469842D2*
Y1471743D1*
X2628916Y1475590D1*
X2630817Y1477491D1*
X2634664Y1479393D1*
X2642313D1*
X2646116Y1477491D1*
X2648017Y1475590D1*
X2649963Y1471743D1*
Y1467941D1*
X2648017Y1464094D1*
X2644215Y1458390D1*
X2625069Y1439245D1*
X2651864D1*
X2687163Y1473689D2*
X2685262Y1477491D1*
X2679514Y1479393D1*
X2675711D1*
X2669963Y1477491D1*
X2666117Y1471743D1*
X2664215Y1462193D1*
Y1452642D1*
X2666117Y1444993D1*
X2669963Y1441146D1*
X2675711Y1439245D1*
X2677613D1*
X2683317Y1441146D1*
X2687163Y1444993D1*
X2689065Y1450741D1*
Y1452642D1*
X2687163Y1458390D1*
X2683317Y1462193D1*
X2677613Y1464094D1*
X2675711D1*
X2669963Y1462193D1*
X2666117Y1458390D1*
X2664215Y1452642D1*
X2703317Y1443092D2*
X2701416Y1441146D1*
X2703317Y1439245D1*
X2705263Y1441146D1*
X2703317Y1443092D1*
X2721461Y1479393D2*
X2742463D1*
X2731011Y1464094D1*
X2736759D1*
X2740562Y1462193D1*
X2742463Y1460292D1*
X2744409Y1454543D1*
Y1450741D1*
X2742463Y1444993D1*
X2738661Y1441146D1*
X2732913Y1439245D1*
X2727165D1*
X2721461Y1441146D1*
X2719560Y1443092D1*
X2717614Y1446894D1*
X2766311Y1479393D2*
X2760607Y1477491D1*
X2758661Y1473689D1*
Y1469842D1*
X2760607Y1466040D1*
X2764409Y1464094D1*
X2772059Y1462193D1*
X2777807Y1460292D1*
X2781609Y1456445D1*
X2783511Y1452642D1*
Y1446894D1*
X2781609Y1443092D1*
X2779708Y1441146D1*
X2773960Y1439245D1*
X2766311D1*
X2760607Y1441146D1*
X2758661Y1443092D1*
X2756760Y1446894D1*
Y1452642D1*
X2758661Y1456445D1*
X2762508Y1460292D1*
X2768212Y1462193D1*
X2775861Y1464094D1*
X2779708Y1466040D1*
X2781609Y1469842D1*
Y1473689D1*
X2779708Y1477491D1*
X2773960Y1479393D1*
X2766311D1*
X3411860Y1484934D2*
Y1486835D1*
X3413761Y1490682D1*
X3415663Y1492583D1*
X3419509Y1494485D1*
X3427159D1*
X3430961Y1492583D1*
X3432863Y1490682D1*
X3434808Y1486835D1*
Y1483033D1*
X3432863Y1479186D1*
X3429060Y1473482D1*
X3409915Y1454337D1*
X3436709D1*
X3472009Y1488781D2*
X3470107Y1492583D1*
X3464359Y1494485D1*
X3460557D1*
X3454809Y1492583D1*
X3450962Y1486835D1*
X3449061Y1477285D1*
Y1467734D1*
X3450962Y1460085D1*
X3454809Y1456238D1*
X3460557Y1454337D1*
X3462458D1*
X3468162Y1456238D1*
X3472009Y1460085D1*
X3473910Y1465833D1*
Y1467734D1*
X3472009Y1473482D1*
X3468162Y1477285D1*
X3462458Y1479186D1*
X3460557D1*
X3454809Y1477285D1*
X3450962Y1473482D1*
X3449061Y1467734D1*
X3488163Y1458184D2*
X3486261Y1456238D1*
X3488163Y1454337D1*
X3490108Y1456238D1*
X3488163Y1458184D1*
X3525407Y1494485D2*
X3506306D1*
X3504405Y1477285D1*
X3506306Y1479186D1*
X3512054Y1481131D1*
X3517758D1*
X3523506Y1479186D1*
X3527353Y1475383D1*
X3529254Y1469635D1*
Y1465833D1*
X3527353Y1460085D1*
X3523506Y1456238D1*
X3517758Y1454337D1*
X3512054D1*
X3506306Y1456238D1*
X3504405Y1458184D1*
X3502459Y1461986D1*
X3543551Y1484934D2*
Y1486835D1*
X3545452Y1490682D1*
X3547354Y1492583D1*
X3551200Y1494485D1*
X3558850D1*
X3562652Y1492583D1*
X3564553Y1490682D1*
X3566499Y1486835D1*
Y1483033D1*
X3564553Y1479186D1*
X3560751Y1473482D1*
X3541606Y1454337D1*
X3568400D1*
X3827465Y1459980D2*
Y1500128D1*
X3808320Y1473377D1*
X3837015D1*
X3851268Y1463827D2*
X3849367Y1461881D1*
X3851268Y1459980D1*
X3853214Y1461881D1*
X3851268Y1463827D1*
X3869412Y1500128D2*
X3890414D1*
X3878962Y1484829D1*
X3884710D1*
X3888513Y1482928D1*
X3890414Y1481026D1*
X3892360Y1475278D1*
Y1471476D1*
X3890414Y1465728D1*
X3886612Y1461881D1*
X3880864Y1459980D1*
X3875116D1*
X3869412Y1461881D1*
X3867511Y1463827D1*
X3865565Y1467629D1*
X3906657Y1490577D2*
Y1492478D1*
X3908558Y1496325D1*
X3910459Y1498226D1*
X3914306Y1500128D1*
X3921955D1*
X3925758Y1498226D1*
X3927659Y1496325D1*
X3929604Y1492478D1*
Y1488676D1*
X3927659Y1484829D1*
X3923856Y1479125D1*
X3904711Y1459980D1*
X3931506D1*
X4627461Y1455912D2*
Y1496059D1*
X4608316Y1469309D1*
X4637012D1*
X4651264Y1459758D2*
X4649363Y1457813D1*
X4651264Y1455912D1*
X4653210Y1457813D1*
X4651264Y1459758D1*
X4669408Y1496059D2*
X4690410D1*
X4678958Y1480761D1*
X4684706D1*
X4688509Y1478859D1*
X4690410Y1476958D1*
X4692356Y1471210D1*
Y1467408D1*
X4690410Y1461660D1*
X4686608Y1457813D1*
X4680860Y1455912D1*
X4675112D1*
X4669408Y1457813D1*
X4667507Y1459758D1*
X4665561Y1463561D1*
X4706653Y1486509D2*
Y1488410D1*
X4708554Y1492257D1*
X4710455Y1494158D1*
X4714302Y1496059D1*
X4721951D1*
X4725754Y1494158D1*
X4727655Y1492257D1*
X4729601Y1488410D1*
Y1484607D1*
X4727655Y1480761D1*
X4723853Y1475057D1*
X4704707Y1455912D1*
X4731502D1*
X5427511Y1454993D2*
Y1495141D1*
X5408365Y1468390D1*
X5437061D1*
X5451314Y1458840D2*
X5449413Y1456894D1*
X5451314Y1454993D1*
X5453260Y1456894D1*
X5451314Y1458840D1*
X5469458Y1495141D2*
X5490460D1*
X5479008Y1479842D1*
X5484756D1*
X5488559Y1477941D1*
X5490460Y1476040D1*
X5492406Y1470292D1*
Y1466489D1*
X5490460Y1460741D1*
X5486658Y1456894D1*
X5480910Y1454993D1*
X5475162D1*
X5469458Y1456894D1*
X5467556Y1458840D1*
X5465611Y1462642D1*
X5506703Y1485590D2*
Y1487491D1*
X5508604Y1491338D1*
X5510505Y1493239D1*
X5514352Y1495141D1*
X5522001D1*
X5525804Y1493239D1*
X5527705Y1491338D1*
X5529650Y1487491D1*
Y1483689D1*
X5527705Y1479842D1*
X5523902Y1474138D1*
X5504757Y1454993D1*
X5531552D1*
X6183730Y1446463D2*
Y1486611D1*
X6164585Y1459860D1*
X6193281D1*
X6207533Y1450309D2*
X6205632Y1448364D1*
X6207533Y1446463D1*
X6209479Y1448364D1*
X6207533Y1450309D1*
X6225677Y1486611D2*
X6246679D1*
X6235227Y1471312D1*
X6240975D1*
X6244778Y1469411D1*
X6246679Y1467509D1*
X6248625Y1461761D1*
Y1457959D1*
X6246679Y1452211D1*
X6242877Y1448364D1*
X6237129Y1446463D1*
X6231381D1*
X6225677Y1448364D1*
X6223776Y1450309D1*
X6221830Y1454112D1*
X6262922Y1477060D2*
Y1478961D1*
X6264823Y1482808D1*
X6266724Y1484709D1*
X6270571Y1486611D1*
X6278220D1*
X6282023Y1484709D1*
X6283924Y1482808D1*
X6285870Y1478961D1*
Y1475159D1*
X6283924Y1471312D1*
X6280122Y1465608D1*
X6260976Y1446463D1*
X6287771D1*
X6804838Y1503802D2*
X6825841D1*
X6814389Y1488504D1*
X6820137D1*
X6823939Y1486602D1*
X6825841Y1484701D1*
X6827786Y1478953D1*
Y1475150D1*
X6825841Y1469402D1*
X6822038Y1465556D1*
X6816290Y1463654D1*
X6810542D1*
X6804838Y1465556D1*
X6802937Y1467501D1*
X6800991Y1471304D1*
X6842039Y1467501D2*
X6840137Y1465556D1*
X6842039Y1463654D1*
X6843984Y1465556D1*
X6842039Y1467501D1*
X6879284Y1498098D2*
X6877382Y1501901D1*
X6871634Y1503802D1*
X6867832D1*
X6862084Y1501901D1*
X6858237Y1496153D1*
X6856336Y1486602D1*
Y1477052D1*
X6858237Y1469402D1*
X6862084Y1465556D1*
X6867832Y1463654D1*
X6869733D1*
X6875437Y1465556D1*
X6879284Y1469402D1*
X6881185Y1475150D1*
Y1477052D1*
X6879284Y1482800D1*
X6875437Y1486602D1*
X6869733Y1488504D1*
X6867832D1*
X6862084Y1486602D1*
X6858237Y1482800D1*
X6856336Y1477052D1*
X6903087Y1503802D2*
X6897383Y1501901D1*
X6895437Y1498098D1*
Y1494252D1*
X6897383Y1490449D1*
X6901186Y1488504D1*
X6908835Y1486602D1*
X6914583Y1484701D1*
X6918385Y1480854D1*
X6920287Y1477052D1*
Y1471304D1*
X6918385Y1467501D1*
X6916484Y1465556D1*
X6910736Y1463654D1*
X6903087D1*
X6897383Y1465556D1*
X6895437Y1467501D1*
X6893536Y1471304D1*
Y1477052D1*
X6895437Y1480854D1*
X6899284Y1484701D1*
X6904988Y1486602D1*
X6912637Y1488504D1*
X6916484Y1490449D1*
X6918385Y1494252D1*
Y1498098D1*
X6916484Y1501901D1*
X6910736Y1503802D1*
X6903087D1*
X1376872Y2920059D2*
X1357771D1*
X1355870Y2902859D1*
X1357771Y2904761D1*
X1363519Y2906706D1*
X1369223D1*
X1374971Y2904761D1*
X1378818Y2900958D1*
X1380719Y2895210D1*
Y2891408D1*
X1378818Y2885660D1*
X1374971Y2881813D1*
X1369223Y2879912D1*
X1363519D1*
X1357771Y2881813D1*
X1355870Y2883758D1*
X1353924Y2887561D1*
X1393070Y2912410D2*
X1396917Y2914356D1*
X1402665Y2920059D1*
Y2879912D1*
X1416918Y2883758D2*
X1415017Y2881813D1*
X1416918Y2879912D1*
X1418863Y2881813D1*
X1416918Y2883758D1*
X1431215Y2912410D2*
X1435062Y2914356D1*
X1440810Y2920059D1*
Y2879912D1*
X1478054Y2906706D2*
X1476109Y2900958D1*
X1472306Y2897111D1*
X1466558Y2895210D1*
X1464657D1*
X1458909Y2897111D1*
X1455107Y2900958D1*
X1453161Y2906706D1*
Y2908607D1*
X1455107Y2914356D1*
X1458909Y2918158D1*
X1464657Y2920059D1*
X1466558D1*
X1472306Y2918158D1*
X1476109Y2914356D1*
X1478054Y2906706D1*
Y2897111D1*
X1476109Y2887561D1*
X1472306Y2881813D1*
X1466558Y2879912D1*
X1462756D1*
X1457008Y2881813D1*
X1455107Y2885660D1*
X299712Y2004107D2*
Y1985006D1*
X316912Y1983105D1*
X315011Y1985006D1*
X313065Y1990754D1*
Y1996458D1*
X315011Y2002206D1*
X318813Y2006053D1*
X324562Y2007954D1*
X328364D1*
X334112Y2006053D1*
X337959Y2002206D1*
X339860Y1996458D1*
Y1990754D1*
X337959Y1985006D1*
X336013Y1983105D1*
X332211Y1981159D1*
X299712Y2043253D2*
Y2024152D1*
X316912Y2022251D1*
X315011Y2024152D1*
X313065Y2029900D1*
Y2035604D1*
X315011Y2041352D1*
X318813Y2045199D1*
X324562Y2047100D1*
X328364D1*
X334112Y2045199D1*
X337959Y2041352D1*
X339860Y2035604D1*
Y2029900D1*
X337959Y2024152D1*
X336013Y2022251D1*
X332211Y2020305D1*
X336013Y2061353D2*
X337959Y2059451D1*
X339860Y2061353D1*
X337959Y2063298D1*
X336013Y2061353D1*
X313065Y2100543D2*
X318813Y2098597D1*
X322660Y2094795D1*
X324562Y2089047D1*
Y2087145D1*
X322660Y2081397D1*
X318813Y2077595D1*
X313065Y2075649D1*
X311164D1*
X305416Y2077595D1*
X301614Y2081397D1*
X299712Y2087145D1*
Y2089047D1*
X301614Y2094795D1*
X305416Y2098597D1*
X313065Y2100543D1*
X322660D1*
X332211Y2098597D1*
X337959Y2094795D1*
X339860Y2089047D1*
Y2085244D1*
X337959Y2079496D1*
X334112Y2077595D1*
X5029901Y2931586D2*
X5033748Y2933531D1*
X5039496Y2939235D1*
Y2899087D1*
X5063343Y2939235D2*
X5057595Y2937334D1*
X5053749Y2931586D1*
X5051847Y2922035D1*
Y2916287D1*
X5053749Y2906737D1*
X5057595Y2900989D1*
X5063343Y2899087D1*
X5067146D1*
X5072894Y2900989D1*
X5076697Y2906737D1*
X5078642Y2916287D1*
Y2922035D1*
X5076697Y2931586D1*
X5072894Y2937334D1*
X5067146Y2939235D1*
X5063343D1*
X5076697Y2931586D2*
X5053749Y2906737D1*
X5115887Y2925882D2*
X5113941Y2920134D1*
X5110139Y2916287D1*
X5104391Y2914386D1*
X5102490D1*
X5096741Y2916287D1*
X5092939Y2920134D1*
X5090993Y2925882D1*
Y2927783D1*
X5092939Y2933531D1*
X5096741Y2937334D1*
X5102490Y2939235D1*
X5104391D1*
X5110139Y2937334D1*
X5113941Y2933531D1*
X5115887Y2925882D1*
Y2916287D1*
X5113941Y2906737D1*
X5110139Y2900989D1*
X5104391Y2899087D1*
X5100588D1*
X5094840Y2900989D1*
X5092939Y2904835D1*
X5130140Y2902934D2*
X5128238Y2900989D1*
X5130140Y2899087D1*
X5132085Y2900989D1*
X5130140Y2902934D1*
X5163582Y2899087D2*
Y2939235D1*
X5144436Y2912485D1*
X5173132D1*
X5187429Y2929685D2*
Y2931586D1*
X5189331Y2935433D1*
X5191232Y2937334D1*
X5195079Y2939235D1*
X5202728D1*
X5206530Y2937334D1*
X5208432Y2935433D1*
X5210377Y2931586D1*
Y2927783D1*
X5208432Y2923937D1*
X5204629Y2918233D1*
X5185484Y2899087D1*
X5212278D1*
X7599471Y2424723D2*
Y2403721D1*
X7584173Y2415173D1*
Y2409425D1*
X7582272Y2405622D1*
X7580370Y2403721D1*
X7574622Y2401775D1*
X7570820D1*
X7565072Y2403721D1*
X7561225Y2407523D1*
X7559324Y2413271D1*
Y2419019D1*
X7561225Y2424723D1*
X7563170Y2426624D1*
X7566973Y2428570D1*
X7586118Y2364531D2*
X7580370Y2366476D1*
X7576523Y2370279D1*
X7574622Y2376027D1*
Y2377928D1*
X7576523Y2383676D1*
X7580370Y2387478D1*
X7586118Y2389424D1*
X7588020D1*
X7593768Y2387478D1*
X7597570Y2383676D1*
X7599471Y2377928D1*
Y2376027D1*
X7597570Y2370279D1*
X7593768Y2366476D1*
X7586118Y2364531D1*
X7576523D1*
X7566973Y2366476D1*
X7561225Y2370279D1*
X7559324Y2376027D1*
Y2379829D1*
X7561225Y2385577D1*
X7565072Y2387478D1*
X7563170Y2350278D2*
X7561225Y2352179D1*
X7559324Y2350278D1*
X7561225Y2348332D1*
X7563170Y2350278D1*
X7599471Y2326430D2*
X7597570Y2332134D1*
X7593768Y2334080D1*
X7589921D1*
X7586118Y2332134D1*
X7584173Y2328332D1*
X7582272Y2320682D1*
X7580370Y2314934D1*
X7576523Y2311132D1*
X7572721Y2309230D1*
X7566973D1*
X7563170Y2311132D1*
X7561225Y2313033D1*
X7559324Y2318781D1*
Y2326430D1*
X7561225Y2332134D1*
X7563170Y2334080D1*
X7566973Y2335981D1*
X7572721D1*
X7576523Y2334080D1*
X7580370Y2330233D1*
X7582272Y2324529D1*
X7584173Y2316880D1*
X7586118Y2313033D1*
X7589921Y2311132D1*
X7593768D1*
X7597570Y2313033D1*
X7599471Y2318781D1*
Y2326430D1*
X7593768Y2273931D2*
X7597570Y2275832D1*
X7599471Y2281580D1*
Y2285383D1*
X7597570Y2291131D1*
X7591822Y2294978D1*
X7582272Y2296879D1*
X7572721D1*
X7565072Y2294978D1*
X7561225Y2291131D1*
X7559324Y2285383D1*
Y2283482D1*
X7561225Y2277778D1*
X7565072Y2273931D1*
X7570820Y2272030D1*
X7572721D1*
X7578469Y2273931D1*
X7582272Y2277778D1*
X7584173Y2283482D1*
Y2285383D1*
X7582272Y2291131D1*
X7578469Y2294978D1*
X7572721Y2296879D1*
X4356250Y683029D2*
X4360097Y684975D1*
X4365845Y690679D1*
Y650531D1*
X4397341D2*
Y690679D1*
X4378196Y663928D1*
X4406892D1*
X4423090Y690679D2*
X4444093D1*
X4432641Y675380D1*
X4438389D1*
X4442191Y673479D1*
X4444093Y671578D1*
X4446038Y665830D1*
Y662027D1*
X4444093Y656279D1*
X4440290Y652432D1*
X4434542Y650531D1*
X4428794D1*
X4423090Y652432D1*
X4421189Y654378D1*
X4419243Y658180D1*
X4460291Y654378D2*
X4458390Y652432D1*
X4460291Y650531D1*
X4462236Y652432D1*
X4460291Y654378D1*
X4497536Y690679D2*
X4478434D1*
X4476533Y673479D1*
X4478434Y675380D1*
X4484182Y677326D1*
X4489886D1*
X4495634Y675380D1*
X4499481Y671578D1*
X4501382Y665830D1*
Y662027D1*
X4499481Y656279D1*
X4495634Y652432D1*
X4489886Y650531D1*
X4484182D1*
X4478434Y652432D1*
X4476533Y654378D1*
X4474588Y658180D1*
X4532879Y650531D2*
Y690679D1*
X4513734Y663928D1*
X4542430D1*
X7443922Y739869D2*
X7445867Y736022D1*
X7451571Y730274D1*
X7411423D1*
X7451571Y714076D2*
Y693074D1*
X7436273Y704525D1*
Y698777D1*
X7434371Y694975D1*
X7432470Y693074D1*
X7426722Y691128D1*
X7422919D1*
X7417171Y693074D1*
X7413325Y696876D1*
X7411423Y702624D1*
Y708372D1*
X7413325Y714076D1*
X7415270Y715977D1*
X7419073Y717923D1*
X7415270Y676875D2*
X7413325Y678777D1*
X7411423Y676875D1*
X7413325Y674930D1*
X7415270Y676875D1*
X7451571Y639631D2*
Y658732D1*
X7434371Y660633D1*
X7436273Y658732D1*
X7438218Y652984D1*
Y647280D1*
X7436273Y641532D1*
X7432470Y637685D1*
X7426722Y635784D1*
X7422919D1*
X7417171Y637685D1*
X7413325Y641532D1*
X7411423Y647280D1*
Y652984D1*
X7413325Y658732D1*
X7415270Y660633D1*
X7419073Y662579D1*
X7442021Y621487D2*
X7443922D1*
X7447769Y619586D1*
X7449670Y617684D1*
X7451571Y613838D1*
Y606188D1*
X7449670Y602386D1*
X7447769Y600485D1*
X7443922Y598539D1*
X7440119D1*
X7436273Y600485D1*
X7430569Y604287D1*
X7411423Y623432D1*
Y596638D1*
X7322512Y3264855D2*
Y3266756D1*
X7324413Y3270603D1*
X7326315Y3272505D1*
X7330161Y3274406D1*
X7337811D1*
X7341613Y3272505D1*
X7343515Y3270603D1*
X7345460Y3266756D1*
Y3262954D1*
X7343515Y3259107D1*
X7339712Y3253403D1*
X7320567Y3234258D1*
X7347361D1*
X7361614Y3238105D2*
X7359713Y3236159D1*
X7361614Y3234258D1*
X7363560Y3236159D1*
X7361614Y3238105D1*
X7383560Y3234258D2*
X7402706Y3274406D1*
X7375911D1*
X7439950Y3261053D2*
X7438005Y3255305D1*
X7434202Y3251458D1*
X7428454Y3249557D1*
X7426553D1*
X7420805Y3251458D1*
X7417002Y3255305D1*
X7415057Y3261053D1*
Y3262954D1*
X7417002Y3268702D1*
X7420805Y3272505D1*
X7426553Y3274406D1*
X7428454D1*
X7434202Y3272505D1*
X7438005Y3268702D1*
X7439950Y3261053D1*
Y3251458D1*
X7438005Y3241907D1*
X7434202Y3236159D1*
X7428454Y3234258D1*
X7424652D1*
X7418904Y3236159D1*
X7417002Y3240006D1*
X7425091Y3119065D2*
X7426993D1*
X7430839Y3117163D1*
X7432741Y3115262D1*
X7434642Y3111415D1*
Y3103766D1*
X7432741Y3099963D1*
X7430839Y3098062D1*
X7426993Y3096117D1*
X7423190D1*
X7419343Y3098062D1*
X7413640Y3101865D1*
X7394494Y3121010D1*
Y3094215D1*
X7398341Y3079963D2*
X7396395Y3081864D1*
X7394494Y3079963D1*
X7396395Y3078017D1*
X7398341Y3079963D1*
X7434642Y3056115D2*
X7432741Y3061819D1*
X7428938Y3063765D1*
X7425091D1*
X7421289Y3061819D1*
X7419343Y3058016D1*
X7417442Y3050367D1*
X7415541Y3044619D1*
X7411694Y3040817D1*
X7407892Y3038915D1*
X7402144D1*
X7398341Y3040817D1*
X7396395Y3042718D1*
X7394494Y3048466D1*
Y3056115D1*
X7396395Y3061819D1*
X7398341Y3063765D1*
X7402144Y3065666D1*
X7407892D1*
X7411694Y3063765D1*
X7415541Y3059918D1*
X7417442Y3054214D1*
X7419343Y3046565D1*
X7421289Y3042718D1*
X7425091Y3040817D1*
X7428938D1*
X7432741Y3042718D1*
X7434642Y3048466D1*
Y3056115D1*
X565769Y370509D2*
Y372410D1*
X567671Y376257D1*
X569572Y378158D1*
X573419Y380059D1*
X581068D1*
X584871Y378158D1*
X586772Y376257D1*
X588717Y372410D1*
Y368607D1*
X586772Y364761D1*
X582969Y359057D1*
X563824Y339912D1*
X590619D1*
X604871Y343758D2*
X602970Y341813D1*
X604871Y339912D1*
X606817Y341813D1*
X604871Y343758D1*
X626817Y339912D2*
X645963Y380059D1*
X619168D1*
X683208Y366706D2*
X681262Y360958D1*
X677460Y357111D1*
X671712Y355210D1*
X669810D1*
X664062Y357111D1*
X660260Y360958D1*
X658314Y366706D1*
Y368607D1*
X660260Y374356D1*
X664062Y378158D1*
X669810Y380059D1*
X671712D1*
X677460Y378158D1*
X681262Y374356D1*
X683208Y366706D1*
Y357111D1*
X681262Y347561D1*
X677460Y341813D1*
X671712Y339912D1*
X667909D1*
X662161Y341813D1*
X660260Y345660D1*
X234263Y565768D2*
X232362D1*
X228515Y567669D1*
X226614Y569571D1*
X224712Y573417D1*
Y581067D1*
X226614Y584869D1*
X228515Y586771D1*
X232362Y588716D1*
X236164D1*
X240011Y586771D1*
X245715Y582968D1*
X264860Y563823D1*
Y590617D1*
X261013Y604870D2*
X262959Y602969D1*
X264860Y604870D1*
X262959Y606815D1*
X261013Y604870D1*
X264860Y626816D2*
X224712Y645961D1*
Y619167D1*
X238065Y683206D2*
X243813Y681261D1*
X247660Y677458D1*
X249562Y671710D1*
Y669809D1*
X247660Y664061D1*
X243813Y660258D1*
X238065Y658313D1*
X236164D1*
X230416Y660258D1*
X226614Y664061D1*
X224712Y669809D1*
Y671710D1*
X226614Y677458D1*
X230416Y681261D1*
X238065Y683206D1*
X247660D1*
X257211Y681261D1*
X262959Y677458D1*
X264860Y671710D1*
Y667908D1*
X262959Y662160D1*
X259112Y660258D1*
X7180891Y296876D2*
Y298777D1*
X7182792Y302624D1*
X7184693Y304526D1*
X7188540Y306427D1*
X7196189D1*
X7199992Y304526D1*
X7201893Y302624D1*
X7203839Y298777D1*
Y294975D1*
X7201893Y291128D1*
X7198091Y285424D1*
X7178945Y266279D1*
X7205740D1*
X7219993Y270126D2*
X7218091Y268180D1*
X7219993Y266279D1*
X7221938Y268180D1*
X7219993Y270126D1*
X7243840Y306427D2*
X7238136Y304526D1*
X7236191Y300723D1*
Y296876D1*
X7238136Y293074D1*
X7241939Y291128D1*
X7249588Y289227D1*
X7255336Y287326D1*
X7259139Y283479D1*
X7261040Y279676D1*
Y273928D1*
X7259139Y270126D1*
X7257238Y268180D1*
X7251489Y266279D1*
X7243840D1*
X7238136Y268180D1*
X7236191Y270126D1*
X7234290Y273928D1*
Y279676D1*
X7236191Y283479D1*
X7240038Y287326D1*
X7245741Y289227D1*
X7253391Y291128D1*
X7257238Y293074D1*
X7259139Y296876D1*
Y300723D1*
X7257238Y304526D1*
X7251489Y306427D1*
X7243840D1*
X7569186Y496275D2*
X7571087D1*
X7574934Y494373D1*
X7576835Y492472D1*
X7578736Y488625D1*
Y480976D1*
X7576835Y477173D1*
X7574934Y475272D1*
X7571087Y473327D1*
X7567285D1*
X7563438Y475272D1*
X7557734Y479075D1*
X7538589Y498220D1*
Y471425D1*
X7542435Y457173D2*
X7540490Y459074D1*
X7538589Y457173D1*
X7540490Y455227D1*
X7542435Y457173D1*
X7578736Y433325D2*
X7576835Y439029D1*
X7573033Y440974D1*
X7569186D1*
X7565383Y439029D1*
X7563438Y435226D1*
X7561537Y427577D1*
X7559635Y421829D1*
X7555789Y418027D1*
X7551986Y416125D1*
X7546238D1*
X7542435Y418027D1*
X7540490Y419928D1*
X7538589Y425676D1*
Y433325D1*
X7540490Y439029D1*
X7542435Y440974D1*
X7546238Y442876D1*
X7551986D1*
X7555789Y440974D1*
X7559635Y437128D1*
X7561537Y431424D1*
X7563438Y423775D1*
X7565383Y419928D1*
X7569186Y418027D1*
X7573033D1*
X7576835Y419928D1*
X7578736Y425676D1*
Y433325D1*
X3757181Y3629092D2*
X3761027Y3631038D1*
X3766775Y3636742D1*
Y3596594D1*
X3786776D2*
X3805921Y3636742D1*
X3779127D1*
X3837418Y3596594D2*
Y3636742D1*
X3818273Y3609991D1*
X3846969D1*
X3861221Y3600441D2*
X3859320Y3598495D1*
X3861221Y3596594D1*
X3863167Y3598495D1*
X3861221Y3600441D1*
X3894664Y3596594D2*
Y3636742D1*
X3875518Y3609991D1*
X3904214D1*
X3916566Y3629092D2*
X3920412Y3631038D1*
X3926160Y3636742D1*
Y3596594D1*
X7738387Y1816261D2*
X7742190Y1818162D1*
X7744091Y1823910D1*
Y1827712D1*
X7742190Y1833460D1*
X7736442Y1837307D1*
X7726891Y1839209D1*
X7717340D1*
X7709691Y1837307D1*
X7705844Y1833460D1*
X7703943Y1827712D1*
Y1825811D1*
X7705844Y1820107D1*
X7709691Y1816261D1*
X7715439Y1814359D1*
X7717340D1*
X7723088Y1816261D1*
X7726891Y1820107D1*
X7728792Y1825811D1*
Y1827712D1*
X7726891Y1833460D1*
X7723088Y1837307D1*
X7717340Y1839209D1*
X7730738Y1777115D2*
X7724990Y1779060D1*
X7721143Y1782863D1*
X7719242Y1788611D1*
Y1790512D1*
X7721143Y1796260D1*
X7724990Y1800062D1*
X7730738Y1802008D1*
X7732639D1*
X7738387Y1800062D1*
X7742190Y1796260D1*
X7744091Y1790512D1*
Y1788611D1*
X7742190Y1782863D1*
X7738387Y1779060D1*
X7730738Y1777115D1*
X7721143D1*
X7711592Y1779060D1*
X7705844Y1782863D1*
X7703943Y1788611D1*
Y1792413D1*
X7705844Y1798161D1*
X7709691Y1800062D1*
X7707790Y1762862D2*
X7705844Y1764763D1*
X7703943Y1762862D1*
X7705844Y1760916D1*
X7707790Y1762862D1*
X7703943Y1729420D2*
X7744091D1*
X7717340Y1748565D1*
Y1719869D1*
X7736442Y1707518D2*
X7738387Y1703671D1*
X7744091Y1697923D1*
X7703943D1*
X6402752Y573729D2*
X6400851Y579477D1*
X6395103Y583323D1*
X6385552Y585225D1*
X6379804D1*
X6370254Y583323D1*
X6364506Y579477D1*
X6362604Y573729D1*
Y569926D1*
X6364506Y564178D1*
X6370254Y560375D1*
X6379804Y558430D1*
X6385552D1*
X6395103Y560375D1*
X6400851Y564178D1*
X6402752Y569926D1*
Y573729D1*
X6395103Y560375D2*
X6370254Y583323D1*
M02*
