G04 DipTrace 3.0.0.1*
G04 TopPaste.gbr*
%MOIN*%
G04 #@! TF.FileFunction,Paste,Top*
G04 #@! TF.Part,Single*
%ADD87C,0.031496*%
%ADD89R,0.070866X0.015748*%
%ADD91R,0.047244X0.031496*%
%ADD104R,0.062992X0.055118*%
%ADD109R,0.051181X0.043307*%
%ADD111R,0.043307X0.051181*%
%ADD115R,0.21063X0.234252*%
%ADD117R,0.031496X0.100394*%
%FSLAX26Y26*%
G04*
G70*
G90*
G75*
G01*
G04 TopPaste*
%LPD*%
D117*
X920571Y1150886D3*
X1100098D3*
D115*
X1010335Y1414665D3*
D111*
X683071Y896505D3*
X757874D3*
D109*
X1158071Y687450D3*
Y612647D3*
X1233072Y962450D3*
Y887647D3*
X1101822Y962450D3*
Y887647D3*
D104*
X539215Y724846D3*
Y835083D3*
D109*
X1620571Y1206201D3*
Y1131398D3*
X2420570Y1206201D3*
Y1131398D3*
X3220571Y1199951D3*
Y1125148D3*
X4008068Y1206201D3*
Y1131398D3*
X4808571Y1206201D3*
Y1131398D3*
X5614357Y1204201D3*
Y1129398D3*
X6358084Y1206201D3*
Y1131398D3*
X6961070Y1206201D3*
Y1131398D3*
X3508071Y481201D3*
Y556004D3*
X3720669Y481299D3*
Y556102D3*
X1381833Y1568701D3*
Y1493898D3*
X1620571Y937450D3*
Y1012253D3*
X2181833Y1568701D3*
Y1493898D3*
X2420571Y937451D3*
Y1012255D3*
X2964071Y1568701D3*
Y1493898D3*
X3220571Y937451D3*
Y1012255D3*
X3781831Y1568701D3*
Y1493898D3*
X4007970Y937550D3*
Y1012353D3*
X4581820Y1571950D3*
Y1497147D3*
X4808472Y937550D3*
Y1012353D3*
X5381883Y1566701D3*
Y1491898D3*
X5614358Y937451D3*
Y1012255D3*
X6138096Y1568701D3*
Y1493898D3*
X6358165Y937451D3*
Y1012255D3*
X6785031Y1483951D3*
Y1409148D3*
X6961071Y931201D3*
Y1006004D3*
D91*
X1426822Y1206199D3*
X1340207Y1243601D3*
X1426822Y1281003D3*
X2251820Y1206199D3*
X2165206Y1243601D3*
X2251820Y1281003D3*
X3064320Y1199950D3*
X2977706Y1237352D3*
X3064320Y1274753D3*
X3851819Y1206201D3*
X3765205Y1243602D3*
X3851819Y1281004D3*
X4671071Y1206201D3*
X4584457Y1243602D3*
X4671071Y1281004D3*
X5445608Y1204201D3*
X5358993Y1241602D3*
X5445608Y1279004D3*
X6208083Y1206201D3*
X6121469Y1243602D3*
X6208083Y1281004D3*
X6798570Y1206201D3*
X6711955Y1243602D3*
X6798570Y1281004D3*
D89*
X3508071Y806201D3*
Y756201D3*
Y706201D3*
Y656201D3*
X3720669D3*
Y706201D3*
Y756201D3*
Y806201D3*
D87*
X7171916Y795276D3*
X505249Y2748031D3*
X7171958Y2748058D3*
M02*
