G04 DipTrace 3.0.0.1*
G04 TopSilk.gbr*
%MOIN*%
G04 #@! TF.FileFunction,Legend,Top*
G04 #@! TF.Part,Single*
%ADD10C,0.01*%
%ADD12C,0.002992*%
%ADD54C,0.01541*%
%ADD69C,0.018113*%
%ADD118C,0.006176*%
%ADD119C,0.004632*%
%ADD120C,0.00772*%
%ADD121C,0.009264*%
%ADD123C,0.012351*%
%FSLAX26Y26*%
G04*
G70*
G90*
G75*
G01*
G04 TopSilk*
%LPD*%
X880408Y1221772D2*
D10*
X1140251D1*
X880408Y1497362D2*
Y1221772D1*
Y1497362D2*
X888274D1*
X1140251D2*
Y1221772D1*
Y1497362D2*
X1132386D1*
D54*
X881342Y1106826D3*
X6212598Y468514D2*
D10*
X5574803D1*
Y763764D1*
X6212598D1*
Y468514D1*
X7070866D2*
X6433071D1*
Y763764D1*
X7070866D1*
Y468514D1*
X1543625Y2595795D2*
X793625D1*
Y3087795D1*
X1543625D1*
Y2595795D1*
X2333625D2*
X1583625D1*
Y3087795D1*
X2333625D1*
Y2595795D1*
X3123625D2*
X2373625D1*
Y3087795D1*
X3123625D1*
Y2595795D1*
X3913625D2*
X3163625D1*
Y3087795D1*
X3913625D1*
Y2595795D1*
X4703625D2*
X3953625D1*
Y3087795D1*
X4703625D1*
Y2595795D1*
X5493625D2*
X4743625D1*
Y3087795D1*
X5493625D1*
Y2595795D1*
X6283625D2*
X5533625D1*
Y3087795D1*
X6283625D1*
Y2595795D1*
X7073625D2*
X6323625D1*
Y3087795D1*
X7073625D1*
Y2595795D1*
X641717Y870934D2*
Y922076D1*
X1132500Y728804D2*
X1183642D1*
X1207501Y1003804D2*
X1258643D1*
X1076251D2*
X1127392D1*
X587668Y994980D2*
Y1085531D1*
X788613D1*
X621052Y994980D2*
Y1085531D1*
X788613Y994980D2*
Y1085531D1*
X587668Y994980D2*
X788613D1*
X570680Y768185D2*
Y791744D1*
X507751Y768185D2*
Y791744D1*
X649655Y203528D2*
X1004019D1*
Y518471D1*
Y731112D2*
Y770464D1*
X935093D1*
X718580D2*
X649655D1*
Y203528D1*
X1463337Y571457D2*
X1636566D1*
Y665945D1*
X1463337D1*
Y571457D1*
X1349064Y598967D2*
X1254576D1*
Y772196D1*
X1349064D1*
Y598967D1*
X1160827Y1355496D2*
X1255315D1*
Y1182268D1*
X1160827D1*
Y1355496D1*
X1465207Y735827D2*
X1638436D1*
Y830315D1*
X1465207D1*
Y735827D1*
X843822Y1668701D2*
Y2558701D1*
X1493822D2*
X843822D1*
X1493822D2*
Y1668701D1*
X843822D2*
X1493822D1*
X933847Y1943711D2*
Y1968720D1*
X1143797D1*
Y1918702D1*
X1168822D1*
X1193847D1*
Y2018738D2*
X1143797D1*
Y1968720D1*
X1193847Y1918702D2*
Y1968720D1*
X1403797D1*
X1193847D2*
Y2018738D1*
X1403797Y1968720D2*
Y1943711D1*
X1193847Y1918702D2*
X1143797Y2018738D1*
X1168822Y2043658D2*
Y2303716D1*
X1143797Y2328725D1*
X1021792D2*
X1143797D1*
X1193847D2*
X1316827D1*
X1143797D2*
X1131837Y2341719D1*
X1168822Y1853732D2*
Y1893693D1*
X1633822Y1668701D2*
Y2558701D1*
X2283822D2*
X1633822D1*
X2283822D2*
Y1668701D1*
X1633822D2*
X2283822D1*
X1723847Y1943711D2*
Y1968720D1*
X1933797D1*
Y1918702D1*
X1958822D1*
X1983847D1*
Y2018738D2*
X1933797D1*
Y1968720D1*
X1983847Y1918702D2*
Y1968720D1*
X2193797D1*
X1983847D2*
Y2018738D1*
X2193797Y1968720D2*
Y1943711D1*
X1983847Y1918702D2*
X1933797Y2018738D1*
X1958822Y2043658D2*
Y2303716D1*
X1933797Y2328725D1*
X1811792D2*
X1933797D1*
X1983847D2*
X2106827D1*
X1933797D2*
X1921837Y2341719D1*
X1958822Y1853732D2*
Y1893693D1*
X2423822Y1668701D2*
Y2558701D1*
X3073822D2*
X2423822D1*
X3073822D2*
Y1668701D1*
X2423822D2*
X3073822D1*
X2513847Y1943711D2*
Y1968720D1*
X2723797D1*
Y1918702D1*
X2748822D1*
X2773847D1*
Y2018738D2*
X2723797D1*
Y1968720D1*
X2773847Y1918702D2*
Y1968720D1*
X2983797D1*
X2773847D2*
Y2018738D1*
X2983797Y1968720D2*
Y1943711D1*
X2773847Y1918702D2*
X2723797Y2018738D1*
X2748822Y2043658D2*
Y2303716D1*
X2723797Y2328725D1*
X2601792D2*
X2723797D1*
X2773847D2*
X2896827D1*
X2723797D2*
X2711837Y2341719D1*
X2748822Y1853732D2*
Y1893693D1*
X3213822Y1668701D2*
Y2558701D1*
X3863822D2*
X3213822D1*
X3863822D2*
Y1668701D1*
X3213822D2*
X3863822D1*
X3303847Y1943711D2*
Y1968720D1*
X3513797D1*
Y1918702D1*
X3538822D1*
X3563847D1*
Y2018738D2*
X3513797D1*
Y1968720D1*
X3563847Y1918702D2*
Y1968720D1*
X3773797D1*
X3563847D2*
Y2018738D1*
X3773797Y1968720D2*
Y1943711D1*
X3563847Y1918702D2*
X3513797Y2018738D1*
X3538822Y2043658D2*
Y2303716D1*
X3513797Y2328725D1*
X3391792D2*
X3513797D1*
X3563847D2*
X3686827D1*
X3513797D2*
X3501837Y2341719D1*
X3538822Y1853732D2*
Y1893693D1*
X4003822Y1668701D2*
Y2558701D1*
X4653822D2*
X4003822D1*
X4653822D2*
Y1668701D1*
X4003822D2*
X4653822D1*
X4093847Y1943711D2*
Y1968720D1*
X4303797D1*
Y1918702D1*
X4328822D1*
X4353847D1*
Y2018738D2*
X4303797D1*
Y1968720D1*
X4353847Y1918702D2*
Y1968720D1*
X4563797D1*
X4353847D2*
Y2018738D1*
X4563797Y1968720D2*
Y1943711D1*
X4353847Y1918702D2*
X4303797Y2018738D1*
X4328822Y2043658D2*
Y2303716D1*
X4303797Y2328725D1*
X4181792D2*
X4303797D1*
X4353847D2*
X4476827D1*
X4303797D2*
X4291837Y2341719D1*
X4328822Y1853732D2*
Y1893693D1*
X4793822Y1668701D2*
Y2558701D1*
X5443822D2*
X4793822D1*
X5443822D2*
Y1668701D1*
X4793822D2*
X5443822D1*
X4883847Y1943711D2*
Y1968720D1*
X5093797D1*
Y1918702D1*
X5118822D1*
X5143847D1*
Y2018738D2*
X5093797D1*
Y1968720D1*
X5143847Y1918702D2*
Y1968720D1*
X5353797D1*
X5143847D2*
Y2018738D1*
X5353797Y1968720D2*
Y1943711D1*
X5143847Y1918702D2*
X5093797Y2018738D1*
X5118822Y2043658D2*
Y2303716D1*
X5093797Y2328725D1*
X4971792D2*
X5093797D1*
X5143847D2*
X5266827D1*
X5093797D2*
X5081837Y2341719D1*
X5118822Y1853732D2*
Y1893693D1*
X5585822Y1668701D2*
Y2558701D1*
X6235822D2*
X5585822D1*
X6235822D2*
Y1668701D1*
X5585822D2*
X6235822D1*
X5675847Y1943711D2*
Y1968720D1*
X5885797D1*
Y1918702D1*
X5910822D1*
X5935847D1*
Y2018738D2*
X5885797D1*
Y1968720D1*
X5935847Y1918702D2*
Y1968720D1*
X6145797D1*
X5935847D2*
Y2018738D1*
X6145797Y1968720D2*
Y1943711D1*
X5935847Y1918702D2*
X5885797Y2018738D1*
X5910822Y2043658D2*
Y2303716D1*
X5885797Y2328725D1*
X5763792D2*
X5885797D1*
X5935847D2*
X6058827D1*
X5885797D2*
X5873837Y2341719D1*
X5910822Y1853732D2*
Y1893693D1*
X6375822Y1668701D2*
Y2558701D1*
X7025822D2*
X6375822D1*
X7025822D2*
Y1668701D1*
X6375822D2*
X7025822D1*
X6465847Y1943711D2*
Y1968720D1*
X6675797D1*
Y1918702D1*
X6700822D1*
X6725847D1*
Y2018738D2*
X6675797D1*
Y1968720D1*
X6725847Y1918702D2*
Y1968720D1*
X6935797D1*
X6725847D2*
Y2018738D1*
X6935797Y1968720D2*
Y1943711D1*
X6725847Y1918702D2*
X6675797Y2018738D1*
X6700822Y2043658D2*
Y2303716D1*
X6675797Y2328725D1*
X6553792D2*
X6675797D1*
X6725847D2*
X6848827D1*
X6675797D2*
X6663837Y2341719D1*
X6700822Y1853732D2*
Y1893693D1*
X1595000Y1243584D2*
X1646142D1*
X2394999D2*
X2446140D1*
X3195000Y1237335D2*
X3246142D1*
X3982497Y1243584D2*
X4033639D1*
X4783000D2*
X4834142D1*
X5588786Y1241584D2*
X5639928D1*
X6332513Y1243584D2*
X6383655D1*
X6935499D2*
X6986640D1*
X1599455Y1546063D2*
Y1341339D1*
X1804188D1*
Y1546063D1*
X1725447D1*
X1678196D2*
X1599455D1*
X1678196D2*
G03X1725447Y1546063I23626J1D01*
G01*
X2399455D2*
Y1341339D1*
X2604188D1*
Y1546063D1*
X2525447D1*
X2478196D2*
X2399455D1*
X2478196D2*
G03X2525447Y1546063I23626J1D01*
G01*
X3199455D2*
Y1341339D1*
X3404188D1*
Y1546063D1*
X3325447D1*
X3278196D2*
X3199455D1*
X3278196D2*
G03X3325447Y1546063I23626J1D01*
G01*
X3999452D2*
Y1341339D1*
X4204186D1*
Y1546063D1*
X4125445D1*
X4078193D2*
X3999452D1*
X4078193D2*
G03X4125445Y1546063I23626J1D01*
G01*
X4799455Y1549063D2*
Y1344339D1*
X5004188D1*
Y1549063D1*
X4925447D1*
X4878196D2*
X4799455D1*
X4878196D2*
G03X4925447Y1549063I23626J1D01*
G01*
X5599492Y1544063D2*
Y1339339D1*
X5804225D1*
Y1544063D1*
X5725484D1*
X5678232D2*
X5599492D1*
X5678232D2*
G03X5725484Y1544063I23626J1D01*
G01*
X6355717Y1546063D2*
Y1341339D1*
X6560451D1*
Y1546063D1*
X6481710D1*
X6434458D2*
X6355717D1*
X6434458D2*
G03X6481710Y1546063I23626J1D01*
G01*
X6977704Y1552312D2*
Y1347588D1*
X7182437D1*
Y1552312D1*
X7103697D1*
X7056445D2*
X6977704D1*
X7056445D2*
G03X7103697Y1552312I23626J1D01*
G01*
X1724918Y1071424D2*
X1705229Y1051734D1*
Y1091115D2*
X1685541Y1071424D1*
X1705229Y1051734D1*
X1687913Y1156248D2*
G02X1687913Y1156248I113952J0D01*
G01*
X2524918Y1071424D2*
X2505229Y1051734D1*
Y1091115D2*
X2485541Y1071424D1*
X2505229Y1051734D1*
X2487913Y1156248D2*
G02X2487913Y1156248I113952J0D01*
G01*
X3324918Y1065175D2*
X3305229Y1045484D1*
Y1084865D2*
X3285541Y1065175D1*
X3305229Y1045484D1*
X3287913Y1149999D2*
G02X3287913Y1149999I113952J0D01*
G01*
X4124916Y1071424D2*
X4105228Y1051734D1*
Y1091115D2*
X4085539Y1071424D1*
X4105228Y1051734D1*
X4087911Y1156248D2*
G02X4087911Y1156248I113952J0D01*
G01*
X4925419Y1071424D2*
X4905731Y1051734D1*
Y1091115D2*
X4886042Y1071424D1*
X4905731Y1051734D1*
X4888414Y1156248D2*
G02X4888414Y1156248I113952J0D01*
G01*
X5724955Y1069424D2*
X5705266Y1049734D1*
Y1089115D2*
X5685577Y1069424D1*
X5705266Y1049734D1*
X5687949Y1154248D2*
G02X5687949Y1154248I113952J0D01*
G01*
X6481182Y1071424D2*
X6461493Y1051734D1*
Y1091115D2*
X6441804Y1071424D1*
X6461493Y1051734D1*
X6444176Y1156248D2*
G02X6444176Y1156248I113952J0D01*
G01*
X7084168Y1071424D2*
X7064480Y1051734D1*
Y1091115D2*
X7044791Y1071424D1*
X7064480Y1051734D1*
X7047163Y1156248D2*
G02X7047163Y1156248I113952J0D01*
G01*
X4026755Y842407D2*
X4501966D1*
Y192411D1*
X4026755D1*
Y842407D1*
X4801753D2*
X5276965D1*
Y192411D1*
X4801753D1*
Y842407D1*
G36*
X2611716Y771444D2*
X2479746D1*
Y812501D1*
X2611716D1*
Y771444D1*
G37*
X3346358Y458318D2*
D10*
X1744783D1*
Y816585D1*
X3346358D1*
Y458318D1*
X1376031Y1186508D2*
X1390998D1*
Y1299109D1*
X1376031D1*
Y1186508D1*
D69*
X1403598Y1168798D3*
X2201030Y1186508D2*
D10*
X2215997D1*
Y1299109D1*
X2201030D1*
Y1186508D1*
D69*
X2228597Y1168798D3*
X3013530Y1180259D2*
D10*
X3028497D1*
Y1292860D1*
X3013530D1*
Y1180259D1*
D69*
X3041097Y1162549D3*
X3801028Y1186510D2*
D10*
X3815995D1*
Y1299110D1*
X3801028D1*
Y1186510D1*
D69*
X3828595Y1168800D3*
X4620280Y1186510D2*
D10*
X4635247D1*
Y1299110D1*
X4620280D1*
Y1186510D1*
D69*
X4647847Y1168800D3*
X5394817Y1184510D2*
D10*
X5409784D1*
Y1297110D1*
X5394817D1*
Y1184510D1*
D69*
X5422384Y1166800D3*
X6157292Y1186510D2*
D10*
X6172259D1*
Y1299110D1*
X6157292D1*
Y1186510D1*
D69*
X6184859Y1168800D3*
X6747779Y1186510D2*
D10*
X6762746D1*
Y1299110D1*
X6747779D1*
Y1186510D1*
D69*
X6775346Y1168800D3*
X3563182Y829628D2*
D10*
Y632774D1*
X3665558Y829628D2*
Y632774D1*
X3563182D2*
X3665558D1*
X3594676Y829628D2*
X3563182D1*
X3634065D2*
X3665558D1*
X3594676D2*
G03X3634065Y829628I19694J9D01*
G01*
X401403Y1923245D2*
X810852D1*
Y1273639D1*
X401403D1*
Y1923245D1*
X577008Y2256850D2*
D12*
X621890D1*
X576894Y2253858D2*
X622004D1*
X576510Y2250866D2*
X622387D1*
X575793Y2247874D2*
X623104D1*
X575014Y2244882D2*
X623883D1*
X574387Y2241890D2*
X624510D1*
X573693Y2238898D2*
X625204D1*
X505197Y2235906D2*
X514173D1*
X572511D2*
X626387D1*
X684724D2*
X693701D1*
X501742Y2232913D2*
X519693D1*
X570795D2*
X628103D1*
X679205D2*
X697155D1*
X497997Y2229921D2*
X524910D1*
X566739D2*
X632159D1*
X673988D2*
X700901D1*
X494136Y2226929D2*
X529996D1*
X561630D2*
X637268D1*
X668901D2*
X704761D1*
X490356Y2223937D2*
X535118D1*
X556063D2*
X642835D1*
X663780D2*
X708542D1*
X486879Y2220945D2*
X712019D1*
X483854Y2217953D2*
X715044D1*
X482710Y2214961D2*
X716188D1*
X483207Y2211969D2*
X715690D1*
X485177Y2208976D2*
X713721D1*
X487523Y2205984D2*
X711375D1*
X489892Y2202992D2*
X709006D1*
X492070Y2200000D2*
X706828D1*
X494247Y2197008D2*
X704651D1*
X496575Y2194016D2*
X702322D1*
X498682Y2191024D2*
X700216D1*
X500336Y2188031D2*
X698562D1*
X500173Y2185039D2*
X698725D1*
X499406Y2182047D2*
X699492D1*
X498235Y2179055D2*
X700662D1*
X496746Y2176063D2*
X702152D1*
X494631Y2173071D2*
X589690D1*
X609208D2*
X704267D1*
X491763Y2170079D2*
X582456D1*
X616441D2*
X707135D1*
X484558Y2167087D2*
X576685D1*
X622212D2*
X714340D1*
X475079Y2164094D2*
X572197D1*
X626700D2*
X723819D1*
X465527Y2161102D2*
X568518D1*
X630379D2*
X733371D1*
X457438Y2158110D2*
X565349D1*
X633549D2*
X741460D1*
X453767Y2155118D2*
X562739D1*
X636158D2*
X745130D1*
X452466Y2152126D2*
X560919D1*
X637978D2*
X746431D1*
X451799Y2149134D2*
X559894D1*
X639003D2*
X747099D1*
X451512Y2146142D2*
X559401D1*
X639497D2*
X747385D1*
X451401Y2143150D2*
X559188D1*
X639709D2*
X747497D1*
X451360Y2140157D2*
X559115D1*
X639782D2*
X747538D1*
X451346Y2137165D2*
X559201D1*
X639697D2*
X747552D1*
X451388Y2134173D2*
X559676D1*
X639222D2*
X747510D1*
X451631Y2131181D2*
X560793D1*
X638104D2*
X747266D1*
X452087Y2128189D2*
X562498D1*
X636400D2*
X746811D1*
X459265Y2125197D2*
X564678D1*
X634220D2*
X739633D1*
X468681Y2122205D2*
X567514D1*
X631384D2*
X730217D1*
X478108Y2119213D2*
X571037D1*
X627861D2*
X720790D1*
X485269Y2116220D2*
X574830D1*
X624068D2*
X713629D1*
X490595Y2113228D2*
X578125D1*
X620773D2*
X708303D1*
X493101Y2110236D2*
X580639D1*
X618259D2*
X705797D1*
X495118Y2107244D2*
X581005D1*
X617893D2*
X703780D1*
X496843Y2104252D2*
X580168D1*
X618730D2*
X702055D1*
X498505Y2101260D2*
X579016D1*
X619882D2*
X700393D1*
X500283Y2098268D2*
X577665D1*
X621233D2*
X698615D1*
X502205Y2095276D2*
X576229D1*
X622669D2*
X696693D1*
X499213Y2092283D2*
X574752D1*
X624146D2*
X699685D1*
X496232Y2089291D2*
X573265D1*
X625632D2*
X702665D1*
X493345Y2086299D2*
X571769D1*
X627128D2*
X705552D1*
X490734Y2083307D2*
X570276D1*
X628621D2*
X708163D1*
X488471Y2080315D2*
X568778D1*
X630119D2*
X710427D1*
X486363Y2077323D2*
X567285D1*
X631613D2*
X712535D1*
X484414Y2074331D2*
X565786D1*
X633111D2*
X714484D1*
X482763Y2071339D2*
X564293D1*
X634605D2*
X716135D1*
X482605Y2068346D2*
X562794D1*
X636104D2*
X716293D1*
X484508Y2065354D2*
X561291D1*
X637607D2*
X714390D1*
X487270Y2062362D2*
X559715D1*
X639183D2*
X711627D1*
X490626Y2059370D2*
X535232D1*
X547087D2*
X557969D1*
X640928D2*
X651811D1*
X663666D2*
X708272D1*
X494379Y2056378D2*
X529634D1*
X553071D2*
X556063D1*
X642835D2*
X645827D1*
X669264D2*
X704519D1*
X498180Y2053386D2*
X524392D1*
X674506D2*
X700718D1*
X501758Y2050394D2*
X519298D1*
X679600D2*
X697140D1*
X505197Y2047402D2*
X514173D1*
X684724D2*
X693701D1*
X415433Y2020472D2*
X433386D1*
X448346D2*
X475276D1*
X493228D2*
X511181D1*
X526142D2*
X550079D1*
X585984D2*
X606929D1*
X624882D2*
X642835D1*
X657795D2*
X663780D1*
X681732D2*
X687717D1*
X696693D2*
X723622D1*
X732598D2*
X750551D1*
X765512D2*
X783465D1*
X414052Y2017480D2*
X435790D1*
X448346D2*
X476657D1*
X490710D2*
X513585D1*
X526142D2*
X552483D1*
X583592D2*
X608519D1*
X622478D2*
X645239D1*
X657795D2*
X663780D1*
X681732D2*
X687717D1*
X696693D2*
X720287D1*
X729732D2*
X753543D1*
X762520D2*
X784846D1*
X413193Y2014488D2*
X437540D1*
X448346D2*
X477516D1*
X488577D2*
X515335D1*
X526142D2*
X554233D1*
X581604D2*
X609921D1*
X620728D2*
X646989D1*
X657795D2*
X663780D1*
X681732D2*
X687717D1*
X696693D2*
X715687D1*
X727240D2*
X785705D1*
X412758Y2011496D2*
X419025D1*
X429794D2*
X438542D1*
X448346D2*
X456872D1*
X468692D2*
X477951D1*
X486858D2*
X493228D1*
X508189D2*
X516337D1*
X526142D2*
X535706D1*
X546499D2*
X555235D1*
X581082D2*
X588976D1*
X619726D2*
X628462D1*
X639243D2*
X647991D1*
X657795D2*
X663791D1*
X681721D2*
X687717D1*
X696693D2*
X711247D1*
X725463D2*
X732598D1*
X750551D2*
D3*
X759528D2*
X768504D1*
X780472D2*
X786140D1*
X412565Y2008504D2*
X417037D1*
X431782D2*
X439028D1*
X448346D2*
X456244D1*
X470679D2*
X478144D1*
X485616D2*
X516824D1*
X526142D2*
X533956D1*
X548248D2*
X555721D1*
X582340D2*
X598749D1*
X619240D2*
X626712D1*
X641230D2*
X648477D1*
X657795D2*
X663908D1*
X681604D2*
X687717D1*
X696693D2*
X707805D1*
X724465D2*
X732622D1*
X759528D2*
X786333D1*
X412487Y2005512D2*
X416468D1*
X432351D2*
X439238D1*
X448346D2*
X455660D1*
X471261D2*
X478222D1*
X484989D2*
X517042D1*
X526142D2*
X532954D1*
X549251D2*
X555931D1*
X587335D2*
X606572D1*
X619030D2*
X625707D1*
X641812D2*
X648675D1*
X657795D2*
X664406D1*
X681106D2*
X687717D1*
X696693D2*
X706679D1*
X724082D2*
X732850D1*
X759539D2*
X786413D1*
X412469Y2002520D2*
X417500D1*
X431319D2*
X439298D1*
X448346D2*
X456311D1*
X470454D2*
X478240D1*
X485033D2*
X517165D1*
X526142D2*
X532468D1*
X549737D2*
X556015D1*
X594870D2*
X610210D1*
X618969D2*
X625198D1*
X641005D2*
X648642D1*
X657807D2*
X665610D1*
X679902D2*
X687717D1*
X696693D2*
X706088D1*
X724276D2*
X733393D1*
X759656D2*
X786457D1*
X412572Y1999528D2*
X419274D1*
X429545D2*
X439102D1*
X448346D2*
X457323D1*
X469291D2*
X478110D1*
X485820D2*
X493228D1*
X526142D2*
X532258D1*
X549947D2*
X556046D1*
X582992D2*
X585984D1*
X603937D2*
X611494D1*
X619166D2*
X624882D1*
X639843D2*
X648176D1*
X657921D2*
X667523D1*
X677989D2*
X687717D1*
X696693D2*
X705830D1*
X725137D2*
X735725D1*
X750551D2*
D3*
X760154D2*
X768504D1*
X413031Y1996535D2*
X421417D1*
X427402D2*
X438573D1*
X448346D2*
X477764D1*
X487455D2*
X499213D1*
X505197D2*
X514173D1*
X526142D2*
X532174D1*
X550030D2*
X556057D1*
X581812D2*
X591969D1*
X600945D2*
X610855D1*
X619695D2*
X646983D1*
X658383D2*
X669764D1*
X675748D2*
X687717D1*
X696693D2*
X705727D1*
X726805D2*
X738583D1*
X744567D2*
X753543D1*
X761358D2*
X771496D1*
X780472D2*
X786457D1*
X414052Y1993543D2*
X436242D1*
X448346D2*
X475915D1*
X490044D2*
X517165D1*
X526142D2*
X532142D1*
X550063D2*
X556061D1*
X580935D2*
X607299D1*
X622025D2*
X645073D1*
X659406D2*
X687717D1*
X696693D2*
X705689D1*
X729407D2*
X756535D1*
X763271D2*
X786457D1*
X415433Y1990551D2*
X433386D1*
X448346D2*
X471466D1*
X493228D2*
X514173D1*
X526142D2*
X532126D1*
X550079D2*
X556063D1*
X587638D2*
X601753D1*
X624882D2*
X642835D1*
X660787D2*
X687717D1*
X696693D2*
X705669D1*
X732598D2*
X750551D1*
X765512D2*
X786457D1*
X448346Y1987559D2*
X454331D1*
X466299D2*
D3*
X594961D2*
D3*
X448346Y1984567D2*
X454331D1*
X577008D2*
X585984D1*
X448346Y1981575D2*
X454331D1*
X577008D2*
X585984D1*
X448346Y1978583D2*
X454331D1*
X577008D2*
X585984D1*
X448346Y1975591D2*
X454331D1*
X577008D2*
X585984D1*
X448346Y1972598D2*
X454331D1*
X577008D2*
X585984D1*
X448346Y1969606D2*
X465022D1*
X490236D2*
X514173D1*
X526142D2*
X553071D1*
X559055D2*
X597953D1*
X612913D2*
X621890D1*
X636850D2*
X645827D1*
X651811D2*
X675748D1*
X687717D2*
X714646D1*
X720630D2*
X741575D1*
X448346Y1966614D2*
X473182D1*
X487244D2*
X515554D1*
X526142D2*
X585984D1*
X592082D2*
X599099D1*
X612449D2*
X622913D1*
X635827D2*
X676771D1*
X687717D2*
X743979D1*
X448346Y1963622D2*
X476326D1*
X497249D2*
X516414D1*
X526142D2*
X585984D1*
X592478D2*
X600462D1*
X611682D2*
X623811D1*
X634929D2*
X642372D1*
X653214D2*
X677661D1*
X687717D2*
X711654D1*
X718226D2*
X745729D1*
X448346Y1960630D2*
X457911D1*
X468703D2*
X477379D1*
X508189D2*
X516849D1*
X526142D2*
X535118D1*
X553071D2*
X562047D1*
X577008D2*
X585984D1*
X593300D2*
X602098D1*
X610784D2*
X624425D1*
X634315D2*
X641619D1*
X669764D2*
X678229D1*
X687717D2*
X696693D1*
X716476D2*
X723622D1*
X738583D2*
X746731D1*
X448346Y1957638D2*
X456161D1*
X470453D2*
X477910D1*
X499123D2*
X517041D1*
X526142D2*
X535118D1*
X553071D2*
X562047D1*
X577008D2*
X585984D1*
X594449D2*
X603937D1*
X609921D2*
X624882D1*
X633858D2*
X640739D1*
X659991D2*
X678522D1*
X687717D2*
X695670D1*
X715486D2*
X747218D1*
X448346Y1954646D2*
X455159D1*
X471455D2*
X478135D1*
X492674D2*
X517120D1*
X526142D2*
X535118D1*
X553083D2*
X562047D1*
X577008D2*
X585984D1*
X595699D2*
X639822D1*
X652168D2*
X678654D1*
X687717D2*
X694779D1*
X715105D2*
X747435D1*
X448346Y1951654D2*
X454673D1*
X471941D2*
X478221D1*
X488050D2*
X517149D1*
X526142D2*
X535118D1*
X553197D2*
X562047D1*
X577008D2*
X585984D1*
X596858D2*
X616370D1*
X622354D2*
X638713D1*
X648531D2*
X678708D1*
X687717D2*
X694212D1*
X715278D2*
X747559D1*
X448346Y1948661D2*
X454463D1*
X472152D2*
X478252D1*
X486271D2*
X493228D1*
X508189D2*
X517160D1*
X526142D2*
X535118D1*
X553659D2*
X562047D1*
X577008D2*
X585984D1*
X597971D2*
X614145D1*
X623121D2*
X637348D1*
X647233D2*
X654803D1*
X669764D2*
X678729D1*
X687717D2*
X693918D1*
X715936D2*
X723622D1*
X448346Y1945669D2*
X454376D1*
X472238D2*
X478263D1*
X486519D2*
X499213D1*
X505197D2*
X517164D1*
X526142D2*
X535118D1*
X554682D2*
X585984D1*
X599341D2*
X612051D1*
X624020D2*
X635704D1*
X647813D2*
X657795D1*
X666772D2*
X678736D1*
X687717D2*
X693781D1*
X716795D2*
X729606D1*
X735591D2*
X744567D1*
X448346Y1942677D2*
X454331D1*
X472283D2*
X478268D1*
X487244D2*
X517165D1*
X526142D2*
X535118D1*
X556063D2*
X585984D1*
X600945D2*
X609921D1*
X624882D2*
X633858D1*
X648819D2*
X678740D1*
X687717D2*
X693701D1*
X717638D2*
X747559D1*
X577008Y2256850D2*
X576894Y2253858D1*
X576510Y2250866D1*
X575793Y2247874D1*
X575014Y2244882D1*
X574387Y2241890D1*
X573693Y2238898D1*
X572511Y2235906D1*
X570795Y2232913D1*
X566739Y2229921D1*
X561630Y2226929D1*
X556063Y2223937D1*
X621890Y2256850D2*
X622004Y2253858D1*
X622387Y2250866D1*
X623104Y2247874D1*
X623883Y2244882D1*
X624510Y2241890D1*
X625204Y2238898D1*
X626387Y2235906D1*
X628103Y2232913D1*
X632159Y2229921D1*
X637268Y2226929D1*
X642835Y2223937D1*
X505197Y2235906D2*
X501742Y2232913D1*
X497997Y2229921D1*
X494136Y2226929D1*
X490356Y2223937D1*
X486879Y2220945D1*
X483854Y2217953D1*
X482710Y2214961D1*
X483207Y2211969D1*
X485177Y2208976D1*
X487523Y2205984D1*
X489892Y2202992D1*
X492070Y2200000D1*
X494247Y2197008D1*
X496575Y2194016D1*
X498682Y2191024D1*
X500336Y2188031D1*
X500173Y2185039D1*
X499406Y2182047D1*
X498235Y2179055D1*
X496746Y2176063D1*
X494631Y2173071D1*
X491763Y2170079D1*
X484558Y2167087D1*
X475079Y2164094D1*
X465527Y2161102D1*
X457438Y2158110D1*
X453767Y2155118D1*
X452466Y2152126D1*
X451799Y2149134D1*
X451512Y2146142D1*
X451401Y2143150D1*
X451360Y2140157D1*
X451346Y2137165D1*
X451388Y2134173D1*
X451631Y2131181D1*
X452087Y2128189D1*
X459265Y2125197D1*
X468681Y2122205D1*
X478108Y2119213D1*
X485269Y2116220D1*
X490595Y2113228D1*
X493101Y2110236D1*
X495118Y2107244D1*
X496843Y2104252D1*
X498505Y2101260D1*
X500283Y2098268D1*
X502205Y2095276D1*
X499213Y2092283D1*
X496232Y2089291D1*
X493345Y2086299D1*
X490734Y2083307D1*
X488471Y2080315D1*
X486363Y2077323D1*
X484414Y2074331D1*
X482763Y2071339D1*
X482605Y2068346D1*
X484508Y2065354D1*
X487270Y2062362D1*
X490626Y2059370D1*
X494379Y2056378D1*
X498180Y2053386D1*
X501758Y2050394D1*
X505197Y2047402D1*
X514173Y2235906D2*
X519693Y2232913D1*
X524910Y2229921D1*
X529996Y2226929D1*
X535118Y2223937D1*
X684724Y2235906D2*
X679205Y2232913D1*
X673988Y2229921D1*
X668901Y2226929D1*
X663780Y2223937D1*
X693701Y2235906D2*
X697155Y2232913D1*
X700901Y2229921D1*
X704761Y2226929D1*
X708542Y2223937D1*
X712019Y2220945D1*
X715044Y2217953D1*
X716188Y2214961D1*
X715690Y2211969D1*
X713721Y2208976D1*
X711375Y2205984D1*
X709006Y2202992D1*
X706828Y2200000D1*
X704651Y2197008D1*
X702322Y2194016D1*
X700216Y2191024D1*
X698562Y2188031D1*
X698725Y2185039D1*
X699492Y2182047D1*
X700662Y2179055D1*
X702152Y2176063D1*
X704267Y2173071D1*
X707135Y2170079D1*
X714340Y2167087D1*
X723819Y2164094D1*
X733371Y2161102D1*
X741460Y2158110D1*
X745130Y2155118D1*
X746431Y2152126D1*
X747099Y2149134D1*
X747385Y2146142D1*
X747497Y2143150D1*
X747538Y2140157D1*
X747552Y2137165D1*
X747510Y2134173D1*
X747266Y2131181D1*
X746811Y2128189D1*
X739633Y2125197D1*
X730217Y2122205D1*
X720790Y2119213D1*
X713629Y2116220D1*
X708303Y2113228D1*
X705797Y2110236D1*
X703780Y2107244D1*
X702055Y2104252D1*
X700393Y2101260D1*
X698615Y2098268D1*
X696693Y2095276D1*
X699685Y2092283D1*
X702665Y2089291D1*
X705552Y2086299D1*
X708163Y2083307D1*
X710427Y2080315D1*
X712535Y2077323D1*
X714484Y2074331D1*
X716135Y2071339D1*
X716293Y2068346D1*
X714390Y2065354D1*
X711627Y2062362D1*
X708272Y2059370D1*
X704519Y2056378D1*
X700718Y2053386D1*
X697140Y2050394D1*
X693701Y2047402D1*
X597953Y2176063D2*
X589690Y2173071D1*
X582456Y2170079D1*
X576685Y2167087D1*
X572197Y2164094D1*
X568518Y2161102D1*
X565349Y2158110D1*
X562739Y2155118D1*
X560919Y2152126D1*
X559894Y2149134D1*
X559401Y2146142D1*
X559188Y2143150D1*
X559115Y2140157D1*
X559201Y2137165D1*
X559676Y2134173D1*
X560793Y2131181D1*
X562498Y2128189D1*
X564678Y2125197D1*
X567514Y2122205D1*
X571037Y2119213D1*
X574830Y2116220D1*
X578125Y2113228D1*
X580639Y2110236D1*
X581005Y2107244D1*
X580168Y2104252D1*
X579016Y2101260D1*
X577665Y2098268D1*
X576229Y2095276D1*
X574752Y2092283D1*
X573265Y2089291D1*
X571769Y2086299D1*
X570276Y2083307D1*
X568778Y2080315D1*
X567285Y2077323D1*
X565786Y2074331D1*
X564293Y2071339D1*
X562794Y2068346D1*
X561291Y2065354D1*
X559715Y2062362D1*
X557969Y2059370D1*
X556063Y2056378D1*
X600945Y2176063D2*
X609208Y2173071D1*
X616441Y2170079D1*
X622212Y2167087D1*
X626700Y2164094D1*
X630379Y2161102D1*
X633549Y2158110D1*
X636158Y2155118D1*
X637978Y2152126D1*
X639003Y2149134D1*
X639497Y2146142D1*
X639709Y2143150D1*
X639782Y2140157D1*
X639697Y2137165D1*
X639222Y2134173D1*
X638104Y2131181D1*
X636400Y2128189D1*
X634220Y2125197D1*
X631384Y2122205D1*
X627861Y2119213D1*
X624068Y2116220D1*
X620773Y2113228D1*
X618259Y2110236D1*
X617893Y2107244D1*
X618730Y2104252D1*
X619882Y2101260D1*
X621233Y2098268D1*
X622669Y2095276D1*
X624146Y2092283D1*
X625632Y2089291D1*
X627128Y2086299D1*
X628621Y2083307D1*
X630119Y2080315D1*
X631613Y2077323D1*
X633111Y2074331D1*
X634605Y2071339D1*
X636104Y2068346D1*
X637607Y2065354D1*
X639183Y2062362D1*
X640928Y2059370D1*
X642835Y2056378D1*
X541102Y2062362D2*
X535232Y2059370D1*
X529634Y2056378D1*
X524392Y2053386D1*
X519298Y2050394D1*
X514173Y2047402D1*
X541102Y2062362D2*
X547087Y2059370D1*
X553071Y2056378D1*
X657795Y2062362D2*
X651811Y2059370D1*
X645827Y2056378D1*
X657795Y2062362D2*
X663666Y2059370D1*
X669264Y2056378D1*
X674506Y2053386D1*
X679600Y2050394D1*
X684724Y2047402D1*
X415433Y2020472D2*
X414052Y2017480D1*
X413193Y2014488D1*
X412758Y2011496D1*
X412565Y2008504D1*
X412487Y2005512D1*
X412469Y2002520D1*
X412572Y1999528D1*
X413031Y1996535D1*
X414052Y1993543D1*
X415433Y1990551D1*
X433386Y2020472D2*
X435790Y2017480D1*
X437540Y2014488D1*
X438542Y2011496D1*
X439028Y2008504D1*
X439238Y2005512D1*
X439298Y2002520D1*
X439102Y1999528D1*
X438573Y1996535D1*
X436242Y1993543D1*
X433386Y1990551D1*
X448346Y2020472D2*
Y2017480D1*
Y2014488D1*
Y2011496D1*
Y2008504D1*
Y2005512D1*
Y2002520D1*
Y1999528D1*
Y1996535D1*
Y1993543D1*
Y1990551D1*
Y1987559D1*
Y1984567D1*
Y1981575D1*
Y1978583D1*
Y1975591D1*
Y1972598D1*
Y1969606D1*
Y1966614D1*
Y1963622D1*
Y1960630D1*
Y1957638D1*
Y1954646D1*
Y1951654D1*
Y1948661D1*
Y1945669D1*
Y1942677D1*
X475276Y2020472D2*
X476657Y2017480D1*
X477516Y2014488D1*
X477951Y2011496D1*
X478144Y2008504D1*
X478222Y2005512D1*
X478240Y2002520D1*
X478110Y1999528D1*
X477764Y1996535D1*
X475915Y1993543D1*
X471466Y1990551D1*
X466299Y1987559D1*
X493228Y2020472D2*
X490710Y2017480D1*
X488577Y2014488D1*
X486858Y2011496D1*
X485616Y2008504D1*
X484989Y2005512D1*
X485033Y2002520D1*
X485820Y1999528D1*
X487455Y1996535D1*
X490044Y1993543D1*
X493228Y1990551D1*
X511181Y2020472D2*
X513585Y2017480D1*
X515335Y2014488D1*
X516337Y2011496D1*
X516824Y2008504D1*
X517042Y2005512D1*
X517165Y2002520D1*
X493228Y1999528D1*
X499213Y1996535D1*
X526142Y2020472D2*
Y2017480D1*
Y2014488D1*
Y2011496D1*
Y2008504D1*
Y2005512D1*
Y2002520D1*
Y1999528D1*
Y1996535D1*
Y1993543D1*
Y1990551D1*
X550079Y2020472D2*
X552483Y2017480D1*
X554233Y2014488D1*
X555235Y2011496D1*
X555721Y2008504D1*
X555931Y2005512D1*
X556015Y2002520D1*
X556046Y1999528D1*
X556057Y1996535D1*
X556061Y1993543D1*
X556063Y1990551D1*
X585984Y2020472D2*
X583592Y2017480D1*
X581604Y2014488D1*
X581082Y2011496D1*
X582340Y2008504D1*
X587335Y2005512D1*
X594870Y2002520D1*
X603937Y1999528D1*
X600945Y1996535D1*
X606929Y2020472D2*
X608519Y2017480D1*
X609921Y2014488D1*
X588976Y2011496D1*
X598749Y2008504D1*
X606572Y2005512D1*
X610210Y2002520D1*
X611494Y1999528D1*
X610855Y1996535D1*
X607299Y1993543D1*
X601753Y1990551D1*
X594961Y1987559D1*
X624882Y2020472D2*
X622478Y2017480D1*
X620728Y2014488D1*
X619726Y2011496D1*
X619240Y2008504D1*
X619030Y2005512D1*
X618969Y2002520D1*
X619166Y1999528D1*
X619695Y1996535D1*
X622025Y1993543D1*
X624882Y1990551D1*
X642835Y2020472D2*
X645239Y2017480D1*
X646989Y2014488D1*
X647991Y2011496D1*
X648477Y2008504D1*
X648675Y2005512D1*
X648642Y2002520D1*
X648176Y1999528D1*
X646983Y1996535D1*
X645073Y1993543D1*
X642835Y1990551D1*
X657795Y2020472D2*
Y2017480D1*
Y2014488D1*
Y2011496D1*
Y2008504D1*
Y2005512D1*
X657807Y2002520D1*
X657921Y1999528D1*
X658383Y1996535D1*
X659406Y1993543D1*
X660787Y1990551D1*
X663780Y2020472D2*
Y2017480D1*
Y2014488D1*
X663791Y2011496D1*
X663908Y2008504D1*
X664406Y2005512D1*
X665610Y2002520D1*
X667523Y1999528D1*
X669764Y1996535D1*
X681732Y2020472D2*
Y2017480D1*
Y2014488D1*
X681721Y2011496D1*
X681604Y2008504D1*
X681106Y2005512D1*
X679902Y2002520D1*
X677989Y1999528D1*
X675748Y1996535D1*
X687717Y2020472D2*
Y2017480D1*
Y2014488D1*
Y2011496D1*
Y2008504D1*
Y2005512D1*
Y2002520D1*
Y1999528D1*
Y1996535D1*
Y1993543D1*
Y1990551D1*
X696693Y2020472D2*
Y2017480D1*
Y2014488D1*
Y2011496D1*
Y2008504D1*
Y2005512D1*
Y2002520D1*
Y1999528D1*
Y1996535D1*
Y1993543D1*
Y1990551D1*
X723622Y2020472D2*
X720287Y2017480D1*
X715687Y2014488D1*
X711247Y2011496D1*
X707805Y2008504D1*
X706679Y2005512D1*
X706088Y2002520D1*
X705830Y1999528D1*
X705727Y1996535D1*
X705689Y1993543D1*
X705669Y1990551D1*
X732598Y2020472D2*
X729732Y2017480D1*
X727240Y2014488D1*
X725463Y2011496D1*
X724465Y2008504D1*
X724082Y2005512D1*
X724276Y2002520D1*
X725137Y1999528D1*
X726805Y1996535D1*
X729407Y1993543D1*
X732598Y1990551D1*
X750551Y2020472D2*
X753543Y2017480D1*
X765512Y2020472D2*
X762520Y2017480D1*
X783465Y2020472D2*
X784846Y2017480D1*
X785705Y2014488D1*
X786140Y2011496D1*
X786333Y2008504D1*
X786413Y2005512D1*
X786457Y2002520D1*
X768504Y1999528D1*
X771496Y1996535D1*
X421417Y2014488D2*
X419025Y2011496D1*
X417037Y2008504D1*
X416468Y2005512D1*
X417500Y2002520D1*
X419274Y1999528D1*
X421417Y1996535D1*
X427402Y2014488D2*
X429794Y2011496D1*
X431782Y2008504D1*
X432351Y2005512D1*
X431319Y2002520D1*
X429545Y1999528D1*
X427402Y1996535D1*
X457323Y2014488D2*
X456872Y2011496D1*
X456244Y2008504D1*
X455660Y2005512D1*
X456311Y2002520D1*
X457323Y1999528D1*
X466299Y2014488D2*
X468692Y2011496D1*
X470679Y2008504D1*
X471261Y2005512D1*
X470454Y2002520D1*
X469291Y1999528D1*
X496220Y2014488D2*
X493228Y2011496D1*
X505197Y2014488D2*
X508189Y2011496D1*
X538110Y2014488D2*
X535706Y2011496D1*
X533956Y2008504D1*
X532954Y2005512D1*
X532468Y2002520D1*
X532258Y1999528D1*
X532174Y1996535D1*
X532142Y1993543D1*
X532126Y1990551D1*
X544094Y2014488D2*
X546499Y2011496D1*
X548248Y2008504D1*
X549251Y2005512D1*
X549737Y2002520D1*
X549947Y1999528D1*
X550030Y1996535D1*
X550063Y1993543D1*
X550079Y1990551D1*
X630866Y2014488D2*
X628462Y2011496D1*
X626712Y2008504D1*
X625707Y2005512D1*
X625198Y2002520D1*
X624882Y1999528D1*
X636850Y2014488D2*
X639243Y2011496D1*
X641230Y2008504D1*
X641812Y2005512D1*
X641005Y2002520D1*
X639843Y1999528D1*
X732598Y2014488D2*
Y2011496D1*
X732622Y2008504D1*
X732850Y2005512D1*
X733393Y2002520D1*
X735725Y1999528D1*
X738583Y1996535D1*
X747559Y2014488D2*
X750551Y2011496D1*
X759528Y2014488D2*
Y2011496D1*
Y2008504D1*
X759539Y2005512D1*
X759656Y2002520D1*
X760154Y1999528D1*
X761358Y1996535D1*
X763271Y1993543D1*
X765512Y1990551D1*
X771496Y2014488D2*
X768504Y2011496D1*
X777480Y2014488D2*
X780472Y2011496D1*
X582992Y1999528D2*
X581812Y1996535D1*
X580935Y1993543D1*
X587638Y1990551D1*
X594961Y1987559D1*
X585984Y1999528D2*
X591969Y1996535D1*
X750551Y1999528D2*
X744567Y1996535D1*
X505197D2*
X514173D2*
X517165Y1993543D1*
X514173Y1990551D1*
X753543Y1996535D2*
X756535Y1993543D1*
X750551Y1990551D1*
X780472Y1996535D2*
X786457D2*
Y1993543D1*
Y1990551D1*
X454331D2*
Y1987559D1*
Y1984567D1*
Y1981575D1*
Y1978583D1*
Y1975591D1*
Y1972598D1*
X465022Y1969606D1*
X473182Y1966614D1*
X476326Y1963622D1*
X477379Y1960630D1*
X477910Y1957638D1*
X478135Y1954646D1*
X478221Y1951654D1*
X478252Y1948661D1*
X478263Y1945669D1*
X478268Y1942677D1*
X577008Y1984567D2*
Y1981575D1*
Y1978583D1*
Y1975591D1*
Y1972598D1*
X559055Y1969606D1*
X585984Y1984567D2*
Y1981575D1*
Y1978583D1*
Y1975591D1*
Y1972598D1*
Y1969606D1*
X597953D1*
X599099Y1966614D1*
X600462Y1963622D1*
X602098Y1960630D1*
X603937Y1957638D1*
X490236Y1969606D2*
X487244Y1966614D1*
X497249Y1963622D1*
X508189Y1960630D1*
X499123Y1957638D1*
X492674Y1954646D1*
X488050Y1951654D1*
X486271Y1948661D1*
X486519Y1945669D1*
X487244Y1942677D1*
X514173Y1969606D2*
X515554Y1966614D1*
X516414Y1963622D1*
X516849Y1960630D1*
X517041Y1957638D1*
X517120Y1954646D1*
X517149Y1951654D1*
X517160Y1948661D1*
X517164Y1945669D1*
X517165Y1942677D1*
X526142Y1969606D2*
Y1966614D1*
Y1963622D1*
Y1960630D1*
Y1957638D1*
Y1954646D1*
Y1951654D1*
Y1948661D1*
Y1945669D1*
Y1942677D1*
X553071Y1969606D2*
X612913D2*
X612449Y1966614D1*
X611682Y1963622D1*
X610784Y1960630D1*
X609921Y1957638D1*
X621890Y1969606D2*
X622913Y1966614D1*
X623811Y1963622D1*
X624425Y1960630D1*
X624882Y1957638D1*
X636850Y1969606D2*
X635827Y1966614D1*
X634929Y1963622D1*
X634315Y1960630D1*
X633858Y1957638D1*
X645827Y1969606D2*
X651811D2*
X675748D2*
X676771Y1966614D1*
X677661Y1963622D1*
X678229Y1960630D1*
X678522Y1957638D1*
X678654Y1954646D1*
X678708Y1951654D1*
X678729Y1948661D1*
X678736Y1945669D1*
X678740Y1942677D1*
X687717Y1969606D2*
Y1966614D1*
Y1963622D1*
Y1960630D1*
Y1957638D1*
Y1954646D1*
Y1951654D1*
Y1948661D1*
Y1945669D1*
Y1942677D1*
X714646Y1969606D2*
X720630D2*
X741575D2*
X743979Y1966614D1*
X745729Y1963622D1*
X746731Y1960630D1*
X747218Y1957638D1*
X747435Y1954646D1*
X747559Y1951654D1*
X723622Y1948661D1*
X729606Y1945669D1*
X585984Y1969606D2*
Y1966614D1*
Y1963622D1*
Y1960630D1*
Y1957638D1*
Y1954646D1*
Y1951654D1*
Y1948661D1*
Y1945669D1*
Y1942677D1*
X591969Y1969606D2*
X592082Y1966614D1*
X592478Y1963622D1*
X593300Y1960630D1*
X594449Y1957638D1*
X595699Y1954646D1*
X596858Y1951654D1*
X597971Y1948661D1*
X599341Y1945669D1*
X600945Y1942677D1*
X642835Y1966614D2*
X642372Y1963622D1*
X641619Y1960630D1*
X640739Y1957638D1*
X639822Y1954646D1*
X638713Y1951654D1*
X637348Y1948661D1*
X635704Y1945669D1*
X633858Y1942677D1*
X636850Y1966614D2*
X653214Y1963622D1*
X669764Y1960630D1*
X659991Y1957638D1*
X652168Y1954646D1*
X648531Y1951654D1*
X647233Y1948661D1*
X647813Y1945669D1*
X648819Y1942677D1*
X726614Y1966614D2*
X711654Y1963622D1*
X696693Y1960630D1*
X695670Y1957638D1*
X694779Y1954646D1*
X694212Y1951654D1*
X693918Y1948661D1*
X693781Y1945669D1*
X693701Y1942677D1*
X720630Y1966614D2*
X718226Y1963622D1*
X716476Y1960630D1*
X715486Y1957638D1*
X715105Y1954646D1*
X715278Y1951654D1*
X715936Y1948661D1*
X716795Y1945669D1*
X717638Y1942677D1*
X460315Y1963622D2*
X457911Y1960630D1*
X456161Y1957638D1*
X455159Y1954646D1*
X454673Y1951654D1*
X454463Y1948661D1*
X454376Y1945669D1*
X454331Y1942677D1*
X466299Y1963622D2*
X468703Y1960630D1*
X470453Y1957638D1*
X471455Y1954646D1*
X471941Y1951654D1*
X472152Y1948661D1*
X472238Y1945669D1*
X472283Y1942677D1*
X535118Y1963622D2*
Y1960630D1*
Y1957638D1*
Y1954646D1*
Y1951654D1*
Y1948661D1*
Y1945669D1*
Y1942677D1*
X553071Y1963622D2*
Y1960630D1*
Y1957638D1*
X553083Y1954646D1*
X553197Y1951654D1*
X553659Y1948661D1*
X554682Y1945669D1*
X556063Y1942677D1*
X562047Y1963622D2*
Y1960630D1*
Y1957638D1*
Y1954646D1*
Y1951654D1*
Y1948661D1*
X577008Y1963622D2*
Y1960630D1*
Y1957638D1*
Y1954646D1*
Y1951654D1*
Y1948661D1*
X726614Y1963622D2*
X723622Y1960630D1*
X735591Y1963622D2*
X738583Y1960630D1*
X618898Y1954646D2*
X616370Y1951654D1*
X614145Y1948661D1*
X612051Y1945669D1*
X609921Y1942677D1*
X621890Y1954646D2*
X622354Y1951654D1*
X623121Y1948661D1*
X624020Y1945669D1*
X624882Y1942677D1*
X487244Y1951654D2*
X493228Y1948661D1*
X499213Y1945669D1*
X511181Y1951654D2*
X508189Y1948661D1*
X505197Y1945669D1*
X651811Y1951654D2*
X654803Y1948661D1*
X657795Y1945669D1*
X672756Y1951654D2*
X669764Y1948661D1*
X666772Y1945669D1*
X735591D2*
X744567D2*
X747559Y1942677D1*
X948247Y1594263D2*
D118*
X969249D1*
X957797Y1578964D1*
X963545D1*
X967348Y1577063D1*
X969249Y1575161D1*
X971194Y1569413D1*
Y1565611D1*
X969249Y1559863D1*
X965446Y1556016D1*
X959698Y1554115D1*
X953950D1*
X948247Y1556016D1*
X946345Y1557962D1*
X944400Y1561764D1*
X985447Y1557962D2*
X983546Y1556016D1*
X985447Y1554115D1*
X987393Y1556016D1*
X985447Y1557962D1*
X1003591Y1594263D2*
X1024593D1*
X1013141Y1578964D1*
X1018889D1*
X1022692Y1577063D1*
X1024593Y1575161D1*
X1026539Y1569413D1*
Y1565611D1*
X1024593Y1559863D1*
X1020791Y1556016D1*
X1015043Y1554115D1*
X1009295D1*
X1003591Y1556016D1*
X1001690Y1557962D1*
X999744Y1561764D1*
X1038890Y1594307D2*
X1054189Y1554115D1*
X1069487Y1594307D1*
X5756645Y822299D2*
X5777648D1*
X5766196Y807000D1*
X5771944D1*
X5775746Y805099D1*
X5777648Y803198D1*
X5779593Y797449D1*
Y793647D1*
X5777648Y787899D1*
X5773845Y784052D1*
X5768097Y782151D1*
X5762349D1*
X5756645Y784052D1*
X5754744Y785998D1*
X5752799Y789800D1*
X5791945Y808946D2*
Y768754D1*
Y803198D2*
X5795791Y807000D1*
X5799594Y808946D1*
X5805342D1*
X5809189Y807000D1*
X5812991Y803198D1*
X5814937Y797449D1*
Y793603D1*
X5812991Y787899D1*
X5809189Y784052D1*
X5805342Y782151D1*
X5799594D1*
X5795791Y784052D1*
X5791945Y787899D1*
X5827288Y822343D2*
X5829189Y820442D1*
X5831135Y822343D1*
X5829189Y824288D1*
X5827288Y822343D1*
X5829189Y808946D2*
Y782151D1*
X5843486Y808946D2*
Y782151D1*
Y801296D2*
X5849234Y807044D1*
X5853081Y808946D1*
X5858785D1*
X5862632Y807044D1*
X5864533Y801296D1*
Y782151D1*
X5899832Y822299D2*
X5880731D1*
X5878830Y805099D1*
X5880731Y807000D1*
X5886479Y808946D1*
X5892183D1*
X5897931Y807000D1*
X5901778Y803198D1*
X5903679Y797449D1*
Y793647D1*
X5901778Y787899D1*
X5897931Y784052D1*
X5892183Y782151D1*
X5886479D1*
X5880731Y784052D1*
X5878830Y785998D1*
X5876884Y789800D1*
X5916030Y808946D2*
Y782151D1*
Y801296D2*
X5921778Y807044D1*
X5925625Y808946D1*
X5931329D1*
X5935176Y807044D1*
X5937077Y801296D1*
Y782151D1*
Y801296D2*
X5942825Y807044D1*
X5946672Y808946D1*
X5952376D1*
X5956222Y807044D1*
X5958168Y801296D1*
Y782151D1*
X5970519Y808946D2*
Y782151D1*
Y801296D2*
X5976267Y807044D1*
X5980114Y808946D1*
X5985818D1*
X5989665Y807044D1*
X5991566Y801296D1*
Y782151D1*
Y801296D2*
X5997314Y807044D1*
X6001161Y808946D1*
X6006865D1*
X6010711Y807044D1*
X6012657Y801296D1*
Y782151D1*
X6025008Y814649D2*
X6028855Y816595D1*
X6034603Y822299D1*
Y782151D1*
X6606313Y822299D2*
X6627316D1*
X6615864Y807000D1*
X6621612D1*
X6625414Y805099D1*
X6627316Y803198D1*
X6629261Y797449D1*
Y793647D1*
X6627316Y787899D1*
X6623513Y784052D1*
X6617765Y782151D1*
X6612017D1*
X6606313Y784052D1*
X6604412Y785998D1*
X6602466Y789800D1*
X6641612Y808946D2*
Y768754D1*
Y803198D2*
X6645459Y807000D1*
X6649262Y808946D1*
X6655010D1*
X6658857Y807000D1*
X6662659Y803198D1*
X6664605Y797449D1*
Y793603D1*
X6662659Y787899D1*
X6658857Y784052D1*
X6655010Y782151D1*
X6649262D1*
X6645459Y784052D1*
X6641612Y787899D1*
X6676956Y822343D2*
X6678857Y820442D1*
X6680803Y822343D1*
X6678857Y824288D1*
X6676956Y822343D1*
X6678857Y808946D2*
Y782151D1*
X6693154Y808946D2*
Y782151D1*
Y801296D2*
X6698902Y807044D1*
X6702749Y808946D1*
X6708453D1*
X6712299Y807044D1*
X6714201Y801296D1*
Y782151D1*
X6749500Y822299D2*
X6730399D1*
X6728498Y805099D1*
X6730399Y807000D1*
X6736147Y808946D1*
X6741851D1*
X6747599Y807000D1*
X6751446Y803198D1*
X6753347Y797449D1*
Y793647D1*
X6751446Y787899D1*
X6747599Y784052D1*
X6741851Y782151D1*
X6736147D1*
X6730399Y784052D1*
X6728498Y785998D1*
X6726552Y789800D1*
X6765698Y808946D2*
Y782151D1*
Y801296D2*
X6771446Y807044D1*
X6775293Y808946D1*
X6780997D1*
X6784844Y807044D1*
X6786745Y801296D1*
Y782151D1*
Y801296D2*
X6792493Y807044D1*
X6796340Y808946D1*
X6802043D1*
X6805890Y807044D1*
X6807836Y801296D1*
Y782151D1*
X6820187Y808946D2*
Y782151D1*
Y801296D2*
X6825935Y807044D1*
X6829782Y808946D1*
X6835486D1*
X6839332Y807044D1*
X6841234Y801296D1*
Y782151D1*
Y801296D2*
X6846982Y807044D1*
X6850829Y808946D1*
X6856532D1*
X6860379Y807044D1*
X6862325Y801296D1*
Y782151D1*
X6876621Y812748D2*
Y814649D1*
X6878523Y818496D1*
X6880424Y820397D1*
X6884271Y822299D1*
X6891920D1*
X6895723Y820397D1*
X6897624Y818496D1*
X6899569Y814649D1*
Y810847D1*
X6897624Y807000D1*
X6893821Y801296D1*
X6874676Y782151D1*
X6901471D1*
X715965Y975061D2*
X714064Y978863D1*
X710217Y982710D1*
X706415Y984611D1*
X698766D1*
X694919Y982710D1*
X691116Y978863D1*
X689171Y975061D1*
X687269Y969313D1*
Y959718D1*
X689171Y954014D1*
X691116Y950167D1*
X694919Y946365D1*
X698766Y944419D1*
X706415D1*
X710217Y946365D1*
X714064Y950167D1*
X715965Y954014D1*
X728317Y976918D2*
X732164Y978863D1*
X737912Y984567D1*
Y944419D1*
X1079515Y652705D2*
X1075713Y650804D1*
X1071866Y646957D1*
X1069965Y643155D1*
Y635506D1*
X1071866Y631659D1*
X1075713Y627856D1*
X1079515Y625911D1*
X1085263Y624010D1*
X1094858D1*
X1100562Y625911D1*
X1104409Y627856D1*
X1108211Y631659D1*
X1110157Y635506D1*
Y643155D1*
X1108211Y646957D1*
X1104409Y650804D1*
X1100562Y652705D1*
X1079560Y667002D2*
X1077658D1*
X1073812Y668904D1*
X1071910Y670805D1*
X1070009Y674652D1*
Y682301D1*
X1071910Y686103D1*
X1073812Y688005D1*
X1077658Y689950D1*
X1081461D1*
X1085308Y688005D1*
X1091012Y684202D1*
X1110157Y665057D1*
Y691851D1*
X1154517Y927705D2*
X1150714Y925804D1*
X1146867Y921957D1*
X1144966Y918155D1*
Y910506D1*
X1146867Y906659D1*
X1150714Y902856D1*
X1154517Y900911D1*
X1160265Y899010D1*
X1169860D1*
X1175563Y900911D1*
X1179410Y902856D1*
X1183213Y906659D1*
X1185158Y910506D1*
Y918155D1*
X1183213Y921957D1*
X1179410Y925804D1*
X1175563Y927705D1*
X1145010Y943904D2*
Y964906D1*
X1160309Y953454D1*
Y959202D1*
X1162210Y963005D1*
X1164112Y964906D1*
X1169860Y966851D1*
X1173662D1*
X1179410Y964906D1*
X1183257Y961103D1*
X1185158Y955355D1*
Y949607D1*
X1183257Y943904D1*
X1181311Y942002D1*
X1177509Y940057D1*
X1023266Y926755D2*
X1019464Y924854D1*
X1015617Y921007D1*
X1013716Y917204D1*
Y909555D1*
X1015617Y905708D1*
X1019464Y901906D1*
X1023266Y899960D1*
X1029014Y898059D1*
X1038609D1*
X1044313Y899960D1*
X1048159Y901906D1*
X1051962Y905708D1*
X1053908Y909555D1*
Y917204D1*
X1051962Y921007D1*
X1048160Y924854D1*
X1044313Y926755D1*
X1053908Y958252D2*
X1013760D1*
X1040510Y939106D1*
Y967802D1*
X663770Y1144110D2*
Y1103918D1*
X677167D1*
X682915Y1105863D1*
X686762Y1109666D1*
X688663Y1113513D1*
X690565Y1119217D1*
Y1128811D1*
X688663Y1134559D1*
X686762Y1138362D1*
X682915Y1142209D1*
X677167Y1144110D1*
X663770D1*
X702916Y1136416D2*
X706763Y1138362D1*
X712511Y1144066D1*
Y1103918D1*
X445204Y781438D2*
Y756545D1*
X485396D1*
X464349D2*
Y771843D1*
X452897Y793790D2*
X450952Y797636D1*
X445248Y803384D1*
X485396D1*
X999632Y909744D2*
Y879147D1*
X997731Y873399D1*
X995786Y871497D1*
X991983Y869552D1*
X988136D1*
X984334Y871497D1*
X982433Y873399D1*
X980487Y879147D1*
Y882949D1*
X1011984Y902050D2*
X1015831Y903996D1*
X1021579Y909700D1*
Y869552D1*
X1539951Y724523D2*
Y693926D1*
X1538050Y688178D1*
X1536104Y686277D1*
X1532302Y684331D1*
X1528455D1*
X1524652Y686277D1*
X1522751Y688178D1*
X1520806Y693926D1*
Y697729D1*
X1554248Y714929D2*
Y716830D1*
X1556149Y720677D1*
X1558051Y722578D1*
X1561897Y724479D1*
X1569547D1*
X1573349Y722578D1*
X1575250Y720677D1*
X1577196Y716830D1*
Y713027D1*
X1575250Y709181D1*
X1571448Y703477D1*
X1552302Y684331D1*
X1579097D1*
X1195998Y675581D2*
X1226595D1*
X1232343Y673680D1*
X1234244Y671734D1*
X1236190Y667932D1*
Y664085D1*
X1234244Y660283D1*
X1232343Y658381D1*
X1226595Y656436D1*
X1222792D1*
X1196042Y691779D2*
Y712782D1*
X1211341Y701330D1*
Y707078D1*
X1213242Y710880D1*
X1215143Y712782D1*
X1220891Y714727D1*
X1224694D1*
X1230442Y712782D1*
X1234288Y708979D1*
X1236190Y703231D1*
Y697483D1*
X1234288Y691779D1*
X1232343Y689878D1*
X1228540Y687932D1*
X1268882Y1257931D2*
X1299479D1*
X1305227Y1256030D1*
X1307128Y1254084D1*
X1309074Y1250282D1*
Y1246435D1*
X1307128Y1242632D1*
X1305227Y1240731D1*
X1299479Y1238786D1*
X1295677D1*
X1309074Y1289428D2*
X1268926D1*
X1295677Y1270282D1*
Y1298978D1*
X1541821Y888893D2*
Y858296D1*
X1539920Y852548D1*
X1537974Y850647D1*
X1534172Y848701D1*
X1530325D1*
X1526523Y850647D1*
X1524621Y852548D1*
X1522676Y858296D1*
Y862099D1*
X1577120Y888849D2*
X1558019D1*
X1556118Y871649D1*
X1558019Y873551D1*
X1563767Y875496D1*
X1569471D1*
X1575219Y873551D1*
X1579066Y869748D1*
X1580967Y864000D1*
Y860197D1*
X1579066Y854449D1*
X1575219Y850603D1*
X1569471Y848701D1*
X1563767D1*
X1558019Y850603D1*
X1556118Y852548D1*
X1554173Y856351D1*
X1144451Y1655134D2*
Y1614942D1*
X1171246Y1655134D2*
X1144451Y1628339D1*
X1154002Y1637934D2*
X1171246Y1614942D1*
X1183597Y1647440D2*
X1187444Y1649386D1*
X1193192Y1655090D1*
Y1614942D1*
X1925851Y1655134D2*
Y1614942D1*
X1952646Y1655134D2*
X1925851Y1628339D1*
X1935402Y1637934D2*
X1952646Y1614942D1*
X1966943Y1645539D2*
Y1647440D1*
X1968844Y1651287D1*
X1970745Y1653188D1*
X1974592Y1655090D1*
X1982241D1*
X1986044Y1653188D1*
X1987945Y1651287D1*
X1989891Y1647440D1*
Y1643638D1*
X1987945Y1639791D1*
X1984143Y1634087D1*
X1964997Y1614942D1*
X1991792D1*
X2715851Y2617279D2*
Y2577087D1*
X2742646Y2617279D2*
X2715851Y2590485D1*
X2725402Y2600079D2*
X2742646Y2577087D1*
X2758844Y2617235D2*
X2779846D1*
X2768395Y2601936D1*
X2774143D1*
X2777945Y2600035D1*
X2779846Y2598134D1*
X2781792Y2592386D1*
Y2588583D1*
X2779846Y2582835D1*
X2776044Y2578989D1*
X2770296Y2577087D1*
X2764548D1*
X2758844Y2578989D1*
X2756943Y2580934D1*
X2754997Y2584737D1*
X3504901Y1655134D2*
Y1614942D1*
X3531695Y1655134D2*
X3504901Y1628339D1*
X3514451Y1637934D2*
X3531695Y1614942D1*
X3563192D2*
Y1655090D1*
X3544047Y1628339D1*
X3572743D1*
X4295851Y1655134D2*
Y1614942D1*
X4322646Y1655134D2*
X4295851Y1628339D1*
X4305402Y1637934D2*
X4322646Y1614942D1*
X4357945Y1655090D2*
X4338844D1*
X4336943Y1637890D1*
X4338844Y1639791D1*
X4344592Y1641736D1*
X4350296D1*
X4356044Y1639791D1*
X4359891Y1635988D1*
X4361792Y1630240D1*
Y1626438D1*
X4359891Y1620690D1*
X4356044Y1616843D1*
X4350296Y1614942D1*
X4344592D1*
X4338844Y1616843D1*
X4336943Y1618789D1*
X4334997Y1622591D1*
X5086824Y1655134D2*
Y1614942D1*
X5113619Y1655134D2*
X5086824Y1628339D1*
X5096374Y1637934D2*
X5113619Y1614942D1*
X5148918Y1649386D2*
X5147017Y1653188D1*
X5141269Y1655090D1*
X5137466D1*
X5131718Y1653188D1*
X5127871Y1647440D1*
X5125970Y1637890D1*
Y1628339D1*
X5127871Y1620690D1*
X5131718Y1616843D1*
X5137466Y1614942D1*
X5139367D1*
X5145071Y1616843D1*
X5148918Y1620690D1*
X5150819Y1626438D1*
Y1628339D1*
X5148918Y1634087D1*
X5145071Y1637890D1*
X5139367Y1639791D1*
X5137466D1*
X5131718Y1637890D1*
X5127871Y1634087D1*
X5125970Y1628339D1*
X5877851Y1655134D2*
Y1614942D1*
X5904646Y1655134D2*
X5877851Y1628339D1*
X5887402Y1637934D2*
X5904646Y1614942D1*
X5924647D2*
X5943792Y1655090D1*
X5916997D1*
X6667873Y1655134D2*
Y1614942D1*
X6694668Y1655134D2*
X6667873Y1628339D1*
X6677424Y1637934D2*
X6694668Y1614942D1*
X6716570Y1655090D2*
X6710866Y1653188D1*
X6708921Y1649386D1*
Y1645539D1*
X6710866Y1641736D1*
X6714669Y1639791D1*
X6722318Y1637890D1*
X6728066Y1635988D1*
X6731869Y1632142D1*
X6733770Y1628339D1*
Y1622591D1*
X6731869Y1618789D1*
X6729967Y1616843D1*
X6724219Y1614942D1*
X6716570D1*
X6710866Y1616843D1*
X6708921Y1618789D1*
X6707019Y1622591D1*
Y1628339D1*
X6708921Y1632142D1*
X6712767Y1635988D1*
X6718471Y1637890D1*
X6726120Y1639791D1*
X6729967Y1641736D1*
X6731869Y1645539D1*
Y1649386D1*
X6729967Y1653188D1*
X6724219Y1655090D1*
X6716570D1*
X1532465Y1114075D2*
X1572657D1*
Y1137023D1*
X1532465Y1174224D2*
Y1149375D1*
X1572657Y1149374D1*
Y1174224D1*
X1551610Y1149375D2*
Y1164673D1*
X1532465Y1186575D2*
X1572657D1*
Y1199972D1*
X1570711Y1205720D1*
X1566909Y1209567D1*
X1563062Y1211468D1*
X1557358Y1213370D1*
X1547763D1*
X1542015Y1211468D1*
X1538213Y1209567D1*
X1534366Y1205720D1*
X1532465Y1199972D1*
Y1186575D1*
X1540158Y1225721D2*
X1538213Y1229568D1*
X1532509Y1235316D1*
X1572657D1*
X2332464Y1105475D2*
X2372656D1*
Y1128423D1*
X2332464Y1165624D2*
Y1140775D1*
X2372656D1*
Y1165624D1*
X2351609Y1140775D2*
Y1156073D1*
X2332464Y1177975D2*
X2372656D1*
Y1191372D1*
X2370710Y1197120D1*
X2366908Y1200967D1*
X2363061Y1202869D1*
X2357357Y1204770D1*
X2347762D1*
X2342014Y1202869D1*
X2338212Y1200967D1*
X2334365Y1197121D1*
X2332464Y1191372D1*
Y1177975D1*
X2342058Y1219067D2*
X2340157D1*
X2336310Y1220968D1*
X2334409Y1222869D1*
X2332508Y1226716D1*
Y1234365D1*
X2334409Y1238168D1*
X2336310Y1240069D1*
X2340157Y1242015D1*
X2343960D1*
X2347806Y1240069D1*
X2353510Y1236267D1*
X2372656Y1217121D1*
Y1243916D1*
X3132465Y1099226D2*
X3172657D1*
Y1122174D1*
X3132465Y1159374D2*
Y1134525D1*
X3172657D1*
Y1159374D1*
X3151610Y1134525D2*
Y1149824D1*
X3132465Y1171726D2*
X3172657D1*
Y1185123D1*
X3170711Y1190871D1*
X3166909Y1194718D1*
X3163062Y1196619D1*
X3157358Y1198520D1*
X3147763D1*
X3142015Y1196619D1*
X3138213Y1194718D1*
X3134366Y1190871D1*
X3132465Y1185123D1*
Y1171726D1*
X3132509Y1214719D2*
Y1235721D1*
X3147808Y1224269D1*
Y1230017D1*
X3149709Y1233820D1*
X3151610Y1235721D1*
X3157358Y1237667D1*
X3161161D1*
X3166909Y1235721D1*
X3170756Y1231918D1*
X3172657Y1226170D1*
Y1220422D1*
X3170756Y1214719D1*
X3168810Y1212817D1*
X3165008Y1210872D1*
X3919962Y1104525D2*
X3960154D1*
Y1127473D1*
X3919962Y1164673D2*
Y1139824D1*
X3960154D1*
Y1164673D1*
X3939108Y1139824D2*
Y1155123D1*
X3919962Y1177025D2*
X3960154Y1177024D1*
Y1190422D1*
X3958209Y1196170D1*
X3954406Y1200017D1*
X3950559Y1201918D1*
X3944856Y1203819D1*
X3935261D1*
X3929513Y1201918D1*
X3925710Y1200017D1*
X3921864Y1196170D1*
X3919962Y1190422D1*
Y1177025D1*
X3960154Y1235316D2*
X3920006D1*
X3946757Y1216171D1*
Y1244866D1*
X4720465Y1105475D2*
X4760657D1*
Y1128423D1*
X4720465Y1165624D2*
Y1140775D1*
X4760657D1*
Y1165624D1*
X4739610Y1140775D2*
Y1156073D1*
X4720465Y1177975D2*
X4760657D1*
Y1191372D1*
X4758711Y1197120D1*
X4754909Y1200967D1*
X4751062Y1202869D1*
X4745358Y1204770D1*
X4735763D1*
X4730015Y1202869D1*
X4726213Y1200967D1*
X4722366Y1197121D1*
X4720465Y1191372D1*
Y1177975D1*
X4720509Y1240069D2*
Y1220968D1*
X4737709Y1219067D1*
X4735808Y1220968D1*
X4733862Y1226716D1*
Y1232420D1*
X4735808Y1238168D1*
X4739610Y1242015D1*
X4745358Y1243916D1*
X4749161D1*
X4754909Y1242015D1*
X4758756Y1238168D1*
X4760657Y1232420D1*
Y1226716D1*
X4758756Y1220968D1*
X4756810Y1219067D1*
X4753008Y1217121D1*
X5526251Y1104448D2*
X5566443D1*
Y1127396D1*
X5526251Y1164597D2*
Y1139747D1*
X5566443D1*
Y1164596D1*
X5545396Y1139747D2*
Y1155046D1*
X5526251Y1176948D2*
X5566443D1*
Y1190345D1*
X5564497Y1196093D1*
X5560695Y1199940D1*
X5556848Y1201841D1*
X5551144Y1203743D1*
X5541550D1*
X5535802Y1201841D1*
X5531999Y1199940D1*
X5528152Y1196093D1*
X5526251Y1190345D1*
Y1176948D1*
X5531999Y1239042D2*
X5528196Y1237141D1*
X5526295Y1231393D1*
Y1227590D1*
X5528196Y1221842D1*
X5533945Y1217995D1*
X5543495Y1216094D1*
X5553046D1*
X5560695Y1217995D1*
X5564542Y1221842D1*
X5566443Y1227590D1*
Y1229491D1*
X5564542Y1235195D1*
X5560695Y1239042D1*
X5554947Y1240943D1*
X5553046D1*
X5547298Y1239042D1*
X5543495Y1235195D1*
X5541594Y1229491D1*
Y1227590D1*
X5543495Y1221842D1*
X5547298Y1217995D1*
X5553046Y1216094D1*
X6269978Y1105475D2*
X6310170D1*
Y1128423D1*
X6269978Y1165624D2*
Y1140775D1*
X6310170D1*
Y1165624D1*
X6289123Y1140775D2*
Y1156073D1*
X6269978Y1177975D2*
X6310170D1*
Y1191372D1*
X6308225Y1197120D1*
X6304422Y1200967D1*
X6300575Y1202869D1*
X6294871Y1204770D1*
X6285277D1*
X6279529Y1202869D1*
X6275726Y1200967D1*
X6271879Y1197121D1*
X6269978Y1191372D1*
Y1177975D1*
X6310170Y1224770D2*
X6270022Y1243916D1*
Y1217121D1*
X6872964Y1105497D2*
X6913156D1*
Y1128445D1*
X6872964Y1165646D2*
Y1140797D1*
X6913156D1*
Y1165646D1*
X6892109Y1140797D2*
Y1156095D1*
X6872964Y1177997D2*
X6913156D1*
Y1191395D1*
X6911210Y1197143D1*
X6907408Y1200989D1*
X6903561Y1202891D1*
X6897857Y1204792D1*
X6888262D1*
X6882514Y1202891D1*
X6878712Y1200989D1*
X6874865Y1197143D1*
X6872964Y1191395D1*
Y1177997D1*
X6873008Y1226694D2*
X6874909Y1220990D1*
X6878712Y1219045D1*
X6882558D1*
X6886361Y1220990D1*
X6888306Y1224793D1*
X6890208Y1232442D1*
X6892109Y1238190D1*
X6895956Y1241992D1*
X6899758Y1243894D1*
X6905506D1*
X6909309Y1241992D1*
X6911254Y1240091D1*
X6913156Y1234343D1*
Y1226694D1*
X6911254Y1220990D1*
X6909309Y1219045D1*
X6905506Y1217143D1*
X6899758D1*
X6895956Y1219045D1*
X6892109Y1222891D1*
X6890208Y1228595D1*
X6888306Y1236244D1*
X6886361Y1240091D1*
X6882558Y1241992D1*
X6878712D1*
X6874909Y1240091D1*
X6873008Y1234343D1*
Y1226694D1*
X1666522Y1604641D2*
X1662675Y1602740D1*
X1658873Y1598893D1*
X1656927Y1595091D1*
X1655026Y1589343D1*
Y1579748D1*
X1656927Y1574044D1*
X1658873Y1570197D1*
X1662675Y1566395D1*
X1666522Y1564449D1*
X1674172D1*
X1677974Y1566395D1*
X1681821Y1570197D1*
X1683722Y1574044D1*
X1685623Y1579748D1*
Y1589343D1*
X1683722Y1595091D1*
X1681821Y1598893D1*
X1677974Y1602740D1*
X1674172Y1604641D1*
X1666522D1*
X1726671Y1595091D2*
X1724769Y1598893D1*
X1720923Y1602740D1*
X1717120Y1604641D1*
X1709471D1*
X1705624Y1602740D1*
X1701822Y1598893D1*
X1699876Y1595091D1*
X1697975Y1589343D1*
Y1579748D1*
X1699876Y1574044D1*
X1701822Y1570197D1*
X1705624Y1566395D1*
X1709471Y1564449D1*
X1717120D1*
X1720923Y1566395D1*
X1724769Y1570197D1*
X1726671Y1574044D1*
X1739022Y1596948D2*
X1742869Y1598893D1*
X1748617Y1604597D1*
Y1564449D1*
X2457922Y1604641D2*
X2454076Y1602740D1*
X2450273Y1598893D1*
X2448327Y1595091D1*
X2446426Y1589343D1*
Y1579748D1*
X2448327Y1574044D1*
X2450273Y1570197D1*
X2454076Y1566395D1*
X2457922Y1564449D1*
X2465572D1*
X2469374Y1566395D1*
X2473221Y1570197D1*
X2475122Y1574044D1*
X2477023Y1579748D1*
Y1589343D1*
X2475122Y1595091D1*
X2473221Y1598893D1*
X2469374Y1602740D1*
X2465572Y1604641D1*
X2457922D1*
X2518071Y1595091D2*
X2516169Y1598893D1*
X2512323Y1602740D1*
X2508520Y1604641D1*
X2500871D1*
X2497024Y1602740D1*
X2493222Y1598893D1*
X2491276Y1595091D1*
X2489375Y1589343D1*
Y1579748D1*
X2491276Y1574044D1*
X2493222Y1570197D1*
X2497024Y1566395D1*
X2500871Y1564449D1*
X2508520D1*
X2512323Y1566395D1*
X2516169Y1570197D1*
X2518071Y1574044D1*
X2532368Y1595047D2*
Y1596948D1*
X2534269Y1600795D1*
X2536170Y1602696D1*
X2540017Y1604597D1*
X2547666D1*
X2551469Y1602696D1*
X2553370Y1600795D1*
X2555316Y1596948D1*
Y1593145D1*
X2553370Y1589299D1*
X2549568Y1583595D1*
X2530422Y1564449D1*
X2557217D1*
X3257922Y1604641D2*
X3254076Y1602740D1*
X3250273Y1598893D1*
X3248327Y1595091D1*
X3246426Y1589343D1*
Y1579748D1*
X3248327Y1574044D1*
X3250273Y1570197D1*
X3254076Y1566395D1*
X3257922Y1564449D1*
X3265572D1*
X3269374Y1566395D1*
X3273221Y1570197D1*
X3275122Y1574044D1*
X3277023Y1579748D1*
Y1589343D1*
X3275122Y1595091D1*
X3273221Y1598893D1*
X3269374Y1602740D1*
X3265572Y1604641D1*
X3257922D1*
X3318071Y1595091D2*
X3316169Y1598893D1*
X3312323Y1602740D1*
X3308520Y1604641D1*
X3300871D1*
X3297024Y1602740D1*
X3293222Y1598893D1*
X3291276Y1595091D1*
X3289375Y1589343D1*
Y1579748D1*
X3291276Y1574044D1*
X3293222Y1570197D1*
X3297024Y1566395D1*
X3300871Y1564449D1*
X3308520D1*
X3312323Y1566395D1*
X3316169Y1570197D1*
X3318071Y1574044D1*
X3334269Y1604597D2*
X3355271D1*
X3343819Y1589299D1*
X3349568D1*
X3353370Y1587397D1*
X3355271Y1585496D1*
X3357217Y1579748D1*
Y1575946D1*
X3355271Y1570197D1*
X3351469Y1566351D1*
X3345721Y1564449D1*
X3339973D1*
X3334269Y1566351D1*
X3332368Y1568296D1*
X3330422Y1572099D1*
X4056969Y1604641D2*
X4053122Y1602740D1*
X4049320Y1598893D1*
X4047374Y1595091D1*
X4045473Y1589343D1*
Y1579748D1*
X4047374Y1574044D1*
X4049320Y1570197D1*
X4053122Y1566395D1*
X4056969Y1564449D1*
X4064618D1*
X4068421Y1566395D1*
X4072268Y1570197D1*
X4074169Y1574044D1*
X4076070Y1579748D1*
Y1589343D1*
X4074169Y1595091D1*
X4072268Y1598893D1*
X4068421Y1602740D1*
X4064618Y1604641D1*
X4056969D1*
X4117118Y1595091D2*
X4115216Y1598893D1*
X4111369Y1602740D1*
X4107567Y1604641D1*
X4099918D1*
X4096071Y1602740D1*
X4092268Y1598893D1*
X4090323Y1595091D1*
X4088422Y1589343D1*
Y1579748D1*
X4090323Y1574044D1*
X4092268Y1570197D1*
X4096071Y1566395D1*
X4099918Y1564449D1*
X4107567D1*
X4111369Y1566395D1*
X4115216Y1570197D1*
X4117118Y1574044D1*
X4148614Y1564449D2*
Y1604597D1*
X4129469Y1577847D1*
X4158165D1*
X4857922Y1607641D2*
X4854076Y1605740D1*
X4850273Y1601893D1*
X4848327Y1598091D1*
X4846426Y1592343D1*
Y1582748D1*
X4848327Y1577044D1*
X4850273Y1573197D1*
X4854076Y1569395D1*
X4857922Y1567449D1*
X4865572D1*
X4869374Y1569395D1*
X4873221Y1573197D1*
X4875122Y1577044D1*
X4877023Y1582748D1*
Y1592343D1*
X4875122Y1598091D1*
X4873221Y1601893D1*
X4869374Y1605740D1*
X4865572Y1607641D1*
X4857922D1*
X4918071Y1598091D2*
X4916169Y1601893D1*
X4912323Y1605740D1*
X4908520Y1607641D1*
X4900871D1*
X4897024Y1605740D1*
X4893222Y1601893D1*
X4891276Y1598091D1*
X4889375Y1592343D1*
Y1582748D1*
X4891276Y1577044D1*
X4893222Y1573197D1*
X4897024Y1569395D1*
X4900871Y1567449D1*
X4908520D1*
X4912323Y1569395D1*
X4916169Y1573197D1*
X4918071Y1577044D1*
X4953370Y1607597D2*
X4934269D1*
X4932368Y1590397D1*
X4934269Y1592299D1*
X4940017Y1594244D1*
X4945721D1*
X4951469Y1592299D1*
X4955316Y1588496D1*
X4957217Y1582748D1*
Y1578946D1*
X4955316Y1573197D1*
X4951469Y1569351D1*
X4945721Y1567449D1*
X4940017D1*
X4934269Y1569351D1*
X4932368Y1571296D1*
X4930422Y1575099D1*
X5658932Y1602641D2*
X5655085Y1600740D1*
X5651282Y1596893D1*
X5649337Y1593091D1*
X5647436Y1587343D1*
Y1577748D1*
X5649337Y1572044D1*
X5651282Y1568197D1*
X5655085Y1564395D1*
X5658932Y1562449D1*
X5666581D1*
X5670384Y1564395D1*
X5674230Y1568197D1*
X5676132Y1572044D1*
X5678033Y1577748D1*
Y1587343D1*
X5676132Y1593091D1*
X5674230Y1596893D1*
X5670384Y1600740D1*
X5666581Y1602641D1*
X5658932D1*
X5719080Y1593091D2*
X5717179Y1596893D1*
X5713332Y1600740D1*
X5709530Y1602641D1*
X5701880D1*
X5698034Y1600740D1*
X5694231Y1596893D1*
X5692286Y1593091D1*
X5690384Y1587343D1*
Y1577748D1*
X5692286Y1572044D1*
X5694231Y1568197D1*
X5698034Y1564395D1*
X5701880Y1562449D1*
X5709530D1*
X5713332Y1564395D1*
X5717179Y1568197D1*
X5719080Y1572044D1*
X5754380Y1596893D2*
X5752478Y1600696D1*
X5746730Y1602597D1*
X5742928D1*
X5737180Y1600696D1*
X5733333Y1594948D1*
X5731432Y1585397D1*
Y1575847D1*
X5733333Y1568197D1*
X5737180Y1564351D1*
X5742928Y1562449D1*
X5744829D1*
X5750533Y1564351D1*
X5754380Y1568197D1*
X5756281Y1573946D1*
Y1575847D1*
X5754380Y1581595D1*
X5750533Y1585397D1*
X5744829Y1587299D1*
X5742928D1*
X5737180Y1585397D1*
X5733333Y1581595D1*
X5731432Y1575847D1*
X6414185Y1604641D2*
X6410338Y1602740D1*
X6406535Y1598893D1*
X6404590Y1595091D1*
X6402689Y1589343D1*
Y1579748D1*
X6404590Y1574044D1*
X6406535Y1570197D1*
X6410338Y1566395D1*
X6414185Y1564449D1*
X6421834D1*
X6425637Y1566395D1*
X6429483Y1570197D1*
X6431385Y1574044D1*
X6433286Y1579748D1*
Y1589343D1*
X6431385Y1595091D1*
X6429483Y1598893D1*
X6425637Y1602740D1*
X6421834Y1604641D1*
X6414185D1*
X6474333Y1595091D2*
X6472432Y1598893D1*
X6468585Y1602740D1*
X6464783Y1604641D1*
X6457133D1*
X6453287Y1602740D1*
X6449484Y1598893D1*
X6447539Y1595091D1*
X6445637Y1589343D1*
Y1579748D1*
X6447539Y1574044D1*
X6449484Y1570197D1*
X6453287Y1566395D1*
X6457133Y1564449D1*
X6464783D1*
X6468585Y1566395D1*
X6472432Y1570197D1*
X6474333Y1574044D1*
X6494334Y1564449D2*
X6513479Y1604597D1*
X6486685D1*
X7036194Y1610891D2*
X7032347Y1608990D1*
X7028544Y1605143D1*
X7026599Y1601340D1*
X7024698Y1595592D1*
Y1585997D1*
X7026599Y1580294D1*
X7028544Y1576447D1*
X7032347Y1572644D1*
X7036194Y1570699D1*
X7043843D1*
X7047646Y1572644D1*
X7051492Y1576447D1*
X7053394Y1580294D1*
X7055295Y1585997D1*
Y1595592D1*
X7053394Y1601340D1*
X7051492Y1605143D1*
X7047646Y1608990D1*
X7043843Y1610891D1*
X7036194D1*
X7096342Y1601340D2*
X7094441Y1605143D1*
X7090594Y1608990D1*
X7086792Y1610891D1*
X7079142D1*
X7075296Y1608990D1*
X7071493Y1605143D1*
X7069548Y1601340D1*
X7067646Y1595592D1*
Y1585997D1*
X7069548Y1580294D1*
X7071493Y1576447D1*
X7075296Y1572644D1*
X7079142Y1570699D1*
X7086792D1*
X7090594Y1572644D1*
X7094441Y1576447D1*
X7096342Y1580294D1*
X7118244Y1610847D2*
X7112540Y1608945D1*
X7110595Y1605143D1*
Y1601296D1*
X7112540Y1597493D1*
X7116343Y1595548D1*
X7123992Y1593647D1*
X7129740Y1591745D1*
X7133543Y1587899D1*
X7135444Y1584096D1*
Y1578348D1*
X7133543Y1574546D1*
X7131642Y1572600D1*
X7125893Y1570699D1*
X7118244D1*
X7112540Y1572600D1*
X7110595Y1574546D1*
X7108694Y1578348D1*
Y1584096D1*
X7110595Y1587899D1*
X7114442Y1591745D1*
X7120145Y1593647D1*
X7127795Y1595548D1*
X7131642Y1597493D1*
X7133543Y1601296D1*
Y1605143D1*
X7131642Y1608945D1*
X7125893Y1610847D1*
X7118244D1*
X1785881Y1328776D2*
X1782078Y1326919D1*
X1778231Y1323072D1*
X1776330Y1319225D1*
X1774385Y1313477D1*
Y1303927D1*
X1776330Y1298179D1*
X1778231Y1294376D1*
X1782078Y1290529D1*
X1785881Y1288628D1*
X1793530D1*
X1797377Y1290529D1*
X1801179Y1294376D1*
X1803081Y1298179D1*
X1805026Y1303927D1*
Y1313477D1*
X1803081Y1319225D1*
X1801179Y1323072D1*
X1797377Y1326919D1*
X1793530Y1328776D1*
X1785881D1*
X1791629Y1296277D2*
X1803081Y1284781D1*
X1817377Y1321082D2*
X1821224Y1323028D1*
X1826972Y1328732D1*
Y1288584D1*
X2577281Y1328776D2*
X2573478Y1326919D1*
X2569631Y1323072D1*
X2567730Y1319225D1*
X2565785Y1313477D1*
Y1303927D1*
X2567730Y1298179D1*
X2569631Y1294376D1*
X2573478Y1290529D1*
X2577281Y1288628D1*
X2584930D1*
X2588777Y1290529D1*
X2592579Y1294376D1*
X2594481Y1298179D1*
X2596426Y1303927D1*
Y1313477D1*
X2594481Y1319225D1*
X2592579Y1323072D1*
X2588777Y1326919D1*
X2584930Y1328776D1*
X2577281D1*
X2583029Y1296277D2*
X2594481Y1284781D1*
X2610723Y1319181D2*
Y1321082D1*
X2612624Y1324929D1*
X2614526Y1326830D1*
X2618372Y1328732D1*
X2626022D1*
X2629824Y1326830D1*
X2631725Y1324929D1*
X2633671Y1321082D1*
Y1317280D1*
X2631725Y1313433D1*
X2627923Y1307729D1*
X2608778Y1288584D1*
X2635572D1*
X3377281Y1322527D2*
X3373478Y1320670D1*
X3369631Y1316823D1*
X3367730Y1312976D1*
X3365785Y1307228D1*
Y1297677D1*
X3367730Y1291929D1*
X3369631Y1288127D1*
X3373478Y1284280D1*
X3377281Y1282379D1*
X3384930D1*
X3388777Y1284280D1*
X3392579Y1288127D1*
X3394481Y1291929D1*
X3396426Y1297677D1*
Y1307228D1*
X3394481Y1312976D1*
X3392579Y1316823D1*
X3388777Y1320670D1*
X3384930Y1322527D1*
X3377281D1*
X3383029Y1290028D2*
X3394481Y1278532D1*
X3412624Y1322482D2*
X3433627D1*
X3422175Y1307184D1*
X3427923D1*
X3431725Y1305283D1*
X3433627Y1303381D1*
X3435572Y1297633D1*
Y1293831D1*
X3433627Y1288083D1*
X3429824Y1284236D1*
X3424076Y1282335D1*
X3418328D1*
X3412624Y1284236D1*
X3410723Y1286181D1*
X3408778Y1289984D1*
X4176329Y1328776D2*
X4172526Y1326919D1*
X4168680Y1323072D1*
X4166778Y1319225D1*
X4164833Y1313477D1*
Y1303927D1*
X4166778Y1298179D1*
X4168680Y1294376D1*
X4172526Y1290529D1*
X4176329Y1288628D1*
X4183978D1*
X4187825Y1290529D1*
X4191627Y1294376D1*
X4193529Y1298179D1*
X4195474Y1303927D1*
Y1313477D1*
X4193529Y1319225D1*
X4191627Y1323072D1*
X4187825Y1326919D1*
X4183978Y1328776D1*
X4176329D1*
X4182077Y1296277D2*
X4193529Y1284781D1*
X4226971Y1288584D2*
Y1328732D1*
X4207826Y1301981D1*
X4236522D1*
X4977782Y1328776D2*
X4973980Y1326919D1*
X4970133Y1323072D1*
X4968232Y1319225D1*
X4966286Y1313477D1*
Y1303927D1*
X4968232Y1298179D1*
X4970133Y1294376D1*
X4973980Y1290529D1*
X4977782Y1288628D1*
X4985431D1*
X4989278Y1290529D1*
X4993081Y1294376D1*
X4994982Y1298179D1*
X4996927Y1303927D1*
Y1313477D1*
X4994982Y1319225D1*
X4993081Y1323072D1*
X4989278Y1326919D1*
X4985431Y1328776D1*
X4977782D1*
X4983530Y1296277D2*
X4994982Y1284781D1*
X5032227Y1328732D2*
X5013126D1*
X5011224Y1311532D1*
X5013126Y1313433D1*
X5018874Y1315379D1*
X5024577D1*
X5030326Y1313433D1*
X5034172Y1309631D1*
X5036074Y1303883D1*
Y1300080D1*
X5034172Y1294332D1*
X5030326Y1290485D1*
X5024577Y1288584D1*
X5018874D1*
X5013126Y1290485D1*
X5011224Y1292431D1*
X5009279Y1296233D1*
X5778290Y1326776D2*
X5774488Y1324919D1*
X5770641Y1321072D1*
X5768740Y1317225D1*
X5766794Y1311477D1*
Y1301927D1*
X5768740Y1296179D1*
X5770641Y1292376D1*
X5774488Y1288529D1*
X5778290Y1286628D1*
X5785940D1*
X5789786Y1288529D1*
X5793589Y1292376D1*
X5795490Y1296179D1*
X5797436Y1301927D1*
Y1311477D1*
X5795490Y1317225D1*
X5793589Y1321072D1*
X5789786Y1324919D1*
X5785940Y1326776D1*
X5778290D1*
X5784038Y1294277D2*
X5795490Y1282781D1*
X5832735Y1321028D2*
X5830834Y1324830D1*
X5825086Y1326732D1*
X5821283D1*
X5815535Y1324830D1*
X5811688Y1319082D1*
X5809787Y1309532D1*
Y1299981D1*
X5811688Y1292332D1*
X5815535Y1288485D1*
X5821283Y1286584D1*
X5823184D1*
X5828888Y1288485D1*
X5832735Y1292332D1*
X5834636Y1298080D1*
Y1299981D1*
X5832735Y1305729D1*
X5828888Y1309532D1*
X5823184Y1311433D1*
X5821283D1*
X5815535Y1309532D1*
X5811688Y1305729D1*
X5809787Y1299981D1*
X6533545Y1328776D2*
X6529742Y1326919D1*
X6525895Y1323072D1*
X6523994Y1319225D1*
X6522049Y1313477D1*
Y1303927D1*
X6523994Y1298179D1*
X6525895Y1294376D1*
X6529742Y1290529D1*
X6533545Y1288628D1*
X6541194D1*
X6545041Y1290529D1*
X6548843Y1294376D1*
X6550744Y1298179D1*
X6552690Y1303927D1*
Y1313477D1*
X6550744Y1319225D1*
X6548843Y1323072D1*
X6545041Y1326919D1*
X6541194Y1328776D1*
X6533545D1*
X6539293Y1296277D2*
X6550744Y1284781D1*
X6572691Y1288584D2*
X6591836Y1328732D1*
X6565041D1*
X7136554Y1328776D2*
X7132751Y1326919D1*
X7128904Y1323072D1*
X7127003Y1319225D1*
X7125057Y1313477D1*
Y1303927D1*
X7127003Y1298179D1*
X7128904Y1294376D1*
X7132751Y1290529D1*
X7136554Y1288628D1*
X7144203D1*
X7148050Y1290529D1*
X7151852Y1294376D1*
X7153753Y1298179D1*
X7155699Y1303927D1*
Y1313477D1*
X7153753Y1319225D1*
X7151852Y1323072D1*
X7148050Y1326919D1*
X7144203Y1328776D1*
X7136554D1*
X7142302Y1296277D2*
X7153753Y1284781D1*
X7177601Y1328732D2*
X7171897Y1326830D1*
X7169952Y1323028D1*
Y1319181D1*
X7171897Y1315379D1*
X7175700Y1313433D1*
X7183349Y1311532D1*
X7189097Y1309631D1*
X7192900Y1305784D1*
X7194801Y1301981D1*
Y1296233D1*
X7192900Y1292431D1*
X7190998Y1290485D1*
X7185250Y1288584D1*
X7177601D1*
X7171897Y1290485D1*
X7169952Y1292431D1*
X7168050Y1296233D1*
Y1301981D1*
X7169952Y1305784D1*
X7173798Y1309631D1*
X7179502Y1311532D1*
X7187151Y1313433D1*
X7190998Y1315379D1*
X7192900Y1319181D1*
Y1323028D1*
X7190998Y1326830D1*
X7185250Y1328732D1*
X7177601D1*
X3439110Y494232D2*
Y511432D1*
X3437165Y517180D1*
X3435264Y519125D1*
X3431461Y521027D1*
X3427614D1*
X3423812Y519125D1*
X3421866Y517180D1*
X3419965Y511432D1*
Y494232D1*
X3460157D1*
X3439110Y507629D2*
X3460157Y521027D1*
X3427658Y533378D2*
X3425713Y537225D1*
X3420009Y542973D1*
X3460157D1*
X3651709Y485731D2*
Y502930D1*
X3649763Y508678D1*
X3647862Y510624D1*
X3644059Y512525D1*
X3640213D1*
X3636410Y510624D1*
X3634465Y508678D1*
X3632563Y502930D1*
Y485731D1*
X3672755D1*
X3651709Y499128D2*
X3672755Y512525D1*
X3642158Y526822D2*
X3640257D1*
X3636410Y528723D1*
X3634509Y530625D1*
X3632608Y534471D1*
Y542121D1*
X3634509Y545923D1*
X3636410Y547824D1*
X3640257Y549770D1*
X3644059D1*
X3647906Y547824D1*
X3653610Y544022D1*
X3672755Y524877D1*
Y551671D1*
X1312873Y1498329D2*
Y1515529D1*
X1310927Y1521277D1*
X1309026Y1523222D1*
X1305223Y1525124D1*
X1301377D1*
X1297574Y1523222D1*
X1295629Y1521277D1*
X1293727Y1515529D1*
Y1498329D1*
X1333919D1*
X1312873Y1511726D2*
X1333919Y1525124D1*
X1293772Y1541322D2*
Y1562324D1*
X1309070Y1550872D1*
Y1556620D1*
X1310971Y1560423D1*
X1312873Y1562324D1*
X1318621Y1564270D1*
X1322423D1*
X1328171Y1562324D1*
X1332018Y1558522D1*
X1333919Y1552774D1*
Y1547025D1*
X1332018Y1541322D1*
X1330073Y1539420D1*
X1326270Y1537475D1*
X1551610Y940931D2*
Y958131D1*
X1549665Y963879D1*
X1547764Y965824D1*
X1543961Y967725D1*
X1540114D1*
X1536312Y965824D1*
X1534366Y963879D1*
X1532465Y958131D1*
Y940931D1*
X1572657D1*
X1551610Y954328D2*
X1572657Y967725D1*
Y999222D2*
X1532509D1*
X1559260Y980077D1*
Y1008773D1*
X2112873Y1498329D2*
Y1515529D1*
X2110927Y1521277D1*
X2109026Y1523222D1*
X2105223Y1525124D1*
X2101377D1*
X2097574Y1523222D1*
X2095629Y1521277D1*
X2093727Y1515529D1*
Y1498329D1*
X2133919D1*
X2112873Y1511726D2*
X2133919Y1525124D1*
X2093772Y1560423D2*
Y1541322D1*
X2110971Y1539420D1*
X2109070Y1541322D1*
X2107125Y1547070D1*
Y1552774D1*
X2109070Y1558522D1*
X2112873Y1562368D1*
X2118621Y1564270D1*
X2122423D1*
X2128171Y1562368D1*
X2132018Y1558522D1*
X2133919Y1552774D1*
Y1547070D1*
X2132018Y1541322D1*
X2130073Y1539420D1*
X2126270Y1537475D1*
X2351610Y942856D2*
Y960055D1*
X2349665Y965803D1*
X2347764Y967749D1*
X2343961Y969650D1*
X2340114D1*
X2336312Y967749D1*
X2334366Y965803D1*
X2332465Y960055D1*
Y942856D1*
X2372657D1*
X2351610Y956253D2*
X2372657Y969650D1*
X2338213Y1004949D2*
X2334410Y1003048D1*
X2332509Y997300D1*
Y993498D1*
X2334410Y987750D1*
X2340158Y983903D1*
X2349709Y982002D1*
X2359260D1*
X2366909Y983903D1*
X2370756Y987750D1*
X2372657Y993498D1*
Y995399D1*
X2370756Y1001103D1*
X2366909Y1004949D1*
X2361161Y1006851D1*
X2359260D1*
X2353512Y1004949D1*
X2349709Y1001103D1*
X2347808Y995399D1*
Y993498D1*
X2349709Y987750D1*
X2353512Y983903D1*
X2359260Y982002D1*
X2895110Y1498329D2*
Y1515529D1*
X2893165Y1521277D1*
X2891264Y1523222D1*
X2887461Y1525124D1*
X2883614D1*
X2879812Y1523222D1*
X2877866Y1521277D1*
X2875965Y1515529D1*
Y1498329D1*
X2916157D1*
X2895110Y1511726D2*
X2916157Y1525124D1*
Y1545124D2*
X2876009Y1564270D1*
Y1537475D1*
X3151610Y941905D2*
Y959105D1*
X3149665Y964853D1*
X3147764Y966798D1*
X3143961Y968700D1*
X3140114D1*
X3136312Y966798D1*
X3134366Y964853D1*
X3132465Y959105D1*
Y941905D1*
X3172657D1*
X3151610Y955302D2*
X3172657Y968699D1*
X3132509Y990601D2*
X3134410Y984898D1*
X3138213Y982952D1*
X3142060D1*
X3145862Y984898D1*
X3147808Y988700D1*
X3149709Y996349D1*
X3151610Y1002097D1*
X3155457Y1005900D1*
X3159260Y1007801D1*
X3165008D1*
X3168810Y1005900D1*
X3170756Y1003999D1*
X3172657Y998251D1*
Y990601D1*
X3170756Y984898D1*
X3168810Y982952D1*
X3165008Y981051D1*
X3159260D1*
X3155457Y982952D1*
X3151610Y986799D1*
X3149709Y992503D1*
X3147808Y1000152D1*
X3145862Y1003999D1*
X3142060Y1005900D1*
X3138213D1*
X3134410Y1003999D1*
X3132509Y998251D1*
Y990601D1*
X3712870Y1499280D2*
Y1516479D1*
X3710925Y1522227D1*
X3709023Y1524173D1*
X3705221Y1526074D1*
X3701374D1*
X3697571Y1524173D1*
X3695626Y1522228D1*
X3693725Y1516479D1*
Y1499280D1*
X3733917D1*
X3712870Y1512677D2*
X3733917Y1526074D1*
X3707122Y1563319D2*
X3712870Y1561373D1*
X3716717Y1557571D1*
X3718618Y1551823D1*
Y1549922D1*
X3716717Y1544174D1*
X3712870Y1540371D1*
X3707122Y1538426D1*
X3705221D1*
X3699473Y1540371D1*
X3695670Y1544174D1*
X3693769Y1549922D1*
Y1551823D1*
X3695670Y1557571D1*
X3699473Y1561374D1*
X3707122Y1563319D1*
X3716717D1*
X3726267Y1561373D1*
X3732015Y1557571D1*
X3733917Y1551823D1*
Y1548020D1*
X3732015Y1542272D1*
X3728169Y1540371D1*
X3939009Y931008D2*
Y948208D1*
X3937064Y953956D1*
X3935162Y955901D1*
X3931360Y957803D1*
X3927513D1*
X3923711Y955901D1*
X3921765Y953956D1*
X3919864Y948208D1*
Y931008D1*
X3960056D1*
X3939009Y944405D2*
X3960056Y957803D1*
X3927557Y970154D2*
X3925612Y974001D1*
X3919908Y979749D1*
X3960056D1*
X3919908Y1003596D2*
X3921809Y997848D1*
X3927557Y994002D1*
X3937108Y992100D1*
X3942856D1*
X3952407Y994002D1*
X3958155Y997848D1*
X3960056Y1003596D1*
Y1007399D1*
X3958155Y1013147D1*
X3952407Y1016949D1*
X3942856Y1018895D1*
X3937108D1*
X3927557Y1016949D1*
X3921809Y1013147D1*
X3919908Y1007399D1*
Y1003596D1*
X3927557Y1016949D2*
X3952407Y994002D1*
X4512860Y1499205D2*
Y1516405D1*
X4510914Y1522153D1*
X4509013Y1524099D1*
X4505210Y1526000D1*
X4501364D1*
X4497561Y1524099D1*
X4495616Y1522153D1*
X4493714Y1516405D1*
Y1499205D1*
X4533906D1*
X4512860Y1512602D2*
X4533906Y1526000D1*
X4501408Y1538351D2*
X4499462Y1542198D1*
X4493758Y1547946D1*
X4533906D1*
X4501408Y1560297D2*
X4499462Y1564144D1*
X4493758Y1569892D1*
X4533906D1*
X4739512Y931008D2*
Y948208D1*
X4737566Y953956D1*
X4735665Y955901D1*
X4731863Y957803D1*
X4728016D1*
X4724213Y955901D1*
X4722268Y953956D1*
X4720366Y948208D1*
Y931008D1*
X4760558D1*
X4739512Y944405D2*
X4760558Y957803D1*
X4728060Y970154D2*
X4726115Y974001D1*
X4720411Y979749D1*
X4760558D1*
X4729961Y994046D2*
X4728060D1*
X4724213Y995947D1*
X4722312Y997848D1*
X4720411Y1001695D1*
Y1009344D1*
X4722312Y1013147D1*
X4724213Y1015048D1*
X4728060Y1016994D1*
X4731863D1*
X4735709Y1015048D1*
X4741413Y1011246D1*
X4760558Y992100D1*
Y1018895D1*
X5312923Y1485356D2*
Y1502556D1*
X5310977Y1508304D1*
X5309076Y1510249D1*
X5305273Y1512151D1*
X5301427D1*
X5297624Y1510249D1*
X5295679Y1508304D1*
X5293777Y1502556D1*
Y1485356D1*
X5333969D1*
X5312923Y1498753D2*
X5333969Y1512150D1*
X5301471Y1524502D2*
X5299525Y1528349D1*
X5293821Y1534097D1*
X5333969D1*
X5293821Y1550295D2*
Y1571297D1*
X5309120Y1559845D1*
Y1565593D1*
X5311021Y1569396D1*
X5312923Y1571297D1*
X5318671Y1573243D1*
X5322473D1*
X5328221Y1571297D1*
X5332068Y1567495D1*
X5333969Y1561747D1*
Y1555999D1*
X5332068Y1550295D1*
X5330122Y1548394D1*
X5326320Y1546448D1*
X5545398Y929959D2*
Y947159D1*
X5543452Y952907D1*
X5541551Y954852D1*
X5537748Y956754D1*
X5533902D1*
X5530099Y954852D1*
X5528154Y952907D1*
X5526252Y947159D1*
Y929959D1*
X5566444D1*
X5545398Y943356D2*
X5566444Y956754D1*
X5533946Y969105D2*
X5532000Y972952D1*
X5526297Y978700D1*
X5566444D1*
Y1010197D2*
X5526297D1*
X5553047Y991051D1*
Y1019747D1*
X6069135Y1487356D2*
Y1504556D1*
X6067190Y1510304D1*
X6065288Y1512249D1*
X6061486Y1514151D1*
X6057639D1*
X6053837Y1512249D1*
X6051891Y1510304D1*
X6049990Y1504556D1*
Y1487356D1*
X6090182D1*
X6069135Y1500753D2*
X6090182Y1514150D1*
X6057683Y1526502D2*
X6055738Y1530349D1*
X6050034Y1536097D1*
X6090182D1*
X6050034Y1571396D2*
Y1552295D1*
X6067234Y1550394D1*
X6065333Y1552295D1*
X6063387Y1558043D1*
Y1563747D1*
X6065333Y1569495D1*
X6069135Y1573341D1*
X6074883Y1575243D1*
X6078686D1*
X6084434Y1573341D1*
X6088281Y1569495D1*
X6090182Y1563747D1*
Y1558043D1*
X6088281Y1552295D1*
X6086335Y1550394D1*
X6082533Y1548448D1*
X6289205Y931882D2*
Y949082D1*
X6287259Y954830D1*
X6285358Y956776D1*
X6281555Y958677D1*
X6277709D1*
X6273906Y956776D1*
X6271961Y954830D1*
X6270059Y949082D1*
Y931882D1*
X6310251D1*
X6289205Y945280D2*
X6310251Y958677D1*
X6277753Y971028D2*
X6275807Y974875D1*
X6270104Y980623D1*
X6310251D1*
X6275807Y1015922D2*
X6272005Y1014021D1*
X6270104Y1008273D1*
Y1004471D1*
X6272005Y998723D1*
X6277753Y994876D1*
X6287303Y992975D1*
X6296854D1*
X6304503Y994876D1*
X6308350Y998723D1*
X6310251Y1004471D1*
Y1006372D1*
X6308350Y1012076D1*
X6304503Y1015922D1*
X6298755Y1017824D1*
X6296854D1*
X6291106Y1015922D1*
X6287303Y1012076D1*
X6285402Y1006372D1*
Y1004471D1*
X6287303Y998723D1*
X6291106Y994876D1*
X6296854Y992975D1*
X6716071Y1402607D2*
Y1419806D1*
X6714125Y1425554D1*
X6712224Y1427500D1*
X6708422Y1429401D1*
X6704575D1*
X6700772Y1427500D1*
X6698827Y1425554D1*
X6696926Y1419806D1*
X6696925Y1402607D1*
X6737117D1*
X6716071Y1416004D2*
X6737118Y1429401D1*
X6704619Y1441753D2*
X6702674Y1445599D1*
X6696970Y1451347D1*
X6737118D1*
Y1471348D2*
X6696970Y1490493D1*
Y1463699D1*
X6892110Y924681D2*
Y941881D1*
X6890165Y947629D1*
X6888264Y949575D1*
X6884461Y951476D1*
X6880614D1*
X6876812Y949575D1*
X6874866Y947629D1*
X6872965Y941881D1*
Y924681D1*
X6913157D1*
X6892110Y938078D2*
X6913157Y951476D1*
X6880658Y963827D2*
X6878713Y967674D1*
X6873009Y973422D1*
X6913157D1*
X6873009Y995324D2*
X6874910Y989620D1*
X6878713Y987675D1*
X6882560D1*
X6886362Y989620D1*
X6888308Y993423D1*
X6890209Y1001072D1*
X6892110Y1006820D1*
X6895957Y1010622D1*
X6899760Y1012524D1*
X6905508D1*
X6909310Y1010622D1*
X6911256Y1008721D1*
X6913157Y1002973D1*
Y995324D1*
X6911256Y989620D1*
X6909310Y987675D1*
X6905508Y985773D1*
X6899760D1*
X6895957Y987675D1*
X6892110Y991521D1*
X6890209Y997225D1*
X6888308Y1004874D1*
X6886362Y1008721D1*
X6882560Y1010622D1*
X6878713D1*
X6874910Y1008721D1*
X6873009Y1002973D1*
Y995324D1*
X4206934Y1006017D2*
X4224134D1*
X4229882Y1007963D1*
X4231827Y1009864D1*
X4233728Y1013666D1*
Y1017513D1*
X4231827Y1021316D1*
X4229882Y1023261D1*
X4224134Y1025162D1*
X4206934D1*
Y984970D1*
X4220331Y1006017D2*
X4233728Y984970D1*
X4265225Y1025162D2*
Y994565D1*
X4263324Y988817D1*
X4261378Y986916D1*
X4257576Y984970D1*
X4253729D1*
X4249927Y986916D1*
X4248025Y988817D1*
X4246080Y994565D1*
Y998368D1*
X4277577Y1005044D2*
X4299684D1*
X4312036Y1017469D2*
X4315883Y1019414D1*
X4321631Y1025118D1*
Y984970D1*
X4973332Y1006017D2*
X4990532D1*
X4996280Y1007963D1*
X4998226Y1009864D1*
X5000127Y1013666D1*
Y1017513D1*
X4998226Y1021316D1*
X4996280Y1023261D1*
X4990532Y1025162D1*
X4973332D1*
Y984970D1*
X4986730Y1006017D2*
X5000127Y984970D1*
X5031624Y1025162D2*
Y994565D1*
X5029723Y988817D1*
X5027777Y986916D1*
X5023975Y984970D1*
X5020128D1*
X5016325Y986916D1*
X5014424Y988817D1*
X5012479Y994565D1*
Y998368D1*
X5043975Y1005044D2*
X5066083D1*
X5080380Y1015568D2*
Y1017469D1*
X5082281Y1021316D1*
X5084183Y1023217D1*
X5088029Y1025118D1*
X5095679D1*
X5099481Y1023217D1*
X5101382Y1021316D1*
X5103328Y1017469D1*
Y1013666D1*
X5101382Y1009820D1*
X5097580Y1004116D1*
X5078435Y984970D1*
X5105229D1*
X1359144Y1359266D2*
Y1330570D1*
X1361045Y1324822D1*
X1364892Y1321020D1*
X1370640Y1319074D1*
X1374443D1*
X1380191Y1321020D1*
X1384037Y1324822D1*
X1385939Y1330570D1*
Y1359266D1*
X1398290Y1351573D2*
X1402137Y1353518D1*
X1407885Y1359222D1*
Y1319074D1*
X2175543Y1359266D2*
Y1330570D1*
X2177444Y1324822D1*
X2181291Y1321020D1*
X2187039Y1319074D1*
X2190841D1*
X2196589Y1321020D1*
X2200436Y1324822D1*
X2202337Y1330570D1*
Y1359266D1*
X2216634Y1349671D2*
Y1351573D1*
X2218536Y1355419D1*
X2220437Y1357321D1*
X2224284Y1359222D1*
X2231933D1*
X2235735Y1357321D1*
X2237637Y1355419D1*
X2239582Y1351573D1*
Y1347770D1*
X2237637Y1343923D1*
X2233834Y1338219D1*
X2214689Y1319074D1*
X2241483D1*
X2988043Y1353017D2*
Y1324321D1*
X2989944Y1318573D1*
X2993791Y1314770D1*
X2999539Y1312825D1*
X3003341D1*
X3009089Y1314770D1*
X3012936Y1318573D1*
X3014837Y1324321D1*
Y1353017D1*
X3031036Y1352973D2*
X3052038D1*
X3040586Y1337674D1*
X3046334D1*
X3050137Y1335773D1*
X3052038Y1333871D1*
X3053983Y1328123D1*
Y1324321D1*
X3052038Y1318573D1*
X3048235Y1314726D1*
X3042487Y1312825D1*
X3036739D1*
X3031036Y1314726D1*
X3029134Y1316672D1*
X3027189Y1320474D1*
X3774591Y1359267D2*
Y1330571D1*
X3776492Y1324823D1*
X3780339Y1321021D1*
X3786087Y1319075D1*
X3789889D1*
X3795637Y1321021D1*
X3799484Y1324823D1*
X3801385Y1330571D1*
Y1359267D1*
X3832882Y1319075D2*
Y1359223D1*
X3813737Y1332473D1*
X3842433D1*
X4594793Y1359267D2*
Y1330571D1*
X4596695Y1324823D1*
X4600541Y1321021D1*
X4606289Y1319075D1*
X4610092D1*
X4615840Y1321021D1*
X4619687Y1324823D1*
X4621588Y1330571D1*
Y1359267D1*
X4656887Y1359223D2*
X4637786D1*
X4635885Y1342023D1*
X4637786Y1343925D1*
X4643534Y1345870D1*
X4649238D1*
X4654986Y1343925D1*
X4658833Y1340122D1*
X4660734Y1334374D1*
Y1330571D1*
X4658833Y1324823D1*
X4654986Y1320977D1*
X4649238Y1319075D1*
X4643534D1*
X4637786Y1320977D1*
X4635885Y1322922D1*
X4633939Y1326725D1*
X5370303Y1357267D2*
Y1328571D1*
X5372204Y1322823D1*
X5376051Y1319021D1*
X5381799Y1317075D1*
X5385602D1*
X5391350Y1319021D1*
X5395196Y1322823D1*
X5397098Y1328571D1*
Y1357267D1*
X5432397Y1351519D2*
X5430496Y1355322D1*
X5424748Y1357223D1*
X5420945D1*
X5415197Y1355322D1*
X5411350Y1349574D1*
X5409449Y1340023D1*
Y1330473D1*
X5411350Y1322823D1*
X5415197Y1318977D1*
X5420945Y1317075D1*
X5422846D1*
X5428550Y1318977D1*
X5432397Y1322823D1*
X5434298Y1328571D1*
Y1330473D1*
X5432397Y1336221D1*
X5428550Y1340023D1*
X5422846Y1341925D1*
X5420945D1*
X5415197Y1340023D1*
X5411350Y1336221D1*
X5409449Y1330473D1*
X6131805Y1359267D2*
Y1330571D1*
X6133706Y1324823D1*
X6137553Y1321021D1*
X6143301Y1319075D1*
X6147104D1*
X6152852Y1321021D1*
X6156699Y1324823D1*
X6158600Y1330571D1*
Y1359267D1*
X6178601Y1319075D2*
X6197746Y1359223D1*
X6170951D1*
X6722314Y1359267D2*
Y1330571D1*
X6724215Y1324823D1*
X6728062Y1321021D1*
X6733810Y1319075D1*
X6737613D1*
X6743361Y1321021D1*
X6747208Y1324823D1*
X6749109Y1330571D1*
Y1359267D1*
X6771011Y1359223D2*
X6765307Y1357322D1*
X6763362Y1353519D1*
Y1349673D1*
X6765307Y1345870D1*
X6769110Y1343925D1*
X6776759Y1342023D1*
X6782507Y1340122D1*
X6786309Y1336275D1*
X6788211Y1332473D1*
Y1326725D1*
X6786309Y1322922D1*
X6784408Y1320977D1*
X6778660Y1319075D1*
X6771011D1*
X6765307Y1320977D1*
X6763362Y1322922D1*
X6761460Y1326725D1*
Y1332473D1*
X6763362Y1336275D1*
X6767208Y1340122D1*
X6772912Y1342023D1*
X6780561Y1343925D1*
X6784408Y1345870D1*
X6786309Y1349673D1*
Y1353519D1*
X6784408Y1357322D1*
X6778660Y1359223D1*
X6771011D1*
X3582350Y888206D2*
Y859510D1*
X3584252Y853762D1*
X3588098Y849960D1*
X3593846Y848014D1*
X3597649D1*
X3603397Y849960D1*
X3607244Y853762D1*
X3609145Y859510D1*
Y888206D1*
X3646390Y874809D2*
X3644444Y869061D1*
X3640642Y865214D1*
X3634894Y863313D1*
X3632992D1*
X3627244Y865214D1*
X3623442Y869061D1*
X3621496Y874809D1*
Y876710D1*
X3623442Y882458D1*
X3627244Y886261D1*
X3632992Y888162D1*
X3634894D1*
X3640642Y886261D1*
X3644444Y882458D1*
X3646390Y874809D1*
Y865214D1*
X3644444Y855664D1*
X3640642Y849916D1*
X3634894Y848014D1*
X3631091D1*
X3625343Y849916D1*
X3623442Y853762D1*
X7127973Y912909D2*
Y884213D1*
X7129874Y878465D1*
X7133721Y874663D1*
X7139469Y872717D1*
X7143271D1*
X7149019Y874663D1*
X7152866Y878465D1*
X7154767Y884213D1*
Y912909D1*
X7167119Y905216D2*
X7170965Y907161D1*
X7176713Y912865D1*
Y872717D1*
X7200561Y912865D2*
X7194813Y910964D1*
X7190966Y905216D1*
X7189065Y895665D1*
Y889917D1*
X7190966Y880366D1*
X7194813Y874618D1*
X7200561Y872717D1*
X7204363D1*
X7210111Y874618D1*
X7213914Y880366D1*
X7215859Y889917D1*
Y895665D1*
X7213914Y905216D1*
X7210111Y910964D1*
X7204363Y912865D1*
X7200561D1*
X7213914Y905216D2*
X7190966Y880366D1*
X570784Y1260072D2*
Y1231376D1*
X572685Y1225628D1*
X576532Y1221826D1*
X582280Y1219880D1*
X586082D1*
X591830Y1221826D1*
X595677Y1225628D1*
X597578Y1231376D1*
Y1260072D1*
X609930Y1252379D2*
X613777Y1254324D1*
X619525Y1260028D1*
Y1219880D1*
X631876Y1252379D2*
X635723Y1254324D1*
X641471Y1260028D1*
Y1219880D1*
X461306Y2865665D2*
Y2836969D1*
X463207Y2831221D1*
X467054Y2827419D1*
X472802Y2825473D1*
X476604D1*
X482353Y2827419D1*
X486199Y2831221D1*
X488101Y2836969D1*
Y2865665D1*
X500452Y2857972D2*
X504299Y2859917D1*
X510047Y2865621D1*
Y2825473D1*
X524344Y2856070D2*
Y2857972D1*
X526245Y2861818D1*
X528146Y2863720D1*
X531993Y2865621D1*
X539642D1*
X543445Y2863720D1*
X545346Y2861818D1*
X547292Y2857972D1*
Y2854169D1*
X545346Y2850322D1*
X541544Y2844618D1*
X522398Y2825473D1*
X549193D1*
X7128015Y2865691D2*
Y2836995D1*
X7129916Y2831247D1*
X7133763Y2827445D1*
X7139511Y2825499D1*
X7143313D1*
X7149061Y2827445D1*
X7152908Y2831247D1*
X7154809Y2836995D1*
Y2865691D1*
X7167161Y2857998D2*
X7171007Y2859943D1*
X7176755Y2865647D1*
Y2825499D1*
X7192954Y2865647D2*
X7213956D1*
X7202504Y2850348D1*
X7208252D1*
X7212055Y2848447D1*
X7213956Y2846546D1*
X7215901Y2840798D1*
Y2836995D1*
X7213956Y2831247D1*
X7210153Y2827401D1*
X7204405Y2825499D1*
X7198657D1*
X7192954Y2827401D1*
X7191052Y2829346D1*
X7189107Y2833149D1*
X1064583Y448046D2*
D119*
X1078942Y478156D1*
X1058846D1*
X1088206Y478190D2*
X1099680Y448046D1*
X1111154Y478190D1*
X1153889D2*
Y453783D1*
X1155315Y449505D1*
X1158200Y448046D1*
X1161052D1*
X1149578Y468142D2*
X1159626D1*
X1177478D2*
X1174626Y466716D1*
X1171741Y463831D1*
X1170315Y459520D1*
Y456668D1*
X1171741Y452357D1*
X1174626Y449505D1*
X1177478Y448046D1*
X1181789D1*
X1184674Y449505D1*
X1187526Y452357D1*
X1188985Y456668D1*
Y459520D1*
X1187526Y463831D1*
X1184674Y466716D1*
X1181789Y468142D1*
X1177478D1*
X1230294Y478156D2*
X1246046D1*
X1237457Y466682D1*
X1241768D1*
X1244620Y465257D1*
X1246046Y463831D1*
X1247505Y459520D1*
Y456668D1*
X1246046Y452357D1*
X1243194Y449472D1*
X1238883Y448046D1*
X1234572D1*
X1230294Y449472D1*
X1228868Y450931D1*
X1227409Y453783D1*
X1273980Y473879D2*
X1272554Y476730D1*
X1268243Y478156D1*
X1265391D1*
X1261080Y476730D1*
X1258195Y472419D1*
X1256769Y465257D1*
Y458094D1*
X1258195Y452357D1*
X1261080Y449472D1*
X1265391Y448046D1*
X1266817D1*
X1271095Y449472D1*
X1273980Y452357D1*
X1275406Y456668D1*
Y458094D1*
X1273980Y462405D1*
X1271095Y465257D1*
X1266817Y466682D1*
X1265391D1*
X1261080Y465257D1*
X1258195Y462405D1*
X1256769Y458094D1*
X1284669Y478190D2*
X1296143Y448046D1*
X1307617Y478190D1*
X1346041D2*
X1347467Y476764D1*
X1348926Y478190D1*
X1347467Y479649D1*
X1346041Y478190D1*
X1347467Y468142D2*
Y448046D1*
X1358190Y468142D2*
Y448046D1*
Y462405D2*
X1362501Y466716D1*
X1365386Y468142D1*
X1369664D1*
X1372549Y466716D1*
X1373975Y462405D1*
Y448046D1*
X1383239Y468142D2*
Y437998D1*
Y463831D2*
X1386124Y466682D1*
X1388975Y468142D1*
X1393287D1*
X1396172Y466682D1*
X1399023Y463831D1*
X1400483Y459520D1*
Y456634D1*
X1399023Y452357D1*
X1396172Y449472D1*
X1393287Y448046D1*
X1388975D1*
X1386124Y449472D1*
X1383239Y452357D1*
X1409746Y468142D2*
Y453783D1*
X1411172Y449505D1*
X1414057Y448046D1*
X1418368D1*
X1421220Y449505D1*
X1425531Y453783D1*
Y468142D2*
Y448046D1*
X1439106Y478190D2*
Y453783D1*
X1440532Y449505D1*
X1443417Y448046D1*
X1446269D1*
X1434795Y468142D2*
X1444843D1*
X1884210Y837055D2*
D118*
Y877247D1*
X1868911Y837055D1*
X1853613Y877247D1*
Y837055D1*
X1896561Y877247D2*
X1898463Y875345D1*
X1900408Y877247D1*
X1898463Y879192D1*
X1896561Y877247D1*
X1898463Y863849D2*
Y837055D1*
X1912760Y863849D2*
Y837055D1*
Y856200D2*
X1918508Y861948D1*
X1922354Y863849D1*
X1928058D1*
X1931905Y861948D1*
X1933806Y856200D1*
Y837055D1*
X1946158Y863849D2*
Y837055D1*
Y856200D2*
X1951906Y861948D1*
X1955752Y863849D1*
X1961456D1*
X1965303Y861948D1*
X1967204Y856200D1*
Y837055D1*
X1989106Y863849D2*
X1985304Y861948D1*
X1981457Y858101D1*
X1979556Y852353D1*
Y848551D1*
X1981457Y842803D1*
X1985304Y839000D1*
X1989106Y837055D1*
X1994854D1*
X1998701Y839000D1*
X2002504Y842803D1*
X2004449Y848551D1*
Y852353D1*
X2002504Y858101D1*
X1998701Y861948D1*
X1994854Y863849D1*
X1989106D1*
X2016800D2*
X2024450Y837055D1*
X2032099Y863849D1*
X2039748Y837055D1*
X2047398Y863849D1*
X2059749Y877247D2*
Y837055D1*
X2076993D1*
X2082741Y839000D1*
X2084642Y840901D1*
X2086544Y844704D1*
Y850452D1*
X2084642Y854299D1*
X2082741Y856200D1*
X2076993Y858101D1*
X2082741Y860047D1*
X2084642Y861948D1*
X2086544Y865751D1*
Y869597D1*
X2084642Y873400D1*
X2082741Y875345D1*
X2076993Y877247D1*
X2059749D1*
Y858101D2*
X2076993D1*
X2108446Y863849D2*
X2104643Y861948D1*
X2100796Y858101D1*
X2098895Y852353D1*
Y848551D1*
X2100796Y842803D1*
X2104643Y839000D1*
X2108446Y837055D1*
X2114194D1*
X2118040Y839000D1*
X2121843Y842803D1*
X2123788Y848551D1*
Y852353D1*
X2121843Y858101D1*
X2118040Y861948D1*
X2114194Y863849D1*
X2108446D1*
X2159088D2*
Y837055D1*
Y858101D2*
X2155285Y861948D1*
X2151438Y863849D1*
X2145735D1*
X2141888Y861948D1*
X2138085Y858101D1*
X2136140Y852353D1*
Y848551D1*
X2138085Y842803D1*
X2141888Y839000D1*
X2145735Y837055D1*
X2151438D1*
X2155285Y839000D1*
X2159088Y842803D1*
X2171439Y863849D2*
Y837055D1*
Y852353D2*
X2173385Y858101D1*
X2177187Y861948D1*
X2181034Y863849D1*
X2186782D1*
X2222081Y877247D2*
Y837055D1*
Y858101D2*
X2218279Y861948D1*
X2214432Y863849D1*
X2208684D1*
X2204881Y861948D1*
X2201035Y858101D1*
X2199133Y852353D1*
Y848551D1*
X2201035Y842803D1*
X2204881Y839000D1*
X2208684Y837055D1*
X2214432D1*
X2218279Y839000D1*
X2222081Y842803D1*
X2303911Y837055D2*
Y877247D1*
X2288612Y837055D1*
X2273313Y877247D1*
Y837055D1*
X2346904D2*
X2331561Y877247D1*
X2316262Y837055D1*
X2322010Y850452D2*
X2341156D1*
X2359255Y877247D2*
X2386050Y837055D1*
Y877247D2*
X2359255Y837055D1*
X2437282D2*
X2464076Y877202D1*
X2528706Y877247D2*
Y837055D1*
X2515309Y877247D2*
X2542103D1*
X2554455Y863849D2*
Y844704D1*
X2556356Y839000D1*
X2560203Y837055D1*
X2565951D1*
X2569753Y839000D1*
X2575501Y844704D1*
Y863849D2*
Y837055D1*
X2587853Y863849D2*
Y837055D1*
Y852353D2*
X2589798Y858101D1*
X2593601Y861948D1*
X2597448Y863849D1*
X2603196D1*
X2615547Y877247D2*
Y837055D1*
Y858101D2*
X2619394Y861948D1*
X2623196Y863849D1*
X2628944D1*
X2632747Y861948D1*
X2636594Y858101D1*
X2638495Y852353D1*
Y848551D1*
X2636594Y842803D1*
X2632747Y839000D1*
X2628944Y837055D1*
X2623196D1*
X2619394Y839000D1*
X2615547Y842803D1*
X2660397Y863849D2*
X2656594Y861948D1*
X2652748Y858101D1*
X2650846Y852353D1*
Y848551D1*
X2652748Y842803D1*
X2656594Y839000D1*
X2660397Y837055D1*
X2666145D1*
X2669992Y839000D1*
X2673794Y842803D1*
X2675740Y848551D1*
Y852353D1*
X2673794Y858101D1*
X2669992Y861948D1*
X2666145Y863849D1*
X2660397D1*
X2693839Y877247D2*
Y844704D1*
X2695740Y839000D1*
X2699587Y837055D1*
X2703390D1*
X2688091Y863849D2*
X2701488D1*
X2754622Y877247D2*
Y837055D1*
X2777570D1*
X2816716Y871499D2*
X2812913Y875345D1*
X2807165Y877247D1*
X2799516D1*
X2793768Y875345D1*
X2789921Y871499D1*
Y867696D1*
X2791867Y863849D1*
X2793768Y861948D1*
X2797570Y860047D1*
X2809066Y856200D1*
X2812913Y854299D1*
X2814815Y852353D1*
X2816716Y848551D1*
Y842803D1*
X2812913Y839000D1*
X2807165Y837055D1*
X2799516D1*
X2793768Y839000D1*
X2789921Y842803D1*
X2853916Y877247D2*
X2829067D1*
Y837055D1*
X2853916D1*
X2829067Y858101D2*
X2844366D1*
X2933844Y867696D2*
X2931943Y871499D1*
X2928096Y875345D1*
X2924294Y877247D1*
X2916645D1*
X2912798Y875345D1*
X2908995Y871499D1*
X2907050Y867696D1*
X2905149Y861948D1*
Y852353D1*
X2907050Y846649D1*
X2908995Y842803D1*
X2912798Y839000D1*
X2916645Y837055D1*
X2924294D1*
X2928096Y839000D1*
X2931943Y842803D1*
X2933844Y846649D1*
X2955746Y863849D2*
X2951944Y861948D1*
X2948097Y858101D1*
X2946196Y852353D1*
Y848551D1*
X2948097Y842803D1*
X2951944Y839000D1*
X2955746Y837055D1*
X2961494D1*
X2965341Y839000D1*
X2969144Y842803D1*
X2971089Y848551D1*
Y852353D1*
X2969144Y858101D1*
X2965341Y861948D1*
X2961494Y863849D1*
X2955746D1*
X2983441D2*
Y837055D1*
Y856200D2*
X2989189Y861948D1*
X2993035Y863849D1*
X2998739D1*
X3002586Y861948D1*
X3004487Y856200D1*
Y837055D1*
Y856200D2*
X3010235Y861948D1*
X3014082Y863849D1*
X3019786D1*
X3023633Y861948D1*
X3025578Y856200D1*
Y837055D1*
X3037930Y863849D2*
Y823657D1*
Y858101D2*
X3041776Y861904D1*
X3045579Y863849D1*
X3051327D1*
X3055174Y861904D1*
X3058976Y858101D1*
X3060922Y852353D1*
Y848507D1*
X3058976Y842803D1*
X3055174Y838956D1*
X3051327Y837055D1*
X3045579D1*
X3041776Y838956D1*
X3037930Y842803D1*
X3096221Y863849D2*
Y837055D1*
Y858101D2*
X3092418Y861948D1*
X3088572Y863849D1*
X3082868D1*
X3079021Y861948D1*
X3075219Y858101D1*
X3073273Y852353D1*
Y848551D1*
X3075219Y842803D1*
X3079021Y839000D1*
X3082868Y837055D1*
X3088572D1*
X3092418Y839000D1*
X3096221Y842803D1*
X3114320Y877247D2*
Y844704D1*
X3116222Y839000D1*
X3120068Y837055D1*
X3123871D1*
X3108572Y863849D2*
X3121970D1*
X3136222Y877247D2*
X3138124Y875345D1*
X3140069Y877247D1*
X3138124Y879192D1*
X3136222Y877247D1*
X3138124Y863849D2*
Y837055D1*
X3152421Y877247D2*
Y837055D1*
Y858101D2*
X3156267Y861948D1*
X3160070Y863849D1*
X3165818D1*
X3169620Y861948D1*
X3173467Y858101D1*
X3175368Y852353D1*
Y848551D1*
X3173467Y842803D1*
X3169620Y839000D1*
X3165818Y837055D1*
X3160070D1*
X3156267Y839000D1*
X3152421Y842803D1*
X3187720Y877247D2*
Y837055D1*
X3200071Y852353D2*
X3223019D1*
Y856200D1*
X3221118Y860047D1*
X3219217Y861948D1*
X3215370Y863849D1*
X3209622D1*
X3205819Y861948D1*
X3201973Y858101D1*
X3200071Y852353D1*
Y848551D1*
X3201973Y842803D1*
X3205819Y839000D1*
X3209622Y837055D1*
X3215370D1*
X3219217Y839000D1*
X3223019Y842803D1*
X1326002Y3100214D2*
Y3140406D1*
X1352797Y3100214D1*
Y3140406D1*
X1302154Y3100214D2*
X1306001Y3102115D1*
X1309804Y3105962D1*
X1311749Y3109765D1*
X1313651Y3115513D1*
Y3125107D1*
X1311749Y3130811D1*
X1309804Y3134658D1*
X1306001Y3138460D1*
X1302155Y3140406D1*
X1294505D1*
X1290703Y3138460D1*
X1286856Y3134658D1*
X1284955Y3130811D1*
X1283053Y3125107D1*
Y3115513D1*
X1284955Y3109765D1*
X1286856Y3105962D1*
X1290703Y3102115D1*
X1294505Y3100214D1*
X1302154D1*
X1010623D2*
Y3140406D1*
X1037417Y3100214D1*
Y3140406D1*
X969575Y3109765D2*
X971477Y3105962D1*
X975323Y3102115D1*
X979126Y3100214D1*
X986775D1*
X990622Y3102115D1*
X994425Y3105962D1*
X996370Y3109765D1*
X998271Y3115513D1*
Y3125107D1*
X996370Y3130811D1*
X994425Y3134658D1*
X990622Y3138460D1*
X986775Y3140406D1*
X979126D1*
X975323Y3138460D1*
X971477Y3134658D1*
X969575Y3130811D1*
X5291487Y3100476D2*
X5291488Y3140668D1*
X5318282Y3100476D1*
Y3140668D1*
X5267640Y3100476D2*
X5271487Y3102378D1*
X5275289Y3106224D1*
X5277235Y3110027D1*
X5279136Y3115775D1*
Y3125370D1*
X5277235Y3131074D1*
X5275289Y3134920D1*
X5271487Y3138723D1*
X5267640Y3140668D1*
X5259991D1*
X5256188Y3138723D1*
X5252341Y3134920D1*
X5250440Y3131074D1*
X5248539Y3125370D1*
Y3115775D1*
X5250440Y3110027D1*
X5252341Y3106224D1*
X5256188Y3102378D1*
X5259991Y3100476D1*
X5267640D1*
X4976108D2*
Y3140668D1*
X5002903Y3100476D1*
Y3140668D1*
X4935061Y3110027D2*
X4936962Y3106224D1*
X4940809Y3102378D1*
X4944611Y3100476D1*
X4952261D1*
X4956108Y3102378D1*
X4959910Y3106224D1*
X4961856Y3110027D1*
X4963757Y3115775D1*
Y3125370D1*
X4961856Y3131074D1*
X4959910Y3134920D1*
X4956108Y3138723D1*
X4952261Y3140668D1*
X4944611D1*
X4940809Y3138723D1*
X4936962Y3134920D1*
X4935061Y3131074D1*
X2118390Y3098639D2*
Y3138831D1*
X2145185Y3098639D1*
Y3138831D1*
X2094543Y3098639D2*
X2098390Y3100540D1*
X2102192Y3104387D1*
X2104138Y3108190D1*
X2106039Y3113938D1*
Y3123533D1*
X2104138Y3129236D1*
X2102192Y3133083D1*
X2098390Y3136886D1*
X2094543Y3138831D1*
X2086894D1*
X2083091Y3136886D1*
X2079244Y3133083D1*
X2077343Y3129236D1*
X2075442Y3123533D1*
Y3113938D1*
X2077343Y3108190D1*
X2079244Y3104387D1*
X2083091Y3100540D1*
X2086894Y3098639D1*
X2094543D1*
X1803011D2*
Y3138831D1*
X1829806Y3098639D1*
Y3138831D1*
X1761964Y3108190D2*
X1763865Y3104387D1*
X1767712Y3100540D1*
X1771514Y3098639D1*
X1779164D1*
X1783010Y3100540D1*
X1786813Y3104387D1*
X1788758Y3108190D1*
X1790660Y3113938D1*
Y3123533D1*
X1788758Y3129236D1*
X1786813Y3133083D1*
X1783010Y3136886D1*
X1779164Y3138831D1*
X1771514D1*
X1767712Y3136886D1*
X1763865Y3133083D1*
X1761964Y3129236D1*
X2918915Y3104545D2*
Y3144737D1*
X2945710Y3104545D1*
Y3144737D1*
X2895068Y3104545D2*
X2898915Y3106446D1*
X2902717Y3110293D1*
X2904663Y3114095D1*
X2906564Y3119843D1*
Y3129438D1*
X2904663Y3135142D1*
X2902717Y3138989D1*
X2898915Y3142791D1*
X2895068Y3144737D1*
X2887419D1*
X2883616Y3142791D1*
X2879769Y3138989D1*
X2877868Y3135142D1*
X2875967Y3129438D1*
Y3119843D1*
X2877868Y3114095D1*
X2879769Y3110293D1*
X2883616Y3106446D1*
X2887419Y3104545D1*
X2895068D1*
X2603536D2*
Y3144737D1*
X2630331Y3104545D1*
Y3144737D1*
X2562489Y3114095D2*
X2564390Y3110293D1*
X2568237Y3106446D1*
X2572039Y3104545D1*
X2579689D1*
X2583535Y3106446D1*
X2587338Y3110293D1*
X2589283Y3114095D1*
X2591185Y3119843D1*
Y3129438D1*
X2589283Y3135142D1*
X2587338Y3138989D1*
X2583535Y3142791D1*
X2579689Y3144737D1*
X2572039D1*
X2568237Y3142791D1*
X2564390Y3138989D1*
X2562489Y3135142D1*
X3709860Y3096802D2*
Y3136994D1*
X3736655Y3096802D1*
Y3136994D1*
X3686013Y3096802D2*
X3689859Y3098703D1*
X3693662Y3102550D1*
X3695608Y3106353D1*
X3697509Y3112101D1*
Y3121695D1*
X3695608Y3127399D1*
X3693662Y3131246D1*
X3689860Y3135048D1*
X3686013Y3136994D1*
X3678363D1*
X3674561Y3135048D1*
X3670714Y3131246D1*
X3668813Y3127399D1*
X3666912Y3121695D1*
Y3112101D1*
X3668813Y3106352D1*
X3670714Y3102550D1*
X3674561Y3098703D1*
X3678363Y3096802D1*
X3686013D1*
X3394481D2*
Y3136994D1*
X3421276Y3096802D1*
Y3136994D1*
X3353434Y3106352D2*
X3355335Y3102550D1*
X3359182Y3098703D1*
X3362984Y3096802D1*
X3370633D1*
X3374480Y3098703D1*
X3378283Y3102550D1*
X3380228Y3106352D1*
X3382130Y3112100D1*
Y3121695D1*
X3380228Y3127399D1*
X3378283Y3131246D1*
X3374480Y3135048D1*
X3370633Y3136994D1*
X3362984D1*
X3359182Y3135048D1*
X3355335Y3131246D1*
X3353434Y3127399D1*
X4501461Y3100608D2*
Y3140800D1*
X4528256Y3100608D1*
Y3140800D1*
X4477614Y3100608D2*
X4481461Y3102509D1*
X4485263Y3106356D1*
X4487209Y3110158D1*
X4489110Y3115906D1*
Y3125501D1*
X4487209Y3131205D1*
X4485263Y3135052D1*
X4481461Y3138854D1*
X4477614Y3140800D1*
X4469965D1*
X4466162Y3138854D1*
X4462315Y3135052D1*
X4460414Y3131205D1*
X4458513Y3125501D1*
Y3115906D1*
X4460414Y3110158D1*
X4462315Y3106356D1*
X4466162Y3102509D1*
X4469964Y3100608D1*
X4477614D1*
X4186082D2*
Y3140800D1*
X4212877Y3100608D1*
Y3140800D1*
X4145035Y3110158D2*
X4146936Y3106356D1*
X4150783Y3102509D1*
X4154585Y3100608D1*
X4162235D1*
X4166081Y3102509D1*
X4169884Y3106356D1*
X4171829Y3110158D1*
X4173731Y3115906D1*
Y3125501D1*
X4171829Y3131205D1*
X4169884Y3135052D1*
X4166081Y3138854D1*
X4162235Y3140800D1*
X4154585D1*
X4150783Y3138854D1*
X4146936Y3135052D1*
X4145035Y3131205D1*
X6079939Y3099952D2*
Y3140144D1*
X6106734Y3099951D1*
Y3140143D1*
X6056091Y3099952D2*
X6059938Y3101853D1*
X6063741Y3105700D1*
X6065686Y3109502D1*
X6067588Y3115250D1*
Y3124845D1*
X6065686Y3130549D1*
X6063741Y3134395D1*
X6059938Y3138198D1*
X6056092Y3140144D1*
X6048442D1*
X6044640Y3138198D1*
X6040793Y3134395D1*
X6038892Y3130549D1*
X6036990Y3124845D1*
Y3115250D1*
X6038892Y3109502D1*
X6040793Y3105700D1*
X6044640Y3101853D1*
X6048442Y3099952D1*
X6056091D1*
X5764560Y3099951D2*
Y3140143D1*
X5791354Y3099951D1*
Y3140143D1*
X5723512Y3109502D2*
X5725414Y3105700D1*
X5729260Y3101853D1*
X5733063Y3099951D1*
X5740712D1*
X5744559Y3101853D1*
X5748362Y3105700D1*
X5750307Y3109502D1*
X5752208Y3115250D1*
Y3124845D1*
X5750307Y3130549D1*
X5748362Y3134395D1*
X5744559Y3138198D1*
X5740712Y3140143D1*
X5733063D1*
X5729260Y3138198D1*
X5725414Y3134395D1*
X5723512Y3130549D1*
X6881382Y3098114D2*
X6881383Y3138306D1*
X6908177Y3098114D1*
Y3138306D1*
X6857535Y3098114D2*
X6861382Y3100016D1*
X6865184Y3103862D1*
X6867130Y3107665D1*
X6869031Y3113413D1*
Y3123008D1*
X6867130Y3128711D1*
X6865184Y3132558D1*
X6861382Y3136361D1*
X6857535Y3138306D1*
X6849886D1*
X6846083Y3136361D1*
X6842236Y3132558D1*
X6840335Y3128711D1*
X6838434Y3123008D1*
Y3113413D1*
X6840335Y3107665D1*
X6842236Y3103862D1*
X6846083Y3100016D1*
X6849886Y3098114D1*
X6857535D1*
X6566003D2*
Y3138306D1*
X6592798Y3098114D1*
Y3138306D1*
X6524956Y3107665D2*
X6526857Y3103862D1*
X6530704Y3100015D1*
X6534506Y3098114D1*
X6542156D1*
X6546003Y3100015D1*
X6549805Y3103862D1*
X6551751Y3107665D1*
X6553652Y3113413D1*
Y3123008D1*
X6551751Y3128711D1*
X6549805Y3132558D1*
X6546003Y3136361D1*
X6542156Y3138306D1*
X6534506D1*
X6530704Y3136361D1*
X6526857Y3132558D1*
X6524956Y3128711D1*
X705653Y2305162D2*
D120*
X755893D1*
X705653Y2271668D1*
X755893D1*
X705653Y2334971D2*
X708030Y2330162D1*
X712838Y2325409D1*
X717591Y2322977D1*
X724776Y2320601D1*
X736770D1*
X743899Y2322977D1*
X748708Y2325409D1*
X753461Y2330162D1*
X755893Y2334971D1*
Y2344533D1*
X753461Y2349286D1*
X748708Y2354094D1*
X743899Y2356471D1*
X736770Y2358847D1*
X724776D1*
X717591Y2356471D1*
X712838Y2354094D1*
X708030Y2349286D1*
X705653Y2344533D1*
Y2334971D1*
X723616Y2422888D2*
Y2465943D1*
X737986Y2422888D2*
Y2465942D1*
X705653Y2563476D2*
X755893D1*
X705653Y2529983D1*
X755893D1*
X722400Y2590854D2*
X724776Y2586100D1*
X729585Y2581292D1*
X736770Y2578915D1*
X741523D1*
X748708Y2581292D1*
X753461Y2586100D1*
X755893Y2590854D1*
Y2598039D1*
X753461Y2602847D1*
X748708Y2607600D1*
X741523Y2610032D1*
X736770D1*
X729585Y2607600D1*
X724776Y2602847D1*
X722400Y2598039D1*
Y2590854D1*
Y2625471D2*
X755893D1*
X736770D2*
X729585Y2627903D1*
X724776Y2632656D1*
X722400Y2637465D1*
Y2644650D1*
Y2660089D2*
X755893D1*
X731961D2*
X724776Y2667274D1*
X722400Y2672083D1*
Y2679212D1*
X724776Y2684021D1*
X731961Y2686397D1*
X755893D1*
X731961D2*
X724776Y2693582D1*
X722400Y2698391D1*
Y2705521D1*
X724776Y2710329D1*
X731961Y2712761D1*
X755893D1*
X722400Y2756885D2*
X755893D1*
X729585D2*
X724776Y2752132D1*
X722400Y2747323D1*
Y2740194D1*
X724776Y2735385D1*
X729585Y2730632D1*
X736770Y2728200D1*
X741523D1*
X748708Y2730632D1*
X753461Y2735385D1*
X755893Y2740194D1*
Y2747323D1*
X753461Y2752132D1*
X748708Y2756885D1*
X705653Y2772324D2*
X755893D1*
X705653Y2787764D2*
X755893D1*
X722400Y2805635D2*
X755893Y2819949D1*
X765455Y2815196D1*
X770263Y2810388D1*
X772640Y2805635D1*
Y2803203D1*
X722400Y2834320D2*
X755893Y2819949D1*
X705653Y2912730D2*
X708030Y2907921D1*
X712838Y2903168D1*
X717591Y2900736D1*
X724776Y2898360D1*
X736770D1*
X743899Y2900736D1*
X748708Y2903168D1*
X753461Y2907921D1*
X755893Y2912730D1*
Y2922291D1*
X753461Y2927045D1*
X748708Y2931853D1*
X743899Y2934230D1*
X736770Y2936606D1*
X724776D1*
X717591Y2934230D1*
X712838Y2931853D1*
X708030Y2927045D1*
X705653Y2922291D1*
Y2912730D1*
X722400Y2952046D2*
X772640D1*
X729585D2*
X724831Y2956854D1*
X722400Y2961607D1*
Y2968792D1*
X724831Y2973601D1*
X729585Y2978354D1*
X736770Y2980786D1*
X741578D1*
X748708Y2978354D1*
X753516Y2973601D1*
X755893Y2968792D1*
Y2961607D1*
X753516Y2956854D1*
X748708Y2952046D1*
X736770Y2996225D2*
Y3024910D1*
X731961D1*
X727153Y3022533D1*
X724776Y3020157D1*
X722400Y3015348D1*
Y3008163D1*
X724776Y3003410D1*
X729585Y2998602D1*
X736770Y2996225D1*
X741523D1*
X748708Y2998602D1*
X753461Y3003410D1*
X755893Y3008163D1*
Y3015348D1*
X753461Y3020157D1*
X748708Y3024910D1*
X722400Y3040349D2*
X755893D1*
X731961D2*
X724776Y3047534D1*
X722400Y3052343D1*
Y3059472D1*
X724776Y3064281D1*
X731961Y3066657D1*
X755893D1*
X602503Y2307918D2*
X652743Y2307917D1*
X602503Y2274424D1*
X652743D1*
X614442Y2359227D2*
X609688Y2356850D1*
X604880Y2352042D1*
X602503Y2347288D1*
Y2337727D1*
X604880Y2332918D1*
X609688Y2328165D1*
X614442Y2325733D1*
X621627Y2323357D1*
X633620D1*
X640750Y2325733D1*
X645558Y2328165D1*
X650311Y2332918D1*
X652743Y2337727D1*
Y2347288D1*
X650311Y2352042D1*
X645558Y2356850D1*
X640750Y2359227D1*
X620466Y2423267D2*
Y2466322D1*
X634836Y2423267D2*
Y2466322D1*
X602503Y2563855D2*
X652743D1*
X602503Y2530362D1*
X652743D1*
X619250Y2591233D2*
X621627Y2586480D1*
X626435Y2581671D1*
X633620Y2579295D1*
X638373D1*
X645558Y2581671D1*
X650311Y2586480D1*
X652743Y2591233D1*
Y2598418D1*
X650311Y2603226D1*
X645558Y2607979D1*
X638373Y2610411D1*
X633620D1*
X626435Y2607979D1*
X621627Y2603226D1*
X619250Y2598418D1*
Y2591233D1*
Y2625851D2*
X652743D1*
X633620D2*
X626435Y2628282D1*
X621627Y2633036D1*
X619250Y2637844D1*
Y2645029D1*
Y2660468D2*
X652743D1*
X628812D2*
X621627Y2667653D1*
X619250Y2672462D1*
Y2679592D1*
X621627Y2684400D1*
X628812Y2686777D1*
X652743D1*
X628812D2*
X621627Y2693962D1*
X619250Y2698770D1*
Y2705900D1*
X621627Y2710708D1*
X628812Y2713140D1*
X652743D1*
X619250Y2757264D2*
X652743D1*
X626435D2*
X621627Y2752511D1*
X619250Y2747703D1*
Y2740573D1*
X621627Y2735765D1*
X626435Y2731011D1*
X633620Y2728579D1*
X638373D1*
X645558Y2731011D1*
X650311Y2735765D1*
X652743Y2740573D1*
Y2747703D1*
X650311Y2752511D1*
X645558Y2757264D1*
X602503Y2772704D2*
X652743D1*
X602503Y2788143D2*
X652743D1*
X619250Y2806014D2*
X652743Y2820329D1*
X662305Y2815576D1*
X667113Y2810767D1*
X669490Y2806014D1*
Y2803582D1*
X619250Y2834699D2*
X652743Y2820329D1*
X614442Y2934609D2*
X609688Y2932232D1*
X604880Y2927424D1*
X602503Y2922671D1*
Y2913109D1*
X604880Y2908301D1*
X609688Y2903548D1*
X614442Y2901116D1*
X621627Y2898739D1*
X633620D1*
X640750Y2901116D1*
X645558Y2903548D1*
X650311Y2908301D1*
X652743Y2913109D1*
Y2922671D1*
X650311Y2927424D1*
X645558Y2932232D1*
X640750Y2934609D1*
X602503Y2950048D2*
X652743D1*
X619250Y2977426D2*
X621627Y2972673D1*
X626435Y2967864D1*
X633620Y2965487D1*
X638373D1*
X645558Y2967864D1*
X650311Y2972673D1*
X652743Y2977426D1*
Y2984611D1*
X650311Y2989419D1*
X645558Y2994172D1*
X638373Y2996604D1*
X633620D1*
X626435Y2994172D1*
X621627Y2989419D1*
X619250Y2984611D1*
Y2977426D1*
X626435Y3038352D2*
X621627Y3035975D1*
X619250Y3028790D1*
Y3021605D1*
X621627Y3014420D1*
X626435Y3012043D1*
X631188Y3014420D1*
X633620Y3019229D1*
X635997Y3031167D1*
X638373Y3035975D1*
X643182Y3038352D1*
X645558D1*
X650311Y3035975D1*
X652743Y3028790D1*
Y3021605D1*
X650311Y3014420D1*
X645558Y3012043D1*
X633620Y3053791D2*
Y3082476D1*
X628812D1*
X624003Y3080099D1*
X621627Y3077723D1*
X619250Y3072914D1*
Y3065729D1*
X621627Y3060976D1*
X626435Y3056168D1*
X633620Y3053791D1*
X638373D1*
X645558Y3056168D1*
X650311Y3060976D1*
X652743Y3065729D1*
Y3072914D1*
X650311Y3077723D1*
X645558Y3082476D1*
X602503Y3126600D2*
X652743D1*
X626435D2*
X621627Y3121847D1*
X619250Y3117038D1*
Y3109853D1*
X621627Y3105100D1*
X626435Y3100292D1*
X633620Y3097915D1*
X638373D1*
X645558Y3100292D1*
X650311Y3105100D1*
X652743Y3109853D1*
Y3117038D1*
X650311Y3121847D1*
X645558Y3126600D1*
X4520797Y808923D2*
D121*
X4526567Y811841D1*
X4535189Y820397D1*
Y760175D1*
X4553716Y790286D2*
X4586878D1*
X4605405Y820463D2*
X4619797Y760175D1*
X4634123Y820463D1*
X4648449Y760175D1*
X4662841Y820463D1*
X4681368D2*
X4684220Y817611D1*
X4687139Y820463D1*
X4684220Y823381D1*
X4681368Y820463D1*
X4684220Y800367D2*
Y760175D1*
X4705666Y800367D2*
Y760175D1*
Y783123D2*
X4708584Y791745D1*
X4714288Y797515D1*
X4720058Y800367D1*
X4728680D1*
X4747207Y783123D2*
X4781629D1*
Y788893D1*
X4778777Y794663D1*
X4775925Y797515D1*
X4770155Y800367D1*
X4761533D1*
X4755829Y797515D1*
X4750059Y791745D1*
X4747207Y783123D1*
Y777419D1*
X4750059Y768797D1*
X4755829Y763093D1*
X4761533Y760175D1*
X4770155D1*
X4775925Y763093D1*
X4781629Y768797D1*
X4516613Y704957D2*
D120*
Y654717D1*
X4533360D1*
X4540545Y657149D1*
X4545353Y661902D1*
X4547730Y666711D1*
X4550106Y673841D1*
Y685834D1*
X4547730Y693019D1*
X4545353Y697772D1*
X4540545Y702581D1*
X4533360Y704957D1*
X4516613D1*
X4565546Y673841D2*
X4594231D1*
Y678649D1*
X4591854Y683457D1*
X4589477Y685834D1*
X4584669Y688211D1*
X4577484D1*
X4572731Y685834D1*
X4567922Y681026D1*
X4565546Y673841D1*
Y669087D1*
X4567922Y661902D1*
X4572731Y657149D1*
X4577484Y654717D1*
X4584669D1*
X4589477Y657149D1*
X4594231Y661902D1*
X4609670Y688211D2*
X4624040Y654717D1*
X4638355Y688211D1*
X4653794Y704957D2*
X4656171Y702581D1*
X4658602Y704957D1*
X4656171Y707389D1*
X4653794Y704957D1*
X4656171Y688211D2*
Y654717D1*
X4702782Y681026D2*
X4697973Y685834D1*
X4693165Y688211D1*
X4686035D1*
X4681227Y685834D1*
X4676474Y681026D1*
X4674042Y673841D1*
Y669087D1*
X4676474Y661902D1*
X4681227Y657149D1*
X4686035Y654717D1*
X4693165D1*
X4697973Y657149D1*
X4702782Y661902D1*
X4718221Y673841D2*
X4746906D1*
Y678649D1*
X4744529Y683457D1*
X4742153Y685834D1*
X4737344Y688211D1*
X4730159D1*
X4725406Y685834D1*
X4720598Y681026D1*
X4718221Y673841D1*
Y669087D1*
X4720598Y661902D1*
X4725406Y657149D1*
X4730159Y654717D1*
X4737344D1*
X4742153Y657149D1*
X4746906Y661902D1*
X4788653Y681026D2*
X4786277Y685834D1*
X4779092Y688211D1*
X4771907D1*
X4764722Y685834D1*
X4762345Y681026D1*
X4764722Y676272D1*
X4769530Y673841D1*
X4781468Y671464D1*
X4786277Y669087D1*
X4788653Y664279D1*
Y661902D1*
X4786277Y657149D1*
X4779092Y654717D1*
X4771907D1*
X4764722Y657149D1*
X4762345Y661902D1*
X5296913Y808267D2*
D121*
X5302683Y811185D1*
X5311305Y819741D1*
Y759519D1*
X5329832Y789630D2*
X5362994D1*
X5381521Y819807D2*
X5395913Y759519D1*
X5410239Y819807D1*
X5424565Y759519D1*
X5438957Y819807D1*
X5457484D2*
X5460336Y816955D1*
X5463254Y819807D1*
X5460336Y822725D1*
X5457484Y819807D1*
X5460336Y799711D2*
Y759519D1*
X5481781Y799711D2*
Y759519D1*
Y782467D2*
X5484699Y791089D1*
X5490403Y796859D1*
X5496173Y799711D1*
X5504795D1*
X5523322Y782467D2*
X5557744D1*
Y788237D1*
X5554892Y794007D1*
X5552041Y796859D1*
X5546270Y799711D1*
X5537648D1*
X5531945Y796859D1*
X5526174Y791089D1*
X5523322Y782467D1*
Y776763D1*
X5526174Y768141D1*
X5531945Y762437D1*
X5537648Y759519D1*
X5546270D1*
X5552041Y762437D1*
X5557744Y768141D1*
X5292729Y704301D2*
D120*
Y654061D1*
X5309475D1*
X5316660Y656493D1*
X5321469Y661246D1*
X5323845Y666055D1*
X5326222Y673184D1*
Y685178D1*
X5323845Y692363D1*
X5321469Y697116D1*
X5316660Y701925D1*
X5309475Y704301D1*
X5292729D1*
X5341661Y673184D2*
X5370346D1*
Y677993D1*
X5367969Y682801D1*
X5365593Y685178D1*
X5360784Y687554D1*
X5353599D1*
X5348846Y685178D1*
X5344038Y680369D1*
X5341661Y673184D1*
Y668431D1*
X5344038Y661246D1*
X5348846Y656493D1*
X5353599Y654061D1*
X5360784D1*
X5365593Y656493D1*
X5370346Y661246D1*
X5385785Y687554D2*
X5400155Y654061D1*
X5414470Y687554D1*
X5429909Y704301D2*
X5432286Y701925D1*
X5434718Y704301D1*
X5432286Y706733D1*
X5429909Y704301D1*
X5432286Y687554D2*
Y654061D1*
X5478897Y680369D2*
X5474089Y685178D1*
X5469280Y687554D1*
X5462151D1*
X5457342Y685178D1*
X5452589Y680369D1*
X5450157Y673184D1*
Y668431D1*
X5452589Y661246D1*
X5457342Y656493D1*
X5462151Y654061D1*
X5469280D1*
X5474089Y656493D1*
X5478897Y661246D1*
X5494337Y673184D2*
X5523021D1*
Y677993D1*
X5520645Y682801D1*
X5518268Y685178D1*
X5513460Y687554D1*
X5506275D1*
X5501522Y685178D1*
X5496713Y680369D1*
X5494337Y673184D1*
Y668431D1*
X5496713Y661246D1*
X5501522Y656493D1*
X5506275Y654061D1*
X5513460D1*
X5518268Y656493D1*
X5523021Y661246D1*
X5564769Y680369D2*
X5562392Y685178D1*
X5555207Y687554D1*
X5548022D1*
X5540837Y685178D1*
X5538461Y680369D1*
X5540837Y675616D1*
X5545646Y673184D1*
X5557584Y670808D1*
X5562392Y668431D1*
X5564769Y663623D1*
Y661246D1*
X5562392Y656493D1*
X5555207Y654061D1*
X5548022D1*
X5540837Y656493D1*
X5538461Y661246D1*
X6244450Y722834D2*
D118*
X6248297Y724780D1*
X6254045Y730483D1*
Y690336D1*
X6266396Y710409D2*
X6288504D1*
X6300855Y730528D2*
X6310450Y690336D1*
X6320001Y730528D1*
X6329551Y690336D1*
X6339146Y730528D1*
X6351498D2*
X6353399Y728626D1*
X6355344Y730528D1*
X6353399Y732473D1*
X6351498Y730528D1*
X6353399Y717130D2*
Y690336D1*
X6367696Y717130D2*
Y690336D1*
Y705634D2*
X6369641Y711382D1*
X6373444Y715229D1*
X6377291Y717130D1*
X6383039D1*
X6395390Y705634D2*
X6418338D1*
Y709481D1*
X6416437Y713328D1*
X6414535Y715229D1*
X6410689Y717130D1*
X6404941D1*
X6401138Y715229D1*
X6397291Y711382D1*
X6395390Y705634D1*
Y701832D1*
X6397291Y696084D1*
X6401138Y692281D1*
X6404941Y690336D1*
X6410689D1*
X6414535Y692281D1*
X6418338Y696084D1*
X6240266Y631557D2*
D119*
Y601413D1*
X6250314D1*
X6254625Y602872D1*
X6257510Y605724D1*
X6258936Y608609D1*
X6260362Y612887D1*
Y620083D1*
X6258936Y624394D1*
X6257510Y627246D1*
X6254625Y630131D1*
X6250314Y631557D1*
X6240266D1*
X6269626Y612887D2*
X6286837D1*
Y615772D1*
X6285411Y618657D1*
X6283985Y620083D1*
X6281100Y621509D1*
X6276789D1*
X6273937Y620083D1*
X6271052Y617198D1*
X6269626Y612887D1*
Y610035D1*
X6271052Y605724D1*
X6273937Y602872D1*
X6276789Y601413D1*
X6281100D1*
X6283985Y602872D1*
X6286837Y605724D1*
X6296100Y621509D2*
X6304722Y601413D1*
X6313311Y621509D1*
X6322575Y631557D2*
X6324000Y630131D1*
X6325460Y631557D1*
X6324000Y633016D1*
X6322575Y631557D1*
X6324000Y621509D2*
Y601413D1*
X6351967Y617198D2*
X6349082Y620083D1*
X6346197Y621509D1*
X6341919D1*
X6339034Y620083D1*
X6336182Y617198D1*
X6334723Y612887D1*
Y610035D1*
X6336182Y605724D1*
X6339034Y602872D1*
X6341919Y601413D1*
X6346197D1*
X6349082Y602872D1*
X6351967Y605724D1*
X6361231Y612887D2*
X6378442D1*
Y615772D1*
X6377016Y618657D1*
X6375590Y620083D1*
X6372705Y621509D1*
X6368394D1*
X6365542Y620083D1*
X6362657Y617198D1*
X6361231Y612887D1*
Y610035D1*
X6362657Y605724D1*
X6365542Y602872D1*
X6368394Y601413D1*
X6372705D1*
X6375590Y602872D1*
X6378442Y605724D1*
X6403490Y617198D2*
X6402064Y620083D1*
X6397753Y621509D1*
X6393442D1*
X6389131Y620083D1*
X6387705Y617198D1*
X6389131Y614346D1*
X6392016Y612887D1*
X6399179Y611461D1*
X6402064Y610035D1*
X6403490Y607150D1*
Y605724D1*
X6402064Y602872D1*
X6397753Y601413D1*
X6393442D1*
X6389131Y602872D1*
X6387705Y605724D1*
X4592284Y600240D2*
D121*
X4546388Y574374D1*
X4592284Y548574D1*
X4610811Y574407D2*
X4643972D1*
X4662499D2*
X4695661D1*
X4714188Y600240D2*
X4760084Y574374D1*
X4714188Y548574D1*
X5370892Y602340D2*
X5324997Y576473D1*
X5370892Y550674D1*
X5389420Y576507D2*
X5422581D1*
X5441108D2*
X5474270D1*
X5492797Y602340D2*
X5538693Y576473D1*
X5492797Y550674D1*
X6271395Y538476D2*
D120*
X6233149Y516921D1*
X6271395Y495421D1*
X6286834Y516949D2*
X6314469D1*
X6329908D2*
X6357543D1*
X6372982Y538476D2*
X6411229Y516921D1*
X6372982Y495421D1*
X1290659Y575575D2*
D119*
X1289233Y578427D1*
X1286348Y581312D1*
X1283496Y582738D1*
X1277759D1*
X1274874Y581312D1*
X1272022Y578427D1*
X1270563Y575575D1*
X1269137Y571264D1*
Y564068D1*
X1270563Y559790D1*
X1272022Y556905D1*
X1274874Y554053D1*
X1277759Y552594D1*
X1283496D1*
X1286348Y554053D1*
X1289233Y556905D1*
X1290659Y559790D1*
Y564068D1*
X1283496D1*
X1320019Y582738D2*
Y552594D1*
X1299923Y582738D1*
Y552594D1*
X1329282Y582738D2*
Y552594D1*
X1339330D1*
X1343641Y554053D1*
X1346527Y556905D1*
X1347953Y559790D1*
X1349378Y564068D1*
Y571264D1*
X1347953Y575575D1*
X1346527Y578427D1*
X1343641Y581312D1*
X1339330Y582738D1*
X1329282D1*
X1192497Y1396310D2*
X1191071Y1399162D1*
X1188186Y1402047D1*
X1185334Y1403473D1*
X1179597D1*
X1176712Y1402047D1*
X1173860Y1399162D1*
X1172401Y1396310D1*
X1170975Y1391999D1*
Y1384803D1*
X1172401Y1380525D1*
X1173860Y1377640D1*
X1176712Y1374788D1*
X1179597Y1373329D1*
X1185334D1*
X1188186Y1374788D1*
X1191071Y1377640D1*
X1192497Y1380525D1*
Y1384803D1*
X1185334D1*
X1221856Y1403473D2*
Y1373329D1*
X1201760Y1403473D1*
Y1373329D1*
X1231120Y1403473D2*
Y1373329D1*
X1241168D1*
X1245479Y1374788D1*
X1248364Y1377640D1*
X1249790Y1380525D1*
X1251216Y1384803D1*
Y1391999D1*
X1249790Y1396310D1*
X1248364Y1399162D1*
X1245479Y1402047D1*
X1241168Y1403473D1*
X1231120D1*
X1289970Y828121D2*
D118*
X1270869D1*
X1268968Y810921D1*
X1270869Y812823D1*
X1276617Y814768D1*
X1282321D1*
X1288069Y812823D1*
X1291916Y809020D1*
X1293817Y803272D1*
Y799469D1*
X1291916Y793721D1*
X1288069Y789875D1*
X1282321Y787973D1*
X1276617D1*
X1270869Y789875D1*
X1268968Y791820D1*
X1267022Y795623D1*
X1306168Y828165D2*
X1321467Y787973D1*
X1336766Y828165D1*
X1154727Y1161061D2*
X1175730D1*
X1164278Y1145762D1*
X1170026D1*
X1173828Y1143861D1*
X1175730Y1141960D1*
X1177675Y1136212D1*
Y1132409D1*
X1175730Y1126661D1*
X1171927Y1122814D1*
X1166179Y1120913D1*
X1160431D1*
X1154727Y1122814D1*
X1152826Y1124760D1*
X1150881Y1128562D1*
X1191928Y1124760D2*
X1190027Y1122814D1*
X1191928Y1120913D1*
X1193873Y1122814D1*
X1191928Y1124760D1*
X1210071Y1161061D2*
X1231074D1*
X1219622Y1145762D1*
X1225370D1*
X1229173Y1143861D1*
X1231074Y1141960D1*
X1233019Y1136212D1*
Y1132409D1*
X1231074Y1126661D1*
X1227271Y1122814D1*
X1221523Y1120913D1*
X1215775D1*
X1210071Y1122814D1*
X1208170Y1124760D1*
X1206225Y1128562D1*
X1245371Y1161105D2*
X1260669Y1120913D1*
X1275968Y1161105D1*
X6099561Y488268D2*
D119*
X6096676Y486809D1*
X6092365Y482531D1*
Y512642D1*
X5906827Y489015D2*
Y487589D1*
X5905401Y484704D1*
X5903975Y483278D1*
X5901090Y481852D1*
X5895353D1*
X5892501Y483278D1*
X5891075Y484704D1*
X5889616Y487589D1*
Y490441D1*
X5891075Y493326D1*
X5893927Y497604D1*
X5908286Y511963D1*
X5888190D1*
X5705963Y484096D2*
X5690211D1*
X5698800Y495570D1*
X5694489D1*
X5691637Y496996D1*
X5690211Y498422D1*
X5688752Y502733D1*
Y505585D1*
X5690211Y509896D1*
X5693063Y512781D1*
X5697374Y514207D1*
X5701685D1*
X5705963Y512781D1*
X5707389Y511322D1*
X5708848Y508470D1*
X6957829Y488268D2*
X6954944Y486809D1*
X6950633Y482531D1*
Y512642D1*
X6765095Y489015D2*
Y487589D1*
X6763669Y484704D1*
X6762243Y483278D1*
X6759358Y481852D1*
X6753621D1*
X6750769Y483278D1*
X6749343Y484704D1*
X6747884Y487589D1*
Y490441D1*
X6749343Y493326D1*
X6752195Y497604D1*
X6766554Y511963D1*
X6746458D1*
X6564230Y484096D2*
X6548479D1*
X6557067Y495570D1*
X6552756D1*
X6549905Y496996D1*
X6548479Y498422D1*
X6547020Y502733D1*
Y505585D1*
X6548479Y509896D1*
X6551331Y512781D1*
X6555642Y514207D1*
X6559953D1*
X6564230Y512781D1*
X6565656Y511322D1*
X6567115Y508470D1*
X1424084Y2640621D2*
X1421199Y2639162D1*
X1416888Y2634884D1*
Y2664995D1*
X1177900Y2647902D2*
Y2646476D1*
X1176474Y2643591D1*
X1175048Y2642165D1*
X1172163Y2640739D1*
X1166426D1*
X1163574Y2642165D1*
X1162148Y2643591D1*
X1160689Y2646476D1*
Y2649328D1*
X1162148Y2652213D1*
X1165000Y2656491D1*
X1179359Y2670850D1*
X1159263D1*
X932424Y2636163D2*
X916672D1*
X925261Y2647637D1*
X920950D1*
X918098Y2649063D1*
X916672Y2650489D1*
X915213Y2654800D1*
Y2657652D1*
X916672Y2661963D1*
X919524Y2664848D1*
X923835Y2666274D1*
X928146D1*
X932424Y2664848D1*
X933850Y2663389D1*
X935309Y2660537D1*
X2214084Y2640621D2*
X2211199Y2639162D1*
X2206888Y2634884D1*
Y2664995D1*
X1967900Y2647902D2*
Y2646476D1*
X1966474Y2643591D1*
X1965048Y2642165D1*
X1962163Y2640739D1*
X1956426D1*
X1953574Y2642165D1*
X1952148Y2643591D1*
X1950689Y2646476D1*
Y2649328D1*
X1952148Y2652213D1*
X1955000Y2656491D1*
X1969359Y2670850D1*
X1949263D1*
X1722424Y2636163D2*
X1706672D1*
X1715261Y2647637D1*
X1710950D1*
X1708098Y2649063D1*
X1706672Y2650489D1*
X1705213Y2654800D1*
Y2657652D1*
X1706672Y2661963D1*
X1709524Y2664848D1*
X1713835Y2666274D1*
X1718146D1*
X1722424Y2664848D1*
X1723850Y2663389D1*
X1725309Y2660537D1*
X3004084Y2640621D2*
X3001199Y2639162D1*
X2996888Y2634884D1*
Y2664995D1*
X2757900Y2647902D2*
Y2646476D1*
X2756474Y2643591D1*
X2755048Y2642165D1*
X2752163Y2640739D1*
X2746426D1*
X2743574Y2642165D1*
X2742148Y2643591D1*
X2740689Y2646476D1*
Y2649328D1*
X2742148Y2652213D1*
X2745000Y2656491D1*
X2759359Y2670850D1*
X2739263D1*
X2512424Y2636163D2*
X2496672D1*
X2505261Y2647637D1*
X2500950D1*
X2498098Y2649063D1*
X2496672Y2650489D1*
X2495213Y2654800D1*
Y2657652D1*
X2496672Y2661963D1*
X2499524Y2664848D1*
X2503835Y2666274D1*
X2508146D1*
X2512424Y2664848D1*
X2513850Y2663389D1*
X2515309Y2660537D1*
X3794084Y2640621D2*
X3791199Y2639162D1*
X3786888Y2634884D1*
Y2664995D1*
X3547900Y2647902D2*
Y2646476D1*
X3546474Y2643591D1*
X3545048Y2642165D1*
X3542163Y2640739D1*
X3536426D1*
X3533574Y2642165D1*
X3532148Y2643591D1*
X3530689Y2646476D1*
Y2649328D1*
X3532148Y2652213D1*
X3535000Y2656491D1*
X3549359Y2670850D1*
X3529263D1*
X3302424Y2636163D2*
X3286672D1*
X3295261Y2647637D1*
X3290950D1*
X3288098Y2649063D1*
X3286672Y2650489D1*
X3285213Y2654800D1*
Y2657652D1*
X3286672Y2661963D1*
X3289524Y2664848D1*
X3293835Y2666274D1*
X3298146D1*
X3302424Y2664848D1*
X3303850Y2663389D1*
X3305309Y2660537D1*
X4584084Y2640621D2*
X4581199Y2639162D1*
X4576888Y2634884D1*
Y2664995D1*
X4337900Y2647902D2*
Y2646476D1*
X4336474Y2643591D1*
X4335048Y2642165D1*
X4332163Y2640739D1*
X4326426D1*
X4323574Y2642165D1*
X4322148Y2643591D1*
X4320689Y2646476D1*
Y2649328D1*
X4322148Y2652213D1*
X4325000Y2656491D1*
X4339359Y2670850D1*
X4319263D1*
X4092424Y2636163D2*
X4076672D1*
X4085261Y2647637D1*
X4080950D1*
X4078098Y2649063D1*
X4076672Y2650489D1*
X4075213Y2654800D1*
Y2657652D1*
X4076672Y2661963D1*
X4079524Y2664848D1*
X4083835Y2666274D1*
X4088146D1*
X4092424Y2664848D1*
X4093850Y2663389D1*
X4095309Y2660537D1*
X5374084Y2640621D2*
X5371199Y2639162D1*
X5366888Y2634884D1*
Y2664995D1*
X5127900Y2647902D2*
Y2646476D1*
X5126474Y2643591D1*
X5125048Y2642165D1*
X5122163Y2640739D1*
X5116426D1*
X5113574Y2642165D1*
X5112148Y2643591D1*
X5110689Y2646476D1*
Y2649328D1*
X5112148Y2652213D1*
X5115000Y2656491D1*
X5129359Y2670850D1*
X5109263D1*
X4882424Y2636163D2*
X4866672D1*
X4875261Y2647637D1*
X4870950D1*
X4868098Y2649063D1*
X4866672Y2650489D1*
X4865213Y2654800D1*
Y2657652D1*
X4866672Y2661963D1*
X4869524Y2664848D1*
X4873835Y2666274D1*
X4878146D1*
X4882424Y2664848D1*
X4883850Y2663389D1*
X4885309Y2660537D1*
X6164084Y2640621D2*
X6161199Y2639162D1*
X6156888Y2634884D1*
Y2664995D1*
X5917900Y2647902D2*
Y2646476D1*
X5916474Y2643591D1*
X5915048Y2642165D1*
X5912163Y2640739D1*
X5906426D1*
X5903574Y2642165D1*
X5902148Y2643591D1*
X5900689Y2646476D1*
Y2649328D1*
X5902148Y2652213D1*
X5905000Y2656491D1*
X5919359Y2670850D1*
X5899263D1*
X5672424Y2636163D2*
X5656672D1*
X5665261Y2647637D1*
X5660950D1*
X5658098Y2649063D1*
X5656672Y2650489D1*
X5655213Y2654800D1*
Y2657652D1*
X5656672Y2661963D1*
X5659524Y2664848D1*
X5663835Y2666274D1*
X5668146D1*
X5672424Y2664848D1*
X5673850Y2663389D1*
X5675309Y2660537D1*
X6954084Y2640621D2*
X6951199Y2639162D1*
X6946888Y2634884D1*
Y2664995D1*
X6707900Y2647902D2*
Y2646476D1*
X6706474Y2643591D1*
X6705048Y2642165D1*
X6702163Y2640739D1*
X6696426D1*
X6693574Y2642165D1*
X6692148Y2643591D1*
X6690689Y2646476D1*
Y2649328D1*
X6692148Y2652213D1*
X6695000Y2656491D1*
X6709359Y2670850D1*
X6689263D1*
X6462424Y2636163D2*
X6446672D1*
X6455261Y2647637D1*
X6450950D1*
X6448098Y2649063D1*
X6446672Y2650489D1*
X6445213Y2654800D1*
Y2657652D1*
X6446672Y2661963D1*
X6449524Y2664848D1*
X6453835Y2666274D1*
X6458146D1*
X6462424Y2664848D1*
X6463850Y2663389D1*
X6465309Y2660537D1*
X4166191Y901159D2*
D123*
X4200591D1*
X4212087Y905050D1*
X4215978Y908853D1*
X4219781Y916458D1*
Y924151D1*
X4215978Y931757D1*
X4212087Y935648D1*
X4200591Y939450D1*
X4166191D1*
Y859066D1*
X4192986Y901159D2*
X4219781Y859066D1*
X4282774Y939450D2*
Y878256D1*
X4278972Y866760D1*
X4275081Y862957D1*
X4267476Y859066D1*
X4259782D1*
X4252177Y862957D1*
X4248375Y866760D1*
X4244484Y878256D1*
Y885861D1*
X4307477Y924063D2*
X4315171Y927954D1*
X4326667Y939362D1*
Y859066D1*
X4351369Y924063D2*
X4359063Y927954D1*
X4370559Y939362D1*
Y859066D1*
X4941190Y901159D2*
X4975590D1*
X4987086Y905050D1*
X4990977Y908853D1*
X4994779Y916458D1*
Y924151D1*
X4990977Y931757D1*
X4987086Y935648D1*
X4975590Y939450D1*
X4941190D1*
Y859066D1*
X4967985Y901159D2*
X4994779Y859066D1*
X5057773Y939450D2*
Y878256D1*
X5053970Y866760D1*
X5050079Y862957D1*
X5042474Y859066D1*
X5034781D1*
X5027176Y862957D1*
X5023373Y866760D1*
X5019482Y878256D1*
Y885861D1*
X5082476Y924063D2*
X5090169Y927954D1*
X5101665Y939362D1*
Y859066D1*
X5126368Y924063D2*
X5134062Y927954D1*
X5145558Y939362D1*
Y859066D1*
X515640Y1419726D2*
D119*
X531392D1*
X522803Y1408252D1*
X527114D1*
X529966Y1406826D1*
X531392Y1405400D1*
X532851Y1401089D1*
Y1398237D1*
X531392Y1393926D1*
X528540Y1391041D1*
X524229Y1389615D1*
X519918D1*
X515640Y1391041D1*
X514214Y1392500D1*
X512755Y1395352D1*
X601895Y1412563D2*
Y1413989D1*
X603321Y1416874D1*
X604747Y1418300D1*
X607632Y1419726D1*
X613369D1*
X616221Y1418300D1*
X617647Y1416874D1*
X619106Y1413989D1*
Y1411137D1*
X617647Y1408252D1*
X614795Y1403974D1*
X600436Y1389615D1*
X620532D1*
X688116Y1413989D2*
X691001Y1415448D1*
X695313Y1419726D1*
Y1389615D1*
M02*
