M48
INCH
T01C0.0157
T02C0.0315
T03C0.0354
T04C0.0571
T05C0.061
T06C0.1594
%
T01
X+005682Y+039112
X+005201Y+039117
X+015039Y+034413
X+018144Y+035084
X+018244Y+029417
X+019193Y+027390
X+018069Y+025704
X+015136Y+026181
X+014769Y+030344
X+022068Y+027092
X+021513Y+019949
X+019004Y+019949
X+019352Y+017970
X+018621Y+015806
X+018483Y+011133
X+015878Y+021367
T02
X+012552Y+033434
X+012052Y+032934
X+011552Y+033434
X+012075Y+029828
X+011575Y+029328
X+012075Y+028828
X+012120Y+025505
X+011620Y+025005
X+012120Y+024505
X+011925Y+021256
X+011425Y+020756
X+011925Y+020256
T03
X+004923Y+037660
X+005923Y+037660
X+005923Y+036660
X+004923Y+036660
X+004923Y+035660
X+004923Y+034660
X+005923Y+034660
X+005923Y+035660
X+005923Y+033660
X+004923Y+033660
X+004923Y+032660
X+005923Y+032660
X+005923Y+031660
X+004923Y+031660
X+004923Y+030660
X+005923Y+030660
X+005923Y+029660
X+004923Y+029660
X+004923Y+028660
X+004923Y+027660
X+005923Y+027660
X+005923Y+028660
X+005923Y+026660
X+004923Y+026660
X+004923Y+025660
X+005923Y+025660
X+008719Y+026526
X+009719Y+026526
X+009713Y+027773
X+008713Y+027773
X+008713Y+030773
X+009713Y+030773
X+009672Y+032016
X+008672Y+032016
X+008672Y+035016
X+009672Y+035016
X+010079Y+038572
X+011079Y+038572
X+009079Y+038572
X+008079Y+038572
X+008719Y+023526
X+009719Y+023526
X+009744Y+022260
X+008744Y+022260
X+008744Y+019260
X+009744Y+019260
T04
X+020400Y+032021
X+021200Y+029671
X+021283Y+025704
X+020483Y+023354
X+021283Y+021004
X+021280Y+017035
X+020480Y+014685
X+021280Y+012335
X+026080Y+012335
X+026080Y+017035
X+026083Y+021004
X+026083Y+025704
X+026000Y+029671
X+026000Y+034371
X+021200Y+034371
X+015679Y+016783
X+016479Y+014433
X+015679Y+012083
X+010879Y+012083
X+010879Y+016783
T05
X+029982Y+033944
X+029982Y+031975
X+029982Y+030007
X+030055Y+025304
X+030055Y+023336
X+030055Y+021367
X+030064Y+016665
X+030064Y+014697
X+030064Y+012728
X+006888Y+012443
X+006888Y+014411
X+006888Y+016380
T06
X+031419Y+041417
X+005457Y+041417
X+005455Y+005456
X+031419Y+005456
T00
M30
