G04 DipTrace 3.0.0.1*
G04 Top.gbr*
%MOIN*%
G04 #@! TF.FileFunction,Copper,L1,Top*
G04 #@! TF.Part,Single*
%AMOUTLINE0*5,1,4,0,0,0.070866,-90.0*%
%AMOUTLINE3*5,1,4,0,0,0.070866,-180.0*%
G04 #@! TA.AperFunction,Conductor*
%ADD10C,0.01*%
%ADD14C,0.007*%
%ADD15C,0.02*%
%ADD16C,0.08*%
%ADD17C,0.04*%
%ADD18C,0.035*%
%ADD19C,0.03*%
G04 #@! TA.AperFunction,ViaPad*
%ADD20C,0.031496*%
G04 #@! TA.AperFunction,Conductor*
%ADD22C,0.015*%
%ADD23C,0.1*%
%ADD24C,0.015748*%
%ADD26C,0.008*%
G04 #@! TA.AperFunction,CopperBalancing*
%ADD27C,0.025*%
G04 #@! TA.AperFunction,ComponentPad*
%ADD30O,0.11811X0.090551*%
%ADD31O,0.141732X0.086614*%
%ADD32R,0.051181X0.059055*%
G04 #@! TA.AperFunction,ComponentPad*
%ADD33R,0.059055X0.059055*%
%ADD34C,0.059055*%
%ADD35C,0.059055*%
%ADD36C,0.055118*%
%ADD37R,0.059055X0.051181*%
%ADD39R,0.055118X0.03937*%
%ADD41R,0.03937X0.055118*%
G04 #@! TA.AperFunction,ComponentPad*
%ADD72OUTLINE0*%
%ADD75OUTLINE3*%
%FSLAX26Y26*%
G04*
G70*
G90*
G75*
G01*
G04 Top*
%LPD*%
X492257Y2866011D2*
D14*
Y2867979D1*
X542126Y2917848D1*
X757874D1*
X798819Y2958793D1*
Y3226509D1*
X868373Y3296063D1*
Y3500394D1*
X867192Y3501575D1*
X492257Y2766011D2*
X495932D1*
X544882Y2814961D1*
X798950D1*
X872572Y2888583D1*
Y3075984D1*
X871260Y3077297D1*
X492257Y2666011D2*
X492651D1*
X543439Y2615223D1*
X645407D1*
X683465Y2653281D1*
X871260D1*
X871916Y2652625D1*
X492257Y2566011D2*
D15*
Y2486352D1*
X749607Y2229003D1*
X871391D1*
X874410Y2225984D1*
X2030709Y3644226D2*
Y3526418D1*
X2120026Y3437100D1*
X2262599Y3638714D2*
X2232415D1*
X2229003Y3642126D1*
X2028609D1*
X2030709Y3644226D1*
X2120026Y3437100D2*
X1885735D1*
X1814436Y3508399D1*
X1503937Y3441339D2*
X1353150D1*
X1255250Y3343439D1*
X520079Y3911680D2*
D16*
Y3913911D1*
X569160D1*
X613649D1*
X658399D1*
X725722Y3981234D1*
X807874D1*
X1399213D1*
X1715355Y3665092D1*
D17*
Y3681628D1*
X1799738D1*
X568242Y3911155D2*
D16*
X569160Y3913911D1*
X1806168Y2824803D2*
D17*
X1715355D1*
Y2941732D1*
Y3665092D1*
X1854593Y1903675D2*
X1761680D1*
X1715355Y1950000D1*
Y2824803D1*
X1855250Y1735958D2*
Y1788583D1*
X1854593Y1789239D1*
Y1903675D1*
X1566798Y1867586D2*
D18*
Y1679410D1*
X1567900Y1678307D1*
X2002494Y1899738D2*
D19*
X1858530D1*
X1854593Y1903675D1*
X1799738Y3681628D2*
D15*
X1944095D1*
X1806168Y2824803D2*
X1939633D1*
X2011024Y2753412D1*
X2120026Y2967100D2*
X2022087D1*
X1982152Y2927166D1*
Y2782284D1*
X2011024Y2753412D1*
X2128294Y2100433D2*
Y2046011D1*
X2101753Y2019470D1*
X2071176D1*
X2001837Y1950131D1*
Y1900394D1*
X2002494Y1899738D1*
X2128032Y1233504D2*
X1892349D1*
D10*
X1866667Y1259187D1*
Y1524147D1*
X1941995Y1599475D1*
Y1707087D1*
X1925197Y1723885D1*
X1867323D1*
X1855250Y1735958D1*
X1566798Y1867586D2*
D15*
X1318504D1*
X1268635Y1917454D1*
X982940D1*
X974410Y1925984D1*
X613649Y3913911D2*
Y3910893D1*
X568504D1*
X568242Y3911155D1*
X967192Y3201575D2*
D19*
X1088845D1*
X1140289Y3150131D1*
X1361155D1*
X1476903Y3034383D1*
X1824410Y2941732D2*
X1715355D1*
X807874Y3857218D2*
D17*
Y3981234D1*
X492257Y3666011D2*
X477297D1*
X433990Y3709318D1*
Y3825591D1*
X494801Y3886402D1*
D20*
X520079Y3911680D1*
X1241076Y3631496D2*
D15*
Y3556824D1*
X1185827Y3501575D1*
X967192D1*
X2260893Y2767323D2*
Y2776247D1*
X2157874D1*
X2097638Y2716011D1*
Y2664436D1*
X2124278Y2637795D1*
Y2574449D1*
X2128294Y2570433D1*
X1806864D1*
X1513649Y2618110D2*
X1472179D1*
X1207481Y2882809D1*
X867192Y3201575D2*
Y3222179D1*
X917454Y3272441D1*
X1093176D1*
X1121391Y3244226D1*
X1156037D1*
X1205250Y3293439D1*
X1166273Y3631496D2*
D17*
Y3708005D1*
X1245210Y3786942D1*
X1360433D1*
X1389895Y3757481D1*
Y3637927D1*
X1385433Y3633465D1*
D19*
X1487139D1*
X1612205Y3508399D1*
Y3187008D1*
X1612730Y3186483D1*
Y2392782D1*
X1613386Y2392126D1*
X592257Y3666011D2*
D17*
X1131759D1*
X1166273Y3631496D1*
X2089108Y1862336D2*
D15*
X2080446D1*
X2125853Y1816929D1*
Y1705683D1*
X2128032Y1703504D1*
X2256299Y1886221D2*
X2254987D1*
X2232415Y1863649D1*
X2090420D1*
X2089108Y1862336D1*
X2128032Y1703504D2*
Y1705774D1*
X2026378D1*
X1935171Y1796982D1*
X1587795Y2136746D2*
X1525722D1*
X1212008Y2450460D1*
X1565223Y989895D2*
Y1205630D1*
X1567900Y1208307D1*
X1774318D1*
D10*
X1838320Y1272310D1*
Y1538714D1*
X1780446Y1596588D1*
D15*
Y1782021D1*
X1661286Y1901181D1*
Y1937795D1*
X1636483Y1962599D1*
X1612599D1*
X1604200Y1954200D1*
X1192520Y2025591D2*
X1583727D1*
X1603544Y2005774D1*
Y1954856D1*
X1604200Y1954200D1*
X2335696Y2767323D2*
D22*
Y2724672D1*
X2320210Y2709187D1*
X2206824D1*
X1919292Y2738977D2*
X1817192D1*
X1806168Y2750000D1*
X1385433Y3558662D2*
D10*
X1482546D1*
X1557218Y3483990D1*
Y3298688D1*
X1533202Y3274672D1*
X1499475D1*
X1473753Y3248950D1*
Y3116011D1*
X1530578Y3059187D1*
Y2994620D1*
X1511024Y2975066D1*
X1455118D1*
X1352887Y3077297D1*
X971260D1*
X3005525Y2333583D2*
D23*
X2050145D1*
D24*
X2048294Y2335433D1*
X1799738Y3756431D2*
D15*
X1845013D1*
X1901706Y3813124D1*
X2299607D1*
X2340289Y3772441D1*
Y3635827D1*
X2337402Y3638714D1*
X2998163Y3197520D2*
D23*
X2044607D1*
D24*
X2040026Y3202100D1*
X2608294Y2570433D2*
Y2573360D1*
D23*
X2962599D1*
X3005525Y2530433D1*
X2608294Y2100433D2*
D24*
Y2115092D1*
D23*
X2983885D1*
X3005525Y2136732D1*
X2600026Y3437100D2*
X2998163D1*
Y3394370D1*
X871260Y2777297D2*
D15*
Y2794620D1*
X1010368Y2933727D1*
X1156562D1*
X1157481Y2932809D1*
X2331103Y1886221D2*
D22*
Y1984515D1*
X2320735Y1994882D1*
X2151313D1*
X1900394D2*
X1875990D1*
X1857089Y1975982D1*
X1854593Y1978478D1*
X1537927Y3186483D2*
D10*
Y3107481D1*
X1562336Y3083071D1*
Y2607349D1*
X1529265Y2574278D1*
X1329397D1*
X1255118Y2648557D1*
X975984D1*
X971916Y2652625D1*
X2600026Y2967100D2*
D24*
Y2974147D1*
D23*
X2998163D1*
Y3000670D1*
X3006431Y1469698D2*
X2049226D1*
D24*
X2048032Y1468504D1*
X2608032Y1703504D2*
Y1727034D1*
D23*
X2945945D1*
X3006431Y1666549D1*
X2608032Y1233504D2*
D24*
Y1221260D1*
D23*
X2954843D1*
X3006431Y1272848D1*
X871916Y2352625D2*
D15*
Y2425328D1*
X947047Y2500460D1*
X1162008D1*
X1640026Y989895D2*
D26*
X1724935D1*
X1848294Y1113255D1*
X1862074Y1580578D2*
Y1654331D1*
X1855250Y1661155D1*
X1538583Y2392126D2*
D10*
Y2276903D1*
X1645538Y2169948D1*
Y2079003D1*
X1629134Y2062599D1*
X1436746D1*
X1283334Y2216011D1*
X984383D1*
X974410Y2225984D1*
X688832Y1441103D2*
D23*
X1645696D1*
D24*
X1647900Y1443307D1*
X1087900Y1208307D2*
Y1195801D1*
D23*
X737284D1*
X688832Y1244252D1*
X1087900Y1678307D2*
D24*
Y1697244D1*
D23*
X748124D1*
X688832Y1637953D1*
X874410Y1925984D2*
D15*
Y2029528D1*
X920473Y2075591D1*
X1142520D1*
D20*
X1814436Y3508399D3*
X1503937Y3441339D3*
X1476903Y3034383D3*
X1824410Y2941732D3*
X1806864Y2570433D3*
X1513649Y2618110D3*
X1935171Y1796982D3*
X1587795Y2136746D3*
X2206824Y2709187D3*
X1919292Y2738977D3*
X2151313Y1994882D3*
X1900394D3*
X1848294Y1113255D3*
X1862074Y1580578D3*
X568242Y3911155D3*
X520079Y3911680D3*
X424725Y4240332D2*
D27*
X457323D1*
X634003D2*
X3053514D1*
X3230243D2*
X3262694D1*
X424725Y4215463D2*
X435189D1*
X656122D2*
X3031395D1*
X3252362D2*
X3262676D1*
X669403Y4190595D2*
X3018114D1*
X676679Y4165726D2*
X3010839D1*
X678876Y4140857D2*
X3008641D1*
X676337Y4115988D2*
X3011180D1*
X668720Y4091120D2*
X3018798D1*
X424725Y4066251D2*
X436360D1*
X654901D2*
X3032616D1*
X3251093D2*
X3262738D1*
X424725Y4041382D2*
X459374D1*
X631952D2*
X684569D1*
X1440350D2*
X3055565D1*
X3228143D2*
X3262694D1*
X424725Y4016513D2*
X505565D1*
X585761D2*
X657372D1*
X1467548D2*
X3101805D1*
X3181903D2*
X3262694D1*
X424725Y3991645D2*
X632518D1*
X1492401D2*
X3262694D1*
X424725Y3966776D2*
X469432D1*
X1517304D2*
X3262694D1*
X424725Y3941907D2*
X451805D1*
X1542157D2*
X3262694D1*
X424725Y3917038D2*
X446141D1*
X1567011D2*
X3262694D1*
X1160419Y3892170D2*
X1384667D1*
X1591913D2*
X3262694D1*
X715399Y3867301D2*
X744335D1*
X1170575D2*
X1409520D1*
X1616766D2*
X3262694D1*
X662616Y3842432D2*
X744335D1*
X1169598D2*
X1434374D1*
X1641620D2*
X1869823D1*
X2331464D2*
X3262694D1*
X627411Y3817563D2*
X744335D1*
X1156757D2*
X1200487D1*
X1405145D2*
X1459276D1*
X1666522D2*
X1844970D1*
X2356366D2*
X3262694D1*
X649628Y3792694D2*
X1175634D1*
X1429999D2*
X1484130D1*
X1691376D2*
X1736229D1*
X2379022D2*
X3262694D1*
X655780Y3767826D2*
X1150780D1*
X1442841D2*
X1508983D1*
X1716229D2*
X1736229D1*
X1917597D2*
X1969139D1*
X2092255D2*
X2283690D1*
X2384296D2*
X3262694D1*
X651239Y3742957D2*
X1125927D1*
X1443915D2*
X1533886D1*
X632538Y3718088D2*
X1113280D1*
X1251679D2*
X1335888D1*
X1443915D2*
X1558739D1*
X1226825Y3693219D2*
X1335888D1*
X1443915D2*
X1583593D1*
X1300653Y3668351D2*
X1321923D1*
X1520380D2*
X1608495D1*
X1300653Y3643482D2*
X1321923D1*
X1545380D2*
X1633348D1*
X424725Y3618613D2*
X451317D1*
X1300653D2*
X1321923D1*
X1570233D2*
X1658202D1*
X424725Y3593744D2*
X435384D1*
X649139D2*
X1106688D1*
X1300653D2*
X1321923D1*
X1595136D2*
X1661376D1*
X655731Y3568876D2*
X1191942D1*
X1285077D2*
X1321923D1*
X1619989D2*
X1661376D1*
X424725Y3544007D2*
X432847D1*
X651679D2*
X820848D1*
X1030731D2*
X1167089D1*
X1283026D2*
X1321923D1*
X1644843D2*
X1661376D1*
X424725Y3519138D2*
X450682D1*
X633856D2*
X806249D1*
X1264569D2*
X1321923D1*
X1448944D2*
X1467968D1*
X424725Y3494269D2*
X435677D1*
X648847D2*
X804100D1*
X1239716D2*
X1492821D1*
X655682Y3469400D2*
X812841D1*
X1214520D2*
X1320018D1*
X424725Y3444532D2*
X432652D1*
X651874D2*
X830858D1*
X1030731D2*
X1295165D1*
X424725Y3419663D2*
X450048D1*
X634442D2*
X830858D1*
X905878D2*
X1270263D1*
X424725Y3394794D2*
X435969D1*
X648554D2*
X830858D1*
X905878D2*
X1124120D1*
X1186395D2*
X1223583D1*
X1367792D2*
X1493309D1*
X655682Y3369925D2*
X830858D1*
X905878D2*
X1099266D1*
X1342938D2*
X1518212D1*
X424725Y3345057D2*
X432457D1*
X652069D2*
X830858D1*
X905878D2*
X1085839D1*
X1318036D2*
X1518212D1*
X424725Y3320188D2*
X449462D1*
X635077D2*
X830858D1*
X905878D2*
X1096044D1*
X1312030D2*
X1518212D1*
X424725Y3295319D2*
X436262D1*
X648309D2*
X815624D1*
X1292011D2*
X1466014D1*
X655634Y3270450D2*
X790770D1*
X1262128D2*
X1441747D1*
X424725Y3245582D2*
X432262D1*
X652264D2*
X766991D1*
X1242352D2*
X1434764D1*
X424725Y3220713D2*
X448876D1*
X635663D2*
X761327D1*
X1193720D2*
X1434764D1*
X424725Y3195844D2*
X436555D1*
X648016D2*
X761327D1*
X1372186D2*
X1434764D1*
X655585Y3170975D2*
X761327D1*
X1408563D2*
X1434764D1*
X652460Y3146107D2*
X761327D1*
X895136D2*
X939257D1*
X995136D2*
X1076073D1*
X424725Y3121238D2*
X448290D1*
X636249D2*
X761327D1*
X1034784D2*
X1100927D1*
X424725Y3096369D2*
X436847D1*
X647675D2*
X761327D1*
X655536Y3071500D2*
X761327D1*
X652606Y3046631D2*
X761327D1*
X424725Y3021763D2*
X447704D1*
X636786D2*
X761327D1*
X1034784D2*
X1163964D1*
X1250995D2*
X1354296D1*
X424725Y2996894D2*
X437140D1*
X647382D2*
X761327D1*
X910077D2*
X1141356D1*
X1273602D2*
X1379149D1*
X655487Y2972025D2*
X760057D1*
X910077D2*
X991893D1*
X1275018D2*
X1404052D1*
X910077Y2947156D2*
X962597D1*
X1254315D2*
X1429100D1*
X424725Y2922288D2*
X447167D1*
X814325D2*
X835057D1*
X910077D2*
X937743D1*
X1253925D2*
X1523339D1*
X1869989D2*
X1938134D1*
X2209979D2*
X2258055D1*
X424725Y2897419D2*
X437433D1*
X789423D2*
X829393D1*
X1267206D2*
X1523339D1*
X1843280D2*
X1938134D1*
X2026141D2*
X2062743D1*
X2177313D2*
X2257909D1*
X655438Y2872550D2*
X804540D1*
X1010370D2*
X1146825D1*
X1278925D2*
X1523339D1*
X1869696D2*
X1938134D1*
X2026141D2*
X2257763D1*
X985516Y2847681D2*
X1157518D1*
X1303778D2*
X1523339D1*
X2026141D2*
X2257616D1*
X424725Y2822813D2*
X446630D1*
X1014423D2*
X1206298D1*
X1328680D2*
X1523339D1*
X2026141D2*
X2036096D1*
X2159198D2*
X2201317D1*
X424725Y2797944D2*
X437725D1*
X1031171D2*
X1231151D1*
X1353534D2*
X1523339D1*
X655389Y2773075D2*
X807860D1*
X1034638D2*
X1256005D1*
X1378388D2*
X1523339D1*
X653143Y2748206D2*
X815136D1*
X1027411D2*
X1280907D1*
X1403290D2*
X1523339D1*
X424725Y2723337D2*
X446141D1*
X638397D2*
X840233D1*
X902264D2*
X940233D1*
X1002264D2*
X1305761D1*
X1428143D2*
X1523339D1*
X424725Y2698469D2*
X438116D1*
X646454D2*
X829149D1*
X1035468D2*
X1330614D1*
X1452997D2*
X1523339D1*
X1869696D2*
X1892479D1*
X1946112D2*
X2036083D1*
X1284198Y2673600D2*
X1355516D1*
X1477899D2*
X1523339D1*
X1769354D2*
X2036083D1*
X2159198D2*
X2173241D1*
X1309052Y2648731D2*
X1380370D1*
X1769354D2*
X2056737D1*
X2166815D2*
X2256444D1*
X424725Y2623862D2*
X445604D1*
X1333954D2*
X1405223D1*
X1769354D2*
X1791991D1*
X424725Y2598994D2*
X438408D1*
X681171D2*
X840282D1*
X1035468D2*
X1178075D1*
X655243Y2574125D2*
X1153173D1*
X653436Y2549256D2*
X1126220D1*
X1281415D2*
X1300292D1*
X424725Y2524387D2*
X445116D1*
X639374D2*
X909764D1*
X1268427D2*
X1563720D1*
X424725Y2499519D2*
X448241D1*
X540302D2*
X884911D1*
X1247382D2*
X1563720D1*
X424725Y2474650D2*
X449950D1*
X565155D2*
X860057D1*
X1268378D2*
X1563720D1*
X424725Y2449781D2*
X467626D1*
X590009D2*
X835888D1*
X957538D2*
X1129198D1*
X1273895D2*
X1479003D1*
X424725Y2424912D2*
X492528D1*
X614911D2*
X827929D1*
X932684D2*
X1156249D1*
X1298749D2*
X1479003D1*
X424725Y2400044D2*
X517382D1*
X639764D2*
X827929D1*
X915936D2*
X930997D1*
X1012811D2*
X1178759D1*
X1323602D2*
X1479003D1*
X424725Y2375175D2*
X542235D1*
X664618D2*
X812694D1*
X1031122D2*
X1226122D1*
X1348505D2*
X1479003D1*
X424725Y2350306D2*
X567138D1*
X689472D2*
X808446D1*
X1035419D2*
X1250975D1*
X1373358D2*
X1479003D1*
X424725Y2325437D2*
X591991D1*
X714374D2*
X814794D1*
X1029071D2*
X1275829D1*
X1398212D2*
X1499559D1*
X1577606D2*
X1661376D1*
X424725Y2300568D2*
X616845D1*
X739227D2*
X837548D1*
X906268D2*
X937548D1*
X1006268D2*
X1300731D1*
X1423065D2*
X1499559D1*
X1577606D2*
X1661376D1*
X424725Y2275700D2*
X641698D1*
X764081D2*
X836522D1*
X1037958D2*
X1325585D1*
X1447968D2*
X1499608D1*
X1593915D2*
X1661376D1*
X424725Y2250831D2*
X666600D1*
X1296796D2*
X1350438D1*
X1472821D2*
X1510546D1*
X1618768D2*
X1661376D1*
X424725Y2225962D2*
X691454D1*
X1327509D2*
X1375292D1*
X1497675D2*
X1535399D1*
X1643622D2*
X1661376D1*
X424725Y2201093D2*
X716307D1*
X1352362D2*
X1400194D1*
X1522577D2*
X1560253D1*
X424725Y2176225D2*
X836571D1*
X1037958D2*
X1160692D1*
X1224384D2*
X1268993D1*
X1377216D2*
X1425048D1*
X424725Y2151356D2*
X1135790D1*
X1249237D2*
X1293847D1*
X1402118D2*
X1449901D1*
X424725Y2126487D2*
X1110057D1*
X1261932D2*
X1318749D1*
X1426972D2*
X1474804D1*
X424725Y2101618D2*
X885302D1*
X1251044D2*
X1343602D1*
X1451825D2*
X1501122D1*
X424725Y2076750D2*
X860448D1*
X1226141D2*
X1368456D1*
X424725Y2051881D2*
X836962D1*
X424725Y2027012D2*
X830419D1*
X933075D2*
X1106444D1*
X1641718D2*
X1661376D1*
X1769354D2*
X1791063D1*
X1937518D2*
X2017528D1*
X424725Y2002143D2*
X830419D1*
X918427D2*
X1135839D1*
X1769354D2*
X1791063D1*
X1949579D2*
X1992675D1*
X424725Y1977274D2*
X830419D1*
X918427D2*
X938817D1*
X1009979D2*
X1156054D1*
X1228973D2*
X1475731D1*
X1769354D2*
X1791063D1*
X1946747D2*
X1967968D1*
X424725Y1952406D2*
X816893D1*
X1293524D2*
X1475731D1*
X1923602D2*
X1957909D1*
X2174481D2*
X2256200D1*
X424725Y1927537D2*
X810888D1*
X1319745D2*
X1475731D1*
X2150653D2*
X2196727D1*
X1620477Y1852931D2*
X1648339D1*
X1918134D2*
X1940917D1*
X1620477Y1828062D2*
X1673192D1*
X1973261D2*
X2027538D1*
X1407245Y1803193D2*
X1515282D1*
X1618280D2*
X1698095D1*
X1990155D2*
X2078417D1*
X2169843D2*
X2256200D1*
X1407001Y1778324D2*
X1515282D1*
X1618280D2*
X1722948D1*
X2015009D2*
X2081835D1*
X2169843D2*
X2256200D1*
X1406757Y1753456D2*
X1515282D1*
X1618280D2*
X1736425D1*
X2213788D2*
X2256200D1*
X1406513Y1728587D2*
X1482470D1*
X1653339D2*
X1736425D1*
X1406317Y1703718D2*
X1467479D1*
X1668329D2*
X1736425D1*
X1406073Y1678849D2*
X1463036D1*
X1672772D2*
X1736425D1*
X1407636Y1206343D2*
X1463036D1*
X1826483D2*
X1842932D1*
X1407440Y1181474D2*
X1468016D1*
X1808466D2*
X1842919D1*
X1407294Y1156605D2*
X1483788D1*
X1652020D2*
X1827001D1*
X1407098Y1131736D2*
X1521239D1*
X1609247D2*
X1802294D1*
X1894257D2*
X2258055D1*
X1406903Y1106868D2*
X1521239D1*
X1609247D2*
X1789208D1*
X1897626D2*
X2257811D1*
X1406708Y1081999D2*
X1521239D1*
X1609247D2*
X1764354D1*
X1886249D2*
X2257567D1*
X1406561Y1057130D2*
X1521239D1*
X1609247D2*
X1739452D1*
X1844891D2*
X2257372D1*
X1406366Y1032261D2*
X1505614D1*
X1699628D2*
X1714598D1*
X1819989D2*
X2257128D1*
X1406171Y1007393D2*
X1505614D1*
X1795136D2*
X2256884D1*
X1405975Y982524D2*
X1505614D1*
X1770282D2*
X2256688D1*
X1405780Y957655D2*
X1505614D1*
X1742304D2*
X2256444D1*
X1405585Y932786D2*
X1505614D1*
X1699628D2*
X2256200D1*
X424725Y907918D2*
X720507D1*
X1380048D2*
X2274218D1*
X424725Y883049D2*
X3262694D1*
X424725Y858180D2*
X3262694D1*
X424725Y833311D2*
X3262694D1*
X424725Y808442D2*
X3262694D1*
X424725Y783574D2*
X3262694D1*
X424725Y758705D2*
X3262694D1*
X424725Y733836D2*
X3262694D1*
X424725Y708967D2*
X3262694D1*
X424725Y684099D2*
X3262694D1*
X424725Y659230D2*
X478417D1*
X612665D2*
X3074755D1*
X3208954D2*
X3262694D1*
X424725Y634361D2*
X447069D1*
X644013D2*
X3043407D1*
X3240302D2*
X3262694D1*
X662079Y609492D2*
X3025292D1*
X672821Y584624D2*
X3014598D1*
X677997Y559755D2*
X3009374D1*
X678339Y534886D2*
X3009032D1*
X673847Y510017D2*
X3013524D1*
X663983Y485149D2*
X3023388D1*
X424725Y460280D2*
X443969D1*
X647138D2*
X3040233D1*
X3243475D2*
X3262694D1*
X424725Y435411D2*
X472606D1*
X618475D2*
X3068895D1*
X3214813D2*
X3262694D1*
X2092490Y2892294D2*
X2080765Y2893214D1*
X2069351Y2895954D1*
X2058506Y2900446D1*
X2048497Y2906580D1*
X2039571Y2914203D1*
X2034092Y2920409D1*
X2023638Y2909961D1*
X2023653Y2804558D1*
X2038537Y2804597D1*
X2038579Y2841999D1*
X2156697D1*
Y2817731D1*
X2203821Y2817747D1*
X2203802Y2828350D1*
X2260003D1*
X2260656Y2936944D1*
X2216024Y2936899D1*
X2211369Y2928013D1*
X2204469Y2918517D1*
X2196169Y2910216D1*
X2186672Y2903316D1*
X2176213Y2897987D1*
X2165049Y2894360D1*
X2153455Y2892523D1*
X2122586Y2892293D1*
X2092468Y2892341D1*
X2048967Y2624373D2*
X2056765Y2630953D1*
X2066553Y2636964D1*
X2062253Y2642752D1*
X2059297Y2648555D1*
X2057285Y2654748D1*
X2056266Y2661180D1*
X2056138Y2664449D1*
X2038579Y2664826D1*
Y2702179D1*
X1951965Y2702227D1*
Y2704815D1*
X1947063Y2700752D1*
X1940742Y2696878D1*
X1933892Y2694041D1*
X1926683Y2692310D1*
X1919292Y2691729D1*
X1911900Y2692310D1*
X1904691Y2694041D1*
X1897841Y2696878D1*
X1892689Y2699971D1*
X1867192Y2699977D1*
X1867196Y2692909D1*
X1766854D1*
X1766855Y2595555D1*
X1770936Y2601118D1*
X1776179Y2606361D1*
X1778352Y2608075D1*
X1780056Y2612648D1*
X1782864Y2616851D1*
X1786575Y2620281D1*
X1790985Y2622751D1*
X1795849Y2624123D1*
X1811713Y2624387D1*
X2048871D1*
X2165209Y2644597D2*
X2173317Y2643173D1*
X2184481Y2639546D1*
X2194940Y2634217D1*
X2204437Y2627317D1*
X2207621Y2624373D1*
X2258832Y2624387D1*
X2259081Y2670152D1*
X2233540Y2670187D1*
X2224905Y2665535D1*
X2217854Y2663244D1*
X2210531Y2662084D1*
X2203117D1*
X2195795Y2663244D1*
X2188743Y2665535D1*
X2182137Y2668901D1*
X2176139Y2673259D1*
X2170897Y2678501D1*
X2166539Y2684500D1*
X2163173Y2691106D1*
X2160882Y2698157D1*
X2159722Y2705480D1*
Y2712894D1*
X2161019Y2720705D1*
X2156663Y2716346D1*
X2156697Y2664826D1*
X2155835Y2664748D1*
X2159663Y2659479D1*
X2162620Y2653677D1*
X2164634Y2647471D1*
X2041444Y1749367D2*
X2047576Y1756401D1*
X2056502Y1764024D1*
X2066511Y1770158D1*
X2077356Y1774650D1*
X2084337Y1776508D1*
X2084353Y1799774D1*
X2072926Y1811166D1*
X2030049Y1811151D1*
Y1848505D1*
X1943435Y1848553D1*
Y1853191D1*
X1915628Y1853238D1*
X1915621Y1846584D1*
X1906100D1*
X1906093Y1834192D1*
X1913721Y1839080D1*
X1920570Y1841917D1*
X1927780Y1843648D1*
X1935171Y1844230D1*
X1942562Y1843648D1*
X1949771Y1841917D1*
X1956621Y1839080D1*
X1962943Y1835206D1*
X1968580Y1830391D1*
X1973395Y1824754D1*
X1977269Y1818432D1*
X1980441Y1810397D1*
X2041407Y1749436D1*
X2167361Y1777377D2*
X2178707Y1774650D1*
X2189552Y1770158D1*
X2199561Y1764024D1*
X2208487Y1756401D1*
X2216111Y1747475D1*
X2222244Y1737466D1*
X2222715Y1736445D1*
X2258705Y1735969D1*
X2258684Y1825160D1*
X2248009Y1825193D1*
X2242103Y1823295D1*
X2235671Y1822276D1*
X2167034Y1822148D1*
X2167353Y1804429D1*
Y1777427D1*
X1468965Y1656008D2*
X1466455Y1666605D1*
X1465534Y1678307D1*
X1466455Y1690010D1*
X1469196Y1701424D1*
X1473688Y1712269D1*
X1479821Y1722278D1*
X1487445Y1731204D1*
X1496371Y1738828D1*
X1506380Y1744961D1*
X1517777Y1749609D1*
X1517798Y1808560D1*
X1515613Y1808526D1*
Y1826056D1*
X1404933Y1826085D1*
X1403335Y1656242D1*
X1468885Y1656015D1*
X1670036Y1672438D2*
X1668200Y1660844D1*
X1666836Y1656008D1*
X1738905Y1656015D1*
X1738946Y1764801D1*
X1629729Y1874229D1*
X1625902Y1879498D1*
X1622945Y1885300D1*
X1620933Y1891493D1*
X1620296Y1894702D1*
X1617983Y1889144D1*
Y1808526D1*
X1615786D1*
X1615798Y1750252D1*
X1624087Y1747420D1*
X1634546Y1742091D1*
X1644043Y1735191D1*
X1652343Y1726891D1*
X1659243Y1717394D1*
X1664572Y1706935D1*
X1668200Y1695771D1*
X1670036Y1684177D1*
Y1672438D1*
X1523711Y1135402D2*
X1517225Y1137162D1*
X1506380Y1141654D1*
X1496371Y1147787D1*
X1487445Y1155411D1*
X1479821Y1164337D1*
X1473688Y1174346D1*
X1469196Y1185191D1*
X1466455Y1196605D1*
X1465534Y1208307D1*
X1466455Y1220010D1*
X1467552Y1225523D1*
X1405259Y1224650D1*
X1403048Y932275D1*
X1402026Y927326D1*
X1399876Y922752D1*
X1396717Y918806D1*
X1392725Y915706D1*
X1388120Y913624D1*
X1384930Y912876D1*
X1380822Y909861D1*
X1376404Y907406D1*
X1371535Y906050D1*
X1355671Y905838D1*
X422229Y908906D1*
X422201Y588980D1*
X429047Y604920D1*
X434063Y613877D1*
X439766Y622412D1*
X446122Y630474D1*
X453090Y638013D1*
X460628Y644981D1*
X468690Y651337D1*
X477226Y657040D1*
X486183Y662056D1*
X495506Y666354D1*
X505137Y669907D1*
X515017Y672694D1*
X525086Y674696D1*
X535280Y675903D1*
X545538Y676306D1*
X555796Y675903D1*
X565991Y674696D1*
X576059Y672694D1*
X585940Y669907D1*
X595571Y666354D1*
X604894Y662056D1*
X613851Y657040D1*
X622386Y651337D1*
X630448Y644981D1*
X637986Y638013D1*
X644955Y630474D1*
X651310Y622412D1*
X657014Y613877D1*
X662030Y604920D1*
X666328Y595597D1*
X669881Y585966D1*
X672667Y576086D1*
X674670Y566017D1*
X675877Y555822D1*
X676280Y545565D1*
X675877Y535307D1*
X674670Y525112D1*
X672667Y515044D1*
X669881Y505163D1*
X666328Y495532D1*
X662030Y486209D1*
X657014Y477252D1*
X651310Y468717D1*
X644955Y460655D1*
X637986Y453116D1*
X630448Y446148D1*
X622386Y439792D1*
X613851Y434089D1*
X604894Y429073D1*
X595571Y424775D1*
X588611Y422207D1*
X3098519Y422201D1*
X3082495Y429060D1*
X3073538Y434076D1*
X3065003Y439779D1*
X3056941Y446135D1*
X3049402Y453103D1*
X3042434Y460642D1*
X3036079Y468703D1*
X3030375Y477239D1*
X3025359Y486196D1*
X3021061Y495519D1*
X3017508Y505150D1*
X3014722Y515030D1*
X3012719Y525099D1*
X3011512Y535294D1*
X3011109Y545551D1*
X3011512Y555809D1*
X3012719Y566004D1*
X3014722Y576072D1*
X3017508Y585953D1*
X3021061Y595584D1*
X3025359Y604907D1*
X3030375Y613864D1*
X3036079Y622399D1*
X3042434Y630461D1*
X3049402Y638000D1*
X3056941Y644968D1*
X3065003Y651323D1*
X3073538Y657027D1*
X3082495Y662043D1*
X3091818Y666341D1*
X3101449Y669894D1*
X3111330Y672680D1*
X3121398Y674683D1*
X3131593Y675890D1*
X3141851Y676293D1*
X3152108Y675890D1*
X3162303Y674683D1*
X3172372Y672680D1*
X3182252Y669894D1*
X3191883Y666341D1*
X3201206Y662043D1*
X3210163Y657027D1*
X3218699Y651323D1*
X3226760Y644968D1*
X3234299Y638000D1*
X3241267Y630461D1*
X3247623Y622399D1*
X3253326Y613864D1*
X3258342Y604907D1*
X3262640Y595584D1*
X3265208Y588624D1*
X3265201Y904867D1*
X3262103Y907629D1*
X2276821Y907899D1*
X2271956Y909271D1*
X2267547Y911740D1*
X2263835Y915171D1*
X2261027Y919373D1*
X2259278Y924115D1*
X2258685Y929332D1*
X2260588Y1136501D1*
X1886600Y1140867D1*
X1890392Y1134705D1*
X1893230Y1127855D1*
X1894961Y1120646D1*
X1895542Y1113255D1*
X1894961Y1105864D1*
X1893230Y1098654D1*
X1890392Y1091805D1*
X1886519Y1085483D1*
X1881704Y1079845D1*
X1876066Y1075030D1*
X1869744Y1071157D1*
X1862895Y1068319D1*
X1855685Y1066588D1*
X1851379Y1066128D1*
X1747990Y962901D1*
X1743483Y959626D1*
X1738520Y957097D1*
X1733222Y955376D1*
X1727720Y954505D1*
X1697151Y954395D1*
X1697117Y928867D1*
X1508133D1*
Y1050923D1*
X1523709D1*
X1523723Y1135354D1*
X1657624Y1166798D2*
X1652343Y1159724D1*
X1644043Y1151424D1*
X1634546Y1144524D1*
X1624087Y1139195D1*
X1612923Y1135567D1*
X1606729Y1134370D1*
X1606723Y1050894D1*
X1697117Y1050922D1*
Y1025385D1*
X1710192Y1025395D1*
X1801168Y1116333D1*
X1802352Y1124285D1*
X1804643Y1131336D1*
X1808009Y1137942D1*
X1812366Y1143940D1*
X1817609Y1149182D1*
X1823607Y1153540D1*
X1830213Y1156906D1*
X1837264Y1159197D1*
X1845528Y1160394D1*
X1845414Y1227779D1*
X1814101Y1196471D1*
X1811295Y1189467D1*
X1807892Y1183914D1*
X1803663Y1178962D1*
X1798711Y1174733D1*
X1793158Y1171330D1*
X1787142Y1168838D1*
X1780810Y1167318D1*
X1774318Y1166807D1*
X1657667D1*
X2211709Y1947248D2*
X2258731D1*
X2258684Y1955921D1*
X2178011Y1955882D1*
X2172763Y1952784D1*
X2165913Y1949947D1*
X2158704Y1948216D1*
X2151313Y1947634D1*
X2148170Y1947758D1*
X2148167Y1905170D1*
X2199160Y1905149D1*
X2199209Y1947248D1*
X2211709D1*
X918665Y3562602D2*
X1028220D1*
Y3543120D1*
X1168608Y3543075D1*
X1196015Y3570453D1*
X1109183Y3570469D1*
Y3614463D1*
X629269Y3614511D1*
X635410Y3609164D1*
X641630Y3601882D1*
X646633Y3593717D1*
X650298Y3584869D1*
X652534Y3575558D1*
X653285Y3566011D1*
X652534Y3556464D1*
X650298Y3547152D1*
X646633Y3538305D1*
X641630Y3530140D1*
X635410Y3522858D1*
X627210Y3516025D1*
X635410Y3509164D1*
X641630Y3501882D1*
X646633Y3493717D1*
X650298Y3484869D1*
X652534Y3475558D1*
X653285Y3466011D1*
X652534Y3456464D1*
X650298Y3447152D1*
X646633Y3438305D1*
X641630Y3430140D1*
X635410Y3422858D1*
X627210Y3416025D1*
X635410Y3409164D1*
X641630Y3401882D1*
X646633Y3393717D1*
X650298Y3384869D1*
X652534Y3375558D1*
X653285Y3366011D1*
X652534Y3356464D1*
X650298Y3347152D1*
X646633Y3338305D1*
X641630Y3330140D1*
X635410Y3322858D1*
X627210Y3316025D1*
X635410Y3309164D1*
X641630Y3301882D1*
X646633Y3293717D1*
X650298Y3284869D1*
X652534Y3275558D1*
X653285Y3266011D1*
X652534Y3256464D1*
X650298Y3247152D1*
X646633Y3238305D1*
X641630Y3230140D1*
X635410Y3222858D1*
X627210Y3216025D1*
X635410Y3209164D1*
X641630Y3201882D1*
X646633Y3193717D1*
X650298Y3184869D1*
X652534Y3175558D1*
X653285Y3166011D1*
X652534Y3156464D1*
X650298Y3147152D1*
X646633Y3138305D1*
X641630Y3130140D1*
X635410Y3122858D1*
X627210Y3116025D1*
X635410Y3109164D1*
X641630Y3101882D1*
X646633Y3093717D1*
X650298Y3084869D1*
X652534Y3075558D1*
X653285Y3066011D1*
X652534Y3056464D1*
X650298Y3047152D1*
X646633Y3038305D1*
X641630Y3030140D1*
X635410Y3022858D1*
X627210Y3016025D1*
X635410Y3009164D1*
X641630Y3001882D1*
X646633Y2993717D1*
X650298Y2984869D1*
X652534Y2975558D1*
X653285Y2966011D1*
X652534Y2956464D1*
X651814Y2952847D1*
X743347Y2952848D1*
X763820Y2973291D1*
X763927Y3229255D1*
X764786Y3234680D1*
X766483Y3239903D1*
X768977Y3244797D1*
X772205Y3249240D1*
X833353Y3310541D1*
X833373Y3450800D1*
X827558Y3455169D1*
X820786Y3461941D1*
X815157Y3469688D1*
X810810Y3478221D1*
X807850Y3487328D1*
X806352Y3496787D1*
Y3506363D1*
X807850Y3515822D1*
X810810Y3524929D1*
X815157Y3533462D1*
X820786Y3541209D1*
X827558Y3547981D1*
X835305Y3553610D1*
X843838Y3557957D1*
X852945Y3560916D1*
X862404Y3562414D1*
X871980D1*
X881438Y3560916D1*
X890546Y3557957D1*
X899079Y3553610D1*
X906165Y3548502D1*
Y3562602D1*
X918665D1*
X1028220Y3460112D2*
Y3440547D1*
X906165D1*
Y3454658D1*
X903373Y3450394D1*
Y3311478D1*
X910962Y3313430D1*
X917454Y3313941D1*
X1096432Y3313813D1*
X1102864Y3312795D1*
X1106012Y3311906D1*
X1106459Y3312248D1*
X1095864Y3322981D1*
X1091750Y3329138D1*
X1089187Y3336085D1*
X1088316Y3343439D1*
X1089187Y3350792D1*
X1091750Y3357739D1*
X1095864Y3363896D1*
X1134792Y3402824D1*
X1140949Y3406938D1*
X1147896Y3409501D1*
X1155250Y3410372D1*
X1162603Y3409501D1*
X1169550Y3406938D1*
X1175707Y3402824D1*
X1204696Y3373973D1*
X1210341Y3381794D1*
X1216894Y3388347D1*
X1224391Y3393795D1*
X1232649Y3398002D1*
X1241462Y3400866D1*
X1250616Y3402316D1*
X1255593Y3402484D1*
X1326198Y3472896D1*
X1331466Y3476723D1*
X1337268Y3479680D1*
X1343462Y3481692D1*
X1349894Y3482711D1*
X1453150Y3482839D1*
X1481324D1*
X1489337Y3486274D1*
X1496546Y3488005D1*
X1501114Y3488476D1*
X1467431Y3522158D1*
X1446462Y3522162D1*
X1446461Y3501571D1*
X1324406D1*
Y3690555D1*
X1338420D1*
X1338395Y3735436D1*
X1266537Y3735442D1*
X1223656Y3692556D1*
X1298167Y3692524D1*
Y3570469D1*
X1282591D1*
X1282448Y3553568D1*
X1281430Y3547136D1*
X1279417Y3540943D1*
X1276461Y3535141D1*
X1272633Y3529872D1*
X1215172Y3472230D1*
X1210220Y3468001D1*
X1204668Y3464598D1*
X1198651Y3462106D1*
X1192319Y3460586D1*
X1185827Y3460075D1*
X1028259D1*
X917178Y3166622D2*
X913598Y3161941D1*
X906826Y3155169D1*
X899079Y3149540D1*
X890546Y3145193D1*
X881438Y3142234D1*
X871980Y3140736D1*
X862404D1*
X852945Y3142234D1*
X843838Y3145193D1*
X835305Y3149540D1*
X833826Y3150528D1*
X833819Y3125484D1*
X839373Y3129331D1*
X847906Y3133679D1*
X857013Y3136638D1*
X866472Y3138136D1*
X876048D1*
X885507Y3136638D1*
X894614Y3133679D1*
X903147Y3129331D1*
X910233Y3124224D1*
X910232Y3138324D1*
X1032288D1*
Y3113764D1*
X1111250Y3113797D1*
X1098570Y3126090D1*
X1069602Y3155058D1*
X1006668Y3155075D1*
X999079Y3149540D1*
X990546Y3145193D1*
X981438Y3142234D1*
X971980Y3140736D1*
X962404D1*
X952945Y3142234D1*
X943838Y3145193D1*
X935305Y3149540D1*
X927558Y3155169D1*
X920786Y3161941D1*
X917206Y3166622D1*
X1032288Y3040815D2*
Y3016269D1*
X910232D1*
Y3030381D1*
X907572Y3025984D1*
Y2889600D1*
X983416Y2965284D1*
X988684Y2969112D1*
X994486Y2972068D1*
X1000680Y2974081D1*
X1007112Y2975099D1*
X1110368Y2975227D1*
X1116374D1*
X1122766Y2980588D1*
X1130668Y2985431D1*
X1139230Y2988977D1*
X1141270Y2989552D1*
X1142945Y2994863D1*
X1146563Y3001324D1*
X1149781Y3005089D1*
X1185214Y3040522D1*
X1152887Y3040797D1*
X1032331D1*
X837583Y3026458D2*
X833816Y3029164D1*
X833711Y2956047D1*
X832852Y2950622D1*
X831155Y2945399D1*
X828662Y2940505D1*
X825433Y2936062D1*
X782623Y2893099D1*
X778447Y2889532D1*
X773764Y2886663D1*
X768690Y2884561D1*
X763349Y2883279D1*
X757874Y2882848D1*
X650892D1*
X652534Y2875558D1*
X653285Y2866011D1*
X652534Y2856464D1*
X651086Y2849945D1*
X784482Y2849961D1*
X837558Y2903066D1*
X837572Y3026425D1*
X921246Y2742344D2*
X917666Y2737663D1*
X910894Y2730891D1*
X903147Y2725262D1*
X894614Y2720915D1*
X885507Y2717955D1*
X876048Y2716457D1*
X866472D1*
X857013Y2717955D1*
X847906Y2720915D1*
X839373Y2725262D1*
X831626Y2730891D1*
X824854Y2737663D1*
X819226Y2745410D1*
X814878Y2753943D1*
X811919Y2763050D1*
X810421Y2772509D1*
X810413Y2781879D1*
X804426Y2780392D1*
X798950Y2779961D1*
X651636D1*
X653097Y2770799D1*
Y2761223D1*
X651599Y2751764D1*
X648640Y2742656D1*
X644292Y2734124D1*
X638663Y2726376D1*
X631892Y2719605D1*
X627210Y2716025D1*
X635410Y2709164D1*
X641630Y2701882D1*
X646633Y2693717D1*
X650298Y2684869D1*
X652534Y2675558D1*
X652927Y2672230D1*
X660734Y2679895D1*
X665177Y2683124D1*
X670071Y2685617D1*
X675294Y2687314D1*
X680719Y2688173D1*
X822381Y2688281D1*
X828763Y2695778D1*
X836045Y2701997D1*
X844210Y2707001D1*
X853058Y2710666D1*
X862369Y2712901D1*
X871916Y2713652D1*
X881463Y2712901D1*
X890775Y2710666D1*
X899622Y2707001D1*
X907787Y2701997D1*
X910889Y2699552D1*
Y2713652D1*
X1032944D1*
Y2685088D1*
X1257982Y2684944D1*
X1263639Y2684048D1*
X1269086Y2682278D1*
X1274190Y2679678D1*
X1278823Y2676312D1*
X1344491Y2610802D1*
X1420852Y2610779D1*
X1207879Y2823720D1*
X1198242Y2824477D1*
X1189230Y2826640D1*
X1180668Y2830187D1*
X1172766Y2835029D1*
X1165719Y2841048D1*
X1159701Y2848095D1*
X1154859Y2855996D1*
X1151312Y2864558D1*
X1149057Y2874343D1*
X1139230Y2876640D1*
X1130668Y2880187D1*
X1122766Y2885029D1*
X1115719Y2891048D1*
X1114625Y2892231D1*
X1027509Y2892227D1*
X973594Y2838264D1*
X980807Y2837573D1*
X990119Y2835337D1*
X998966Y2831673D1*
X1007131Y2826669D1*
X1014413Y2820450D1*
X1020632Y2813168D1*
X1025636Y2805003D1*
X1029301Y2796155D1*
X1031536Y2786844D1*
X1032288Y2777297D1*
X1031536Y2767750D1*
X1029301Y2758438D1*
X1025636Y2749591D1*
X1020632Y2741426D1*
X1014413Y2734144D1*
X1007131Y2727924D1*
X998966Y2722921D1*
X990119Y2719256D1*
X980807Y2717021D1*
X971260Y2716269D1*
X961713Y2717021D1*
X952402Y2719256D1*
X943554Y2722921D1*
X935389Y2727924D1*
X928107Y2734144D1*
X921274Y2742344D1*
X1032944Y2612041D2*
Y2591597D1*
X910889D1*
Y2605709D1*
X903803Y2600590D1*
X895270Y2596243D1*
X886163Y2593284D1*
X876704Y2591785D1*
X867128D1*
X857670Y2593284D1*
X848562Y2596243D1*
X840029Y2600590D1*
X832282Y2606219D1*
X825511Y2612991D1*
X821260Y2618281D1*
X697969D1*
X668138Y2588609D1*
X663695Y2585381D1*
X658801Y2582887D1*
X651599Y2580257D1*
X653097Y2570799D1*
Y2561223D1*
X651599Y2551764D1*
X648640Y2542656D1*
X644292Y2534124D1*
X638663Y2526376D1*
X631892Y2519605D1*
X624144Y2513976D1*
X615612Y2509629D1*
X606504Y2506669D1*
X597046Y2505171D1*
X587469D1*
X578011Y2506669D1*
X568903Y2509629D1*
X560371Y2513976D1*
X552623Y2519605D1*
X545852Y2526376D1*
X542272Y2531058D1*
X535410Y2522858D1*
X533747Y2521320D1*
X533758Y2503560D1*
X766777Y2270523D1*
X832663Y2270503D1*
X838539Y2275357D1*
X846704Y2280360D1*
X855551Y2284025D1*
X864863Y2286261D1*
X874410Y2287012D1*
X883956Y2286261D1*
X893268Y2284025D1*
X902116Y2280360D1*
X910281Y2275357D1*
X913382Y2272912D1*
Y2287012D1*
X1035437D1*
Y2252491D1*
X1286197Y2252398D1*
X1291854Y2251502D1*
X1297302Y2249732D1*
X1302405Y2247132D1*
X1307039Y2243766D1*
X1406370Y2144593D1*
X1451842Y2099121D1*
X1508279Y2099099D1*
X1501329Y2103171D1*
X1496377Y2107401D1*
X1212008Y2391400D1*
X1202769Y2392128D1*
X1193758Y2394291D1*
X1185196Y2397838D1*
X1177294Y2402680D1*
X1170247Y2408698D1*
X1164228Y2415745D1*
X1159386Y2423647D1*
X1155840Y2432209D1*
X1153585Y2441994D1*
X1143758Y2444291D1*
X1135196Y2447838D1*
X1127294Y2452680D1*
X1120013Y2458951D1*
X964205Y2458959D1*
X913450Y2408172D1*
X913416Y2397350D1*
X918322Y2392259D1*
X921902Y2387578D1*
X928763Y2395778D1*
X936045Y2401997D1*
X944210Y2407001D1*
X953058Y2410666D1*
X962369Y2412901D1*
X971916Y2413652D1*
X981463Y2412901D1*
X990775Y2410666D1*
X999622Y2407001D1*
X1007787Y2401997D1*
X1015069Y2395778D1*
X1021289Y2388496D1*
X1026292Y2380331D1*
X1029957Y2371483D1*
X1032192Y2362172D1*
X1032944Y2352625D1*
X1032192Y2343078D1*
X1029957Y2333766D1*
X1026292Y2324919D1*
X1021289Y2316754D1*
X1015069Y2309472D1*
X1007787Y2303253D1*
X999622Y2298249D1*
X990775Y2294584D1*
X981463Y2292349D1*
X971916Y2291597D1*
X962369Y2292349D1*
X953058Y2294584D1*
X944210Y2298249D1*
X936045Y2303253D1*
X928763Y2309472D1*
X921930Y2317672D1*
X915069Y2309472D1*
X907787Y2303253D1*
X899622Y2298249D1*
X890775Y2294584D1*
X881463Y2292349D1*
X871916Y2291597D1*
X862369Y2292349D1*
X853058Y2294584D1*
X844210Y2298249D1*
X836045Y2303253D1*
X828763Y2309472D1*
X822544Y2316754D1*
X817540Y2324919D1*
X813876Y2333766D1*
X811640Y2343078D1*
X810889Y2352625D1*
X811640Y2362172D1*
X813876Y2371483D1*
X817540Y2380331D1*
X822544Y2388496D1*
X828763Y2395778D1*
X830426Y2397315D1*
X830544Y2428584D1*
X831563Y2435016D1*
X833575Y2441210D1*
X836532Y2447012D1*
X840359Y2452280D1*
X913282Y2525384D1*
X920095Y2532016D1*
X925364Y2535844D1*
X931166Y2538801D1*
X937359Y2540813D1*
X943791Y2541832D1*
X1047047Y2541960D1*
X1120247Y2542221D1*
X1127294Y2548239D1*
X1135196Y2553082D1*
X1143758Y2556628D1*
X1145798Y2557203D1*
X1147473Y2562514D1*
X1151091Y2568975D1*
X1154308Y2572740D1*
X1191550Y2609845D1*
X1193501Y2611382D1*
X1192618Y2612057D1*
X1032902D1*
X1035437Y2179541D2*
Y2164957D1*
X913382D1*
Y2179068D1*
X906296Y2173950D1*
X897764Y2169602D1*
X888656Y2166643D1*
X879198Y2165145D1*
X869621D1*
X860163Y2166643D1*
X851055Y2169602D1*
X842523Y2173950D1*
X834775Y2179579D1*
X828004Y2186350D1*
X827088Y2187512D1*
X746350Y2187631D1*
X739918Y2188649D1*
X733725Y2190662D1*
X727923Y2193618D1*
X722654Y2197446D1*
X649551Y2270369D1*
X460700Y2459400D1*
X456873Y2464668D1*
X453916Y2470471D1*
X451904Y2476664D1*
X450885Y2483096D1*
X450757Y2521264D1*
X445852Y2526376D1*
X440223Y2534124D1*
X435875Y2542656D1*
X432916Y2551764D1*
X431418Y2561223D1*
Y2570799D1*
X432916Y2580257D1*
X435875Y2589365D1*
X440223Y2597898D1*
X445852Y2605645D1*
X452623Y2612416D1*
X457305Y2615997D1*
X449104Y2622858D1*
X442885Y2630140D1*
X437881Y2638305D1*
X434217Y2647152D1*
X431981Y2656464D1*
X431230Y2666011D1*
X431981Y2675558D1*
X434217Y2684869D1*
X437881Y2693717D1*
X442885Y2701882D1*
X449104Y2709164D1*
X457305Y2715997D1*
X449104Y2722858D1*
X442885Y2730140D1*
X437881Y2738305D1*
X434217Y2747152D1*
X431981Y2756464D1*
X431230Y2766011D1*
X431981Y2775558D1*
X434217Y2784869D1*
X437881Y2793717D1*
X442885Y2801882D1*
X449104Y2809164D1*
X457305Y2815997D1*
X449104Y2822858D1*
X442885Y2830140D1*
X437881Y2838305D1*
X434217Y2847152D1*
X431981Y2856464D1*
X431230Y2866011D1*
X431981Y2875558D1*
X434217Y2884869D1*
X437881Y2893717D1*
X442885Y2901882D1*
X449104Y2909164D1*
X457305Y2915997D1*
X449104Y2922858D1*
X442885Y2930140D1*
X437881Y2938305D1*
X434217Y2947152D1*
X431981Y2956464D1*
X431230Y2966011D1*
X431981Y2975558D1*
X434217Y2984869D1*
X437881Y2993717D1*
X442885Y3001882D1*
X449104Y3009164D1*
X457305Y3015997D1*
X449104Y3022858D1*
X442885Y3030140D1*
X437881Y3038305D1*
X434217Y3047152D1*
X431981Y3056464D1*
X431230Y3066011D1*
X431981Y3075558D1*
X434217Y3084869D1*
X437881Y3093717D1*
X442885Y3101882D1*
X449104Y3109164D1*
X457305Y3115997D1*
X449104Y3122858D1*
X442885Y3130140D1*
X437881Y3138305D1*
X434217Y3147152D1*
X431981Y3156464D1*
X431230Y3166011D1*
X431981Y3175558D1*
X434217Y3184869D1*
X437881Y3193717D1*
X442885Y3201882D1*
X449104Y3209164D1*
X457305Y3215997D1*
X449104Y3222858D1*
X442885Y3230140D1*
X437881Y3238305D1*
X434217Y3247152D1*
X431981Y3256464D1*
X431230Y3266011D1*
X431981Y3275558D1*
X434217Y3284869D1*
X437881Y3293717D1*
X442885Y3301882D1*
X449104Y3309164D1*
X457305Y3315997D1*
X449104Y3322858D1*
X442885Y3330140D1*
X437881Y3338305D1*
X434217Y3347152D1*
X431981Y3356464D1*
X431230Y3366011D1*
X431981Y3375558D1*
X434217Y3384869D1*
X437881Y3393717D1*
X442885Y3401882D1*
X449104Y3409164D1*
X457305Y3415997D1*
X449104Y3422858D1*
X442885Y3430140D1*
X437881Y3438305D1*
X434217Y3447152D1*
X431981Y3456464D1*
X431230Y3466011D1*
X431981Y3475558D1*
X434217Y3484869D1*
X437881Y3493717D1*
X442885Y3501882D1*
X449104Y3509164D1*
X457305Y3515997D1*
X449104Y3522858D1*
X442885Y3530140D1*
X437881Y3538305D1*
X434217Y3547152D1*
X431981Y3556464D1*
X431230Y3566011D1*
X431981Y3575558D1*
X434217Y3584869D1*
X437881Y3593717D1*
X442885Y3601882D1*
X449104Y3609164D1*
X457305Y3615997D1*
X449104Y3622858D1*
X443850Y3626850D1*
X422202Y3648274D1*
X422201Y1922183D1*
X813692Y1919740D1*
X813570Y1930773D1*
X815068Y1940231D1*
X818028Y1949339D1*
X822375Y1957871D1*
X828004Y1965619D1*
X832920Y1970675D1*
X833038Y2032784D1*
X834056Y2039216D1*
X836069Y2045409D1*
X839025Y2051212D1*
X842853Y2056480D1*
X891128Y2104936D1*
X896080Y2109165D1*
X901632Y2112568D1*
X907648Y2115060D1*
X913981Y2116580D1*
X920473Y2117091D1*
X1100759Y2117352D1*
X1107806Y2123371D1*
X1115708Y2128213D1*
X1124270Y2131759D1*
X1126309Y2132335D1*
X1127985Y2137645D1*
X1131603Y2144106D1*
X1134820Y2147871D1*
X1166474Y2179526D1*
X1035433Y2179511D1*
X915899Y1970675D2*
X920815Y1965619D1*
X924396Y1960937D1*
X931257Y1969137D1*
X938539Y1975357D1*
X946704Y1980360D1*
X955551Y1984025D1*
X964863Y1986261D1*
X974410Y1987012D1*
X983956Y1986261D1*
X993268Y1984025D1*
X1002116Y1980360D1*
X1010281Y1975357D1*
X1017563Y1969137D1*
X1023782Y1961856D1*
X1025727Y1958945D1*
X1271891Y1958826D1*
X1278323Y1957808D1*
X1284517Y1955795D1*
X1290319Y1952839D1*
X1295588Y1949011D1*
X1328329Y1916450D1*
X1340537Y1916388D1*
X1346137Y1920756D1*
X1352649Y1923758D1*
X1359681Y1925157D1*
X1366845Y1924875D1*
X1373746Y1922929D1*
X1380001Y1919426D1*
X1385266Y1914559D1*
X1389140Y1913820D1*
X1393882Y1912070D1*
X1398246Y1909122D1*
X1478221Y1909086D1*
X1478212Y1984056D1*
X1234557Y1984091D1*
X1227234Y1977811D1*
X1219332Y1972969D1*
X1210770Y1969422D1*
X1201759Y1967259D1*
X1192520Y1966532D1*
X1183281Y1967259D1*
X1174270Y1969422D1*
X1165708Y1972969D1*
X1157806Y1977811D1*
X1150759Y1983830D1*
X1144740Y1990877D1*
X1139898Y1998779D1*
X1136351Y2007341D1*
X1134096Y2017125D1*
X1124270Y2019422D1*
X1115708Y2022969D1*
X1107806Y2027811D1*
X1100525Y2034082D1*
X937686Y2034091D1*
X915878Y2012306D1*
X915910Y1970690D1*
X1314127Y3338805D2*
X1312677Y3329651D1*
X1309813Y3320838D1*
X1305606Y3312580D1*
X1300158Y3305083D1*
X1293605Y3298530D1*
X1286108Y3293082D1*
X1277850Y3288875D1*
X1269037Y3286011D1*
X1263715Y3285015D1*
X1261418Y3275188D1*
X1257872Y3266626D1*
X1253029Y3258724D1*
X1247011Y3251677D1*
X1239964Y3245659D1*
X1232062Y3240817D1*
X1223500Y3237270D1*
X1214488Y3235107D1*
X1204906Y3234393D1*
X1182989Y3212669D1*
X1177721Y3208841D1*
X1171918Y3205885D1*
X1165725Y3203873D1*
X1159293Y3202854D1*
X1153449Y3202726D1*
X1159533Y3196649D1*
X1364803Y3196488D1*
X1372010Y3195347D1*
X1378950Y3193092D1*
X1385451Y3189779D1*
X1391354Y3185490D1*
X1437229Y3139819D1*
X1437366Y3251814D1*
X1438262Y3257471D1*
X1440032Y3262918D1*
X1442632Y3268022D1*
X1445999Y3272655D1*
X1475770Y3302427D1*
X1480404Y3305794D1*
X1485507Y3308394D1*
X1490954Y3310164D1*
X1496612Y3311060D1*
X1518079Y3311172D1*
X1520718Y3323688D1*
Y3397174D1*
X1514967Y3395396D1*
X1507644Y3394236D1*
X1500230D1*
X1492907Y3395396D1*
X1485856Y3397687D1*
X1481412Y3399842D1*
X1370295Y3399839D1*
X1314305Y3343804D1*
X1314127Y3338805D1*
X1238007Y2933351D2*
X1245836Y2927717D1*
X1252389Y2921164D1*
X1257837Y2913667D1*
X1262044Y2905410D1*
X1264908Y2896596D1*
X1266358Y2887442D1*
X1266526Y2882465D1*
X1489388Y2659591D1*
X1492198Y2660209D1*
X1499048Y2663046D1*
X1506257Y2664777D1*
X1513649Y2665358D1*
X1521040Y2664777D1*
X1525836Y2663727D1*
Y2941675D1*
X1519545Y2939574D1*
X1513888Y2938678D1*
X1455118Y2938566D1*
X1449408Y2939015D1*
X1443839Y2940352D1*
X1438548Y2942544D1*
X1433664Y2945537D1*
X1429309Y2949256D1*
X1337779Y3040787D1*
X1229754Y3040516D1*
X1266866Y3003266D1*
X1270980Y2997109D1*
X1273543Y2990162D1*
X1274414Y2982809D1*
X1273543Y2975455D1*
X1270980Y2968508D1*
X1266866Y2962351D1*
X1248120Y2943468D1*
X1242534Y2501002D2*
X1250364Y2495368D1*
X1256917Y2488815D1*
X1262364Y2481318D1*
X1266572Y2473060D1*
X1269435Y2464247D1*
X1270885Y2455093D1*
X1271054Y2450116D1*
X1542944Y2178214D1*
X1565224Y2178246D1*
X1573195Y2181681D1*
X1580447Y2183417D1*
X1510828Y2253198D1*
X1507461Y2257832D1*
X1504861Y2262935D1*
X1503091Y2268382D1*
X1502195Y2274039D1*
X1502083Y2331053D1*
X1481493Y2331098D1*
Y2453153D1*
X1566208D1*
X1566230Y2559628D1*
X1552970Y2546524D1*
X1548337Y2543157D1*
X1543233Y2540557D1*
X1537786Y2538787D1*
X1532129Y2537891D1*
X1391765Y2537778D1*
X1326533Y2537891D1*
X1320876Y2538787D1*
X1315429Y2540557D1*
X1310325Y2543157D1*
X1305692Y2546524D1*
X1240023Y2612033D1*
X1234282Y2608167D1*
X1271394Y2570917D1*
X1275508Y2564760D1*
X1278071Y2557813D1*
X1278941Y2550460D1*
X1278071Y2543106D1*
X1275508Y2536159D1*
X1271394Y2530002D1*
X1252648Y2511119D1*
X1223046Y2076133D2*
X1230876Y2070500D1*
X1234515Y2067099D1*
X1380655Y2067091D1*
X1268237Y2179488D1*
X1218539Y2179511D1*
X1251906Y2146048D1*
X1256020Y2139891D1*
X1258583Y2132944D1*
X1259453Y2125591D1*
X1258583Y2118237D1*
X1256020Y2111290D1*
X1251906Y2105133D1*
X1233159Y2086250D1*
X1751210Y3813521D2*
X1843447D1*
X1874754Y3844680D1*
X1880023Y3848508D1*
X1885825Y3851465D1*
X1892018Y3853477D1*
X1898450Y3854496D1*
X2001706Y3854624D1*
X2302863Y3854496D1*
X2309295Y3853477D1*
X2315488Y3851465D1*
X2321290Y3848508D1*
X2326559Y3844680D1*
X2369634Y3801786D1*
X2373863Y3796834D1*
X2377266Y3791282D1*
X2379758Y3785265D1*
X2381278Y3778933D1*
X2381789Y3772441D1*
Y3752080D1*
X3265181Y3753361D1*
X3265201Y4098324D1*
X3258355Y4082390D1*
X3253339Y4073433D1*
X3247636Y4064898D1*
X3241280Y4056836D1*
X3234312Y4049297D1*
X3226774Y4042329D1*
X3218712Y4035974D1*
X3210176Y4030270D1*
X3201219Y4025254D1*
X3191896Y4020956D1*
X3182265Y4017403D1*
X3172385Y4014617D1*
X3162316Y4012614D1*
X3152122Y4011407D1*
X3141864Y4011004D1*
X3131606Y4011407D1*
X3121411Y4012614D1*
X3111343Y4014617D1*
X3101462Y4017403D1*
X3091831Y4020956D1*
X3082508Y4025254D1*
X3073551Y4030270D1*
X3065016Y4035974D1*
X3056954Y4042329D1*
X3049416Y4049297D1*
X3042447Y4056836D1*
X3036092Y4064898D1*
X3030388Y4073433D1*
X3025372Y4082390D1*
X3021074Y4091713D1*
X3017521Y4101344D1*
X3014735Y4111225D1*
X3012732Y4121293D1*
X3011525Y4131488D1*
X3011122Y4141746D1*
X3011525Y4152003D1*
X3012732Y4162198D1*
X3014735Y4172267D1*
X3017521Y4182147D1*
X3021074Y4191778D1*
X3025372Y4201101D1*
X3030388Y4210058D1*
X3036092Y4218594D1*
X3042447Y4226655D1*
X3049416Y4234194D1*
X3056954Y4241162D1*
X3065016Y4247518D1*
X3073551Y4253221D1*
X3082508Y4258237D1*
X3091831Y4262535D1*
X3099092Y4265214D1*
X588687Y4265201D1*
X605012Y4258224D1*
X613969Y4253208D1*
X622504Y4247505D1*
X630566Y4241149D1*
X638105Y4234181D1*
X645073Y4226642D1*
X651428Y4218580D1*
X657132Y4210045D1*
X662148Y4201088D1*
X666446Y4191765D1*
X669999Y4182134D1*
X672785Y4172253D1*
X674788Y4162185D1*
X675995Y4151990D1*
X676398Y4141732D1*
X675995Y4131475D1*
X674788Y4121280D1*
X672785Y4111212D1*
X669999Y4101331D1*
X666446Y4091700D1*
X662148Y4082377D1*
X657132Y4073420D1*
X651428Y4064885D1*
X645073Y4056823D1*
X638105Y4049284D1*
X630566Y4042316D1*
X622504Y4035960D1*
X613969Y4030257D1*
X605012Y4025241D1*
X595689Y4020943D1*
X586058Y4017390D1*
X576177Y4014603D1*
X566109Y4012601D1*
X555914Y4011394D1*
X545656Y4010991D1*
X535399Y4011394D1*
X525204Y4012601D1*
X515135Y4014603D1*
X505255Y4017390D1*
X495624Y4020943D1*
X486301Y4025241D1*
X477344Y4030257D1*
X468808Y4035960D1*
X460747Y4042316D1*
X453208Y4049284D1*
X446240Y4056823D1*
X439884Y4064885D1*
X434181Y4073420D1*
X429165Y4082377D1*
X424867Y4091700D1*
X422188Y4098961D1*
X422201Y3886637D1*
X448570Y3913003D1*
X449459Y3925096D1*
X452078Y3936006D1*
X456372Y3946371D1*
X462234Y3955938D1*
X469521Y3964469D1*
X478052Y3971756D1*
X487619Y3977618D1*
X497984Y3981912D1*
X508894Y3984531D1*
X520079Y3985411D1*
X628736D1*
X679286Y4035603D1*
X688363Y4042198D1*
X698360Y4047291D1*
X709031Y4050758D1*
X720112Y4052513D1*
X763222Y4052734D1*
X1404823Y4052513D1*
X1415904Y4050758D1*
X1426575Y4047291D1*
X1436572Y4042198D1*
X1445648Y4035603D1*
X1476288Y4005276D1*
X1738725Y3742838D1*
X1738710Y3813521D1*
X1751210D1*
X1441422Y3690555D2*
X1446461D1*
Y3679959D1*
X1490788Y3679822D1*
X1497995Y3678680D1*
X1504934Y3676425D1*
X1511436Y3673113D1*
X1517339Y3668824D1*
X1573053Y3613312D1*
X1647564Y3538599D1*
X1651853Y3532695D1*
X1655165Y3526194D1*
X1657420Y3519254D1*
X1658562Y3512048D1*
X1658705Y3433399D1*
Y3247510D1*
X1663854Y3254232D1*
Y3615512D1*
X1369628Y3909703D1*
X1139008Y3909734D1*
X1147508Y3903624D1*
X1154280Y3896852D1*
X1159909Y3889105D1*
X1164256Y3880572D1*
X1167216Y3871465D1*
X1168714Y3862006D1*
Y3852430D1*
X1167216Y3842971D1*
X1164256Y3833864D1*
X1159909Y3825331D1*
X1154280Y3817584D1*
X1147508Y3810812D1*
X1139761Y3805184D1*
X1131228Y3800836D1*
X1122121Y3797877D1*
X1112662Y3796379D1*
X1103086D1*
X1093628Y3797877D1*
X1084520Y3800836D1*
X1075987Y3805184D1*
X1068240Y3810812D1*
X1061469Y3817584D1*
X1057888Y3822265D1*
X1051027Y3814065D1*
X1043745Y3807846D1*
X1035580Y3802842D1*
X1026733Y3799177D1*
X1017421Y3796942D1*
X1007874Y3796191D1*
X998327Y3796942D1*
X989016Y3799177D1*
X980168Y3802842D1*
X972003Y3807846D1*
X964721Y3814065D1*
X957888Y3822265D1*
X951027Y3814065D1*
X943745Y3807846D1*
X935580Y3802842D1*
X926733Y3799177D1*
X917421Y3796942D1*
X907874Y3796191D1*
X898327Y3796942D1*
X889016Y3799177D1*
X880168Y3802842D1*
X872003Y3807846D1*
X868901Y3810291D1*
X868902Y3796190D1*
X746847D1*
Y3901220D1*
X704835Y3859542D1*
X695758Y3852947D1*
X685761Y3847854D1*
X675091Y3844386D1*
X664009Y3842631D1*
X620899Y3842411D1*
X587585Y3842321D1*
X578114Y3840340D1*
X568463Y3839655D1*
X558807Y3840280D1*
X549324Y3842203D1*
X537764Y3842411D1*
X531264Y3841060D1*
X521459Y3840234D1*
X508257Y3827026D1*
X553285Y3827038D1*
Y3812927D1*
X560371Y3818045D1*
X568903Y3822393D1*
X578011Y3825352D1*
X587469Y3826850D1*
X597046D1*
X606504Y3825352D1*
X615612Y3822393D1*
X624144Y3818045D1*
X631892Y3812416D1*
X638663Y3805645D1*
X644292Y3797898D1*
X648640Y3789365D1*
X651599Y3780257D1*
X653097Y3770799D1*
Y3761223D1*
X651599Y3751764D1*
X648640Y3742656D1*
X644292Y3734124D1*
X638663Y3726376D1*
X631892Y3719605D1*
X629231Y3717508D1*
X1115646Y3717511D1*
X1117294Y3723920D1*
X1120386Y3731386D1*
X1124609Y3738276D1*
X1129857Y3744421D1*
X1211764Y3826103D1*
X1218301Y3830853D1*
X1225502Y3834522D1*
X1233188Y3837020D1*
X1241170Y3838284D1*
X1307710Y3838443D1*
X1364474Y3838284D1*
X1372456Y3837020D1*
X1380142Y3834522D1*
X1387342Y3830853D1*
X1393880Y3826103D1*
X1426311Y3793897D1*
X1431560Y3787752D1*
X1435782Y3780861D1*
X1438875Y3773395D1*
X1440761Y3765537D1*
X1441395Y3757481D1*
Y3690537D1*
X1766869Y2881894D2*
X1867196D1*
Y2866318D1*
X1939645Y2866303D1*
X1940652Y2869784D1*
X1940780Y2930422D1*
X1941802Y2936866D1*
X1871395Y2936899D1*
X1870352Y2930703D1*
X1868061Y2923651D1*
X1864695Y2917045D1*
X1860337Y2911047D1*
X1855095Y2905805D1*
X1849097Y2901447D1*
X1842491Y2898081D1*
X1835439Y2895790D1*
X1828117Y2894630D1*
X1820703D1*
X1816180Y2895233D1*
X1766841Y2895232D1*
X1766855Y2881918D1*
X1806066Y2035568D2*
X1876330D1*
X1842684Y2035849D1*
X1795849Y2036114D1*
X1790985Y2037486D1*
X1786575Y2039955D1*
X1782864Y2043386D1*
X1780056Y2047588D1*
X1778307Y2052330D1*
X1777713Y2057349D1*
Y2533277D1*
X1773454Y2537024D1*
X1768639Y2542662D1*
X1766860Y2545325D1*
X1766855Y1971337D1*
X1778287Y1959900D1*
X1793566Y1960791D1*
Y2035568D1*
X1806066D1*
X1915621Y1950168D2*
Y1946262D1*
X1943443Y1946238D1*
X1943435Y1950923D1*
X1960378D1*
X1960848Y1956624D1*
X1962368Y1962956D1*
X1964861Y1968972D1*
X1968263Y1974525D1*
X1972492Y1979476D1*
X2028875Y2035859D1*
X1923885Y2035849D1*
X1931079Y2030810D1*
X1936322Y2025567D1*
X1940679Y2019569D1*
X1944045Y2012963D1*
X1946336Y2005912D1*
X1947496Y1998589D1*
Y1991175D1*
X1946336Y1983852D1*
X1944045Y1976801D1*
X1940679Y1970195D1*
X1936322Y1964197D1*
X1931079Y1958954D1*
X1925081Y1954597D1*
X1918475Y1951231D1*
X1915633Y1950182D1*
X1663885Y2331098D2*
X1575117D1*
X1575083Y2291980D1*
X1663864Y2203241D1*
X1663855Y2331104D1*
X1984150Y3770214D2*
X2089768D1*
Y3751708D1*
X2298776Y3752004D1*
X2293266Y3760774D1*
X2282390Y3771650D1*
X1918894Y3771624D1*
X1898700Y3751427D1*
X1971628Y3751544D1*
X1971650Y3770214D1*
X1984150D1*
X1644372Y2013259D2*
X1655385D1*
Y1999538D1*
X1660876Y1996173D1*
X1663445Y1994147D1*
X1663855Y2012500D1*
Y2045655D1*
X1652839Y2034844D1*
X1648205Y2031477D1*
X1643102Y2028877D1*
X1640402Y2027882D1*
X1640520Y2024615D1*
X1643012Y2018599D1*
X1643899Y2015450D1*
X1643102Y2028877D1*
X1640413Y2027885D1*
X3184635Y4265214D2*
X3191896Y4262535D1*
X3201219Y4258237D1*
X3210176Y4253221D1*
X3218712Y4247518D1*
X3226774Y4241162D1*
X3234312Y4234194D1*
X3241280Y4226655D1*
X3247636Y4218594D1*
X3253339Y4210058D1*
X3258355Y4201101D1*
X3262653Y4191778D1*
X3265193Y4184893D1*
X3265201Y4265219D1*
X3184879Y4265201D1*
X3265208Y502479D2*
X3262640Y495519D1*
X3258342Y486196D1*
X3253326Y477239D1*
X3247623Y468703D1*
X3241267Y460642D1*
X3234299Y453103D1*
X3226760Y446135D1*
X3218699Y439779D1*
X3210163Y434076D1*
X3201206Y429060D1*
X3191883Y424762D1*
X3184923Y422194D1*
X3265219Y422201D1*
X3265201Y502230D1*
X502466Y422207D2*
X495506Y424775D1*
X486183Y429073D1*
X477226Y434089D1*
X468690Y439792D1*
X460628Y446148D1*
X453090Y453116D1*
X446122Y460655D1*
X439766Y468717D1*
X434063Y477252D1*
X429047Y486209D1*
X424749Y495532D1*
X422209Y502417D1*
X422201Y422183D1*
X502230Y422201D1*
X422188Y4184504D2*
X424867Y4191765D1*
X429165Y4201088D1*
X434181Y4210045D1*
X439884Y4218580D1*
X446240Y4226642D1*
X453208Y4234181D1*
X460747Y4241149D1*
X468808Y4247505D1*
X477344Y4253208D1*
X486301Y4258224D1*
X495624Y4262522D1*
X502885Y4265201D1*
X422183D1*
X422201Y4184781D1*
X1767426Y2988194D2*
X1768809Y3496102D1*
X1767334Y3504692D1*
Y3512106D1*
X1768875Y3520782D1*
X1769141Y3617977D1*
X1766855Y3615092D1*
Y2988188D1*
X1663854Y2837303D2*
Y3125473D1*
X1659230Y3123983D1*
Y2453134D1*
X1663855Y2462500D1*
X1663854Y2837303D1*
D30*
X2998163Y3394370D3*
Y3197520D3*
Y3000670D3*
X3005525Y2530433D3*
Y2333583D3*
Y2136732D3*
X3006431Y1666549D3*
Y1469698D3*
Y1272848D3*
X688832Y1244252D3*
Y1441103D3*
Y1637953D3*
D31*
X2040026Y3202100D3*
X2120026Y2967100D3*
Y3437100D3*
X2600026D3*
Y2967100D3*
X2048294Y2335433D3*
X2128294Y2100433D3*
Y2570433D3*
X2608294D3*
Y2100433D3*
X2048032Y1468504D3*
X2128032Y1233504D3*
Y1703504D3*
X2608032D3*
Y1233504D3*
X1647900Y1443307D3*
X1567900Y1678307D3*
Y1208307D3*
X1087900D3*
Y1678307D3*
D32*
X2262599Y3638714D3*
X2337402D3*
X2260893Y2767323D3*
X2335696D3*
X2256299Y1886221D3*
X2331103D3*
X1565223Y989895D3*
X1640026D3*
D33*
X492257Y3766011D3*
D34*
X592257D3*
X492257Y3666011D3*
X592257D3*
X492257Y3566011D3*
X592257D3*
X492257Y3466011D3*
X592257D3*
X492257Y3366011D3*
X592257D3*
X492257Y3266011D3*
X592257D3*
X492257Y3166011D3*
X592257D3*
X492257Y3066011D3*
X592257D3*
X492257Y2966011D3*
X592257D3*
X492257Y2866011D3*
X592257D3*
X492257Y2766011D3*
X592257D3*
X492257Y2666011D3*
X592257D3*
X492257Y2566011D3*
X592257D3*
D33*
X967192Y3501575D3*
D35*
X867192D3*
Y3201575D3*
X967192D3*
D33*
X971260Y3077297D3*
D35*
X871260D3*
Y2777297D3*
X971260D3*
D33*
X971916Y2652625D3*
D35*
X871916D3*
Y2352625D3*
X971916D3*
D33*
X974410Y2225984D3*
D35*
X874410D3*
Y1925984D3*
X974410D3*
D36*
X1255250Y3343439D3*
X1205250Y3293439D3*
D72*
X1155250Y3343439D3*
D36*
X1207481Y2882809D3*
X1157481Y2932809D3*
D75*
X1207481Y2982809D3*
D36*
X1212008Y2450460D3*
X1162008Y2500460D3*
D75*
X1212008Y2550460D3*
D36*
X1192520Y2025591D3*
X1142520Y2075591D3*
D75*
X1192520Y2125591D3*
D32*
X1166273Y3631496D3*
X1241076D3*
D37*
X1799738Y3681628D3*
Y3756431D3*
X1385433Y3633465D3*
Y3558662D3*
X1806168Y2824803D3*
Y2750000D3*
D32*
X1612730Y3186483D3*
X1537927D3*
D37*
X1854593Y1903675D3*
Y1978478D3*
D32*
X1613386Y2392126D3*
X1538583D3*
D37*
X1855250Y1735958D3*
Y1661155D3*
D39*
X2030709Y3644226D3*
X1944095Y3681628D3*
X2030709Y3719029D3*
X2097638Y2716011D3*
X2011024Y2753412D3*
X2097638Y2790814D3*
X2089108Y1862336D3*
X2002494Y1899738D3*
X2089108Y1937139D3*
D41*
X1604200Y1954200D3*
X1566798Y1867586D3*
X1529397Y1954200D3*
D33*
X807874Y3857218D3*
D34*
X907874D3*
X1007874D3*
X1107874D3*
M02*
