G04 DipTrace 3.0.0.1*
G04 TopDimension.gbr*
%MOIN*%
G04 #@! TF.FileFunction,Drawing,Top*
G04 #@! TF.Part,Single*
%ADD13C,0.0015*%
%ADD69C,0.006176*%
%FSLAX26Y26*%
G04*
G70*
G90*
G75*
G01*
G04 TopDimension*
%LPD*%
X625381Y4141732D2*
D13*
Y4366011D1*
X465932Y4141732D2*
Y4366011D1*
Y4346326D2*
X625381D1*
X406877D2*
X426562D1*
G36*
X465932D2*
X426562Y4338452D1*
Y4354200D1*
X465932Y4346326D1*
G37*
X684436D2*
D13*
X664751D1*
G36*
X625381D2*
X664751Y4354200D1*
Y4338452D1*
X625381Y4346326D1*
G37*
X393701Y4293701D2*
D13*
Y4517586D1*
X545656Y4141732D2*
Y4517586D1*
X393701Y4497900D2*
X545656D1*
X334646D2*
X354331D1*
G36*
X393701D2*
X354331Y4490026D1*
Y4505774D1*
X393701Y4497900D1*
G37*
X604711D2*
D13*
X585026D1*
G36*
X545656D2*
X585026Y4505774D1*
Y4490026D1*
X545656Y4497900D1*
G37*
Y4141732D2*
D13*
X201969D1*
X393701Y4293701D2*
X201969D1*
X221654D2*
Y4141732D1*
Y4352756D2*
Y4333071D1*
G36*
Y4293701D2*
X213780Y4333071D1*
X229528D1*
X221654Y4293701D1*
G37*
Y4082677D2*
D13*
Y4102362D1*
G36*
Y4141732D2*
X229528Y4102362D1*
X213780D1*
X221654Y4141732D1*
G37*
X3141864Y4141746D2*
D13*
Y4468373D1*
X3293701Y4293701D2*
Y4468373D1*
X3141864Y4448688D2*
X3293701D1*
X3082809D2*
X3102494D1*
G36*
X3141864D2*
X3102494Y4440814D1*
Y4456562D1*
X3141864Y4448688D1*
G37*
X3352756D2*
D13*
X3333071D1*
G36*
X3293701D2*
X3333071Y4456562D1*
Y4440814D1*
X3293701Y4448688D1*
G37*
X3141864Y4141746D2*
D13*
X3598688D1*
X3293701Y4293701D2*
X3598688D1*
X3579003D2*
Y4141746D1*
Y4352756D2*
Y4333071D1*
G36*
Y4293701D2*
X3571129Y4333071D1*
X3586877D1*
X3579003Y4293701D1*
G37*
Y4082691D2*
D13*
Y4102376D1*
G36*
Y4141746D2*
X3586877Y4102376D1*
X3571129D1*
X3579003Y4141746D1*
G37*
X3141851Y545551D2*
D13*
Y116536D1*
X3293701Y393701D2*
Y116536D1*
X3141851Y136221D2*
X3293701D1*
X3082795D2*
X3102481D1*
G36*
X3141851D2*
X3102481Y128347D1*
Y144095D1*
X3141851Y136221D1*
G37*
X3352756D2*
D13*
X3333071D1*
G36*
X3293701D2*
X3333071Y144095D1*
Y128347D1*
X3293701Y136221D1*
G37*
X3141851Y545551D2*
D13*
X3574672D1*
X3293701Y393701D2*
X3574672D1*
X3554987Y545551D2*
Y393701D1*
Y604607D2*
Y584921D1*
G36*
Y545551D2*
X3547113Y584921D1*
X3562861D1*
X3554987Y545551D1*
G37*
Y334646D2*
D13*
Y354331D1*
G36*
Y393701D2*
X3562861Y354331D1*
X3547113D1*
X3554987Y393701D1*
G37*
X545538Y545565D2*
D13*
Y136877D1*
X393701Y393701D2*
Y136877D1*
Y156562D2*
X545538D1*
X334646D2*
X354331D1*
G36*
X393701D2*
X354331Y148688D1*
Y164436D1*
X393701Y156562D1*
G37*
X604593D2*
D13*
X584908D1*
G36*
X545538D2*
X584908Y164436D1*
Y148688D1*
X545538Y156562D1*
G37*
Y545565D2*
D13*
X149869D1*
X393701Y393701D2*
X149869D1*
X169554Y545565D2*
Y393701D1*
Y604620D2*
Y584935D1*
G36*
Y545565D2*
X161680Y584935D1*
X177428D1*
X169554Y545565D1*
G37*
Y334646D2*
D13*
Y354331D1*
G36*
Y393701D2*
X177428Y354331D1*
X161680D1*
X169554Y393701D1*
G37*
X393701Y4293701D2*
D13*
Y4722310D1*
X3293701Y4293701D2*
Y4722310D1*
X1843701Y4702625D2*
X433071D1*
G36*
X393701D2*
X433071Y4710499D1*
Y4694751D1*
X393701Y4702625D1*
G37*
X1843701D2*
D13*
X3254331D1*
G36*
X3293701D2*
X3254331Y4694751D1*
Y4710499D1*
X3293701Y4702625D1*
G37*
Y4293701D2*
D13*
Y5059843D1*
X1850656Y4293176D2*
Y5059843D1*
X2572179Y5040158D2*
X3254331D1*
G36*
X3293701D2*
X3254331Y5032284D1*
Y5048032D1*
X3293701Y5040158D1*
G37*
X2572179D2*
D13*
X1890026D1*
G36*
X1850656D2*
X1890026Y5048032D1*
Y5032284D1*
X1850656Y5040158D1*
G37*
X3293701Y393701D2*
D13*
Y47113D1*
X1850656Y393570D2*
Y47113D1*
X2572179Y66798D2*
X3254331D1*
G36*
X3293701D2*
X3254331Y58924D1*
Y74672D1*
X3293701Y66798D1*
G37*
X2572179D2*
D13*
X1890026D1*
G36*
X1850656D2*
X1890026Y74672D1*
Y58924D1*
X1850656Y66798D1*
G37*
X500000Y2577166D2*
D13*
X-10892D1*
X393701Y393701D2*
X-10892D1*
X8793Y1485433D2*
Y2537795D1*
G36*
Y2577166D2*
X16667Y2537795D1*
X919D1*
X8793Y2577166D1*
G37*
Y1485433D2*
D13*
Y433071D1*
G36*
Y393701D2*
X919Y433071D1*
X16667D1*
X8793Y393701D1*
G37*
X393701D2*
D13*
Y2205774D1*
X500000Y2577166D2*
Y2166404D1*
X446851Y2186089D2*
X433071D1*
G36*
X393701D2*
X433071Y2193963D1*
Y2178215D1*
X393701Y2186089D1*
G37*
X446851D2*
D13*
X460630D1*
G36*
X500000D2*
X460630Y2178215D1*
Y2193963D1*
X500000Y2186089D1*
G37*
X680656D2*
D13*
X500000D1*
X545538Y465840D2*
X62861D1*
X393701Y393701D2*
X62861D1*
X82546Y465840D2*
Y393701D1*
Y524895D2*
Y505210D1*
G36*
Y465840D2*
X74672Y505210D1*
X90420D1*
X82546Y465840D1*
G37*
Y334646D2*
D13*
Y354331D1*
G36*
Y393701D2*
X90420Y354331D1*
X74672D1*
X82546Y393701D1*
G37*
Y609295D2*
D13*
Y465840D1*
X465814Y545565D2*
Y293176D1*
X393701Y393701D2*
Y293176D1*
Y312861D2*
X465814D1*
X334646D2*
X354331D1*
G36*
X393701D2*
X354331Y304987D1*
Y320735D1*
X393701Y312861D1*
G37*
X524869D2*
D13*
X505184D1*
G36*
X465814D2*
X505184Y320735D1*
Y304987D1*
X465814Y312861D1*
G37*
X609269D2*
D13*
X465814D1*
X3141851Y465827D2*
X3470079D1*
X3293701Y393701D2*
X3470079D1*
X3450394Y465827D2*
Y393701D1*
Y524882D2*
Y505197D1*
G36*
Y465827D2*
X3442520Y505197D1*
X3458268D1*
X3450394Y465827D1*
G37*
Y334646D2*
D13*
Y354331D1*
G36*
Y393701D2*
X3458268Y354331D1*
X3442520D1*
X3450394Y393701D1*
G37*
Y250246D2*
D13*
Y465827D1*
X3221575Y545551D2*
Y250656D1*
X3293701Y393701D2*
Y250656D1*
X3221575Y270341D2*
X3293701D1*
X3162520D2*
X3182205D1*
G36*
X3221575D2*
X3182205Y262467D1*
Y278215D1*
X3221575Y270341D1*
G37*
X3352756D2*
D13*
X3333071D1*
G36*
X3293701D2*
X3333071Y278215D1*
Y262467D1*
X3293701Y270341D1*
G37*
X3437156D2*
D13*
X3293701D1*
X545656Y4221457D2*
X298688D1*
X393701Y4293701D2*
X298688D1*
X318373D2*
Y4221457D1*
Y4352756D2*
Y4333071D1*
G36*
Y4293701D2*
X310499Y4333071D1*
X326247D1*
X318373Y4293701D1*
G37*
Y4162402D2*
D13*
Y4182087D1*
G36*
Y4221457D2*
X326247Y4182087D1*
X310499D1*
X318373Y4221457D1*
G37*
Y4454356D2*
D13*
Y4293701D1*
X465932Y4141732D2*
Y4443570D1*
X393701Y4293701D2*
Y4443570D1*
Y4423885D2*
X465932D1*
X334646D2*
X354331D1*
G36*
X393701D2*
X354331Y4416011D1*
Y4431759D1*
X393701Y4423885D1*
G37*
X524987D2*
D13*
X505302D1*
G36*
X465932D2*
X505302Y4431759D1*
Y4416011D1*
X465932Y4423885D1*
G37*
X626587D2*
D13*
X465932D1*
X3141864Y4221470D2*
X3463517D1*
X3293701Y4293701D2*
X3463517D1*
X3443832D2*
Y4221470D1*
Y4352756D2*
Y4333071D1*
G36*
Y4293701D2*
X3435958Y4333071D1*
X3451706D1*
X3443832Y4293701D1*
G37*
Y4162415D2*
D13*
Y4182100D1*
G36*
Y4221470D2*
X3451706Y4182100D1*
X3435958D1*
X3443832Y4221470D1*
G37*
Y4060815D2*
D13*
Y4293701D1*
X3221588Y4141746D2*
Y4393832D1*
X3293701Y4293701D2*
Y4393832D1*
X3221588Y4374147D2*
X3293701D1*
X3162533D2*
X3182218D1*
G36*
X3221588D2*
X3182218Y4366273D1*
Y4382021D1*
X3221588Y4374147D1*
G37*
X3352756D2*
D13*
X3333071D1*
G36*
X3293701D2*
X3333071Y4382021D1*
Y4366273D1*
X3293701Y4374147D1*
G37*
X3437156D2*
D13*
X3293701D1*
X492257Y3766011D2*
X20998D1*
X393701Y4293701D2*
X20998D1*
X40683Y4029856D2*
Y3805381D1*
G36*
Y3766011D2*
X32809Y3805381D1*
X48557D1*
X40683Y3766011D1*
G37*
Y4029856D2*
D13*
Y4254331D1*
G36*
Y4293701D2*
X48557Y4254331D1*
X32809D1*
X40683Y4293701D1*
G37*
X492257Y3766011D2*
D13*
Y3962992D1*
X393701Y4293701D2*
Y3923622D1*
X442979Y3943307D2*
X452887D1*
G36*
X492257D2*
X452887Y3935433D1*
Y3951181D1*
X492257Y3943307D1*
G37*
X442979D2*
D13*
X433071D1*
G36*
X393701D2*
X433071Y3951181D1*
Y3935433D1*
X393701Y3943307D1*
G37*
X649021D2*
D13*
X492257D1*
X442257Y3807671D2*
Y3877166D1*
X393701Y4293701D2*
Y3837795D1*
Y3857481D2*
X442257D1*
X334646D2*
X354331D1*
G36*
X393701D2*
X354331Y3849607D1*
Y3865355D1*
X393701Y3857481D1*
G37*
X501313D2*
D13*
X481628D1*
G36*
X442257D2*
X481628Y3865355D1*
Y3849607D1*
X442257Y3857481D1*
G37*
X602824D2*
D13*
X442257D1*
X3163507Y2879016D2*
X3608662D1*
X3170869Y2652481D2*
X3608662D1*
X3588977Y2879016D2*
Y2652481D1*
Y2938071D2*
Y2918386D1*
G36*
Y2879016D2*
X3581103Y2918386D1*
X3596851D1*
X3588977Y2879016D1*
G37*
Y2593425D2*
D13*
Y2613110D1*
G36*
Y2652481D2*
X3596851Y2613110D1*
X3581103D1*
X3588977Y2652481D1*
G37*
X3170869Y2015079D2*
D13*
X3661418D1*
X3171774Y1788596D2*
X3661418D1*
X3641732Y2015079D2*
Y1788596D1*
Y2074134D2*
Y2054449D1*
G36*
Y2015079D2*
X3633858Y2054449D1*
X3649607D1*
X3641732Y2015079D1*
G37*
Y1729541D2*
D13*
Y1749226D1*
G36*
Y1788596D2*
X3649607Y1749226D1*
X3633858D1*
X3641732Y1788596D1*
G37*
X2830026Y2877100D2*
D13*
X2962336D1*
X2838294Y2660433D2*
X2962336D1*
X2942651Y2877100D2*
Y2660433D1*
Y2936155D2*
Y2916470D1*
G36*
Y2877100D2*
X2934777Y2916470D1*
X2950525D1*
X2942651Y2877100D1*
G37*
Y2601378D2*
D13*
Y2621063D1*
G36*
Y2660433D2*
X2950525Y2621063D1*
X2934777D1*
X2942651Y2660433D1*
G37*
X2863400Y3584528D2*
D13*
Y3642651D1*
X3163507Y3516418D2*
Y3642651D1*
X3013454Y3622966D2*
X2902771D1*
G36*
X2863400D2*
X2902771Y3630840D1*
Y3615092D1*
X2863400Y3622966D1*
G37*
X3013454D2*
D13*
X3124137D1*
G36*
X3163507D2*
X3124137Y3615092D1*
Y3630840D1*
X3163507Y3622966D1*
G37*
X477129Y4391035D2*
D69*
X480975Y4392980D1*
X486723Y4398684D1*
Y4358536D1*
X522023Y4398684D2*
X502922D1*
X501020Y4381484D1*
X502922Y4383386D1*
X508670Y4385331D1*
X514373D1*
X520121Y4383386D1*
X523968Y4379583D1*
X525870Y4373835D1*
Y4370032D1*
X523968Y4364284D1*
X520121Y4360438D1*
X514373Y4358536D1*
X508670D1*
X502922Y4360438D1*
X501020Y4362383D1*
X499075Y4366186D1*
X563114Y4385331D2*
X561169Y4379583D1*
X557366Y4375736D1*
X551618Y4373835D1*
X549717D1*
X543969Y4375736D1*
X540166Y4379583D1*
X538221Y4385331D1*
Y4387232D1*
X540166Y4392980D1*
X543969Y4396783D1*
X549717Y4398684D1*
X551618D1*
X557366Y4396783D1*
X561169Y4392980D1*
X563114Y4385331D1*
Y4375736D1*
X561169Y4366186D1*
X557366Y4360438D1*
X551618Y4358536D1*
X547816D1*
X542068Y4360438D1*
X540166Y4364284D1*
X577367Y4362383D2*
X575466Y4360438D1*
X577367Y4358536D1*
X579312Y4360438D1*
X577367Y4362383D1*
X610809Y4358536D2*
Y4398684D1*
X591664Y4371934D1*
X620360D1*
X428823Y4542610D2*
X432670Y4544555D1*
X438418Y4550259D1*
Y4510111D1*
X473717Y4550259D2*
X454616D1*
X452715Y4533059D1*
X454616Y4534960D1*
X460364Y4536906D1*
X466068D1*
X471816Y4534960D1*
X475663Y4531158D1*
X477564Y4525410D1*
Y4521607D1*
X475663Y4515859D1*
X471816Y4512013D1*
X466068Y4510111D1*
X460364D1*
X454616Y4512013D1*
X452715Y4513958D1*
X450769Y4517761D1*
X491861Y4540708D2*
Y4542610D1*
X493762Y4546456D1*
X495663Y4548358D1*
X499510Y4550259D1*
X507159D1*
X510962Y4548358D1*
X512863Y4546456D1*
X514809Y4542610D1*
Y4538807D1*
X512863Y4534960D1*
X509061Y4529257D1*
X489915Y4510111D1*
X516710D1*
X176945Y4176861D2*
X174999Y4180708D1*
X169295Y4186456D1*
X209443D1*
X169295Y4221755D2*
Y4202654D1*
X186495Y4200753D1*
X184594Y4202654D1*
X182648Y4208402D1*
Y4214106D1*
X184594Y4219854D1*
X188396Y4223701D1*
X194144Y4225602D1*
X197947D1*
X203695Y4223701D1*
X207542Y4219854D1*
X209443Y4214106D1*
Y4208402D1*
X207542Y4202654D1*
X205596Y4200753D1*
X201794Y4198807D1*
X178846Y4239899D2*
X176945D1*
X173098Y4241800D1*
X171196Y4243701D1*
X169295Y4247548D1*
Y4255197D1*
X171196Y4259000D1*
X173098Y4260901D1*
X176945Y4262847D1*
X180747D1*
X184594Y4260901D1*
X190298Y4257099D1*
X209443Y4237953D1*
Y4264748D1*
X3157877Y4493397D2*
X3161723Y4495343D1*
X3167471Y4501046D1*
Y4460899D1*
X3202771Y4501046D2*
X3183670D1*
X3181768Y4483847D1*
X3183670Y4485748D1*
X3189418Y4487693D1*
X3195121D1*
X3200870Y4485748D1*
X3204716Y4481945D1*
X3206618Y4476197D1*
Y4472395D1*
X3204716Y4466647D1*
X3200870Y4462800D1*
X3195121Y4460899D1*
X3189418D1*
X3183670Y4462800D1*
X3181768Y4464745D1*
X3179823Y4468548D1*
X3218969Y4493397D2*
X3222816Y4495343D1*
X3228564Y4501046D1*
Y4460899D1*
X3242816Y4464745D2*
X3240915Y4462800D1*
X3242816Y4460899D1*
X3244762Y4462800D1*
X3242816Y4464745D1*
X3266664Y4501046D2*
X3260960Y4499145D1*
X3259015Y4495343D1*
Y4491496D1*
X3260960Y4487693D1*
X3264763Y4485748D1*
X3272412Y4483847D1*
X3278160Y4481945D1*
X3281962Y4478099D1*
X3283864Y4474296D1*
Y4468548D1*
X3281962Y4464745D1*
X3280061Y4462800D1*
X3274313Y4460899D1*
X3266664D1*
X3260960Y4462800D1*
X3259015Y4464745D1*
X3257113Y4468548D1*
Y4474296D1*
X3259015Y4478099D1*
X3262861Y4481945D1*
X3268565Y4483847D1*
X3276214Y4485748D1*
X3280061Y4487693D1*
X3281962Y4491496D1*
Y4495343D1*
X3280061Y4499145D1*
X3274313Y4501046D1*
X3266664D1*
X3623712Y4258579D2*
X3625658Y4254732D1*
X3631361Y4248984D1*
X3591214D1*
X3631361Y4213685D2*
Y4232786D1*
X3614162Y4234687D1*
X3616063Y4232786D1*
X3618008Y4227038D1*
Y4221334D1*
X3616063Y4215586D1*
X3612260Y4211739D1*
X3606512Y4209838D1*
X3602710D1*
X3596962Y4211739D1*
X3593115Y4215586D1*
X3591214Y4221334D1*
Y4227038D1*
X3593115Y4232786D1*
X3595060Y4234687D1*
X3598863Y4236633D1*
X3621811Y4195541D2*
X3623712D1*
X3627559Y4193640D1*
X3629460Y4191739D1*
X3631361Y4187892D1*
Y4180243D1*
X3629460Y4176440D1*
X3627559Y4174539D1*
X3623712Y4172593D1*
X3619910D1*
X3616063Y4174539D1*
X3610359Y4178341D1*
X3591214Y4197487D1*
Y4170692D1*
X3158799Y180930D2*
X3162645Y182875D1*
X3168393Y188579D1*
Y148431D1*
X3203693Y188579D2*
X3184592D1*
X3182690Y171379D1*
X3184592Y173281D1*
X3190340Y175226D1*
X3196043D1*
X3201791Y173281D1*
X3205638Y169478D1*
X3207540Y163730D1*
Y159928D1*
X3205638Y154179D1*
X3201791Y150333D1*
X3196043Y148431D1*
X3190340D1*
X3184592Y150333D1*
X3182690Y152278D1*
X3180745Y156081D1*
X3219891Y180930D2*
X3223738Y182875D1*
X3229486Y188579D1*
Y148431D1*
X3243738Y152278D2*
X3241837Y150333D1*
X3243738Y148431D1*
X3245684Y150333D1*
X3243738Y152278D1*
X3282929Y175226D2*
X3280983Y169478D1*
X3277181Y165631D1*
X3271433Y163730D1*
X3269531D1*
X3263783Y165631D1*
X3259981Y169478D1*
X3258035Y175226D1*
Y177127D1*
X3259981Y182875D1*
X3263783Y186678D1*
X3269531Y188579D1*
X3271433D1*
X3277181Y186678D1*
X3280983Y182875D1*
X3282929Y175226D1*
Y165631D1*
X3280983Y156081D1*
X3277181Y150333D1*
X3271433Y148431D1*
X3267630D1*
X3261882Y150333D1*
X3259981Y154179D1*
X3599696Y528603D2*
X3601642Y524757D1*
X3607346Y519009D1*
X3567198D1*
X3607346Y483709D2*
Y502810D1*
X3590146Y504712D1*
X3592047Y502810D1*
X3593993Y497062D1*
Y491359D1*
X3592047Y485611D1*
X3588244Y481764D1*
X3582496Y479862D1*
X3578694D1*
X3572946Y481764D1*
X3569099Y485611D1*
X3567198Y491359D1*
Y497062D1*
X3569099Y502810D1*
X3571045Y504712D1*
X3574847Y506657D1*
X3599696Y467511D2*
X3601642Y463664D1*
X3607346Y457916D1*
X3567198D1*
X3571045Y443664D2*
X3569099Y445565D1*
X3567198Y443664D1*
X3569099Y441718D1*
X3571045Y443664D1*
X3593993Y404473D2*
X3588244Y406419D1*
X3584398Y410221D1*
X3582496Y415969D1*
Y417871D1*
X3584398Y423619D1*
X3588244Y427421D1*
X3593993Y429367D1*
X3595894D1*
X3601642Y427421D1*
X3605444Y423619D1*
X3607346Y417871D1*
Y415969D1*
X3605444Y410221D1*
X3601642Y406419D1*
X3593993Y404473D1*
X3584398D1*
X3574847Y406419D1*
X3569099Y410221D1*
X3567198Y415969D1*
Y419772D1*
X3569099Y425520D1*
X3572946Y427421D1*
X409714Y201271D2*
X413561Y203217D1*
X419309Y208920D1*
Y168773D1*
X454608Y208920D2*
X435507D1*
X433606Y191721D1*
X435507Y193622D1*
X441255Y195567D1*
X446959D1*
X452707Y193622D1*
X456554Y189819D1*
X458455Y184071D1*
Y180269D1*
X456554Y174521D1*
X452707Y170674D1*
X446959Y168773D1*
X441255D1*
X435507Y170674D1*
X433606Y172619D1*
X431660Y176422D1*
X470806Y201271D2*
X474653Y203217D1*
X480401Y208920D1*
Y168773D1*
X494654Y172619D2*
X492752Y170674D1*
X494654Y168773D1*
X496599Y170674D1*
X494654Y172619D1*
X518501Y208920D2*
X512797Y207019D1*
X510852Y203217D1*
Y199370D1*
X512797Y195567D1*
X516600Y193622D1*
X524249Y191721D1*
X529997Y189819D1*
X533800Y185973D1*
X535701Y182170D1*
Y176422D1*
X533800Y172619D1*
X531898Y170674D1*
X526150Y168773D1*
X518501D1*
X512797Y170674D1*
X510852Y172619D1*
X508951Y176422D1*
Y182170D1*
X510852Y185973D1*
X514699Y189819D1*
X520402Y191721D1*
X528052Y193622D1*
X531898Y195567D1*
X533800Y199370D1*
Y203217D1*
X531898Y207019D1*
X526150Y208920D1*
X518501D1*
X124845Y410656D2*
X122899Y414502D1*
X117195Y420250D1*
X157343D1*
X117195Y455550D2*
Y436449D1*
X134395Y434547D1*
X132494Y436449D1*
X130549Y442197D1*
Y447900D1*
X132494Y453648D1*
X136297Y457495D1*
X142045Y459396D1*
X145847D1*
X151595Y457495D1*
X155442Y453648D1*
X157343Y447900D1*
Y442197D1*
X155442Y436449D1*
X153497Y434547D1*
X149694Y432602D1*
X124845Y471748D2*
X122899Y475595D1*
X117195Y481343D1*
X157343D1*
X153497Y495595D2*
X155442Y493694D1*
X157343Y495595D1*
X155442Y497541D1*
X153497Y495595D1*
X130549Y534786D2*
X136297Y532840D1*
X140143Y529038D1*
X142045Y523290D1*
Y521388D1*
X140143Y515640D1*
X136297Y511838D1*
X130549Y509892D1*
X128647D1*
X122899Y511838D1*
X119097Y515640D1*
X117195Y521388D1*
Y523290D1*
X119097Y529038D1*
X122899Y532840D1*
X130549Y534786D1*
X140143D1*
X149694Y532840D1*
X155442Y529038D1*
X157343Y523290D1*
Y519487D1*
X155442Y513739D1*
X151595Y511838D1*
X1777569Y4745433D2*
Y4747334D1*
X1779470Y4751181D1*
X1781371Y4753082D1*
X1785218Y4754983D1*
X1792867D1*
X1796670Y4753082D1*
X1798571Y4751181D1*
X1800516Y4747334D1*
Y4743532D1*
X1798571Y4739685D1*
X1794768Y4733981D1*
X1775623Y4714836D1*
X1802418D1*
X1839663Y4741630D2*
X1837717Y4735882D1*
X1833914Y4732036D1*
X1828166Y4730134D1*
X1826265D1*
X1820517Y4732036D1*
X1816715Y4735882D1*
X1814769Y4741630D1*
Y4743532D1*
X1816715Y4749280D1*
X1820517Y4753082D1*
X1826265Y4754983D1*
X1828166D1*
X1833914Y4753082D1*
X1837717Y4749280D1*
X1839663Y4741630D1*
Y4732036D1*
X1837717Y4722485D1*
X1833914Y4716737D1*
X1828166Y4714836D1*
X1824364D1*
X1818616Y4716737D1*
X1816715Y4720584D1*
X1863510Y4754983D2*
X1857762Y4753082D1*
X1853915Y4747334D1*
X1852014Y4737784D1*
Y4732036D1*
X1853915Y4722485D1*
X1857762Y4716737D1*
X1863510Y4714836D1*
X1867313D1*
X1873061Y4716737D1*
X1876863Y4722485D1*
X1878809Y4732036D1*
Y4737784D1*
X1876863Y4747334D1*
X1873061Y4753082D1*
X1867313Y4754983D1*
X1863510D1*
X1876863Y4747334D2*
X1853915Y4722485D1*
X1902656Y4754983D2*
X1896908Y4753082D1*
X1893061Y4747334D1*
X1891160Y4737784D1*
Y4732036D1*
X1893061Y4722485D1*
X1896908Y4716737D1*
X1902656Y4714836D1*
X1906459D1*
X1912207Y4716737D1*
X1916009Y4722485D1*
X1917955Y4732036D1*
Y4737784D1*
X1916009Y4747334D1*
X1912207Y4753082D1*
X1906459Y4754983D1*
X1902656D1*
X1916009Y4747334D2*
X1893061Y4722485D1*
X2509849Y5084867D2*
X2513696Y5086812D1*
X2519444Y5092516D1*
Y5052368D1*
X2550940D2*
Y5092516D1*
X2531795Y5065766D1*
X2560491D1*
X2591988Y5052368D2*
Y5092516D1*
X2572842Y5065766D1*
X2601538D1*
X2617736Y5092516D2*
X2638739D1*
X2627287Y5077218D1*
X2633035D1*
X2636838Y5075316D1*
X2638739Y5073415D1*
X2640684Y5067667D1*
Y5063865D1*
X2638739Y5058116D1*
X2634936Y5054270D1*
X2629188Y5052368D1*
X2623440D1*
X2617736Y5054270D1*
X2615835Y5056215D1*
X2613890Y5060018D1*
X2509849Y111507D2*
X2513696Y113453D1*
X2519444Y119157D1*
Y79009D1*
X2550940D2*
Y119157D1*
X2531795Y92406D1*
X2560491D1*
X2591988Y79009D2*
Y119157D1*
X2572842Y92406D1*
X2601538D1*
X2617736Y119157D2*
X2638739D1*
X2627287Y103858D1*
X2633035D1*
X2636838Y101957D1*
X2638739Y100056D1*
X2640684Y94307D1*
Y90505D1*
X2638739Y84757D1*
X2634936Y80910D1*
X2629188Y79009D1*
X2623440D1*
X2617736Y80910D1*
X2615835Y82856D1*
X2613890Y86658D1*
X-34015Y1399300D2*
X-35916D1*
X-39763Y1401201D1*
X-41664Y1403103D1*
X-43566Y1406949D1*
Y1414599D1*
X-41664Y1418401D1*
X-39763Y1420303D1*
X-35916Y1422248D1*
X-32114D1*
X-28267Y1420303D1*
X-22563Y1416500D1*
X-3418Y1397355D1*
Y1424149D1*
X-35916Y1436501D2*
X-37862Y1440347D1*
X-43566Y1446095D1*
X-3418D1*
X-43566Y1467997D2*
X-41664Y1462294D1*
X-37862Y1460348D1*
X-34015D1*
X-30213Y1462294D1*
X-28267Y1466096D1*
X-26366Y1473745D1*
X-24465Y1479494D1*
X-20618Y1483296D1*
X-16815Y1485197D1*
X-11067D1*
X-7265Y1483296D1*
X-5319Y1481395D1*
X-3418Y1475647D1*
Y1467997D1*
X-5319Y1462294D1*
X-7265Y1460348D1*
X-11067Y1458447D1*
X-16815D1*
X-20618Y1460348D1*
X-24465Y1464195D1*
X-26366Y1469899D1*
X-28267Y1477548D1*
X-30213Y1481395D1*
X-34015Y1483296D1*
X-37862D1*
X-41664Y1481395D1*
X-43566Y1475647D1*
Y1467997D1*
Y1501395D2*
Y1522398D1*
X-28267Y1510946D1*
Y1516694D1*
X-26366Y1520497D1*
X-24465Y1522398D1*
X-18717Y1524343D1*
X-14914D1*
X-9166Y1522398D1*
X-5319Y1518595D1*
X-3418Y1512847D1*
Y1507099D1*
X-5319Y1501395D1*
X-7265Y1499494D1*
X-11067Y1497549D1*
X-7265Y1538596D2*
X-5319Y1536695D1*
X-3418Y1538596D1*
X-5319Y1540542D1*
X-7265Y1538596D1*
X-43566Y1575841D2*
Y1556740D1*
X-26366Y1554838D1*
X-28267Y1556740D1*
X-30213Y1562488D1*
Y1568192D1*
X-28267Y1573940D1*
X-24465Y1577786D1*
X-18717Y1579688D1*
X-14914D1*
X-9166Y1577786D1*
X-5319Y1573940D1*
X-3418Y1568192D1*
Y1562488D1*
X-5319Y1556740D1*
X-7265Y1554838D1*
X-11067Y1552893D1*
X548634Y2230799D2*
X552481Y2232744D1*
X558229Y2238448D1*
Y2198300D1*
X582076Y2238448D2*
X576328Y2236547D1*
X572481Y2230799D1*
X570580Y2221248D1*
Y2215500D1*
X572481Y2205950D1*
X576328Y2200201D1*
X582076Y2198300D1*
X585879D1*
X591627Y2200201D1*
X595429Y2205950D1*
X597375Y2215500D1*
Y2221248D1*
X595429Y2230799D1*
X591627Y2236547D1*
X585879Y2238448D1*
X582076D1*
X595429Y2230799D2*
X572481Y2205950D1*
X632674Y2232744D2*
X630773Y2236547D1*
X625025Y2238448D1*
X621222D1*
X615474Y2236547D1*
X611627Y2230799D1*
X609726Y2221248D1*
Y2211698D1*
X611627Y2204048D1*
X615474Y2200201D1*
X621222Y2198300D1*
X623123D1*
X628827Y2200201D1*
X632674Y2204048D1*
X634575Y2209796D1*
Y2211698D1*
X632674Y2217446D1*
X628827Y2221248D1*
X623123Y2223149D1*
X621222D1*
X615474Y2221248D1*
X611627Y2217446D1*
X609726Y2211698D1*
X648828Y2202147D2*
X646927Y2200201D1*
X648828Y2198300D1*
X650773Y2200201D1*
X648828Y2202147D1*
X666972Y2238448D2*
X687974D1*
X676522Y2223149D1*
X682270D1*
X686073Y2221248D1*
X687974Y2219347D1*
X689920Y2213599D1*
Y2209796D1*
X687974Y2204048D1*
X684171Y2200201D1*
X678423Y2198300D1*
X672675D1*
X666972Y2200201D1*
X665070Y2202147D1*
X663125Y2205950D1*
X70335Y522123D2*
X30188Y541268D1*
Y514474D1*
X39738Y555565D2*
X37837D1*
X33990Y557467D1*
X32089Y559368D1*
X30188Y563215D1*
Y570864D1*
X32089Y574666D1*
X33990Y576568D1*
X37837Y578513D1*
X41639D1*
X45486Y576568D1*
X51190Y572765D1*
X70335Y553620D1*
Y580414D1*
X66489Y594667D2*
X68434Y592766D1*
X70335Y594667D1*
X68434Y596613D1*
X66489Y594667D1*
X37837Y608964D2*
X35891Y612811D1*
X30188Y618559D1*
X70335D1*
X522097Y325072D2*
X541242Y365220D1*
X514447D1*
X555539Y355669D2*
Y357570D1*
X557440Y361417D1*
X559342Y363318D1*
X563188Y365220D1*
X570838D1*
X574640Y363318D1*
X576541Y361417D1*
X578487Y357570D1*
Y353768D1*
X576541Y349921D1*
X572739Y344217D1*
X553594Y325072D1*
X580388D1*
X594641Y328919D2*
X592740Y326973D1*
X594641Y325072D1*
X596586Y326973D1*
X594641Y328919D1*
X608938Y357570D2*
X612785Y359516D1*
X618533Y365220D1*
Y325072D1*
X3462605Y337418D2*
X3502752Y318273D1*
Y345067D1*
X3493202Y303976D2*
X3495103D1*
X3498950Y302075D1*
X3500851Y300173D1*
X3502752Y296327D1*
Y288677D1*
X3500851Y284875D1*
X3498950Y282973D1*
X3495103Y281028D1*
X3491301D1*
X3487454Y282973D1*
X3481750Y286776D1*
X3462605Y305921D1*
Y279127D1*
X3466451Y264874D2*
X3464506Y266775D1*
X3462605Y264874D1*
X3464506Y262928D1*
X3466451Y264874D1*
X3495103Y250577D2*
X3497049Y246730D1*
X3502752Y240982D1*
X3462605D1*
X3349984Y282552D2*
X3369129Y322700D1*
X3342335D1*
X3383426Y313149D2*
Y315051D1*
X3385327Y318897D1*
X3387229Y320799D1*
X3391075Y322700D1*
X3398725D1*
X3402527Y320799D1*
X3404429Y318897D1*
X3406374Y315051D1*
Y311248D1*
X3404429Y307401D1*
X3400626Y301698D1*
X3381481Y282552D1*
X3408275D1*
X3422528Y286399D2*
X3420627Y284453D1*
X3422528Y282552D1*
X3424474Y284453D1*
X3422528Y286399D1*
X3436825Y315051D2*
X3440672Y316996D1*
X3446420Y322700D1*
Y282552D1*
X306162Y4349984D2*
X266014Y4369129D1*
Y4342335D1*
X275565Y4383426D2*
X273664D1*
X269817Y4385327D1*
X267916Y4387229D1*
X266014Y4391075D1*
Y4398725D1*
X267916Y4402527D1*
X269817Y4404429D1*
X273664Y4406374D1*
X277466D1*
X281313Y4404429D1*
X287017Y4400626D1*
X306162Y4381481D1*
Y4408275D1*
X302315Y4422528D2*
X304261Y4420627D1*
X306162Y4422528D1*
X304261Y4424474D1*
X302315Y4422528D1*
X275565Y4438770D2*
X273664D1*
X269817Y4440672D1*
X267916Y4442573D1*
X266014Y4446420D1*
Y4454069D1*
X267916Y4457872D1*
X269817Y4459773D1*
X273664Y4461718D1*
X277466D1*
X281313Y4459773D1*
X287017Y4455970D1*
X306162Y4436825D1*
Y4463620D1*
X522215Y4436095D2*
X541360Y4476243D1*
X514566D1*
X555657Y4466693D2*
Y4468594D1*
X557558Y4472441D1*
X559460Y4474342D1*
X563306Y4476243D1*
X570956D1*
X574758Y4474342D1*
X576660Y4472441D1*
X578605Y4468594D1*
Y4464791D1*
X576660Y4460945D1*
X572857Y4455241D1*
X553712Y4436095D1*
X580506D1*
X594759Y4439942D2*
X592858Y4437997D1*
X594759Y4436095D1*
X596704Y4437997D1*
X594759Y4439942D1*
X611001Y4466693D2*
Y4468594D1*
X612903Y4472441D1*
X614804Y4474342D1*
X618651Y4476243D1*
X626300D1*
X630103Y4474342D1*
X632004Y4472441D1*
X633949Y4468594D1*
Y4464791D1*
X632004Y4460945D1*
X628201Y4455241D1*
X609056Y4436095D1*
X635851D1*
X3456043Y4165187D2*
X3496191Y4146042D1*
Y4172836D1*
X3486640Y4131745D2*
X3488541D1*
X3492388Y4129844D1*
X3494290Y4127942D1*
X3496191Y4124096D1*
Y4116446D1*
X3494290Y4112644D1*
X3492388Y4110742D1*
X3488541Y4108797D1*
X3484739D1*
X3480892Y4110742D1*
X3475188Y4114545D1*
X3456043Y4133690D1*
Y4106896D1*
X3459890Y4092643D2*
X3457944Y4094544D1*
X3456043Y4092643D1*
X3457944Y4090698D1*
X3459890Y4092643D1*
X3486640Y4076401D2*
X3488541D1*
X3492388Y4074499D1*
X3494290Y4072598D1*
X3496191Y4068751D1*
Y4061102D1*
X3494290Y4057299D1*
X3492388Y4055398D1*
X3488541Y4053453D1*
X3484739D1*
X3480892Y4055398D1*
X3475188Y4059201D1*
X3456043Y4078346D1*
Y4051551D1*
X3349984Y4386358D2*
X3369129Y4426506D1*
X3342335D1*
X3383426Y4416955D2*
Y4418856D1*
X3385327Y4422703D1*
X3387229Y4424604D1*
X3391075Y4426506D1*
X3398725D1*
X3402527Y4424604D1*
X3404429Y4422703D1*
X3406374Y4418856D1*
Y4415054D1*
X3404429Y4411207D1*
X3400626Y4405503D1*
X3381481Y4386358D1*
X3408275D1*
X3422528Y4390205D2*
X3420627Y4388259D1*
X3422528Y4386358D1*
X3424474Y4388259D1*
X3422528Y4390205D1*
X3436825Y4418856D2*
X3440672Y4420802D1*
X3446420Y4426506D1*
Y4386358D1*
X-11676Y3975676D2*
Y3956575D1*
X5524Y3954674D1*
X3623Y3956575D1*
X1677Y3962323D1*
Y3968027D1*
X3623Y3973775D1*
X7425Y3977622D1*
X13173Y3979523D1*
X16976D1*
X22724Y3977622D1*
X26571Y3973775D1*
X28472Y3968027D1*
Y3962323D1*
X26571Y3956575D1*
X24625Y3954674D1*
X20823Y3952728D1*
X-2125Y3993820D2*
X-4027D1*
X-7873Y3995721D1*
X-9775Y3997622D1*
X-11676Y4001469D1*
Y4009118D1*
X-9775Y4012921D1*
X-7873Y4014822D1*
X-4027Y4016768D1*
X-224D1*
X3623Y4014822D1*
X9327Y4011020D1*
X28472Y3991874D1*
Y4018669D1*
Y4038670D2*
X-11676Y4057815D1*
Y4031020D1*
X24625Y4072068D2*
X26571Y4070166D1*
X28472Y4072068D1*
X26571Y4074013D1*
X24625Y4072068D1*
X28472Y4094014D2*
X-11676Y4113159D1*
Y4086365D1*
X565784Y3982313D2*
X563839Y3976565D1*
X560036Y3972718D1*
X554288Y3970817D1*
X552387D1*
X546639Y3972718D1*
X542837Y3976565D1*
X540891Y3982313D1*
Y3984214D1*
X542837Y3989962D1*
X546639Y3993765D1*
X552387Y3995666D1*
X554288D1*
X560036Y3993765D1*
X563839Y3989962D1*
X565784Y3982313D1*
Y3972718D1*
X563839Y3963167D1*
X560036Y3957419D1*
X554288Y3955518D1*
X550486D1*
X544738Y3957419D1*
X542837Y3961266D1*
X587686Y3995666D2*
X581983Y3993765D1*
X580037Y3989962D1*
Y3986115D1*
X581983Y3982313D1*
X585785Y3980367D1*
X593434Y3978466D1*
X599182Y3976565D1*
X602985Y3972718D1*
X604886Y3968915D1*
Y3963167D1*
X602985Y3959365D1*
X601084Y3957419D1*
X595336Y3955518D1*
X587686D1*
X581983Y3957419D1*
X580037Y3959365D1*
X578136Y3963167D1*
Y3968915D1*
X580037Y3972718D1*
X583884Y3976565D1*
X589588Y3978466D1*
X597237Y3980367D1*
X601084Y3982313D1*
X602985Y3986115D1*
Y3989962D1*
X601084Y3993765D1*
X595336Y3995666D1*
X587686D1*
X619139Y3959365D2*
X617238Y3957419D1*
X619139Y3955518D1*
X621084Y3957419D1*
X619139Y3959365D1*
X656384Y3989962D2*
X654482Y3993765D1*
X648734Y3995666D1*
X644932D1*
X639184Y3993765D1*
X635337Y3988017D1*
X633436Y3978466D1*
Y3968915D1*
X635337Y3961266D1*
X639184Y3957419D1*
X644932Y3955518D1*
X646833D1*
X652537Y3957419D1*
X656384Y3961266D1*
X658285Y3967014D1*
Y3968915D1*
X656384Y3974663D1*
X652537Y3978466D1*
X646833Y3980367D1*
X644932D1*
X639184Y3978466D1*
X635337Y3974663D1*
X633436Y3968915D1*
X510036Y3869691D2*
Y3909839D1*
X490891Y3883089D1*
X519587D1*
X541489Y3909839D2*
X535785Y3907938D1*
X533840Y3904135D1*
Y3900288D1*
X535785Y3896486D1*
X539588Y3894540D1*
X547237Y3892639D1*
X552985Y3890738D1*
X556788Y3886891D1*
X558689Y3883089D1*
Y3877341D1*
X556788Y3873538D1*
X554886Y3871593D1*
X549138Y3869691D1*
X541489D1*
X535785Y3871593D1*
X533840Y3873538D1*
X531938Y3877341D1*
Y3883089D1*
X533840Y3886891D1*
X537686Y3890738D1*
X543390Y3892639D1*
X551040Y3894540D1*
X554886Y3896486D1*
X556788Y3900288D1*
Y3904135D1*
X554886Y3907938D1*
X549138Y3909839D1*
X541489D1*
X572942Y3873538D2*
X571040Y3871593D1*
X572942Y3869691D1*
X574887Y3871593D1*
X572942Y3873538D1*
X610186Y3904135D2*
X608285Y3907938D1*
X602537Y3909839D1*
X598734D1*
X592986Y3907938D1*
X589140Y3902190D1*
X587238Y3892639D1*
Y3883089D1*
X589140Y3875439D1*
X592986Y3871593D1*
X598734Y3869691D1*
X600636D1*
X606340Y3871593D1*
X610186Y3875439D1*
X612088Y3881187D1*
Y3883089D1*
X610186Y3888837D1*
X606340Y3892639D1*
X600636Y3894540D1*
X598734D1*
X592986Y3892639D1*
X589140Y3888837D1*
X587238Y3883089D1*
X3631785Y2839958D2*
X3633686D1*
X3637533Y2838056D1*
X3639434Y2836155D1*
X3641335Y2832308D1*
Y2824659D1*
X3639434Y2820857D1*
X3637533Y2818955D1*
X3633686Y2817010D1*
X3629883D1*
X3626037Y2818955D1*
X3620333Y2822758D1*
X3601187Y2841903D1*
Y2815108D1*
X3631785Y2800812D2*
X3633686D1*
X3637533Y2798910D1*
X3639434Y2797009D1*
X3641335Y2793162D1*
Y2785513D1*
X3639434Y2781710D1*
X3637533Y2779809D1*
X3633686Y2777864D1*
X3629883D1*
X3626037Y2779809D1*
X3620333Y2783612D1*
X3601187Y2802757D1*
Y2775962D1*
X3635631Y2740663D2*
X3639434Y2742564D1*
X3641335Y2748312D1*
Y2752115D1*
X3639434Y2757863D1*
X3633686Y2761710D1*
X3624135Y2763611D1*
X3614585D1*
X3606935Y2761710D1*
X3603089Y2757863D1*
X3601187Y2752115D1*
Y2750214D1*
X3603089Y2744510D1*
X3606935Y2740663D1*
X3612683Y2738762D1*
X3614585D1*
X3620333Y2740663D1*
X3624135Y2744510D1*
X3626037Y2750214D1*
Y2752115D1*
X3624135Y2757863D1*
X3620333Y2761710D1*
X3614585Y2763611D1*
X3605034Y2724509D2*
X3603089Y2726410D1*
X3601187Y2724509D1*
X3603089Y2722564D1*
X3605034Y2724509D1*
X3641335Y2687264D2*
Y2706366D1*
X3624135Y2708267D1*
X3626037Y2706366D1*
X3627982Y2700618D1*
Y2694914D1*
X3626037Y2689166D1*
X3622234Y2685319D1*
X3616486Y2683418D1*
X3612683D1*
X3606935Y2685319D1*
X3603089Y2689166D1*
X3601187Y2694914D1*
Y2700618D1*
X3603089Y2706366D1*
X3605034Y2708267D1*
X3608837Y2710212D1*
X3684540Y1976047D2*
X3686442D1*
X3690288Y1974146D1*
X3692190Y1972244D1*
X3694091Y1968398D1*
Y1960748D1*
X3692190Y1956946D1*
X3690288Y1955044D1*
X3686442Y1953099D1*
X3682639D1*
X3678792Y1955044D1*
X3673089Y1958847D1*
X3653943Y1977992D1*
Y1951198D1*
X3684540Y1936901D2*
X3686442D1*
X3690288Y1935000D1*
X3692190Y1933098D1*
X3694091Y1929252D1*
Y1921602D1*
X3692190Y1917800D1*
X3690288Y1915898D1*
X3686442Y1913953D1*
X3682639D1*
X3678792Y1915898D1*
X3673089Y1919701D1*
X3653943Y1938846D1*
Y1912052D1*
X3688387Y1876752D2*
X3692190Y1878654D1*
X3694091Y1884402D1*
Y1888204D1*
X3692190Y1893952D1*
X3686442Y1897799D1*
X3676891Y1899700D1*
X3667341D1*
X3659691Y1897799D1*
X3655845Y1893952D1*
X3653943Y1888204D1*
Y1886303D1*
X3655845Y1880599D1*
X3659691Y1876752D1*
X3665439Y1874851D1*
X3667341D1*
X3673089Y1876752D1*
X3676891Y1880599D1*
X3678792Y1886303D1*
Y1888204D1*
X3676891Y1893952D1*
X3673089Y1897799D1*
X3667341Y1899700D1*
X3657790Y1860598D2*
X3655845Y1862500D1*
X3653943Y1860598D1*
X3655845Y1858653D1*
X3657790Y1860598D1*
X3694091Y1823354D2*
Y1842455D1*
X3676891Y1844356D1*
X3678792Y1842455D1*
X3680738Y1836707D1*
Y1831003D1*
X3678792Y1825255D1*
X3674990Y1821408D1*
X3669242Y1819507D1*
X3665439D1*
X3659691Y1821408D1*
X3655845Y1825255D1*
X3653943Y1831003D1*
Y1836707D1*
X3655845Y1842455D1*
X3657790Y1844356D1*
X3661593Y1846302D1*
X2985459Y2834376D2*
X2987360D1*
X2991207Y2832475D1*
X2993108Y2830574D1*
X2995010Y2826727D1*
Y2819078D1*
X2993108Y2815275D1*
X2991207Y2813374D1*
X2987360Y2811428D1*
X2983558D1*
X2979711Y2813374D1*
X2974007Y2817176D1*
X2954862Y2836322D1*
Y2809527D1*
X2987360Y2797176D2*
X2989306Y2793329D1*
X2995010Y2787581D1*
X2954862D1*
X2989306Y2752281D2*
X2993108Y2754183D1*
X2995010Y2759931D1*
Y2763733D1*
X2993108Y2769481D1*
X2987360Y2773328D1*
X2977810Y2775229D1*
X2968259D1*
X2960610Y2773328D1*
X2956763Y2769481D1*
X2954862Y2763733D1*
Y2761832D1*
X2956763Y2756128D1*
X2960610Y2752281D1*
X2966358Y2750380D1*
X2968259D1*
X2974007Y2752281D1*
X2977810Y2756128D1*
X2979711Y2761832D1*
Y2763733D1*
X2977810Y2769481D1*
X2974007Y2773328D1*
X2968259Y2775229D1*
X2958709Y2736127D2*
X2956763Y2738029D1*
X2954862Y2736127D1*
X2956763Y2734182D1*
X2958709Y2736127D1*
X2954862Y2714181D2*
X2995010Y2695036D1*
Y2721831D1*
X2948773Y3675325D2*
X2969775D1*
X2958323Y3660026D1*
X2964071D1*
X2967874Y3658125D1*
X2969775Y3656223D1*
X2971721Y3650475D1*
Y3646673D1*
X2969775Y3640925D1*
X2965973Y3637078D1*
X2960225Y3635177D1*
X2954476D1*
X2948773Y3637078D1*
X2946871Y3639024D1*
X2944926Y3642826D1*
X2995568Y3675325D2*
X2989820Y3673423D1*
X2985973Y3667675D1*
X2984072Y3658125D1*
Y3652377D1*
X2985973Y3642826D1*
X2989820Y3637078D1*
X2995568Y3635177D1*
X2999371D1*
X3005119Y3637078D1*
X3008921Y3642826D1*
X3010867Y3652377D1*
Y3658125D1*
X3008921Y3667675D1*
X3005119Y3673423D1*
X2999371Y3675325D1*
X2995568D1*
X3008921Y3667675D2*
X2985973Y3642826D1*
X3034714Y3675325D2*
X3028966Y3673423D1*
X3025119Y3667675D1*
X3023218Y3658125D1*
Y3652377D1*
X3025119Y3642826D1*
X3028966Y3637078D1*
X3034714Y3635177D1*
X3038517D1*
X3044265Y3637078D1*
X3048067Y3642826D1*
X3050013Y3652377D1*
Y3658125D1*
X3048067Y3667675D1*
X3044265Y3673423D1*
X3038517Y3675325D1*
X3034714D1*
X3048067Y3667675D2*
X3025119Y3642826D1*
X3064265Y3639024D2*
X3062364Y3637078D1*
X3064265Y3635177D1*
X3066211Y3637078D1*
X3064265Y3639024D1*
X3078562Y3667675D2*
X3082409Y3669621D1*
X3088157Y3675325D1*
Y3635177D1*
M02*
