G04 DipTrace 3.0.0.1*
G04 TopSilk.gbr*
%MOIN*%
G04 #@! TF.FileFunction,Legend,Top*
G04 #@! TF.Part,Single*
%ADD10C,0.01*%
%ADD12C,0.003*%
%ADD15C,0.02*%
%ADD29O,0.033333X0.035827*%
%ADD38C,0.018113*%
%ADD40C,0.018111*%
%ADD69C,0.006176*%
%ADD70C,0.015439*%
%ADD71C,0.004632*%
%FSLAX26Y26*%
G04*
G70*
G90*
G75*
G01*
G04 TopSilk*
%LPD*%
X3163507Y3516418D2*
D10*
X2837007D1*
Y2879016D1*
X3163507D1*
Y3516418D1*
X3170870Y2652481D2*
X2844370D1*
Y2015079D1*
X3170870D1*
Y2652481D1*
X3171775Y1788596D2*
X2845275D1*
Y1151194D1*
X3171775D1*
Y1788596D1*
X523488Y1122205D2*
X849988D1*
Y1759607D1*
X523488D1*
Y1122205D1*
X1940026Y3527100D2*
X2830026D1*
Y2877100D2*
Y3527100D1*
Y2877100D2*
X1940026D1*
Y3527100D2*
Y2877100D1*
X2215036Y3437075D2*
X2240045D1*
Y3227125D1*
X2190027D1*
Y3202100D1*
Y3177075D1*
X2290063D2*
Y3227125D1*
X2240045D1*
X2190027Y3177075D2*
X2240045D1*
Y2967125D1*
Y3177075D2*
X2290063D1*
X2240045Y2967125D2*
X2215036D1*
X2190027Y3177075D2*
X2290063Y3227125D1*
X2314983Y3202100D2*
X2575041D1*
X2600050Y3227125D1*
Y3349130D2*
Y3227125D1*
Y3177075D2*
Y3054095D1*
Y3227125D2*
X2613044Y3239085D1*
X2125057Y3202100D2*
X2165018D1*
X1948294Y2660433D2*
X2838294D1*
Y2010433D2*
Y2660433D1*
Y2010433D2*
X1948294D1*
Y2660433D2*
Y2010433D1*
X2223304Y2570408D2*
X2248313D1*
Y2360458D1*
X2198295D1*
Y2335433D1*
Y2310408D1*
X2298331D2*
Y2360458D1*
X2248313D1*
X2198295Y2310408D2*
X2248313D1*
Y2100458D1*
Y2310408D2*
X2298331D1*
X2248313Y2100458D2*
X2223304D1*
X2198295Y2310408D2*
X2298331Y2360458D1*
X2323251Y2335433D2*
X2583309D1*
X2608318Y2360458D1*
Y2482463D2*
Y2360458D1*
Y2310408D2*
Y2187428D1*
Y2360458D2*
X2621312Y2372418D1*
X2133325Y2335433D2*
X2173286D1*
X1948032Y1793504D2*
X2838032D1*
Y1143504D2*
Y1793504D1*
Y1143504D2*
X1948032D1*
Y1793504D2*
Y1143504D1*
X2223042Y1703479D2*
X2248051D1*
Y1493529D1*
X2198033D1*
Y1468504D1*
Y1443479D1*
X2298069D2*
Y1493529D1*
X2248051D1*
X2198033Y1443479D2*
X2248051D1*
Y1233529D1*
Y1443479D2*
X2298069D1*
X2248051Y1233529D2*
X2223042D1*
X2198033Y1443479D2*
X2298069Y1493529D1*
X2322989Y1468504D2*
X2583047D1*
X2608056Y1493529D1*
Y1615534D2*
Y1493529D1*
Y1443479D2*
Y1320499D1*
Y1493529D2*
X2621050Y1505489D1*
X2133063Y1468504D2*
X2173024D1*
X1747900Y1118307D2*
X857900D1*
Y1768307D2*
Y1118307D1*
Y1768307D2*
X1747900D1*
Y1118307D2*
Y1768307D1*
X1472890Y1208332D2*
X1447881D1*
Y1418282D1*
X1497899D1*
Y1443307D1*
Y1468332D1*
X1397863D2*
Y1418282D1*
X1447881D1*
X1497899Y1468332D2*
X1447881D1*
Y1678282D1*
Y1468332D2*
X1397863D1*
X1447881Y1678282D2*
X1472890D1*
X1497899Y1468332D2*
X1397863Y1418282D1*
X1372943Y1443307D2*
X1112885D1*
X1087876Y1418282D1*
Y1296277D2*
Y1418282D1*
Y1468332D2*
Y1591312D1*
Y1418282D2*
X1074882Y1406322D1*
X1562869Y1443307D2*
X1522908D1*
X2225215Y3613143D2*
Y3664285D1*
X2223509Y2741752D2*
Y2792894D1*
X2218916Y1860650D2*
Y1911792D1*
X1527840Y964324D2*
Y1015466D1*
X442257Y2516011D2*
X642257D1*
X442257Y3816011D2*
X642257D1*
Y2516011D1*
X442257Y3816011D2*
Y2516011D1*
X1019554Y3453942D2*
X814830D1*
Y3249208D1*
X1019554D1*
Y3327949D1*
Y3375201D2*
Y3453942D1*
Y3375201D2*
G03X1019554Y3327949I1J-23626D01*
G01*
X1023622Y3029663D2*
X818898D1*
Y2824930D1*
X1023622D1*
Y2903671D1*
Y2950923D2*
Y3029663D1*
Y2950923D2*
G03X1023622Y2903671I1J-23626D01*
G01*
X1024278Y2604991D2*
X819554D1*
Y2400258D1*
X1024278D1*
Y2478999D1*
Y2526251D2*
Y2604991D1*
Y2526251D2*
G03X1024278Y2478999I1J-23626D01*
G01*
X1026772Y2178351D2*
X822047D1*
Y1973618D1*
X1026772D1*
Y2052359D1*
Y2099610D2*
Y2178351D1*
Y2099610D2*
G03X1026772Y2052359I1J-23626D01*
G01*
X1120473Y3420341D2*
X1100782Y3440029D1*
X1140163D2*
X1120473Y3459718D1*
X1100782Y3440029D1*
X1091347Y3343394D2*
G02X1091347Y3343394I113949J0D01*
G01*
X1284383Y3017585D2*
X1304071Y3037276D1*
Y2997895D2*
X1323760Y3017585D1*
X1304071Y3037276D1*
X1093484Y2932761D2*
G02X1093484Y2932761I113952J0D01*
G01*
X1288910Y2585236D2*
X1308599Y2604927D1*
Y2565546D2*
X1328288Y2585236D1*
X1308599Y2604927D1*
X1098012Y2500412D2*
G02X1098012Y2500412I113952J0D01*
G01*
X1269422Y2160368D2*
X1289111Y2180058D1*
Y2140677D2*
X1308799Y2160368D1*
X1289111Y2180058D1*
X1078524Y2075544D2*
G02X1078524Y2075544I113952J0D01*
G01*
X1979918Y3624535D2*
X1994885D1*
Y3737136D1*
X1979918D1*
Y3624535D1*
D38*
X2007485Y3606825D3*
X2046847Y2696319D2*
D10*
X2061814D1*
Y2808920D1*
X2046847D1*
Y2696319D1*
D38*
X2074414Y2678610D3*
X2038317Y1842645D2*
D10*
X2053284D1*
Y1955246D1*
X2038317D1*
Y1842645D1*
D38*
X2065884Y1824935D3*
X1623891Y1903409D2*
D10*
X1511290D1*
Y1918376D1*
X1623891D1*
Y1903409D1*
D40*
X1641601Y1930976D3*
X1157874Y3807218D2*
D10*
Y3907218D1*
X757874Y3807218D2*
X1157874D1*
X757874Y3907218D2*
X1157874D1*
X757874Y3807218D2*
Y3907218D1*
X3164698Y3398688D2*
D15*
X3234777D1*
X3235171Y3270735D1*
X3226903Y3256299D2*
X3226922Y3256840D1*
X3226980Y3257377D1*
X3227077Y3257909D1*
X3227211Y3258434D1*
X3227382Y3258948D1*
X3227590Y3259449D1*
X3227832Y3259934D1*
X3228110Y3260402D1*
X3228419Y3260851D1*
X3228761Y3261276D1*
X3229131Y3261678D1*
X3229530Y3262053D1*
X3229955Y3262401D1*
X3230403Y3262718D1*
X3230873Y3263005D1*
X3231362Y3263259D1*
X3231868Y3263478D1*
X3232389Y3263663D1*
X3232922Y3263812D1*
X3233464Y3263925D1*
X3234013Y3264000D1*
X3234566Y3264037D1*
X3235120D1*
X3235673Y3264000D1*
X3236221Y3263925D1*
X3236764Y3263812D1*
X3237296Y3263663D1*
X3237817Y3263478D1*
X3238323Y3263259D1*
X3238813Y3263005D1*
X3239283Y3262718D1*
X3239731Y3262401D1*
X3240155Y3262053D1*
X3240554Y3261678D1*
X3240925Y3261276D1*
X3241266Y3260851D1*
X3241576Y3260402D1*
X3241853Y3259934D1*
X3242096Y3259449D1*
X3242304Y3258948D1*
X3242475Y3258434D1*
X3242609Y3257909D1*
X3242705Y3257377D1*
X3242763Y3256840D1*
X3242782Y3256299D1*
X3242763Y3255759D1*
X3242705Y3255222D1*
X3242609Y3254690D1*
X3242475Y3254165D1*
X3242304Y3253651D1*
X3242096Y3253150D1*
X3241853Y3252664D1*
X3241576Y3252196D1*
X3241266Y3251748D1*
X3240925Y3251322D1*
X3240554Y3250921D1*
X3240155Y3250545D1*
X3239731Y3250198D1*
X3239283Y3249880D1*
X3238813Y3249594D1*
X3238323Y3249340D1*
X3237817Y3249120D1*
X3237296Y3248936D1*
X3236764Y3248787D1*
X3236221Y3248674D1*
X3235673Y3248599D1*
X3235120Y3248561D1*
X3234566D1*
X3234013Y3248599D1*
X3233464Y3248674D1*
X3232922Y3248787D1*
X3232389Y3248936D1*
X3231868Y3249120D1*
X3231362Y3249340D1*
X3230873Y3249594D1*
X3230403Y3249880D1*
X3229955Y3250198D1*
X3229530Y3250545D1*
X3229131Y3250921D1*
X3228761Y3251322D1*
X3228419Y3251748D1*
X3228110Y3252196D1*
X3227832Y3252664D1*
X3227590Y3253150D1*
X3227382Y3253651D1*
X3227211Y3254165D1*
X3227077Y3254690D1*
X3226980Y3255222D1*
X3226922Y3255759D1*
X3226903Y3256299D1*
X3235171Y3254856D2*
X3164961Y3206693D1*
X3159974Y3002231D2*
X3237927Y3002887D1*
X3237664Y3002494D2*
X3238058Y3084383D1*
X3230184Y3095538D2*
X3230203Y3096078D1*
X3230261Y3096616D1*
X3230357Y3097148D1*
X3230492Y3097672D1*
X3230663Y3098186D1*
X3230870Y3098688D1*
X3231113Y3099173D1*
X3231390Y3099641D1*
X3231700Y3100089D1*
X3232041Y3100515D1*
X3232412Y3100917D1*
X3232811Y3101292D1*
X3233235Y3101640D1*
X3233684Y3101957D1*
X3234154Y3102244D1*
X3234643Y3102497D1*
X3235149Y3102717D1*
X3235670Y3102902D1*
X3236203Y3103051D1*
X3236745Y3103163D1*
X3237294Y3103239D1*
X3237846Y3103276D1*
X3238401D1*
X3238953Y3103239D1*
X3239502Y3103163D1*
X3240044Y3103051D1*
X3240577Y3102902D1*
X3241098Y3102717D1*
X3241604Y3102497D1*
X3242093Y3102244D1*
X3242563Y3101957D1*
X3243012Y3101640D1*
X3243436Y3101292D1*
X3243835Y3100917D1*
X3244206Y3100515D1*
X3244547Y3100089D1*
X3244857Y3099641D1*
X3245134Y3099173D1*
X3245377Y3098688D1*
X3245584Y3098186D1*
X3245756Y3097672D1*
X3245890Y3097148D1*
X3245986Y3096616D1*
X3246044Y3096078D1*
X3246063Y3095538D1*
X3246044Y3094998D1*
X3245986Y3094461D1*
X3245890Y3093928D1*
X3245756Y3093404D1*
X3245584Y3092890D1*
X3245377Y3092389D1*
X3245134Y3091903D1*
X3244857Y3091435D1*
X3244547Y3090987D1*
X3244206Y3090561D1*
X3243835Y3090160D1*
X3243436Y3089784D1*
X3243012Y3089437D1*
X3242563Y3089119D1*
X3242093Y3088833D1*
X3241604Y3088579D1*
X3241098Y3088359D1*
X3240577Y3088174D1*
X3240044Y3088025D1*
X3239502Y3087913D1*
X3238953Y3087838D1*
X3238401Y3087800D1*
X3237846D1*
X3237294Y3087838D1*
X3236745Y3087913D1*
X3236203Y3088025D1*
X3235670Y3088174D1*
X3235149Y3088359D1*
X3234643Y3088579D1*
X3234154Y3088833D1*
X3233684Y3089119D1*
X3233235Y3089437D1*
X3232811Y3089784D1*
X3232412Y3090160D1*
X3232041Y3090561D1*
X3231700Y3090987D1*
X3231390Y3091435D1*
X3231113Y3091903D1*
X3230870Y3092389D1*
X3230663Y3092890D1*
X3230492Y3093404D1*
X3230357Y3093928D1*
X3230261Y3094461D1*
X3230203Y3094998D1*
X3230184Y3095538D1*
X3173097Y2531103D2*
X3243176D1*
X3243570Y2403150D1*
X3235302Y2388714D2*
X3235321Y2389254D1*
X3235379Y2389792D1*
X3235476Y2390324D1*
X3235610Y2390848D1*
X3235781Y2391362D1*
X3235988Y2391863D1*
X3236231Y2392349D1*
X3236508Y2392817D1*
X3236818Y2393265D1*
X3237160Y2393691D1*
X3237530Y2394093D1*
X3237929Y2394468D1*
X3238354Y2394816D1*
X3238802Y2395133D1*
X3239272Y2395420D1*
X3239761Y2395673D1*
X3240267Y2395893D1*
X3240788Y2396078D1*
X3241321Y2396227D1*
X3241863Y2396339D1*
X3242412Y2396414D1*
X3242965Y2396452D1*
X3243519D1*
X3244072Y2396414D1*
X3244620Y2396339D1*
X3245162Y2396227D1*
X3245695Y2396078D1*
X3246216Y2395893D1*
X3246722Y2395673D1*
X3247211Y2395420D1*
X3247681Y2395133D1*
X3248130Y2394816D1*
X3248554Y2394468D1*
X3248953Y2394093D1*
X3249324Y2393691D1*
X3249665Y2393265D1*
X3249975Y2392817D1*
X3250252Y2392349D1*
X3250495Y2391863D1*
X3250702Y2391362D1*
X3250874Y2390848D1*
X3251008Y2390324D1*
X3251104Y2389792D1*
X3251162Y2389254D1*
X3251181Y2388714D1*
X3251162Y2388174D1*
X3251104Y2387637D1*
X3251008Y2387104D1*
X3250874Y2386580D1*
X3250702Y2386066D1*
X3250495Y2385565D1*
X3250252Y2385079D1*
X3249975Y2384611D1*
X3249665Y2384163D1*
X3249324Y2383737D1*
X3248953Y2383336D1*
X3248554Y2382960D1*
X3248130Y2382613D1*
X3247681Y2382295D1*
X3247211Y2382009D1*
X3246722Y2381755D1*
X3246216Y2381535D1*
X3245695Y2381350D1*
X3245162Y2381201D1*
X3244620Y2381089D1*
X3244072Y2381014D1*
X3243519Y2380976D1*
X3242965D1*
X3242412Y2381014D1*
X3241863Y2381089D1*
X3241321Y2381201D1*
X3240788Y2381350D1*
X3240267Y2381535D1*
X3239761Y2381755D1*
X3239272Y2382009D1*
X3238802Y2382295D1*
X3238354Y2382613D1*
X3237929Y2382960D1*
X3237530Y2383336D1*
X3237160Y2383737D1*
X3236818Y2384163D1*
X3236508Y2384611D1*
X3236231Y2385079D1*
X3235988Y2385565D1*
X3235781Y2386066D1*
X3235610Y2386580D1*
X3235476Y2387104D1*
X3235379Y2387637D1*
X3235321Y2388174D1*
X3235302Y2388714D1*
X3243570Y2387271D2*
X3173360Y2339108D1*
X3168373Y2134646D2*
X3246326Y2135302D1*
X3246063Y2134908D2*
X3246457Y2216798D1*
X3238583Y2227953D2*
X3238602Y2228493D1*
X3238660Y2229031D1*
X3238756Y2229563D1*
X3238890Y2230087D1*
X3239062Y2230601D1*
X3239269Y2231102D1*
X3239512Y2231588D1*
X3239789Y2232056D1*
X3240099Y2232504D1*
X3240440Y2232930D1*
X3240811Y2233332D1*
X3241210Y2233707D1*
X3241634Y2234054D1*
X3242083Y2234372D1*
X3242553Y2234658D1*
X3243042Y2234912D1*
X3243548Y2235132D1*
X3244069Y2235317D1*
X3244602Y2235466D1*
X3245144Y2235578D1*
X3245693Y2235653D1*
X3246245Y2235691D1*
X3246800D1*
X3247352Y2235653D1*
X3247901Y2235578D1*
X3248443Y2235466D1*
X3248976Y2235317D1*
X3249497Y2235132D1*
X3250003Y2234912D1*
X3250492Y2234658D1*
X3250962Y2234372D1*
X3251411Y2234054D1*
X3251835Y2233707D1*
X3252234Y2233332D1*
X3252605Y2232930D1*
X3252946Y2232504D1*
X3253256Y2232056D1*
X3253533Y2231588D1*
X3253776Y2231102D1*
X3253983Y2230601D1*
X3254155Y2230087D1*
X3254289Y2229563D1*
X3254385Y2229031D1*
X3254443Y2228493D1*
X3254462Y2227953D1*
X3254443Y2227413D1*
X3254385Y2226875D1*
X3254289Y2226343D1*
X3254155Y2225819D1*
X3253983Y2225305D1*
X3253776Y2224804D1*
X3253533Y2224318D1*
X3253256Y2223850D1*
X3252946Y2223402D1*
X3252605Y2222976D1*
X3252234Y2222574D1*
X3251835Y2222199D1*
X3251411Y2221852D1*
X3250962Y2221534D1*
X3250492Y2221248D1*
X3250003Y2220994D1*
X3249497Y2220774D1*
X3248976Y2220589D1*
X3248443Y2220440D1*
X3247901Y2220328D1*
X3247352Y2220253D1*
X3246800Y2220215D1*
X3246245D1*
X3245693Y2220253D1*
X3245144Y2220328D1*
X3244602Y2220440D1*
X3244069Y2220589D1*
X3243548Y2220774D1*
X3243042Y2220994D1*
X3242553Y2221248D1*
X3242083Y2221534D1*
X3241634Y2221852D1*
X3241210Y2222199D1*
X3240811Y2222574D1*
X3240440Y2222976D1*
X3240099Y2223402D1*
X3239789Y2223850D1*
X3239512Y2224318D1*
X3239269Y2224804D1*
X3239062Y2225305D1*
X3238890Y2225819D1*
X3238756Y2226343D1*
X3238660Y2226875D1*
X3238602Y2227413D1*
X3238583Y2227953D1*
X3176641Y1672179D2*
X3246719D1*
X3247113Y1544226D1*
X3238845Y1529790D2*
X3238865Y1530330D1*
X3238923Y1530868D1*
X3239019Y1531400D1*
X3239153Y1531924D1*
X3239324Y1532438D1*
X3239532Y1532940D1*
X3239775Y1533425D1*
X3240052Y1533893D1*
X3240362Y1534341D1*
X3240703Y1534767D1*
X3241074Y1535169D1*
X3241472Y1535544D1*
X3241897Y1535892D1*
X3242345Y1536209D1*
X3242815Y1536496D1*
X3243304Y1536749D1*
X3243811Y1536969D1*
X3244332Y1537154D1*
X3244864Y1537303D1*
X3245406Y1537415D1*
X3245955Y1537491D1*
X3246508Y1537528D1*
X3247062D1*
X3247615Y1537491D1*
X3248164Y1537415D1*
X3248706Y1537303D1*
X3249238Y1537154D1*
X3249759Y1536969D1*
X3250265Y1536749D1*
X3250755Y1536496D1*
X3251225Y1536209D1*
X3251673Y1535892D1*
X3252098Y1535544D1*
X3252496Y1535169D1*
X3252867Y1534767D1*
X3253208Y1534341D1*
X3253518Y1533893D1*
X3253795Y1533425D1*
X3254038Y1532940D1*
X3254246Y1532438D1*
X3254417Y1531924D1*
X3254551Y1531400D1*
X3254647Y1530868D1*
X3254705Y1530330D1*
X3254725Y1529790D1*
X3254705Y1529250D1*
X3254647Y1528713D1*
X3254551Y1528180D1*
X3254417Y1527656D1*
X3254246Y1527142D1*
X3254038Y1526641D1*
X3253795Y1526155D1*
X3253518Y1525687D1*
X3253208Y1525239D1*
X3252867Y1524813D1*
X3252496Y1524412D1*
X3252098Y1524036D1*
X3251673Y1523689D1*
X3251225Y1523371D1*
X3250755Y1523085D1*
X3250265Y1522831D1*
X3249759Y1522611D1*
X3249238Y1522426D1*
X3248706Y1522277D1*
X3248164Y1522165D1*
X3247615Y1522090D1*
X3247062Y1522052D1*
X3246508D1*
X3245955Y1522090D1*
X3245406Y1522165D1*
X3244864Y1522277D1*
X3244332Y1522426D1*
X3243811Y1522611D1*
X3243304Y1522831D1*
X3242815Y1523085D1*
X3242345Y1523371D1*
X3241897Y1523689D1*
X3241472Y1524036D1*
X3241074Y1524412D1*
X3240703Y1524813D1*
X3240362Y1525239D1*
X3240052Y1525687D1*
X3239775Y1526155D1*
X3239532Y1526641D1*
X3239324Y1527142D1*
X3239153Y1527656D1*
X3239019Y1528180D1*
X3238923Y1528713D1*
X3238865Y1529250D1*
X3238845Y1529790D1*
X3247113Y1528347D2*
X3176903Y1480184D1*
X3171916Y1275722D2*
X3249869Y1276378D1*
X3249607Y1275984D2*
X3250000Y1357874D1*
X3242126Y1369029D2*
X3242146Y1369569D1*
X3242203Y1370107D1*
X3242300Y1370639D1*
X3242434Y1371163D1*
X3242605Y1371677D1*
X3242813Y1372178D1*
X3243056Y1372664D1*
X3243333Y1373132D1*
X3243643Y1373580D1*
X3243984Y1374006D1*
X3244355Y1374408D1*
X3244753Y1374783D1*
X3245178Y1375130D1*
X3245626Y1375448D1*
X3246096Y1375735D1*
X3246585Y1375988D1*
X3247092Y1376208D1*
X3247612Y1376393D1*
X3248145Y1376542D1*
X3248687Y1376654D1*
X3249236Y1376729D1*
X3249789Y1376767D1*
X3250343D1*
X3250896Y1376729D1*
X3251445Y1376654D1*
X3251987Y1376542D1*
X3252519Y1376393D1*
X3253040Y1376208D1*
X3253546Y1375988D1*
X3254036Y1375735D1*
X3254506Y1375448D1*
X3254954Y1375130D1*
X3255378Y1374783D1*
X3255777Y1374408D1*
X3256148Y1374006D1*
X3256489Y1373580D1*
X3256799Y1373132D1*
X3257076Y1372664D1*
X3257319Y1372178D1*
X3257527Y1371677D1*
X3257698Y1371163D1*
X3257832Y1370639D1*
X3257928Y1370107D1*
X3257986Y1369569D1*
X3258005Y1369029D1*
X3257986Y1368489D1*
X3257928Y1367951D1*
X3257832Y1367419D1*
X3257698Y1366895D1*
X3257527Y1366381D1*
X3257319Y1365880D1*
X3257076Y1365394D1*
X3256799Y1364926D1*
X3256489Y1364478D1*
X3256148Y1364052D1*
X3255777Y1363650D1*
X3255378Y1363275D1*
X3254954Y1362928D1*
X3254506Y1362610D1*
X3254036Y1362324D1*
X3253546Y1362070D1*
X3253040Y1361850D1*
X3252519Y1361665D1*
X3251987Y1361516D1*
X3251445Y1361404D1*
X3250896Y1361329D1*
X3250343Y1361291D1*
X3249789D1*
X3249236Y1361329D1*
X3248687Y1361404D1*
X3248145Y1361516D1*
X3247612Y1361665D1*
X3247092Y1361850D1*
X3246585Y1362070D1*
X3246096Y1362324D1*
X3245626Y1362610D1*
X3245178Y1362928D1*
X3244753Y1363275D1*
X3244355Y1363650D1*
X3243984Y1364052D1*
X3243643Y1364478D1*
X3243333Y1364926D1*
X3243056Y1365394D1*
X3242813Y1365880D1*
X3242605Y1366381D1*
X3242434Y1366895D1*
X3242300Y1367419D1*
X3242203Y1367951D1*
X3242146Y1368489D1*
X3242126Y1369029D1*
X521427Y1242389D2*
X451348D1*
X450954Y1370341D1*
X443343Y1384777D2*
X443362Y1385317D1*
X443420Y1385855D1*
X443516Y1386387D1*
X443650Y1386911D1*
X443822Y1387425D1*
X444029Y1387926D1*
X444272Y1388412D1*
X444549Y1388880D1*
X444859Y1389328D1*
X445200Y1389754D1*
X445571Y1390156D1*
X445970Y1390531D1*
X446394Y1390879D1*
X446843Y1391196D1*
X447313Y1391483D1*
X447802Y1391736D1*
X448308Y1391956D1*
X448829Y1392141D1*
X449362Y1392290D1*
X449904Y1392402D1*
X450452Y1392477D1*
X451005Y1392515D1*
X451559D1*
X452112Y1392477D1*
X452661Y1392402D1*
X453203Y1392290D1*
X453736Y1392141D1*
X454257Y1391956D1*
X454763Y1391736D1*
X455252Y1391483D1*
X455722Y1391196D1*
X456170Y1390879D1*
X456595Y1390531D1*
X456994Y1390156D1*
X457364Y1389754D1*
X457706Y1389328D1*
X458016Y1388880D1*
X458293Y1388412D1*
X458536Y1387926D1*
X458743Y1387425D1*
X458914Y1386911D1*
X459048Y1386387D1*
X459145Y1385855D1*
X459203Y1385317D1*
X459222Y1384777D1*
X459203Y1384237D1*
X459145Y1383700D1*
X459048Y1383167D1*
X458914Y1382643D1*
X458743Y1382129D1*
X458536Y1381628D1*
X458293Y1381142D1*
X458016Y1380674D1*
X457706Y1380226D1*
X457364Y1379800D1*
X456994Y1379399D1*
X456595Y1379023D1*
X456170Y1378676D1*
X455722Y1378358D1*
X455252Y1378072D1*
X454763Y1377818D1*
X454257Y1377598D1*
X453736Y1377413D1*
X453203Y1377264D1*
X452661Y1377152D1*
X452112Y1377077D1*
X451559Y1377039D1*
X451005D1*
X450452Y1377077D1*
X449904Y1377152D1*
X449362Y1377264D1*
X448829Y1377413D1*
X448308Y1377598D1*
X447802Y1377818D1*
X447313Y1378072D1*
X446843Y1378358D1*
X446394Y1378676D1*
X445970Y1379023D1*
X445571Y1379399D1*
X445200Y1379800D1*
X444859Y1380226D1*
X444549Y1380674D1*
X444272Y1381142D1*
X444029Y1381628D1*
X443822Y1382129D1*
X443650Y1382643D1*
X443516Y1383167D1*
X443420Y1383700D1*
X443362Y1384237D1*
X443343Y1384777D1*
X450954Y1386221D2*
X521164Y1434383D1*
X526151Y1638845D2*
X448198Y1638189D1*
X448461Y1638583D2*
X448067Y1556693D1*
X440062Y1545538D2*
X440081Y1546078D1*
X440139Y1546616D1*
X440235Y1547148D1*
X440369Y1547672D1*
X440541Y1548186D1*
X440748Y1548688D1*
X440991Y1549173D1*
X441268Y1549641D1*
X441578Y1550089D1*
X441919Y1550515D1*
X442290Y1550917D1*
X442689Y1551292D1*
X443113Y1551640D1*
X443562Y1551957D1*
X444032Y1552244D1*
X444521Y1552497D1*
X445027Y1552717D1*
X445548Y1552902D1*
X446081Y1553051D1*
X446623Y1553163D1*
X447172Y1553239D1*
X447724Y1553276D1*
X448279D1*
X448831Y1553239D1*
X449380Y1553163D1*
X449922Y1553051D1*
X450455Y1552902D1*
X450976Y1552717D1*
X451482Y1552497D1*
X451971Y1552244D1*
X452441Y1551957D1*
X452890Y1551640D1*
X453314Y1551292D1*
X453713Y1550917D1*
X454084Y1550515D1*
X454425Y1550089D1*
X454735Y1549641D1*
X455012Y1549173D1*
X455255Y1548688D1*
X455462Y1548186D1*
X455634Y1547672D1*
X455768Y1547148D1*
X455864Y1546616D1*
X455922Y1546078D1*
X455941Y1545538D1*
X455922Y1544998D1*
X455864Y1544461D1*
X455768Y1543928D1*
X455634Y1543404D1*
X455462Y1542890D1*
X455255Y1542389D1*
X455012Y1541903D1*
X454735Y1541435D1*
X454425Y1540987D1*
X454084Y1540561D1*
X453713Y1540160D1*
X453314Y1539784D1*
X452890Y1539437D1*
X452441Y1539119D1*
X451971Y1538833D1*
X451482Y1538579D1*
X450976Y1538359D1*
X450455Y1538174D1*
X449922Y1538025D1*
X449380Y1537913D1*
X448831Y1537838D1*
X448279Y1537800D1*
X447724D1*
X447172Y1537838D1*
X446623Y1537913D1*
X446081Y1538025D1*
X445548Y1538174D1*
X445027Y1538359D1*
X444521Y1538579D1*
X444032Y1538833D1*
X443562Y1539119D1*
X443113Y1539437D1*
X442689Y1539784D1*
X442290Y1540160D1*
X441919Y1540561D1*
X441578Y1540987D1*
X441268Y1541435D1*
X440991Y1541903D1*
X440748Y1542389D1*
X440541Y1542890D1*
X440369Y1543404D1*
X440235Y1543928D1*
X440139Y1544461D1*
X440081Y1544998D1*
X440062Y1545538D1*
D29*
X977034Y3421063D3*
X982677Y2994816D3*
X983727Y2570407D3*
X988058Y2141667D3*
X1830399Y4266554D2*
D12*
X1881399D1*
X1829003Y4263554D2*
X1882784D1*
X1828036Y4260554D2*
X1883657D1*
X1827217Y4257554D2*
X1884199D1*
X1826305Y4254554D2*
X1884774D1*
X1825458Y4251554D2*
X1885571D1*
X1824893Y4248554D2*
X1886370D1*
X1824499Y4245554D2*
X1886916D1*
X1823986Y4242554D2*
X1887303D1*
X1823213Y4239554D2*
X1887814D1*
X1737399Y4236554D2*
X1740399D1*
X1822412D2*
X1888597D1*
X1971399D2*
X1974399D1*
X1733936Y4233554D2*
X1745362D1*
X1821752D2*
X1889516D1*
X1966436D2*
X1977399D1*
X1730192Y4230554D2*
X1750363D1*
X1820843D2*
X1890675D1*
X1961435D2*
X1980411D1*
X1726415Y4227554D2*
X1755412D1*
X1819431D2*
X1892269D1*
X1956386D2*
X1983516D1*
X1722890Y4224554D2*
X1760388D1*
X1815260D2*
X1896493D1*
X1951410D2*
X1986899D1*
X1719611Y4221554D2*
X1765372D1*
X1809421D2*
X1902359D1*
X1946426D2*
X1990617D1*
X1716472Y4218554D2*
X1770329D1*
X1802106D2*
X1909686D1*
X1941469D2*
X1994386D1*
X1713325Y4215554D2*
X1774988D1*
X1793915D2*
X1917881D1*
X1936810D2*
X1997910D1*
X1710052Y4212554D2*
X1779399D1*
X1785399D2*
X1926399D1*
X1932399D2*
X2001188D1*
X1706931Y4209554D2*
X2004315D1*
X1704263Y4206554D2*
X2007369D1*
X1703626Y4203554D2*
X2010399D1*
X1704459Y4200554D2*
X2007863D1*
X1705945Y4197554D2*
X2005607D1*
X1708083Y4194554D2*
X2003383D1*
X1710568Y4191554D2*
X2000920D1*
X1713010Y4188554D2*
X1998305D1*
X1715222Y4185554D2*
X1995814D1*
X1717414Y4182554D2*
X1993586D1*
X1719776Y4179554D2*
X1991375D1*
X1722113Y4176554D2*
X1988917D1*
X1724265Y4173554D2*
X1986327D1*
X1726435Y4170554D2*
X1984060D1*
X1728846Y4167554D2*
X1982309D1*
X1731399Y4164554D2*
X1982453D1*
X1728977Y4161554D2*
X1983212D1*
X1727117Y4158554D2*
X1984370D1*
X1725718Y4155554D2*
X1985733D1*
X1724407Y4152554D2*
X1987177D1*
X1723033Y4149554D2*
X1988660D1*
X1721602Y4146554D2*
X1849229D1*
X1862220D2*
X1990151D1*
X1720082Y4143554D2*
X1839372D1*
X1871717D2*
X1991698D1*
X1718093Y4140554D2*
X1831423D1*
X1879609D2*
X1993699D1*
X1715361Y4137554D2*
X1825191D1*
X1886084D2*
X1996436D1*
X1707071Y4134554D2*
X1820244D1*
X1891276D2*
X2004778D1*
X1695637Y4131554D2*
X1816320D1*
X1895351D2*
X2016728D1*
X1683461Y4128554D2*
X1813224D1*
X1898510D2*
X2031156D1*
X1673769Y4125554D2*
X1810753D1*
X1900920D2*
X2046399D1*
X1666654Y4122554D2*
X1808560D1*
X1902848D2*
X2046399D1*
X1664019Y4119554D2*
X1806554D1*
X1904524D2*
X2046399D1*
X1663140Y4116554D2*
X1805028D1*
X1905989D2*
X2046399D1*
X1662697Y4113554D2*
X1804033D1*
X1907124D2*
X2046399D1*
X1662510Y4110554D2*
X1803213D1*
X1907808D2*
X2046399D1*
X1662438Y4107554D2*
X1802303D1*
X1908150D2*
X2046399D1*
X1662412Y4104554D2*
X1801468D1*
X1908302D2*
X2046399D1*
X1662404Y4101554D2*
X1801022D1*
X1908363D2*
X2046399D1*
X1662401Y4098554D2*
X1801115D1*
X1908386D2*
X2046399D1*
X1662400Y4095554D2*
X1801715D1*
X1908383D2*
X2046399D1*
X1662399Y4092554D2*
X1802536D1*
X1908269D2*
X2046399D1*
X1662411Y4089554D2*
X1803432D1*
X1907782D2*
X2046399D1*
X1662563Y4086554D2*
X1804539D1*
X1906670D2*
X2046352D1*
X1662950Y4083554D2*
X1805932D1*
X1905065D2*
X2046106D1*
X1665288Y4080554D2*
X1807725D1*
X1903273D2*
X2045649D1*
X1672695Y4077554D2*
X1810010D1*
X1901254D2*
X2038459D1*
X1683212Y4074554D2*
X1812655D1*
X1898849D2*
X2028224D1*
X1694943Y4071554D2*
X1815511D1*
X1896042D2*
X2016672D1*
X1704681Y4068554D2*
X1818553D1*
X1892704D2*
X2006940D1*
X1711988Y4065554D2*
X1821900D1*
X1888777D2*
X2000448D1*
X1714877Y4062554D2*
X1825493D1*
X1884810D2*
X1995896D1*
X1717228Y4059554D2*
X1828748D1*
X1881295D2*
X1993712D1*
X1719275Y4056554D2*
X1831391D1*
X1879832D2*
X1991875D1*
X1720890Y4053554D2*
X1832256D1*
X1879127D2*
X1990243D1*
X1722166Y4050554D2*
X1831739D1*
X1879152D2*
X1988785D1*
X1723424Y4047554D2*
X1830762D1*
X1879824D2*
X1987552D1*
X1724765Y4044554D2*
X1829500D1*
X1880929D2*
X1986489D1*
X1726072Y4041554D2*
X1828093D1*
X1882256D2*
X1985441D1*
X1727030Y4038554D2*
X1826631D1*
X1883690D2*
X1984638D1*
X1727536Y4035554D2*
X1825141D1*
X1885162D2*
X1984227D1*
X1726394Y4032554D2*
X1823648D1*
X1886655D2*
X1985274D1*
X1724503Y4029554D2*
X1822159D1*
X1888150D2*
X1986802D1*
X1722142Y4026554D2*
X1820756D1*
X1889651D2*
X1988553D1*
X1719755Y4023554D2*
X1819542D1*
X1891148D2*
X1990555D1*
X1717565Y4020554D2*
X1818474D1*
X1892650D2*
X1992929D1*
X1715380Y4017554D2*
X1817311D1*
X1894148D2*
X1995512D1*
X1713021Y4014554D2*
X1815998D1*
X1895650D2*
X1997990D1*
X1710685Y4011554D2*
X1814589D1*
X1897148D2*
X2000215D1*
X1708544Y4008554D2*
X1813125D1*
X1898650D2*
X2002424D1*
X1706495Y4005554D2*
X1811642D1*
X1900148D2*
X2004890D1*
X1704656Y4002554D2*
X1810145D1*
X1901650D2*
X2007594D1*
X1703221Y3999554D2*
X1808649D1*
X1903148D2*
X2010399D1*
X1703585Y3996554D2*
X1807148D1*
X1904639D2*
X2007399D1*
X1705913Y3993554D2*
X1805650D1*
X1906042D2*
X2004399D1*
X1709050Y3990554D2*
X1804157D1*
X1907265D2*
X2001399D1*
X1712555Y3987554D2*
X1776863D1*
X1782399D2*
X1802738D1*
X1908405D2*
X1925296D1*
X1934936D2*
X1998399D1*
X1715972Y3984554D2*
X1771618D1*
X1788399D2*
X1801488D1*
X1909787D2*
X1920191D1*
X1940180D2*
X1995387D1*
X1719210Y3981554D2*
X1766500D1*
X1794399D2*
X1800399D1*
X1911399D2*
X1914399D1*
X1945298D2*
X1992282D1*
X1722322Y3978554D2*
X1761408D1*
X1950378D2*
X1988900D1*
X1725370Y3975554D2*
X1756406D1*
X1955266D2*
X1985181D1*
X1728389Y3972554D2*
X1751310D1*
X1959898D2*
X1981404D1*
X1731396Y3969554D2*
X1745933D1*
X1964250D2*
X1977835D1*
X1734399Y3966554D2*
X1740399D1*
X1968399D2*
X1974399D1*
X1620399Y3930554D2*
X1638399D1*
X1659399D2*
X1668399D1*
X1674399D2*
X1692399D1*
X1719399D2*
X1737399D1*
X1758399D2*
X1791399D1*
X1839399D2*
X1863399D1*
X1890399D2*
X1908399D1*
X1929399D2*
X1938399D1*
X1962399D2*
X1971399D1*
X1983399D2*
X1992399D1*
X1998399D2*
X2016399D1*
X2028399D2*
X2049399D1*
X2073399D2*
X2091399D1*
X1616604Y3927554D2*
X1642309D1*
X1659399D2*
X1694924D1*
X1716513D2*
X1741658D1*
X1759784D2*
X1794273D1*
X1836989D2*
X1866124D1*
X1886490D2*
X1912309D1*
X1929399D2*
X1938399D1*
X1962399D2*
X1971399D1*
X1983399D2*
X2014776D1*
X2025411D2*
X2053993D1*
X2069490D2*
X2094169D1*
X1613550Y3924554D2*
X1645309D1*
X1659399D2*
X1697063D1*
X1713910D2*
X1745018D1*
X1760646D2*
X1796771D1*
X1835234D2*
X1868227D1*
X1883489D2*
X1915309D1*
X1929399D2*
X1938399D1*
X1962399D2*
X1971399D1*
X1983399D2*
X2010774D1*
X2022528D2*
X2058399D1*
X2066489D2*
X2096220D1*
X1612438Y3921554D2*
X1647469D1*
X1659399D2*
X1698787D1*
X1711746D2*
X1747615D1*
X1761082D2*
X1798553D1*
X1834230D2*
X1849502D1*
X1854399D2*
X1866062D1*
X1881329D2*
X1917469D1*
X1929399D2*
X1938399D1*
X1962399D2*
X1971399D1*
X1983399D2*
X2005367D1*
X2020028D2*
X2055399D1*
X2064329D2*
X2096846D1*
X1611839Y3918554D2*
X1620989D1*
X1638863D2*
X1648919D1*
X1659399D2*
X1670936D1*
X1689522D2*
X1700043D1*
X1710015D2*
X1719399D1*
X1737399D2*
X1748536D1*
X1761275D2*
X1770399D1*
X1788863D2*
X1799566D1*
X1833766D2*
X1845608D1*
X1863399D2*
D3*
X1879879D2*
X1889936D1*
X1908863D2*
X1918919D1*
X1929399D2*
X1938399D1*
X1962399D2*
X1971399D1*
X1983399D2*
X1999962D1*
X2018246D2*
X2027936D1*
X2049399D2*
X2052399D1*
X2062879D2*
X2073399D1*
X2091399D2*
X2097171D1*
X1611571Y3915554D2*
X1619234D1*
X1639607D2*
X1649731D1*
X1659399D2*
X1670203D1*
X1689988D2*
X1700777D1*
X1708756D2*
X1719399D1*
X1740399D2*
X1749033D1*
X1761353D2*
X1770399D1*
X1789607D2*
X1800055D1*
X1833801D2*
X1842399D1*
X1879067D2*
X1889192D1*
X1909607D2*
X1919731D1*
X1929399D2*
X1938411D1*
X1962399D2*
X1971399D1*
X1983399D2*
X1995527D1*
X2017233D2*
X2027192D1*
X2062067D2*
X2070399D1*
X2091399D2*
X2097312D1*
X1611462Y3912554D2*
X1618241D1*
X1640372D2*
X1650123D1*
X1659399D2*
X1669532D1*
X1691014D2*
X1701139D1*
X1708021D2*
X1749256D1*
X1761383D2*
X1770399D1*
X1790383D2*
X1800266D1*
X1834293D2*
X1854258D1*
X1878675D2*
X1888427D1*
X1910372D2*
X1920123D1*
X1929399D2*
X1938516D1*
X1962387D2*
X1971399D1*
X1983399D2*
X1993904D1*
X2016743D2*
X2026427D1*
X2061675D2*
X2097368D1*
X1611421Y3909554D2*
X1617871D1*
X1640780D2*
X1650281D1*
X1659399D2*
X1669389D1*
X1692399D2*
X1701286D1*
X1707671D2*
X1749349D1*
X1761394D2*
X1770399D1*
X1790909D2*
X1800351D1*
X1837040D2*
X1862460D1*
X1878506D2*
X1888019D1*
X1910792D2*
X1920292D1*
X1929399D2*
X1938910D1*
X1962270D2*
X1971399D1*
X1983399D2*
X1993035D1*
X2016544D2*
X2026019D1*
X2061506D2*
X2097389D1*
X1611407Y3906554D2*
X1617889D1*
X1640838D2*
X1650243D1*
X1659399D2*
X1669829D1*
X1690891D2*
X1701245D1*
X1707618D2*
X1749399D1*
X1761397D2*
X1770399D1*
X1791188D2*
X1800382D1*
X1843843D2*
X1868199D1*
X1878450D2*
X1887961D1*
X1910686D2*
X1920348D1*
X1929411D2*
X1939744D1*
X1961771D2*
X1971399D1*
X1983399D2*
X1992646D1*
X2016565D2*
X2025961D1*
X2061450D2*
X2097399D1*
X1611413Y3903554D2*
X1619215D1*
X1639550D2*
X1649886D1*
X1659399D2*
X1670478D1*
X1689561D2*
X1700886D1*
X1707948D2*
X1716399D1*
X1761399D2*
X1770399D1*
X1791315D2*
X1800393D1*
X1852961D2*
X1870617D1*
X1878530D2*
X1889249D1*
X1910070D2*
X1920268D1*
X1929516D2*
X1940984D1*
X1960564D2*
X1971399D1*
X1983399D2*
X1992490D1*
X2016927D2*
X2027249D1*
X2061530D2*
X2070399D1*
X1611517Y3900554D2*
X1621152D1*
X1637633D2*
X1649153D1*
X1659399D2*
X1670993D1*
X1688076D2*
X1700165D1*
X1708759D2*
X1719399D1*
X1761399D2*
X1770399D1*
X1791368D2*
X1800397D1*
X1836399D2*
D3*
X1863399D2*
X1871424D1*
X1878927D2*
X1891165D1*
X1909231D2*
X1919883D1*
X1929910D2*
X1942578D1*
X1958646D2*
X1971399D1*
X1983399D2*
X1992431D1*
X2017752D2*
X2029165D1*
X2061915D2*
X2071993D1*
X1611934Y3897554D2*
X1623399D1*
X1635399D2*
X1648153D1*
X1659399D2*
X1671399D1*
X1686399D2*
X1699270D1*
X1710031D2*
X1722399D1*
X1740399D2*
X1743399D1*
X1761387D2*
X1770399D1*
X1791388D2*
X1800399D1*
X1834138D2*
X1839399D1*
X1860399D2*
X1871744D1*
X1879877D2*
X1893399D1*
X1908399D2*
X1919039D1*
X1930758D2*
X1944399D1*
X1956399D2*
X1971399D1*
X1983399D2*
X1992410D1*
X2019028D2*
X2031399D1*
X2046399D2*
X2052399D1*
X2062771D2*
X2073399D1*
X2091399D2*
X2097399D1*
X1612694Y3894554D2*
X1646976D1*
X1659399D2*
X1698135D1*
X1711883D2*
X1746399D1*
X1761273D2*
X1770399D1*
X1791395D2*
X1800399D1*
X1832465D2*
X1870704D1*
X1881284D2*
X1917658D1*
X1932140D2*
X1971399D1*
X1983399D2*
X1992403D1*
X2020882D2*
X2058399D1*
X2064267D2*
X2097153D1*
X1615088Y3891554D2*
X1644025D1*
X1659399D2*
X1696590D1*
X1714609D2*
X1749399D1*
X1760810D2*
X1770399D1*
X1791398D2*
X1800399D1*
X1832403D2*
X1868033D1*
X1884493D2*
X1915462D1*
X1934337D2*
X1971399D1*
X1983399D2*
X1992400D1*
X2023609D2*
X2054848D1*
X2066361D2*
X2096602D1*
X1618790Y3888554D2*
X1639992D1*
X1659399D2*
X1693210D1*
X1718254D2*
X1743587D1*
X1759784D2*
X1770399D1*
X1791399D2*
X1800399D1*
X1837118D2*
X1864476D1*
X1888691D2*
X1912224D1*
X1937575D2*
X1971399D1*
X1983399D2*
X1992400D1*
X2027254D2*
X2050795D1*
X2071048D2*
X2094264D1*
X1623399Y3885554D2*
X1635399D1*
X1659399D2*
X1668399D1*
X1677399D2*
X1689399D1*
X1722399D2*
X1737399D1*
X1758399D2*
X1770399D1*
X1791399D2*
X1800399D1*
X1842399D2*
X1860399D1*
X1893399D2*
X1908399D1*
X1941399D2*
X1953399D1*
X1962399D2*
X1971399D1*
X1983399D2*
X1992399D1*
X2031399D2*
X2046399D1*
X2076399D2*
X2091399D1*
X1659399Y3882554D2*
X1668399D1*
X1659399Y3879554D2*
X1668399D1*
X1659399Y3876554D2*
X1668399D1*
X1827399D2*
X1836399D1*
X1659399Y3873554D2*
X1668399D1*
X1827399D2*
X1836399D1*
X1659399Y3870554D2*
X1668399D1*
X1827399D2*
X1836399D1*
X1659399Y3867554D2*
X1668399D1*
X1827399D2*
X1836399D1*
X1659399Y3864554D2*
X1668399D1*
X1827399D2*
X1836399D1*
X1659399Y3861554D2*
X1668399D1*
X1827399D2*
X1836399D1*
X1659399Y3858554D2*
X1668399D1*
X1674399D2*
X1692399D1*
X1716399D2*
X1740399D1*
X1761399D2*
X1770399D1*
X1776399D2*
X1794399D1*
X1803399D2*
X1821399D1*
X1827399D2*
X1836399D1*
X1842399D2*
X1854399D1*
X1875399D2*
X1884399D1*
X1905399D2*
X1914399D1*
X1923399D2*
X1950399D1*
X1971399D2*
X2001399D1*
X2016399D2*
X2037399D1*
X1659399Y3855554D2*
X1694924D1*
X1713399D2*
X1744194D1*
X1761399D2*
X1792795D1*
X1800989D2*
X1836399D1*
X1843539D2*
X1855425D1*
X1873900D2*
X1884875D1*
X1904003D2*
X1913936D1*
X1922218D2*
X1952810D1*
X1971399D2*
X2004399D1*
X2012490D2*
X2039924D1*
X1659399Y3852554D2*
X1697063D1*
X1710399D2*
X1747248D1*
X1761399D2*
X1790722D1*
X1799234D2*
X1836399D1*
X1844816D2*
X1856329D1*
X1872654D2*
X1885724D1*
X1903036D2*
X1913180D1*
X1922596D2*
X1954564D1*
X1971399D2*
X2001399D1*
X2009489D2*
X2042063D1*
X1659399Y3849554D2*
X1678464D1*
X1682334D2*
X1698787D1*
X1716399D2*
X1722399D1*
X1733296D2*
X1748361D1*
X1761399D2*
X1776525D1*
X1785399D2*
X1788399D1*
X1798230D2*
X1812525D1*
X1821273D2*
X1836399D1*
X1846116D2*
X1857004D1*
X1871487D2*
X1886883D1*
X1902205D2*
X1912298D1*
X1923399D2*
X1929399D1*
X1943848D2*
X1955569D1*
X1971399D2*
X1987578D1*
X1992399D2*
X1998399D1*
X2007329D2*
X2019951D1*
X2031399D2*
X2043787D1*
X1659399Y3846554D2*
X1674571D1*
X1686228D2*
X1700043D1*
X1737191D2*
X1748959D1*
X1761399D2*
X1774027D1*
X1797742D2*
X1810027D1*
X1823771D2*
X1836399D1*
X1847285D2*
X1857680D1*
X1870419D2*
X1888127D1*
X1901179D2*
X1911390D1*
X1945795D2*
X1956056D1*
X1971399D2*
X1983522D1*
X2005879D2*
X2018003D1*
X2034399D2*
X2045043D1*
X1659399Y3843554D2*
X1671842D1*
X1688956D2*
X1700777D1*
X1740399D2*
X1749228D1*
X1761399D2*
X1772245D1*
X1797532D2*
X1808245D1*
X1825553D2*
X1836399D1*
X1848334D2*
X1858531D1*
X1869433D2*
X1889183D1*
X1899860D2*
X1910381D1*
X1947399D2*
X1956267D1*
X1971399D2*
X1981923D1*
X2005067D2*
X2016399D1*
X2037399D2*
X2045777D1*
X1659399Y3840554D2*
X1669797D1*
X1691001D2*
X1701139D1*
X1727155D2*
X1749336D1*
X1761399D2*
X1771233D1*
X1797448D2*
X1807233D1*
X1826554D2*
X1836399D1*
X1849491D2*
X1859362D1*
X1868381D2*
X1889885D1*
X1898235D2*
X1909379D1*
X1935191D2*
X1956351D1*
X1971399D2*
X1981051D1*
X2004675D2*
X2046139D1*
X1659399Y3837554D2*
X1669078D1*
X1691720D2*
X1701298D1*
X1718092D2*
X1749377D1*
X1761399D2*
X1770743D1*
X1797416D2*
X1806755D1*
X1826938D2*
X1836399D1*
X1850790D2*
X1859952D1*
X1867344D2*
X1875285D1*
X1880821D2*
X1890399D1*
X1896399D2*
X1908409D1*
X1926630D2*
X1956382D1*
X1971399D2*
X1980655D1*
X2004518D2*
X2046298D1*
X1659399Y3834554D2*
X1668689D1*
X1692110D2*
X1701362D1*
X1711820D2*
X1749392D1*
X1761399D2*
X1770532D1*
X1797405D2*
X1806658D1*
X1826765D2*
X1836399D1*
X1852104D2*
X1860399D1*
X1866399D2*
X1874900D1*
X1882681D2*
X1907287D1*
X1920691D2*
X1956393D1*
X1971399D2*
X1980494D1*
X2004555D2*
X2046364D1*
X1659399Y3831554D2*
X1668513D1*
X1692286D2*
X1701386D1*
X1709305D2*
X1722399D1*
X1739848D2*
X1749397D1*
X1761399D2*
X1770448D1*
X1797413D2*
X1807037D1*
X1826105D2*
X1836399D1*
X1853280D2*
X1874170D1*
X1884068D2*
X1906000D1*
X1918643D2*
X1929951D1*
X1947399D2*
X1956397D1*
X1971399D2*
X1980433D1*
X2004924D2*
X2016399D1*
X1659399Y3828554D2*
X1668441D1*
X1692357D2*
X1701395D1*
X1708473D2*
X1716399D1*
X1738795D2*
X1749398D1*
X1761399D2*
X1770416D1*
X1797526D2*
X1808031D1*
X1825245D2*
X1836399D1*
X1854323D2*
X1873286D1*
X1885275D2*
X1904703D1*
X1918090D2*
X1928003D1*
X1947399D2*
X1956399D1*
X1971399D2*
X1980411D1*
X2005748D2*
X2017805D1*
X1659399Y3825554D2*
X1668414D1*
X1692384D2*
X1701398D1*
X1708935D2*
X1719399D1*
X1737399D2*
X1749399D1*
X1761399D2*
X1770405D1*
X1797989D2*
X1809399D1*
X1824399D2*
X1836399D1*
X1855401D2*
X1872297D1*
X1886262D2*
X1903626D1*
X1917945D2*
X1926399D1*
X1947399D2*
X1956399D1*
X1971399D2*
X1980403D1*
X2006986D2*
X2019399D1*
X2034399D2*
X2040399D1*
X1659399Y3822554D2*
X1668404D1*
X1692394D2*
X1701399D1*
X1709652D2*
X1749399D1*
X1761399D2*
X1770401D1*
X1799014D2*
X1836399D1*
X1856448D2*
X1870977D1*
X1886917D2*
X1902917D1*
X1919027D2*
X1956399D1*
X1971399D2*
X1980400D1*
X2008579D2*
X2041993D1*
X1659399Y3819554D2*
X1668399D1*
X1692399D2*
X1701399D1*
X1710399D2*
X1749399D1*
X1761399D2*
X1770399D1*
X1800399D2*
X1836399D1*
X1857399D2*
X1869399D1*
X1887399D2*
X1902399D1*
X1920399D2*
X1956399D1*
X1971399D2*
X1980399D1*
X2010399D2*
X2043399D1*
X1830399Y4266554D2*
X1829003Y4263554D1*
X1828036Y4260554D1*
X1827217Y4257554D1*
X1826305Y4254554D1*
X1825458Y4251554D1*
X1824893Y4248554D1*
X1824499Y4245554D1*
X1823986Y4242554D1*
X1823213Y4239554D1*
X1822412Y4236554D1*
X1821752Y4233554D1*
X1820843Y4230554D1*
X1819431Y4227554D1*
X1815260Y4224554D1*
X1809421Y4221554D1*
X1802106Y4218554D1*
X1793915Y4215554D1*
X1785399Y4212554D1*
X1881399Y4266554D2*
X1882784Y4263554D1*
X1883657Y4260554D1*
X1884199Y4257554D1*
X1884774Y4254554D1*
X1885571Y4251554D1*
X1886370Y4248554D1*
X1886916Y4245554D1*
X1887303Y4242554D1*
X1887814Y4239554D1*
X1888597Y4236554D1*
X1889516Y4233554D1*
X1890675Y4230554D1*
X1892269Y4227554D1*
X1896493Y4224554D1*
X1902359Y4221554D1*
X1909686Y4218554D1*
X1917881Y4215554D1*
X1926399Y4212554D1*
X1737399Y4236554D2*
X1733936Y4233554D1*
X1730192Y4230554D1*
X1726415Y4227554D1*
X1722890Y4224554D1*
X1719611Y4221554D1*
X1716472Y4218554D1*
X1713325Y4215554D1*
X1710052Y4212554D1*
X1706931Y4209554D1*
X1704263Y4206554D1*
X1703626Y4203554D1*
X1704459Y4200554D1*
X1705945Y4197554D1*
X1708083Y4194554D1*
X1710568Y4191554D1*
X1713010Y4188554D1*
X1715222Y4185554D1*
X1717414Y4182554D1*
X1719776Y4179554D1*
X1722113Y4176554D1*
X1724265Y4173554D1*
X1726435Y4170554D1*
X1728846Y4167554D1*
X1731399Y4164554D1*
X1728977Y4161554D1*
X1727117Y4158554D1*
X1725718Y4155554D1*
X1724407Y4152554D1*
X1723033Y4149554D1*
X1721602Y4146554D1*
X1720082Y4143554D1*
X1718093Y4140554D1*
X1715361Y4137554D1*
X1707071Y4134554D1*
X1695637Y4131554D1*
X1683461Y4128554D1*
X1673769Y4125554D1*
X1666654Y4122554D1*
X1664019Y4119554D1*
X1663140Y4116554D1*
X1662697Y4113554D1*
X1662510Y4110554D1*
X1662438Y4107554D1*
X1662412Y4104554D1*
X1662404Y4101554D1*
X1662401Y4098554D1*
X1662400Y4095554D1*
X1662399Y4092554D1*
X1662411Y4089554D1*
X1662563Y4086554D1*
X1662950Y4083554D1*
X1665288Y4080554D1*
X1672695Y4077554D1*
X1683212Y4074554D1*
X1694943Y4071554D1*
X1704681Y4068554D1*
X1711988Y4065554D1*
X1714877Y4062554D1*
X1717228Y4059554D1*
X1719275Y4056554D1*
X1720890Y4053554D1*
X1722166Y4050554D1*
X1723424Y4047554D1*
X1724765Y4044554D1*
X1726072Y4041554D1*
X1727030Y4038554D1*
X1727536Y4035554D1*
X1726394Y4032554D1*
X1724503Y4029554D1*
X1722142Y4026554D1*
X1719755Y4023554D1*
X1717565Y4020554D1*
X1715380Y4017554D1*
X1713021Y4014554D1*
X1710685Y4011554D1*
X1708544Y4008554D1*
X1706495Y4005554D1*
X1704656Y4002554D1*
X1703221Y3999554D1*
X1703585Y3996554D1*
X1705913Y3993554D1*
X1709050Y3990554D1*
X1712555Y3987554D1*
X1715972Y3984554D1*
X1719210Y3981554D1*
X1722322Y3978554D1*
X1725370Y3975554D1*
X1728389Y3972554D1*
X1731396Y3969554D1*
X1734399Y3966554D1*
X1740399Y4236554D2*
X1745362Y4233554D1*
X1750363Y4230554D1*
X1755412Y4227554D1*
X1760388Y4224554D1*
X1765372Y4221554D1*
X1770329Y4218554D1*
X1774988Y4215554D1*
X1779399Y4212554D1*
X1971399Y4236554D2*
X1966436Y4233554D1*
X1961435Y4230554D1*
X1956386Y4227554D1*
X1951410Y4224554D1*
X1946426Y4221554D1*
X1941469Y4218554D1*
X1936810Y4215554D1*
X1932399Y4212554D1*
X1974399Y4236554D2*
X1977399Y4233554D1*
X1980411Y4230554D1*
X1983516Y4227554D1*
X1986899Y4224554D1*
X1990617Y4221554D1*
X1994386Y4218554D1*
X1997910Y4215554D1*
X2001188Y4212554D1*
X2004315Y4209554D1*
X2007369Y4206554D1*
X2010399Y4203554D1*
X2007863Y4200554D1*
X2005607Y4197554D1*
X2003383Y4194554D1*
X2000920Y4191554D1*
X1998305Y4188554D1*
X1995814Y4185554D1*
X1993586Y4182554D1*
X1991375Y4179554D1*
X1988917Y4176554D1*
X1986327Y4173554D1*
X1984060Y4170554D1*
X1982309Y4167554D1*
X1982453Y4164554D1*
X1983212Y4161554D1*
X1984370Y4158554D1*
X1985733Y4155554D1*
X1987177Y4152554D1*
X1988660Y4149554D1*
X1990151Y4146554D1*
X1991698Y4143554D1*
X1993699Y4140554D1*
X1996436Y4137554D1*
X2004778Y4134554D1*
X2016728Y4131554D1*
X2031156Y4128554D1*
X2046399Y4125554D1*
Y4122554D1*
Y4119554D1*
Y4116554D1*
Y4113554D1*
Y4110554D1*
Y4107554D1*
Y4104554D1*
Y4101554D1*
Y4098554D1*
Y4095554D1*
Y4092554D1*
Y4089554D1*
X2046352Y4086554D1*
X2046106Y4083554D1*
X2045649Y4080554D1*
X2038459Y4077554D1*
X2028224Y4074554D1*
X2016672Y4071554D1*
X2006940Y4068554D1*
X2000448Y4065554D1*
X1995896Y4062554D1*
X1993712Y4059554D1*
X1991875Y4056554D1*
X1990243Y4053554D1*
X1988785Y4050554D1*
X1987552Y4047554D1*
X1986489Y4044554D1*
X1985441Y4041554D1*
X1984638Y4038554D1*
X1984227Y4035554D1*
X1985274Y4032554D1*
X1986802Y4029554D1*
X1988553Y4026554D1*
X1990555Y4023554D1*
X1992929Y4020554D1*
X1995512Y4017554D1*
X1997990Y4014554D1*
X2000215Y4011554D1*
X2002424Y4008554D1*
X2004890Y4005554D1*
X2007594Y4002554D1*
X2010399Y3999554D1*
X2007399Y3996554D1*
X2004399Y3993554D1*
X2001399Y3990554D1*
X1998399Y3987554D1*
X1995387Y3984554D1*
X1992282Y3981554D1*
X1988900Y3978554D1*
X1985181Y3975554D1*
X1981404Y3972554D1*
X1977835Y3969554D1*
X1974399Y3966554D1*
X1860399Y4149554D2*
X1849229Y4146554D1*
X1839372Y4143554D1*
X1831423Y4140554D1*
X1825191Y4137554D1*
X1820244Y4134554D1*
X1816320Y4131554D1*
X1813224Y4128554D1*
X1810753Y4125554D1*
X1808560Y4122554D1*
X1806554Y4119554D1*
X1805028Y4116554D1*
X1804033Y4113554D1*
X1803213Y4110554D1*
X1802303Y4107554D1*
X1801468Y4104554D1*
X1801022Y4101554D1*
X1801115Y4098554D1*
X1801715Y4095554D1*
X1802536Y4092554D1*
X1803432Y4089554D1*
X1804539Y4086554D1*
X1805932Y4083554D1*
X1807725Y4080554D1*
X1810010Y4077554D1*
X1812655Y4074554D1*
X1815511Y4071554D1*
X1818553Y4068554D1*
X1821900Y4065554D1*
X1825493Y4062554D1*
X1828748Y4059554D1*
X1831391Y4056554D1*
X1832256Y4053554D1*
X1831739Y4050554D1*
X1830762Y4047554D1*
X1829500Y4044554D1*
X1828093Y4041554D1*
X1826631Y4038554D1*
X1825141Y4035554D1*
X1823648Y4032554D1*
X1822159Y4029554D1*
X1820756Y4026554D1*
X1819542Y4023554D1*
X1818474Y4020554D1*
X1817311Y4017554D1*
X1815998Y4014554D1*
X1814589Y4011554D1*
X1813125Y4008554D1*
X1811642Y4005554D1*
X1810145Y4002554D1*
X1808649Y3999554D1*
X1807148Y3996554D1*
X1805650Y3993554D1*
X1804157Y3990554D1*
X1802738Y3987554D1*
X1801488Y3984554D1*
X1800399Y3981554D1*
X1851399Y4149554D2*
X1862220Y4146554D1*
X1871717Y4143554D1*
X1879609Y4140554D1*
X1886084Y4137554D1*
X1891276Y4134554D1*
X1895351Y4131554D1*
X1898510Y4128554D1*
X1900920Y4125554D1*
X1902848Y4122554D1*
X1904524Y4119554D1*
X1905989Y4116554D1*
X1907124Y4113554D1*
X1907808Y4110554D1*
X1908150Y4107554D1*
X1908302Y4104554D1*
X1908363Y4101554D1*
X1908386Y4098554D1*
X1908383Y4095554D1*
X1908269Y4092554D1*
X1907782Y4089554D1*
X1906670Y4086554D1*
X1905065Y4083554D1*
X1903273Y4080554D1*
X1901254Y4077554D1*
X1898849Y4074554D1*
X1896042Y4071554D1*
X1892704Y4068554D1*
X1888777Y4065554D1*
X1884810Y4062554D1*
X1881295Y4059554D1*
X1879832Y4056554D1*
X1879127Y4053554D1*
X1879152Y4050554D1*
X1879824Y4047554D1*
X1880929Y4044554D1*
X1882256Y4041554D1*
X1883690Y4038554D1*
X1885162Y4035554D1*
X1886655Y4032554D1*
X1888150Y4029554D1*
X1889651Y4026554D1*
X1891148Y4023554D1*
X1892650Y4020554D1*
X1894148Y4017554D1*
X1895650Y4014554D1*
X1897148Y4011554D1*
X1898650Y4008554D1*
X1900148Y4005554D1*
X1901650Y4002554D1*
X1903148Y3999554D1*
X1904639Y3996554D1*
X1906042Y3993554D1*
X1907265Y3990554D1*
X1908405Y3987554D1*
X1909787Y3984554D1*
X1911399Y3981554D1*
X1782399Y3990554D2*
X1776863Y3987554D1*
X1771618Y3984554D1*
X1766500Y3981554D1*
X1761408Y3978554D1*
X1756406Y3975554D1*
X1751310Y3972554D1*
X1745933Y3969554D1*
X1740399Y3966554D1*
X1776399Y3990554D2*
X1782399Y3987554D1*
X1788399Y3984554D1*
X1794399Y3981554D1*
X1929399Y3990554D2*
X1925296Y3987554D1*
X1920191Y3984554D1*
X1914399Y3981554D1*
X1929399Y3990554D2*
X1934936Y3987554D1*
X1940180Y3984554D1*
X1945298Y3981554D1*
X1950378Y3978554D1*
X1955266Y3975554D1*
X1959898Y3972554D1*
X1964250Y3969554D1*
X1968399Y3966554D1*
X1620399Y3930554D2*
X1616604Y3927554D1*
X1613550Y3924554D1*
X1612438Y3921554D1*
X1611839Y3918554D1*
X1611571Y3915554D1*
X1611462Y3912554D1*
X1611421Y3909554D1*
X1611407Y3906554D1*
X1611413Y3903554D1*
X1611517Y3900554D1*
X1611934Y3897554D1*
X1612694Y3894554D1*
X1615088Y3891554D1*
X1618790Y3888554D1*
X1623399Y3885554D1*
X1638399Y3930554D2*
X1642309Y3927554D1*
X1645309Y3924554D1*
X1647469Y3921554D1*
X1648919Y3918554D1*
X1649731Y3915554D1*
X1650123Y3912554D1*
X1650281Y3909554D1*
X1650243Y3906554D1*
X1649886Y3903554D1*
X1649153Y3900554D1*
X1648153Y3897554D1*
X1646976Y3894554D1*
X1644025Y3891554D1*
X1639992Y3888554D1*
X1635399Y3885554D1*
X1659399Y3930554D2*
Y3927554D1*
Y3924554D1*
Y3921554D1*
Y3918554D1*
Y3915554D1*
Y3912554D1*
Y3909554D1*
Y3906554D1*
Y3903554D1*
Y3900554D1*
Y3897554D1*
Y3894554D1*
Y3891554D1*
Y3888554D1*
Y3885554D1*
Y3882554D1*
Y3879554D1*
Y3876554D1*
Y3873554D1*
Y3870554D1*
Y3867554D1*
Y3864554D1*
Y3861554D1*
Y3858554D1*
Y3855554D1*
Y3852554D1*
Y3849554D1*
Y3846554D1*
Y3843554D1*
Y3840554D1*
Y3837554D1*
Y3834554D1*
Y3831554D1*
Y3828554D1*
Y3825554D1*
Y3822554D1*
Y3819554D1*
X1668399Y3930554D2*
X1674399D2*
X1692399D2*
X1694924Y3927554D1*
X1697063Y3924554D1*
X1698787Y3921554D1*
X1700043Y3918554D1*
X1700777Y3915554D1*
X1701139Y3912554D1*
X1701286Y3909554D1*
X1701245Y3906554D1*
X1700886Y3903554D1*
X1700165Y3900554D1*
X1699270Y3897554D1*
X1698135Y3894554D1*
X1696590Y3891554D1*
X1693210Y3888554D1*
X1689399Y3885554D1*
X1719399Y3930554D2*
X1716513Y3927554D1*
X1713910Y3924554D1*
X1711746Y3921554D1*
X1710015Y3918554D1*
X1708756Y3915554D1*
X1708021Y3912554D1*
X1707671Y3909554D1*
X1707618Y3906554D1*
X1707948Y3903554D1*
X1708759Y3900554D1*
X1710031Y3897554D1*
X1711883Y3894554D1*
X1714609Y3891554D1*
X1718254Y3888554D1*
X1722399Y3885554D1*
X1737399Y3930554D2*
X1741658Y3927554D1*
X1745018Y3924554D1*
X1747615Y3921554D1*
X1748536Y3918554D1*
X1749033Y3915554D1*
X1749256Y3912554D1*
X1749349Y3909554D1*
X1749399Y3906554D1*
X1716399Y3903554D1*
X1719399Y3900554D1*
X1722399Y3897554D1*
X1758399Y3930554D2*
X1759784Y3927554D1*
X1760646Y3924554D1*
X1761082Y3921554D1*
X1761275Y3918554D1*
X1761353Y3915554D1*
X1761383Y3912554D1*
X1761394Y3909554D1*
X1761397Y3906554D1*
X1761399Y3903554D1*
Y3900554D1*
X1761387Y3897554D1*
X1761273Y3894554D1*
X1760810Y3891554D1*
X1759784Y3888554D1*
X1758399Y3885554D1*
X1791399Y3930554D2*
X1794273Y3927554D1*
X1796771Y3924554D1*
X1798553Y3921554D1*
X1799566Y3918554D1*
X1800055Y3915554D1*
X1800266Y3912554D1*
X1800351Y3909554D1*
X1800382Y3906554D1*
X1800393Y3903554D1*
X1800397Y3900554D1*
X1800399Y3897554D1*
Y3894554D1*
Y3891554D1*
Y3888554D1*
Y3885554D1*
X1839399Y3930554D2*
X1836989Y3927554D1*
X1835234Y3924554D1*
X1834230Y3921554D1*
X1833766Y3918554D1*
X1833801Y3915554D1*
X1834293Y3912554D1*
X1837040Y3909554D1*
X1843843Y3906554D1*
X1852961Y3903554D1*
X1863399Y3900554D1*
X1860399Y3897554D1*
X1863399Y3930554D2*
X1866124Y3927554D1*
X1868227Y3924554D1*
X1866062Y3921554D1*
X1863399Y3918554D1*
X1890399Y3930554D2*
X1886490Y3927554D1*
X1883489Y3924554D1*
X1881329Y3921554D1*
X1879879Y3918554D1*
X1879067Y3915554D1*
X1878675Y3912554D1*
X1878506Y3909554D1*
X1878450Y3906554D1*
X1878530Y3903554D1*
X1878927Y3900554D1*
X1879877Y3897554D1*
X1881284Y3894554D1*
X1884493Y3891554D1*
X1888691Y3888554D1*
X1893399Y3885554D1*
X1908399Y3930554D2*
X1912309Y3927554D1*
X1915309Y3924554D1*
X1917469Y3921554D1*
X1918919Y3918554D1*
X1919731Y3915554D1*
X1920123Y3912554D1*
X1920292Y3909554D1*
X1920348Y3906554D1*
X1920268Y3903554D1*
X1919883Y3900554D1*
X1919039Y3897554D1*
X1917658Y3894554D1*
X1915462Y3891554D1*
X1912224Y3888554D1*
X1908399Y3885554D1*
X1929399Y3930554D2*
Y3927554D1*
Y3924554D1*
Y3921554D1*
Y3918554D1*
Y3915554D1*
Y3912554D1*
Y3909554D1*
X1929411Y3906554D1*
X1929516Y3903554D1*
X1929910Y3900554D1*
X1930758Y3897554D1*
X1932140Y3894554D1*
X1934337Y3891554D1*
X1937575Y3888554D1*
X1941399Y3885554D1*
X1938399Y3930554D2*
Y3927554D1*
Y3924554D1*
Y3921554D1*
Y3918554D1*
X1938411Y3915554D1*
X1938516Y3912554D1*
X1938910Y3909554D1*
X1939744Y3906554D1*
X1940984Y3903554D1*
X1942578Y3900554D1*
X1944399Y3897554D1*
X1962399Y3930554D2*
Y3927554D1*
Y3924554D1*
Y3921554D1*
Y3918554D1*
Y3915554D1*
X1962387Y3912554D1*
X1962270Y3909554D1*
X1961771Y3906554D1*
X1960564Y3903554D1*
X1958646Y3900554D1*
X1956399Y3897554D1*
X1971399Y3930554D2*
Y3927554D1*
Y3924554D1*
Y3921554D1*
Y3918554D1*
Y3915554D1*
Y3912554D1*
Y3909554D1*
Y3906554D1*
Y3903554D1*
Y3900554D1*
Y3897554D1*
Y3894554D1*
Y3891554D1*
Y3888554D1*
Y3885554D1*
X1983399Y3930554D2*
Y3927554D1*
Y3924554D1*
Y3921554D1*
Y3918554D1*
Y3915554D1*
Y3912554D1*
Y3909554D1*
Y3906554D1*
Y3903554D1*
Y3900554D1*
Y3897554D1*
Y3894554D1*
Y3891554D1*
Y3888554D1*
Y3885554D1*
X1992399Y3930554D2*
X1998399D2*
X2016399D2*
X2014776Y3927554D1*
X2010774Y3924554D1*
X2005367Y3921554D1*
X1999962Y3918554D1*
X1995527Y3915554D1*
X1993904Y3912554D1*
X1993035Y3909554D1*
X1992646Y3906554D1*
X1992490Y3903554D1*
X1992431Y3900554D1*
X1992410Y3897554D1*
X1992403Y3894554D1*
X1992400Y3891554D1*
Y3888554D1*
X1992399Y3885554D1*
X2028399Y3930554D2*
X2025411Y3927554D1*
X2022528Y3924554D1*
X2020028Y3921554D1*
X2018246Y3918554D1*
X2017233Y3915554D1*
X2016743Y3912554D1*
X2016544Y3909554D1*
X2016565Y3906554D1*
X2016927Y3903554D1*
X2017752Y3900554D1*
X2019028Y3897554D1*
X2020882Y3894554D1*
X2023609Y3891554D1*
X2027254Y3888554D1*
X2031399Y3885554D1*
X2049399Y3930554D2*
X2053993Y3927554D1*
X2058399Y3924554D1*
X2055399Y3921554D1*
X2052399Y3918554D1*
X2073399Y3930554D2*
X2069490Y3927554D1*
X2066489Y3924554D1*
X2064329Y3921554D1*
X2062879Y3918554D1*
X2062067Y3915554D1*
X2061675Y3912554D1*
X2061506Y3909554D1*
X2061450Y3906554D1*
X2061530Y3903554D1*
X2061915Y3900554D1*
X2062771Y3897554D1*
X2064267Y3894554D1*
X2066361Y3891554D1*
X2071048Y3888554D1*
X2076399Y3885554D1*
X2091399Y3930554D2*
X2094169Y3927554D1*
X2096220Y3924554D1*
X2096846Y3921554D1*
X2097171Y3918554D1*
X2097312Y3915554D1*
X2097368Y3912554D1*
X2097389Y3909554D1*
X2097399Y3906554D1*
X2070399Y3903554D1*
X2071993Y3900554D1*
X2073399Y3897554D1*
X1854399Y3924554D2*
X1849502Y3921554D1*
X1845608Y3918554D1*
X1842399Y3915554D1*
X1854258Y3912554D1*
X1862460Y3909554D1*
X1868199Y3906554D1*
X1870617Y3903554D1*
X1871424Y3900554D1*
X1871744Y3897554D1*
X1870704Y3894554D1*
X1868033Y3891554D1*
X1864476Y3888554D1*
X1860399Y3885554D1*
X1845399Y3924554D2*
X1854399Y3921554D1*
X1863399Y3918554D1*
X1623399Y3921554D2*
X1620989Y3918554D1*
X1619234Y3915554D1*
X1618241Y3912554D1*
X1617871Y3909554D1*
X1617889Y3906554D1*
X1619215Y3903554D1*
X1621152Y3900554D1*
X1623399Y3897554D1*
X1638399Y3921554D2*
X1638863Y3918554D1*
X1639607Y3915554D1*
X1640372Y3912554D1*
X1640780Y3909554D1*
X1640838Y3906554D1*
X1639550Y3903554D1*
X1637633Y3900554D1*
X1635399Y3897554D1*
X1671399Y3921554D2*
X1670936Y3918554D1*
X1670203Y3915554D1*
X1669532Y3912554D1*
X1669389Y3909554D1*
X1669829Y3906554D1*
X1670478Y3903554D1*
X1670993Y3900554D1*
X1671399Y3897554D1*
X1689399Y3921554D2*
X1689522Y3918554D1*
X1689988Y3915554D1*
X1691014Y3912554D1*
X1692399Y3909554D1*
X1690891Y3906554D1*
X1689561Y3903554D1*
X1688076Y3900554D1*
X1686399Y3897554D1*
X1719399Y3921554D2*
Y3918554D1*
Y3915554D1*
X1734399Y3921554D2*
X1737399Y3918554D1*
X1740399Y3915554D1*
X1770399Y3921554D2*
Y3918554D1*
Y3915554D1*
Y3912554D1*
Y3909554D1*
Y3906554D1*
Y3903554D1*
Y3900554D1*
Y3897554D1*
Y3894554D1*
Y3891554D1*
Y3888554D1*
Y3885554D1*
X1788399Y3921554D2*
X1788863Y3918554D1*
X1789607Y3915554D1*
X1790383Y3912554D1*
X1790909Y3909554D1*
X1791188Y3906554D1*
X1791315Y3903554D1*
X1791368Y3900554D1*
X1791388Y3897554D1*
X1791395Y3894554D1*
X1791398Y3891554D1*
X1791399Y3888554D1*
Y3885554D1*
X1890399Y3921554D2*
X1889936Y3918554D1*
X1889192Y3915554D1*
X1888427Y3912554D1*
X1888019Y3909554D1*
X1887961Y3906554D1*
X1889249Y3903554D1*
X1891165Y3900554D1*
X1893399Y3897554D1*
X1908399Y3921554D2*
X1908863Y3918554D1*
X1909607Y3915554D1*
X1910372Y3912554D1*
X1910792Y3909554D1*
X1910686Y3906554D1*
X1910070Y3903554D1*
X1909231Y3900554D1*
X1908399Y3897554D1*
X2028399Y3921554D2*
X2027936Y3918554D1*
X2027192Y3915554D1*
X2026427Y3912554D1*
X2026019Y3909554D1*
X2025961Y3906554D1*
X2027249Y3903554D1*
X2029165Y3900554D1*
X2031399Y3897554D1*
X2046399Y3921554D2*
X2049399Y3918554D1*
X2076399Y3921554D2*
X2073399Y3918554D1*
X2070399Y3915554D1*
X2091399Y3921554D2*
Y3918554D1*
Y3915554D1*
X1836399Y3900554D2*
X1834138Y3897554D1*
X1832465Y3894554D1*
X1832403Y3891554D1*
X1837118Y3888554D1*
X1842399Y3885554D1*
X1740399Y3897554D2*
X1743399D2*
X1746399Y3894554D1*
X1749399Y3891554D1*
X1743587Y3888554D1*
X1737399Y3885554D1*
X1839399Y3897554D2*
X2046399D2*
X2052399D2*
X2058399Y3894554D1*
X2054848Y3891554D1*
X2050795Y3888554D1*
X2046399Y3885554D1*
X2091399Y3897554D2*
X2097399D2*
X2097153Y3894554D1*
X2096602Y3891554D1*
X2094264Y3888554D1*
X2091399Y3885554D1*
X1668399Y3888554D2*
Y3885554D1*
Y3882554D1*
Y3879554D1*
Y3876554D1*
Y3873554D1*
Y3870554D1*
Y3867554D1*
Y3864554D1*
Y3861554D1*
Y3858554D1*
X1674399Y3888554D2*
X1677399Y3885554D1*
X1956399Y3888554D2*
X1953399Y3885554D1*
X1959399Y3888554D2*
X1962399Y3885554D1*
X1827399Y3876554D2*
Y3873554D1*
Y3870554D1*
Y3867554D1*
Y3864554D1*
Y3861554D1*
Y3858554D1*
X1836399Y3876554D2*
Y3873554D1*
Y3870554D1*
Y3867554D1*
Y3864554D1*
Y3861554D1*
Y3858554D1*
Y3855554D1*
Y3852554D1*
Y3849554D1*
Y3846554D1*
Y3843554D1*
Y3840554D1*
Y3837554D1*
Y3834554D1*
Y3831554D1*
Y3828554D1*
Y3825554D1*
Y3822554D1*
Y3819554D1*
X1674399Y3858554D2*
X1692399D2*
X1694924Y3855554D1*
X1697063Y3852554D1*
X1698787Y3849554D1*
X1700043Y3846554D1*
X1700777Y3843554D1*
X1701139Y3840554D1*
X1701298Y3837554D1*
X1701362Y3834554D1*
X1701386Y3831554D1*
X1701395Y3828554D1*
X1701398Y3825554D1*
X1701399Y3822554D1*
Y3819554D1*
X1716399Y3858554D2*
X1713399Y3855554D1*
X1710399Y3852554D1*
X1716399Y3849554D1*
X1740399Y3858554D2*
X1744194Y3855554D1*
X1747248Y3852554D1*
X1748361Y3849554D1*
X1748959Y3846554D1*
X1749228Y3843554D1*
X1749336Y3840554D1*
X1749377Y3837554D1*
X1749392Y3834554D1*
X1749397Y3831554D1*
X1749398Y3828554D1*
X1749399Y3825554D1*
Y3822554D1*
Y3819554D1*
X1761399Y3858554D2*
Y3855554D1*
Y3852554D1*
Y3849554D1*
Y3846554D1*
Y3843554D1*
Y3840554D1*
Y3837554D1*
Y3834554D1*
Y3831554D1*
Y3828554D1*
Y3825554D1*
Y3822554D1*
Y3819554D1*
X1770399Y3858554D2*
X1776399D2*
X1794399D2*
X1792795Y3855554D1*
X1790722Y3852554D1*
X1788399Y3849554D1*
X1803399Y3858554D2*
X1800989Y3855554D1*
X1799234Y3852554D1*
X1798230Y3849554D1*
X1797742Y3846554D1*
X1797532Y3843554D1*
X1797448Y3840554D1*
X1797416Y3837554D1*
X1797405Y3834554D1*
X1797413Y3831554D1*
X1797526Y3828554D1*
X1797989Y3825554D1*
X1799014Y3822554D1*
X1800399Y3819554D1*
X1821399Y3858554D2*
X1842399D2*
X1843539Y3855554D1*
X1844816Y3852554D1*
X1846116Y3849554D1*
X1847285Y3846554D1*
X1848334Y3843554D1*
X1849491Y3840554D1*
X1850790Y3837554D1*
X1852104Y3834554D1*
X1853280Y3831554D1*
X1854323Y3828554D1*
X1855401Y3825554D1*
X1856448Y3822554D1*
X1857399Y3819554D1*
X1854399Y3858554D2*
X1855425Y3855554D1*
X1856329Y3852554D1*
X1857004Y3849554D1*
X1857680Y3846554D1*
X1858531Y3843554D1*
X1859362Y3840554D1*
X1859952Y3837554D1*
X1860399Y3834554D1*
X1875399Y3858554D2*
X1873900Y3855554D1*
X1872654Y3852554D1*
X1871487Y3849554D1*
X1870419Y3846554D1*
X1869433Y3843554D1*
X1868381Y3840554D1*
X1867344Y3837554D1*
X1866399Y3834554D1*
X1884399Y3858554D2*
X1884875Y3855554D1*
X1885724Y3852554D1*
X1886883Y3849554D1*
X1888127Y3846554D1*
X1889183Y3843554D1*
X1889885Y3840554D1*
X1890399Y3837554D1*
X1905399Y3858554D2*
X1904003Y3855554D1*
X1903036Y3852554D1*
X1902205Y3849554D1*
X1901179Y3846554D1*
X1899860Y3843554D1*
X1898235Y3840554D1*
X1896399Y3837554D1*
X1914399Y3858554D2*
X1913936Y3855554D1*
X1913180Y3852554D1*
X1912298Y3849554D1*
X1911390Y3846554D1*
X1910381Y3843554D1*
X1909379Y3840554D1*
X1908409Y3837554D1*
X1907287Y3834554D1*
X1906000Y3831554D1*
X1904703Y3828554D1*
X1903626Y3825554D1*
X1902917Y3822554D1*
X1902399Y3819554D1*
X1923399Y3858554D2*
X1922218Y3855554D1*
X1922596Y3852554D1*
X1923399Y3849554D1*
X1950399Y3858554D2*
X1952810Y3855554D1*
X1954564Y3852554D1*
X1955569Y3849554D1*
X1956056Y3846554D1*
X1956267Y3843554D1*
X1956351Y3840554D1*
X1956382Y3837554D1*
X1956393Y3834554D1*
X1956397Y3831554D1*
X1956399Y3828554D1*
Y3825554D1*
Y3822554D1*
Y3819554D1*
X1971399Y3858554D2*
Y3855554D1*
Y3852554D1*
Y3849554D1*
Y3846554D1*
Y3843554D1*
Y3840554D1*
Y3837554D1*
Y3834554D1*
Y3831554D1*
Y3828554D1*
Y3825554D1*
Y3822554D1*
Y3819554D1*
X2001399Y3858554D2*
X2004399Y3855554D1*
X2001399Y3852554D1*
X1998399Y3849554D1*
X2016399Y3858554D2*
X2012490Y3855554D1*
X2009489Y3852554D1*
X2007329Y3849554D1*
X2005879Y3846554D1*
X2005067Y3843554D1*
X2004675Y3840554D1*
X2004518Y3837554D1*
X2004555Y3834554D1*
X2004924Y3831554D1*
X2005748Y3828554D1*
X2006986Y3825554D1*
X2008579Y3822554D1*
X2010399Y3819554D1*
X2037399Y3858554D2*
X2039924Y3855554D1*
X2042063Y3852554D1*
X2043787Y3849554D1*
X2045043Y3846554D1*
X2045777Y3843554D1*
X2046139Y3840554D1*
X2046298Y3837554D1*
X2046364Y3834554D1*
X2046399Y3831554D1*
X2016399D1*
X2017805Y3828554D1*
X2019399Y3825554D1*
X1683399Y3852554D2*
X1678464Y3849554D1*
X1674571Y3846554D1*
X1671842Y3843554D1*
X1669797Y3840554D1*
X1669078Y3837554D1*
X1668689Y3834554D1*
X1668513Y3831554D1*
X1668441Y3828554D1*
X1668414Y3825554D1*
X1668404Y3822554D1*
X1668399Y3819554D1*
X1677399Y3852554D2*
X1682334Y3849554D1*
X1686228Y3846554D1*
X1688956Y3843554D1*
X1691001Y3840554D1*
X1691720Y3837554D1*
X1692110Y3834554D1*
X1692286Y3831554D1*
X1692357Y3828554D1*
X1692384Y3825554D1*
X1692394Y3822554D1*
X1692399Y3819554D1*
X1725399Y3852554D2*
X1722399Y3849554D1*
X1728399Y3852554D2*
X1733296Y3849554D1*
X1737191Y3846554D1*
X1740399Y3843554D1*
X1727155Y3840554D1*
X1718092Y3837554D1*
X1711820Y3834554D1*
X1709305Y3831554D1*
X1708473Y3828554D1*
X1708935Y3825554D1*
X1709652Y3822554D1*
X1710399Y3819554D1*
X1779399Y3852554D2*
X1776525Y3849554D1*
X1774027Y3846554D1*
X1772245Y3843554D1*
X1771233Y3840554D1*
X1770743Y3837554D1*
X1770532Y3834554D1*
X1770448Y3831554D1*
X1770416Y3828554D1*
X1770405Y3825554D1*
X1770401Y3822554D1*
X1770399Y3819554D1*
X1782399Y3852554D2*
X1785399Y3849554D1*
X1815399Y3852554D2*
X1812525Y3849554D1*
X1810027Y3846554D1*
X1808245Y3843554D1*
X1807233Y3840554D1*
X1806755Y3837554D1*
X1806658Y3834554D1*
X1807037Y3831554D1*
X1808031Y3828554D1*
X1809399Y3825554D1*
X1818399Y3852554D2*
X1821273Y3849554D1*
X1823771Y3846554D1*
X1825553Y3843554D1*
X1826554Y3840554D1*
X1826938Y3837554D1*
X1826765Y3834554D1*
X1826105Y3831554D1*
X1825245Y3828554D1*
X1824399Y3825554D1*
X1932399Y3852554D2*
X1929399Y3849554D1*
X1941399Y3852554D2*
X1943848Y3849554D1*
X1945795Y3846554D1*
X1947399Y3843554D1*
X1935191Y3840554D1*
X1926630Y3837554D1*
X1920691Y3834554D1*
X1918643Y3831554D1*
X1918090Y3828554D1*
X1917945Y3825554D1*
X1919027Y3822554D1*
X1920399Y3819554D1*
X1992399Y3852554D2*
X1987578Y3849554D1*
X1983522Y3846554D1*
X1981923Y3843554D1*
X1981051Y3840554D1*
X1980655Y3837554D1*
X1980494Y3834554D1*
X1980433Y3831554D1*
X1980411Y3828554D1*
X1980403Y3825554D1*
X1980400Y3822554D1*
X1980399Y3819554D1*
X1989399Y3852554D2*
X1992399Y3849554D1*
X2022399Y3852554D2*
X2019951Y3849554D1*
X2018003Y3846554D1*
X2016399Y3843554D1*
X2028399Y3852554D2*
X2031399Y3849554D1*
X2034399Y3846554D1*
X2037399Y3843554D1*
X1875399Y3840554D2*
X1875285Y3837554D1*
X1874900Y3834554D1*
X1874170Y3831554D1*
X1873286Y3828554D1*
X1872297Y3825554D1*
X1870977Y3822554D1*
X1869399Y3819554D1*
X1878399Y3840554D2*
X1880821Y3837554D1*
X1882681Y3834554D1*
X1884068Y3831554D1*
X1885275Y3828554D1*
X1886262Y3825554D1*
X1886917Y3822554D1*
X1887399Y3819554D1*
X1728399Y3834554D2*
X1722399Y3831554D1*
X1716399Y3828554D1*
X1719399Y3825554D1*
X1740399Y3834554D2*
X1739848Y3831554D1*
X1738795Y3828554D1*
X1737399Y3825554D1*
X1932399Y3834554D2*
X1929951Y3831554D1*
X1928003Y3828554D1*
X1926399Y3825554D1*
X1947399Y3834554D2*
Y3831554D1*
Y3828554D1*
Y3825554D1*
X2034399D2*
X2040399D2*
X2041993Y3822554D1*
X2043399Y3819554D1*
X2360656Y3585678D2*
D69*
Y3545486D1*
X2387451Y3585678D2*
X2360656Y3558884D1*
X2370207Y3568479D2*
X2387451Y3545486D1*
X2399802Y3577985D2*
X2403649Y3579930D1*
X2409397Y3585634D1*
Y3545486D1*
X2360324Y2719012D2*
Y2678820D1*
X2387118Y2719012D2*
X2360324Y2692217D1*
X2369874Y2701812D2*
X2387118Y2678820D1*
X2401415Y2709417D2*
Y2711318D1*
X2403317Y2715165D1*
X2405218Y2717066D1*
X2409065Y2718968D1*
X2416714D1*
X2420517Y2717066D1*
X2422418Y2715165D1*
X2424363Y2711318D1*
Y2707516D1*
X2422418Y2703669D1*
X2418615Y2697965D1*
X2399470Y2678820D1*
X2426265D1*
X2360061Y1852083D2*
Y1811891D1*
X2386856Y1852083D2*
X2360061Y1825288D1*
X2369612Y1834883D2*
X2386856Y1811891D1*
X2403054Y1852038D2*
X2424057D1*
X2412605Y1836740D1*
X2418353D1*
X2422155Y1834839D1*
X2424057Y1832937D1*
X2426002Y1827189D1*
Y1823387D1*
X2424057Y1817639D1*
X2420254Y1813792D1*
X2414506Y1811891D1*
X2408758D1*
X2403054Y1813792D1*
X2401153Y1815737D1*
X2399207Y1819540D1*
X1268979Y1826886D2*
Y1786694D1*
X1295774Y1826886D2*
X1268979Y1800091D1*
X1278530Y1809686D2*
X1295774Y1786694D1*
X1327271D2*
Y1826842D1*
X1308126Y1800091D1*
X1336821D1*
X2233484Y3726820D2*
Y3686628D1*
X2256431D1*
X2293632Y3726820D2*
X2268783D1*
Y3686628D1*
X2293632D1*
X2268783Y3707675D2*
X2284081D1*
X2305983Y3726820D2*
Y3686628D1*
X2319381D1*
X2325129Y3688574D1*
X2328976Y3692376D1*
X2330877Y3696223D1*
X2332778Y3701927D1*
Y3711522D1*
X2330877Y3717270D1*
X2328976Y3721072D1*
X2325129Y3724919D1*
X2319381Y3726820D1*
X2305983D1*
X2345129Y3719127D2*
X2348976Y3721072D1*
X2354724Y3726776D1*
Y3686628D1*
X2223178Y2855429D2*
Y2815237D1*
X2246125D1*
X2283326Y2855429D2*
X2258477D1*
Y2815237D1*
X2283326D1*
X2258477Y2836284D2*
X2273775D1*
X2295677Y2855429D2*
Y2815237D1*
X2309075D1*
X2314823Y2817183D1*
X2318670Y2820985D1*
X2320571Y2824832D1*
X2322472Y2830536D1*
Y2840130D1*
X2320571Y2845878D1*
X2318670Y2849681D1*
X2314823Y2853528D1*
X2309075Y2855429D1*
X2295677D1*
X2336769Y2845834D2*
Y2847736D1*
X2338670Y2851582D1*
X2340572Y2853484D1*
X2344418Y2855385D1*
X2352068D1*
X2355870Y2853484D1*
X2357771Y2851582D1*
X2359717Y2847736D1*
Y2843933D1*
X2357771Y2840086D1*
X2353969Y2834382D1*
X2334823Y2815237D1*
X2361618D1*
X2218584Y1974327D2*
Y1934135D1*
X2241532D1*
X2278733Y1974327D2*
X2253884D1*
Y1934135D1*
X2278733D1*
X2253884Y1955181D2*
X2269182D1*
X2291084Y1974327D2*
Y1934135D1*
X2304482D1*
X2310230Y1936080D1*
X2314076Y1939883D1*
X2315978Y1943729D1*
X2317879Y1949433D1*
Y1959028D1*
X2315978Y1964776D1*
X2314076Y1968579D1*
X2310230Y1972425D1*
X2304482Y1974327D1*
X2291084D1*
X2334077Y1974282D2*
X2355079D1*
X2343628Y1958984D1*
X2349376D1*
X2353178Y1957083D1*
X2355079Y1955181D1*
X2357025Y1949433D1*
Y1945631D1*
X2355079Y1939883D1*
X2351277Y1936036D1*
X2345529Y1934135D1*
X2339781D1*
X2334077Y1936036D1*
X2332176Y1937981D1*
X2330230Y1941784D1*
X1526558Y1078001D2*
Y1037809D1*
X1549506D1*
X1586706Y1078001D2*
X1561857D1*
Y1037809D1*
X1586706D1*
X1561857Y1058856D2*
X1577156D1*
X1599057Y1078001D2*
Y1037809D1*
X1612455D1*
X1618203Y1039755D1*
X1622050Y1043557D1*
X1623951Y1047404D1*
X1625852Y1053108D1*
Y1062703D1*
X1623951Y1068451D1*
X1622050Y1072253D1*
X1618203Y1076100D1*
X1612455Y1078001D1*
X1599057D1*
X1657349Y1037809D2*
Y1077957D1*
X1638204Y1051207D1*
X1666900D1*
X881893Y3589681D2*
X878046Y3587780D1*
X874243Y3583933D1*
X872298Y3580130D1*
X870396Y3574382D1*
Y3564788D1*
X872298Y3559084D1*
X874243Y3555237D1*
X878046Y3551435D1*
X881893Y3549489D1*
X889542D1*
X893344Y3551435D1*
X897191Y3555237D1*
X899092Y3559084D1*
X900994Y3564788D1*
Y3574382D1*
X899092Y3580130D1*
X897191Y3583933D1*
X893344Y3587780D1*
X889542Y3589681D1*
X881893D1*
X942041Y3580130D2*
X940140Y3583933D1*
X936293Y3587780D1*
X932490Y3589681D1*
X924841D1*
X920994Y3587780D1*
X917192Y3583933D1*
X915246Y3580130D1*
X913345Y3574382D1*
Y3564788D1*
X915246Y3559084D1*
X917192Y3555237D1*
X920994Y3551435D1*
X924841Y3549489D1*
X932490D1*
X936293Y3551435D1*
X940140Y3555237D1*
X942041Y3559084D1*
X954392Y3581988D2*
X958239Y3583933D1*
X963987Y3589637D1*
Y3549489D1*
X877361Y3165403D2*
X873514Y3163502D1*
X869712Y3159655D1*
X867766Y3155852D1*
X865865Y3150104D1*
Y3140509D1*
X867766Y3134806D1*
X869712Y3130959D1*
X873514Y3127156D1*
X877361Y3125211D1*
X885010D1*
X888813Y3127156D1*
X892659Y3130959D1*
X894561Y3134806D1*
X896462Y3140509D1*
Y3150104D1*
X894561Y3155852D1*
X892659Y3159655D1*
X888813Y3163502D1*
X885010Y3165403D1*
X877361D1*
X937509Y3155852D2*
X935608Y3159655D1*
X931761Y3163502D1*
X927959Y3165403D1*
X920309D1*
X916463Y3163502D1*
X912660Y3159655D1*
X910715Y3155852D1*
X908813Y3150104D1*
Y3140509D1*
X910715Y3134806D1*
X912660Y3130959D1*
X916463Y3127156D1*
X920309Y3125211D1*
X927959D1*
X931761Y3127156D1*
X935608Y3130959D1*
X937509Y3134806D1*
X951806Y3155808D2*
Y3157709D1*
X953707Y3161556D1*
X955609Y3163457D1*
X959455Y3165359D1*
X967105D1*
X970907Y3163457D1*
X972809Y3161556D1*
X974754Y3157709D1*
Y3153907D1*
X972809Y3150060D1*
X969006Y3144356D1*
X949861Y3125211D1*
X976655D1*
X878017Y2740731D2*
X874170Y2738830D1*
X870368Y2734983D1*
X868422Y2731180D1*
X866521Y2725432D1*
Y2715838D1*
X868422Y2710134D1*
X870368Y2706287D1*
X874170Y2702484D1*
X878017Y2700539D1*
X885666D1*
X889469Y2702484D1*
X893316Y2706287D1*
X895217Y2710134D1*
X897118Y2715838D1*
Y2725432D1*
X895217Y2731180D1*
X893316Y2734983D1*
X889469Y2738830D1*
X885666Y2740731D1*
X878017D1*
X938165Y2731180D2*
X936264Y2734983D1*
X932417Y2738830D1*
X928615Y2740731D1*
X920966D1*
X917119Y2738830D1*
X913316Y2734983D1*
X911371Y2731180D1*
X909470Y2725432D1*
Y2715838D1*
X911371Y2710134D1*
X913316Y2706287D1*
X917119Y2702484D1*
X920966Y2700539D1*
X928615D1*
X932417Y2702484D1*
X936264Y2706287D1*
X938165Y2710134D1*
X954364Y2740687D2*
X975366D1*
X963914Y2725388D1*
X969662D1*
X973465Y2723487D1*
X975366Y2721586D1*
X977312Y2715838D1*
Y2712035D1*
X975366Y2706287D1*
X971564Y2702440D1*
X965815Y2700539D1*
X960067D1*
X954364Y2702440D1*
X952462Y2704386D1*
X950517Y2708188D1*
X879560Y2314090D2*
X875713Y2312189D1*
X871910Y2308342D1*
X869965Y2304540D1*
X868064Y2298792D1*
Y2289197D1*
X869965Y2283493D1*
X871910Y2279647D1*
X875713Y2275844D1*
X879560Y2273898D1*
X887209D1*
X891012Y2275844D1*
X894858Y2279647D1*
X896760Y2283493D1*
X898661Y2289197D1*
Y2298792D1*
X896760Y2304540D1*
X894858Y2308342D1*
X891012Y2312189D1*
X887209Y2314090D1*
X879560D1*
X939708Y2304540D2*
X937807Y2308342D1*
X933960Y2312189D1*
X930158Y2314090D1*
X922508D1*
X918662Y2312189D1*
X914859Y2308342D1*
X912914Y2304540D1*
X911012Y2298792D1*
Y2289197D1*
X912914Y2283493D1*
X914859Y2279647D1*
X918662Y2275844D1*
X922508Y2273898D1*
X930158D1*
X933960Y2275844D1*
X937807Y2279647D1*
X939708Y2283493D1*
X971205Y2273898D2*
Y2314046D1*
X952060Y2287296D1*
X980756D1*
X1190499Y3518297D2*
X1186697Y3516439D1*
X1182850Y3512593D1*
X1180948Y3508746D1*
X1179003Y3502998D1*
Y3493447D1*
X1180948Y3487699D1*
X1182850Y3483897D1*
X1186697Y3480050D1*
X1190499Y3478149D1*
X1198148D1*
X1201995Y3480050D1*
X1205798Y3483897D1*
X1207699Y3487699D1*
X1209644Y3493447D1*
Y3502998D1*
X1207699Y3508746D1*
X1205798Y3512593D1*
X1201995Y3516439D1*
X1198148Y3518297D1*
X1190499D1*
X1196247Y3485798D2*
X1207699Y3474302D1*
X1221996Y3510603D2*
X1225843Y3512548D1*
X1231591Y3518252D1*
Y3478105D1*
X1185225Y3105289D2*
X1181422Y3103432D1*
X1177575Y3099585D1*
X1175674Y3095739D1*
X1173729Y3089991D1*
Y3080440D1*
X1175674Y3074692D1*
X1177575Y3070890D1*
X1181422Y3067043D1*
X1185225Y3065142D1*
X1192874D1*
X1196721Y3067043D1*
X1200523Y3070890D1*
X1202424Y3074692D1*
X1204370Y3080440D1*
Y3089991D1*
X1202424Y3095739D1*
X1200523Y3099585D1*
X1196721Y3103432D1*
X1192874Y3105289D1*
X1185225D1*
X1190973Y3072791D2*
X1202424Y3061295D1*
X1218667Y3095695D2*
Y3097596D1*
X1220568Y3101443D1*
X1222469Y3103344D1*
X1226316Y3105245D1*
X1233965D1*
X1237768Y3103344D1*
X1239669Y3101443D1*
X1241615Y3097596D1*
Y3093793D1*
X1239669Y3089946D1*
X1235867Y3084243D1*
X1216721Y3065097D1*
X1243516D1*
X1189752Y2672940D2*
X1185950Y2671083D1*
X1182103Y2667236D1*
X1180202Y2663390D1*
X1178256Y2657642D1*
Y2648091D1*
X1180202Y2642343D1*
X1182103Y2638540D1*
X1185950Y2634694D1*
X1189752Y2632792D1*
X1197401D1*
X1201248Y2634694D1*
X1205051Y2638540D1*
X1206952Y2642343D1*
X1208898Y2648091D1*
Y2657642D1*
X1206952Y2663390D1*
X1205051Y2667236D1*
X1201248Y2671083D1*
X1197401Y2672940D1*
X1189752D1*
X1195500Y2640442D2*
X1206952Y2628946D1*
X1225096Y2672896D2*
X1246098D1*
X1234646Y2657597D1*
X1240394D1*
X1244197Y2655696D1*
X1246098Y2653795D1*
X1248044Y2648047D1*
Y2644244D1*
X1246098Y2638496D1*
X1242296Y2634649D1*
X1236548Y2632748D1*
X1230799D1*
X1225096Y2634649D1*
X1223194Y2636595D1*
X1221249Y2640398D1*
X1169313Y2248071D2*
X1165511Y2246214D1*
X1161664Y2242368D1*
X1159763Y2238521D1*
X1157817Y2232773D1*
Y2223222D1*
X1159763Y2217474D1*
X1161664Y2213672D1*
X1165511Y2209825D1*
X1169313Y2207924D1*
X1176963D1*
X1180809Y2209825D1*
X1184612Y2213672D1*
X1186513Y2217474D1*
X1188459Y2223222D1*
Y2232773D1*
X1186513Y2238521D1*
X1184612Y2242368D1*
X1180809Y2246214D1*
X1176963Y2248071D1*
X1169313D1*
X1175061Y2215573D2*
X1186513Y2204077D1*
X1219955Y2207879D2*
Y2248027D1*
X1200810Y2221277D1*
X1229506D1*
X1179304Y3700457D2*
X1196504D1*
X1202252Y3702402D1*
X1204198Y3704304D1*
X1206099Y3708106D1*
Y3711953D1*
X1204198Y3715756D1*
X1202252Y3717701D1*
X1196504Y3719602D1*
X1179304D1*
Y3679410D1*
X1192702Y3700457D2*
X1206099Y3679410D1*
X1218450Y3711909D2*
X1222297Y3713854D1*
X1228045Y3719558D1*
Y3679410D1*
X1730777Y3686059D2*
Y3703259D1*
X1728832Y3709007D1*
X1726930Y3710952D1*
X1723128Y3712853D1*
X1719281D1*
X1715479Y3710952D1*
X1713533Y3709007D1*
X1711632Y3703259D1*
Y3686059D1*
X1751824D1*
X1730777Y3699456D2*
X1751824Y3712853D1*
X1721227Y3727150D2*
X1719325D1*
X1715479Y3729052D1*
X1713577Y3730953D1*
X1711676Y3734800D1*
Y3742449D1*
X1713577Y3746251D1*
X1715479Y3748153D1*
X1719325Y3750098D1*
X1723128D1*
X1726975Y3748153D1*
X1732678Y3744350D1*
X1751824Y3725205D1*
Y3751999D1*
X1316473Y3563093D2*
Y3580293D1*
X1314527Y3586041D1*
X1312626Y3587986D1*
X1308823Y3589888D1*
X1304977D1*
X1301174Y3587986D1*
X1299229Y3586041D1*
X1297327Y3580293D1*
Y3563093D1*
X1337519D1*
X1316473Y3576490D2*
X1337519Y3589888D1*
X1297372Y3606086D2*
Y3627088D1*
X1312670Y3615636D1*
Y3621384D1*
X1314571Y3625187D1*
X1316473Y3627088D1*
X1322221Y3629034D1*
X1326023D1*
X1331771Y3627088D1*
X1335618Y3623286D1*
X1337519Y3617538D1*
Y3611789D1*
X1335618Y3606086D1*
X1333673Y3604184D1*
X1329870Y3602239D1*
X1737208Y2753481D2*
Y2770681D1*
X1735262Y2776429D1*
X1733361Y2778374D1*
X1729558Y2780276D1*
X1725712D1*
X1721909Y2778374D1*
X1719963Y2776429D1*
X1718062Y2770681D1*
Y2753481D1*
X1758254D1*
X1737208Y2766878D2*
X1758254Y2780275D1*
Y2811772D2*
X1718106D1*
X1744857Y2792627D1*
Y2821323D1*
X1542358Y3255444D2*
X1559558D1*
X1565306Y3257389D1*
X1567251Y3259291D1*
X1569153Y3263093D1*
Y3266940D1*
X1567251Y3270742D1*
X1565306Y3272688D1*
X1559558Y3274589D1*
X1542358D1*
Y3234397D1*
X1555755Y3255444D2*
X1569153Y3234397D1*
X1604452Y3274545D2*
X1585351D1*
X1583449Y3257345D1*
X1585351Y3259246D1*
X1591099Y3261192D1*
X1596803D1*
X1602551Y3259246D1*
X1606397Y3255444D1*
X1608299Y3249696D1*
Y3245893D1*
X1606397Y3240145D1*
X1602551Y3236298D1*
X1596803Y3234397D1*
X1591099D1*
X1585351Y3236298D1*
X1583449Y3238244D1*
X1581504Y3242046D1*
X1785633Y1909079D2*
Y1926279D1*
X1783687Y1932027D1*
X1781786Y1933972D1*
X1777983Y1935873D1*
X1774137D1*
X1770334Y1933972D1*
X1768389Y1932027D1*
X1766487Y1926279D1*
Y1909079D1*
X1806679D1*
X1785633Y1922476D2*
X1806679Y1935873D1*
X1772235Y1971173D2*
X1768433Y1969271D1*
X1766532Y1963523D1*
Y1959721D1*
X1768433Y1953973D1*
X1774181Y1950126D1*
X1783732Y1948225D1*
X1793282D1*
X1800931Y1950126D1*
X1804778Y1953973D1*
X1806679Y1959721D1*
Y1961622D1*
X1804778Y1967326D1*
X1800931Y1971173D1*
X1795183Y1973074D1*
X1793282D1*
X1787534Y1971173D1*
X1783732Y1967326D1*
X1781830Y1961622D1*
Y1959721D1*
X1783732Y1953973D1*
X1787534Y1950126D1*
X1793282Y1948225D1*
X1543014Y2461087D2*
X1560214D1*
X1565962Y2463032D1*
X1567907Y2464934D1*
X1569809Y2468736D1*
Y2472583D1*
X1567907Y2476385D1*
X1565962Y2478331D1*
X1560214Y2480232D1*
X1543014D1*
Y2440040D1*
X1556411Y2461087D2*
X1569809Y2440040D1*
X1589809D2*
X1608955Y2480188D1*
X1582160D1*
X1786289Y1665609D2*
Y1682808D1*
X1784343Y1688556D1*
X1782442Y1690502D1*
X1778640Y1692403D1*
X1774793D1*
X1770990Y1690502D1*
X1769045Y1688556D1*
X1767144Y1682808D1*
Y1665609D1*
X1807336D1*
X1786289Y1679006D2*
X1807336Y1692403D1*
X1767188Y1714305D2*
X1769089Y1708601D1*
X1772892Y1706656D1*
X1776738D1*
X1780541Y1708601D1*
X1782486Y1712404D1*
X1784388Y1720053D1*
X1786289Y1725801D1*
X1790136Y1729604D1*
X1793938Y1731505D1*
X1799686D1*
X1803489Y1729604D1*
X1805434Y1727702D1*
X1807336Y1721954D1*
Y1714305D1*
X1805434Y1708601D1*
X1803489Y1706656D1*
X1799686Y1704754D1*
X1793938D1*
X1790136Y1706656D1*
X1786289Y1710503D1*
X1784388Y1716206D1*
X1782486Y1723856D1*
X1780541Y1727702D1*
X1776738Y1729604D1*
X1772892D1*
X1769089Y1727702D1*
X1767188Y1721954D1*
Y1714305D1*
X1963031Y3797293D2*
Y3768597D1*
X1964933Y3762849D1*
X1968779Y3759046D1*
X1974527Y3757101D1*
X1978330D1*
X1984078Y3759046D1*
X1987925Y3762849D1*
X1989826Y3768597D1*
Y3797293D1*
X2002177Y3789599D2*
X2006024Y3791545D1*
X2011772Y3797248D1*
Y3757101D1*
X2021361Y2869077D2*
Y2840381D1*
X2023262Y2834633D1*
X2027109Y2830831D1*
X2032857Y2828885D1*
X2036659D1*
X2042407Y2830831D1*
X2046254Y2834633D1*
X2048155Y2840381D1*
Y2869077D1*
X2062452Y2859483D2*
Y2861384D1*
X2064353Y2865231D1*
X2066255Y2867132D1*
X2070101Y2869033D1*
X2077751D1*
X2081553Y2867132D1*
X2083455Y2865231D1*
X2085400Y2861384D1*
Y2857581D1*
X2083455Y2853735D1*
X2079652Y2848031D1*
X2060507Y2828885D1*
X2087301D1*
X2012830Y2015403D2*
Y1986707D1*
X2014732Y1980959D1*
X2018578Y1977156D1*
X2024326Y1975211D1*
X2028129D1*
X2033877Y1977156D1*
X2037724Y1980959D1*
X2039625Y1986707D1*
Y2015403D1*
X2055823Y2015359D2*
X2076826D1*
X2065374Y2000060D1*
X2071122D1*
X2074924Y1998159D1*
X2076826Y1996257D1*
X2078771Y1990509D1*
Y1986707D1*
X2076826Y1980959D1*
X2073023Y1977112D1*
X2067275Y1975211D1*
X2061527D1*
X2055823Y1977112D1*
X2053922Y1979058D1*
X2051976Y1982860D1*
X1546263Y2040337D2*
Y2011641D1*
X1548164Y2005893D1*
X1552011Y2002091D1*
X1557759Y2000145D1*
X1561562D1*
X1567310Y2002091D1*
X1571156Y2005893D1*
X1573058Y2011641D1*
Y2040337D1*
X1604554Y2000145D2*
Y2040293D1*
X1585409Y2013543D1*
X1614105D1*
X924904Y3965797D2*
Y3937101D1*
X926805Y3931353D1*
X930652Y3927550D1*
X936400Y3925605D1*
X940202D1*
X945950Y3927550D1*
X949797Y3931353D1*
X951699Y3937101D1*
Y3965797D1*
X986998Y3965752D2*
X967897D1*
X965995Y3948552D1*
X967897Y3950454D1*
X973645Y3952399D1*
X979349D1*
X985097Y3950454D1*
X988943Y3946651D1*
X990845Y3940903D1*
Y3937101D1*
X988943Y3931353D1*
X985097Y3927506D1*
X979349Y3925605D1*
X973645D1*
X967897Y3927506D1*
X965995Y3929451D1*
X964050Y3933254D1*
X1411024Y758091D2*
D70*
X1454024D1*
X1468394Y762955D1*
X1473258Y767708D1*
X1478011Y777214D1*
Y786831D1*
X1473258Y796337D1*
X1468394Y801201D1*
X1454024Y805954D1*
X1411024D1*
Y705474D1*
X1444518Y758091D2*
X1478011Y705474D1*
X1508889Y743721D2*
X1566259D1*
Y753338D1*
X1561506Y762955D1*
X1556753Y767708D1*
X1547136Y772461D1*
X1532766D1*
X1523260Y767708D1*
X1513643Y758091D1*
X1508889Y743721D1*
Y734214D1*
X1513643Y719844D1*
X1523260Y710338D1*
X1532766Y705474D1*
X1547136D1*
X1556753Y710338D1*
X1566259Y719844D1*
X1597138Y805954D2*
Y705474D1*
X1685386Y772461D2*
Y705474D1*
Y758091D2*
X1675880Y767708D1*
X1666263Y772461D1*
X1652003D1*
X1642386Y767708D1*
X1632880Y758091D1*
X1628016Y743721D1*
Y734214D1*
X1632880Y719844D1*
X1642386Y710338D1*
X1652003Y705474D1*
X1666263D1*
X1675880Y710338D1*
X1685386Y719844D1*
X1721128Y772461D2*
X1749758Y705474D1*
X1740251Y686351D1*
X1730635Y676734D1*
X1721128Y671981D1*
X1716264D1*
X1778498Y772461D2*
X1749758Y705474D1*
X1906578Y805954D2*
Y705474D1*
X1963948D1*
X1994827Y772461D2*
Y724597D1*
X1999580Y710338D1*
X2009197Y705474D1*
X2023567D1*
X2033073Y710338D1*
X2047443Y724597D1*
Y772461D2*
Y705474D1*
X2078322Y772461D2*
Y705474D1*
Y743721D2*
X2083185Y758091D1*
X2092692Y767708D1*
X2102309Y772461D1*
X2116679D1*
X2147557Y743721D2*
X2204927D1*
Y753338D1*
X2200174Y762955D1*
X2195421Y767708D1*
X2185804Y772461D1*
X2171434D1*
X2161927Y767708D1*
X2152311Y758091D1*
X2147557Y743721D1*
Y734214D1*
X2152311Y719844D1*
X2161927Y710338D1*
X2171434Y705474D1*
X2185804D1*
X2195421Y710338D1*
X2204927Y719844D1*
X3256240Y3306746D2*
D71*
X3286384Y3306745D1*
X3256240Y3286650D1*
X3286384D1*
X3263403Y3337531D2*
X3260551Y3336105D1*
X3257666Y3333220D1*
X3256240Y3330368D1*
Y3324631D1*
X3257666Y3321746D1*
X3260551Y3318894D1*
X3263403Y3317435D1*
X3267714Y3316009D1*
X3274910D1*
X3279188Y3317435D1*
X3282073Y3318894D1*
X3284925Y3321746D1*
X3286384Y3324631D1*
Y3330368D1*
X3284925Y3333220D1*
X3282073Y3336105D1*
X3279188Y3337531D1*
X3259908Y3091692D2*
X3290052D1*
X3259908Y3071596D1*
X3290052D1*
X3259908Y3109577D2*
X3261334Y3106692D1*
X3264219Y3103840D1*
X3267071Y3102381D1*
X3271382Y3100955D1*
X3278578D1*
X3282856Y3102381D1*
X3285741Y3103840D1*
X3288593Y3106692D1*
X3290052Y3109577D1*
Y3115314D1*
X3288593Y3118166D1*
X3285741Y3121051D1*
X3282856Y3122477D1*
X3278578Y3123903D1*
X3271382D1*
X3267071Y3122477D1*
X3264219Y3121051D1*
X3261334Y3118166D1*
X3259908Y3115314D1*
Y3109577D1*
X3264639Y2439160D2*
X3294783D1*
X3264639Y2419064D1*
X3294783D1*
X3271802Y2469946D2*
X3268950Y2468520D1*
X3266065Y2465635D1*
X3264639Y2462783D1*
Y2457046D1*
X3266065Y2454161D1*
X3268950Y2451309D1*
X3271802Y2449850D1*
X3276113Y2448424D1*
X3283309D1*
X3287587Y2449850D1*
X3290472Y2451309D1*
X3293324Y2454161D1*
X3294783Y2457046D1*
Y2462783D1*
X3293324Y2465635D1*
X3290472Y2468520D1*
X3287587Y2469946D1*
X3268307Y2224106D2*
X3298451D1*
X3268307Y2204010D1*
X3298451D1*
X3268307Y2241992D2*
X3269733Y2239107D1*
X3272618Y2236255D1*
X3275470Y2234796D1*
X3279781Y2233370D1*
X3286977D1*
X3291255Y2234796D1*
X3294140Y2236255D1*
X3296992Y2239107D1*
X3298451Y2241992D1*
Y2247729D1*
X3296992Y2250581D1*
X3294140Y2253466D1*
X3291255Y2254892D1*
X3286977Y2256318D1*
X3279781D1*
X3275470Y2254892D1*
X3272618Y2253466D1*
X3269733Y2250581D1*
X3268307Y2247729D1*
Y2241992D1*
X3268182Y1580236D2*
X3298326D1*
X3268182Y1560140D1*
X3298326D1*
X3275345Y1611022D2*
X3272493Y1609596D1*
X3269608Y1606711D1*
X3268182Y1603859D1*
Y1598122D1*
X3269608Y1595237D1*
X3272493Y1592385D1*
X3275345Y1590926D1*
X3279656Y1589500D1*
X3286852D1*
X3291130Y1590926D1*
X3294015Y1592385D1*
X3296867Y1595237D1*
X3298326Y1598122D1*
Y1603859D1*
X3296867Y1606711D1*
X3294015Y1609596D1*
X3291130Y1611022D1*
X3271850Y1365183D2*
X3301994Y1365182D1*
X3271850Y1345087D1*
X3301994D1*
X3271850Y1383068D2*
X3273276Y1380183D1*
X3276161Y1377331D1*
X3279013Y1375872D1*
X3283324Y1374446D1*
X3290520D1*
X3294798Y1375872D1*
X3297683Y1377331D1*
X3300535Y1380183D1*
X3301994Y1383068D1*
Y1388805D1*
X3300535Y1391657D1*
X3297683Y1394542D1*
X3294798Y1395968D1*
X3290520Y1397394D1*
X3283324D1*
X3279013Y1395968D1*
X3276161Y1394542D1*
X3273276Y1391657D1*
X3271850Y1388805D1*
Y1383068D1*
X429885Y1334331D2*
X399741D1*
X429885Y1354427D1*
X399741D1*
X422722Y1303546D2*
X425574Y1304972D1*
X428459Y1307857D1*
X429885Y1310708D1*
Y1316445D1*
X428459Y1319331D1*
X425574Y1322182D1*
X422722Y1323642D1*
X418411Y1325067D1*
X411215Y1325068D1*
X406937Y1323642D1*
X404052Y1322182D1*
X401200Y1319331D1*
X399741Y1316445D1*
Y1310709D1*
X401200Y1307857D1*
X404052Y1304972D1*
X406937Y1303546D1*
X426217Y1549385D2*
X396073D1*
X426217Y1569481D1*
X396073D1*
X426217Y1531499D2*
X424791Y1534384D1*
X421906Y1537236D1*
X419054Y1538695D1*
X414743Y1540121D1*
X407547D1*
X403269Y1538695D1*
X400384Y1537236D1*
X397532Y1534384D1*
X396073Y1531499D1*
Y1525762D1*
X397532Y1522910D1*
X400384Y1520025D1*
X403269Y1518599D1*
X407547Y1517173D1*
X414743D1*
X419054Y1518599D1*
X421906Y1520025D1*
X424791Y1522910D1*
X426217Y1525762D1*
Y1531499D1*
X698600Y2755141D2*
D69*
X658408D1*
X698600Y2739842D1*
X658408Y2724544D1*
X698600D1*
Y2798133D2*
X658408Y2782791D1*
X698600Y2767492D1*
X685203Y2773240D2*
Y2792385D1*
X658408Y2810485D2*
X698600Y2837280D1*
X658408D2*
X698600Y2810485D1*
Y2849631D2*
X658453Y2876426D1*
X658408Y2902174D2*
X698600D1*
X658408Y2888777D2*
Y2915572D1*
X671806Y2927923D2*
X690951D1*
X696655Y2929824D1*
X698600Y2933671D1*
Y2939419D1*
X696655Y2943222D1*
X690951Y2948970D1*
X671806D2*
X698600D1*
X671806Y2961321D2*
X698600D1*
X683302D2*
X677554Y2963267D1*
X673707Y2967069D1*
X671806Y2970916D1*
Y2976664D1*
X658408Y2989015D2*
X698600D1*
X677554D2*
X673707Y2992862D1*
X671806Y2996665D1*
Y3002413D1*
X673707Y3006215D1*
X677554Y3010062D1*
X683302Y3011963D1*
X687104D1*
X692852Y3010062D1*
X696655Y3006215D1*
X698600Y3002413D1*
Y2996665D1*
X696655Y2992862D1*
X692852Y2989015D1*
X671806Y3033865D2*
X673707Y3030063D1*
X677554Y3026216D1*
X683302Y3024315D1*
X687104D1*
X692852Y3026216D1*
X696655Y3030063D1*
X698600Y3033865D1*
Y3039613D1*
X696655Y3043460D1*
X692852Y3047263D1*
X687104Y3049208D1*
X683302D1*
X677554Y3047263D1*
X673707Y3043460D1*
X671806Y3039613D1*
Y3033865D1*
X658408Y3067307D2*
X690951D1*
X696655Y3069209D1*
X698600Y3073056D1*
Y3076858D1*
X671806Y3061559D2*
Y3074957D1*
X667959Y3156786D2*
X664156Y3154885D1*
X660310Y3151038D1*
X658408Y3147236D1*
Y3139586D1*
X660310Y3135740D1*
X664156Y3131937D1*
X667959Y3129991D1*
X673707Y3128090D1*
X683302D1*
X689006Y3129991D1*
X692852Y3131937D1*
X696655Y3135740D1*
X698600Y3139586D1*
Y3147236D1*
X696655Y3151038D1*
X692852Y3154885D1*
X689006Y3156786D1*
X671806Y3178688D2*
X673707Y3174886D1*
X677554Y3171039D1*
X683302Y3169138D1*
X687104D1*
X692852Y3171039D1*
X696655Y3174886D1*
X698600Y3178688D1*
Y3184436D1*
X696655Y3188283D1*
X692852Y3192085D1*
X687104Y3194031D1*
X683302D1*
X677554Y3192085D1*
X673707Y3188283D1*
X671806Y3184436D1*
Y3178688D1*
Y3206382D2*
X698600D1*
X679455D2*
X673707Y3212130D1*
X671806Y3215977D1*
Y3221681D1*
X673707Y3225528D1*
X679455Y3227429D1*
X698600D1*
X679455D2*
X673707Y3233177D1*
X671806Y3237024D1*
Y3242728D1*
X673707Y3246574D1*
X679455Y3248520D1*
X698600D1*
X671806Y3260871D2*
X711998D1*
X677554D2*
X673751Y3264718D1*
X671806Y3268521D1*
Y3274269D1*
X673751Y3278115D1*
X677554Y3281918D1*
X683302Y3283863D1*
X687149D1*
X692852Y3281918D1*
X696699Y3278115D1*
X698600Y3274269D1*
Y3268521D1*
X696699Y3264718D1*
X692852Y3260871D1*
X671806Y3319163D2*
X698600D1*
X677554D2*
X673707Y3315360D1*
X671806Y3311513D1*
Y3305810D1*
X673707Y3301963D1*
X677554Y3298160D1*
X683302Y3296215D1*
X687104D1*
X692852Y3298160D1*
X696655Y3301963D1*
X698600Y3305810D1*
Y3311513D1*
X696655Y3315360D1*
X692852Y3319163D1*
X658408Y3337262D2*
X690951D1*
X696655Y3339163D1*
X698600Y3343010D1*
Y3346813D1*
X671806Y3331514D2*
Y3344911D1*
X658408Y3359164D2*
X660310Y3361065D1*
X658408Y3363011D1*
X656463Y3361065D1*
X658408Y3359164D1*
X671806Y3361065D2*
X698600D1*
X658408Y3375362D2*
X698600D1*
X677554D2*
X673707Y3379209D1*
X671806Y3383012D1*
Y3388760D1*
X673707Y3392562D1*
X677554Y3396409D1*
X683302Y3398310D1*
X687104D1*
X692852Y3396409D1*
X696655Y3392562D1*
X698600Y3388760D1*
Y3383012D1*
X696655Y3379209D1*
X692852Y3375362D1*
X658408Y3410662D2*
X698600D1*
X683302Y3423013D2*
Y3445961D1*
X679455D1*
X675608Y3444060D1*
X673707Y3442158D1*
X671806Y3438312D1*
Y3432564D1*
X673707Y3428761D1*
X677554Y3424914D1*
X683302Y3423013D1*
X687104D1*
X692852Y3424914D1*
X696655Y3428761D1*
X698600Y3432564D1*
Y3438312D1*
X696655Y3442158D1*
X692852Y3445961D1*
X658408Y3497193D2*
X698600D1*
Y3520141D1*
X664156Y3559287D2*
X660310Y3555484D1*
X658408Y3549736D1*
Y3542087D1*
X660310Y3536339D1*
X664156Y3532492D1*
X667959D1*
X671806Y3534438D1*
X673707Y3536339D1*
X675608Y3540142D1*
X679455Y3551638D1*
X681356Y3555484D1*
X683302Y3557386D1*
X687104Y3559287D1*
X692852D1*
X696655Y3555484D1*
X698600Y3549736D1*
Y3542087D1*
X696655Y3536339D1*
X692852Y3532492D1*
X658408Y3596488D2*
Y3571638D1*
X698600D1*
Y3596488D1*
X677554Y3571638D2*
Y3586937D1*
X3143742Y3403385D2*
D71*
X3145201Y3400500D1*
X3149479Y3396189D1*
X3119368D1*
X3143002Y3210642D2*
X3144428D1*
X3147313Y3209216D1*
X3148739Y3207790D1*
X3150165Y3204905D1*
Y3199168D1*
X3148739Y3196316D1*
X3147313Y3194890D1*
X3144428Y3193431D1*
X3141576D1*
X3138691Y3194890D1*
X3134413Y3197742D1*
X3120054Y3212101D1*
Y3192005D1*
X3147912Y3009773D2*
Y2994021D1*
X3136438Y3002610D1*
Y2998299D1*
X3135012Y2995447D1*
X3133586Y2994021D1*
X3129275Y2992562D1*
X3126423D1*
X3122112Y2994021D1*
X3119227Y2996873D1*
X3117801Y3001184D1*
Y3005495D1*
X3119227Y3009773D1*
X3120686Y3011199D1*
X3123538Y3012658D1*
X3151104Y2539448D2*
X3152563Y2536563D1*
X3156841Y2532252D1*
X3126730D1*
X3150364Y2346705D2*
X3151790D1*
X3154675Y2345279D1*
X3156101Y2343853D1*
X3157527Y2340968D1*
Y2335231D1*
X3156101Y2332379D1*
X3154675Y2330953D1*
X3151790Y2329494D1*
X3148938D1*
X3146053Y2330953D1*
X3141775Y2333805D1*
X3127416Y2348164D1*
Y2328068D1*
X3155274Y2145836D2*
Y2130084D1*
X3143800Y2138673D1*
Y2134362D1*
X3142374Y2131510D1*
X3140948Y2130084D1*
X3136637Y2128625D1*
X3133785D1*
X3129474Y2130084D1*
X3126589Y2132936D1*
X3125163Y2137247D1*
Y2141558D1*
X3126589Y2145836D1*
X3128048Y2147262D1*
X3130900Y2148721D1*
X3152010Y1675563D2*
X3153469Y1672678D1*
X3157747Y1668367D1*
X3127636D1*
X3151269Y1482820D2*
X3152695D1*
X3155580Y1481394D1*
X3157006Y1479968D1*
X3158432Y1477083D1*
Y1471346D1*
X3157006Y1468494D1*
X3155580Y1467068D1*
X3152695Y1465609D1*
X3149843D1*
X3146958Y1467068D1*
X3142680Y1469920D1*
X3128322Y1484279D1*
X3128321Y1464183D1*
X3156180Y1281951D2*
X3156179Y1266199D1*
X3144706Y1274788D1*
Y1270477D1*
X3143280Y1267625D1*
X3141854Y1266199D1*
X3137543Y1264740D1*
X3134691D1*
X3130380Y1266199D1*
X3127495Y1269051D1*
X3126069Y1273362D1*
Y1277673D1*
X3127495Y1281951D1*
X3128954Y1283377D1*
X3131806Y1284836D1*
X543253Y1235238D2*
X541794Y1238123D1*
X537516Y1242434D1*
X567627D1*
X543993Y1427981D2*
X542568D1*
X539682Y1429407D1*
X538256Y1430833D1*
X536831Y1433718D1*
Y1439455D1*
X538257Y1442307D1*
X539682Y1443733D1*
X542568Y1445192D1*
X545419D1*
X548305Y1443733D1*
X552582Y1440881D1*
X566941Y1426522D1*
Y1446618D1*
X539083Y1628850D2*
Y1644602D1*
X550557Y1636013D1*
Y1640324D1*
X551983Y1643176D1*
X553409Y1644602D1*
X557720Y1646061D1*
X560572D1*
X564883Y1644602D1*
X567768Y1641750D1*
X569194Y1637439D1*
Y1633128D1*
X567768Y1628850D1*
X566309Y1627424D1*
X563457Y1625965D1*
M02*
