*
G04 Job   : C:\ADI_Projects\Minnowboard\Turbot_F200_X200\PCB\Turbot_F200_X200.pcb*
G04 User  : LEN-ADI-PC:Len*
G04 Layer : 80101_0125_F200_L10.gdo*
G04 Date  : Tue Aug 04 10:36:46 2015*
%ICAS*%
%MOIN*%
%FSLAX24Y24*%
%OFA0.0000B0.0000*%
G90*
G74*
%ADD14C,0.00390*%
%ADD16C,0.00395*%
%ADD17C,0.00399*%
%ADD15C,0.00400*%
%ADD13C,0.00450*%
%ADD10C,0.00500*%
%ADD18C,0.00620*%
%ADD70C,0.00800*%
%ADD12C,0.01000*%
%ADD71C,0.01200*%
%ADD11C,0.01600*%
%ADD19C,0.02500*%
%ADD20C,0.05000*%
%ADD21O,0.07000X0.18000*%
G01*
G36*
X800Y20266D02*
Y21192D01*
G02X806Y21206I20*
G01X1000Y21400*
Y22530*
G02X1020Y22550I20*
G01X1400*
Y19920*
G03X1750Y19570I350*
X1928Y19619J350*
G01Y16835*
G03X2053Y16710I125*
X2178Y16835J125*
X2053Y16960I125*
X1928Y16835J125*
G01Y19619*
G03X1966Y19645I178J301*
G01Y18297*
G03X2091Y18172I125*
X2216Y18297J125*
X2091Y18422I125*
X1966Y18297J125*
G01Y19645*
G03X1969Y19647I216J275*
G02X1981Y19651I12J16*
X2001Y19631J20*
Y19628I20*
G03X1990Y19500I749J128*
X2340Y18860I760*
G01Y18293*
G03X2446Y18169I125*
G01Y16323*
G03X2571Y16198I125*
X2696Y16323J125*
X2571Y16448I125*
X2446Y16323J125*
G01Y18169*
G03X2455Y18168I19J124*
G01Y17809*
G03X2540Y17691I125*
G01Y17058*
G03X2665Y16933I125*
X2790Y17058J125*
X2665Y17183I125*
X2540Y17058J125*
G01Y17691*
G03X2580Y17684I40J118*
X2705Y17809J125*
X2580Y17934I125*
X2455Y17809J125*
G01Y18168*
G03X2465I10J125*
X2590Y18293J125*
X2465Y18418I125*
X2340Y18293J125*
G01Y18860*
G03X2750Y18740I410J640*
X3359Y19046J760*
G01Y16035*
G03X3484Y15910I125*
X3609Y16035J125*
X3484Y16160I125*
X3359Y16035J125*
G01Y19046*
G03X3367Y19057I609J454*
G01Y17566*
G03X3376Y17520I125*
G01Y17059*
G03X3501Y16934I125*
X3626Y17059J125*
X3501Y17184I125*
X3376Y17059J125*
G01Y17520*
G03X3492Y17441I116J46*
X3617Y17566J125*
X3492Y17691I125*
X3367Y17566J125*
G01Y19057*
G03X3510Y19500I617J443*
X2750Y20260I760*
X2134Y19946J760*
G02X2118Y19937I16J11*
X2098Y19955J20*
G03X1750Y20270I348J35*
X1400Y19920J350*
G01Y22550*
X1465*
Y22267*
G03X1590Y22142I125*
X1715Y22267J125*
X1590Y22392I125*
X1465Y22267J125*
G01Y22550*
X2341*
Y21191*
G03X2466Y21066I125*
X2591Y21191J125*
X2466Y21316I125*
X2341Y21191J125*
G01Y22550*
X2400*
X2700Y22850*
Y23200*
X2400Y23500*
X1020*
G02X1000Y23520J20*
G01Y24980*
G02X1020Y25000I20*
G01X1325*
Y24597*
G03X1370Y24502I125*
G02X1377Y24486I13J16*
X1370Y24471I20*
G03X1325Y24375I80J96*
X1387Y24267I125*
G02X1397Y24250I10J17*
X1387Y24233I20*
G03X1325Y24125I63J108*
X1370Y24029I125*
G02X1377Y24014I13J15*
X1370Y23998I20*
G03X1325Y23903I80J95*
X1450Y23778I125*
X1542Y23818J125*
G02X1557Y23824I15J14*
X1566Y23822J20*
X1577Y23804I9J18*
Y23800I20*
G03X1575Y23778I123J22*
X1700Y23653I125*
X1825Y23778J125*
X1700Y23903I125*
X1608Y23862J125*
G02X1593Y23856I15J14*
X1584Y23858J20*
X1573Y23876I9J18*
Y23880I20*
G03X1575Y23903I123J23*
X1530Y23998I125*
G02X1523Y24014I13J16*
X1530Y24029I20*
G03X1575Y24125I80J96*
X1573Y24148I125*
G02Y24152I20J4*
X1584Y24169I20*
G01Y24170*
G02X1593Y24172I9J18*
X1608Y24165J20*
G03X1700Y24125I92J85*
X1825Y24250J125*
X1700Y24375I125*
X1608Y24335J125*
G02X1593Y24328I15J13*
X1584Y24330J20*
G01Y24331*
G02X1573Y24348I9J17*
Y24352I20*
G03X1575Y24375I123J23*
X1530Y24471I125*
G02X1523Y24486I13J15*
X1530Y24502I20*
G03X1575Y24597I80J95*
X1573Y24620I125*
G02Y24624I20J4*
X1584Y24642I20*
X1593Y24644I9J18*
X1608Y24638J20*
G03X1700Y24597I92J84*
X1825Y24722J125*
X1700Y24847I125*
X1575Y24722J125*
X1577Y24700I125*
G02Y24696I20J4*
X1566Y24678I20*
X1557Y24676I9J18*
X1542Y24682J20*
G03X1450Y24722I92J85*
X1325Y24597J125*
G01Y25000*
X1328*
G02X1336Y24999J40*
X1352Y24980I4J19*
X1349Y24970I20*
G03X1333Y24908I109J62*
X1458Y24783I125*
X1583Y24908J125*
X1567Y24970I125*
G02X1564Y24980I17J10*
X1581Y24999I20*
X1588Y25000I7J39*
G01X2400*
X2700Y25300*
Y25436*
G02X2720Y25456I20*
X2738Y25445J20*
G03X2741Y25439I112J55*
G01Y21804*
G03X2866Y21679I125*
X2991Y21804J125*
X2866Y21929I125*
X2741Y21804J125*
G01Y25439*
G03X2749Y25426I109J61*
G01Y22173*
G03X2874Y22048I125*
X2999Y22173J125*
X2874Y22298I125*
X2749Y22173J125*
G01Y25426*
G03X2775Y25400I101J74*
G01Y24014*
G03X2816Y23921I125*
G01Y22598*
G03X2941Y22473I125*
X3066Y22598J125*
X2941Y22723I125*
X2816Y22598J125*
G01Y23921*
G03X2900Y23889I84J93*
X3025Y24014J125*
X2900Y24139I125*
X2775Y24014J125*
G01Y24486*
G03X2900Y24361I125*
X3025Y24486J125*
X2900Y24611I125*
X2775Y24486J125*
G01Y25400*
G03X2850Y25375I75J100*
X2975Y25500J125*
X2850Y25625I125*
X2738Y25555J125*
G02X2720Y25544I18J9*
X2700Y25564J20*
G01Y26092*
G02X2706Y26106I20*
G01X3000Y26400*
Y28192*
G02X3006Y28206I20*
G01X3094Y28294*
G02X3108Y28300I14J14*
G01X3174*
Y22156*
G03X3299Y22031I125*
X3424Y22156J125*
X3299Y22281I125*
X3174Y22156J125*
G01Y28300*
X3225*
Y24896*
G03X3291Y24786I125*
G02X3302Y24768I9J18*
X3291Y24750I20*
G03X3225Y24640I59J110*
X3291Y24530I125*
G02X3302Y24512I9J18*
X3291Y24494I20*
G03X3225Y24384I59J110*
X3291Y24274I125*
G02X3302Y24256I9J18*
X3291Y24238I20*
G03X3225Y24128I59J110*
X3291Y24018I125*
G02X3302Y24000I9J18*
X3291Y23982I20*
G03X3225Y23872I59J110*
X3291Y23762I125*
G02X3302Y23744I9J18*
X3291Y23726I20*
G03X3225Y23616I59J110*
X3291Y23506I125*
G02X3302Y23488I9J18*
X3291Y23470I20*
G03X3225Y23360I59J110*
X3291Y23250I125*
G02X3302Y23232I9J18*
X3291Y23214I20*
G03X3225Y23104I59J110*
X3291Y22994I125*
G02X3302Y22976I9J18*
X3291Y22958I20*
G03X3225Y22848I59J110*
X3350Y22723I125*
X3475Y22848J125*
G01Y20300*
G03X3841Y19838I475*
G01Y16683*
G03X3874Y16597I125*
G01Y16153*
G03X3999Y16028I125*
X4124Y16153J125*
X3999Y16278I125*
X3874Y16153J125*
G01Y16597*
G03X3966Y16558I92J86*
X4091Y16683J125*
X3966Y16808I125*
X3841Y16683J125*
G01Y19838*
G03X3874Y19831I109J462*
G01Y18392*
G03X3999Y18267I125*
X4124Y18392J125*
X3999Y18517I125*
X3874Y18392J125*
G01Y19831*
G03X3927Y19826I76J469*
G01Y18715*
G03X4052Y18590I125*
X4177Y18715J125*
X4052Y18840I125*
X3927Y18715J125*
G01Y19826*
G03X3950Y19825I23J474*
X4425Y20300J475*
X3950Y20775I475*
X3475Y20300J475*
G01Y22848*
G03X3409Y22958I125*
G02X3398Y22976I9J18*
X3409Y22994I20*
G03X3475Y23104I59J110*
X3409Y23214I125*
G02X3398Y23232I9J18*
X3409Y23250I20*
G03X3475Y23360I59J110*
X3409Y23470I125*
G02X3398Y23488I9J18*
X3409Y23506I20*
G03X3475Y23616I59J110*
X3409Y23726I125*
G02X3398Y23744I9J18*
X3409Y23762I20*
G03X3475Y23872I59J110*
X3409Y23982I125*
G02X3398Y24000I9J18*
X3409Y24018I20*
G03X3475Y24128I59J110*
X3409Y24238I125*
G02X3398Y24256I9J18*
X3409Y24274I20*
G03X3475Y24384I59J110*
X3409Y24494I125*
G02X3398Y24512I9J18*
X3409Y24530I20*
G03X3475Y24640I59J110*
X3409Y24750I125*
G02X3398Y24768I9J18*
X3409Y24786I20*
G03X3475Y24896I59J110*
X3410Y25006I125*
G02X3399Y25023I9J17*
X3410Y25041I20*
G03X3477Y25152I58J111*
X3413Y25261I125*
G02X3402Y25279I9J18*
X3414Y25297I20*
G03X3488Y25411I51J114*
X3363Y25536I125*
X3238Y25411J125*
X3302Y25302I125*
G02X3312Y25284I10J18*
X3300Y25266I20*
G03X3227Y25152I52J114*
X3292Y25042I125*
G02X3303Y25025I9J17*
X3292Y25007I20*
G03X3225Y24896I58J111*
G01Y28300*
X3474*
G02X3494Y28280J20*
X3486Y28264I20*
G03X3360Y28000I214J264*
G01Y26230*
G03X3512Y25947I340*
G01Y21238*
G03X3637Y21113I125*
X3762Y21238J125*
X3637Y21363I125*
X3512Y21238J125*
G01Y25947*
G03X3604Y25904I188J283*
G01Y21657*
G03X3729Y21532I125*
X3854Y21657J125*
X3729Y21782I125*
X3604Y21657J125*
G01Y25904*
G03X3700Y25890I96J326*
X4040Y26230J340*
X3700Y26570I340*
X3360Y26230J340*
G01Y28000*
G03X3700Y27660I340*
X4040Y28000J340*
X3914Y28264I340*
G02X3906Y28280I12J16*
X3926Y28300I20*
G01X4224*
G02X4264Y28260J40*
X4260Y28243I40*
G03X4250Y28200I90J43*
X4350Y28100I100*
X4430Y28140J100*
G01Y17037*
G03X4555Y16912I125*
X4625Y16933J125*
G01Y10100*
G03X4750Y9975I125*
X4875Y10100J125*
X4750Y10225I125*
X4625Y10100J125*
G01Y11000*
G03X4750Y10875I125*
X4875Y11000J125*
X4750Y11125I125*
X4625Y11000J125*
G01Y16933*
G03X4680Y17037I70J104*
X4555Y17162I125*
X4430Y17037J125*
G01Y28140*
G03X4437Y28151I80J60*
G01Y19294*
G03X4562Y19169I125*
X4687Y19294J125*
X4562Y19419I125*
X4437Y19294J125*
G01Y28151*
G03X4450Y28200I87J49*
X4440Y28243I100*
G02X4436Y28260I36J17*
X4476Y28300I40*
G01X4495*
Y25867*
G03X4533Y25776I125*
G01Y22546*
G03X4658Y22421I125*
X4671J125*
G01Y19803*
G03X4796Y19678I125*
X4800J125*
G01Y11600*
G03X5150Y11250I350*
X5425Y11383J350*
G01Y10700*
G03X5487Y10592I125*
G02X5497Y10575I10J17*
X5487Y10558I20*
G03X5425Y10450I63J108*
X5550Y10325I125*
X5658Y10387J125*
G02X5675Y10397I17J10*
X5692Y10387J20*
G03X5800Y10325I108J63*
X5875Y10350J125*
G01Y10100*
G03X6000Y9975I125*
X6108Y10037J125*
G02X6125Y10047I17J10*
X6142Y10037J20*
G03X6250Y9975I108J63*
X6375Y10100J125*
X6250Y10225I125*
X6142Y10163J125*
G02X6125Y10153I17J10*
X6108Y10163J20*
G03X6000Y10225I108J63*
X5875Y10100J125*
G01Y10350*
G03X5925Y10450I75J100*
X5863Y10558I125*
G02X5853Y10575I10J17*
X5863Y10592I20*
G03X5925Y10700I63J108*
X5800Y10825I125*
X5692Y10763J125*
G02X5675Y10753I17J10*
X5658Y10763J20*
G03X5550Y10825I108J63*
X5425Y10700J125*
G01Y11383*
G03X5500Y11600I275J217*
X5150Y11950I350*
X4800Y11600J350*
G01Y19678*
G03X4921Y19803I4J125*
X4796Y19928I125*
X4671Y19803J125*
G01Y22421*
G03X4783Y22546I13J125*
X4658Y22671I125*
X4533Y22546J125*
G01Y25776*
G03X4557Y25759I87J91*
G01Y22936*
G03X4682Y22811I125*
X4807Y22936J125*
X4682Y23061I125*
X4557Y22936J125*
G01Y25759*
G03X4620Y25742I63J108*
X4679Y25756J125*
G01Y24966*
G03X4804Y24841I125*
X4916Y24912J125*
G02X4935Y24924I19J8*
X4945Y24921J20*
G01Y22929*
G03X4950Y22892I125*
G01Y15000*
G03X5250Y14700I300*
X5475Y14802J300*
G01Y12000*
G03X5600Y11875I125*
X5725Y12000J125*
X5600Y12125I125*
X5475Y12000J125*
G01Y14802*
G03X5550Y15000I225J198*
X5250Y15300I300*
X4950Y15000J300*
G01Y16000*
G03X5250Y15700I300*
X5550Y16000J300*
X5250Y16300I300*
X4950Y16000J300*
G01Y17000*
G03X5250Y16700I300*
X5550Y17000J300*
X5250Y17300I300*
X4950Y17000J300*
G01Y18000*
G03X5250Y17700I300*
X5550Y18000J300*
X5250Y18300I300*
X4950Y18000J300*
G01Y19000*
G03X5250Y18700I300*
X5550Y19000J300*
X5250Y19300I300*
X4950Y19000J300*
G01Y22892*
G03X4952Y22885I120J37*
G01Y21448*
G03X5077Y21323I125*
X5202Y21448J125*
X5077Y21573I125*
X4952Y21448J125*
G01Y22415*
G03X5077Y22290I125*
X5202Y22415J125*
X5077Y22540I125*
X4952Y22415J125*
G01Y22885*
G03X5070Y22804I118J44*
X5195Y22929J125*
X5070Y23054I125*
X4945Y22929J125*
G01Y24921*
G02X4947Y24920I10J17*
G01Y23916*
G03X5072Y23791I125*
X5197Y23916J125*
X5072Y24041I125*
X4947Y23916J125*
G01Y24920*
G02X4954Y24908I12J16*
G03X5076Y24812I122J29*
X5201Y24937J125*
X5076Y25062I125*
X4963Y24991J125*
G02X4945Y24979I18J8*
X4925Y24995J20*
G03X4804Y25091I121J29*
X4679Y24966J125*
G01Y25756*
G03X4745Y25867I59J111*
X4620Y25992I125*
X4495Y25867J125*
G01Y28300*
X4943*
Y25937*
G03X5068Y25812I125*
X5193Y25937J125*
X5068Y26062I125*
X4943Y25937J125*
G01Y28300*
X5170*
Y26412*
G03X5295Y26287I125*
X5420Y26412J125*
X5295Y26537I125*
X5170Y26412J125*
G01Y28300*
X5433*
Y22725*
G03X5558Y22600I125*
X5683Y22725J125*
X5558Y22850I125*
X5433Y22725J125*
G01Y28300*
X5546*
Y26412*
G03X5671Y26287I125*
X5796Y26412J125*
X5671Y26537I125*
X5546Y26412J125*
G01Y28300*
X5811*
Y26920*
G03X5920Y26796I125*
G01Y25940*
G03X5925Y25918I50*
G01Y13250*
G03X6050Y13125I125*
X6158Y13187J125*
G02X6175Y13197I17J10*
X6192Y13187J20*
G03X6237Y13142I108J63*
G02X6247Y13125I10J17*
X6237Y13108I20*
G03X6175Y13000I63J108*
X6237Y12892I125*
G02X6247Y12875I10J17*
X6237Y12858I20*
G03X6192Y12813I63J108*
G02X6175Y12803I17J10*
X6158Y12813J20*
G03X6050Y12875I108J63*
X5925Y12750J125*
G01Y12250*
G03X6050Y12125I125*
X6175Y12250J125*
X6050Y12375I125*
X5925Y12250J125*
G01Y12750*
G03X6050Y12625I125*
X6158Y12687J125*
G02X6175Y12697I17J10*
X6192Y12687J20*
G03X6300Y12625I108J63*
X6325Y12628J125*
G01Y12000*
G03X6387Y11892I125*
G02X6397Y11875I10J17*
X6387Y11858I20*
G03X6325Y11750I63J108*
X6387Y11642I125*
G02X6397Y11625I10J17*
X6387Y11608I20*
G03X6325Y11500I63J108*
X6387Y11392I125*
G02X6397Y11375I10J17*
X6387Y11358I20*
G03X6325Y11250I63J108*
X6387Y11142I125*
G02X6397Y11125I10J17*
X6387Y11108I20*
G03X6325Y11000I63J108*
X6450Y10875I125*
X6575Y11000J125*
X6513Y11108I125*
G02X6503Y11125I10J17*
X6513Y11142I20*
G03X6575Y11250I63J108*
X6513Y11358I125*
G02X6503Y11375I10J17*
X6513Y11392I20*
G03X6575Y11500I63J108*
X6513Y11608I125*
G02X6503Y11625I10J17*
X6513Y11642I20*
G03X6575Y11750I63J108*
X6513Y11858I125*
G02X6503Y11875I10J17*
X6513Y11892I20*
G03X6575Y12000I63J108*
X6450Y12125I125*
X6325Y12000J125*
G01Y12628*
G03X6408Y12687I25J122*
G02X6425Y12697I17J10*
X6442Y12687J20*
G03X6550Y12625I108J63*
X6675Y12750J125*
X6613Y12858I125*
G02X6603Y12875I10J17*
X6613Y12892I20*
G03X6675Y13000I63J108*
X6613Y13108I125*
G02X6603Y13125I10J17*
X6613Y13142I20*
G03X6675Y13250I63J108*
X6550Y13375I125*
X6442Y13313J125*
G02X6425Y13303I17J10*
X6408Y13313J20*
G03X6300Y13375I108J63*
X6192Y13313J125*
G02X6175Y13303I17J10*
X6158Y13313J20*
G03X6050Y13375I108J63*
X5925Y13250J125*
G01Y13550*
G03X6050Y13425I125*
X6175Y13550J125*
X6050Y13675I125*
X5925Y13550J125*
G01Y25918*
G03X5950Y25894I45J22*
G01Y15500*
G03X6250Y15200I300*
X6550Y15500J300*
X6250Y15800I300*
X5950Y15500J300*
G01Y16500*
G03X6250Y16200I300*
X6550Y16500J300*
X6250Y16800I300*
X5950Y16500J300*
G01Y17500*
G03X6250Y17200I300*
X6550Y17500J300*
X6250Y17800I300*
X5950Y17500J300*
G01Y18500*
G03X6250Y18200I300*
X6550Y18500J300*
X6250Y18800I300*
X5950Y18500J300*
G01Y19500*
G03X6250Y19200I300*
X6550Y19500J300*
X6250Y19800I300*
X5950Y19500J300*
G01Y25894*
G03X5970Y25890I20J46*
G01X6175*
Y20250*
G03X6300Y20125I125*
X6425Y20250J125*
X6300Y20375I125*
X6175Y20250J125*
G01Y25890*
X6463*
Y22597*
G03X6567Y22474I125*
G01Y21780*
G03X6692Y21655I125*
X6817Y21780J125*
X6692Y21905I125*
X6567Y21780J125*
G01Y22080*
G03X6692Y21955I125*
X6817Y22080J125*
X6692Y22205I125*
X6567Y22080J125*
G01Y22474*
G03X6588Y22472I21J123*
X6713Y22597J125*
X6588Y22722I125*
X6463Y22597J125*
G01Y25890*
X6525*
Y23872*
G03X6576Y23771I125*
G01Y23260*
G03X6701Y23135I125*
X6826Y23260J125*
X6701Y23385I125*
X6576Y23260J125*
G01Y23560*
G03X6701Y23435I125*
X6826Y23560J125*
X6701Y23685I125*
X6576Y23560J125*
G01Y23771*
G03X6650Y23747I74J101*
X6775Y23872J125*
X6650Y23997I125*
X6525Y23872J125*
G01Y25890*
X6550*
G03X6563Y25892J50*
G01Y25300*
G03X6571Y25255I125*
G01Y24280*
G03X6696Y24155I125*
X6821Y24280J125*
X6696Y24405I125*
X6571Y24280J125*
G01Y24580*
G03X6696Y24455I125*
X6821Y24580J125*
X6696Y24705I125*
X6571Y24580J125*
G01Y25255*
G03X6591Y25220I117J45*
G01Y24961*
G03X6716Y24836I125*
X6841Y24961J125*
X6716Y25086I125*
X6591Y24961J125*
G01Y25220*
G03X6688Y25175I97J80*
X6813Y25300J125*
X6688Y25425I125*
X6563Y25300J125*
G01Y25600*
G03X6688Y25475I125*
X6813Y25600J125*
X6688Y25725I125*
X6563Y25600J125*
G01Y25892*
G03X6600Y25940I13J48*
G01Y26520*
G03X6550Y26570I50*
G01X5970*
G03X5920Y26520J50*
G01Y26796*
G03X5936Y26795I16J124*
X6061Y26920J125*
X5936Y27045I125*
X5811Y26920J125*
G01Y28300*
X6034*
G02X6054Y28280J20*
X6046Y28264I20*
G03X5920Y28000I214J264*
X6260Y27660I340*
X6600Y28000J340*
X6474Y28264I340*
G02X6466Y28280I12J16*
X6486Y28300I20*
G01X6975*
Y19650*
G03X7100Y19525I125*
X7225Y19650J125*
X7100Y19775I125*
X6975Y19650J125*
G01Y27700*
G03X7025Y27600I125*
G01Y24250*
G03X7087Y24142I125*
G02X7097Y24125I10J17*
X7087Y24108I20*
G03X7025Y24000I63J108*
X7087Y23892I125*
G02X7097Y23875I10J17*
X7087Y23858I20*
G03X7025Y23750I63J108*
G01Y21250*
G03X7150Y21125I125*
X7275Y21250J125*
X7150Y21375I125*
X7025Y21250J125*
G01Y23750*
G03X7029Y23720I125*
G01Y21569*
G03X7154Y21444I125*
X7279Y21569J125*
X7154Y21694I125*
X7029Y21569J125*
G01Y23720*
G03X7150Y23625I121J30*
X7275Y23750J125*
X7213Y23858I125*
G02X7203Y23875I10J17*
X7213Y23892I20*
G03X7275Y24000I63J108*
X7213Y24108I125*
G02X7203Y24125I10J17*
X7213Y24142I20*
G03X7275Y24250I63J108*
X7150Y24375I125*
X7025Y24250J125*
G01Y27600*
G03X7082Y27576I75J100*
G01Y25922*
G03X7207Y25797I125*
X7332Y25922J125*
X7207Y26047I125*
X7082Y25922J125*
G01Y27576*
G03X7100Y27575I18J124*
X7175Y27600J125*
G01Y26400*
G03X7300Y26275I125*
X7425Y26400J125*
X7300Y26525I125*
X7175Y26400J125*
G01Y27600*
G03X7225Y27700I75J100*
X7100Y27825I125*
X6975Y27700J125*
G01Y28300*
X7174*
G02X7184Y28299J40*
X7199Y28279I5J20*
X7195Y28268I20*
G03X7175Y28200I105J68*
X7300Y28075I125*
X7425Y28200J125*
X7405Y28268I125*
G02X7401Y28279I16J11*
X7416Y28299I20*
X7426Y28300I10J39*
G01X8079*
G02X8099Y28280J20*
X8096Y28269I20*
G03X8075Y28200I104J69*
G01Y26400*
G03X8200Y26275I125*
X8325Y26400J125*
X8200Y26525I125*
X8075Y26400J125*
G01Y26800*
G03X8200Y26675I125*
X8325Y26800J125*
X8200Y26925I125*
X8075Y26800J125*
G01Y27200*
G03X8200Y27075I125*
X8325Y27200J125*
X8200Y27325I125*
X8075Y27200J125*
G01Y28200*
G03X8200Y28075I125*
X8275Y28100J125*
G01Y27700*
G03X8400Y27575I125*
X8525Y27700J125*
X8400Y27825I125*
X8275Y27700J125*
G01Y28100*
G03X8325Y28200I75J100*
X8304Y28269I125*
G02X8301Y28280I17J11*
X8321Y28300I20*
G01X9024*
G02X9044Y28280J20*
X9036Y28264I20*
G03X8910Y28000I214J264*
G01Y27000*
G03X9250Y26660I340*
X9590Y27000J340*
X9250Y27340I340*
X8910Y27000J340*
G01Y28000*
G03X9250Y27660I340*
X9590Y28000J340*
X9464Y28264I340*
G02X9456Y28280I12J16*
X9476Y28300I20*
G01X10024*
G02X10044Y28280J20*
X10036Y28264I20*
G03X9910Y28000I214J264*
G01Y27000*
G03X10250Y26660I340*
X10590Y27000J340*
X10250Y27340I340*
X9910Y27000J340*
G01Y28000*
G03X10250Y27660I340*
X10590Y28000J340*
X10464Y28264I340*
G02X10456Y28280I12J16*
X10476Y28300I20*
G01X11024*
G02X11044Y28280J20*
X11036Y28264I20*
G03X10910Y28000I214J264*
G01Y27000*
G03X11250Y26660I340*
X11590Y27000J340*
X11250Y27340I340*
X10910Y27000J340*
G01Y28000*
G03X11250Y27660I340*
X11590Y28000J340*
X11464Y28264I340*
G02X11456Y28280I12J16*
X11476Y28300I20*
G01X11890*
G02X11910Y28280J20*
G01Y27000*
G03X12250Y26660I340*
X12590Y27000J340*
X12250Y27340I340*
X11910Y27000J340*
G01Y27710*
G03X11960Y27660I50*
G01X12540*
G03X12590Y27710J50*
G01Y28280*
G02X12610Y28300I20*
G01X13475*
Y27193*
G03X13600Y27068I125*
X13725Y27193J125*
X13600Y27318I125*
X13475Y27193J125*
G01Y28300*
X14622*
Y26893*
G03X14747Y26768I125*
X14872Y26893J125*
X14747Y27018I125*
X14622Y26893J125*
G01Y28300*
X14811*
Y28063*
G03X14936Y27938I125*
X15061Y28063J125*
X14936Y28188I125*
X14811Y28063J125*
G01Y28300*
X16437*
Y26023*
G03X16562Y25898I125*
X16625Y25915J125*
G01Y25350*
G03X16750Y25225I125*
X16875Y25350J125*
X16750Y25475I125*
X16625Y25350J125*
G01Y25915*
G03X16687Y26023I63J108*
X16562Y26148I125*
X16437Y26023J125*
G01Y28300*
X16826*
Y26021*
G03X16951Y25896I125*
X17076Y26021J125*
X16951Y26146I125*
X16826Y26021J125*
G01Y28300*
X17735*
Y28085*
G03X17860Y27960I125*
X17985Y28085J125*
X17860Y28210I125*
X17735Y28085J125*
G01Y28300*
X18055*
Y27912*
G03X18125Y27799I125*
G01Y25350*
G03X18250Y25225I125*
X18375Y25350J125*
X18250Y25475I125*
X18125Y25350J125*
G01Y27799*
G03X18180Y27787I55J113*
X18255Y27812J125*
G01Y27512*
G03X18380Y27387I125*
X18505Y27512J125*
X18380Y27637I125*
X18255Y27512J125*
G01Y27812*
G03X18305Y27912I75J100*
X18180Y28037I125*
X18055Y27912J125*
G01Y28300*
X18555*
Y26462*
G03X18680Y26337I125*
X18805Y26462J125*
X18680Y26587I125*
X18555Y26462J125*
G01Y26962*
G03X18680Y26837I125*
X18805Y26962J125*
X18680Y27087I125*
X18555Y26962J125*
G01Y28300*
X18592*
G02X18606Y28294J20*
G01X18944Y27956*
G02X18950Y27942I14J14*
G01Y27098*
G02X18937Y27079I20*
G03X18855Y26962I43J117*
X18937Y26844I125*
G02X18950Y26825I7J19*
G01Y26598*
G02X18937Y26579I20*
G03X18855Y26462I43J117*
X18937Y26344I125*
G02X18950Y26325I7J19*
G01Y24958*
G02X18944Y24944I20*
G01X18656Y24656*
G02X18642Y24650I14J14*
G01X16608*
G02X16594Y24656J20*
G01X16156Y25094*
G02X16150Y25108I14J14*
G01Y26050*
X15900Y26300*
X9150*
X8856Y26006*
G02X8842Y26000I14J14*
G01X7650*
X7400Y25750*
Y19708*
G02X7394Y19694I20*
G01X6600Y18900*
Y14250*
X6894Y13956*
G02X6900Y13942I14J14*
G01Y10826*
G02X6899Y10816I40*
X6879Y10801I20J5*
X6868Y10805J20*
G03X6800Y10825I68J105*
X6692Y10763J125*
G02X6675Y10753I17J10*
X6658Y10763J20*
G03X6550Y10825I108J63*
X6442Y10763J125*
G02X6425Y10753I17J10*
X6408Y10763J20*
G03X6300Y10825I108J63*
X6175Y10700J125*
X6237Y10592I125*
G02X6247Y10575I10J17*
X6237Y10558I20*
G03X6175Y10450I63J108*
X6300Y10325I125*
X6408Y10387J125*
G02X6425Y10397I17J10*
X6442Y10387J20*
G03X6550Y10325I108J63*
X6658Y10387J125*
G02X6675Y10397I17J10*
X6692Y10387J20*
G03X6800Y10325I108J63*
X6868Y10345J125*
G02X6879Y10349I11J16*
X6899Y10334J20*
X6900Y10324I39J10*
G01Y8008*
G02X6894Y7994I20*
G01X6806Y7906*
G02X6792Y7900I14J14*
G01X3064*
G02X3044Y7920J20*
X3055Y7938I20*
G03X3125Y8050I55J112*
X3000Y8175I125*
X2875Y8050J125*
X2945Y7938I125*
G02X2956Y7920I9J18*
X2936Y7900I20*
G01X2764*
G02X2744Y7920J20*
X2755Y7938I20*
G03X2825Y8050I55J112*
X2700Y8175I125*
X2575Y8050J125*
X2645Y7938I125*
G02X2656Y7920I9J18*
X2636Y7900I20*
G01X908*
G02X894Y7906J20*
G01X806Y7994*
G02X800Y8008I14J14*
G01Y11433*
G02X820Y11453I20*
X838Y11442J20*
G03X1125Y11251I312J158*
G01Y11050*
G03X1187Y10942I125*
G02X1197Y10925I10J17*
X1187Y10908I20*
G03X1125Y10800I63J108*
G01Y10300*
G03X1187Y10192I125*
G02X1197Y10175I10J17*
X1187Y10158I20*
G03X1125Y10050I63J108*
X1250Y9925I125*
X1375Y10050J125*
X1313Y10158I125*
G02X1303Y10175I10J17*
X1313Y10192I20*
G03X1375Y10300I63J108*
X1250Y10425I125*
X1125Y10300J125*
G01Y10800*
G03X1250Y10675I125*
X1375Y10800J125*
X1313Y10908I125*
G02X1303Y10925I10J17*
X1313Y10942I20*
G03X1375Y11050I63J108*
X1250Y11175I125*
X1125Y11050J125*
G01Y11251*
G03X1150Y11250I25J349*
X1425Y11383J350*
G01Y10050*
G03X1550Y9925I125*
X1675Y10050J125*
X1550Y10175I125*
X1425Y10050J125*
G01Y11050*
G03X1550Y10925I125*
X1675Y11050J125*
X1550Y11175I125*
X1425Y11050J125*
G01Y11383*
G03X1500Y11600I275J217*
X1150Y11950I350*
X838Y11758J350*
G02X820Y11747I18J9*
X800Y11767J20*
G01Y14234*
G02X820Y14254I20*
X827Y14252J20*
G03X950Y14230I123J328*
X1125Y14277J350*
G01Y12300*
G03X1250Y12175I125*
X1375Y12300J125*
X1250Y12425I125*
X1125Y12300J125*
G01Y14277*
G03X1300Y14580I175J303*
X950Y14930I350*
X827Y14908J350*
G02X820Y14906I7J18*
X800Y14926J20*
G01Y19574*
G02X820Y19594I20*
X827Y19592J20*
G03X917Y19572I123J328*
G01Y16726*
G03X1042Y16601I125*
X1154Y16671J125*
G02X1172Y16683I18J8*
X1190Y16672J20*
G03X1301Y16604I111J57*
X1400Y16652J125*
G01Y14580*
G03X1625Y14253I350*
G01Y13200*
G03X1725Y13078I125*
G01Y10050*
G03X1850Y9925I125*
X1975Y10050J125*
X1850Y10175I125*
X1725Y10050J125*
G01Y11050*
G03X1850Y10925I125*
X1975Y11050J125*
X1850Y11175I125*
X1725Y11050J125*
G01Y13078*
G03X1750Y13075I25J122*
X1875Y13200J125*
X1750Y13325I125*
X1625Y13200J125*
G01Y14253*
G03X1750Y14230I125J327*
X2025Y14363J350*
G01Y11050*
G03X2087Y10942I125*
G02X2097Y10925I10J17*
X2087Y10908I20*
G03X2025Y10800I63J108*
G01Y10300*
G03X2087Y10192I125*
G02X2097Y10175I10J17*
X2087Y10158I20*
G03X2025Y10050I63J108*
X2150Y9925I125*
X2275Y10050J125*
X2213Y10158I125*
G02X2203Y10175I10J17*
X2213Y10192I20*
G03X2275Y10300I63J108*
X2150Y10425I125*
X2025Y10300J125*
G01Y10800*
G03X2150Y10675I125*
X2275Y10800J125*
X2213Y10908I125*
G02X2203Y10925I10J17*
X2213Y10942I20*
G03X2275Y11050I63J108*
X2150Y11175I125*
X2025Y11050J125*
G01Y14363*
G03X2098Y14545I275J217*
G02X2118Y14563I20J2*
X2125Y14561J20*
G01Y12300*
G03X2250Y12175I125*
X2375Y12300J125*
X2250Y12425I125*
X2125Y12300J125*
G01Y14561*
G02X2134Y14554I7J18*
G03X2575Y14260I616J446*
G01Y8350*
G03X2700Y8225I125*
X2825Y8350J125*
X2700Y8475I125*
X2575Y8350J125*
G01Y8650*
G03X2700Y8525I125*
X2825Y8650J125*
X2700Y8775I125*
X2575Y8650J125*
G01Y8950*
G03X2700Y8825I125*
X2825Y8950J125*
X2700Y9075I125*
X2575Y8950J125*
G01Y14260*
G03X2750Y14240I175J740*
X2800Y14242J760*
G01Y10400*
G03X2875Y10183I350*
G01Y8350*
G03X3000Y8225I125*
X3125Y8350J125*
X3000Y8475I125*
X2875Y8350J125*
G01Y8650*
G03X3000Y8525I125*
X3125Y8650J125*
X3000Y8775I125*
X2875Y8650J125*
G01Y8950*
G03X3000Y8825I125*
X3125Y8950J125*
X3000Y9075I125*
X2875Y8950J125*
G01Y10183*
G03X3150Y10050I275J217*
X3475Y10270J350*
G01Y10100*
G03X3600Y9975I125*
X3725Y10100J125*
X3600Y10225I125*
X3475Y10100J125*
G01Y10270*
G03X3500Y10400I325J130*
X3150Y10750I350*
X2800Y10400J350*
G01Y14242*
G03X2975Y14274I50J758*
G01Y12000*
G03X3100Y11875I125*
X3225Y12000J125*
X3100Y12125I125*
X2975Y12000J125*
G01Y13200*
G03X3100Y13075I125*
X3225Y13200J125*
X3100Y13325I125*
X2975Y13200J125*
G01Y14274*
G03X3475Y14772I225J726*
G01Y14200*
G03X3775Y13758I475*
G01Y10100*
G03X3900Y9975I125*
X4025Y10100J125*
X3900Y10225I125*
X3775Y10100J125*
G01Y13758*
G03X3950Y13725I175J442*
X4125Y13758J475*
G01Y10100*
G03X4250Y9975I125*
X4375Y10100J125*
X4250Y10225I125*
X4125Y10100J125*
G01Y13200*
G03X4250Y13075I125*
X4375Y13200J125*
X4250Y13325I125*
X4125Y13200J125*
G01Y13758*
G03X4425Y14200I175J442*
X3950Y14675I475*
X3475Y14200J475*
G01Y14772*
G03X3510Y15000I725J228*
X2750Y15760I760*
X1990Y15000J760*
X2001Y14872I760*
G02Y14869I20J3*
X1981Y14849I20*
X1969Y14853J20*
G03X1750Y14930I219J273*
X1400Y14580J350*
G01Y16652*
G03X1426Y16729I99J77*
X1301Y16854I125*
X1189Y16784J125*
G02X1171Y16773I18J9*
X1153Y16783J20*
G03X1042Y16851I111J57*
X917Y16726J125*
G01Y19572*
G03X950Y19570I33J348*
X1300Y19920J350*
X950Y20270I350*
X827Y20248J350*
G02X820Y20246I7J18*
X800Y20266J20*
G01X3600Y5969D02*
G03X3597Y5980I20D01*
G02X3575Y6050I103J70*
X3597Y6120I125*
G03X3600Y6131I17J11*
G01Y6792*
G03X3594Y6806I20*
G01X3506Y6894*
G03X3492Y6900I14J14*
G01X3127*
G03X3109Y6890J20*
G02X3063Y6842I109J60*
G03X3053Y6825I10J17*
X3063Y6808I20*
G02X3125Y6700I63J108*
X3063Y6592I125*
G03X3053Y6575I10J17*
X3063Y6558I20*
G02X3125Y6450I63J108*
X3000Y6325I125*
X2875Y6450J125*
X2937Y6558I125*
G03X2947Y6575I10J17*
X2937Y6592I20*
G02X2875Y6700I63J108*
X2937Y6808I125*
G03X2947Y6825I10J17*
X2937Y6842I20*
G02X2892Y6887I63J108*
G03X2875Y6897I17J10*
X2858Y6887J20*
G02X2750Y6825I108J63*
X2641Y6890J125*
G03X2623Y6900I18J10*
G01X2600*
X2406Y7094*
G03X2392Y7100I14J14*
G01X2008*
G03X1994Y7094J20*
G01X1906Y7006*
G03X1900Y6992I14J14*
G01Y5858*
G03X1906Y5844I20*
G01X1994Y5756*
G03X2008Y5750I14J14*
G01X2191*
G03X2201Y5752J20*
G02X2390Y5800I189J352*
X2790Y5400J400*
G01Y4868*
G03X2796Y4854I20*
G01X2844Y4806*
G03X2858Y4800I14J14*
G01X3492*
G03X3506Y4806J20*
G01X3594Y4894*
G03X3600Y4908I14J14*
G01Y5969*
X5500Y5792D02*
G03X5494Y5806I20D01*
G01X5406Y5894*
G03X5392Y5900I14J14*
G01X4058*
G03X4044Y5894J20*
G01X3956Y5806*
G03X3950Y5792I14J14*
G01Y4558*
G03X3956Y4544I20*
G01X4074Y4426*
G03X4083Y4421I14J14*
G02X4171Y4333I33J121*
G03X4176Y4324I19J5*
G01X4394Y4106*
G03X4408Y4100I14J14*
G01X5392*
G03X5406Y4106J20*
G01X5494Y4194*
G03X5500Y4208I14J14*
G01Y5792*
X6900Y17392D02*
G02X6906Y17406I20D01*
G01X6994Y17494*
G02X7008Y17500I14J14*
G01X7078*
Y15447*
G03X7203Y15322I125*
X7328Y15447J125*
X7203Y15572I125*
X7078Y15447J125*
G01Y17500*
X7375*
Y15450*
G03X7500Y15325I125*
X7625Y15450J125*
X7500Y15575I125*
X7375Y15450J125*
G01Y17500*
X7442*
G02X7456Y17494J20*
G01X7494Y17457*
Y16069*
G03X7619Y15944I125*
X7744Y16069J125*
X7619Y16194I125*
X7494Y16069J125*
G01Y16932*
G03X7619Y16807I125*
X7744Y16932J125*
X7619Y17057I125*
X7494Y16932J125*
G01Y17457*
X8225Y16725*
Y15450*
G03X8350Y15325I125*
X8475Y15450J125*
X8350Y15575I125*
X8225Y15450J125*
G01Y16725*
X8357Y16594*
Y16069*
G03X8482Y15944I125*
X8525Y15951J125*
G01Y15450*
G03X8587Y15342I125*
G02X8597Y15325I10J17*
X8587Y15308I20*
G03X8525Y15200I63J108*
X8650Y15075I125*
X8775Y15200J125*
X8713Y15308I125*
G02X8703Y15325I10J17*
X8713Y15342I20*
G03X8775Y15450I63J108*
X8650Y15575I125*
X8525Y15450J125*
G01Y15951*
G03X8607Y16069I43J118*
X8482Y16194I125*
X8357Y16069J125*
G01Y16594*
X8550Y16400*
X8975*
Y15750*
G03X9100Y15625I125*
X9225Y15750J125*
X9100Y15875I125*
X8975Y15750J125*
G01Y16400*
X9173*
G02X9191Y16390J20*
G03X9300Y16325I109J60*
X9375Y16350J125*
G02X9387Y16354I12J16*
X9402Y16348J20*
G01X10150Y15600*
X10151*
X10806*
G02X10826Y15583J20*
G03X10950Y15475I124J17*
X11047Y15521J125*
G02X11063Y15529I16J12*
X11077Y15523J20*
G01X11094Y15506*
G02X11100Y15492I14J14*
G01Y15081*
G02X11097Y15070I20*
G03X11075Y15000I103J70*
X11097Y14930I125*
G02X11100Y14919I17J11*
G01Y14908*
G02X11094Y14894I20*
G01X11006Y14806*
G02X10992Y14800I14J14*
G01X9044*
G02X9024Y14817J20*
G03X8900Y14925I124J17*
X8776Y14817J125*
G02X8756Y14800I20J3*
G01X7344*
G02X7324Y14817J20*
G03X7200Y14925I124J17*
X7076Y14817J125*
G02X7056Y14800I20J3*
G01X7008*
G02X6994Y14806J20*
G01X6906Y14894*
G02X6900Y14908I14J14*
G01Y17392*
X7600Y25492D02*
G02X7606Y25506I20D01*
G01X7744Y25644*
G02X7758Y25650I14J14*
G01X7975*
Y18750*
G03X8100Y18625I125*
X8225Y18750J125*
X8215Y18798I125*
G02X8214Y18806I19J8*
X8234Y18826I20*
X8236J20*
G03X8250Y18825I14J124*
X8264Y18826J125*
G02X8266I2J20*
X8286Y18806J20*
X8285Y18798I20*
G03X8275Y18750I115J48*
X8357Y18633I125*
G01Y16932*
G03X8482Y16807I125*
X8607Y16932J125*
X8482Y17057I125*
X8357Y16932J125*
G01Y18633*
G03X8375Y18628I43J117*
G01Y17550*
G03X8500Y17425I125*
X8608Y17487J125*
G02X8625Y17497I17J10*
X8642Y17487J20*
G03X8750Y17425I108J63*
X8875Y17550J125*
X8750Y17675I125*
X8642Y17613J125*
G02X8625Y17603I17J10*
X8608Y17613J20*
G03X8500Y17675I108J63*
X8375Y17550J125*
G01Y18628*
G03X8400Y18625I25J122*
X8525Y18750J125*
X8400Y18875I125*
X8386Y18874J125*
G02X8384I2J20*
X8364Y18894J20*
X8365Y18902I20*
G03X8375Y18950I115J48*
X8250Y19075I125*
X8125Y18950J125*
X8135Y18902I125*
G02X8136Y18894I19J8*
X8116Y18874I20*
X8114J20*
G03X8100Y18875I14J124*
X7975Y18750J125*
G01Y25650*
X8075*
Y19400*
G03X8200Y19275I125*
X8325Y19400J125*
X8200Y19525I125*
X8075Y19400J125*
G01Y20950*
G03X8200Y20825I125*
X8325Y20950J125*
X8200Y21075I125*
X8075Y20950J125*
G01Y25650*
X8200*
Y21500*
G03X8325Y21375I125*
X8425Y21425J125*
G01Y20300*
G03X8550Y20175I125*
X8675Y20300J125*
X8550Y20425I125*
X8425Y20300J125*
G01Y21425*
G03X8450Y21500I100J75*
X8325Y21625I125*
X8200Y21500J125*
G01Y22000*
G03X8325Y21875I125*
X8450Y22000J125*
X8325Y22125I125*
X8200Y22000J125*
G01Y22500*
G03X8325Y22375I125*
X8450Y22500J125*
X8325Y22625I125*
X8200Y22500J125*
G01Y24000*
G03X8325Y23875I125*
X8450Y24000J125*
X8325Y24125I125*
X8200Y24000J125*
G01Y24500*
G03X8325Y24375I125*
X8450Y24500J125*
X8325Y24625I125*
X8200Y24500J125*
G01Y25000*
G03X8325Y24875I125*
X8450Y25000J125*
X8325Y25125I125*
X8200Y25000J125*
G01Y25650*
X8775*
Y18750*
G03X8900Y18625I125*
X9025Y18750J125*
X9015Y18798I125*
G02X9014Y18806I19J8*
X9034Y18826I20*
X9036J20*
G03X9050Y18825I14J124*
X9064Y18826J125*
G02X9066I2J20*
X9086Y18806J20*
X9085Y18798I20*
G03X9075Y18750I115J48*
X9200Y18625I125*
X9325Y18750J125*
X9200Y18875I125*
X9186Y18874J125*
G02X9184I2J20*
X9164Y18894J20*
X9165Y18902I20*
G03X9175Y18950I115J48*
X9050Y19075I125*
X8925Y18950J125*
X8935Y18902I125*
G02X8936Y18894I19J8*
X8916Y18874I20*
X8914J20*
G03X8900Y18875I14J124*
X8775Y18750J125*
G01Y25650*
X9050*
Y21500*
G03X9175Y21375I125*
G01Y19650*
G03X9300Y19525I125*
X9425Y19650J125*
X9300Y19775I125*
X9175Y19650J125*
G01Y20100*
G03X9300Y19975I125*
X9425Y20100J125*
X9300Y20225I125*
X9175Y20100J125*
G01Y20950*
G03X9300Y20825I125*
X9425Y20950J125*
X9300Y21075I125*
X9175Y20950J125*
G01Y21375*
G03X9300Y21500J125*
X9175Y21625I125*
X9050Y21500J125*
G01Y22000*
G03X9175Y21875I125*
X9300Y22000J125*
X9175Y22125I125*
X9050Y22000J125*
G01Y22500*
G03X9175Y22375I125*
X9300Y22500J125*
X9175Y22625I125*
X9050Y22500J125*
G01Y24000*
G03X9075Y23925I125*
G01Y23450*
G03X9200Y23325I125*
X9325Y23450J125*
X9200Y23575I125*
X9075Y23450J125*
G01Y23925*
G03X9175Y23875I100J75*
X9300Y24000J125*
X9175Y24125I125*
X9050Y24000J125*
G01Y24500*
G03X9175Y24375I125*
X9300Y24500J125*
X9175Y24625I125*
X9050Y24500J125*
G01Y25000*
G03X9175Y24875I125*
X9300Y25000J125*
X9175Y25125I125*
X9050Y25000J125*
G01Y25650*
X9250*
X9400Y25800*
G02X9406Y25814I20J1*
G01X9666Y26074*
G02X9681Y26080I15J14*
G01X10225*
Y25250*
G03X10287Y25142I125*
G02X10297Y25125I10J17*
X10287Y25108I20*
G03X10225Y25000I63J108*
G01Y24250*
G03X10350Y24125I125*
X10458Y24187J125*
G02X10475Y24197I17J10*
X10492Y24187J20*
G03X10600Y24125I108J63*
X10725Y24250J125*
X10600Y24375I125*
X10492Y24313J125*
G02X10475Y24303I17J10*
X10458Y24313J20*
G03X10350Y24375I108J63*
X10225Y24250J125*
G01Y25000*
G03X10289Y24891I125*
G02X10299Y24874I10J17*
X10290Y24856I20*
G03X10230Y24750I65J106*
X10355Y24625I125*
X10480Y24750J125*
X10416Y24859I125*
G02X10406Y24876I10J17*
X10415Y24894I20*
G03X10475Y25000I65J106*
X10413Y25108I125*
G02X10403Y25125I10J17*
X10413Y25142I20*
G03X10475Y25250I63J108*
X10350Y25375I125*
X10225Y25250J125*
G01Y25550*
G03X10350Y25425I125*
X10475Y25550J125*
X10350Y25675I125*
X10225Y25550J125*
G01Y26080*
X10523*
Y24929*
G03X10648Y24804I125*
X10773Y24929J125*
X10648Y25054I125*
X10523Y24929J125*
G01Y26080*
X11625*
Y24250*
G03X11750Y24125I125*
X11875Y24250J125*
X11750Y24375I125*
X11625Y24250J125*
G01Y26080*
X13010*
G02X13030Y26060J20*
G01Y26059*
G03Y26053I125J6*
X13155Y25928I125*
X13280Y26053J125*
Y26059I125*
G01Y26060*
G02X13300Y26080I20*
G01X13456*
G02X13476Y26060J20*
G01Y26059*
G03X13475Y26053I124J6*
X13600Y25928I125*
X13725Y26053J125*
Y26059I125*
G01Y26060*
G02X13745Y26080I20*
G01X14225*
Y25750*
G03X14275Y25650I125*
G01Y24250*
G03X14400Y24125I125*
X14525Y24250J125*
X14400Y24375I125*
X14275Y24250J125*
G01Y25250*
G03X14400Y25125I125*
X14525Y25250J125*
X14400Y25375I125*
X14275Y25250J125*
G01Y25650*
G03X14350Y25625I75J100*
X14475Y25750J125*
X14350Y25875I125*
X14225Y25750J125*
G01Y26080*
X14446*
G02X14460Y26074J20*
G01X14794Y25740*
G02X14800Y25726I14J14*
G01Y23808*
G02X14794Y23794I20*
G01X14506Y23506*
G02X14492Y23500I14J14*
G01X9950*
X9650Y23200*
Y18308*
G02X9644Y18294I20*
G01X9276Y17926*
G02X9267Y17921I14J14*
G03X9179Y17833I33J121*
G02X9174Y17824I19J5*
G01X9100Y17750*
Y17200*
X9200Y17100*
X9201*
X9742*
G02X9756Y17094J20*
G01X10550Y16300*
X10886*
G02X10906Y16280J20*
X10895Y16262I20*
G03X10825Y16150I55J112*
X10950Y16025I125*
X11062Y16095J125*
G02X11080Y16106I18J9*
X11100Y16086J20*
G01Y15808*
G02X11094Y15794I20*
G01X11020Y15720*
G02X11006Y15714I14J14*
X10998Y15715J20*
G03X10950Y15725I48J115*
X10946J125*
G01X10945*
G02X10925Y15745J20*
G01Y15746*
G03Y15750I125J4*
X10800Y15875I125*
X10675Y15750J125*
X10678Y15724I125*
G02Y15720I20J4*
X10658Y15700I20*
G01X10258*
G02X10244Y15706J20*
G01X9450Y16500*
X9427*
G02X9409Y16510J20*
G03X9300Y16575I109J60*
X9252Y16565J125*
G02X9244Y16564I8J19*
X9224Y16584J20*
Y16586I20*
G03X9225Y16600I124J14*
X9209Y16661I125*
G02X9207Y16670I18J9*
X9213Y16684I20*
G01X9216Y16687*
G02X9230Y16693I14J14*
X9239Y16691J20*
G03X9300Y16675I61J109*
X9425Y16800J125*
X9300Y16925I125*
X9175Y16800J125*
X9191Y16739I125*
G02X9193Y16730I18J9*
X9187Y16716I20*
G01X9184Y16713*
G02X9170Y16707I14J14*
X9161Y16709J20*
G03X9100Y16725I61J109*
X8975Y16600J125*
X8995Y16532I125*
G02X8999Y16521I16J11*
X8984Y16501I20*
X8974Y16500I10J39*
G01X8608*
G02X8594Y16506J20*
G01X7606Y17494*
G02X7600Y17508I14J14*
G01Y18623*
G02X7610Y18641I20*
G03X7658Y18687I60J109*
G02X7675Y18697I17J10*
X7692Y18687J20*
G03X7800Y18625I108J63*
X7925Y18750J125*
X7800Y18875I125*
X7692Y18813J125*
G02X7675Y18803I17J10*
X7658Y18813J20*
G03X7610Y18859I108J63*
G02X7600Y18877I10J18*
G01Y25492*
X9200Y17592D02*
G02X9206Y17606I20D01*
G01X9270Y17670*
G02X9284Y17676I14J14*
X9286J20*
G03X9300Y17675I14J124*
X9370Y17697J125*
G02X9381Y17700I11J17*
G01X10523*
G02X10541Y17690J20*
G03X10650Y17625I109J60*
X10664Y17626J125*
G02X10666I2J20*
X10680Y17620J20*
G01X10800Y17500*
Y16800*
G03X10925Y16675I125*
X11050Y16800J125*
X10925Y16925I125*
X10800Y16800J125*
G01Y17500*
X10820Y17480*
G02X10826Y17466I14J14*
Y17464I20*
G03X10825Y17450I124J14*
X10950Y17325I125*
X10964Y17326J125*
G02X10966I2J20*
X10980Y17320J20*
G01X11844Y16456*
G02X11850Y16442I14J14*
G01Y7008*
G02X11844Y6994I20*
G01X11756Y6906*
G02X11742Y6900I14J14*
G01X11114*
G02X11094Y6920J20*
X11105Y6938I20*
G03X11175Y7050I55J112*
X11050Y7175I125*
X10925Y7050J125*
X10995Y6938I125*
G02X11006Y6920I9J18*
X10986Y6900I20*
G01X9908*
G02X9894Y6906J20*
G01X9806Y6994*
G02X9800Y7008I14J14*
G01Y10536*
G02X9820Y10556I20*
X9838Y10545J20*
G03X9950Y10475I112J55*
X10058Y10537J125*
G02X10075Y10547I17J10*
G01Y9900*
G03X10200Y9775I125*
X10325Y9900J125*
G01Y9150*
G03X10450Y9025I125*
X10575Y9150J125*
X10450Y9275I125*
X10325Y9150J125*
G01Y9900*
G03X10200Y10025I125*
X10075Y9900J125*
G01Y10300*
G03X10200Y10175I125*
X10325Y10300J125*
X10200Y10425I125*
X10075Y10300J125*
G01Y10547*
G02X10092Y10537J20*
G03X10200Y10475I108J63*
X10308Y10537J125*
G02X10325Y10547I17J10*
X10342Y10537J20*
G03X10450Y10475I108J63*
X10558Y10537J125*
G02X10575Y10547I17J10*
X10592Y10537J20*
G03X10700Y10475I108J63*
X10808Y10537J125*
G02X10825Y10547I17J10*
X10842Y10537J20*
G03X10950Y10475I108J63*
X11058Y10537J125*
G02X11075Y10547I17J10*
X11092Y10537J20*
G03X11200Y10475I108J63*
X11325Y10600J125*
X11200Y10725I125*
X11092Y10663J125*
G02X11075Y10653I17J10*
X11058Y10663J20*
G03X10950Y10725I108J63*
X10842Y10663J125*
G02X10825Y10653I17J10*
X10808Y10663J20*
G03X10700Y10725I108J63*
X10592Y10663J125*
G02X10575Y10653I17J10*
X10558Y10663J20*
G03X10450Y10725I108J63*
X10342Y10663J125*
G02X10325Y10653I17J10*
X10308Y10663J20*
G03X10200Y10725I108J63*
X10092Y10663J125*
G02X10075Y10653I17J10*
X10058Y10663J20*
G03X9950Y10725I108J63*
X9838Y10655J125*
G02X9820Y10644I18J9*
X9800Y10664J20*
G01Y12942*
G02X9806Y12956I20*
G01X9894Y13044*
G02X9908Y13050I14J14*
G01X11075*
Y10900*
G03X11200Y10775I125*
X11325Y10900J125*
X11200Y11025I125*
X11075Y10900J125*
G01Y11500*
G03X11200Y11375I125*
X11325Y11500J125*
X11200Y11625I125*
X11075Y11500J125*
G01Y13050*
X11200*
X11300Y13150*
Y14569*
G02X11303Y14580I20*
G03X11325Y14650I103J70*
X11303Y14720I125*
G02X11300Y14731I17J11*
G01Y14919*
G02X11303Y14930I20*
G03X11325Y15000I103J70*
X11303Y15070I125*
G02X11300Y15081I17J11*
G01Y16199*
Y16200*
X11100Y16400*
X11050*
X11049*
X10658*
G02X10644Y16406J20*
G01X9850Y17200*
X9258*
G02X9244Y17206J20*
G01X9206Y17244*
G02X9200Y17258I14J14*
G01Y17592*
X15850Y7942D02*
G02X15856Y7956I20D01*
G01X16700Y8800*
Y21592*
G02X16706Y21606I20*
G01X17675Y22575*
Y22400*
G03X17800Y22275I125*
X17925Y22400J125*
X17800Y22525I125*
X17675Y22400J125*
G01Y22575*
X17694Y22594*
G02X17708Y22600I14J14*
G01X18392*
G02X18406Y22594J20*
G01X18494Y22506*
G02X18500Y22492I14J14*
G01Y22308*
G02X18494Y22294I20*
G01X17530Y21330*
G02X17516Y21324I14J14*
X17514J20*
G03X17500Y21325I14J124*
X17430Y21303J125*
G02X17419Y21300I11J17*
G01X17281*
G02X17270Y21303J20*
G03X17200Y21325I70J103*
X17075Y21200J125*
X17097Y21130I125*
G02X17100Y21119I17J11*
G01Y20831*
G02X17097Y20820I20*
G03X17075Y20750I103J70*
X17097Y20680I125*
G02X17100Y20669I17J11*
G01Y20581*
G02X17097Y20570I20*
G03X17075Y20500I103J70*
X17097Y20430I125*
G02X17100Y20419I17J11*
G01Y20031*
G02X17097Y20020I20*
G03X17075Y19950I103J70*
X17097Y19880I125*
G02X17100Y19869I17J11*
G01Y19631*
G02X17097Y19620I20*
G03X17075Y19550I103J70*
X17097Y19480I125*
G02X17100Y19469I17J11*
G01Y19231*
G02X17097Y19220I20*
G03X17075Y19150I103J70*
X17097Y19080I125*
G02X17100Y19069I17J11*
G01Y18631*
G02X17097Y18620I20*
G03X17075Y18550I103J70*
X17097Y18480I125*
G02X17100Y18469I17J11*
G01Y8608*
G02X17094Y8594I20*
G01X16330Y7830*
G02X16316Y7824I14J14*
X16314J20*
G03X16300Y7825I14J124*
X16175Y7700J125*
X16176Y7686I125*
G02Y7684I20J2*
X16170Y7670I20*
G01X16056Y7556*
G02X16042Y7550I14J14*
G01X15908*
G02X15894Y7556J20*
G01X15856Y7594*
G02X15850Y7608I14J14*
G01Y7942*
X21350Y14792D02*
G02X21356Y14806I20D01*
G01X21394Y14844*
G02X21408Y14850I14J14*
G01X21592*
G02X21606Y14844J20*
G01X22700Y13750*
X22880*
Y13560*
G03X23000Y13440I120*
X23120Y13560J120*
X23000Y13680I120*
X22880Y13560J120*
G01Y13750*
X22954*
G02X22961Y13749J20*
G03X23003Y13741I42J112*
X23045Y13749J120*
G02X23052Y13750I7J19*
G01X23252*
G02X23260Y13748J20*
G03X23309Y13738I49J110*
X23357Y13748J120*
G02X23365Y13750I8J18*
G01X23561*
G02X23569Y13748J20*
G03X23618Y13738I49J110*
X23666Y13748J120*
G02X23674Y13750I8J18*
G01X23870*
G02X23878Y13748J20*
G03X23926Y13738I48J110*
X23975Y13748J120*
G02X23983Y13750I8J18*
G01X24109*
Y13573*
G03X24229Y13453I120*
X24349Y13573J120*
X24229Y13693I120*
X24109Y13573J120*
G01Y13750*
X24179*
G02X24187Y13748J20*
G03X24235Y13738I48J110*
X24283Y13748J120*
G02X24291Y13750I8J18*
G01X24392*
G02X24406Y13744J20*
G01X24644Y13506*
G02X24650Y13492I14J14*
G01Y13463*
G02X24644Y13449I20*
G01X24622Y13426*
G03X24604Y13384I42J42*
G01Y13230*
G02X24598Y13216I20*
G01X24588Y13206*
G02X24574Y13200I14J14*
G01X24474*
G02X24460Y13206J20*
G01X24283Y13383*
G03X24240Y13401I43J42*
G01X24086*
G03X24043Y13383J60*
G01X23939Y13279*
G02X23925Y13273I14J14*
G01X23648*
G03X23605Y13255J60*
G01X23556Y13206*
G02X23541Y13200I15J14*
G01X22558*
G02X22544Y13206J20*
G01X21356Y14394*
G02X21350Y14408I14J14*
G01Y14792*
X22450Y17033D02*
G02X22457Y17048I20D01*
G03X22502Y17142I75J94*
X22482Y17209I120*
G02X22478Y17220I16J11*
X22484Y17234I20*
G01X22544Y17294*
G02X22558Y17300I14J14*
G01X22571*
Y15052*
G03X22691Y14932I120*
X22811Y15052J120*
X22691Y15172I120*
X22571Y15052J120*
G01Y15351*
G03X22691Y15231I120*
X22811Y15351J120*
X22691Y15471I120*
X22571Y15351J120*
G01Y15948*
G03X22691Y15828I120*
X22811Y15948J120*
X22691Y16068I120*
X22571Y15948J120*
G01Y16246*
G03X22691Y16126I120*
X22811Y16246J120*
X22691Y16366I120*
X22571Y16246J120*
G01Y16843*
G03X22691Y16723I120*
X22811Y16843J120*
X22691Y16963I120*
X22571Y16843J120*
G01Y17300*
X22960*
G02X22980Y17280J20*
G01Y17276*
G02X22966Y17257I20*
G03X22880Y17142I34J115*
G01Y14455*
G03X23000Y14335I120*
X23120Y14455J120*
X23000Y14575I120*
X22880Y14455J120*
G01Y15052*
G03X23000Y14932I120*
X23120Y15052J120*
X23000Y15172I120*
X22880Y15052J120*
G01Y15351*
G03X23000Y15231I120*
X23120Y15351J120*
X23000Y15471I120*
X22880Y15351J120*
G01Y15948*
G03X23000Y15828I120*
X23120Y15948J120*
X23000Y16068I120*
X22880Y15948J120*
G01Y16246*
G03X23000Y16126I120*
X23120Y16246J120*
X23000Y16366I120*
X22880Y16246J120*
G01Y16843*
G03X23000Y16723I120*
X23120Y16843J120*
X23000Y16963I120*
X22880Y16843J120*
G01Y17142*
G03X23000Y17022I120*
X23120Y17142J120*
X23034Y17257I120*
G02X23020Y17276I6J19*
G01Y17280*
G02X23040Y17300I20*
G01X23189*
Y14455*
G03X23309Y14335I120*
X23429Y14455J120*
X23309Y14575I120*
X23189Y14455J120*
G01Y17300*
X23269*
G02X23289Y17280J20*
G01Y17276*
G02X23275Y17257I20*
G03X23189Y17142I34J115*
G01Y15052*
G03X23309Y14932I120*
X23429Y15052J120*
X23309Y15172I120*
X23189Y15052J120*
G01Y15351*
G03X23309Y15231I120*
X23429Y15351J120*
X23309Y15471I120*
X23189Y15351J120*
G01Y15948*
G03X23309Y15828I120*
X23429Y15948J120*
X23309Y16068I120*
X23189Y15948J120*
G01Y16246*
G03X23309Y16126I120*
X23429Y16246J120*
X23309Y16366I120*
X23189Y16246J120*
G01Y16843*
G03X23309Y16723I120*
X23429Y16843J120*
X23309Y16963I120*
X23189Y16843J120*
G01Y17142*
G03X23309Y17022I120*
X23429Y17142J120*
X23343Y17257I120*
G02X23329Y17276I6J19*
G01Y17280*
G02X23349Y17300I20*
G01X23498*
Y14455*
G03X23618Y14335I120*
X23738Y14455J120*
X23618Y14575I120*
X23498Y14455J120*
G01Y17300*
X23578*
G02X23598Y17280J20*
G01Y17276*
G02X23583Y17257I20*
G03X23498Y17142I35J115*
G01Y15052*
G03X23618Y14932I120*
X23738Y15052J120*
X23618Y15172I120*
X23498Y15052J120*
G01Y15351*
G03X23618Y15231I120*
X23738Y15351J120*
X23618Y15471I120*
X23498Y15351J120*
G01Y16246*
G03X23618Y16126I120*
X23738Y16246J120*
X23618Y16366I120*
X23498Y16246J120*
G01Y16843*
G03X23618Y16723I120*
X23738Y16843J120*
X23618Y16963I120*
X23498Y16843J120*
G01Y17142*
G03X23618Y17022I120*
X23738Y17142J120*
X23652Y17257I120*
G02X23638Y17276I6J19*
G01Y17280*
G02X23658Y17300I20*
G01X23692*
G02X23706Y17294J20*
G01X23794Y17206*
G02X23800Y17192I14J14*
G01Y15350*
X23802Y15348*
G02X23807Y15337I15J14*
G03X23912Y15232I119J14*
G02X23924Y15226I2J20*
G01X23944Y15206*
G02X23950Y15192I14J14*
X23930Y15172I20*
G01X23929*
G03X23926I3J120*
X23806Y15052J120*
G01Y14455*
G03X23926Y14335I120*
X24046Y14455J120*
X23926Y14575I120*
X23806Y14455J120*
G01Y15052*
G03X23926Y14932I120*
X24046Y15052J120*
Y15055I120*
G02X24066Y15075I20*
X24081Y15069J20*
G01X24105Y15045*
Y14455*
G03X24235Y14325I130*
X24365Y14455J130*
X24235Y14585I130*
X24105Y14455J130*
G01Y15045*
X24112Y15038*
G02X24118Y15028I14J14*
G03X24211Y14935I117J24*
G02X24221Y14929I5J20*
G01X24547Y14603*
G02X24553Y14589I14J14*
X24535Y14569I20*
G03X24430Y14450I15J119*
X24550Y14330I120*
X24619Y14352J120*
G02X24630Y14355I11J17*
X24650Y14335J20*
G01Y13858*
G02X24644Y13844I20*
G01X24606Y13806*
G02X24592Y13800I14J14*
G01X24457*
G02X24444Y13804J20*
G03X24400Y13820I44J54*
G01X24374*
G02X24354Y13840J20*
Y13843I20*
G03X24355Y13858I119J15*
X24235Y13978I120*
X24115Y13858J120*
X24116Y13843I120*
G02Y13840I20J3*
X24096Y13820I20*
G01X24065*
G02X24045Y13840J20*
Y13843I20*
G03X24046Y13858I119J15*
X23926Y13978I120*
X23806Y13858J120*
X23807Y13843I120*
G02X23808Y13840I19J3*
X23788Y13820I20*
G01X23756*
G02X23736Y13840J20*
X23737Y13843I20*
G03X23738Y13858I119J15*
X23618Y13978I120*
X23498Y13858J120*
X23499Y13843I120*
G02Y13840I20J3*
X23479Y13820I20*
G01X23142*
G02X23122Y13840J20*
Y13843I20*
G03X23123Y13861I119J18*
X23003Y13981I120*
X22883Y13861J120*
X22884Y13843I120*
G02X22885Y13840I19J3*
X22865Y13820I20*
G01X22838*
G02X22824Y13826J20*
G01X22643Y14007*
G02X22638Y14021I15J14*
X22658Y14041I20*
X22662Y14040J20*
G03X22691Y14037I29J117*
X22811Y14157J120*
X22691Y14277I120*
X22571Y14157J120*
X22575Y14128I120*
G02Y14123I20J5*
X22555Y14103I20*
X22541Y14109J20*
G01X22456Y14194*
G02X22450Y14208I14J14*
G01Y14943*
G02X22457Y14959I20*
G03X22502Y15052I75J93*
X22457Y15146I120*
G02X22450Y15161I13J15*
G01Y15242*
G02X22457Y15257I20*
G03X22502Y15351I75J94*
X22457Y15444I120*
G02X22450Y15460I13J16*
G01Y15540*
G02X22457Y15556I20*
G03X22502Y15649I75J93*
X22457Y15743I120*
G02X22450Y15758I13J15*
G01Y15839*
G02X22457Y15854I20*
G03X22502Y15948I75J94*
X22457Y16041I120*
G02X22450Y16057I13J16*
G01Y16137*
G02X22457Y16153I20*
G03X22502Y16246I75J93*
X22457Y16340I120*
G02X22450Y16355I13J15*
G01Y16734*
G02X22457Y16750I20*
G03X22502Y16843I75J93*
X22457Y16937I120*
G02X22450Y16952I13J15*
G01Y17033*
G37*
G54D10*
X0Y0D02*
X39000D01*
Y29000*
X0*
Y0*
G54D11*
X2000Y6200D03*
X2225D03*
Y6450D03*
Y6700D03*
Y6950D03*
X2750Y6000D03*
X2900Y5850D03*
X3050Y5200D03*
Y5450D03*
Y5700D03*
X3100Y12300D03*
X3135Y4947D03*
X3275Y5200D03*
X3500D03*
X4050Y4600D03*
Y5200D03*
Y5800D03*
X4250Y11000D03*
X4370Y4300D03*
Y4600D03*
Y4900D03*
Y5200D03*
Y5500D03*
Y5800D03*
X5400Y4300D03*
Y4600D03*
Y4900D03*
Y5200D03*
Y5500D03*
X5550Y8350D03*
Y8600D03*
X5800Y8350D03*
Y8600D03*
X6050Y8350D03*
Y8600D03*
X6300Y8350D03*
Y8600D03*
X6500Y2450D03*
X6550Y8350D03*
Y8600D03*
X6800Y8350D03*
Y8600D03*
X7000Y16264D03*
X7050Y17350D03*
X7100Y19050D03*
X7145Y22250D03*
Y24750D03*
X7150Y22500D03*
Y22750D03*
Y25000D03*
Y25250D03*
X7200Y20550D03*
X7750Y17550D03*
X7800Y15450D03*
X8200Y3650D03*
X8550Y12900D03*
X8700Y5400D03*
X9100Y16300D03*
X9300Y17300D03*
Y17525D03*
X9340Y4050D03*
X9498Y3800D03*
X9655Y4050D03*
X10450Y7050D03*
Y7350D03*
Y7800D03*
Y8550D03*
Y8850D03*
Y11100D03*
Y11400D03*
Y11850D03*
Y12600D03*
Y12900D03*
X10645Y3800D03*
X10700Y7800D03*
X10800Y15150D03*
X10803Y4050D03*
X10950Y7800D03*
Y11850D03*
Y15000D03*
Y15300D03*
Y15910D03*
X10960Y3800D03*
X11200Y7800D03*
Y11850D03*
X11450Y7800D03*
Y11850D03*
X11700Y7800D03*
Y11850D03*
X11800Y5500D03*
Y5750D03*
X11950Y4050D03*
X12108Y3800D03*
X12265Y4050D03*
X13725Y15600D03*
X13830Y4009D03*
X13975Y15600D03*
X14090Y4000D03*
X14300Y19550D03*
Y20750D03*
X14653Y25490D03*
X14950Y16550D03*
Y16800D03*
X15029Y26068D03*
X15200Y17550D03*
X15765Y3350D03*
X16000Y7700D03*
Y15875D03*
X16100Y20150D03*
Y20750D02*
X16340D01*
X16500Y20590*
Y16250*
X16125Y15875*
X16000*
X16100Y20750D03*
Y22400D03*
Y22700D03*
X16158Y4042D03*
X16300Y7400D03*
X16315Y3800D03*
X16500Y6450D03*
X16800Y6150D03*
Y6450D03*
X17162Y3771D03*
X17330Y3899D03*
X17621Y4072D03*
X17700Y6150D03*
Y6550D03*
Y7600D03*
Y7850D03*
Y19550D03*
X17750Y19908D03*
X17950Y12900D03*
Y13150D03*
Y14850D03*
Y15100D03*
X18100Y22400D03*
X18180Y25812D03*
X18350Y22400D03*
X18854Y15125D03*
X19134D03*
Y18186D03*
X19200Y19850D03*
X19414Y17796D03*
X19583Y6075D03*
X19694Y14735D03*
Y15125D03*
X19974Y14345D03*
Y14735D03*
Y15125D03*
X20213Y5445D03*
Y5760D03*
X20254Y14345D03*
X20534D03*
Y14735D03*
X20814Y14345D03*
X20843Y5445D03*
Y6075D03*
X21094Y14345D03*
Y19759D03*
Y20039D03*
Y19199D03*
Y19479D03*
X21158Y5130D03*
Y6390D03*
X21436Y14754D03*
X21456Y14455D03*
X21473Y5130D03*
Y5445D03*
X21788Y4815D03*
X22100Y24400D03*
Y24650D03*
X22103Y5130D03*
X22691Y14455D03*
Y17142D03*
X23050Y2800D03*
X23309Y13858D03*
X23375Y10961D03*
Y11251D03*
X23618Y15948D03*
X23765Y10961D03*
Y11251D03*
Y11801D03*
Y11521D03*
Y12361D03*
X24155Y11241D03*
Y11521D03*
Y11801D03*
Y12081D03*
X24450Y5500D03*
X24524Y13255D03*
X24544Y13858D03*
X24638Y25300D03*
Y27000D03*
X24750Y5500D03*
X24906Y12062D03*
Y12921D03*
Y16655D03*
X24953Y25300D03*
Y27000D03*
X25050Y3600D03*
Y4000D03*
Y4400D03*
Y5200D03*
X25101Y26699D03*
X25300Y21800D03*
X25466Y15875D03*
Y16265D03*
X25598Y21795D03*
X25686Y10961D03*
Y11801D03*
Y12081D03*
Y12361D03*
Y11241D03*
X25700Y3600D03*
Y4800D03*
Y5500D03*
X25746Y17406D03*
Y15862D03*
X25766Y16655D03*
X25771Y16265D03*
X25850Y27000D03*
X26026Y16655D03*
Y17406D03*
X26076Y11521D03*
X26100Y27000D03*
X26306Y17406D03*
Y12814D03*
X26586Y13595D03*
Y13204D03*
Y12424D03*
Y12814D03*
Y15875D03*
X26592Y16274D03*
X26700Y23900D03*
X26750Y26500D03*
Y27000D03*
X26866Y15875D03*
Y13204D03*
Y13594D03*
Y16265D03*
Y12814D03*
X26868Y12424D03*
X26874Y16649D03*
X27012Y11723D03*
X27146Y13595D03*
Y12814D03*
Y17030D03*
Y17406D03*
X27350Y23900D03*
X27357Y23600D03*
X27472Y27000D03*
X27787Y25300D03*
Y27000D03*
X28300Y18600D03*
X28333Y6075D03*
X28400Y26500D03*
X28417Y25317D03*
X28600Y17030D03*
X28629Y17400D03*
X28750Y25300D03*
X28863Y17364D03*
X28890Y22686D03*
Y22952D03*
X28929Y22398D03*
X28963Y5445D03*
X29047Y25300D03*
X29250Y28200D03*
X29362Y25300D03*
Y27000D03*
X29500Y23000D03*
X29593Y5918D03*
Y6233D03*
X29800Y18450D03*
Y21800D02*
X29600Y21600D01*
Y18650*
X29800Y18450*
Y21800D03*
Y23900D03*
X29908Y5130D03*
Y5918D03*
Y6233D03*
X30100Y18450D03*
X30200Y22200D03*
X30223Y5130D03*
Y5445D03*
X30300Y25300D02*
X31000Y26000D01*
X31150*
X31500Y26350*
Y27100*
X31000Y27600*
X29850*
X29250Y28200*
X30300Y25300D03*
X30538Y4815D03*
X30550Y16050D03*
Y22200D03*
Y22500D03*
X30853Y5130D03*
X30900Y21800D03*
Y22200D03*
X31700Y8500D03*
Y9000D03*
X32200Y13900D03*
Y15150D03*
X32350Y14100D03*
Y15350D03*
X32700Y11650D03*
X33861Y5181D03*
X34882Y5184D03*
X35350Y14400D03*
X35750D02*
X37014Y13136D01*
Y10621*
X36864Y10471*
X36664*
X35750Y14400D03*
X36537Y4398D03*
X37427Y3507D01*
Y3024*
X36650Y12150D02*
Y13177D01*
X35740Y14087*
X35663*
X35350Y14400*
X36650Y12150D03*
X36664Y10471D03*
X37164Y10212D03*
X37359Y6530D03*
X37427Y3024D03*
X37738Y6539D03*
X38099Y6542D03*
G54D12*
X23050Y2800D02*
X23500Y2350D01*
Y950*
X24150Y300*
X32543*
X34163Y1919*
Y4465*
X34882Y5184*
X24906Y16655D02*
X24901D01*
X24729Y16827*
Y20629*
X25100Y21000*
X26100Y27000D02*
X26300Y26800D01*
Y25900*
X26400Y25800*
Y25100*
X26250Y24950*
Y24350*
X26100Y24200*
Y21700*
X25850Y21450*
X25550*
X25100Y21000*
X38099Y6542D02*
X37022Y5465D01*
X34145*
X33861Y5181*
G54D13*
X21473Y5130D02*
Y5222D01*
X21645Y5395*
Y5845*
X21755Y5955*
X22039*
X22145Y6061*
Y6361*
X22234Y6450*
X22500*
X21473Y5445D02*
X21550Y5523D01*
Y5884*
X21716Y6050*
X21794*
X22000*
X22050Y6100*
Y6400*
X22195Y6545*
X22500*
X21800Y6986D02*
Y7000D01*
Y7139*
X21908Y7247*
X21800Y7536D02*
Y7689D01*
X21908Y7797*
X21800Y8086D02*
Y8239D01*
X21908Y8347*
X21895Y7100D02*
X21948Y7152D01*
X21895Y7650D02*
X21948Y7702D01*
X21895Y8200D02*
X21948Y8252D01*
X21908Y6877D02*
X21800Y6986D01*
X21908Y7427D02*
X21800Y7536D01*
X21908Y7977D02*
X21800Y8086D01*
X21908Y7247D02*
X22547D01*
X21908Y7427D02*
Y7797*
X22547D01*
X21908Y7977D02*
Y8347*
X22547D01*
X21920Y7000D02*
X21895Y7025D01*
Y7100*
X21948Y7152D02*
X22587D01*
X21948Y7522D02*
X21895Y7575D01*
Y7650*
X21948Y7702D02*
X22587D01*
X21948Y8072D02*
X21895Y8125D01*
Y8200*
X21948Y8252D02*
X22587D01*
X22500Y6450D02*
X22584D01*
X22695Y6561*
Y6864*
X22587Y6972*
X22500*
Y6545D02*
X22545D01*
X22600Y6600*
Y6825*
X22500Y6877D02*
X21908D01*
X22500Y6972D02*
X21948D01*
X21920Y7000*
X22547Y6877D02*
X22500D01*
X22547Y7247D02*
X22600Y7300D01*
Y7375*
X22547Y7427D02*
X21908D01*
X22547Y7797D02*
X22600Y7850D01*
Y7925*
X22547Y7977D02*
X21908D01*
X22547Y8347D02*
X23550Y9350D01*
X22587Y7152D02*
Y7522*
X21948D01*
X22587Y7702D02*
Y8072*
X21948D01*
X22587Y8252D02*
Y7152*
X22695Y7261D01*
X22587Y7702D02*
X22695Y7811D01*
X22587Y8252D02*
X23645Y9311D01*
X22600Y6825D02*
X22547Y6877D01*
X22600Y7375D02*
X22547Y7427D01*
X22600Y7925D02*
X22547Y7977D01*
X22695Y7261D02*
Y7414D01*
X22587Y7522*
X22695Y7811D02*
Y7964D01*
X22587Y8072*
X23550Y9350D02*
Y9750D01*
Y10400*
X23650Y10500*
X23850*
X23908Y10558*
Y11058*
X23863Y11103*
X23701*
X23623Y11182*
Y11378*
X23765Y11521*
X23645Y9311D02*
Y9750D01*
Y10361*
X23689Y10405*
X23889*
X23849Y11251D02*
X23765D01*
X23889Y10405D02*
X24003Y10518D01*
Y11097*
X23849Y11251*
X24450Y5500D02*
X24410Y5460D01*
Y5385*
X24455Y5340*
X24523*
X24555Y5372*
X24618*
X24655Y5335*
Y4139*
X24500Y3984*
Y3510*
X24430Y3440*
X24264*
X24195Y3509*
Y4050*
X24450Y4305*
Y4984*
X24195Y5239*
Y7411*
X24489Y7705*
X24639*
X24750Y7816*
Y7960*
X24845Y8055*
X24989*
X25150Y8216*
Y8366*
X25204Y8420*
X25354*
X25545Y8611*
Y8939*
X25445Y9039*
Y9161*
X25545Y9261*
Y9455*
X25449Y9551*
Y9615*
X25545Y9711*
Y9750*
X24750Y5500D02*
Y4100D01*
X24595Y3945*
Y3471*
X24469Y3345*
X24225*
X24100Y3470*
Y4089*
X24355Y4344*
Y4945*
X24100Y5200*
Y7450*
X24450Y7800*
X24600*
X24655Y7855*
Y7999*
X24806Y8150*
X24950*
X25055Y8255*
Y8405*
X25165Y8515*
X25315*
X25450Y8650*
Y8900*
X25350Y9000*
Y9200*
X25450Y9300*
Y9416*
X25354Y9512*
Y9654*
X25450Y9750*
X25441Y11141D02*
X25541Y11241D01*
X25686*
X25450Y9750D02*
Y9866D01*
X25350Y9966*
Y10127*
X25450Y10227*
Y10321*
X25350Y10421*
Y10588*
X25438Y10676*
Y11138*
X25441Y11141*
X25545Y9750D02*
Y9905D01*
X25445Y10005*
Y10088*
X25545Y10188*
Y10360*
X25445Y10460*
Y10545*
X25524Y10624*
Y11044*
X25578Y11098*
X25657*
X25686Y11069*
Y10961*
X28250Y11766D02*
X27344Y12672D01*
X27008*
X26866Y12814*
X28250Y11900D02*
X27383Y12767D01*
X27336Y12814*
X27146*
X28900Y7756D02*
X29008Y7864D01*
X28900Y8306D02*
X29008Y8414D01*
X28900Y8856D02*
X29008Y8964D01*
X28900Y9406D02*
X29008Y9514D01*
X28900Y9956D02*
X29008Y10064D01*
X28905Y11111D02*
X28250Y11766D01*
X28995Y7716D02*
X29048Y7769D01*
X29292*
X29400Y7877*
Y8031*
X28995Y8192D02*
Y8266D01*
X29048Y8319*
X29292*
X29400Y8427*
Y8581*
X28995Y8742D02*
Y8816D01*
X29048Y8869*
X29292*
X29400Y8977*
Y9131*
X28995Y9292D02*
Y9366D01*
X29048Y9419*
X29292*
X29400Y9527*
Y9681*
X28995Y9842D02*
Y9916D01*
X29048Y9969*
X29292*
X29400Y10077*
X29000Y11150D02*
X28250Y11900D01*
X29008Y7864D02*
X29252D01*
X29008Y8414D02*
X29252D01*
X29008Y8964D02*
X29252D01*
X29008Y9514D02*
X29252D01*
X29008Y10064D02*
X29252D01*
X29048Y8139D02*
X28995Y8192D01*
X29048Y8689D02*
X28995Y8742D01*
X29048Y9239D02*
X28995Y9292D01*
X29048Y9789D02*
X28995Y9842D01*
X29252Y7864D02*
X29305Y7917D01*
X29252Y8414D02*
X29305Y8467D01*
X29252Y8964D02*
X29305Y9017D01*
X29252Y9514D02*
X29305Y9567D01*
X29252Y10064D02*
X29305Y10117D01*
X29292Y8139D02*
X29048D01*
X29292Y8689D02*
X29048D01*
X29292Y9239D02*
X29048D01*
X29292Y9789D02*
X29048D01*
X29305Y7000D02*
Y7197D01*
X28900Y7602*
Y7756*
X29305Y7917D02*
Y7991D01*
X29252Y8044*
X29008*
X28900Y8152*
Y8306*
X29305Y8467D02*
Y8541D01*
X29252Y8594*
X29008*
X28900Y8702*
Y8856*
X29305Y9017D02*
Y9091D01*
X29252Y9144*
X29008*
X28900Y9252*
Y9406*
X29305Y9567D02*
Y9641D01*
X29252Y9694*
X29008*
X28900Y9802*
Y9956*
X29305Y10117D02*
Y10245D01*
X29250Y10300*
X29016*
X28905Y10411*
Y11111*
X29400Y7000D02*
Y7237D01*
X28995Y7642*
Y7716*
X29400Y8031D02*
X29292Y8139D01*
X29400Y8581D02*
X29292Y8689D01*
X29400Y9131D02*
X29292Y9239D01*
X29400Y9681D02*
X29292Y9789D01*
X29400Y10077D02*
Y10300D01*
X29300Y10400*
X29050*
X29000Y10450*
Y11150*
X30223Y5130D02*
X30050Y5303D01*
Y5505*
X29950Y5605*
X29511*
X29305Y5811*
Y7000*
X30223Y5445D02*
X30328D01*
X30373Y5490*
Y5605*
X30328Y5650*
X30042*
X29992Y5700*
X29550*
X29400Y5850*
Y7000*
X32200Y13900D02*
X32301Y13799D01*
X32525*
X32564Y13838*
X32350Y14100D02*
X32467Y13983D01*
X32504*
X32356Y15345D02*
X32355D01*
X32350Y15350*
X32416Y15200D02*
X32413Y15198D01*
X32248*
X32200Y15150*
X32504Y13983D02*
X32569D01*
X32608Y14021*
Y14875*
X32932Y15199*
X33100*
X32564Y13838D02*
X32630D01*
X32753Y13961*
Y14815*
X32992Y15054*
X33100*
X33486*
X33959Y15528*
X34286*
X34365Y15606*
X34677*
X33100Y15199D02*
X33462D01*
X33945Y15683*
X34213*
X34420Y15890*
Y16136*
X34677Y16394*
X33119Y16095D02*
X32895D01*
X32605Y15805*
Y15460*
X32490Y15345*
X32356*
X33179Y15950D02*
X32955D01*
X32750Y15745*
Y15400*
X32550Y15200*
X32416*
X33417Y15606D02*
Y15760D01*
X33228Y15950*
X33179*
X33417Y16394D02*
X33119Y16095D01*
G54D14*
X20900Y19954D02*
Y20725D01*
X21425Y21250*
X21094Y19759D02*
X20900Y19954D01*
X21094Y20039D02*
X21059Y20075D01*
Y20659*
X21650Y21250*
X21425D02*
X21491Y21316D01*
X22700Y22525*
Y23000*
X23050Y23350*
X23350*
X24291Y24291*
Y24559*
Y24691*
X24638Y25038*
Y25300*
X21650Y21250D02*
X22859Y22459D01*
Y22934*
X23116Y23191*
X23416*
X24450Y24225*
Y24625*
X24797Y24972*
Y25361*
X21900Y21000D02*
X21400Y20500D01*
Y19891*
Y19785*
X21094Y19479*
X22125Y21000D02*
X21559Y20434D01*
Y19957*
Y19719*
X21250Y19410*
Y19192*
X21211Y19153*
X21140*
X21094Y19199*
X23500Y22666D02*
Y22600D01*
X21900Y21000*
X23659Y22732D02*
Y22534D01*
X22125Y21000*
X24479Y26496D02*
X25241Y25734D01*
X24479Y27066D02*
Y26496D01*
X24638Y26562D02*
X25307Y25893D01*
X24638Y27000D02*
Y26562D01*
X24797Y25361D02*
X24836Y25400D01*
X24900*
X24953Y25347*
Y25300*
Y27000D02*
X24803Y27150D01*
X24550*
X24479Y27079*
Y27066*
X25241Y25734D02*
Y24391D01*
X24900Y24050*
X24625*
X23500Y22925*
Y22666*
X25307Y25893D02*
X25400Y25800D01*
Y24325*
X24966Y23891*
X24691*
X23659Y22859*
Y22732*
G54D15*
X8200Y3650D02*
X7200Y4650D01*
Y13850*
X6750Y14300*
Y18700*
X7100Y19050*
X8700Y5400D02*
Y12750D01*
X8550Y12900*
X9498Y3800D02*
Y3301D01*
X10239Y2560*
X14767*
X15534Y3326*
Y4038*
X15795Y4300*
X15798*
X16248Y4750*
X17389*
X18500Y5861*
Y6764*
X19500Y7764*
Y10000*
X9655Y4050D02*
X10593D01*
X10803Y3840*
Y3760*
X11216Y3347*
X14363*
X14703Y3687*
Y4001*
X15752Y5050*
X16933*
X18200Y6317*
Y6853*
X18783Y7435*
Y10000*
X10645Y3800D02*
Y3629D01*
X11008Y3267*
X14639*
X15041Y3668*
Y4139*
X15652Y4750*
X15950*
X16150Y4950*
X17282*
X18300Y5968*
Y6839*
X18906Y7446*
Y10000*
X10803Y4050D02*
X11253Y4500D01*
X12800*
X14000Y5700*
X14850*
X17340Y8190*
Y13940*
X17650Y14250*
Y14350*
X17750Y14450*
X10960Y3800D02*
X11204D01*
X11754Y4350*
X13150*
X14400Y5600*
X14900*
X17650Y8350*
Y14000*
X17750Y14100*
X12108Y3800D02*
X12470Y3437D01*
X14209*
X14593Y3821*
Y4077*
X15661Y5145*
X16234*
X16940Y5851*
Y6310*
X16800Y6450*
X13830Y4009D02*
X14010Y4189D01*
Y4873*
X14617Y5480*
X14893*
X17865Y8452*
Y10000*
X15765Y3350D02*
X16515D01*
X17205Y4039*
X17422*
X17529Y3932*
X17685*
X17865Y4111*
X18009*
X18500Y4602*
Y4798*
X19098Y5396*
Y6725*
X20159Y7786*
Y10000*
X16300Y7400D02*
X17200Y8300D01*
Y17569*
X17750Y18118*
X16500Y6450D02*
X16250Y6200D01*
Y5700*
X16150Y5600*
X15450*
X14900Y5050*
X14650*
X14400Y4800*
Y4029*
X14206Y3835*
X13715*
X13600Y3950*
Y4100*
X13500Y4200*
X12100*
X11950Y4050*
X16800Y6150D02*
Y5950D01*
X16350Y5500*
X15600*
X14500Y4400*
Y3941*
X14109Y3550*
X13265*
X12765Y4050*
X12265*
X17700Y6150D02*
X17500Y6350D01*
Y6800*
X18350Y7650*
Y7950*
X18550Y8150*
Y10000*
X17700Y6550D02*
Y6850D01*
X18450Y7600*
Y7900*
X18650Y8100*
Y10000*
X17700Y7850D02*
X18138Y8288D01*
Y10000*
X17750Y14100D02*
Y14300D01*
X18750Y15300*
X19199*
X17750Y19908D02*
X17840Y19818D01*
Y19169*
X18094Y18914*
Y18463*
X17750Y18118*
Y20952D02*
X17350Y20552D01*
Y19900*
X17700Y19550*
X17798Y21000D02*
X17750Y20952D01*
X17798Y21000D02*
X18063Y21266D01*
X18366*
X19250Y22150*
Y23150*
X20500Y24400*
X21300*
X21800Y24900*
Y25700*
X23600Y27500*
X28862*
X29362Y27000*
X17950Y10000D02*
Y8350D01*
X15000Y5400*
X14650*
X14090Y4840*
Y4000*
X17950Y12900D02*
X18100Y12750D01*
Y12290*
X17828Y12018*
Y10037*
X17865Y10000*
X17950Y13150D02*
X18200Y12900D01*
Y11400*
X17950Y11150*
Y10000*
X18450D02*
Y14150D01*
X18988Y14688*
Y14979*
X19134Y15125*
X18450Y10000D02*
Y8350D01*
X17700Y7600*
X18650Y10000D02*
Y13200D01*
X18950Y13500*
X19094*
X19722Y14128*
X18854Y15125D02*
X18300Y14571D01*
Y11200*
X18138Y11038*
Y10000*
X18861Y21000D02*
X18858Y20997D01*
Y20993*
X18150Y20285*
Y19443*
X18225Y19367*
Y17675*
X17750Y17200*
Y15050*
X17950Y14850*
X18861Y21000D02*
X21550Y23689D01*
Y23850*
X22100Y24400*
X18870Y11255D02*
X18950Y11175D01*
X18906Y10000D02*
Y10623D01*
X19200Y10917*
Y11376*
X19300Y11476*
Y13288*
X20114Y14102*
Y14403*
X20260Y14549*
X20349*
X20534Y14735*
X18950Y11175D02*
Y10780D01*
X18783Y10612*
Y10000*
X19100Y21000D02*
X18353Y20253D01*
Y15503*
X17950Y15100*
X19100Y21000D02*
X21700Y23600D01*
Y23750*
X22250Y24300*
Y24500*
X22100Y24650*
X19199Y15300D02*
X19274Y15225D01*
X19200Y10000D02*
Y10804D01*
X19300Y10904*
Y11363*
X19400Y11463*
Y13228*
X20254Y14082*
Y14345*
X19200Y10000D02*
Y7577D01*
X18392Y6769*
Y5947*
X17295Y4850*
X16235*
X16040Y4655*
X15757*
X15191Y4089*
Y3579*
X14789Y3177*
X10238*
X9655Y3759*
Y3846*
X9515Y3986*
Y4015*
X9480Y4050*
X9340*
X19274Y15225D02*
Y15026D01*
X19350Y14950*
X19799*
X19974Y15125*
X19500Y6857D02*
X19643Y7000D01*
X19500Y6857D02*
X19365Y6721D01*
Y4567*
X18299Y3501*
X17431*
X17162Y3771*
X19500Y10000D02*
Y10965D01*
X19410Y11056*
Y11360*
X19500Y11450*
Y12464*
X20114Y13078*
Y13725*
X20534Y14145*
Y14345*
X19583Y6075D02*
X19758Y5900D01*
X20900*
X21000Y6000*
Y6118*
X21112Y6230*
X21230*
X21350Y6350*
Y6600*
X21250Y6700*
Y7000*
X19600Y10000D02*
Y7732D01*
X18600Y6732*
Y5800*
X17450Y4650*
X16482*
X16246Y4414*
Y4130*
X16158Y4042*
X19643Y7000D02*
X20353Y7709D01*
Y10000*
X19694Y14735D02*
X19554Y14595D01*
Y14287*
X18550Y13282*
Y10000*
X19694Y15125D02*
X19419Y15400D01*
X18700*
X17750Y14450*
X19700Y10000D02*
Y10600D01*
X19783Y10683*
Y11544*
X20954Y12715*
Y13904*
X21094Y14044*
Y14345*
X19700Y10000D02*
Y7700D01*
X18700Y6700*
Y5437*
X17817Y4554*
X17070*
X16315Y3800*
X19800Y10000D02*
Y7661D01*
X18800Y6661*
Y5347*
X17882Y4429*
Y4333*
X17621Y4072*
X19974Y14345D02*
Y14113D01*
X19002Y13141*
Y11939*
X18870Y11807*
Y11255*
X20213Y5760D02*
X20223Y5750D01*
X21100*
X21308Y5958*
Y6108*
X21500Y6300*
Y6700*
X21400Y6800*
Y7000*
X20254Y10000D02*
Y10411D01*
X22633Y12790*
X23424*
X23568Y12934*
Y12941*
X23702Y13075*
X23951*
X23965Y13061*
X24394*
X24419Y13035*
X24615*
X24761Y13181*
Y13368*
X25843Y14450*
Y14750*
X26405Y15312*
X27362*
X28400Y16350*
X20254Y10000D02*
Y7754D01*
X19225Y6725*
Y4975*
X18500Y4250*
Y4002*
X18108Y3610*
X17619*
X17330Y3899*
X20350Y21000D02*
X19200Y19850D01*
X20500Y21150D02*
X20350Y21000D01*
X20551Y7000D02*
X20550Y7001D01*
Y7068*
X20597Y7114*
X20653*
X20700Y7161*
Y7228*
X20653Y7274*
X20597*
X20550Y7321*
Y7388*
X20597Y7434*
X20653*
X20700Y7481*
Y7548*
X20653Y7594*
X20597*
X20550Y7641*
Y7708*
X20597Y7754*
X20653*
X20700Y7801*
Y7868*
X20653Y7914*
X20597*
X20550Y7961*
Y8028*
X20597Y8074*
X20653*
X20700Y8121*
Y8188*
X20653Y8234*
X20597*
X20550Y8281*
Y8348*
X20597Y8394*
X20653*
X20700Y8441*
Y8508*
X20653Y8554*
X20597*
X20550Y8601*
Y8668*
X20597Y8714*
X20653*
X20700Y8761*
Y8828*
X20653Y8874*
X20597*
X20550Y8921*
Y8988*
X20597Y9034*
X20653*
X20700Y9081*
Y9148*
X20653Y9194*
X20597*
X20550Y9241*
Y9308*
X20597Y9354*
X20653*
X20700Y9401*
Y9468*
X20653Y9514*
X20597*
X20550Y9561*
Y9628*
X20597Y9674*
X20653*
X20700Y9721*
Y10000*
X20600Y21250D02*
X20500Y21150D01*
X20600Y21250D02*
X21443Y22093D01*
Y22243*
X22150Y22950*
Y23095*
X23227Y24172*
Y26777*
X23800Y27350*
X25500*
X25850Y27000*
X20814Y14345D02*
Y14045D01*
X20394Y13625*
Y12914*
X19693Y12212*
Y10743*
X19600Y10650*
Y10000*
X20843Y5445D02*
X20988Y5300D01*
X21200*
X21300Y5200*
Y5050*
X21360Y4990*
X21557*
X21627Y5060*
Y5173*
X21739Y5285*
X21825*
X21950Y5409*
Y5500*
X22050Y5600*
X22500*
X20843Y6075D02*
X20550Y6368D01*
Y6428*
X20597Y6474*
X20653*
X20700Y6521*
Y6588*
X20653Y6634*
X20597*
X20550Y6681*
Y6748*
X20597Y6794*
X20653*
X20700Y6841*
Y6908*
X20653Y6954*
X20597*
X20551Y7000*
X20900D02*
Y7080D01*
X20947Y7127*
X21053*
X21100Y7174*
Y7240*
X21053Y7287*
X20947*
X20900Y7334*
Y7400*
X20947Y7447*
X21053*
X21100Y7494*
Y7560*
X21053Y7607*
X20947*
X20900Y7654*
Y7720*
X20947Y7767*
X21053*
X21100Y7814*
Y7880*
X21053Y7927*
X20947*
X20900Y7974*
Y8040*
X20947Y8087*
X21053*
X21100Y8134*
Y8200*
X21053Y8247*
X20947*
X20900Y8294*
Y8360*
X20947Y8407*
X21053*
X21100Y8454*
Y8520*
X21053Y8567*
X20947*
X20900Y8614*
Y8680*
X20947Y8727*
X21053*
X21100Y8774*
Y8840*
X21053Y8887*
X20947*
X20900Y8934*
Y9000*
X20947Y9047*
X21053*
X21100Y9094*
Y9160*
X21053Y9207*
X20947*
X20900Y9254*
Y9320*
X20947Y9367*
X21053*
X21100Y9414*
Y9480*
X21053Y9527*
X20947*
X20900Y9574*
Y9640*
X20947Y9687*
X21053*
X21100Y9734*
Y9800*
X21053Y9847*
X20947*
X20900Y9894*
Y9960*
X20940Y10000*
X20947Y10007*
X21053*
X21100Y10054*
Y10120*
X21053Y10167*
X20947*
X20900Y10214*
Y10280*
X20947Y10327*
X21053*
X21100Y10374*
Y10550*
X22150Y11600*
X22750*
X21158Y6390D02*
X20900Y6648D01*
Y7000*
X21250D02*
Y9428D01*
X21822Y10000*
X21400Y7000D02*
Y8750D01*
X21600Y8950*
X21900*
X21950Y8900*
X22010*
X22050Y8940*
Y8997*
X21976Y9070*
Y9126*
X22033Y9183*
X22090*
X21550Y7000D02*
Y6900D01*
X21647Y6803*
Y6247*
X21400Y6000*
Y5850*
X21150Y5600*
X20367*
X20213Y5445*
X21550Y7000D02*
Y8500D01*
X21650Y8600*
X22550*
X22614Y8664*
Y8730*
X22405Y8939*
Y9005*
X22452Y9052*
X22518*
X22727Y8843*
X22793*
X22840Y8890*
Y8956*
X22631Y9165*
Y9231*
X22678Y9278*
X22744*
X22953Y9069*
X23019*
X23066Y9116*
Y9182*
X22857Y9391*
Y9457*
X22904Y9504*
X22971*
X23179Y9296*
X23246*
X23350Y9400*
Y9602*
X23303Y9649*
X23082*
X23043Y9688*
Y9750*
X21788Y4815D02*
Y4463D01*
X21900Y4350*
X22500*
X21822Y10000D02*
X21960Y10138D01*
X22090Y9183D02*
X22178Y9094D01*
X22108Y9458D02*
X22154Y9504D01*
X22221*
X22404Y9321*
X22471*
X22518Y9368*
Y9434*
X22334Y9618*
Y9684*
X22178Y9094D02*
X22244D01*
X22291Y9141*
Y9208*
X22108Y9391*
Y9458*
X22334Y9684D02*
X22381Y9731D01*
X22447*
X22631Y9547*
X22697*
X22750Y9600*
Y9750*
X22400Y11052D02*
X22449Y11101D01*
X23499*
X23639Y10961*
X23765*
X22500Y4350D02*
X22750D01*
X22850Y4250*
Y4100*
X22950Y4000*
X23300*
X23400Y4100*
Y5350*
X23550Y5500*
Y7600*
X24850Y8900*
Y9750*
X22500Y4955D02*
X22143D01*
X22103Y4995*
Y5130*
X22500Y5300D02*
X22049D01*
X21950Y5201*
Y5050*
X21855Y4955*
X21705*
X21600Y4850*
X21321*
X21158Y5013*
Y5130*
X22750Y9750D02*
Y10252D01*
X22703Y10298*
X22447*
X22400Y10345*
Y10412*
X22447Y10458*
X22803*
X22850Y10505*
Y10572*
X22803Y10618*
X22447*
X22400Y10665*
Y10732*
X22447Y10778*
X22803*
X22850Y10825*
Y10892*
X22803Y10938*
X22447*
X22400Y10985*
Y11052*
X23043Y9750D02*
Y9917D01*
X23082Y9955*
X23303*
X23350Y10002*
Y10068*
X23303Y10115*
X23082*
X23035Y10162*
Y10228*
X23082Y10275*
X23303*
X23350Y10322*
Y10388*
X23303Y10435*
X23082*
X23035Y10482*
Y10548*
X23082Y10595*
X23314*
X23343Y10623*
Y10727*
X23314Y10755*
X23082*
X23035Y10802*
Y10921*
X23075Y10961*
X23375*
X23055Y6690D02*
X22940D01*
X22900Y6650*
Y6328*
X22853Y6281*
X22797*
X22750Y6234*
Y6168*
X22797Y6121*
X22853*
X22900Y6074*
Y6008*
X22853Y5961*
X22797*
X22750Y5914*
Y5848*
X22797Y5801*
X22853*
X22900Y5754*
Y5650*
X22850Y5600*
X22500*
X23091Y11941D02*
X22750Y11600D01*
X23091Y11941D02*
X23317D01*
X23570*
X24015*
X24155Y12081*
X23095Y6730D02*
X23055Y6690D01*
X23347Y8252D02*
X23290D01*
X23250Y8212*
Y5600*
X22950Y5300*
X22500*
X23466Y11666D02*
X23461Y11661D01*
X23111*
X22900Y11450*
X22250*
X21900Y11100*
Y11028*
X21947Y10981*
X22003*
X22050Y10935*
Y10868*
X22003Y10821*
X21947*
X21900Y10775*
Y10708*
X21947Y10661*
X22003*
X22050Y10615*
Y10548*
X22003Y10501*
X21947*
X21900Y10455*
Y10388*
X21960Y10328*
Y10138*
X23466Y11666D02*
X23601Y11801D01*
X23491Y8108D02*
X23347Y8252D01*
X23601Y11801D02*
X23765D01*
X24047Y9750D02*
X24108D01*
X24155Y9703*
Y9505*
X22900Y8250*
Y8185*
X22940Y8145*
X23053*
X23100Y8098*
Y8031*
X23053Y7985*
X22947*
X22900Y7938*
Y7871*
X22947Y7825*
X23053*
X23100Y7778*
Y7711*
X23053Y7665*
X22947*
X22900Y7618*
Y7551*
X22947Y7505*
X23053*
X23100Y7458*
Y7391*
X23053Y7345*
X22947*
X22900Y7298*
Y7231*
X22947Y7185*
X23053*
X23100Y7138*
Y7071*
X23053Y7025*
X22947*
X22900Y6978*
Y6911*
X22947Y6865*
X23055*
X23095Y6825*
Y6730*
X24097Y12221D02*
X23071D01*
X22791Y11941*
X22291*
X20700Y10350*
Y10000*
X24097Y12221D02*
X24213D01*
X24155Y11241D02*
Y11054D01*
X24156Y11053*
Y10277*
X24108Y10230*
X24047*
X24000Y10183*
Y10117*
X24047Y10070*
X24108*
X24155Y10023*
Y9957*
X24108Y9910*
X24047*
X24000Y9863*
Y9797*
X24047Y9750*
X24155Y11521D02*
X24279D01*
X24400Y11400*
Y10700*
X24300Y10600*
Y9750*
X24200Y21000D02*
X22205Y19005D01*
X21880*
X21224Y18350*
X19300*
X19136Y18186*
X19134*
X24213Y12221D02*
X24229D01*
X24300Y12150*
Y11950*
X24155Y11805*
Y11801*
X24300Y9750D02*
Y8850D01*
X24236Y8786*
X24170*
X23986Y8970*
X23920*
X23873Y8923*
Y8857*
X24057Y8673*
Y8607*
X24010Y8560*
X23944*
X23760Y8744*
X23694*
X23647Y8697*
Y8631*
X23831Y8447*
Y8381*
X23784Y8334*
X23718*
X23534Y8518*
X23468*
X23421Y8471*
Y8404*
X23604Y8221*
Y8154*
X23558Y8108*
X23491*
X24370Y12380D02*
X24700Y12050D01*
Y10950*
X24432Y21000D02*
X23950Y20518D01*
Y19450*
X22539Y18039*
X22110*
X21679Y17608*
X19602*
X19414Y17796*
X24432Y21000D02*
X24757Y21325D01*
X25014*
X25340Y21651*
X25454*
X25598Y21795*
X24683Y9750D02*
X24653Y9780D01*
X24497*
X24450Y9827*
Y9893*
X24497Y9940*
X24653*
X24700Y9987*
Y10198*
X24653Y10245*
X24497*
X24450Y10292*
Y10358*
X24497Y10405*
X24653*
X24700Y10452*
Y10750*
X24550Y10900*
Y11550*
X24439Y11661*
X23707*
X23515Y11469*
Y11391*
X23375Y11251*
X24683Y9750D02*
X24700Y9733D01*
Y9667*
X24653Y9620*
X24497*
X24450Y9573*
Y9507*
X24497Y9460*
X24653*
X24700Y9413*
Y9347*
X24653Y9300*
X24497*
X24450Y9253*
Y9187*
X24497Y9140*
X24653*
X24693Y9100*
Y8993*
X23400Y7700*
Y5550*
X23250Y5400*
Y4950*
X23150Y4850*
X22950*
X22848Y4952*
Y5133*
X22801Y5180*
X22672*
X22625Y5133*
Y5002*
X22578Y4955*
X22500*
X24850Y9750D02*
Y10800D01*
X24700Y10950*
X24890Y21000D02*
X24380Y20490D01*
Y16959*
X24727Y16612*
Y15836*
X24828Y15735*
X25619*
X25746Y15862*
X24890Y21000D02*
X25450Y21560D01*
X25561*
X25738Y21737*
Y22284*
X25460Y22562*
Y24273*
X25500Y24313*
Y24790*
X25739Y25028*
Y25471*
X25823Y25556*
Y26518*
X25642Y26699*
X25101*
X24906Y12921D02*
X25044Y12782D01*
X25079*
X25081Y12781*
X25354*
X25491Y12644*
Y12637*
X25627Y12501*
X25749*
X26000Y12250*
X25011Y20199D02*
X25450Y20638D01*
X25300Y21800D02*
X25050Y21550D01*
X24750*
X24200Y21000*
X25466Y16265D02*
X25326Y16405D01*
Y17030*
X25011Y17345*
Y20199*
X25600Y21000D02*
X24880Y20280D01*
Y16963*
X25046Y16797*
Y16295*
X25466Y15875*
X25686Y12081D02*
X25936Y11831D01*
Y10736*
X25750Y10750D02*
X25826Y10826D01*
Y11660*
X25686Y11801*
X25750Y21000D02*
X25450Y20700D01*
Y20638*
X25771Y16265D02*
X25608Y16428D01*
Y17040*
X25326Y17322*
Y17611*
X25156Y17781*
Y20099*
X25562Y20506*
X25785*
X26050Y20771*
Y20950*
X26100Y21000*
X25900Y12050D02*
Y12146D01*
X25686Y12361*
X26026Y16655D02*
Y16826D01*
X26250Y17050*
X26750*
X27006Y17306*
Y17464*
X27143Y17601*
X27149*
X27363Y17815*
Y20993*
X27357Y21000*
X26026Y17406D02*
X26166Y17546D01*
Y20218*
X26575Y20627*
Y21000*
X26100D02*
X26450Y21350D01*
Y24013*
X26587Y24150*
X26995*
X27297Y24453*
Y25953*
X26750Y26500*
X26159Y11941D02*
X26325Y11775D01*
Y10838*
X26500Y10663*
Y10650*
X26213Y10666D02*
X26216Y10669D01*
Y11381*
X26076Y11521*
X26300Y21000D02*
X26247Y20947D01*
Y20766*
X25858Y20378*
X25786*
X25478Y20069*
Y18231*
X25606Y18102*
Y17735*
X25746Y17595*
Y17406*
X26306D02*
X26446Y17546D01*
Y18770*
X26331Y18884*
Y20104*
X26868Y20640*
Y21000*
X26306Y12814D02*
X26556Y12564D01*
X26446Y13655D02*
X26553Y13761D01*
X26556Y12564D02*
X26644D01*
X26728Y12480*
Y12322*
X26872Y12178*
X27222*
X27650Y11750*
Y11200*
X28000Y10850*
Y10500*
X26575Y21000D02*
Y21045D01*
X26700Y21171*
Y23900*
X26586Y13595D02*
X26836Y13344D01*
X26586Y13204D02*
X26726Y13064D01*
Y12724*
X26886Y12564*
X27236*
X27850Y11950*
Y11657*
X27938Y11569*
X28081*
X28250Y11400*
X26586Y12424D02*
Y12264D01*
X26960Y11890*
X27210*
X27500Y11600*
Y10298*
X27547Y10251*
X27603*
X27650Y10204*
Y10150*
X26586Y12814D02*
X26446Y12954D01*
Y13262*
Y13655*
X26586Y15875D02*
X26811Y16100D01*
X27250*
X27850Y16700*
Y17100*
X28250Y17500*
X26592Y16274D02*
X26702Y16385D01*
X26786*
X26910Y16509*
X27197*
X27550Y16862*
Y17558*
X28250Y18258*
X26750Y27000D02*
X26597Y26847D01*
Y26253*
X26700Y26150*
Y24900*
X26500Y24700*
Y24250*
X26350Y24100*
Y21450*
X26025Y21125*
X25875*
X25750Y21000*
X26866Y13204D02*
X27020Y13050D01*
X27602*
X28103Y12549*
Y12297*
X28250Y12150*
X26866Y13594D02*
X27010Y13450D01*
X28152*
X28250Y13352*
X26866Y16265D02*
X27006Y16405D01*
X27355*
X27700Y16750*
Y17150*
X28250Y17700*
X26868Y21000D02*
Y21102D01*
X27000Y21234*
Y23800*
X27500Y24300*
Y25013*
X27787Y25300*
X26874Y16649D02*
X26730Y16504D01*
X26624*
X26446Y16326*
Y15627*
X24993Y14174*
Y13713*
X24664Y13384*
Y13197*
X24582Y13115*
X24466*
X24240Y13341*
X24086*
X23958Y13213*
X23648*
X23553Y13118*
X22234*
X20159Y11043*
Y10000*
X27009Y12283D02*
X26868Y12424D01*
X27146Y13595D02*
X27250D01*
X28206Y13594*
X27146Y17030D02*
X27047Y16931D01*
X26383*
X26166Y16713*
Y16207*
X26059Y16101*
X25888Y15930*
Y15742*
X25756Y15610*
X24809*
X24390Y16029*
Y16605*
X24293Y16702*
X24108*
X23986Y16824*
Y17383*
X23789Y17580*
X22324*
X21919Y17175*
Y15616*
X21504Y15200*
X21411*
X21248Y15037*
Y12712*
X20064Y11529*
Y10851*
X19800Y10587*
Y10000*
X27146Y17406D02*
X27500Y17760D01*
Y21000*
X27150D02*
Y20629D01*
X26648Y20126*
Y19402*
X27001Y19049*
Y18773*
X27006Y18768*
Y18515*
X26726Y18235*
Y17290*
X26631Y17195*
X26096*
X25766Y16864*
Y16655*
X27150Y21000D02*
Y23700D01*
X27350Y23900*
X27357Y21000D02*
Y23600D01*
X27472Y27000D02*
X27331Y27141D01*
X26693*
X26470Y26918*
Y26085*
X26510Y26045*
Y24823*
X26400Y24713*
Y24263*
X26250Y24113*
Y21650*
X25600Y21000*
X27500D02*
Y23050D01*
X28200Y23750*
Y25100*
X28417Y25317*
X27591Y10091D02*
X27547D01*
X27500Y10044*
Y10000*
X27650Y10150D02*
Y10138D01*
X27603Y10091*
X27591*
X27787Y27000D02*
Y25687D01*
X27400Y25300*
Y24400*
X27050Y24050*
X26600*
X26550Y24000*
Y21250*
X26300Y21000*
X28050D02*
Y20300D01*
X28250Y20100*
X28200Y10700D02*
Y10751D01*
X28247Y10798*
X28250*
X28200Y10700D02*
Y10684D01*
X28247Y10638*
X28353*
X28400Y10591*
Y10524*
X28353Y10478*
X28247*
X28200Y10431*
Y10364*
X28247Y10318*
X28353*
X28400Y10271*
Y10204*
X28353Y10158*
X28247*
X28200Y10111*
Y10044*
X28247Y9998*
X28353*
X28400Y9951*
Y9884*
X28353Y9838*
X28247*
X28200Y9791*
Y9724*
X28247Y9678*
X28353*
X28400Y9631*
Y9564*
X28353Y9518*
X28247*
X28200Y9471*
Y9404*
X28247Y9358*
X28353*
X28400Y9311*
Y9244*
X28353Y9198*
X28247*
X28200Y9151*
Y9084*
X28247Y9038*
X28353*
X28400Y8991*
Y8924*
X28353Y8878*
X28247*
X28200Y8831*
Y8764*
X28247Y8718*
X28353*
X28400Y8671*
Y8604*
X28353Y8558*
X28247*
X28200Y8511*
Y8444*
X28247Y8398*
X28353*
X28400Y8351*
Y8284*
X28353Y8238*
X28247*
X28200Y8191*
Y8124*
X28247Y8078*
X28353*
X28400Y8031*
Y7964*
X28353Y7918*
X28247*
X28200Y7871*
Y7600*
X28473Y7327*
Y7000*
X28206Y13594D02*
X28250Y13550D01*
Y5000D02*
X27500Y5750D01*
Y7164*
X27547Y7211*
X27603*
X27650Y7258*
Y7324*
X27603Y7371*
X27547*
X27500Y7418*
Y7484*
X27547Y7531*
X27603*
X27650Y7578*
Y7644*
X27603Y7691*
X27547*
X27500Y7738*
Y7804*
X27547Y7851*
X27603*
X27650Y7898*
Y7964*
X27603Y8011*
X27547*
X27500Y8058*
Y8124*
X27547Y8171*
X27603*
X27650Y8218*
Y8284*
X27603Y8331*
X27547*
X27500Y8378*
Y8444*
X27547Y8491*
X27603*
X27650Y8538*
Y8604*
X27603Y8651*
X27547*
X27500Y8698*
Y8764*
X27547Y8811*
X27603*
X27650Y8858*
Y8924*
X27603Y8971*
X27547*
X27500Y9018*
Y9084*
X27547Y9131*
X27603*
X27650Y9178*
Y9244*
X27603Y9291*
X27547*
X27500Y9338*
Y9404*
X27547Y9451*
X27603*
X27650Y9498*
Y9564*
X27603Y9611*
X27547*
X27500Y9658*
Y9724*
X27547Y9771*
X27603*
X27650Y9818*
Y9884*
X27603Y9931*
X27547*
X27500Y9978*
Y10000*
X28250Y5642D02*
X28000Y5892D01*
Y6553*
X27953Y6600*
X27848*
X27800Y6648*
Y6713*
X27847Y6760*
X27953*
X28000Y6807*
Y6873*
X27953Y6920*
X27847*
X27800Y6967*
Y7033*
X27847Y7080*
X27953*
X28000Y7127*
Y7193*
X27953Y7240*
X27847*
X27800Y7287*
Y7353*
X27847Y7400*
X27953*
X28000Y7447*
Y7513*
X27953Y7560*
X27847*
X27800Y7607*
Y7673*
X27847Y7720*
X27953*
X28000Y7767*
Y7833*
X27953Y7880*
X27847*
X27800Y7927*
Y7993*
X27847Y8040*
X27953*
X28000Y8087*
Y8153*
X27953Y8200*
X27847*
X27800Y8247*
Y8313*
X27847Y8360*
X27953*
X28000Y8407*
Y8473*
X27953Y8520*
X27847*
X27800Y8567*
Y8633*
X27847Y8680*
X27953*
X28000Y8727*
Y8793*
X27953Y8840*
X27847*
X27800Y8887*
Y8953*
X27847Y9000*
X27953*
X28000Y9047*
Y9113*
X27953Y9160*
X27847*
X27800Y9207*
Y9273*
X27847Y9320*
X27953*
X28000Y9367*
Y9433*
X27953Y9480*
X27847*
X27800Y9527*
Y9593*
X27847Y9640*
X27953*
X28000Y9687*
Y9753*
X27953Y9800*
X27847*
X27800Y9847*
Y9913*
X27847Y9960*
X27953*
X28000Y10007*
Y10073*
X27953Y10120*
X27847*
X27800Y10167*
Y10233*
X27847Y10280*
X27953*
X28000Y10327*
Y10500*
X28250Y10798D02*
X28353D01*
X28400Y10844*
Y10950*
X28250Y11100*
X28102Y11248*
X27902*
X27750Y11400*
Y11850*
X27317Y12283*
X27009*
X28250Y11400D02*
X28700Y10950D01*
Y10864*
X28653Y10817*
X28593*
X28565Y10789*
Y10685*
X28593Y10657*
X28653*
X28700Y10610*
Y10544*
X28653Y10497*
X28597*
X28550Y10450*
Y10384*
X28597Y10337*
X28653*
X28700Y10290*
Y10224*
X28653Y10177*
X28597*
X28550Y10130*
Y10064*
X28597Y10017*
X28653*
X28700Y9970*
Y9904*
X28653Y9857*
X28597*
X28550Y9810*
Y9744*
X28597Y9697*
X28653*
X28700Y9650*
Y9584*
X28653Y9537*
X28597*
X28550Y9490*
Y9424*
X28597Y9377*
X28653*
X28700Y9330*
Y9264*
X28653Y9217*
X28597*
X28550Y9170*
Y9104*
X28597Y9057*
X28653*
X28700Y9010*
Y8944*
X28653Y8897*
X28597*
X28550Y8850*
Y8784*
X28597Y8737*
X28653*
X28700Y8690*
Y8624*
X28653Y8577*
X28597*
X28550Y8530*
Y8464*
X28597Y8417*
X28653*
X28700Y8370*
Y8304*
X28653Y8257*
X28597*
X28550Y8210*
Y8144*
X28597Y8097*
X28653*
X28700Y8050*
Y7984*
X28653Y7937*
X28616*
X28588Y7909*
Y7805*
X28616Y7777*
X28653*
X28700Y7730*
Y7664*
X28653Y7617*
X28597*
X28550Y7570*
Y7504*
X29054Y7000*
X28250Y12451D02*
X28209Y12491D01*
Y12691*
X27556Y13344*
X26836*
X28250Y13352D02*
X30250Y11352D01*
Y11172*
X30203Y11125*
X30097*
X30050Y11078*
Y11012*
X30097Y10965*
X30203*
X30250Y10918*
Y10852*
X30203Y10805*
X30097*
X30050Y10758*
Y10692*
X30097Y10645*
X30203*
X30250Y10598*
Y10532*
X30203Y10485*
X30097*
X30050Y10438*
Y10372*
X30097Y10325*
X30203*
X30250Y10278*
Y10212*
X30203Y10165*
X30097*
X30050Y10118*
Y10052*
X30097Y10005*
X30203*
X30250Y9958*
Y9892*
X30203Y9845*
X30097*
X30050Y9798*
Y9732*
X30097Y9685*
X30203*
X30250Y9638*
Y9572*
X30203Y9525*
X30097*
X30050Y9478*
Y9412*
X30097Y9365*
X30203*
X30250Y9318*
Y9252*
X30203Y9205*
X30097*
X30050Y9158*
Y9092*
X30097Y9045*
X30203*
X30250Y8998*
Y8932*
X30203Y8885*
X30097*
X30050Y8838*
Y8772*
X30097Y8725*
X30210*
X30250Y8685*
Y7000*
X28250Y13550D02*
X30500Y11300D01*
Y11185*
X30400Y11085*
Y10925*
X30500Y10825*
Y10665*
X30400Y10565*
Y10405*
X30500Y10305*
Y10145*
X30400Y10045*
Y9885*
X30500Y9785*
Y9625*
X30400Y9525*
Y9365*
X30500Y9265*
Y9105*
X30400Y9005*
Y8845*
X30500Y8745*
Y8585*
X30400Y8485*
Y8325*
X30500Y8225*
Y8065*
X30400Y7965*
Y7805*
X30500Y7705*
Y7545*
X30400Y7445*
Y7285*
X30500Y7185*
Y7000*
X28250Y13761D02*
X26553D01*
X28250D02*
X28261D01*
X30700Y11321*
Y7000*
X28250Y17300D02*
X28150Y17200D01*
Y16650*
X27200Y15700*
X27041*
X26866Y15875*
X28250Y17700D02*
X28427Y17877D01*
Y18365*
X28532Y18469*
X28669*
X28740Y18540*
Y22407*
X28875Y22542*
X28944*
X29030Y22628*
Y22812*
X28890Y22952*
X28250Y20100D02*
X28300Y20050D01*
Y18600*
X28333Y6075D02*
X28473Y6216D01*
Y7000*
X28400Y26500D02*
X28600Y26300D01*
Y25200*
X28350Y24950*
Y23500*
X28050Y23200*
Y21000*
X28600Y16350D02*
X27150Y14900D01*
X26700*
X25610Y13810*
Y13510*
X25346Y13246*
Y13166*
X25242Y13062*
X24850*
X24568Y12781*
X23823*
X23707*
X23570Y12644*
Y12638*
X23433Y12501*
X22457*
X20353Y10396*
Y10000*
X28600Y16350D02*
Y17030D01*
X28629Y17400D02*
X28450Y17221D01*
Y16400*
X28400Y16350*
X28863Y17364D02*
X29400Y17901D01*
Y22650*
X29650Y22900*
Y23100*
X29500Y23250*
Y24550*
X28750Y25300*
X28890Y22686D02*
X28637D01*
X28446Y22495*
Y18543*
X28320Y18417*
Y18328*
X28250Y18258*
X28929Y22398D02*
X29100Y22227D01*
Y18448*
X28760Y18108*
Y18010*
X28250Y17500*
X28963Y5445D02*
X28808Y5600D01*
X28292*
X28250Y5642*
X29500Y23000D02*
X29250Y22750D01*
Y18050*
X29000Y17800*
X28750*
X28250Y17300*
X29593Y6233D02*
Y6541D01*
X29639Y6588*
X29703*
X29750Y6635*
Y6701*
X29703Y6748*
X29639*
X29593Y6795*
Y6861*
X29639Y6908*
X29703*
X29750Y6955*
Y7000*
Y7021*
X29703Y7068*
X29639*
X29593Y7115*
Y7181*
X29639Y7228*
X29703*
X29750Y7275*
Y7341*
X29703Y7388*
X29639*
X29593Y7435*
Y7501*
X29639Y7548*
X29703*
X29750Y7595*
Y7661*
X29703Y7708*
X29639*
X29593Y7755*
Y7821*
X29639Y7868*
X29703*
X29750Y7915*
Y7981*
X29703Y8028*
X29639*
X29593Y8075*
Y8141*
X29639Y8188*
X29703*
X29750Y8235*
Y8301*
X29703Y8348*
X29639*
X29593Y8395*
Y8461*
X29639Y8508*
X29703*
X29750Y8555*
Y8621*
X29703Y8668*
X29639*
X29593Y8715*
Y8781*
X29639Y8828*
X29703*
X29750Y8875*
Y8941*
X29703Y8988*
X29639*
X29593Y9035*
Y9101*
X29639Y9148*
X29703*
X29750Y9195*
Y9261*
X29703Y9308*
X29639*
X29593Y9355*
Y9421*
X29639Y9468*
X29703*
X29750Y9515*
Y9581*
X29703Y9628*
X29639*
X29593Y9675*
Y9741*
X29639Y9788*
X29703*
X29750Y9835*
Y9901*
X29703Y9948*
X29639*
X29593Y9995*
Y10061*
X29639Y10108*
X29703*
X29750Y10155*
Y10221*
X29703Y10268*
X29639*
X29593Y10315*
Y10381*
X29639Y10428*
X29703*
X29750Y10475*
Y10541*
X29703Y10588*
X29639*
X29593Y10635*
Y10701*
X29639Y10748*
X29703*
X29750Y10795*
Y10861*
X29703Y10908*
X29639*
X29593Y10955*
Y11021*
X29639Y11068*
X29703*
X29750Y11115*
Y11300*
X29410Y11640*
X28760*
X28250Y12150*
X29900Y7000D02*
Y6970D01*
X29947Y6923*
X30053*
X30100Y6876*
Y6700*
X29750Y6350*
Y6075*
X29593Y5918*
X29900Y7000D02*
Y7036D01*
X29947Y7083*
X30053*
X30100Y7130*
Y7196*
X30053Y7243*
X29947*
X29900Y7290*
Y7356*
X29947Y7403*
X30053*
X30100Y7450*
Y7516*
X30053Y7563*
X29947*
X29900Y7610*
Y7676*
X29947Y7723*
X30053*
X30100Y7770*
Y7836*
X30053Y7883*
X29947*
X29900Y7930*
Y7996*
X29947Y8043*
X30053*
X30100Y8090*
Y8156*
X30053Y8203*
X29947*
X29900Y8250*
Y8316*
X29947Y8363*
X30053*
X30100Y8410*
Y8476*
X30063Y8513*
X29940*
X29900Y8553*
Y11450*
X29350Y12000*
X29100*
X28990Y12110*
Y12310*
X28890Y12410*
X28291*
X28250Y12451*
X29908Y5130D02*
X29763Y5274D01*
X29166*
X29138Y5302*
Y6916*
X29054Y7000*
X30100Y18450D02*
Y20200D01*
X29950Y20350*
Y23100*
X29850Y23200*
X29750*
X29650Y23300*
Y24697*
X29047Y25300*
X30200Y22200D02*
X30050Y22050D01*
Y20500*
X30250Y20300*
Y13100*
X31200Y12150*
Y9000*
X31700Y8500*
X30250Y7000D02*
Y6575D01*
X29908Y6233*
X30500Y7000D02*
X30396Y6896D01*
Y6096*
X30218Y5918*
X29908*
X30538Y4815D02*
X30395Y4957D01*
X28293*
X28250Y5000*
X30550Y16050D02*
X30400Y16200D01*
Y22300*
X30050Y22650*
Y23650*
X29800Y23900*
X30550Y22200D02*
X30700Y22050D01*
X30550Y22500D02*
X30200Y22850D01*
Y24462*
X29362Y25300*
X30700Y7000D02*
Y5283D01*
X30853Y5130*
X30700Y22050D02*
Y21781D01*
X30751Y21730*
Y21095*
X30704Y21047*
Y15954*
X30600Y15850*
X30500*
X30400Y15750*
Y13200*
X31350Y12250*
Y9350*
X31700Y9000*
X30700Y22050D02*
X30900Y21800*
Y20867D01*
X30853Y20820*
Y15703*
X30978Y15579*
Y12872*
X31500Y12350*
Y10200*
X33650Y8050*
X34550*
X36322Y6278*
X37477*
X37738Y6539*
X30900Y22200D02*
X31150Y21950D01*
Y17907*
X31650Y17407*
Y10300*
X33700Y8250*
X34650*
X36370Y6530*
X37359*
X32700Y11650D02*
X33389D01*
X33581Y11842*
X33898*
X34062Y11678*
Y11409*
X35258Y10212*
X37164*
G54D16*
X19974Y14735D02*
X19875Y14636D01*
X19834Y14595*
Y14240*
X19722Y14128*
G54D17*
X24370Y12380D02*
X24249Y12501D01*
X23905*
X23765Y12361*
X26159Y11941D02*
X26134D01*
X26009*
X25900Y12050*
G54D18*
X25050Y3600D02*
X25070D01*
X25393Y3923*
Y5693*
X25600Y5900*
X26135*
X26400Y6165*
Y6350*
X26350Y6400*
X26250*
X26200Y6450*
Y6553*
X25050Y4000D02*
X24950D01*
X24850Y3900*
Y2662*
X24788Y2600*
X24515*
X24461Y2654*
Y2946*
X24406Y3000*
X24229*
X24175Y2946*
Y2662*
X24113Y2600*
X23812*
X23750Y2662*
Y7500*
X25100Y8850*
Y9750*
X25050Y5200D02*
Y6115D01*
X25185Y6250*
X25381*
X25100Y9750D02*
Y11868D01*
X24906Y12062*
X25381Y6250D02*
X25438Y6307D01*
X25381Y6445D02*
X24757D01*
X24700Y6502*
Y6583*
X24757Y6640*
X25381*
X25438Y6697*
X25381Y6835D02*
X24757D01*
X24700Y6892*
Y6973*
X24757Y7030*
X25381*
X25438Y7087*
X25381Y7225D02*
X24757D01*
X24700Y7282*
Y7363*
X24757Y7420*
X25381*
X25438Y7477*
X25381Y7615D02*
X25007D01*
X24950Y7672*
Y7750*
X25000Y7800*
X25100*
X25750Y8450*
Y9750*
X25438Y6307D02*
Y6388D01*
X25381Y6445*
X25438Y6697D02*
Y6778D01*
X25381Y6835*
X25438Y7087D02*
Y7168D01*
X25381Y7225*
X25438Y7477D02*
Y7558D01*
X25381Y7615*
X25595Y6416D02*
Y6350D01*
X25600*
X25650Y6300*
X26000*
X26050Y6250*
Y6150*
X25975Y6075*
X25525*
X25248Y5798*
Y4598*
X25050Y4400*
X25595Y6806D02*
Y6725D01*
X25652Y6668*
X25993*
X26050Y6611*
Y6530*
X25595Y7196D02*
Y7115D01*
X25652Y7058*
X25993*
X26050Y7001*
Y6920*
X25595Y7586D02*
Y7505D01*
X25652Y7448*
X25993*
X26050Y7391*
Y7310*
X25652Y6473D02*
X25595Y6416D01*
X25652Y6863D02*
X25595Y6806D01*
X25652Y7253D02*
X25595Y7196D01*
X25652Y7643D02*
X25595Y7586D01*
X25695Y7976D02*
Y7895D01*
X25752Y7838*
X25993*
X26050Y7781*
Y7700*
X25700Y3600D02*
X25538Y3763D01*
Y5587*
X25700Y5750*
X26250*
X26600Y6100*
Y6650*
X26850Y6900*
Y7755*
X26793Y7812*
X26607*
X25700Y4800D02*
Y4615D01*
X25765Y4550*
X25902*
X25967Y4615*
Y4993*
X25700Y5500D02*
Y5350D01*
X25798Y5253*
X25910*
X25967Y5310*
Y5443*
X25750Y9750D02*
Y10750D01*
X25752Y8033D02*
X25695Y7976D01*
X25895Y8466D02*
Y8385D01*
X25952Y8328*
X25993*
X26050Y8271*
Y8090*
X25895Y8856D02*
Y8775D01*
X25952Y8718*
X25993*
X26050Y8661*
Y8580*
X25895Y9246D02*
Y9165D01*
X25952Y9108*
X25993*
X26050Y9051*
Y8970*
X25895Y9636D02*
Y9555D01*
X25952Y9498*
X25993*
X26050Y9441*
Y9360*
X25936Y10736D02*
X25895Y10695D01*
Y9986*
X26050Y9831*
Y9750*
X25952Y8523D02*
X25895Y8466D01*
X25952Y8913D02*
X25895Y8856D01*
X25952Y9303D02*
X25895Y9246D01*
X25952Y9693D02*
X25895Y9636D01*
X25967Y4993D02*
X26024Y5050D01*
X25967Y5443D02*
X26024Y5500D01*
X25993Y6473D02*
X25652D01*
X25993Y6863D02*
X25652D01*
X25993Y7253D02*
X25652D01*
X25993Y7643D02*
X25652D01*
X25993Y8033D02*
X25752D01*
X25993Y8523D02*
X25952D01*
X25993Y8913D02*
X25952D01*
X25993Y9303D02*
X25952D01*
X25993Y9693D02*
X25952D01*
X26000Y12250D02*
X26250D01*
X26624Y11876*
Y10976*
X26845Y10755*
Y10005*
X27000Y9850*
Y9750*
X26024Y5050D02*
X26105D01*
X26162Y4993*
Y4607*
X26024Y5500D02*
X26105D01*
X26162Y5443*
Y5310*
X26050Y6530D02*
X25993Y6473D01*
X26050Y6920D02*
X25993Y6863D01*
X26050Y7310D02*
X25993Y7253D01*
X26050Y7700D02*
X25993Y7643D01*
X26050Y8090D02*
X25993Y8033D01*
X26050Y8580D02*
X25993Y8523D01*
X26050Y8970D02*
X25993Y8913D01*
X26050Y9360D02*
X25993Y9303D01*
X26050Y9750D02*
X25993Y9693D01*
X26050Y9750D02*
X26162Y4607*
X26219Y4550D01*
X26162Y5310D02*
X26219Y5253D01*
X26200Y6553D02*
X26257Y6610D01*
X26200Y6943D02*
X26257Y7000D01*
X26200Y7333D02*
X26257Y7390D01*
X26200Y7723D02*
X26257Y7780D01*
X26200Y8113D02*
X26257Y8170D01*
X26200Y8503D02*
X26257Y8560D01*
X26200Y8893D02*
X26257Y8950D01*
X26200Y9283D02*
X26257Y9340D01*
X26200Y9673D02*
X26257Y9730D01*
X26213Y10666D02*
Y9969D01*
X26257Y9925*
X26343*
X26219Y4550D02*
X26300D01*
X26357Y4607*
Y4993*
X26219Y5253D02*
X26300D01*
X26357Y5310*
Y5443*
X26257Y6610D02*
X26343D01*
X26400Y6667*
Y6748*
X26257Y7000D02*
X26643D01*
X26700Y7057*
Y7138*
X26257Y7390D02*
X26643D01*
X26700Y7447*
Y7528*
X26257Y7780D02*
X26343D01*
X26400Y7837*
Y7918*
X26257Y8170D02*
X26343D01*
X26400Y8227*
Y8308*
X26257Y8560D02*
X26343D01*
X26400Y8617*
Y8698*
X26257Y8950D02*
X26343D01*
X26400Y9007*
Y9088*
X26257Y9340D02*
X26343D01*
X26400Y9397*
Y9478*
X26257Y9730D02*
X26343D01*
X26363Y9750*
X26343Y6805D02*
X26257D01*
X26200Y6862*
Y6943*
X26343Y7975D02*
X26257D01*
X26200Y8032*
Y8113*
X26343Y8365D02*
X26257D01*
X26200Y8422*
Y8503*
X26343Y8755D02*
X26257D01*
X26200Y8812*
Y8893*
X26343Y9145D02*
X26257D01*
X26200Y9202*
Y9283*
X26343Y9535D02*
X26257D01*
X26200Y9592*
Y9673*
X26357Y4993D02*
X26414Y5050D01*
X26357Y5443D02*
X26414Y5500D01*
X26363Y9750D02*
X26400Y9787D01*
Y9868*
Y6748D02*
X26343Y6805D01*
X26400Y7918D02*
X26343Y7975D01*
X26400Y8308D02*
X26343Y8365D01*
X26400Y8698D02*
X26343Y8755D01*
X26400Y9088D02*
X26343Y9145D01*
X26400Y9478D02*
X26343Y9535D01*
X26400Y9868D02*
X26343Y9925D01*
X26414Y5500D02*
X26495D01*
X26552Y5443*
Y5307*
X26550Y7869D02*
Y7950D01*
X26607Y8007*
X26793*
X26550Y8259D02*
Y8340D01*
X26607Y8397*
X26793*
X26550Y8649D02*
Y8730D01*
X26607Y8787*
X26793*
X26550Y9039D02*
Y9120D01*
X26607Y9177*
X26793*
X26550Y9429D02*
Y9510D01*
X26607Y9567*
X26788*
X26552Y5307D02*
X26609Y5250D01*
X26607Y7812D02*
X26550Y7869D01*
X26607Y8202D02*
X26550Y8259D01*
X26607Y8592D02*
X26550Y8649D01*
X26607Y8982D02*
X26550Y9039D01*
X26607Y9372D02*
X26550Y9429D01*
X26643Y7195D02*
X26257D01*
X26200Y7252*
Y7333*
X26643Y7585D02*
X26257D01*
X26200Y7642*
Y7723*
X26700Y7138D02*
X26643Y7195D01*
X26700Y7528D02*
X26643Y7585D01*
X26788Y9567D02*
X26845Y9624D01*
X26793Y8007D02*
X26850Y8064D01*
X26793Y8397D02*
X26850Y8454D01*
X26793Y8787D02*
X26850Y8844D01*
X26793Y9177D02*
X26850Y9234D01*
X26800Y9750D02*
X26500Y10050D01*
Y10650*
X26845Y9624D02*
Y9705D01*
X26800Y9750*
X26850Y8064D02*
Y8145D01*
X26793Y8202*
X26607*
X26850Y8454D02*
Y8535D01*
X26793Y8592*
X26607*
X26850Y8844D02*
Y8925D01*
X26793Y8982*
X26607*
X26850Y9234D02*
Y9315D01*
X26793Y9372*
X26607*
X27000Y9750D02*
Y5500D01*
X26750Y5250*
X26609*
X27152Y9750D02*
Y4527D01*
X27085Y4460*
X27000*
X26950Y4510*
Y4800*
X26900Y4850*
X26800*
X26750Y4800*
Y4650*
X26700Y4600*
X26614*
X26552Y4662*
Y4993*
X26495Y5050*
X26414*
X27250Y11484D02*
X27363Y11371D01*
Y10863*
X27152Y10652*
Y9750*
X27250Y11484D02*
X27012Y11723D01*
G54D19*
X11800Y5500D02*
X11300Y5000D01*
X9200*
X8950Y4750*
Y3950*
X7900Y2900*
X6950*
X6500Y2450*
X11800Y5750D02*
Y5500D01*
X14883Y17550D02*
X14600Y17267D01*
Y16250*
X15555Y15295*
Y10105*
X13500Y8050*
Y6700*
X12550Y5750*
X11800*
X14883Y17550D02*
Y20859D01*
X15470Y21447*
Y24168*
X15029Y24609*
Y26068*
X14950Y16800D02*
X15195D01*
X15750Y17355*
Y19800*
X16100Y20150*
X14950Y16800D02*
Y16550D01*
X15200Y17550D02*
X14883D01*
X16100Y20150D02*
X15824Y20426D01*
Y22124*
X16100Y22400*
Y22700*
G54D20*
X33417Y15606D03*
Y16394D03*
X34677Y15606D03*
Y16394D03*
G54D21*
X4850Y5000D03*
G54D70*
X13725Y15600D02*
X13770Y15645D01*
Y19870*
X13960Y20060*
X14220*
X14300Y20140*
Y20750*
X13930Y19804D02*
X14026Y19900D01*
X13975Y15600D02*
X13930Y15645D01*
Y19804*
X14026Y19900D02*
X14240D01*
X14320Y19820*
Y19570*
X14300Y19550*
G54D71*
X7100Y19050D02*
X7043Y18993D01*
X8200Y3650D02*
X8143Y3707D01*
X8550Y12900D02*
X8607Y12843D01*
X8700Y5400D02*
Y5480D01*
X9340Y4050D02*
X9420D01*
X9498Y3800D02*
Y3720D01*
X9655Y4050D02*
X9735D01*
X10645Y3800D02*
Y3720D01*
X10803Y4050D02*
X10859Y4107D01*
X10960Y3800D02*
X11040D01*
X11950Y4050D02*
X12007Y4107D01*
X12108Y3800D02*
X12164Y3743D01*
X12265Y4050D02*
X12345D01*
X13725Y15600D02*
X13770Y15645D01*
Y15668*
X13830Y4009D02*
X13887Y4066D01*
X13975Y15600D02*
X13930Y15645D01*
Y15668*
X14090Y4000D02*
Y4080D01*
X14300Y19550D02*
X14320Y19570D01*
Y19630*
X14300Y20750D02*
Y20670D01*
X15765Y3350D02*
X15845D01*
X16158Y4042D02*
X16214Y4099D01*
X16315Y3800D02*
X16372Y3857D01*
X16500Y6450D02*
X16443Y6393D01*
X16800Y6150D02*
Y6070D01*
Y6450D02*
X16857Y6393D01*
X17162Y3771D02*
X17218Y3714D01*
X17330Y3899D02*
X17386Y3843D01*
X17700Y6150D02*
X17643Y6207D01*
X17700Y6550D02*
Y6630D01*
Y7600D02*
X17757Y7657D01*
X17700Y7850D02*
X17757Y7907D01*
X17700Y19550D02*
X17643Y19607D01*
X17950Y12900D02*
X18007Y12843D01*
X17950Y13150D02*
X18007Y13093D01*
X17950Y14850D02*
X17893Y14907D01*
X17950Y15100D02*
X18007Y15157D01*
X18854Y15125D02*
X18798Y15068D01*
X19134Y15125D02*
X19078Y15068D01*
X19134Y18186D02*
X19136D01*
X19191Y18241*
X19200Y19850D02*
X19257Y19907D01*
X19414Y17796D02*
X19471Y17739D01*
X19583Y6075D02*
X19639Y6019D01*
X19694Y14735D02*
X19638Y14678D01*
X19694Y15125D02*
X19638Y15181D01*
X19974Y14345D02*
Y14265D01*
Y14735D02*
X19918Y14678D01*
X20213Y5445D02*
X20269Y5502D01*
X20213Y5760D02*
X20223Y5750D01*
X20293*
X20534Y14345D02*
Y14265D01*
X20814Y14345D02*
Y14265D01*
X20843Y5445D02*
X20899Y5389D01*
X20843Y6075D02*
X20786Y6132D01*
X21094Y14345D02*
Y14265D01*
Y19759D02*
X21038Y19816D01*
X21094Y20039D02*
X21059Y20075D01*
Y20117*
X21094Y19199D02*
X21140Y19153D01*
X21162*
X21094Y19479D02*
X21151Y19536D01*
X21158Y5130D02*
Y5050D01*
Y6390D02*
X21101Y6447D01*
X21473Y5130D02*
Y5210D01*
X21788Y4815D02*
Y4735D01*
X22100Y24400D02*
X22043Y24343D01*
X22100Y24650D02*
X22157Y24593D01*
X22103Y5130D02*
Y5050D01*
X23050Y2800D02*
X23107Y2743D01*
X23375Y10961D02*
X23295D01*
X23375Y11251D02*
X23432Y11307D01*
X23765Y10961D02*
X23685D01*
X23765Y11801D02*
X23685D01*
X23765Y12361D02*
X23822Y12417D01*
X24155Y11241D02*
Y11161D01*
Y11521D02*
X24235D01*
X24155Y11801D02*
Y11805D01*
X24210Y11860*
X24450Y5500D02*
X24410Y5460D01*
Y5427*
X24638Y25300D02*
Y25220D01*
Y27000D02*
Y26920D01*
X24750Y5500D02*
Y5420D01*
X24906Y12062D02*
X24962Y12006D01*
X24906Y12921D02*
X24962Y12864D01*
X24906Y16655D02*
X24901D01*
X24847Y16709*
X24953Y25300D02*
Y25347D01*
X24920Y25380*
X24953Y27000D02*
X24896Y27057D01*
X25050Y3600D02*
X25070D01*
X25117Y3647*
X25050Y4000D02*
X24970D01*
X25050Y4400D02*
X25107Y4457D01*
X25050Y5200D02*
Y5280D01*
X25300Y21800D02*
X25243Y21743D01*
X25466Y15875D02*
X25409Y15932D01*
X25598Y21795D02*
X25542Y21739D01*
X25686Y11801D02*
X25742Y11744D01*
X25686Y12081D02*
X25742Y12024D01*
X25686Y12361D02*
X25742Y12304D01*
X25686Y11241D02*
X25606D01*
X25700Y3600D02*
X25643Y3657D01*
X25700Y4800D02*
Y4720D01*
Y5500D02*
Y5420D01*
X25746Y15862D02*
X25689Y15806D01*
X25771Y16265D02*
X25714Y16322D01*
X25850Y27000D02*
X25793Y27057D01*
X26026Y16655D02*
Y16735D01*
Y17406D02*
X26082Y17462D01*
X26076Y11521D02*
X26132Y11464D01*
X26100Y27000D02*
X26157Y26943D01*
X26306Y12814D02*
X26362Y12758D01*
X26586Y13595D02*
X26642Y13538D01*
X26586Y13204D02*
X26642Y13148D01*
X26586Y12424D02*
Y12344D01*
Y12814D02*
X26529Y12871D01*
X26592Y16274D02*
X26648Y16331D01*
X26700Y23900D02*
Y23820D01*
X26750Y26500D02*
X26807Y26443D01*
X26750Y27000D02*
X26693Y26943D01*
X26866Y15875D02*
X26922Y15819D01*
X26866Y13204D02*
X26922Y13148D01*
X26866Y13594D02*
X26922Y13538D01*
X26866Y16265D02*
X26922Y16322D01*
X26866Y12814D02*
X26922Y12758D01*
X26868Y12424D02*
X26924Y12368D01*
X26874Y16649D02*
X26818Y16592D01*
X27012Y11723D02*
X27068Y11666D01*
X27146Y17030D02*
X27089Y16973D01*
X27350Y23900D02*
X27293Y23843D01*
X27357Y23600D02*
Y23520D01*
X27472Y27000D02*
X27416Y27057D01*
X27787Y25300D02*
X27731Y25243D01*
X27787Y27000D02*
Y26920D01*
X28300Y18600D02*
Y18680D01*
X28333Y6075D02*
X28389Y6132D01*
X28400Y26500D02*
X28457Y26443D01*
X28417Y25317D02*
X28361Y25261D01*
X28600Y17030D02*
Y16950D01*
X28629Y17400D02*
X28573Y17343D01*
X28750Y25300D02*
X28807Y25243D01*
X28863Y17364D02*
X28919Y17420D01*
X28890Y22686D02*
X28810D01*
X28890Y22952D02*
X28947Y22896D01*
X28929Y22398D02*
X28986Y22341D01*
X28963Y5445D02*
X28906Y5502D01*
X29047Y25300D02*
X29104Y25243D01*
X29362Y25300D02*
X29419Y25243D01*
X29362Y27000D02*
X29306Y27057D01*
X29500Y23000D02*
X29443Y22943D01*
X29593Y5918D02*
X29649Y5974D01*
X29593Y6233D02*
Y6313D01*
X29800Y23900D02*
X29857Y23843D01*
X29908Y5130D02*
X29851Y5187D01*
X29908Y5918D02*
X29988D01*
X29908Y6233D02*
X29964Y6289D01*
X30100Y18450D02*
Y18530D01*
X30200Y22200D02*
X30143Y22143D01*
X30223Y5130D02*
X30166Y5187D01*
X30223Y5445D02*
X30303D01*
X30538Y4815D02*
X30481Y4872D01*
X30550Y16050D02*
X30493Y16107D01*
X30550Y22200D02*
X30607Y22143D01*
X30550Y22500D02*
X30493Y22557D01*
X30853Y5130D02*
X30796Y5187D01*
X30900Y21800D02*
Y21720D01*
Y22200D02*
X30957Y22143D01*
X31700Y8500D02*
X31643Y8557D01*
X31700Y9000D02*
X31643Y9057D01*
X32200Y13900D02*
X32257Y13843D01*
X32350Y14100D02*
X32407Y14043D01*
X32700Y11650D02*
X32780D01*
X37164Y10212D02*
X37084D01*
M02*
