*
G04 Job   : C:\ADI_Projects\Minnowboard\Turbot_F200_X200\PCB\Turbot_F200_X200.pcb*
G04 User  : LEN-ADI-PC:Len*
G04 Layer : 80101_0125_F200_SoldermaskBottom.gdo*
G04 Date  : Tue Aug 04 10:36:44 2015*
G04 Mentor Graphics Example Gerber Output Definition*
%ICAS*%
%MOIN*%
%FSLAX24Y24*%
%OFA0.0000B0.0000*%
G90*
G74*
%AMVB_RECTANGLE*
21,1,$1,$2,0,0,$3*
%
%ADD57C,0.01800*%
%ADD29C,0.03600*%
%ADD52C,0.04500*%
%ADD19C,0.05600*%
%ADD10C,0.06000*%
%ADD16C,0.06400*%
%ADD51C,0.06500*%
%ADD37C,0.06600*%
%ADD74C,0.08500*%
%ADD18C,0.11600*%
%ADD69C,0.15000*%
%ADD11C,0.15200*%
%ADD13C,0.25600*%
%ADD46O,0.01200X0.03000*%
%ADD45O,0.03000X0.01200*%
%ADD56O,0.01200X0.03200*%
%ADD55O,0.03200X0.01200*%
%ADD71O,0.06600X0.09600*%
%ADD30O,0.11000X0.07500*%
%ADD58O,0.15400X0.07400*%
%ADD59O,0.07400X0.15400*%
%ADD60O,0.07400X0.18400*%
%ADD23VB_RECTANGLE,0.02600X0.02600X180.00000*%
%ADD40VB_RECTANGLE,0.04400X0.04400X0.00000*%
%ADD15VB_RECTANGLE,0.06400X0.06400X270.00000*%
%ADD61VB_RECTANGLE,0.06600X0.06600X0.00000*%
%ADD48VB_RECTANGLE,0.11200X0.11200X90.00000*%
%ADD38VB_RECTANGLE,0.01181X0.01772X180.00000*%
%ADD64VB_RECTANGLE,0.01181X0.02284X180.00000*%
%ADD62VB_RECTANGLE,0.01187X0.03057X0.00000*%
%ADD65VB_RECTANGLE,0.01378X0.02480X90.00000*%
%ADD50VB_RECTANGLE,0.01600X0.03600X0.00000*%
%ADD49VB_RECTANGLE,0.01600X0.03600X90.00000*%
%ADD73VB_RECTANGLE,0.01800X0.06600X180.00000*%
%ADD32VB_RECTANGLE,0.01800X0.06600X270.00000*%
%ADD39VB_RECTANGLE,0.01969X0.03150X180.00000*%
%ADD31VB_RECTANGLE,0.01969X0.03346X0.00000*%
%ADD20VB_RECTANGLE,0.01969X0.03346X90.00000*%
%ADD63VB_RECTANGLE,0.01975X0.06502X0.00000*%
%ADD66VB_RECTANGLE,0.02000X0.07700X270.00000*%
%ADD25VB_RECTANGLE,0.02568X0.03848X270.00000*%
%ADD53VB_RECTANGLE,0.02600X0.08600X180.00000*%
%ADD14VB_RECTANGLE,0.02756X0.02559X0.00000*%
%ADD12VB_RECTANGLE,0.02756X0.02559X90.00000*%
%ADD42VB_RECTANGLE,0.02959X0.02880X180.00000*%
%ADD43VB_RECTANGLE,0.02959X0.03707X180.00000*%
%ADD28VB_RECTANGLE,0.03000X0.07400X180.00000*%
%ADD27VB_RECTANGLE,0.03000X0.07400X270.00000*%
%ADD68VB_RECTANGLE,0.04000X0.06000X90.00000*%
%ADD26VB_RECTANGLE,0.04100X0.03800X0.00000*%
%ADD17VB_RECTANGLE,0.04100X0.03800X270.00000*%
%ADD47VB_RECTANGLE,0.04416X0.10400X0.00000*%
%ADD35VB_RECTANGLE,0.04500X0.04300X90.00000*%
%ADD54VB_RECTANGLE,0.04600X0.04600X0.00000*%
%ADD72VB_RECTANGLE,0.04600X0.04600X270.00000*%
%ADD22VB_RECTANGLE,0.05100X0.05600X0.00000*%
%ADD70VB_RECTANGLE,0.05100X0.05600X90.00000*%
%ADD44VB_RECTANGLE,0.05600X0.08600X180.00000*%
%ADD34VB_RECTANGLE,0.05600X0.08600X90.00000*%
%ADD24VB_RECTANGLE,0.05709X0.09252X0.00000*%
%ADD33VB_RECTANGLE,0.06000X0.05400X180.00000*%
%ADD67VB_RECTANGLE,0.08000X0.06900X270.00000*%
%ADD21VB_RECTANGLE,0.10636X0.14180X0.00000*%
%ADD36VB_RECTANGLE,0.12400X0.14400X0.00000*%
%ADD41VB_RECTANGLE,0.16148X0.08865X180.00000*%
G01*
G36*
X3750Y8050D02*
Y8250D01*
X3550*
Y8750*
X3750*
Y8950*
X4250*
Y8750*
X4450*
Y8250*
X4250*
Y8050*
X3750*
X8382Y17032D02*
Y16832D01*
X8582*
Y16169*
X8382*
Y15969*
X7719*
Y16169*
X7519*
Y16832*
X7719*
Y17032*
X8382*
X10613Y8192D02*
Y8724D01*
X12187*
Y8361*
X11865*
Y8192*
X10613*
Y12242D02*
Y12774D01*
X12187*
Y12411*
X11865*
Y12242*
X10613*
X11041Y18650D02*
X11241D01*
Y18850*
X11041*
Y19259*
X11241*
Y19459*
X11650*
Y19259*
X11850*
Y19459*
X12259*
Y19259*
X12459*
Y18850*
X12259*
Y18650*
X12459*
Y18241*
X12259*
Y18041*
X11850*
Y18241*
X11650*
Y18041*
X11241*
Y18241*
X11041*
Y18650*
G37*
G54D10*
X19250Y1250D03*
Y7750D03*
X28800Y1250D03*
X31500Y7750D03*
G54D11*
X14785Y7285D03*
X31215Y23715D03*
G54D12*
X1172Y15456D03*
X1228Y19047D03*
X1546Y15456D03*
X1602Y19047D03*
X2053Y17065D03*
X2093Y18530D03*
X2427Y17065D03*
X2467Y18530D03*
X2912Y17058D03*
X2990Y21225D03*
X3286Y17058D03*
X3363Y4000D03*
Y4400D03*
X3364Y21225D03*
X3706Y17381D03*
X3737Y4000D03*
Y4400D03*
X3897Y15113D03*
X3966Y17031D03*
X3974Y19288D03*
X4080Y17381D03*
X4271Y15113D03*
X4340Y17031D03*
X4348Y19288D03*
X5298Y26154D03*
X5413Y12250D03*
Y12750D03*
X5672Y26154D03*
X5787Y12250D03*
Y12750D03*
X6763Y3250D03*
Y3750D03*
X7137Y3250D03*
Y3750D03*
X7276Y18113D03*
X7463Y14800D03*
X7563Y26400D03*
Y27200D03*
Y27700D03*
Y28200D03*
X7650Y18113D03*
X7837Y14800D03*
X7863Y15200D03*
X7937Y26400D03*
Y27200D03*
Y27700D03*
Y28200D03*
X8237Y15200D03*
X8263Y14800D03*
X8637D03*
X9463Y2944D03*
Y3382D03*
X9813Y18450D03*
X9837Y2944D03*
Y3382D03*
X10187Y18450D03*
X10463Y20250D03*
X10713Y7350D03*
X10773Y2944D03*
Y3382D03*
X10837Y20250D03*
X10913Y24250D03*
Y24750D03*
X11087Y7350D03*
X11147Y2944D03*
Y3382D03*
X11263Y16400D03*
X11287Y24250D03*
Y24750D03*
X11637Y16400D03*
X11663Y20750D03*
X12037D03*
X12063Y5000D03*
Y5500D03*
Y6000D03*
X12082Y2944D03*
Y3382D03*
X12413Y20750D03*
X12437Y5000D03*
Y5500D03*
Y6000D03*
X12456Y2944D03*
Y3382D03*
X12463Y17150D03*
X12787Y20750D03*
X12837Y17150D03*
X13163Y21600D03*
X13263Y16400D03*
X13274Y3358D03*
X13537Y21600D03*
X13637Y16400D03*
X13648Y3358D03*
X13663Y11200D03*
Y15050D03*
Y17550D03*
Y17950D03*
Y18350D03*
Y18750D03*
Y19150D03*
Y20350D03*
Y20750D03*
X13713Y23850D03*
Y24250D03*
X14037Y11200D03*
Y15050D03*
Y17550D03*
Y17950D03*
Y18350D03*
Y18750D03*
Y19150D03*
Y20350D03*
Y20750D03*
X14087Y23850D03*
Y24250D03*
X14347Y21622D03*
X14563Y15850D03*
Y16250D03*
Y17550D03*
Y17950D03*
Y18350D03*
Y18750D03*
Y19150D03*
Y19550D03*
Y19950D03*
Y20350D03*
Y20750D03*
Y21150D03*
X14721Y21622D03*
X14937Y15850D03*
Y16250D03*
Y17550D03*
Y17950D03*
Y18350D03*
Y18750D03*
Y19150D03*
Y19550D03*
Y19950D03*
Y20350D03*
Y20750D03*
Y21150D03*
X14986Y2944D03*
X14988Y3382D03*
X15025Y27741D03*
X15158Y3976D03*
X15360Y2944D03*
X15362Y3382D03*
X15399Y27741D03*
X15463Y18750D03*
Y19150D03*
Y19550D03*
Y19950D03*
Y20350D03*
Y20750D03*
X15532Y3976D03*
X15837Y18750D03*
Y19150D03*
Y19550D03*
Y19950D03*
Y20350D03*
Y20750D03*
X16143Y2944D03*
Y3382D03*
X16517Y2944D03*
Y3382D03*
X16563Y18750D03*
Y19150D03*
Y19550D03*
Y19950D03*
Y20350D03*
Y20750D03*
X16937Y18750D03*
Y19150D03*
Y19550D03*
Y19950D03*
Y20350D03*
Y20750D03*
X17283Y2944D03*
Y3382D03*
X17657Y2944D03*
Y3382D03*
X18213Y13450D03*
Y13850D03*
Y14300D03*
Y14700D03*
Y15100D03*
Y15500D03*
Y16700D03*
Y17850D03*
Y18250D03*
Y18650D03*
Y19050D03*
X18313Y3350D03*
Y3750D03*
X18587Y13450D03*
Y13850D03*
Y14300D03*
Y14700D03*
Y15100D03*
Y15500D03*
Y16700D03*
Y17850D03*
Y18250D03*
Y18650D03*
Y19050D03*
X18643Y27482D03*
X18687Y3350D03*
Y3750D03*
X19013Y10550D03*
Y13450D03*
Y13850D03*
X19017Y27482D03*
X19063Y17150D03*
X19387Y10550D03*
Y13450D03*
Y13850D03*
X19437Y17150D03*
X19913D03*
X20163Y650D03*
Y1050D03*
X20287Y17150D03*
X20513Y15350D03*
Y15750D03*
Y16150D03*
Y16550D03*
X20537Y650D03*
Y1050D03*
X20713Y11050D03*
Y11450D03*
Y12650D03*
Y13950D03*
X20763Y17150D03*
X20813Y14750D03*
X20887Y15350D03*
Y15750D03*
Y16150D03*
Y16550D03*
X21087Y11050D03*
Y11450D03*
Y12650D03*
Y13950D03*
X21137Y17150D03*
X21187Y14750D03*
X21563Y16550D03*
X21613Y10650D03*
Y11050D03*
Y11450D03*
Y11850D03*
Y12250D03*
Y12650D03*
Y13050D03*
X21653Y14750D03*
X21937Y16550D03*
X21987Y10650D03*
Y11050D03*
Y11450D03*
Y11850D03*
Y12250D03*
Y12650D03*
Y13050D03*
X22013Y13950D03*
Y14320D03*
X22027Y14750D03*
X22113Y20600D03*
X22363Y16550D03*
X22387Y13950D03*
Y14320D03*
X22487Y20600D03*
X22513Y10650D03*
Y11050D03*
Y11450D03*
Y12650D03*
Y13050D03*
X22737Y16550D03*
X22813Y20600D03*
X22887Y10650D03*
Y11050D03*
Y11450D03*
Y12650D03*
Y13050D03*
X23163Y16550D03*
X23187Y20600D03*
X23313Y3350D03*
Y4350D03*
X23413Y13200D03*
Y13600D03*
Y14150D03*
X23463Y14750D03*
X23513Y20600D03*
X23537Y16550D03*
X23687Y3350D03*
Y4350D03*
X23763Y17750D03*
Y18150D03*
Y18550D03*
X23787Y13200D03*
Y13600D03*
Y14150D03*
X23837Y14750D03*
X23887Y20600D03*
X24137Y17750D03*
Y18150D03*
Y18550D03*
X24213Y14150D03*
Y14750D03*
Y16250D03*
X24363Y21800D03*
X24413Y800D03*
Y1200D03*
Y1600D03*
Y2000D03*
Y2400D03*
Y2800D03*
Y3200D03*
Y3600D03*
Y4000D03*
Y4400D03*
Y4800D03*
Y5200D03*
Y5750D03*
Y6850D03*
X24513Y13600D03*
X24563Y17750D03*
Y18150D03*
Y18550D03*
Y18950D03*
X24587Y14150D03*
Y14750D03*
Y16250D03*
X24737Y21800D03*
X24787Y800D03*
Y1200D03*
Y1600D03*
Y2000D03*
Y2400D03*
Y2800D03*
Y3200D03*
Y3600D03*
Y4000D03*
Y4400D03*
Y4800D03*
Y5200D03*
Y5750D03*
Y6850D03*
X24887Y13600D03*
X24937Y17750D03*
Y18150D03*
Y18550D03*
Y18950D03*
X25163Y14050D03*
Y14450D03*
Y14850D03*
X25203Y17040D03*
X25537Y14050D03*
Y14450D03*
Y14850D03*
X25577Y17040D03*
X25663Y18100D03*
X25794Y15602D03*
X25963Y800D03*
Y1200D03*
Y1600D03*
Y2000D03*
Y2400D03*
Y2800D03*
Y3200D03*
Y3600D03*
Y4000D03*
Y4400D03*
Y4800D03*
Y5200D03*
Y17040D03*
X26037Y18100D03*
X26063Y19250D03*
Y19650D03*
Y20050D03*
Y20450D03*
X26168Y15602D03*
X26337Y800D03*
Y1200D03*
Y1600D03*
Y2000D03*
Y2400D03*
Y2800D03*
Y3200D03*
Y3600D03*
Y4000D03*
Y4400D03*
Y4800D03*
Y5200D03*
Y17040D03*
X26437Y19250D03*
Y19650D03*
Y20050D03*
Y20450D03*
X26613Y10550D03*
X26987D03*
X27063Y3350D03*
Y3750D03*
X27413Y15650D03*
Y16050D03*
Y16450D03*
Y16850D03*
X27437Y3350D03*
Y3750D03*
X27787Y15650D03*
Y16050D03*
Y16450D03*
Y16850D03*
X28813Y24850D03*
X29163Y15250D03*
Y15650D03*
Y16450D03*
Y16850D03*
Y17250D03*
Y17650D03*
Y18050D03*
Y18450D03*
Y18850D03*
Y19250D03*
Y19650D03*
Y20050D03*
X29187Y24850D03*
X29513D03*
X29537Y15250D03*
Y15650D03*
Y16450D03*
Y16850D03*
Y17250D03*
Y17650D03*
Y18050D03*
Y18450D03*
Y18850D03*
Y19250D03*
Y19650D03*
Y20050D03*
X29887Y24850D03*
X30813Y20750D03*
X31187D03*
X32063Y3350D03*
Y3950D03*
Y4350D03*
Y4750D03*
X32437Y3350D03*
Y3950D03*
Y4350D03*
Y4750D03*
X32913Y20750D03*
Y21250D03*
X33287Y20750D03*
Y21250D03*
X33813Y26750D03*
X34187D03*
X35713Y6606D03*
X35813Y20750D03*
Y21250D03*
Y21750D03*
Y23750D03*
Y24250D03*
Y24750D03*
X36087Y6606D03*
X36187Y20750D03*
Y21250D03*
Y21750D03*
Y23750D03*
Y24250D03*
Y24750D03*
X36435Y6607D03*
X36471Y7230D03*
X36809Y6607D03*
X36813Y20750D03*
Y21250D03*
Y21750D03*
Y23750D03*
Y24250D03*
Y24750D03*
X36845Y7230D03*
X36863Y6117D03*
X37187Y20750D03*
Y21250D03*
Y21750D03*
Y23750D03*
Y24250D03*
Y24750D03*
X37237Y6117D03*
X37247Y3800D03*
X37249Y4400D03*
Y5114D03*
X37250Y4756D03*
X37621Y3800D03*
X37623Y4400D03*
Y5114D03*
X37624Y4756D03*
G54D13*
X1500Y1500D03*
Y27500D03*
X37500Y1500D03*
Y27500D03*
G54D14*
X950Y5063D03*
Y5437D03*
Y6313D03*
Y6687D03*
X1250Y12563D03*
Y12937D03*
X1450Y5063D03*
Y5437D03*
X1500Y10363D03*
Y10737D03*
X1750Y12563D03*
Y12937D03*
X1900Y10363D03*
Y10737D03*
X2250Y12563D03*
Y12937D03*
X2750Y6313D03*
Y6687D03*
Y12563D03*
Y12937D03*
X3850Y6313D03*
Y6687D03*
X4250Y6313D03*
Y6687D03*
Y10363D03*
Y10737D03*
X4750Y6313D03*
Y6687D03*
Y10363D03*
Y10737D03*
X5850Y5313D03*
Y5687D03*
X6250Y4313D03*
Y4687D03*
Y5313D03*
Y5687D03*
X6700Y9163D03*
Y9537D03*
X7000Y4813D03*
Y5187D03*
X7650Y18113D03*
Y18487D03*
X7900Y9163D03*
Y9537D03*
X8050Y18113D03*
Y18487D03*
X8450Y18113D03*
Y18487D03*
X8650Y19163D03*
Y19537D03*
X8850Y18113D03*
Y18487D03*
X9250Y18113D03*
Y18487D03*
X9500Y9963D03*
Y10337D03*
Y14013D03*
Y14387D03*
X9900Y9963D03*
Y10337D03*
Y14013D03*
Y14387D03*
X11250Y4813D03*
Y5187D03*
Y16813D03*
Y17187D03*
X11650Y16813D03*
Y17187D03*
X12050Y16813D03*
Y17187D03*
X12450Y16363D03*
Y16737D03*
X12600Y8063D03*
Y8437D03*
Y12113D03*
Y12487D03*
X12850Y16363D03*
Y16737D03*
X13250Y16813D03*
Y17187D03*
X13650Y16813D03*
Y17187D03*
Y19563D03*
Y19937D03*
X14050Y16813D03*
Y17187D03*
Y19563D03*
Y19937D03*
X14198Y22106D03*
Y22480D03*
X14720Y22105D03*
Y22479D03*
X15029Y26940D03*
Y27314D03*
X17858Y26710D03*
Y27084D03*
X17860Y27432D03*
Y27806D03*
X17900Y7013D03*
Y7387D03*
X18450Y11363D03*
Y11737D03*
Y19513D03*
Y19887D03*
X19440Y20263D03*
Y20637D03*
X19820Y20263D03*
Y20637D03*
X20003Y26573D03*
Y26947D03*
X20004Y25866D03*
Y26240D03*
X20200Y20263D03*
Y20637D03*
X20600Y20263D03*
Y20637D03*
X21300Y21563D03*
Y21937D03*
X21350Y17713D03*
Y18087D03*
X21550Y13713D03*
Y14087D03*
Y18463D03*
Y18837D03*
X21750Y15313D03*
Y15687D03*
Y17713D03*
Y18087D03*
X22150Y16963D03*
Y17337D03*
Y17713D03*
Y18087D03*
X22700Y17713D03*
Y18087D03*
X23100Y17713D03*
Y18087D03*
X23950Y16813D03*
Y17187D03*
X24400Y6113D03*
Y6487D03*
X24450Y11863D03*
Y12237D03*
Y12613D03*
Y12987D03*
X24460Y16813D03*
Y17187D03*
X24800Y6113D03*
Y6487D03*
X24840Y17024D03*
Y17398D03*
X25300Y12038D03*
Y12412D03*
X25439Y15231D03*
Y15605D03*
X27550Y11113D03*
Y11487D03*
Y19663D03*
Y20037D03*
X28280Y17262D03*
Y17636D03*
Y17962D03*
Y18336D03*
X30950Y18563D03*
Y18937D03*
X31350Y18563D03*
Y18937D03*
X31545Y9703D03*
Y10077D03*
X31546Y10482D03*
Y10856D03*
X32199Y10478D03*
Y10852D03*
X33863Y3736D03*
Y4110D03*
X33865Y4462D03*
Y4836D03*
X34249Y3747D03*
Y4121D03*
X34251Y3015D03*
Y3389D03*
X34728Y5877D03*
Y6251D03*
X35350Y14663D03*
Y15037D03*
X35750Y14663D03*
Y15037D03*
X36142Y5001D03*
Y5375D03*
X36495Y5752D03*
Y6126D03*
X36689Y3003D03*
Y3377D03*
G54D15*
X5250Y1000D03*
X6260Y26230D03*
X11250Y22750D03*
X12250Y28000D03*
X12500Y22750D03*
X22850Y24500D03*
X31750Y21000D03*
G54D16*
X3700Y26230D03*
Y28000D03*
X5250Y2000D03*
X6250Y1000D03*
Y2000D03*
X6260Y28000D03*
X7250Y1000D03*
Y2000D03*
X8250Y1000D03*
Y2000D03*
X9250Y1000D03*
Y2000D03*
Y27000D03*
Y28000D03*
X10250Y1000D03*
Y2000D03*
Y27000D03*
Y28000D03*
X11250Y1000D03*
Y2000D03*
Y21750D03*
Y27000D03*
Y28000D03*
X12250Y1000D03*
Y2000D03*
Y27000D03*
X12500Y21750D03*
X13250Y1000D03*
Y2000D03*
X14250Y1000D03*
Y2000D03*
X15250Y1000D03*
Y2000D03*
X16250Y1000D03*
Y2000D03*
X17250Y1000D03*
Y2000D03*
X23850Y24500D03*
X24850D03*
X25850D03*
X26850D03*
X27850D03*
X31750Y20000D03*
G54D17*
X950Y10250D03*
Y10850D03*
X1450Y6100D03*
Y6700D03*
X2450Y10250D03*
Y10850D03*
X3350Y6100D03*
Y6700D03*
X7250Y9050D03*
Y9650D03*
X14653Y25874D03*
Y26474D03*
X16250Y4700D03*
Y5300D03*
X18100Y21450D03*
Y22050D03*
X18500Y2200D03*
Y2800D03*
Y4450D03*
Y5050D03*
Y5950D03*
Y6550D03*
X18700Y21450D03*
Y22050D03*
X21800Y21450D03*
Y22050D03*
X22600Y650D03*
Y1250D03*
X23200Y650D03*
Y1250D03*
X23500Y2200D03*
Y2800D03*
Y5950D03*
Y6550D03*
X23800Y650D03*
Y1250D03*
X26950Y650D03*
Y1250D03*
X27250Y2200D03*
Y2800D03*
Y4450D03*
Y5050D03*
Y5950D03*
Y6550D03*
X27550Y650D03*
Y1250D03*
X28150Y650D03*
Y1250D03*
X32250Y2200D03*
Y2800D03*
Y5950D03*
Y6550D03*
X34153Y1142D03*
Y1742D03*
X34673Y1142D03*
Y1742D03*
X35192Y1152D03*
Y1752D03*
X36828Y3800D03*
Y4400D03*
X37800Y20950D03*
Y21550D03*
Y23950D03*
Y24550D03*
G54D18*
X33228Y13413D03*
Y18587D03*
X35465Y13413D03*
Y18587D03*
G54D19*
X5250Y15000D03*
Y16000D03*
Y17000D03*
Y18000D03*
Y19000D03*
X6250Y15500D03*
Y16500D03*
Y17500D03*
Y18500D03*
Y19500D03*
X33417Y14622D03*
Y15606D03*
Y16394D03*
Y17378D03*
X34087Y14425D03*
Y15213D03*
Y16000D03*
Y16787D03*
Y17575D03*
X34677Y14622D03*
Y15606D03*
Y16394D03*
Y17378D03*
G54D20*
X4183Y24276D03*
Y24591D03*
X4187Y25297D03*
Y25611D03*
X4188Y23255D03*
Y23570D03*
X4196Y21775D03*
Y22090D03*
X4872Y24276D03*
Y24591D03*
X4876Y25297D03*
Y25611D03*
X4877Y23255D03*
Y23570D03*
X4885Y21775D03*
Y22090D03*
X31156Y13843D03*
Y14157D03*
Y15093D03*
Y15407D03*
X31844Y13843D03*
Y14157D03*
Y15093D03*
Y15407D03*
G54D21*
X13246Y9600D03*
Y13450D03*
X15254Y9600D03*
Y13450D03*
G54D22*
X6850Y11250D03*
Y12000D03*
X7550Y11250D03*
Y12000D03*
X9350Y7200D03*
Y7950D03*
Y8700D03*
Y11250D03*
Y12000D03*
Y12750D03*
X10050Y7200D03*
Y7950D03*
Y8700D03*
Y11250D03*
Y12000D03*
Y12750D03*
X16400Y8500D03*
Y9250D03*
Y10000D03*
Y10750D03*
Y11500D03*
Y12250D03*
Y13000D03*
Y13750D03*
Y14500D03*
Y15250D03*
Y16000D03*
Y16750D03*
Y17500D03*
X17100Y8500D03*
Y9250D03*
Y10000D03*
Y10750D03*
Y11500D03*
Y12250D03*
Y13000D03*
Y13750D03*
Y14500D03*
Y15250D03*
Y16000D03*
Y16750D03*
Y17500D03*
G54D23*
X5323Y24084D03*
Y24781D03*
X5327Y25105D03*
Y25802D03*
X5328Y23064D03*
Y23761D03*
X5336Y21583D03*
Y22280D03*
X5673Y24084D03*
Y24781D03*
X5677Y25105D03*
Y25802D03*
X5678Y23064D03*
Y23761D03*
X5686Y21583D03*
Y22280D03*
X5983Y24279D03*
Y24579D03*
X5987Y25300D03*
Y25600D03*
X5988Y23258D03*
Y23558D03*
X5996Y21778D03*
Y22078D03*
X6333Y24279D03*
Y24579D03*
X6337Y25300D03*
Y25600D03*
X6338Y23258D03*
Y23558D03*
X6346Y21778D03*
Y22078D03*
X34877Y5429D03*
X34882Y4943D03*
X35121Y5903D03*
Y6253D03*
X35227Y5429D03*
X35232Y4943D03*
X36524Y4991D03*
Y5341D03*
X37077Y3323D03*
X37427D03*
G54D24*
X18830Y26712D03*
G54D25*
X18284Y26338D03*
Y26712D03*
Y27086D03*
X19375Y26338D03*
Y26712D03*
Y27086D03*
G54D26*
X3450Y4900D03*
Y5500D03*
X4050Y4900D03*
Y5500D03*
X5200Y20250D03*
X5339Y27207D03*
X5800Y20250D03*
X5939Y27207D03*
X6650Y2750D03*
X6900Y12750D03*
X7250Y2750D03*
X7500Y12750D03*
X9500Y9400D03*
Y13450D03*
X9700Y16250D03*
Y16775D03*
Y17325D03*
Y17850D03*
X10100Y9400D03*
Y13450D03*
X10300Y16250D03*
Y16775D03*
Y17325D03*
Y17850D03*
X10550Y20750D03*
X11150D03*
X11300Y15450D03*
Y15960D03*
X11550Y7350D03*
Y10900D03*
Y11500D03*
Y14950D03*
X11900Y15450D03*
Y15960D03*
X11910Y4490D03*
X12150Y7350D03*
Y10900D03*
Y11500D03*
Y14950D03*
X12510Y4490D03*
X13401Y26474D03*
X14001D03*
X16450Y18200D03*
X17050D03*
X18530Y25812D03*
Y27912D03*
X19000Y15500D03*
Y16250D03*
X19130Y25812D03*
Y27912D03*
X19600Y15500D03*
Y16250D03*
X20400Y12050D03*
Y13500D03*
X21000Y12050D03*
Y13500D03*
X22100D03*
X22450Y14750D03*
X22700Y13500D03*
Y15650D03*
X23050Y14750D03*
X23300Y15650D03*
X23950D03*
X24550D03*
X36245Y7673D03*
X36845D03*
G54D27*
X7700Y21250D03*
Y21750D03*
Y22250D03*
Y22750D03*
Y23750D03*
Y24250D03*
Y24750D03*
Y25250D03*
X9800Y21250D03*
Y21750D03*
Y22250D03*
Y22750D03*
Y23750D03*
Y24250D03*
Y24750D03*
Y25250D03*
X13200Y4500D03*
Y5000D03*
Y5500D03*
Y6000D03*
X15300Y4500D03*
Y5000D03*
Y5500D03*
Y6000D03*
X32200Y8500D03*
Y9000D03*
Y9500D03*
Y10000D03*
X34300Y8500D03*
Y9000D03*
Y9500D03*
Y10000D03*
G54D28*
X950Y7450D03*
Y9550D03*
X1450Y7450D03*
Y9550D03*
X1950Y7450D03*
Y9550D03*
X2450Y7450D03*
Y9550D03*
X3250Y7450D03*
Y9550D03*
X3750Y7450D03*
Y9550D03*
X4250Y7450D03*
Y9550D03*
X4750Y7450D03*
Y9550D03*
G54D29*
X15300Y15750D03*
Y16250D03*
X17650Y18250D03*
X18100Y17250D03*
X18600D03*
X21230Y19164D03*
Y19514D03*
X27600Y17300D03*
Y17850D03*
X28800Y14800D03*
X29350D03*
G54D30*
X674Y23030D03*
Y25470D03*
X1997Y23032D03*
Y25470D03*
G54D31*
X30993Y17406D03*
Y18094D03*
X31307Y17406D03*
Y18094D03*
X31693Y17406D03*
Y18094D03*
X32007Y17406D03*
Y18094D03*
G54D32*
X2266Y16570D03*
Y16058D03*
X2275Y18056D03*
Y17545D03*
X3006Y16058D03*
Y16314D03*
Y16570D03*
X3015Y17545D03*
Y17800D03*
Y18056D03*
G54D33*
X7617Y13625D03*
Y14275D03*
X8483Y13625D03*
Y14275D03*
X22567Y21425D03*
Y22075D03*
X23433Y21425D03*
Y22075D03*
G54D34*
X1200Y16350D03*
Y18150D03*
X16750Y26400D03*
Y28200D03*
G54D35*
X4643Y26951D03*
Y27659D03*
G54D36*
X8750Y22000D03*
Y24500D03*
X14250Y5250D03*
G54D37*
X950Y14580D03*
Y19920D03*
X1150Y11600D03*
X1750Y14580D03*
Y19920D03*
X3150Y10400D03*
X5150Y11600D03*
X33500Y27500D03*
G54D38*
X33803Y21234D03*
Y21766D03*
X34000Y21234D03*
X34197D03*
Y21766D03*
G54D39*
X7612Y26800D03*
X7888D03*
X33862Y26250D03*
X34138D03*
G54D40*
X5200Y3250D03*
X6100Y2850D03*
Y3650D03*
X7350Y20050D03*
X7750Y19150D03*
X8150Y20050D03*
X13200Y25700D03*
X13600Y24800D03*
X14000Y25700D03*
X16350Y6800D03*
X16750Y7700D03*
X17150Y6800D03*
X28950Y24300D03*
X29350Y23400D03*
X29750Y24300D03*
G54D41*
X11400Y9407D03*
Y13457D03*
G54D42*
X10650Y10316D03*
Y14366D03*
X11150Y8084D03*
Y10316D03*
Y12134D03*
Y14366D03*
X11650Y8084D03*
Y10316D03*
Y12134D03*
Y14366D03*
X12150Y8084D03*
Y10316D03*
Y12134D03*
Y14366D03*
G54D43*
X10650Y8125D03*
Y12175D03*
G54D44*
X600Y24250D03*
X2400D03*
X36700Y16150D03*
Y19750D03*
X38500Y16150D03*
Y19750D03*
G54D45*
X7292Y15949D03*
Y16106D03*
Y16264D03*
Y16421D03*
Y16579D03*
Y16736D03*
Y16894D03*
Y17051D03*
X8808Y15949D03*
Y16106D03*
Y16264D03*
Y16421D03*
Y16579D03*
Y16736D03*
Y16894D03*
Y17051D03*
G54D46*
X7499Y15742D03*
Y17258D03*
X7656Y15742D03*
Y17258D03*
X7814Y15742D03*
Y17258D03*
X7971Y15742D03*
Y17258D03*
X8129Y15742D03*
Y17258D03*
X8286Y15742D03*
Y17258D03*
X8444Y15742D03*
Y17258D03*
X8601Y15742D03*
Y17258D03*
G54D47*
X9449Y15350D03*
X10351D03*
G54D48*
X35480Y3691D03*
G54D49*
X34693Y3199D03*
Y3396D03*
Y3593D03*
Y3790D03*
Y3986D03*
Y4183D03*
X36268Y3199D03*
Y3396D03*
Y3593D03*
Y3790D03*
Y3986D03*
Y4183D03*
G54D50*
X34988Y2904D03*
Y4479D03*
X35185Y2904D03*
Y4479D03*
X35382Y2904D03*
Y4479D03*
X35579Y2904D03*
Y4479D03*
X35776Y2904D03*
Y4479D03*
X35973Y2904D03*
Y4479D03*
G54D51*
X32551Y26750D03*
G54D52*
X21449D03*
G54D53*
X22433Y25884D03*
Y27616D03*
X22748Y25884D03*
Y27616D03*
X23063Y25884D03*
Y27616D03*
X23378Y25884D03*
Y27616D03*
X23693Y25884D03*
Y27616D03*
X24008Y25884D03*
Y27616D03*
X24323Y25884D03*
Y27616D03*
X24638Y25884D03*
Y27616D03*
X24953Y25884D03*
Y27616D03*
X25268Y25884D03*
Y27616D03*
X25583Y25884D03*
Y27616D03*
X25898Y25884D03*
Y27616D03*
X26213Y25884D03*
Y27616D03*
X26528Y25884D03*
Y27616D03*
X26843Y25884D03*
Y27616D03*
X27157Y25884D03*
Y27616D03*
X27472Y25884D03*
Y27616D03*
X27787Y25884D03*
Y27616D03*
X28102Y25884D03*
Y27616D03*
X28417Y25884D03*
Y27616D03*
X28732Y25884D03*
Y27616D03*
X29047Y25884D03*
Y27616D03*
X29362Y25884D03*
Y27616D03*
X29677Y25884D03*
Y27616D03*
X29992Y25884D03*
Y27616D03*
X30307Y25884D03*
Y27616D03*
X30622Y25884D03*
Y27616D03*
X30937Y25884D03*
Y27616D03*
X31252Y25884D03*
Y27616D03*
X31567Y25884D03*
Y27616D03*
G54D54*
X13699Y28063D03*
X14099Y27193D03*
X14499Y28063D03*
G54D55*
X10805Y18041D03*
Y18199D03*
Y18356D03*
Y18514D03*
Y18671D03*
Y18829D03*
Y18986D03*
Y19144D03*
Y19301D03*
Y19459D03*
X12695Y18041D03*
Y18199D03*
Y18356D03*
Y18514D03*
Y18671D03*
Y18829D03*
Y18986D03*
Y19144D03*
Y19301D03*
Y19459D03*
G54D56*
X11041Y17805D03*
Y19695D03*
X11199Y17805D03*
Y19695D03*
X11356Y17805D03*
Y19695D03*
X11514Y17805D03*
Y19695D03*
X11671Y17805D03*
Y19695D03*
X11829Y17805D03*
Y19695D03*
X11986Y17805D03*
Y19695D03*
X12144Y17805D03*
Y19695D03*
X12301Y17805D03*
Y19695D03*
X12459Y17805D03*
Y19695D03*
G54D57*
X19740Y2138D03*
Y2453D03*
Y2768D03*
Y3083D03*
Y3398D03*
Y3713D03*
Y4028D03*
Y4343D03*
Y4658D03*
Y4972D03*
Y5287D03*
Y5602D03*
Y5917D03*
Y6232D03*
Y6547D03*
Y6862D03*
X20055Y2138D03*
Y2453D03*
Y2768D03*
Y3083D03*
Y3398D03*
Y3713D03*
Y4028D03*
Y4343D03*
Y4658D03*
Y4972D03*
Y5287D03*
Y5602D03*
Y5917D03*
Y6232D03*
Y6547D03*
Y6862D03*
X20370Y2138D03*
Y2453D03*
Y2768D03*
Y3083D03*
Y3398D03*
Y3713D03*
Y4028D03*
Y4343D03*
Y4658D03*
Y4972D03*
Y5287D03*
Y5602D03*
Y5917D03*
Y6232D03*
Y6547D03*
Y6862D03*
X21630Y2138D03*
Y2453D03*
Y2768D03*
Y3083D03*
Y3398D03*
Y3713D03*
Y4028D03*
Y4343D03*
Y4658D03*
Y4972D03*
Y5287D03*
Y5602D03*
Y5917D03*
Y6232D03*
Y6547D03*
Y6862D03*
X21945Y2138D03*
Y2453D03*
Y2768D03*
Y3083D03*
Y3398D03*
Y3713D03*
Y4028D03*
Y4343D03*
Y4658D03*
Y4972D03*
Y5287D03*
Y5602D03*
Y5917D03*
Y6232D03*
Y6547D03*
Y6862D03*
X22260Y2138D03*
Y2453D03*
Y2768D03*
Y3083D03*
Y3398D03*
Y3713D03*
Y4028D03*
Y4343D03*
Y4658D03*
Y4972D03*
Y5287D03*
Y5602D03*
Y5917D03*
Y6232D03*
Y6547D03*
Y6862D03*
X28490Y2138D03*
Y2453D03*
Y2768D03*
Y3083D03*
Y3398D03*
Y3713D03*
Y4028D03*
Y4343D03*
Y4658D03*
Y4972D03*
Y5287D03*
Y5602D03*
Y5917D03*
Y6232D03*
Y6547D03*
Y6862D03*
X28805Y2138D03*
Y2453D03*
Y2768D03*
Y3083D03*
Y3398D03*
Y3713D03*
Y4028D03*
Y4343D03*
Y4658D03*
Y4972D03*
Y5287D03*
Y5602D03*
Y5917D03*
Y6232D03*
Y6547D03*
Y6862D03*
X29120Y2138D03*
Y2453D03*
Y2768D03*
Y3083D03*
Y3398D03*
Y3713D03*
Y4028D03*
Y4343D03*
Y4658D03*
Y4972D03*
Y5287D03*
Y5602D03*
Y5917D03*
Y6232D03*
Y6547D03*
Y6862D03*
X30380Y2138D03*
Y2453D03*
Y2768D03*
Y3083D03*
Y3398D03*
Y3713D03*
Y4028D03*
Y4343D03*
Y4658D03*
Y4972D03*
Y5287D03*
Y5602D03*
Y5917D03*
Y6232D03*
Y6547D03*
Y6862D03*
X30695Y2138D03*
Y2453D03*
Y2768D03*
Y3083D03*
Y3398D03*
Y3713D03*
Y4028D03*
Y4343D03*
Y4658D03*
Y4972D03*
Y5287D03*
Y5602D03*
Y5917D03*
Y6232D03*
Y6547D03*
Y6862D03*
X31010Y2138D03*
Y2453D03*
Y2768D03*
Y3083D03*
Y3398D03*
Y3713D03*
Y4028D03*
Y4343D03*
Y4658D03*
Y4972D03*
Y5287D03*
Y5602D03*
Y5917D03*
Y6232D03*
Y6547D03*
Y6862D03*
G54D58*
X3670Y3110D03*
G54D59*
X2390Y5000D03*
G54D60*
X4850D03*
G54D61*
X34500Y27500D03*
G54D62*
X31106Y16528D03*
Y16872D03*
X31303Y16528D03*
Y16872D03*
X31697Y16528D03*
Y16872D03*
X31894Y16528D03*
Y16872D03*
G54D63*
X31500Y16700D03*
D03*
G54D64*
X36205Y22500D03*
Y23000D03*
X36402Y22500D03*
Y23000D03*
X36598Y22500D03*
Y23000D03*
X36795Y22500D03*
Y23000D03*
G54D65*
X36161Y22750D03*
X36839D03*
G54D66*
X35742Y10623D03*
Y10879D03*
Y11135D03*
Y11391D03*
X37392Y10623D03*
Y10879D03*
Y11135D03*
Y11391D03*
G54D67*
X36572Y11011D03*
G54D68*
X3937Y12750D03*
X4763Y12376D03*
Y13124D03*
G54D69*
X2750Y15000D03*
Y19500D03*
G54D70*
X5800Y7250D03*
Y7950D03*
Y9000D03*
Y9700D03*
X6550Y7250D03*
Y7950D03*
X7300Y7250D03*
Y7950D03*
X8050Y7250D03*
Y7950D03*
X10000Y19000D03*
Y19700D03*
X17250Y4650D03*
Y5350D03*
X19350Y21400D03*
Y22100D03*
X35500Y27500D03*
Y28200D03*
G54D71*
X15742Y25679D03*
X20758D03*
G54D72*
X965Y3600D03*
X1597Y21135D03*
Y21935D03*
X1835Y3200D03*
Y4000D03*
X2467Y21535D03*
X7815Y2850D03*
Y3650D03*
Y4600D03*
Y5400D03*
X8685Y3250D03*
Y5000D03*
X9565Y4600D03*
Y5400D03*
X10435Y5000D03*
G54D73*
X3746Y15714D03*
Y16454D03*
Y17966D03*
Y18707D03*
X4002Y15714D03*
Y17966D03*
X4258Y15714D03*
Y17966D03*
Y16454D03*
Y18707D03*
G54D74*
X3950Y14200D03*
Y20300D03*
M02*
