*
G04 Job   : C:\ADI_Projects\Minnowboard\Turbot_F200_X200\PCB\Turbot_F200_X200.pcb*
G04 User  : LEN-ADI-PC:Len*
G04 Layer : 80101_0125_F200_SoldermaskTop.gdo*
G04 Date  : Tue Aug 04 10:36:44 2015*
G04 Mentor Graphics Example Gerber Output Definition*
%ICAS*%
%MOIN*%
%FSLAX24Y24*%
%OFA0.0000B0.0000*%
G90*
G74*
%AMVB_RECTANGLE*
21,1,$1,$2,0,0,$3*
%
%ADD25C,0.01100*%
%ADD23C,0.01200*%
%ADD27C,0.01300*%
%ADD24C,0.01400*%
%ADD53C,0.01800*%
%ADD17C,0.03600*%
%ADD65C,0.04500*%
%ADD71C,0.05600*%
%ADD10C,0.06000*%
%ADD15C,0.06400*%
%ADD64C,0.06500*%
%ADD41C,0.06600*%
%ADD82C,0.08500*%
%ADD70C,0.11600*%
%ADD81C,0.15000*%
%ADD11C,0.15200*%
%ADD13C,0.25600*%
%ADD26O,0.01000X0.01350*%
%ADD28O,0.01350X0.01000*%
%ADD76O,0.03600X0.01200*%
%ADD75O,0.01400X0.05500*%
%ADD21O,0.06600X0.09600*%
%ADD32O,0.11000X0.07500*%
%ADD68O,0.15400X0.07400*%
%ADD69O,0.07400X0.15400*%
%ADD74O,0.07400X0.18400*%
%ADD39VB_RECTANGLE,0.04400X0.04400X180.00000*%
%ADD14VB_RECTANGLE,0.06400X0.06400X270.00000*%
%ADD78VB_RECTANGLE,0.06600X0.06600X0.00000*%
%ADD34VB_RECTANGLE,0.00906X0.03740X270.00000*%
%ADD33VB_RECTANGLE,0.00906X0.04331X270.00000*%
%ADD77VB_RECTANGLE,0.01187X0.03057X0.00000*%
%ADD56VB_RECTANGLE,0.01200X0.02000X90.00000*%
%ADD45VB_RECTANGLE,0.01300X0.02400X180.00000*%
%ADD30VB_RECTANGLE,0.01300X0.02400X90.00000*%
%ADD73VB_RECTANGLE,0.01300X0.03000X180.00000*%
%ADD46VB_RECTANGLE,0.01300X0.03000X270.00000*%
%ADD58VB_RECTANGLE,0.01400X0.04100X270.00000*%
%ADD59VB_RECTANGLE,0.01600X0.04100X270.00000*%
%ADD60VB_RECTANGLE,0.01600X0.04300X270.00000*%
%ADD61VB_RECTANGLE,0.01600X0.05400X270.00000*%
%ADD47VB_RECTANGLE,0.01700X0.02400X180.00000*%
%ADD72VB_RECTANGLE,0.01700X0.02400X90.00000*%
%ADD40VB_RECTANGLE,0.01800X0.06600X180.00000*%
%ADD48VB_RECTANGLE,0.02100X0.03900X180.00000*%
%ADD66VB_RECTANGLE,0.02100X0.07500X90.00000*%
%ADD43VB_RECTANGLE,0.02254X0.02962X0.00000*%
%ADD49VB_RECTANGLE,0.02300X0.03800X90.00000*%
%ADD12VB_RECTANGLE,0.02756X0.02559X0.00000*%
%ADD16VB_RECTANGLE,0.02756X0.02559X270.00000*%
%ADD36VB_RECTANGLE,0.02900X0.02800X180.00000*%
%ADD38VB_RECTANGLE,0.03100X0.04600X0.00000*%
%ADD79VB_RECTANGLE,0.03100X0.05600X180.00000*%
%ADD29VB_RECTANGLE,0.03356X0.05915X270.00000*%
%ADD42VB_RECTANGLE,0.03600X0.04600X0.00000*%
%ADD50VB_RECTANGLE,0.03800X0.08200X90.00000*%
%ADD20VB_RECTANGLE,0.03937X0.08268X0.00000*%
%ADD57VB_RECTANGLE,0.04000X0.06000X270.00000*%
%ADD31VB_RECTANGLE,0.04100X0.03800X0.00000*%
%ADD19VB_RECTANGLE,0.04100X0.03800X270.00000*%
%ADD80VB_RECTANGLE,0.04337X0.06306X90.00000*%
%ADD22VB_RECTANGLE,0.04600X0.04600X270.00000*%
%ADD52VB_RECTANGLE,0.04600X0.05000X180.00000*%
%ADD51VB_RECTANGLE,0.04700X0.06300X90.00000*%
%ADD18VB_RECTANGLE,0.05100X0.05600X180.00000*%
%ADD35VB_RECTANGLE,0.05100X0.05600X90.00000*%
%ADD83VB_RECTANGLE,0.05600X0.08600X180.00000*%
%ADD54VB_RECTANGLE,0.06100X0.07100X90.00000*%
%ADD67VB_RECTANGLE,0.08600X0.03100X180.00000*%
%ADD55VB_RECTANGLE,0.10243X0.14180X180.00000*%
%ADD63VB_RECTANGLE,0.10243X0.14180X270.00000*%
%ADD44VB_RECTANGLE,0.10439X0.11817X180.00000*%
%ADD62VB_RECTANGLE,0.10439X0.11817X270.00000*%
%ADD37VB_RECTANGLE,0.16300X0.09100X180.00000*%
G01*
G36*
X35672Y8005D02*
Y7580D01*
X34034*
Y8013*
X33944*
Y8174*
X35349*
Y8005*
X35672*
G37*
G54D10*
X18000Y9750D03*
X19250Y1250D03*
Y7750D03*
X28400Y21250D03*
X31500Y1250D03*
X31550Y10000D03*
G54D11*
X14785Y7285D03*
X31215Y23715D03*
G54D12*
X4239Y21801D03*
Y22175D03*
X4589Y21799D03*
Y22173D03*
X4939Y21799D03*
Y22173D03*
X5289Y21802D03*
Y22176D03*
X6979Y25546D03*
Y25920D03*
X7000Y4813D03*
Y5187D03*
X7300Y15813D03*
Y16187D03*
Y16813D03*
Y17187D03*
X7500Y14063D03*
Y14437D03*
Y14813D03*
Y15187D03*
X7850Y15813D03*
Y16187D03*
Y16813D03*
Y17187D03*
X7900Y14063D03*
Y14437D03*
X8200Y10113D03*
Y10487D03*
X8250Y15813D03*
Y16187D03*
Y16813D03*
Y17187D03*
X8300Y14063D03*
Y14437D03*
X8600Y10113D03*
Y10487D03*
X8700Y14063D03*
Y14437D03*
X8800Y15813D03*
Y16187D03*
Y16813D03*
Y17187D03*
X9350Y15613D03*
Y15987D03*
X9750Y15613D03*
Y15987D03*
Y16813D03*
Y17187D03*
X10150Y15613D03*
Y15987D03*
Y16813D03*
Y17187D03*
X10550Y15613D03*
Y15987D03*
X10950Y17713D03*
Y18087D03*
X11250Y4813D03*
Y5187D03*
X11350Y17713D03*
Y18087D03*
X11550Y19413D03*
Y19787D03*
Y20413D03*
Y20787D03*
X11600Y6813D03*
Y7187D03*
X11650Y16063D03*
Y16437D03*
X11750Y17713D03*
Y18087D03*
X11950Y19413D03*
Y19787D03*
X12050Y16063D03*
Y16437D03*
X12150Y17713D03*
Y18087D03*
X12550Y17713D03*
Y18087D03*
X12900Y6813D03*
Y7187D03*
X13200Y16463D03*
Y16837D03*
X13550Y19963D03*
Y20337D03*
X13600Y16463D03*
Y16837D03*
X13950Y19963D03*
Y20337D03*
X14000Y16463D03*
Y16837D03*
X14400Y16463D03*
Y16837D03*
X17250Y23563D03*
Y23937D03*
X17750Y21563D03*
Y21937D03*
Y23563D03*
Y23937D03*
X18150Y21563D03*
Y21937D03*
X18750Y23563D03*
Y23937D03*
X19150Y21563D03*
Y21937D03*
X19250Y23563D03*
Y23937D03*
X19550Y21563D03*
Y21937D03*
X19940Y21573D03*
Y21947D03*
X21750Y21413D03*
Y21787D03*
X22150Y21413D03*
Y21787D03*
X22550Y21413D03*
Y21787D03*
X22950Y21413D03*
Y21787D03*
X24700Y25763D03*
Y26137D03*
X25100Y25763D03*
Y26137D03*
X25450Y27413D03*
Y27787D03*
X25500Y25763D03*
Y26137D03*
X25850Y27413D03*
Y27787D03*
X25900Y25763D03*
Y26137D03*
X27600Y25713D03*
Y26087D03*
X27650Y27413D03*
Y27787D03*
X28050Y27413D03*
Y27787D03*
X28450Y27413D03*
Y27787D03*
X28750Y19013D03*
Y19387D03*
X28850Y25663D03*
Y26037D03*
Y27413D03*
Y27787D03*
X29250Y25663D03*
Y26037D03*
Y27413D03*
Y27787D03*
X29650Y25663D03*
Y26037D03*
Y27413D03*
Y27787D03*
X30050Y25663D03*
Y26037D03*
Y27413D03*
Y27787D03*
X30550Y25663D03*
Y26037D03*
Y27413D03*
Y27787D03*
X30950Y25663D03*
Y26037D03*
Y27413D03*
Y27787D03*
X31150Y13813D03*
Y14187D03*
Y15063D03*
Y15437D03*
X31349Y25662D03*
Y26036D03*
X31350Y27413D03*
Y27787D03*
X34799Y9294D03*
Y9668D03*
X35910Y5013D03*
Y5387D03*
X36260Y5013D03*
Y5387D03*
G54D13*
X1500Y1500D03*
Y27500D03*
X37500Y1500D03*
Y27500D03*
G54D14*
X5250Y1000D03*
X6260Y26230D03*
X11250Y22750D03*
X12250Y28000D03*
X12500Y22750D03*
X22850Y24500D03*
X31750Y21000D03*
G54D15*
X3700Y26230D03*
Y28000D03*
X5250Y2000D03*
X6250Y1000D03*
Y2000D03*
X6260Y28000D03*
X7250Y1000D03*
Y2000D03*
X8250Y1000D03*
Y2000D03*
X9250Y1000D03*
Y2000D03*
Y27000D03*
Y28000D03*
X10250Y1000D03*
Y2000D03*
Y27000D03*
Y28000D03*
X11250Y1000D03*
Y2000D03*
Y21750D03*
Y27000D03*
Y28000D03*
X12250Y1000D03*
Y2000D03*
Y27000D03*
X12500Y21750D03*
X13250Y1000D03*
Y2000D03*
X14250Y1000D03*
Y2000D03*
X15250Y1000D03*
Y2000D03*
X16250Y1000D03*
Y2000D03*
X17250Y1000D03*
Y2000D03*
X23850Y24500D03*
X24850D03*
X25850D03*
X26850D03*
X27850D03*
X31750Y20000D03*
G54D16*
X3519Y22156D03*
X3893D03*
X5413Y12250D03*
Y12750D03*
Y13250D03*
X5613Y9250D03*
X5787Y12250D03*
Y12750D03*
Y13250D03*
X5987Y9250D03*
X6763Y2750D03*
Y3250D03*
X7013Y11000D03*
X7137Y2750D03*
Y3250D03*
X7387Y11000D03*
X7563Y18500D03*
Y20950D03*
Y21350D03*
Y21750D03*
Y22750D03*
Y23750D03*
Y24250D03*
Y25250D03*
X7937Y18500D03*
Y20950D03*
Y21350D03*
Y21750D03*
Y22750D03*
Y23750D03*
Y24250D03*
Y25250D03*
X8213Y9350D03*
Y9750D03*
Y10900D03*
X8463Y18000D03*
Y18350D03*
X8563Y19650D03*
Y20050D03*
Y20950D03*
X8587Y9350D03*
Y9750D03*
Y10900D03*
X8837Y18000D03*
Y18350D03*
X8937Y19650D03*
Y20050D03*
Y20950D03*
X9513Y6100D03*
X9563Y20950D03*
Y21350D03*
Y21750D03*
Y22250D03*
Y23450D03*
Y23850D03*
Y24250D03*
Y25250D03*
X9887Y6100D03*
X9937Y20950D03*
Y21350D03*
Y21750D03*
Y22250D03*
Y23450D03*
Y23850D03*
Y24250D03*
Y25250D03*
X10713Y18850D03*
X10763Y20400D03*
Y20800D03*
X11087Y18850D03*
X11137Y20400D03*
Y20800D03*
X11663Y16800D03*
Y17200D03*
X12037Y16800D03*
Y17200D03*
X12063Y5000D03*
Y5500D03*
Y6000D03*
X12213Y7850D03*
Y8250D03*
X12413Y16400D03*
Y16800D03*
Y17200D03*
Y18850D03*
Y19250D03*
X12437Y5000D03*
Y5500D03*
Y6000D03*
X12587Y7850D03*
Y8250D03*
X12787Y16400D03*
Y16800D03*
Y17200D03*
Y18850D03*
Y19250D03*
X13463Y6000D03*
X13563Y18850D03*
Y19550D03*
X13837Y6000D03*
X13937Y18850D03*
Y19550D03*
X14070Y26892D03*
X14444D03*
X14563Y19550D03*
Y19950D03*
Y20350D03*
Y20750D03*
Y21460D03*
X14937Y19550D03*
Y19950D03*
Y20350D03*
Y20750D03*
Y21460D03*
X15113Y4100D03*
Y4500D03*
Y4900D03*
Y5300D03*
X15463Y20750D03*
X15487Y4100D03*
Y4500D03*
Y4900D03*
Y5300D03*
X15837Y20750D03*
X16563Y18750D03*
Y19150D03*
Y19550D03*
Y19950D03*
Y20350D03*
X16937Y18750D03*
Y19150D03*
Y19550D03*
Y19950D03*
Y20350D03*
X17063Y6150D03*
Y6550D03*
Y6950D03*
Y7350D03*
X17437Y6150D03*
Y6550D03*
Y6950D03*
Y7350D03*
X18313Y3350D03*
Y3950D03*
Y4350D03*
Y4750D03*
X18687Y3350D03*
Y3950D03*
Y4350D03*
Y4750D03*
X22443Y22200D03*
Y22600D03*
Y23255D03*
X22817Y22200D03*
Y22600D03*
Y23255D03*
X23313Y3350D03*
Y3750D03*
X23463Y23350D03*
X23687Y3350D03*
Y3750D03*
X23837Y23350D03*
X24363Y21800D03*
Y22200D03*
Y22600D03*
Y23000D03*
X24737Y21800D03*
Y22200D03*
Y22600D03*
Y23000D03*
X25068Y23166D03*
X25442D03*
X26163Y21800D03*
Y22200D03*
Y22600D03*
Y23000D03*
X26537Y21800D03*
Y22200D03*
Y22600D03*
Y23000D03*
X27063Y3350D03*
Y4350D03*
X27163Y21400D03*
Y21800D03*
Y22200D03*
Y22600D03*
Y23000D03*
X27437Y3350D03*
Y4350D03*
X27537Y21400D03*
Y21800D03*
Y22200D03*
Y22600D03*
Y23000D03*
X28013Y23750D03*
X28387D03*
X29163Y14850D03*
Y15250D03*
Y15650D03*
Y16050D03*
Y16450D03*
Y16850D03*
Y17250D03*
Y17650D03*
Y18050D03*
Y18450D03*
Y19950D03*
Y20350D03*
Y20750D03*
Y21150D03*
Y21690D03*
Y22200D03*
Y22600D03*
Y24850D03*
X29537Y14850D03*
Y15250D03*
Y15650D03*
Y16050D03*
Y16450D03*
Y16850D03*
Y17250D03*
Y17650D03*
Y18050D03*
Y18450D03*
Y19950D03*
Y20350D03*
Y20750D03*
Y21150D03*
Y21690D03*
Y22200D03*
Y22600D03*
Y24850D03*
X29913Y15650D03*
Y16450D03*
Y16850D03*
Y18950D03*
Y19450D03*
X30287Y15650D03*
Y16450D03*
Y16850D03*
Y18950D03*
Y19450D03*
X31193Y16640D03*
X31567D03*
X32060Y10458D03*
X32063Y3350D03*
Y3750D03*
Y10850D03*
Y11250D03*
Y11650D03*
Y12050D03*
X32067Y10072D03*
X32434Y10458D03*
X32437Y3350D03*
Y3750D03*
Y10850D03*
Y11250D03*
Y11650D03*
Y12050D03*
X32441Y10072D03*
X33603Y10651D03*
X33977D03*
X34063Y11650D03*
X34073Y11190D03*
X34437Y11650D03*
X34447Y11190D03*
X37463Y11250D03*
Y11650D03*
Y12050D03*
X37837Y11250D03*
Y11650D03*
Y12050D03*
G54D17*
X8375Y17600D03*
X8875D03*
X16500Y17500D03*
X17000D03*
X23600Y25300D03*
X24100D03*
X24450Y23600D03*
X24600Y25300D03*
X25000D03*
X25250Y23600D03*
X26050D03*
X26850D03*
G54D18*
X6850Y11550D03*
Y12300D03*
X7550Y11550D03*
Y12300D03*
X9350Y7950D03*
Y8700D03*
Y12000D03*
Y12750D03*
X10050Y7950D03*
Y8700D03*
Y12000D03*
Y12750D03*
X16400Y8500D03*
Y9250D03*
Y10000D03*
Y10750D03*
Y11500D03*
Y12250D03*
Y13000D03*
Y13750D03*
Y14500D03*
Y15250D03*
Y16000D03*
Y16750D03*
X17100Y8500D03*
Y9250D03*
Y10000D03*
Y10750D03*
Y11500D03*
Y12250D03*
Y13000D03*
Y13750D03*
Y14500D03*
Y15250D03*
Y16000D03*
Y16750D03*
X32821Y7592D03*
X32824Y8310D03*
X32825Y9042D03*
X33521Y7592D03*
X33524Y8310D03*
X33525Y9042D03*
X35550Y9850D03*
Y10600D03*
Y11400D03*
Y12150D03*
X36250Y9850D03*
Y10600D03*
Y11400D03*
Y12150D03*
G54D19*
X6996Y3740D03*
Y4340D03*
X10650Y16500D03*
Y17100D03*
X11200Y16500D03*
Y17100D03*
X12450Y20050D03*
Y20650D03*
X13050Y20050D03*
Y20650D03*
X18496Y920D03*
Y1520D03*
X18500Y2200D03*
Y2800D03*
Y5950D03*
Y6550D03*
X18650Y21550D03*
Y22150D03*
X22600Y650D03*
Y1250D03*
X23200Y650D03*
Y1250D03*
X23500Y2200D03*
Y2800D03*
Y4450D03*
Y5050D03*
Y5950D03*
Y6550D03*
X23800Y650D03*
Y1250D03*
X26950Y650D03*
Y1250D03*
X27250Y2200D03*
Y2800D03*
Y5950D03*
Y6550D03*
X27550Y650D03*
Y1250D03*
X28150Y650D03*
Y1250D03*
X32250Y2200D03*
Y2800D03*
Y4450D03*
Y5050D03*
Y5950D03*
Y6550D03*
G54D20*
X16750Y24750D03*
X17250D03*
X17750D03*
X18250D03*
X18750D03*
X19250D03*
X19750D03*
G54D21*
X15742Y25679D03*
X20758D03*
G54D22*
X7815Y2850D03*
Y3650D03*
X8685Y3250D03*
X9565Y4600D03*
Y5400D03*
X10435Y5000D03*
G54D23*
X18579Y11621D03*
Y19379D03*
X18784Y11739D03*
Y19261D03*
X18810Y11335D03*
Y19665D03*
X18969Y11519D03*
Y19481D03*
X18997Y12229D03*
Y18771D03*
X18999Y11105D03*
Y19895D03*
X19009Y12619D03*
Y18381D03*
Y13009D03*
Y13399D03*
Y13772D03*
Y14167D03*
Y14540D03*
Y14930D03*
Y16070D03*
Y16460D03*
Y16833D03*
Y17228D03*
Y17601D03*
Y17991D03*
X19065Y15318D03*
Y15682D03*
X19134Y13970D03*
Y17030D03*
X19163Y11831D03*
Y19169D03*
X19228Y10916D03*
Y20084D03*
X19274Y12619D03*
Y13009D03*
Y13399D03*
Y13783D03*
Y14157D03*
Y14540D03*
Y14930D03*
Y16070D03*
Y16460D03*
Y16843D03*
Y17217D03*
Y17601D03*
Y17991D03*
Y18381D03*
X19277Y12229D03*
Y18771D03*
X19298Y15293D03*
Y15707D03*
X19338Y11341D03*
Y11676D03*
Y19324D03*
Y19660D03*
X19414Y13970D03*
Y15500D03*
Y17030D03*
X19550Y12229D03*
Y18771D03*
X19554Y12619D03*
Y13009D03*
Y13399D03*
Y13783D03*
Y14157D03*
Y14540D03*
Y14930D03*
Y15313D03*
Y15687D03*
Y16070D03*
Y16460D03*
Y16843D03*
Y17217D03*
Y17601D03*
Y17991D03*
Y18381D03*
X19694Y13970D03*
Y15500D03*
Y17030D03*
X19729Y11068D03*
Y11348D03*
Y11628D03*
Y11908D03*
Y19092D03*
Y19372D03*
Y19652D03*
Y19932D03*
X19783Y12229D03*
Y18771D03*
X19834Y12619D03*
Y13009D03*
Y13399D03*
Y13783D03*
Y14157D03*
Y14540D03*
Y14930D03*
Y15313D03*
Y15687D03*
Y16070D03*
Y16460D03*
Y16843D03*
Y17217D03*
Y17601D03*
Y17991D03*
Y18381D03*
X19974Y13970D03*
Y15500D03*
Y17030D03*
X20110Y12619D03*
Y18381D03*
X20114Y13009D03*
Y13399D03*
Y13783D03*
Y14157D03*
Y14540D03*
Y14930D03*
Y15313D03*
Y15687D03*
Y16070D03*
Y16460D03*
Y16843D03*
Y17217D03*
Y17601D03*
Y17991D03*
X20119Y11115D03*
Y11381D03*
Y11661D03*
Y11941D03*
Y12221D03*
Y18779D03*
Y19059D03*
Y19339D03*
Y19619D03*
Y19885D03*
X20254Y13970D03*
Y15500D03*
Y17030D03*
X20278Y12842D03*
Y18158D03*
X20394Y13399D03*
Y13783D03*
Y14157D03*
Y14540D03*
Y14930D03*
Y15313D03*
Y15687D03*
Y16070D03*
Y16460D03*
Y16843D03*
Y17217D03*
Y17601D03*
X20462Y13009D03*
Y17991D03*
X20509Y11116D03*
Y11381D03*
Y11661D03*
Y11941D03*
Y12221D03*
Y12501D03*
Y12781D03*
Y18219D03*
Y18499D03*
Y18779D03*
Y19059D03*
Y19339D03*
Y19619D03*
Y19885D03*
X20534Y13970D03*
Y15500D03*
Y17030D03*
X20674Y13399D03*
Y13783D03*
Y14157D03*
Y14540D03*
Y14930D03*
Y15313D03*
Y15687D03*
Y16070D03*
Y16460D03*
Y16843D03*
Y17217D03*
Y17601D03*
X20814Y13970D03*
Y15500D03*
Y17030D03*
X20899Y11116D03*
Y11381D03*
Y11661D03*
Y11941D03*
Y12221D03*
Y12501D03*
Y12781D03*
Y13018D03*
Y17982D03*
Y18219D03*
Y18499D03*
Y18779D03*
Y19059D03*
Y19339D03*
Y19619D03*
Y19885D03*
X20954Y13399D03*
Y13783D03*
Y14157D03*
Y14540D03*
Y14930D03*
Y15313D03*
Y15687D03*
Y16070D03*
Y16460D03*
Y16843D03*
Y17217D03*
Y17601D03*
X21272Y11116D03*
Y19885D03*
X21283Y11381D03*
Y11661D03*
Y11941D03*
Y12221D03*
Y12501D03*
Y12781D03*
Y13061D03*
Y17939D03*
Y18219D03*
Y18499D03*
Y18779D03*
Y19059D03*
Y19339D03*
Y19619D03*
X21470Y11241D03*
Y11521D03*
Y11801D03*
Y12081D03*
Y12361D03*
Y12641D03*
Y12921D03*
Y18079D03*
Y18359D03*
Y18639D03*
Y18919D03*
Y19199D03*
Y19479D03*
Y19759D03*
X21657Y11381D03*
Y11661D03*
Y11941D03*
Y12221D03*
Y12501D03*
Y12781D03*
Y13061D03*
Y17939D03*
Y18219D03*
Y18499D03*
Y18779D03*
Y19059D03*
Y19339D03*
Y19619D03*
X21667Y11116D03*
Y19885D03*
X22040Y11116D03*
Y11381D03*
Y11661D03*
Y11941D03*
Y12221D03*
Y12501D03*
Y12781D03*
Y13061D03*
Y17939D03*
Y18219D03*
Y18499D03*
Y18779D03*
Y19059D03*
Y19339D03*
Y19619D03*
Y19885D03*
X22430Y11116D03*
Y11381D03*
Y11661D03*
Y11941D03*
Y12221D03*
Y12501D03*
Y12781D03*
Y13061D03*
Y17939D03*
Y18219D03*
Y18499D03*
Y18779D03*
Y19059D03*
Y19339D03*
Y19619D03*
Y19885D03*
X22793Y11404D03*
Y19596D03*
X22813Y11661D03*
Y11941D03*
Y12221D03*
Y12501D03*
Y12781D03*
Y13061D03*
Y17939D03*
Y18219D03*
Y18499D03*
Y18779D03*
Y19059D03*
Y19339D03*
X22818Y11171D03*
Y19829D03*
X23000Y11521D03*
Y11801D03*
Y12081D03*
Y12361D03*
Y12641D03*
Y12921D03*
Y18079D03*
Y18359D03*
Y18639D03*
Y18919D03*
Y19199D03*
Y19479D03*
X23182Y11171D03*
Y19829D03*
X23187Y11661D03*
Y11941D03*
Y12221D03*
Y12501D03*
Y12781D03*
Y13061D03*
Y17939D03*
Y18219D03*
Y18499D03*
Y18779D03*
Y19059D03*
Y19339D03*
X23207Y11404D03*
Y19596D03*
X23570Y11116D03*
Y11381D03*
Y11661D03*
Y11941D03*
Y12221D03*
Y12501D03*
Y12781D03*
Y13061D03*
Y17939D03*
Y18219D03*
Y18499D03*
Y18779D03*
Y19059D03*
Y19339D03*
Y19619D03*
Y19885D03*
X23960Y11116D03*
Y11381D03*
Y11661D03*
Y11941D03*
Y12221D03*
Y12501D03*
Y12781D03*
Y13061D03*
Y17939D03*
Y18219D03*
Y18499D03*
Y18779D03*
Y19059D03*
Y19339D03*
Y19619D03*
Y19885D03*
X24333Y11116D03*
Y19885D03*
X24343Y11381D03*
Y11661D03*
Y11941D03*
Y12221D03*
Y12501D03*
Y12781D03*
Y13061D03*
Y17939D03*
Y18219D03*
Y18499D03*
Y18779D03*
Y19059D03*
Y19339D03*
Y19619D03*
X24530Y11241D03*
Y11521D03*
Y11801D03*
Y12081D03*
Y12361D03*
Y12641D03*
Y12921D03*
Y18079D03*
Y18359D03*
Y18639D03*
Y18919D03*
Y19199D03*
Y19479D03*
Y19759D03*
X24717Y11381D03*
Y11661D03*
Y11941D03*
Y12221D03*
Y12501D03*
Y12781D03*
Y13061D03*
Y17939D03*
Y18219D03*
Y18499D03*
Y18779D03*
Y19059D03*
Y19339D03*
Y19619D03*
X24728Y11116D03*
Y19885D03*
X25046Y13399D03*
Y13783D03*
Y14157D03*
Y14540D03*
Y14930D03*
Y15313D03*
Y15687D03*
Y16070D03*
Y16460D03*
Y16843D03*
Y17217D03*
Y17601D03*
X25101Y11116D03*
Y11381D03*
Y11661D03*
Y11941D03*
Y12221D03*
Y12501D03*
Y12781D03*
Y13018D03*
Y17982D03*
Y18219D03*
Y18499D03*
Y18779D03*
Y19059D03*
Y19339D03*
Y19619D03*
Y19885D03*
X25186Y13970D03*
Y15500D03*
Y17030D03*
X25326Y13399D03*
Y13783D03*
Y14157D03*
Y14540D03*
Y14930D03*
Y15313D03*
Y15687D03*
Y16070D03*
Y16460D03*
Y16843D03*
Y17217D03*
Y17601D03*
X25466Y13970D03*
Y15500D03*
Y17030D03*
X25491Y11116D03*
Y11381D03*
Y11661D03*
Y11941D03*
Y12221D03*
Y12501D03*
Y12781D03*
Y18219D03*
Y18499D03*
Y18779D03*
Y19059D03*
Y19339D03*
Y19619D03*
Y19885D03*
X25538Y13009D03*
Y17991D03*
X25606Y13399D03*
Y13783D03*
Y14157D03*
Y14540D03*
Y14930D03*
Y15313D03*
Y15687D03*
Y16070D03*
Y16460D03*
Y16843D03*
Y17217D03*
Y17601D03*
X25722Y12842D03*
Y18158D03*
X25746Y13970D03*
Y15500D03*
Y17030D03*
X25881Y11115D03*
Y11381D03*
Y11661D03*
Y11941D03*
Y12221D03*
Y18779D03*
Y19059D03*
Y19339D03*
Y19619D03*
Y19885D03*
X25886Y13009D03*
Y13399D03*
Y13783D03*
Y14157D03*
Y14540D03*
Y14930D03*
Y15313D03*
Y15687D03*
Y16070D03*
Y16460D03*
Y16843D03*
Y17217D03*
Y17601D03*
Y17991D03*
X25890Y12619D03*
Y18381D03*
X26026Y13970D03*
Y15500D03*
Y17030D03*
X26166Y12619D03*
Y13009D03*
Y13399D03*
Y13783D03*
Y14157D03*
Y14540D03*
Y14930D03*
Y15313D03*
Y15687D03*
Y16070D03*
Y16460D03*
Y16843D03*
Y17217D03*
Y17601D03*
Y17991D03*
Y18381D03*
X26217Y12229D03*
Y18771D03*
X26271Y11068D03*
Y11348D03*
Y11628D03*
Y11908D03*
Y19092D03*
Y19372D03*
Y19652D03*
Y19932D03*
X26306Y13970D03*
Y15500D03*
Y17030D03*
X26446Y12619D03*
Y13009D03*
Y13399D03*
Y13783D03*
Y14157D03*
Y14540D03*
Y14930D03*
Y15313D03*
Y15687D03*
Y16070D03*
Y16460D03*
Y16843D03*
Y17217D03*
Y17601D03*
Y17991D03*
Y18381D03*
X26450Y12229D03*
Y18771D03*
X26586Y13970D03*
Y15500D03*
Y17030D03*
X26662Y11341D03*
Y11676D03*
Y19324D03*
Y19660D03*
X26703Y15293D03*
Y15707D03*
X26723Y12229D03*
Y18771D03*
X26726Y12619D03*
Y13009D03*
Y13399D03*
Y13783D03*
Y14157D03*
Y14540D03*
Y14930D03*
Y16070D03*
Y16460D03*
Y16843D03*
Y17217D03*
Y17601D03*
Y17991D03*
Y18381D03*
X26772Y10916D03*
Y20084D03*
X26837Y11831D03*
Y19169D03*
X26866Y13970D03*
Y17030D03*
X26935Y15318D03*
Y15682D03*
X26991Y13009D03*
Y13399D03*
Y13772D03*
Y14167D03*
Y14540D03*
Y14930D03*
Y16070D03*
Y16460D03*
Y16833D03*
Y17228D03*
Y17601D03*
Y17991D03*
Y12619D03*
Y18381D03*
X27001Y11105D03*
Y19895D03*
X27003Y12229D03*
Y18771D03*
X27031Y11519D03*
Y19481D03*
X27190Y11335D03*
Y19665D03*
X27216Y11739D03*
Y19261D03*
X27421Y11621D03*
Y19379D03*
G54D24*
X18349Y10625D03*
Y10865D03*
Y11172D03*
Y11447D03*
Y11712D03*
Y19288D03*
Y19553D03*
Y19828D03*
Y20135D03*
Y20375D03*
X18519Y10455D03*
Y20545D03*
X18576Y10921D03*
Y20079D03*
X18581Y10687D03*
Y20313D03*
Y11855D03*
Y19145D03*
X18582Y11154D03*
Y19846D03*
Y11388D03*
Y19612D03*
X18759Y10455D03*
Y20545D03*
X18809Y10916D03*
Y20084D03*
X18814Y10682D03*
Y20318D03*
X19048Y10688D03*
Y20312D03*
X19066Y10455D03*
Y20545D03*
X19282Y10689D03*
Y20311D03*
X19341Y10455D03*
Y20545D03*
X19515Y10679D03*
Y20321D03*
X19606Y10455D03*
Y20545D03*
X26077D03*
X26394Y10455D03*
X26417Y20545D03*
X26485Y10679D03*
Y20321D03*
X26659Y10455D03*
X26719Y10689D03*
Y20311D03*
Y20545D03*
X26934Y10455D03*
X26952Y10688D03*
Y20312D03*
X27004Y20545D03*
X27186Y10682D03*
Y20318D03*
X27191Y10916D03*
Y20084D03*
X27241Y10455D03*
X27312Y20545D03*
X27418Y11388D03*
Y19612D03*
Y11154D03*
Y19846D03*
X27419Y11855D03*
Y19145D03*
Y10687D03*
X27424Y10921D03*
Y20079D03*
X27481Y10455D03*
Y20375D03*
X27651Y10625D03*
Y10865D03*
Y11172D03*
Y11447D03*
Y11712D03*
Y18979D03*
Y19338D03*
Y19613D03*
Y19898D03*
Y20205D03*
G54D25*
X18500Y12248D03*
Y12631D03*
Y13013D03*
Y13396D03*
Y13778D03*
Y14161D03*
Y14544D03*
Y14926D03*
Y15309D03*
Y15691D03*
Y16074D03*
Y16457D03*
Y16839D03*
Y17222D03*
Y17604D03*
Y17987D03*
Y18370D03*
Y18752D03*
X18642Y12439D03*
Y12822D03*
Y13204D03*
Y13587D03*
Y13970D03*
Y14352D03*
Y14735D03*
Y15117D03*
Y15500D03*
Y15883D03*
Y16265D03*
Y16648D03*
Y17030D03*
Y17413D03*
Y17796D03*
Y18178D03*
Y18561D03*
X18658Y12076D03*
Y18924D03*
X18776Y12631D03*
Y13013D03*
Y13396D03*
Y13778D03*
Y14161D03*
Y14544D03*
Y14926D03*
Y16074D03*
Y16457D03*
Y16839D03*
Y17222D03*
Y17604D03*
Y17987D03*
Y18370D03*
X18781Y15311D03*
Y15689D03*
X18919Y15500D03*
X19712Y10804D03*
Y20196D03*
X19939Y10748D03*
Y20252D03*
X20131Y10607D03*
Y10882D03*
Y20118D03*
Y20393D03*
X20322Y10748D03*
Y20252D03*
X20513Y10607D03*
Y10882D03*
Y20118D03*
Y20393D03*
X20704Y10748D03*
Y20252D03*
X20896Y10607D03*
Y10882D03*
Y20118D03*
Y20393D03*
X21087Y10748D03*
Y20252D03*
X21278Y10607D03*
Y10882D03*
Y20118D03*
Y20393D03*
X21470Y10748D03*
Y20252D03*
X21661Y10607D03*
Y10882D03*
Y20118D03*
Y20393D03*
X21852Y10748D03*
Y20252D03*
X22044Y10607D03*
Y10882D03*
Y20118D03*
Y20393D03*
X22235Y10748D03*
Y20252D03*
X22426Y10607D03*
Y10882D03*
Y20118D03*
Y20393D03*
X22617Y10748D03*
Y20252D03*
X22809Y10607D03*
Y20393D03*
X22811Y10888D03*
Y20112D03*
X23000Y10748D03*
Y11025D03*
Y19975D03*
Y20252D03*
X23189Y10888D03*
Y20112D03*
X23191Y10607D03*
Y20393D03*
X23383Y10748D03*
Y20252D03*
X23574Y10607D03*
Y10882D03*
Y20118D03*
Y20393D03*
X23765Y10748D03*
Y20252D03*
X23957Y10607D03*
Y10882D03*
Y20118D03*
Y20393D03*
X24148Y10748D03*
Y20252D03*
X24339Y10607D03*
Y10882D03*
Y20118D03*
Y20393D03*
X24530Y10748D03*
Y20252D03*
X24722Y10607D03*
Y10882D03*
Y20118D03*
Y20393D03*
X24913Y10748D03*
Y20252D03*
X25104Y10607D03*
Y10882D03*
Y20118D03*
Y20393D03*
X25296Y10748D03*
Y20252D03*
X25487Y10607D03*
Y10882D03*
Y20118D03*
Y20393D03*
X25678Y10748D03*
Y20252D03*
X25870Y10607D03*
Y10882D03*
Y20118D03*
Y20393D03*
X26061Y10748D03*
Y20252D03*
X26288Y10804D03*
Y20196D03*
X27081Y15500D03*
X27219Y15311D03*
Y15689D03*
X27224Y12631D03*
Y13013D03*
Y13396D03*
Y13778D03*
Y14161D03*
Y14544D03*
Y14926D03*
Y16074D03*
Y16457D03*
Y16839D03*
Y17222D03*
Y17604D03*
Y17987D03*
Y18370D03*
X27342Y12076D03*
Y18924D03*
X27359Y12439D03*
Y12822D03*
Y13204D03*
Y13587D03*
Y13970D03*
Y14352D03*
Y14735D03*
Y15117D03*
Y15500D03*
Y15883D03*
Y16265D03*
Y16648D03*
Y17030D03*
Y17413D03*
Y17796D03*
Y18178D03*
Y18561D03*
X27500Y12248D03*
Y12631D03*
Y13013D03*
Y13396D03*
Y13778D03*
Y14161D03*
Y14544D03*
Y14926D03*
Y15309D03*
Y15691D03*
Y16074D03*
Y16457D03*
Y16839D03*
Y17222D03*
Y17604D03*
Y17987D03*
Y18370D03*
Y18752D03*
G54D26*
X19939Y10455D03*
Y20545D03*
X20322Y10455D03*
Y20545D03*
X20704Y10455D03*
Y20545D03*
X21087Y10455D03*
Y20545D03*
X21470Y10455D03*
Y20545D03*
X21852Y10455D03*
Y20545D03*
X22235Y10455D03*
Y20545D03*
X22617Y10455D03*
Y20545D03*
X23000Y10455D03*
Y20545D03*
X23383Y10455D03*
Y20545D03*
X23765Y10455D03*
Y20545D03*
X24148Y10455D03*
Y20545D03*
X24530Y10455D03*
Y20545D03*
X24913Y10455D03*
Y20545D03*
X25296Y10455D03*
Y20545D03*
X25678Y10455D03*
Y20545D03*
X26061Y10455D03*
G54D27*
X21302Y13411D03*
Y13709D03*
Y14008D03*
Y14306D03*
Y14605D03*
Y14903D03*
Y15202D03*
Y15500D03*
Y15799D03*
Y16097D03*
Y16396D03*
Y16694D03*
Y16993D03*
Y17291D03*
Y17590D03*
X21610Y13411D03*
Y13709D03*
Y14008D03*
Y14306D03*
Y14605D03*
Y14903D03*
Y15202D03*
Y15500D03*
Y15799D03*
Y16097D03*
Y16396D03*
Y16694D03*
Y16993D03*
Y17291D03*
Y17590D03*
X21919Y13411D03*
Y13709D03*
Y14008D03*
Y14306D03*
Y14605D03*
Y14903D03*
Y15202D03*
Y15500D03*
Y15799D03*
Y16097D03*
Y16396D03*
Y16694D03*
Y16993D03*
Y17291D03*
Y17590D03*
X22228Y13411D03*
Y13709D03*
Y14008D03*
Y14306D03*
Y14605D03*
Y14903D03*
Y15202D03*
Y15500D03*
Y15799D03*
Y16097D03*
Y16396D03*
Y16694D03*
Y16993D03*
Y17291D03*
Y17590D03*
X22537Y13411D03*
Y13709D03*
Y14008D03*
Y14306D03*
Y14605D03*
Y14903D03*
Y15202D03*
Y15500D03*
Y15799D03*
Y16097D03*
Y16396D03*
Y16694D03*
Y16993D03*
Y17291D03*
Y17590D03*
X22846Y13411D03*
Y13709D03*
Y14008D03*
Y14306D03*
Y14605D03*
Y14903D03*
Y15202D03*
Y15500D03*
Y15799D03*
Y16097D03*
Y16396D03*
Y16694D03*
Y16993D03*
Y17291D03*
Y17590D03*
X23154Y13411D03*
Y13709D03*
Y14008D03*
Y14306D03*
Y14605D03*
Y14903D03*
Y15202D03*
Y15500D03*
Y15799D03*
Y16097D03*
Y16396D03*
Y16694D03*
Y16993D03*
Y17291D03*
Y17590D03*
X23463Y13411D03*
Y13709D03*
Y14008D03*
Y14306D03*
Y14605D03*
Y14903D03*
Y15202D03*
Y15500D03*
Y15799D03*
Y16097D03*
Y16396D03*
Y16694D03*
Y16993D03*
Y17291D03*
Y17590D03*
X23772Y13411D03*
Y13709D03*
Y14008D03*
Y14306D03*
Y14605D03*
Y14903D03*
Y15202D03*
Y15500D03*
Y15799D03*
Y16097D03*
Y16396D03*
Y16694D03*
Y16993D03*
Y17291D03*
Y17590D03*
X24081Y13411D03*
Y13709D03*
Y14008D03*
Y14306D03*
Y14605D03*
Y14903D03*
Y15202D03*
Y15500D03*
Y15799D03*
Y16097D03*
Y16396D03*
Y16694D03*
Y16993D03*
Y17291D03*
Y17590D03*
X24390Y13411D03*
Y13709D03*
Y14008D03*
Y14306D03*
Y14605D03*
Y14903D03*
Y15202D03*
Y15500D03*
Y15799D03*
Y16097D03*
Y16396D03*
Y16694D03*
Y16993D03*
Y17291D03*
Y17590D03*
X24698Y13411D03*
Y13709D03*
Y14008D03*
Y14306D03*
Y14605D03*
Y14903D03*
Y15202D03*
Y15500D03*
Y15799D03*
Y16097D03*
Y16396D03*
Y16694D03*
Y16993D03*
Y17291D03*
Y17590D03*
G54D28*
X18349Y12057D03*
Y12439D03*
Y12822D03*
Y13204D03*
Y13587D03*
Y13970D03*
Y14352D03*
Y14735D03*
Y15117D03*
Y15500D03*
Y15883D03*
Y16265D03*
Y16648D03*
Y17030D03*
Y17413D03*
Y17796D03*
Y18178D03*
Y18561D03*
Y18943D03*
X27651Y12057D03*
Y12439D03*
Y12822D03*
Y13204D03*
Y13587D03*
Y13970D03*
Y14352D03*
Y14735D03*
Y15117D03*
Y15500D03*
Y15883D03*
Y16265D03*
Y16648D03*
Y17030D03*
Y17413D03*
Y17796D03*
Y18178D03*
Y18561D03*
G54D29*
X29350Y18900D03*
Y19500D03*
G54D30*
X14255Y21985D03*
Y22143D03*
Y22300D03*
Y22458D03*
Y22615D03*
X14846Y22143D03*
Y22300D03*
Y22458D03*
Y22615D03*
X28039Y22219D03*
Y22376D03*
Y22534D03*
Y22691D03*
Y22849D03*
X28629Y22376D03*
Y22534D03*
Y22691D03*
Y22849D03*
X32976Y11002D03*
Y11160D03*
Y11317D03*
Y11475D03*
Y11632D03*
X33566Y11160D03*
Y11317D03*
Y11475D03*
Y11632D03*
G54D31*
X5300Y9700D03*
X5900D03*
X6900Y13000D03*
X7450Y22250D03*
Y24750D03*
X7500Y13000D03*
X8050Y22250D03*
Y24750D03*
X9400Y6600D03*
Y7200D03*
X9450Y24750D03*
X9650Y17700D03*
X10000Y6600D03*
Y7200D03*
X10050Y24750D03*
X10250Y17700D03*
X11950Y4500D03*
X12550D03*
X14950Y5800D03*
X15550D03*
X35283Y9225D03*
Y8705D03*
X35883Y9225D03*
Y8705D03*
G54D32*
X674Y23030D03*
Y25470D03*
X1997Y23032D03*
Y25470D03*
G54D33*
X2068Y23620D03*
Y23778D03*
Y23935D03*
Y24093D03*
Y24250D03*
Y24407D03*
Y24565D03*
Y24722D03*
Y24880D03*
G54D34*
X2550Y23541D03*
Y23699D03*
Y23856D03*
Y24014D03*
Y24171D03*
Y24329D03*
Y24486D03*
Y24644D03*
Y24801D03*
Y24959D03*
G54D35*
X8750Y21900D03*
Y22600D03*
Y24400D03*
Y25100D03*
X16250Y4650D03*
Y5350D03*
X17250Y4650D03*
Y5350D03*
X33351Y4828D03*
Y5528D03*
X34212Y9087D03*
Y9787D03*
X34364Y4825D03*
Y5525D03*
X35331Y4827D03*
Y5527D03*
G54D36*
X34105Y6019D03*
Y8249D03*
X34605Y6019D03*
Y8249D03*
X35105Y6019D03*
Y8249D03*
X35605Y6019D03*
Y8249D03*
G54D37*
X34857Y6926D03*
G54D38*
X950Y7390D03*
Y9610D03*
X1450Y7390D03*
Y9610D03*
X1950Y7390D03*
Y9610D03*
X2450Y7390D03*
Y9610D03*
X3250Y7390D03*
Y9610D03*
X3750Y7390D03*
Y9610D03*
X4250Y7390D03*
Y9610D03*
X4750Y7390D03*
Y9610D03*
G54D39*
X1800Y12750D03*
X2700Y12350D03*
Y13150D03*
X5300Y3250D03*
X6200Y2850D03*
Y3650D03*
X7800Y4600D03*
Y5400D03*
X8700Y5000D03*
X13350D03*
X13450Y18350D03*
X13850Y17450D03*
X14250Y4600D03*
Y5400D03*
Y18350D03*
X28950Y24300D03*
X29350Y23400D03*
X29750Y24300D03*
G54D40*
X30972Y17242D03*
Y17982D03*
X31228D03*
X31484D03*
Y17242D03*
G54D41*
X950Y14580D03*
Y19920D03*
X1150Y11600D03*
X1750Y14580D03*
Y19920D03*
X3150Y10400D03*
X5150Y11600D03*
X33500Y27500D03*
G54D42*
X7425Y27700D03*
X8075D03*
X13425D03*
X14075D03*
G54D43*
X7494Y19176D03*
Y19924D03*
X7750Y19176D03*
Y19924D03*
X8006Y19176D03*
Y19924D03*
X11994Y6626D03*
Y7374D03*
X12250Y6626D03*
Y7374D03*
X12506Y6626D03*
Y7374D03*
G54D44*
X12420Y10750D03*
Y12750D03*
Y14550D03*
X14880Y10750D03*
Y12750D03*
Y14550D03*
G54D45*
X9340Y2895D03*
Y3486D03*
X9498Y2895D03*
Y3486D03*
X9655Y2895D03*
Y3486D03*
X9813Y2895D03*
Y3486D03*
X9970Y2895D03*
X10645D03*
Y3486D03*
X10803Y2895D03*
Y3486D03*
X10960Y2895D03*
Y3486D03*
X11118Y2895D03*
Y3486D03*
X11275Y2895D03*
X11950D03*
Y3486D03*
X12108Y2895D03*
Y3486D03*
X12265Y2895D03*
Y3486D03*
X12423Y2895D03*
Y3486D03*
X12580Y2895D03*
X14850D03*
Y3486D03*
X15008Y2895D03*
Y3486D03*
X15165Y2895D03*
Y3486D03*
X15323Y2895D03*
Y3486D03*
X15480Y2895D03*
X16000D03*
Y3486D03*
X16158Y2895D03*
Y3486D03*
X16315Y2895D03*
Y3486D03*
X16473Y2895D03*
Y3486D03*
X16630Y2895D03*
X17150D03*
Y3486D03*
X17308Y2895D03*
Y3486D03*
X17465Y2895D03*
Y3486D03*
X17623Y2895D03*
Y3486D03*
X17780Y2895D03*
G54D46*
X9331Y3190D03*
X9980D03*
X10636D03*
X11285D03*
X11941D03*
X12590D03*
X14841D03*
X15490D03*
X15991D03*
X16640D03*
X17141D03*
X17790D03*
G54D47*
X9990Y3486D03*
X11295D03*
X12600D03*
X15500D03*
X16650D03*
X17800D03*
G54D48*
X37124Y19893D03*
Y25607D03*
X37400Y19893D03*
Y25607D03*
X37675Y19893D03*
Y25607D03*
X37951Y19893D03*
Y25607D03*
G54D49*
X33191Y20398D03*
Y24236D03*
G54D50*
X34118Y19896D03*
X34630Y25604D03*
G54D51*
X38449Y19917D03*
Y25583D03*
G54D52*
X32995Y21402D03*
Y23764D03*
G54D53*
X19740Y2138D03*
Y2453D03*
Y2768D03*
Y3083D03*
Y3398D03*
Y3713D03*
Y4028D03*
Y4343D03*
Y4658D03*
Y4972D03*
Y5287D03*
Y5602D03*
Y5917D03*
Y6232D03*
Y6547D03*
Y6862D03*
X20055Y2138D03*
Y2453D03*
Y2768D03*
Y3083D03*
Y3398D03*
Y3713D03*
Y4028D03*
Y4343D03*
Y4658D03*
Y4972D03*
Y5287D03*
Y5602D03*
Y5917D03*
Y6232D03*
Y6547D03*
Y6862D03*
X20370Y2138D03*
Y2453D03*
Y2768D03*
Y3083D03*
Y3398D03*
Y3713D03*
Y4028D03*
Y4343D03*
Y4658D03*
Y4972D03*
Y5287D03*
Y5602D03*
Y5917D03*
Y6232D03*
Y6547D03*
Y6862D03*
X21630Y2138D03*
Y2453D03*
Y2768D03*
Y3083D03*
Y3398D03*
Y3713D03*
Y4028D03*
Y4343D03*
Y4658D03*
Y4972D03*
Y5287D03*
Y5602D03*
Y5917D03*
Y6232D03*
Y6547D03*
Y6862D03*
X21945Y2138D03*
Y2453D03*
Y2768D03*
Y3083D03*
Y3398D03*
Y3713D03*
Y4028D03*
Y4343D03*
Y4658D03*
Y4972D03*
Y5287D03*
Y5602D03*
Y5917D03*
Y6232D03*
Y6547D03*
Y6862D03*
X22260Y2138D03*
Y2453D03*
Y2768D03*
Y3083D03*
Y3398D03*
Y3713D03*
Y4028D03*
Y4343D03*
Y4658D03*
Y4972D03*
Y5287D03*
Y5602D03*
Y5917D03*
Y6232D03*
Y6547D03*
Y6862D03*
X28490Y2138D03*
Y2453D03*
Y2768D03*
Y3083D03*
Y3398D03*
Y3713D03*
Y4028D03*
Y4343D03*
Y4658D03*
Y4972D03*
Y5287D03*
Y5602D03*
Y5917D03*
Y6232D03*
Y6547D03*
Y6862D03*
X28805Y2138D03*
Y2453D03*
Y2768D03*
Y3083D03*
Y3398D03*
Y3713D03*
Y4028D03*
Y4343D03*
Y4658D03*
Y4972D03*
Y5287D03*
Y5602D03*
Y5917D03*
Y6232D03*
Y6547D03*
Y6862D03*
X29120Y2138D03*
Y2453D03*
Y2768D03*
Y3083D03*
Y3398D03*
Y3713D03*
Y4028D03*
Y4343D03*
Y4658D03*
Y4972D03*
Y5287D03*
Y5602D03*
Y5917D03*
Y6232D03*
Y6547D03*
Y6862D03*
X30380Y2138D03*
Y2453D03*
Y2768D03*
Y3083D03*
Y3398D03*
Y3713D03*
Y4028D03*
Y4343D03*
Y4658D03*
Y4972D03*
Y5287D03*
Y5602D03*
Y5917D03*
Y6232D03*
Y6547D03*
Y6862D03*
X30695Y2138D03*
Y2453D03*
Y2768D03*
Y3083D03*
Y3398D03*
Y3713D03*
Y4028D03*
Y4343D03*
Y4658D03*
Y4972D03*
Y5287D03*
Y5602D03*
Y5917D03*
Y6232D03*
Y6547D03*
Y6862D03*
X31010Y2138D03*
Y2453D03*
Y2768D03*
Y3083D03*
Y3398D03*
Y3713D03*
Y4028D03*
Y4343D03*
Y4658D03*
Y4972D03*
Y5287D03*
Y5602D03*
Y5917D03*
Y6232D03*
Y6547D03*
Y6862D03*
G54D54*
X6000Y4450D03*
Y5550D03*
G54D55*
X5780Y7500D03*
X8221D03*
G54D56*
X31577Y13803D03*
Y14000D03*
Y14197D03*
Y15053D03*
Y15250D03*
Y15447D03*
X31923Y13803D03*
Y14000D03*
Y14197D03*
Y15053D03*
Y15250D03*
Y15447D03*
G54D57*
X3937Y12750D03*
X4763Y12376D03*
Y13124D03*
G54D58*
X23340Y22407D03*
Y22604D03*
X23832Y22407D03*
Y22604D03*
X25266Y22407D03*
Y22604D03*
X25758Y22407D03*
Y22604D03*
G54D59*
X23340Y22201D03*
X23832D03*
Y22811D03*
X25266Y22201D03*
X25758D03*
Y22811D03*
G54D60*
X23348D03*
X25273D03*
G54D61*
X13177Y2866D03*
Y3063D03*
Y3260D03*
Y3457D03*
X14257Y2866D03*
Y3063D03*
Y3260D03*
Y3457D03*
G54D62*
X34168Y1281D03*
Y3742D03*
G54D63*
X37256Y5770D03*
Y8211D03*
G54D64*
X32551Y26750D03*
G54D65*
X21449D03*
G54D66*
X3890Y22592D03*
Y22848D03*
Y23104D03*
Y23360D03*
Y23616D03*
Y23872D03*
Y24128D03*
Y24384D03*
Y24640D03*
Y24896D03*
Y25152D03*
Y25408D03*
X6110Y22592D03*
Y22848D03*
Y23104D03*
Y23360D03*
Y23616D03*
Y23872D03*
Y24128D03*
Y24384D03*
Y24640D03*
Y24896D03*
Y25152D03*
Y25408D03*
G54D67*
X11175Y24250D03*
Y24750D03*
Y25250D03*
Y25750D03*
X13825Y24250D03*
Y24750D03*
Y25250D03*
Y25750D03*
G54D68*
X3670Y3110D03*
G54D69*
X2390Y5000D03*
G54D70*
X33228Y13413D03*
Y18587D03*
X35465Y13413D03*
Y18587D03*
G54D71*
X5250Y15000D03*
Y16000D03*
Y17000D03*
Y18000D03*
Y19000D03*
X6250Y15500D03*
Y16500D03*
Y17500D03*
Y18500D03*
Y19500D03*
X33417Y14622D03*
Y15606D03*
Y16394D03*
Y17378D03*
X34087Y14425D03*
Y15213D03*
Y16000D03*
Y16787D03*
Y17575D03*
X34677Y14622D03*
Y15606D03*
Y16394D03*
Y17378D03*
G54D72*
X14846Y21966D03*
X28629Y22199D03*
X33566Y10982D03*
G54D73*
X14551Y21975D03*
Y22625D03*
X28334Y22209D03*
Y22859D03*
X33271Y10992D03*
Y11642D03*
G54D74*
X4850Y5000D03*
G54D75*
X6943Y9388D03*
X7081Y10412D03*
X7219Y9388D03*
X7357Y10412D03*
G54D76*
X6599Y9585D03*
Y9743D03*
Y9900D03*
Y10058D03*
Y10215D03*
X7701Y9585D03*
Y9743D03*
Y9900D03*
Y10058D03*
Y10215D03*
G54D77*
X6979Y9900D03*
X7254D03*
G54D78*
X34500Y27500D03*
G54D79*
X26376Y26658D03*
Y27642D03*
X26750D03*
X27124Y26658D03*
Y27642D03*
G54D80*
X37650Y9767D03*
Y10633D03*
G54D81*
X2750Y15000D03*
Y19500D03*
G54D82*
X3950Y14200D03*
Y20300D03*
G54D83*
X600Y22000D03*
X2400D03*
M02*
