M48
INCH
T01C0.0157
T02C0.0354
%
T01
X+021319Y+007110
X+021794Y+007112
X+021794Y+005147
X+021210Y+005142
X+015009Y+011311
X+014862Y+012248
X+014597Y+013245
X+014217Y+013949
X+014104Y+014950
X+014108Y+016113
X+013874Y+016951
X+006071Y+005563
T02
X+015642Y+008937
X+015642Y+009937
X+015642Y+010937
X+015626Y+011937
X+015642Y+012937
X+015642Y+013937
X+015642Y+014937
X+015642Y+015937
X+015642Y+016937
X+015642Y+017937
X+015642Y+018937
X+015642Y+019937
X+015642Y+020937
X+012642Y+020937
X+012642Y+019937
X+012642Y+018937
X+012642Y+017937
X+012642Y+016937
X+012642Y+015937
X+012642Y+014937
X+012642Y+013937
X+012642Y+012937
X+012642Y+011937
X+012642Y+010937
X+012642Y+009937
X+012642Y+008937
X+012174Y+006312
X+011174Y+006312
X+010174Y+006312
X+009174Y+006312
X+008174Y+006312
X+008174Y+005312
X+009174Y+005312
X+010174Y+005312
X+011174Y+005312
X+012174Y+005312
X+013174Y+005312
X+014174Y+005312
X+015174Y+005312
X+015174Y+006312
X+014174Y+006312
X+013174Y+006312
X+016174Y+006312
X+017174Y+006312
X+018174Y+006312
X+019174Y+006312
X+020174Y+006312
X+020174Y+005312
X+019174Y+005312
X+018174Y+005312
X+017174Y+005312
X+016174Y+005312
T00
M30
