G04 DipTrace 3.0.0.2*
G04 TopDimension.gbr*
%MOIN*%
G04 #@! TF.FileFunction,Drawing,Top*
G04 #@! TF.Part,Single*
%ADD13C,0.0015*%
%ADD42C,0.006176*%
%FSLAX26Y26*%
G04*
G70*
G90*
G75*
G01*
G04 TopDimension*
%LPD*%
X1417441Y631221D2*
D13*
Y139633D1*
X393701Y393701D2*
Y139633D1*
X905571Y159318D2*
X1378071D1*
G36*
X1417441D2*
X1378071Y151444D1*
Y167192D1*
X1417441Y159318D1*
G37*
X905571D2*
D13*
X433071D1*
G36*
X393701D2*
X433071Y167192D1*
Y151444D1*
X393701Y159318D1*
G37*
X1417441Y631221D2*
D13*
Y140814D1*
X2440945Y393701D2*
Y140814D1*
X1929193Y160499D2*
X1456811D1*
G36*
X1417441D2*
X1456811Y168373D1*
Y152625D1*
X1417441Y160499D1*
G37*
X1929193D2*
D13*
X2401575D1*
G36*
X2440945D2*
X2401575Y152625D1*
Y168373D1*
X2440945Y160499D1*
G37*
X1267310Y2021391D2*
D13*
Y2326641D1*
X1567310Y2021391D2*
Y2326641D1*
X1417310Y2306956D2*
X1306680D1*
G36*
X1267310D2*
X1306680Y2314830D1*
Y2299082D1*
X1267310Y2306956D1*
G37*
X1417310D2*
D13*
X1527940D1*
G36*
X1567310D2*
X1527940Y2299082D1*
Y2314830D1*
X1567310Y2306956D1*
G37*
X2367047Y921378D2*
D13*
Y2143439D1*
X467612Y921260D2*
Y2143439D1*
X1417330Y2123753D2*
X2327677D1*
G36*
X2367047D2*
X2327677Y2115879D1*
Y2131628D1*
X2367047Y2123753D1*
G37*
X1417330D2*
D13*
X506982D1*
G36*
X467612D2*
X506982Y2131628D1*
Y2115879D1*
X467612Y2123753D1*
G37*
X1567310Y2021391D2*
D13*
Y2291732D1*
X1673229Y2244095D2*
Y2291732D1*
X1620269Y2272047D2*
X1606680D1*
G36*
X1567310D2*
X1606680Y2279921D1*
Y2264173D1*
X1567310Y2272047D1*
G37*
X1620269D2*
D13*
X1633858D1*
G36*
X1673229D2*
X1633858Y2264173D1*
Y2279921D1*
X1673229Y2272047D1*
G37*
X1853929D2*
D13*
X1673229D1*
X1267310Y2021391D2*
Y2269948D1*
X1161418Y2244095D2*
Y2269948D1*
X1214364Y2250263D2*
X1227940D1*
G36*
X1267310D2*
X1227940Y2242389D1*
Y2258137D1*
X1267310Y2250263D1*
G37*
X1214364D2*
D13*
X1200788D1*
G36*
X1161418D2*
X1200788Y2258137D1*
Y2242389D1*
X1161418Y2250263D1*
G37*
X1448010D2*
D13*
X1267310D1*
X467612Y921260D2*
X143439D1*
X1267310Y1021391D2*
X143439D1*
X163124Y971326D2*
Y960630D1*
G36*
Y921260D2*
X155250Y960630D1*
X170998D1*
X163124Y921260D1*
G37*
Y971326D2*
D13*
Y982021D1*
G36*
Y1021391D2*
X170998Y982021D1*
X155250D1*
X163124Y1021391D1*
G37*
Y1186793D2*
D13*
Y1021391D1*
X2290958Y493688D2*
X2739239D1*
X393701Y393701D2*
X2739239D1*
X2719554Y493688D2*
Y393701D1*
Y552743D2*
Y533058D1*
G36*
Y493688D2*
X2711680Y533058D1*
X2727428D1*
X2719554Y493688D1*
G37*
Y334646D2*
D13*
Y354331D1*
G36*
Y393701D2*
X2727428Y354331D1*
X2711680D1*
X2719554Y393701D1*
G37*
X543688Y493688D2*
D13*
X233334D1*
X2440945Y393701D2*
X233334D1*
X253019Y493688D2*
Y393701D1*
Y552743D2*
Y533058D1*
G36*
Y493688D2*
X245145Y533058D1*
X260893D1*
X253019Y493688D1*
G37*
Y334646D2*
D13*
Y354331D1*
G36*
Y393701D2*
X260893Y354331D1*
X245145D1*
X253019Y393701D1*
G37*
X1161418Y2244095D2*
D13*
Y2479790D1*
X1673229Y2244095D2*
Y2479790D1*
X1417323Y2460105D2*
X1200788D1*
G36*
X1161418D2*
X1200788Y2467979D1*
Y2452231D1*
X1161418Y2460105D1*
G37*
X1417323D2*
D13*
X1633858D1*
G36*
X1673229D2*
X1633858Y2452231D1*
Y2467979D1*
X1673229Y2460105D1*
G37*
X1567310Y1021391D2*
D13*
Y237795D1*
X1417441Y531221D2*
Y237795D1*
Y257481D2*
X1567310D1*
X1358386D2*
X1378071D1*
G36*
X1417441D2*
X1378071Y249607D1*
Y265355D1*
X1417441Y257481D1*
G37*
X1626365D2*
D13*
X1606680D1*
G36*
X1567310D2*
X1606680Y265355D1*
Y249607D1*
X1567310Y257481D1*
G37*
X1417441Y531221D2*
D13*
Y235958D1*
X1267310Y1021391D2*
Y235958D1*
Y255643D2*
X1417441D1*
X1208255D2*
X1227940D1*
G36*
X1267310D2*
X1227940Y247769D1*
Y263517D1*
X1267310Y255643D1*
G37*
X1476496D2*
D13*
X1456811D1*
G36*
X1417441D2*
X1456811Y263517D1*
Y247769D1*
X1417441Y255643D1*
G37*
X468885Y493688D2*
D13*
Y276641D1*
X393701Y393701D2*
Y276641D1*
Y296326D2*
X468885D1*
X334646D2*
X354331D1*
G36*
X393701D2*
X354331Y288452D1*
Y304200D1*
X393701Y296326D1*
G37*
X527940D2*
D13*
X508255D1*
G36*
X468885D2*
X508255Y304200D1*
Y288452D1*
X468885Y296326D1*
G37*
X629540D2*
D13*
X468885D1*
X2365761Y493688D2*
Y252756D1*
X2440945Y393701D2*
Y252756D1*
X2365761Y272441D2*
X2440945D1*
X2306706D2*
X2326391D1*
G36*
X2365761D2*
X2326391Y264567D1*
Y280315D1*
X2365761Y272441D1*
G37*
X2500000D2*
D13*
X2480315D1*
G36*
X2440945D2*
X2480315Y280315D1*
Y264567D1*
X2440945Y272441D1*
G37*
X2601600D2*
D13*
X2440945D1*
X486089Y734383D2*
Y884383D1*
X393701Y826772D2*
Y884383D1*
Y864698D2*
X486089D1*
X334646D2*
X354331D1*
G36*
X393701D2*
X354331Y856824D1*
Y872572D1*
X393701Y864698D1*
G37*
X545145D2*
D13*
X525460D1*
G36*
X486089D2*
X525460Y872572D1*
Y856824D1*
X486089Y864698D1*
G37*
X646744D2*
D13*
X486089D1*
Y734383D2*
X304331D1*
X393701Y826772D2*
X304331D1*
X324016D2*
Y734383D1*
Y885827D2*
Y866142D1*
G36*
Y826772D2*
X316142Y866142D1*
X331890D1*
X324016Y826772D1*
G37*
Y675328D2*
D13*
Y695013D1*
G36*
Y734383D2*
X331890Y695013D1*
X316142D1*
X324016Y734383D1*
G37*
Y987427D2*
D13*
Y826772D1*
X2348557Y734383D2*
Y935171D1*
X2440945Y826772D2*
Y935171D1*
X2348557Y915486D2*
X2440945D1*
X2289502D2*
X2309187D1*
G36*
X2348557D2*
X2309187Y907612D1*
Y923360D1*
X2348557Y915486D1*
G37*
X2500000D2*
D13*
X2480315D1*
G36*
X2440945D2*
X2480315Y923360D1*
Y907612D1*
X2440945Y915486D1*
G37*
X2601600D2*
D13*
X2440945D1*
X2348557Y734383D2*
X2562074D1*
X2440945Y826772D2*
X2562074D1*
X2542389D2*
Y734383D1*
Y885827D2*
Y866142D1*
G36*
Y826772D2*
X2534515Y866142D1*
X2550263D1*
X2542389Y826772D1*
G37*
Y675328D2*
D13*
Y695013D1*
G36*
Y734383D2*
X2550263Y695013D1*
X2534515D1*
X2542389Y734383D1*
G37*
Y573728D2*
D13*
Y826772D1*
X1417323Y2172966D2*
Y2570735D1*
X1673229Y2244095D2*
Y2570735D1*
X1417323Y2551050D2*
X1673229D1*
X1358268D2*
X1377953D1*
G36*
X1417323D2*
X1377953Y2543176D1*
Y2558924D1*
X1417323Y2551050D1*
G37*
X1732284D2*
D13*
X1712599D1*
G36*
X1673229D2*
X1712599Y2558924D1*
Y2543176D1*
X1673229Y2551050D1*
G37*
X1417323Y2172966D2*
D13*
Y2571785D1*
X1161418Y2244095D2*
Y2571785D1*
Y2552100D2*
X1417323D1*
X1102362D2*
X1122047D1*
G36*
X1161418D2*
X1122047Y2544226D1*
Y2559974D1*
X1161418Y2552100D1*
G37*
X1476378D2*
D13*
X1456693D1*
G36*
X1417323D2*
X1456693Y2559974D1*
Y2544226D1*
X1417323Y2552100D1*
G37*
X817470Y204027D2*
D42*
X821317Y205973D1*
X827065Y211676D1*
Y171529D1*
X850913Y211676D2*
X845165Y209775D1*
X841318Y204027D1*
X839417Y194476D1*
Y188728D1*
X841318Y179178D1*
X845165Y173430D1*
X850913Y171529D1*
X854715D1*
X860463Y173430D1*
X864266Y179178D1*
X866211Y188728D1*
Y194476D1*
X864266Y204027D1*
X860463Y209775D1*
X854715Y211676D1*
X850913D1*
X864266Y204027D2*
X841318Y179178D1*
X880508Y202126D2*
Y204027D1*
X882409Y207874D1*
X884311Y209775D1*
X888157Y211676D1*
X895807D1*
X899609Y209775D1*
X901510Y207874D1*
X903456Y204027D1*
Y200224D1*
X901510Y196378D1*
X897708Y190674D1*
X878563Y171529D1*
X905357D1*
X921555Y211676D2*
X942558D1*
X931106Y196378D1*
X936854D1*
X940657Y194476D1*
X942558Y192575D1*
X944503Y186827D1*
Y183025D1*
X942558Y177277D1*
X938755Y173430D1*
X933007Y171529D1*
X927259D1*
X921555Y173430D1*
X919654Y175375D1*
X917709Y179178D1*
X958756Y175375D2*
X956855Y173430D1*
X958756Y171529D1*
X960701Y173430D1*
X958756Y175375D1*
X980702Y171529D2*
X999848Y211676D1*
X973053D1*
X1841092Y205208D2*
X1844939Y207154D1*
X1850687Y212857D1*
Y172710D1*
X1874535Y212857D2*
X1868787Y210956D1*
X1864940Y205208D1*
X1863039Y195658D1*
Y189910D1*
X1864940Y180359D1*
X1868787Y174611D1*
X1874535Y172710D1*
X1878337D1*
X1884085Y174611D1*
X1887888Y180359D1*
X1889833Y189910D1*
Y195658D1*
X1887888Y205208D1*
X1884085Y210956D1*
X1878337Y212857D1*
X1874535D1*
X1887888Y205208D2*
X1864940Y180359D1*
X1904130Y203307D2*
Y205208D1*
X1906031Y209055D1*
X1907933Y210956D1*
X1911779Y212857D1*
X1919429D1*
X1923231Y210956D1*
X1925133Y209055D1*
X1927078Y205208D1*
Y201406D1*
X1925133Y197559D1*
X1921330Y191855D1*
X1902185Y172710D1*
X1928979D1*
X1945177Y212857D2*
X1966180D1*
X1954728Y197559D1*
X1960476D1*
X1964279Y195658D1*
X1966180Y193756D1*
X1968125Y188008D1*
Y184206D1*
X1966180Y178458D1*
X1962377Y174611D1*
X1956629Y172710D1*
X1950881D1*
X1945177Y174611D1*
X1943276Y176556D1*
X1941331Y180359D1*
X1982378Y176556D2*
X1980477Y174611D1*
X1982378Y172710D1*
X1984324Y174611D1*
X1982378Y176556D1*
X2019623Y212857D2*
X2000522D1*
X1998620Y195658D1*
X2000522Y197559D1*
X2006270Y199504D1*
X2011974D1*
X2017722Y197559D1*
X2021568Y193756D1*
X2023470Y188008D1*
Y184206D1*
X2021568Y178458D1*
X2017722Y174611D1*
X2011974Y172710D1*
X2006270D1*
X2000522Y174611D1*
X1998620Y176556D1*
X1996675Y180359D1*
X1371701Y2359314D2*
X1392704D1*
X1381252Y2344016D1*
X1387000D1*
X1390802Y2342114D1*
X1392704Y2340213D1*
X1394649Y2334465D1*
Y2330662D1*
X1392704Y2324914D1*
X1388901Y2321068D1*
X1383153Y2319166D1*
X1377405D1*
X1371701Y2321068D1*
X1369800Y2323013D1*
X1367854Y2326816D1*
X1418497Y2359314D2*
X1412748Y2357413D1*
X1408902Y2351665D1*
X1407000Y2342114D1*
Y2336366D1*
X1408902Y2326816D1*
X1412748Y2321068D1*
X1418497Y2319166D1*
X1422299D1*
X1428047Y2321068D1*
X1431850Y2326816D1*
X1433795Y2336366D1*
Y2342114D1*
X1431850Y2351665D1*
X1428047Y2357413D1*
X1422299Y2359314D1*
X1418497D1*
X1431850Y2351665D2*
X1408902Y2326816D1*
X1457643Y2359314D2*
X1451895Y2357413D1*
X1448048Y2351665D1*
X1446147Y2342114D1*
Y2336366D1*
X1448048Y2326816D1*
X1451895Y2321068D1*
X1457643Y2319166D1*
X1461445D1*
X1467193Y2321068D1*
X1470996Y2326816D1*
X1472941Y2336366D1*
Y2342114D1*
X1470996Y2351665D1*
X1467193Y2357413D1*
X1461445Y2359314D1*
X1457643D1*
X1470996Y2351665D2*
X1448048Y2326816D1*
X1330202Y2168463D2*
X1334048Y2170408D1*
X1339796Y2176112D1*
Y2135964D1*
X1361698Y2176112D2*
X1355995Y2174211D1*
X1354049Y2170408D1*
Y2166561D1*
X1355995Y2162759D1*
X1359797Y2160813D1*
X1367446Y2158912D1*
X1373194Y2157011D1*
X1376997Y2153164D1*
X1378898Y2149362D1*
Y2143614D1*
X1376997Y2139811D1*
X1375096Y2137866D1*
X1369348Y2135964D1*
X1361698D1*
X1355995Y2137866D1*
X1354049Y2139811D1*
X1352148Y2143614D1*
Y2149362D1*
X1354049Y2153164D1*
X1357896Y2157011D1*
X1363600Y2158912D1*
X1371249Y2160813D1*
X1375096Y2162759D1*
X1376997Y2166561D1*
Y2170408D1*
X1375096Y2174211D1*
X1369348Y2176112D1*
X1361698D1*
X1416143Y2162759D2*
X1414198Y2157011D1*
X1410395Y2153164D1*
X1404647Y2151263D1*
X1402746D1*
X1396998Y2153164D1*
X1393195Y2157011D1*
X1391250Y2162759D1*
Y2164660D1*
X1393195Y2170408D1*
X1396998Y2174211D1*
X1402746Y2176112D1*
X1404647D1*
X1410395Y2174211D1*
X1414198Y2170408D1*
X1416143Y2162759D1*
Y2153164D1*
X1414198Y2143614D1*
X1410395Y2137866D1*
X1404647Y2135964D1*
X1400844D1*
X1395096Y2137866D1*
X1393195Y2141712D1*
X1453388Y2162759D2*
X1451442Y2157011D1*
X1447640Y2153164D1*
X1441892Y2151263D1*
X1439990D1*
X1434242Y2153164D1*
X1430440Y2157011D1*
X1428494Y2162759D1*
Y2164660D1*
X1430440Y2170408D1*
X1434242Y2174211D1*
X1439990Y2176112D1*
X1441892D1*
X1447640Y2174211D1*
X1451442Y2170408D1*
X1453388Y2162759D1*
Y2153164D1*
X1451442Y2143614D1*
X1447640Y2137866D1*
X1441892Y2135964D1*
X1438089D1*
X1432341Y2137866D1*
X1430440Y2141712D1*
X1467640Y2139811D2*
X1465739Y2137866D1*
X1467640Y2135964D1*
X1469586Y2137866D1*
X1467640Y2139811D1*
X1501083Y2135964D2*
Y2176112D1*
X1481937Y2149362D1*
X1510633D1*
X1721862Y2316757D2*
X1725709Y2318702D1*
X1731457Y2324406D1*
Y2284258D1*
X1755304Y2324406D2*
X1749556Y2322505D1*
X1745710Y2316757D1*
X1743808Y2307206D1*
Y2301458D1*
X1745710Y2291908D1*
X1749556Y2286159D1*
X1755304Y2284258D1*
X1759107D1*
X1764855Y2286159D1*
X1768658Y2291908D1*
X1770603Y2301458D1*
Y2307206D1*
X1768658Y2316757D1*
X1764855Y2322505D1*
X1759107Y2324406D1*
X1755304D1*
X1768658Y2316757D2*
X1745710Y2291908D1*
X1805902Y2324406D2*
X1786801D1*
X1784900Y2307206D1*
X1786801Y2309107D1*
X1792549Y2311053D1*
X1798253D1*
X1804001Y2309107D1*
X1807848Y2305305D1*
X1809749Y2299557D1*
Y2295754D1*
X1807848Y2290006D1*
X1804001Y2286159D1*
X1798253Y2284258D1*
X1792549D1*
X1786801Y2286159D1*
X1784900Y2288105D1*
X1782954Y2291908D1*
X1824002Y2288105D2*
X1822101Y2286159D1*
X1824002Y2284258D1*
X1825947Y2286159D1*
X1824002Y2288105D1*
X1863192Y2311053D2*
X1861247Y2305305D1*
X1857444Y2301458D1*
X1851696Y2299557D1*
X1849795D1*
X1844047Y2301458D1*
X1840244Y2305305D1*
X1838299Y2311053D1*
Y2312954D1*
X1840244Y2318702D1*
X1844047Y2322505D1*
X1849795Y2324406D1*
X1851696D1*
X1857444Y2322505D1*
X1861247Y2318702D1*
X1863192Y2311053D1*
Y2301458D1*
X1861247Y2291908D1*
X1857444Y2286159D1*
X1851696Y2284258D1*
X1847893D1*
X1842145Y2286159D1*
X1840244Y2290006D1*
X1315944Y2294972D2*
X1319790Y2296917D1*
X1325538Y2302621D1*
Y2262473D1*
X1349386Y2302621D2*
X1343638Y2300720D1*
X1339791Y2294972D1*
X1337890Y2285421D1*
Y2279673D1*
X1339791Y2270123D1*
X1343638Y2264375D1*
X1349386Y2262473D1*
X1353188D1*
X1358936Y2264375D1*
X1362739Y2270123D1*
X1364684Y2279673D1*
Y2285421D1*
X1362739Y2294972D1*
X1358936Y2300720D1*
X1353188Y2302621D1*
X1349386D1*
X1362739Y2294972D2*
X1339791Y2270123D1*
X1399984Y2302621D2*
X1380883D1*
X1378981Y2285421D1*
X1380883Y2287323D1*
X1386631Y2289268D1*
X1392334D1*
X1398082Y2287323D1*
X1401929Y2283520D1*
X1403830Y2277772D1*
Y2273970D1*
X1401929Y2268221D1*
X1398082Y2264375D1*
X1392334Y2262473D1*
X1386631D1*
X1380883Y2264375D1*
X1378981Y2266320D1*
X1377036Y2270123D1*
X1418083Y2266320D2*
X1416182Y2264375D1*
X1418083Y2262473D1*
X1420029Y2264375D1*
X1418083Y2266320D1*
X1457273Y2289268D2*
X1455328Y2283520D1*
X1451525Y2279673D1*
X1445777Y2277772D1*
X1443876D1*
X1438128Y2279673D1*
X1434326Y2283520D1*
X1432380Y2289268D1*
Y2291169D1*
X1434326Y2296917D1*
X1438128Y2300720D1*
X1443876Y2302621D1*
X1445777D1*
X1451525Y2300720D1*
X1455328Y2296917D1*
X1457273Y2289268D1*
Y2279673D1*
X1455328Y2270123D1*
X1451525Y2264375D1*
X1445777Y2262473D1*
X1441975D1*
X1436227Y2264375D1*
X1434326Y2268221D1*
X118414Y1070025D2*
X116469Y1073872D1*
X110765Y1079620D1*
X150913D1*
X110765Y1103467D2*
X112666Y1097719D1*
X118414Y1093872D1*
X127965Y1091971D1*
X133713D1*
X143264Y1093872D1*
X149012Y1097719D1*
X150913Y1103467D1*
Y1107270D1*
X149012Y1113018D1*
X143264Y1116820D1*
X133713Y1118766D1*
X127965D1*
X118414Y1116820D1*
X112666Y1113018D1*
X110765Y1107270D1*
Y1103467D1*
X118414Y1116820D2*
X143264Y1093872D1*
X110765Y1142613D2*
X112666Y1136865D1*
X118414Y1133018D1*
X127965Y1131117D1*
X133713D1*
X143264Y1133018D1*
X149012Y1136865D1*
X150913Y1142613D1*
Y1146416D1*
X149012Y1152164D1*
X143264Y1155966D1*
X133713Y1157912D1*
X127965D1*
X118414Y1155966D1*
X112666Y1152164D1*
X110765Y1146416D1*
Y1142613D1*
X118414Y1155966D2*
X143264Y1133018D1*
X147066Y1172165D2*
X149012Y1170263D1*
X150913Y1172165D1*
X149012Y1174110D1*
X147066Y1172165D1*
X118414Y1186461D2*
X116469Y1190308D1*
X110765Y1196056D1*
X150913D1*
X2764263Y484550D2*
X2766209Y480703D1*
X2771913Y474955D1*
X2731765D1*
X2771913Y451108D2*
X2770011Y456856D1*
X2764263Y460703D1*
X2754713Y462604D1*
X2748965D1*
X2739414Y460703D1*
X2733666Y456856D1*
X2731765Y451108D1*
Y447305D1*
X2733666Y441557D1*
X2739414Y437755D1*
X2748965Y435809D1*
X2754713D1*
X2764263Y437755D1*
X2770011Y441557D1*
X2771913Y447305D1*
Y451108D1*
X2764263Y437755D2*
X2739414Y460703D1*
X2771913Y411962D2*
X2770011Y417710D1*
X2764263Y421557D1*
X2754713Y423458D1*
X2748965D1*
X2739414Y421557D1*
X2733666Y417710D1*
X2731765Y411962D1*
Y408159D1*
X2733666Y402411D1*
X2739414Y398609D1*
X2748965Y396663D1*
X2754713D1*
X2764263Y398609D1*
X2770011Y402411D1*
X2771913Y408159D1*
Y411962D1*
X2764263Y398609D2*
X2739414Y421557D1*
X208309Y402839D2*
X206364Y406686D1*
X200660Y412434D1*
X240808D1*
X200660Y436281D2*
X202561Y430533D1*
X208309Y426686D1*
X217860Y424785D1*
X223608D1*
X233159Y426686D1*
X238907Y430533D1*
X240808Y436281D1*
Y440084D1*
X238907Y445832D1*
X233159Y449634D1*
X223608Y451580D1*
X217860D1*
X208309Y449634D1*
X202561Y445832D1*
X200660Y440084D1*
Y436281D1*
X208309Y449634D2*
X233159Y426686D1*
X200660Y475427D2*
X202561Y469679D1*
X208309Y465832D1*
X217860Y463931D1*
X223608D1*
X233159Y465832D1*
X238907Y469679D1*
X240808Y475427D1*
Y479230D1*
X238907Y484978D1*
X233159Y488780D1*
X223608Y490726D1*
X217860D1*
X208309Y488780D1*
X202561Y484978D1*
X200660Y479230D1*
Y475427D1*
X208309Y488780D2*
X233159Y465832D1*
X1380365Y2512464D2*
X1361264D1*
X1359363Y2495264D1*
X1361264Y2497165D1*
X1367012Y2499111D1*
X1372716D1*
X1378464Y2497165D1*
X1382311Y2493363D1*
X1384212Y2487615D1*
Y2483812D1*
X1382311Y2478064D1*
X1378464Y2474217D1*
X1372716Y2472316D1*
X1367012D1*
X1361264Y2474217D1*
X1359363Y2476163D1*
X1357417Y2479965D1*
X1396563Y2504814D2*
X1400410Y2506760D1*
X1406158Y2512464D1*
Y2472316D1*
X1418510Y2504814D2*
X1422356Y2506760D1*
X1428104Y2512464D1*
Y2472316D1*
X1442357Y2476163D2*
X1440456Y2474217D1*
X1442357Y2472316D1*
X1444303Y2474217D1*
X1442357Y2476163D1*
X1466205Y2512464D2*
X1460501Y2510562D1*
X1458555Y2506760D1*
Y2502913D1*
X1460501Y2499111D1*
X1464303Y2497165D1*
X1471953Y2495264D1*
X1477701Y2493363D1*
X1481503Y2489516D1*
X1483404Y2485713D1*
Y2479965D1*
X1481503Y2476163D1*
X1479602Y2474217D1*
X1473854Y2472316D1*
X1466205D1*
X1460501Y2474217D1*
X1458555Y2476163D1*
X1456654Y2479965D1*
Y2485713D1*
X1458555Y2489516D1*
X1462402Y2493363D1*
X1468106Y2495264D1*
X1475755Y2497165D1*
X1479602Y2499111D1*
X1481503Y2502913D1*
Y2506760D1*
X1479602Y2510562D1*
X1473854Y2512464D1*
X1466205D1*
X1424798Y302190D2*
X1428645Y304135D1*
X1434393Y309839D1*
Y269691D1*
X1465890D2*
Y309839D1*
X1446745Y283089D1*
X1475441D1*
X1512685Y296486D2*
X1510740Y290738D1*
X1506937Y286891D1*
X1501189Y284990D1*
X1499288D1*
X1493540Y286891D1*
X1489737Y290738D1*
X1487792Y296486D1*
Y298387D1*
X1489737Y304135D1*
X1493540Y307938D1*
X1499288Y309839D1*
X1501189D1*
X1506937Y307938D1*
X1510740Y304135D1*
X1512685Y296486D1*
Y286891D1*
X1510740Y277341D1*
X1506937Y271593D1*
X1501189Y269691D1*
X1497387D1*
X1491639Y271593D1*
X1489737Y275439D1*
X1526938Y273538D2*
X1525037Y271593D1*
X1526938Y269691D1*
X1528884Y271593D1*
X1526938Y273538D1*
X1566128Y296486D2*
X1564183Y290738D1*
X1560380Y286891D1*
X1554632Y284990D1*
X1552731D1*
X1546983Y286891D1*
X1543180Y290738D1*
X1541235Y296486D1*
Y298387D1*
X1543180Y304135D1*
X1546983Y307938D1*
X1552731Y309839D1*
X1554632D1*
X1560380Y307938D1*
X1564183Y304135D1*
X1566128Y296486D1*
Y286891D1*
X1564183Y277341D1*
X1560380Y271593D1*
X1554632Y269691D1*
X1550830D1*
X1545082Y271593D1*
X1543180Y275439D1*
X1282448Y300353D2*
X1286295Y302298D1*
X1292043Y308002D1*
Y267854D1*
X1327342Y308002D2*
X1308241D1*
X1306339Y290802D1*
X1308241Y292703D1*
X1313989Y294649D1*
X1319693D1*
X1325441Y292703D1*
X1329287Y288901D1*
X1331189Y283153D1*
Y279350D1*
X1329287Y273602D1*
X1325441Y269755D1*
X1319693Y267854D1*
X1313989D1*
X1308241Y269755D1*
X1306339Y271701D1*
X1304394Y275503D1*
X1355036Y308002D2*
X1349288Y306101D1*
X1345441Y300353D1*
X1343540Y290802D1*
Y285054D1*
X1345441Y275503D1*
X1349288Y269755D1*
X1355036Y267854D1*
X1358839D1*
X1364587Y269755D1*
X1368389Y275503D1*
X1370335Y285054D1*
Y290802D1*
X1368389Y300353D1*
X1364587Y306101D1*
X1358839Y308002D1*
X1355036D1*
X1368389Y300353D2*
X1345441Y275503D1*
X1384587Y271701D2*
X1382686Y269755D1*
X1384587Y267854D1*
X1386533Y269755D1*
X1384587Y271701D1*
X1398884Y300353D2*
X1402731Y302298D1*
X1408479Y308002D1*
Y267854D1*
X525168Y308536D2*
X544313Y348684D1*
X517518D1*
X579612D2*
X560511D1*
X558610Y331484D1*
X560511Y333386D1*
X566259Y335331D1*
X571963D1*
X577711Y333386D1*
X581558Y329583D1*
X583459Y323835D1*
Y320032D1*
X581558Y314284D1*
X577711Y310438D1*
X571963Y308536D1*
X566259D1*
X560511Y310438D1*
X558610Y312383D1*
X556664Y316186D1*
X597712Y312383D2*
X595810Y310438D1*
X597712Y308536D1*
X599657Y310438D1*
X597712Y312383D1*
X613954Y339134D2*
Y341035D1*
X615855Y344882D1*
X617757Y346783D1*
X621603Y348684D1*
X629253D1*
X633055Y346783D1*
X634957Y344882D1*
X636902Y341035D1*
Y337232D1*
X634957Y333386D1*
X631154Y327682D1*
X612009Y308536D1*
X638803D1*
X2497228Y284652D2*
X2516373Y324800D1*
X2489579D1*
X2551673D2*
X2532572D1*
X2530670Y307600D1*
X2532572Y309501D1*
X2538320Y311447D1*
X2544023D1*
X2549771Y309501D1*
X2553618Y305699D1*
X2555519Y299951D1*
Y296148D1*
X2553618Y290400D1*
X2549771Y286553D1*
X2544023Y284652D1*
X2538320D1*
X2532572Y286553D1*
X2530670Y288499D1*
X2528725Y292301D1*
X2569772Y288499D2*
X2567871Y286553D1*
X2569772Y284652D1*
X2571718Y286553D1*
X2569772Y288499D1*
X2586014Y315249D2*
Y317150D1*
X2587916Y320997D1*
X2589817Y322898D1*
X2593664Y324800D1*
X2601313D1*
X2605116Y322898D1*
X2607017Y320997D1*
X2608962Y317150D1*
Y313348D1*
X2607017Y309501D1*
X2603214Y303797D1*
X2584069Y284652D1*
X2610864D1*
X559616Y903704D2*
X557671Y897956D1*
X553868Y894109D1*
X548120Y892208D1*
X546219D1*
X540471Y894109D1*
X536669Y897956D1*
X534723Y903704D1*
Y905605D1*
X536669Y911353D1*
X540471Y915156D1*
X546219Y917057D1*
X548120D1*
X553868Y915156D1*
X557671Y911353D1*
X559616Y903704D1*
Y894109D1*
X557671Y884558D1*
X553868Y878810D1*
X548120Y876909D1*
X544318D1*
X538570Y878810D1*
X536669Y882657D1*
X573913Y907506D2*
Y909408D1*
X575815Y913254D1*
X577716Y915156D1*
X581563Y917057D1*
X589212D1*
X593015Y915156D1*
X594916Y913254D1*
X596861Y909408D1*
Y905605D1*
X594916Y901758D1*
X591113Y896054D1*
X571968Y876909D1*
X598763D1*
X613015Y880756D2*
X611114Y878810D1*
X613015Y876909D1*
X614961Y878810D1*
X613015Y880756D1*
X646457Y876909D2*
Y917057D1*
X627312Y890306D1*
X656008D1*
X285011Y900299D2*
X290759Y898353D1*
X294605Y894551D1*
X296507Y888803D1*
Y886902D1*
X294605Y881154D1*
X290759Y877351D1*
X285011Y875405D1*
X283109D1*
X277361Y877351D1*
X273559Y881154D1*
X271657Y886902D1*
Y888803D1*
X273559Y894551D1*
X277361Y898353D1*
X285011Y900299D1*
X294605D1*
X304156Y898353D1*
X309904Y894551D1*
X311805Y888803D1*
Y885000D1*
X309904Y879252D1*
X306057Y877351D1*
X281208Y914596D2*
X279307D1*
X275460Y916497D1*
X273559Y918398D1*
X271657Y922245D1*
Y929894D1*
X273559Y933697D1*
X275460Y935598D1*
X279307Y937544D1*
X283109D1*
X286956Y935598D1*
X292660Y931796D1*
X311805Y912650D1*
Y939445D1*
X307958Y953698D2*
X309904Y951796D1*
X311805Y953698D1*
X309904Y955643D1*
X307958Y953698D1*
X311805Y987140D2*
X271657D1*
X298408Y967995D1*
Y996690D1*
X2514472Y954491D2*
X2512527Y948743D1*
X2508724Y944896D1*
X2502976Y942995D1*
X2501075D1*
X2495327Y944896D1*
X2491524Y948743D1*
X2489579Y954491D1*
Y956392D1*
X2491524Y962141D1*
X2495327Y965943D1*
X2501075Y967844D1*
X2502976D1*
X2508724Y965943D1*
X2512527Y962141D1*
X2514472Y954491D1*
Y944896D1*
X2512527Y935346D1*
X2508724Y929598D1*
X2502976Y927697D1*
X2499174D1*
X2493425Y929598D1*
X2491524Y933445D1*
X2528769Y958294D2*
Y960195D1*
X2530670Y964042D1*
X2532572Y965943D1*
X2536418Y967844D1*
X2544068D1*
X2547870Y965943D1*
X2549771Y964042D1*
X2551717Y960195D1*
Y956392D1*
X2549771Y952546D1*
X2545969Y946842D1*
X2526824Y927697D1*
X2553618D1*
X2567871Y931543D2*
X2565970Y929598D1*
X2567871Y927697D1*
X2569816Y929598D1*
X2567871Y931543D1*
X2601313Y927697D2*
Y967844D1*
X2582168Y941094D1*
X2610864D1*
X2581394Y660856D2*
X2575646Y662802D1*
X2571799Y666604D1*
X2569898Y672352D1*
Y674254D1*
X2571799Y680002D1*
X2575646Y683804D1*
X2581394Y685750D1*
X2583295D1*
X2589043Y683804D1*
X2592846Y680002D1*
X2594747Y674254D1*
Y672352D1*
X2592846Y666604D1*
X2589043Y662802D1*
X2581394Y660856D1*
X2571799D1*
X2562249Y662802D1*
X2556501Y666604D1*
X2554599Y672352D1*
Y676155D1*
X2556501Y681903D1*
X2560347Y683804D1*
X2585197Y646560D2*
X2587098D1*
X2590945Y644658D1*
X2592846Y642757D1*
X2594747Y638910D1*
Y631261D1*
X2592846Y627458D1*
X2590945Y625557D1*
X2587098Y623612D1*
X2583295D1*
X2579449Y625557D1*
X2573745Y629360D1*
X2554599Y648505D1*
Y621710D1*
X2558446Y607458D2*
X2556501Y609359D1*
X2554599Y607458D1*
X2556501Y605512D1*
X2558446Y607458D1*
X2554599Y574015D2*
X2594747D1*
X2567997Y593161D1*
Y564465D1*
X1471044Y2593858D2*
Y2595759D1*
X1472946Y2599606D1*
X1474847Y2601507D1*
X1478694Y2603409D1*
X1486343D1*
X1490145Y2601507D1*
X1492047Y2599606D1*
X1493992Y2595759D1*
Y2591957D1*
X1492047Y2588110D1*
X1488244Y2582406D1*
X1469099Y2563261D1*
X1495893D1*
X1531193Y2603409D2*
X1512092D1*
X1510190Y2586209D1*
X1512092Y2588110D1*
X1517840Y2590056D1*
X1523543D1*
X1529291Y2588110D1*
X1533138Y2584307D1*
X1535040Y2578559D1*
Y2574757D1*
X1533138Y2569009D1*
X1529291Y2565162D1*
X1523543Y2563261D1*
X1517840D1*
X1512092Y2565162D1*
X1510190Y2567108D1*
X1508245Y2570910D1*
X1570339Y2603409D2*
X1551238D1*
X1549336Y2586209D1*
X1551238Y2588110D1*
X1556986Y2590056D1*
X1562690D1*
X1568438Y2588110D1*
X1572284Y2584307D1*
X1574186Y2578559D1*
Y2574757D1*
X1572284Y2569009D1*
X1568438Y2565162D1*
X1562690Y2563261D1*
X1556986D1*
X1551238Y2565162D1*
X1549336Y2567108D1*
X1547391Y2570910D1*
X1588438Y2567108D2*
X1586537Y2565162D1*
X1588438Y2563261D1*
X1590384Y2565162D1*
X1588438Y2567108D1*
X1627629Y2590056D2*
X1625683Y2584307D1*
X1621880Y2580461D1*
X1616132Y2578559D1*
X1614231D1*
X1608483Y2580461D1*
X1604681Y2584307D1*
X1602735Y2590056D1*
Y2591957D1*
X1604681Y2597705D1*
X1608483Y2601507D1*
X1614231Y2603409D1*
X1616132D1*
X1621880Y2601507D1*
X1625683Y2597705D1*
X1627629Y2590056D1*
Y2580461D1*
X1625683Y2570910D1*
X1621880Y2565162D1*
X1616132Y2563261D1*
X1612330D1*
X1606582Y2565162D1*
X1604681Y2569009D1*
X1215139Y2594908D2*
Y2596809D1*
X1217040Y2600656D1*
X1218941Y2602557D1*
X1222788Y2604458D1*
X1230437D1*
X1234240Y2602557D1*
X1236141Y2600656D1*
X1238087Y2596809D1*
Y2593007D1*
X1236141Y2589160D1*
X1232339Y2583456D1*
X1213193Y2564311D1*
X1239988D1*
X1275287Y2604458D2*
X1256186D1*
X1254285Y2587259D1*
X1256186Y2589160D1*
X1261934Y2591105D1*
X1267638D1*
X1273386Y2589160D1*
X1277233Y2585357D1*
X1279134Y2579609D1*
Y2575807D1*
X1277233Y2570059D1*
X1273386Y2566212D1*
X1267638Y2564311D1*
X1261934D1*
X1256186Y2566212D1*
X1254285Y2568157D1*
X1252339Y2571960D1*
X1314433Y2604458D2*
X1295332D1*
X1293431Y2587259D1*
X1295332Y2589160D1*
X1301080Y2591105D1*
X1306784D1*
X1312532Y2589160D1*
X1316379Y2585357D1*
X1318280Y2579609D1*
Y2575807D1*
X1316379Y2570059D1*
X1312532Y2566212D1*
X1306784Y2564311D1*
X1301080D1*
X1295332Y2566212D1*
X1293431Y2568157D1*
X1291485Y2571960D1*
X1332533Y2568157D2*
X1330631Y2566212D1*
X1332533Y2564311D1*
X1334478Y2566212D1*
X1332533Y2568157D1*
X1371723Y2591105D2*
X1369778Y2585357D1*
X1365975Y2581511D1*
X1360227Y2579609D1*
X1358326D1*
X1352578Y2581511D1*
X1348775Y2585357D1*
X1346830Y2591105D1*
Y2593007D1*
X1348775Y2598755D1*
X1352578Y2602557D1*
X1358326Y2604458D1*
X1360227D1*
X1365975Y2602557D1*
X1369778Y2598755D1*
X1371723Y2591105D1*
Y2581511D1*
X1369778Y2571960D1*
X1365975Y2566212D1*
X1360227Y2564311D1*
X1356424D1*
X1350676Y2566212D1*
X1348775Y2570059D1*
M02*
