G04 DipTrace 3.0.0.2*
G04 TopMask.gbr*
%MOIN*%
G04 #@! TF.FileFunction,Soldermask,Top*
G04 #@! TF.Part,Single*
%ADD25C,0.11811*%
%ADD34R,0.066929X0.066929*%
%ADD36C,0.047244*%
%ADD38R,0.059055X0.066929*%
%ADD40C,0.066929*%
%FSLAX26Y26*%
G04*
G70*
G90*
G75*
G01*
G04 TopMask*
%LPD*%
D40*
X1564160Y893701D3*
Y993701D3*
Y1093701D3*
X1562586Y1193701D3*
X1564160Y1293701D3*
Y1393701D3*
Y1493701D3*
Y1593701D3*
Y1693701D3*
Y1793701D3*
Y1893701D3*
Y1993701D3*
Y2093701D3*
X1264160D3*
Y1993701D3*
Y1893701D3*
Y1793701D3*
Y1693701D3*
Y1593701D3*
Y1493701D3*
Y1393701D3*
Y1293701D3*
Y1193701D3*
Y1093701D3*
Y993701D3*
Y893701D3*
D38*
X2365761Y493688D3*
X2290958D3*
X468885D3*
X543688D3*
D25*
X486089Y734383D3*
D36*
D3*
D25*
X1417323Y2172966D3*
D36*
D3*
D25*
X2348557Y734383D3*
D36*
D3*
D38*
X2365486Y614961D3*
X2290683D3*
X469029Y616011D3*
X543832D3*
D34*
X2017441Y631221D3*
D40*
X1917441D3*
X1817441D3*
X1717441D3*
X1617441D3*
X1517441D3*
X1417441D3*
X1317441D3*
X1217441D3*
X1117441D3*
X1017441D3*
X917441D3*
X817441D3*
Y531221D3*
X917441D3*
X1017441D3*
X1117441D3*
X1217441D3*
X1317441D3*
X1417441D3*
X1517441D3*
X1617441D3*
X1717441D3*
X1817441D3*
X1917441D3*
X2017441D3*
G36*
X950394Y1480578D2*
X952100D1*
Y1473622D1*
X950394D1*
Y1480578D1*
G37*
M02*
